<?xml version='1.0' encoding='utf-8'?>
<mlt LC_NUMERIC="C" producer="main_bin" version="7.13.0" root="/media/jaker/Pterosaur/Videos/Class/CAD">
 <profile frame_rate_num="30" sample_aspect_num="1" display_aspect_den="9" colorspace="709" progressive="1" description="HD 720p 30 fps" display_aspect_num="16" frame_rate_den="1" width="1280" height="720" sample_aspect_den="1"/>
 <producer id="producer0" in="00:00:00.000" out="00:24:20.733">
  <property name="length">43823</property>
  <property name="eof">pause</property>
  <property name="resource">clips/01 CAD audio.mkv</property>
  <property name="audio_index">1</property>
  <property name="video_index">0</property>
  <property name="mute_on_pause">0</property>
  <property name="mlt_service">avformat-novalidate</property>
  <property name="meta.media.nb_streams">2</property>
  <property name="meta.media.0.stream.type">video</property>
  <property name="meta.media.0.stream.frame_rate">30</property>
  <property name="meta.media.0.stream.sample_aspect_ratio">0</property>
  <property name="meta.media.0.codec.width">1280</property>
  <property name="meta.media.0.codec.height">720</property>
  <property name="meta.media.0.codec.rotate">0</property>
  <property name="meta.media.0.codec.pix_fmt">yuv420p</property>
  <property name="meta.media.0.codec.sample_aspect_ratio">1</property>
  <property name="meta.media.0.codec.colorspace">709</property>
  <property name="meta.media.0.codec.color_trc">1</property>
  <property name="meta.media.0.codec.name">h264</property>
  <property name="meta.media.0.codec.long_name">H.264 / AVC / MPEG-4 AVC / MPEG-4 part 10</property>
  <property name="meta.media.0.codec.bit_rate">0</property>
  <property name="meta.attr.0.stream.DURATION.markup">00:24:20.766000000</property>
  <property name="meta.media.1.stream.type">audio</property>
  <property name="meta.media.1.codec.sample_fmt">fltp</property>
  <property name="meta.media.1.codec.sample_rate">48000</property>
  <property name="meta.media.1.codec.channels">2</property>
  <property name="meta.media.1.codec.name">aac</property>
  <property name="meta.media.1.codec.long_name">AAC (Advanced Audio Coding)</property>
  <property name="meta.media.1.codec.bit_rate">0</property>
  <property name="meta.attr.1.stream.title.markup">Track1</property>
  <property name="meta.attr.1.stream.DURATION.markup">00:24:20.608000000</property>
  <property name="meta.attr.ENCODER.markup">Lavf58.76.100</property>
  <property name="seekable">1</property>
  <property name="meta.media.sample_aspect_num">1</property>
  <property name="meta.media.sample_aspect_den">1</property>
  <property name="aspect_ratio">1</property>
  <property name="format">3</property>
  <property name="kdenlive:clipname"/>
  <property name="kdenlive:clip_type">0</property>
  <property name="kdenlive:folderid">28</property>
  <property name="kdenlive:id">2</property>
  <property name="kdenlive:file_size">486506479</property>
  <property name="kdenlive:file_hash">51d88c746da7879822eea9d20c5972e1</property>
  <property name="kdenlive:audio_max1">234</property>
  <property name="meta.media.frame_rate_num">30</property>
  <property name="meta.media.frame_rate_den">1</property>
  <property name="meta.media.colorspace">709</property>
  <property name="meta.media.color_trc">1</property>
  <property name="meta.media.has_b_frames">2</property>
  <property name="meta.media.width">1280</property>
  <property name="meta.media.height">720</property>
  <property name="meta.media.color_range">mpeg</property>
  <property name="meta.media.top_field_first">0</property>
  <property name="meta.media.progressive">1</property>
 </producer>
 <producer id="producer2" in="00:00:00.000" out="00:24:21.033">
  <property name="length">43832</property>
  <property name="eof">pause</property>
  <property name="resource">clips/01 CAD Desktop.mkv</property>
  <property name="audio_index">1</property>
  <property name="video_index">0</property>
  <property name="mute_on_pause">0</property>
  <property name="mlt_service">avformat-novalidate</property>
  <property name="meta.media.nb_streams">2</property>
  <property name="meta.media.0.stream.type">video</property>
  <property name="meta.media.0.stream.frame_rate">30</property>
  <property name="meta.media.0.stream.sample_aspect_ratio">0</property>
  <property name="meta.media.0.codec.width">1920</property>
  <property name="meta.media.0.codec.height">1080</property>
  <property name="meta.media.0.codec.rotate">0</property>
  <property name="meta.media.0.codec.pix_fmt">yuv420p</property>
  <property name="meta.media.0.codec.sample_aspect_ratio">1</property>
  <property name="meta.media.0.codec.colorspace">709</property>
  <property name="meta.media.0.codec.color_trc">1</property>
  <property name="meta.media.0.codec.name">h264</property>
  <property name="meta.media.0.codec.long_name">H.264 / AVC / MPEG-4 AVC / MPEG-4 part 10</property>
  <property name="meta.media.0.codec.bit_rate">0</property>
  <property name="meta.attr.0.stream.DURATION.markup">00:24:21.066000000</property>
  <property name="meta.media.1.stream.type">audio</property>
  <property name="meta.media.1.codec.sample_fmt">fltp</property>
  <property name="meta.media.1.codec.sample_rate">48000</property>
  <property name="meta.media.1.codec.channels">2</property>
  <property name="meta.media.1.codec.name">aac</property>
  <property name="meta.media.1.codec.long_name">AAC (Advanced Audio Coding)</property>
  <property name="meta.media.1.codec.bit_rate">0</property>
  <property name="meta.attr.1.stream.title.markup">Source Record</property>
  <property name="meta.attr.1.stream.DURATION.markup">00:24:21.056000000</property>
  <property name="meta.attr.ENCODER.markup">Lavf58.76.100</property>
  <property name="seekable">1</property>
  <property name="meta.media.sample_aspect_num">1</property>
  <property name="meta.media.sample_aspect_den">1</property>
  <property name="aspect_ratio">1</property>
  <property name="format">3</property>
  <property name="kdenlive:clipname"/>
  <property name="kdenlive:clip_type">0</property>
  <property name="kdenlive:folderid">28</property>
  <property name="kdenlive:id">3</property>
  <property name="kdenlive:file_size">457735203</property>
  <property name="kdenlive:file_hash">5ea2fd1f66be5394ba4ff472605eaf2d</property>
  <property name="kdenlive:audio_max1">1</property>
  <property name="meta.media.frame_rate_num">30</property>
  <property name="meta.media.frame_rate_den">1</property>
  <property name="meta.media.colorspace">709</property>
  <property name="meta.media.color_trc">1</property>
  <property name="meta.media.has_b_frames">0</property>
  <property name="meta.media.width">1920</property>
  <property name="meta.media.height">1080</property>
  <property name="meta.media.color_range">mpeg</property>
  <property name="meta.media.top_field_first">0</property>
  <property name="meta.media.progressive">1</property>
 </producer>
 <producer id="producer1" in="00:00:00.000" out="00:24:21.167">
  <property name="length">43836</property>
  <property name="eof">pause</property>
  <property name="resource">clips/01 CAD facecam.mkv</property>
  <property name="audio_index">1</property>
  <property name="video_index">0</property>
  <property name="mute_on_pause">0</property>
  <property name="mlt_service">avformat-novalidate</property>
  <property name="meta.media.nb_streams">2</property>
  <property name="meta.media.0.stream.type">video</property>
  <property name="meta.media.0.stream.frame_rate">30</property>
  <property name="meta.media.0.stream.sample_aspect_ratio">0</property>
  <property name="meta.media.0.codec.width">800</property>
  <property name="meta.media.0.codec.height">600</property>
  <property name="meta.media.0.codec.rotate">0</property>
  <property name="meta.media.0.codec.pix_fmt">yuv420p</property>
  <property name="meta.media.0.codec.sample_aspect_ratio">1</property>
  <property name="meta.media.0.codec.colorspace">709</property>
  <property name="meta.media.0.codec.color_trc">1</property>
  <property name="meta.media.0.codec.name">h264</property>
  <property name="meta.media.0.codec.long_name">H.264 / AVC / MPEG-4 AVC / MPEG-4 part 10</property>
  <property name="meta.media.0.codec.bit_rate">0</property>
  <property name="meta.attr.0.stream.DURATION.markup">00:24:21.166000000</property>
  <property name="meta.media.1.stream.type">audio</property>
  <property name="meta.media.1.codec.sample_fmt">fltp</property>
  <property name="meta.media.1.codec.sample_rate">48000</property>
  <property name="meta.media.1.codec.channels">2</property>
  <property name="meta.media.1.codec.name">aac</property>
  <property name="meta.media.1.codec.long_name">AAC (Advanced Audio Coding)</property>
  <property name="meta.media.1.codec.bit_rate">0</property>
  <property name="meta.attr.1.stream.title.markup">Source Record</property>
  <property name="meta.attr.1.stream.DURATION.markup">00:24:21.184000000</property>
  <property name="meta.attr.ENCODER.markup">Lavf58.76.100</property>
  <property name="seekable">1</property>
  <property name="meta.media.sample_aspect_num">1</property>
  <property name="meta.media.sample_aspect_den">1</property>
  <property name="aspect_ratio">1</property>
  <property name="format">3</property>
  <property name="kdenlive:clipname"/>
  <property name="kdenlive:clip_type">0</property>
  <property name="kdenlive:folderid">28</property>
  <property name="kdenlive:id">4</property>
  <property name="kdenlive:file_size">457797774</property>
  <property name="kdenlive:file_hash">42fbf6649d003d9839583cf493490ac7</property>
  <property name="kdenlive:audio_max1">1</property>
  <property name="meta.media.frame_rate_num">30</property>
  <property name="meta.media.frame_rate_den">1</property>
  <property name="meta.media.colorspace">709</property>
  <property name="meta.media.color_trc">1</property>
  <property name="meta.media.has_b_frames">0</property>
  <property name="meta.media.width">800</property>
  <property name="meta.media.height">600</property>
  <property name="meta.media.color_range">mpeg</property>
  <property name="meta.media.top_field_first">0</property>
  <property name="meta.media.progressive">1</property>
 </producer>
 <producer id="producer3" in="00:00:00.000" out="00:09:14.400">
  <property name="length">16633</property>
  <property name="eof">pause</property>
  <property name="resource">clips/02 Setup audio.mkv</property>
  <property name="audio_index">1</property>
  <property name="video_index">0</property>
  <property name="mute_on_pause">0</property>
  <property name="mlt_service">avformat-novalidate</property>
  <property name="meta.media.nb_streams">2</property>
  <property name="meta.media.0.stream.type">video</property>
  <property name="meta.media.0.stream.frame_rate">30</property>
  <property name="meta.media.0.stream.sample_aspect_ratio">0</property>
  <property name="meta.media.0.codec.width">1280</property>
  <property name="meta.media.0.codec.height">720</property>
  <property name="meta.media.0.codec.rotate">0</property>
  <property name="meta.media.0.codec.pix_fmt">yuv420p</property>
  <property name="meta.media.0.codec.sample_aspect_ratio">1</property>
  <property name="meta.media.0.codec.colorspace">709</property>
  <property name="meta.media.0.codec.color_trc">1</property>
  <property name="meta.media.0.codec.name">h264</property>
  <property name="meta.media.0.codec.long_name">H.264 / AVC / MPEG-4 AVC / MPEG-4 part 10</property>
  <property name="meta.media.0.codec.bit_rate">0</property>
  <property name="meta.attr.0.stream.DURATION.markup">00:09:14.433000000</property>
  <property name="meta.media.1.stream.type">audio</property>
  <property name="meta.media.1.codec.sample_fmt">fltp</property>
  <property name="meta.media.1.codec.sample_rate">48000</property>
  <property name="meta.media.1.codec.channels">2</property>
  <property name="meta.media.1.codec.name">aac</property>
  <property name="meta.media.1.codec.long_name">AAC (Advanced Audio Coding)</property>
  <property name="meta.media.1.codec.bit_rate">0</property>
  <property name="meta.attr.1.stream.title.markup">Track1</property>
  <property name="meta.attr.1.stream.DURATION.markup">00:09:14.304000000</property>
  <property name="meta.attr.ENCODER.markup">Lavf58.76.100</property>
  <property name="seekable">1</property>
  <property name="meta.media.sample_aspect_num">1</property>
  <property name="meta.media.sample_aspect_den">1</property>
  <property name="aspect_ratio">1</property>
  <property name="format">3</property>
  <property name="kdenlive:clipname"/>
  <property name="kdenlive:clip_type">0</property>
  <property name="kdenlive:folderid">29</property>
  <property name="kdenlive:id">5</property>
  <property name="kdenlive:file_size">184665858</property>
  <property name="kdenlive:file_hash">d245c29173e458c43a90e2f4ad3837df</property>
  <property name="kdenlive:audio_max1">174</property>
  <property name="meta.media.frame_rate_num">30</property>
  <property name="meta.media.frame_rate_den">1</property>
  <property name="meta.media.colorspace">709</property>
  <property name="meta.media.color_trc">1</property>
  <property name="meta.media.has_b_frames">2</property>
  <property name="meta.media.width">1280</property>
  <property name="meta.media.height">720</property>
  <property name="meta.media.color_range">mpeg</property>
  <property name="meta.media.top_field_first">0</property>
  <property name="meta.media.progressive">1</property>
 </producer>
 <producer id="producer4" in="00:00:00.000" out="00:09:14.133">
  <property name="length">16625</property>
  <property name="eof">pause</property>
  <property name="resource">clips/02 Setup Desktop.mkv</property>
  <property name="audio_index">1</property>
  <property name="video_index">0</property>
  <property name="mute_on_pause">0</property>
  <property name="mlt_service">avformat-novalidate</property>
  <property name="meta.media.nb_streams">2</property>
  <property name="meta.media.0.stream.type">video</property>
  <property name="meta.media.0.stream.frame_rate">30</property>
  <property name="meta.media.0.stream.sample_aspect_ratio">0</property>
  <property name="meta.media.0.codec.width">1920</property>
  <property name="meta.media.0.codec.height">1080</property>
  <property name="meta.media.0.codec.rotate">0</property>
  <property name="meta.media.0.codec.pix_fmt">yuv420p</property>
  <property name="meta.media.0.codec.sample_aspect_ratio">1</property>
  <property name="meta.media.0.codec.colorspace">709</property>
  <property name="meta.media.0.codec.color_trc">1</property>
  <property name="meta.media.0.codec.name">h264</property>
  <property name="meta.media.0.codec.long_name">H.264 / AVC / MPEG-4 AVC / MPEG-4 part 10</property>
  <property name="meta.media.0.codec.bit_rate">0</property>
  <property name="meta.attr.0.stream.DURATION.markup">00:09:14.166000000</property>
  <property name="meta.media.1.stream.type">audio</property>
  <property name="meta.media.1.codec.sample_fmt">fltp</property>
  <property name="meta.media.1.codec.sample_rate">48000</property>
  <property name="meta.media.1.codec.channels">2</property>
  <property name="meta.media.1.codec.name">aac</property>
  <property name="meta.media.1.codec.long_name">AAC (Advanced Audio Coding)</property>
  <property name="meta.media.1.codec.bit_rate">0</property>
  <property name="meta.attr.1.stream.title.markup">Source Record</property>
  <property name="meta.attr.1.stream.DURATION.markup">00:09:14.133000000</property>
  <property name="meta.attr.ENCODER.markup">Lavf58.76.100</property>
  <property name="seekable">1</property>
  <property name="meta.media.sample_aspect_num">1</property>
  <property name="meta.media.sample_aspect_den">1</property>
  <property name="aspect_ratio">1</property>
  <property name="format">3</property>
  <property name="kdenlive:clipname"/>
  <property name="kdenlive:clip_type">0</property>
  <property name="kdenlive:folderid">29</property>
  <property name="kdenlive:id">6</property>
  <property name="kdenlive:file_size">173593797</property>
  <property name="kdenlive:file_hash">69dd0610d4a97bddddb2029b4eb429d0</property>
  <property name="kdenlive:audio_max1">1</property>
  <property name="meta.media.frame_rate_num">30</property>
  <property name="meta.media.frame_rate_den">1</property>
  <property name="meta.media.colorspace">709</property>
  <property name="meta.media.color_trc">1</property>
  <property name="meta.media.has_b_frames">0</property>
  <property name="meta.media.width">1920</property>
  <property name="meta.media.height">1080</property>
  <property name="meta.media.color_range">mpeg</property>
  <property name="meta.media.top_field_first">0</property>
  <property name="meta.media.progressive">1</property>
 </producer>
 <producer id="producer5" in="00:00:00.000" out="00:09:14.967">
  <property name="length">16650</property>
  <property name="eof">pause</property>
  <property name="resource">clips/02 Setup facecam.mkv</property>
  <property name="audio_index">1</property>
  <property name="video_index">0</property>
  <property name="mute_on_pause">0</property>
  <property name="mlt_service">avformat-novalidate</property>
  <property name="meta.media.nb_streams">2</property>
  <property name="meta.media.0.stream.type">video</property>
  <property name="meta.media.0.stream.frame_rate">30</property>
  <property name="meta.media.0.stream.sample_aspect_ratio">0</property>
  <property name="meta.media.0.codec.width">800</property>
  <property name="meta.media.0.codec.height">600</property>
  <property name="meta.media.0.codec.rotate">0</property>
  <property name="meta.media.0.codec.pix_fmt">yuv420p</property>
  <property name="meta.media.0.codec.sample_aspect_ratio">1</property>
  <property name="meta.media.0.codec.colorspace">709</property>
  <property name="meta.media.0.codec.color_trc">1</property>
  <property name="meta.media.0.codec.name">h264</property>
  <property name="meta.media.0.codec.long_name">H.264 / AVC / MPEG-4 AVC / MPEG-4 part 10</property>
  <property name="meta.media.0.codec.bit_rate">0</property>
  <property name="meta.attr.0.stream.DURATION.markup">00:09:14.966000000</property>
  <property name="meta.media.1.stream.type">audio</property>
  <property name="meta.media.1.codec.sample_fmt">fltp</property>
  <property name="meta.media.1.codec.sample_rate">48000</property>
  <property name="meta.media.1.codec.channels">2</property>
  <property name="meta.media.1.codec.name">aac</property>
  <property name="meta.media.1.codec.long_name">AAC (Advanced Audio Coding)</property>
  <property name="meta.media.1.codec.bit_rate">0</property>
  <property name="meta.attr.1.stream.title.markup">Source Record</property>
  <property name="meta.attr.1.stream.DURATION.markup">00:09:14.986000000</property>
  <property name="meta.attr.ENCODER.markup">Lavf58.76.100</property>
  <property name="seekable">1</property>
  <property name="meta.media.sample_aspect_num">1</property>
  <property name="meta.media.sample_aspect_den">1</property>
  <property name="aspect_ratio">1</property>
  <property name="format">3</property>
  <property name="kdenlive:clipname"/>
  <property name="kdenlive:clip_type">0</property>
  <property name="kdenlive:folderid">29</property>
  <property name="kdenlive:id">7</property>
  <property name="kdenlive:file_size">173887131</property>
  <property name="kdenlive:file_hash">1f8ba7dc7065f6f6e4b29e68ba7174db</property>
  <property name="kdenlive:audio_max1">1</property>
  <property name="meta.media.frame_rate_num">30</property>
  <property name="meta.media.frame_rate_den">1</property>
  <property name="meta.media.colorspace">709</property>
  <property name="meta.media.color_trc">1</property>
  <property name="meta.media.has_b_frames">0</property>
  <property name="meta.media.width">800</property>
  <property name="meta.media.height">600</property>
  <property name="meta.media.color_range">mpeg</property>
  <property name="meta.media.top_field_first">0</property>
  <property name="meta.media.progressive">1</property>
 </producer>
 <producer id="producer6" in="00:00:00.000" out="00:08:18.800">
  <property name="length">14965</property>
  <property name="eof">pause</property>
  <property name="resource">clips/04.0 examples audio.mkv</property>
  <property name="audio_index">1</property>
  <property name="video_index">0</property>
  <property name="mute_on_pause">0</property>
  <property name="mlt_service">avformat-novalidate</property>
  <property name="meta.media.nb_streams">2</property>
  <property name="meta.media.0.stream.type">video</property>
  <property name="meta.media.0.stream.frame_rate">30</property>
  <property name="meta.media.0.stream.sample_aspect_ratio">0</property>
  <property name="meta.media.0.codec.width">1280</property>
  <property name="meta.media.0.codec.height">720</property>
  <property name="meta.media.0.codec.rotate">0</property>
  <property name="meta.media.0.codec.pix_fmt">yuv420p</property>
  <property name="meta.media.0.codec.sample_aspect_ratio">1</property>
  <property name="meta.media.0.codec.colorspace">709</property>
  <property name="meta.media.0.codec.color_trc">1</property>
  <property name="meta.media.0.codec.name">h264</property>
  <property name="meta.media.0.codec.long_name">H.264 / AVC / MPEG-4 AVC / MPEG-4 part 10</property>
  <property name="meta.media.0.codec.bit_rate">0</property>
  <property name="meta.attr.0.stream.DURATION.markup">00:08:18.833000000</property>
  <property name="meta.media.1.stream.type">audio</property>
  <property name="meta.media.1.codec.sample_fmt">fltp</property>
  <property name="meta.media.1.codec.sample_rate">48000</property>
  <property name="meta.media.1.codec.channels">2</property>
  <property name="meta.media.1.codec.name">aac</property>
  <property name="meta.media.1.codec.long_name">AAC (Advanced Audio Coding)</property>
  <property name="meta.media.1.codec.bit_rate">0</property>
  <property name="meta.attr.1.stream.title.markup">Track1</property>
  <property name="meta.attr.1.stream.DURATION.markup">00:08:18.666000000</property>
  <property name="meta.attr.ENCODER.markup">Lavf58.76.100</property>
  <property name="seekable">1</property>
  <property name="meta.media.sample_aspect_num">1</property>
  <property name="meta.media.sample_aspect_den">1</property>
  <property name="aspect_ratio">1</property>
  <property name="format">3</property>
  <property name="kdenlive:clipname"/>
  <property name="kdenlive:clip_type">0</property>
  <property name="kdenlive:folderid">31</property>
  <property name="kdenlive:id">8</property>
  <property name="kdenlive:file_size">166196431</property>
  <property name="kdenlive:file_hash">154550b3169f03cb423d9ba991480391</property>
  <property name="meta.media.frame_rate_num">30</property>
  <property name="meta.media.frame_rate_den">1</property>
  <property name="meta.media.colorspace">709</property>
  <property name="meta.media.color_trc">1</property>
  <property name="meta.media.has_b_frames">2</property>
  <property name="meta.media.width">1280</property>
  <property name="meta.media.height">720</property>
  <property name="meta.media.color_range">mpeg</property>
  <property name="meta.media.top_field_first">0</property>
  <property name="meta.media.progressive">1</property>
  <property name="kdenlive:audio_max1">195</property>
 </producer>
 <producer id="producer8" in="00:00:00.000" out="00:08:19.067">
  <property name="length">14973</property>
  <property name="eof">pause</property>
  <property name="resource">clips/04.0 examples desktop.mkv</property>
  <property name="audio_index">1</property>
  <property name="video_index">0</property>
  <property name="mute_on_pause">0</property>
  <property name="mlt_service">avformat-novalidate</property>
  <property name="meta.media.nb_streams">2</property>
  <property name="meta.media.0.stream.type">video</property>
  <property name="meta.media.0.stream.frame_rate">30</property>
  <property name="meta.media.0.stream.sample_aspect_ratio">0</property>
  <property name="meta.media.0.codec.width">1920</property>
  <property name="meta.media.0.codec.height">1080</property>
  <property name="meta.media.0.codec.rotate">0</property>
  <property name="meta.media.0.codec.pix_fmt">yuv420p</property>
  <property name="meta.media.0.codec.sample_aspect_ratio">1</property>
  <property name="meta.media.0.codec.colorspace">709</property>
  <property name="meta.media.0.codec.color_trc">1</property>
  <property name="meta.media.0.codec.name">h264</property>
  <property name="meta.media.0.codec.long_name">H.264 / AVC / MPEG-4 AVC / MPEG-4 part 10</property>
  <property name="meta.media.0.codec.bit_rate">0</property>
  <property name="meta.attr.0.stream.DURATION.markup">00:08:19.100000000</property>
  <property name="meta.media.1.stream.type">audio</property>
  <property name="meta.media.1.codec.sample_fmt">fltp</property>
  <property name="meta.media.1.codec.sample_rate">48000</property>
  <property name="meta.media.1.codec.channels">2</property>
  <property name="meta.media.1.codec.name">aac</property>
  <property name="meta.media.1.codec.long_name">AAC (Advanced Audio Coding)</property>
  <property name="meta.media.1.codec.bit_rate">0</property>
  <property name="meta.attr.1.stream.title.markup">Source Record</property>
  <property name="meta.attr.1.stream.DURATION.markup">00:08:19.114000000</property>
  <property name="meta.attr.ENCODER.markup">Lavf58.76.100</property>
  <property name="seekable">1</property>
  <property name="meta.media.sample_aspect_num">1</property>
  <property name="meta.media.sample_aspect_den">1</property>
  <property name="aspect_ratio">1</property>
  <property name="format">3</property>
  <property name="kdenlive:clipname"/>
  <property name="kdenlive:clip_type">0</property>
  <property name="kdenlive:folderid">31</property>
  <property name="kdenlive:id">9</property>
  <property name="kdenlive:file_size">156406009</property>
  <property name="kdenlive:file_hash">7f91ba74889d494d7efc8794a681e8ae</property>
  <property name="meta.media.frame_rate_num">30</property>
  <property name="meta.media.frame_rate_den">1</property>
  <property name="meta.media.colorspace">709</property>
  <property name="meta.media.color_trc">1</property>
  <property name="meta.media.has_b_frames">0</property>
  <property name="meta.media.width">1920</property>
  <property name="meta.media.height">1080</property>
  <property name="meta.media.color_range">mpeg</property>
  <property name="meta.media.top_field_first">0</property>
  <property name="meta.media.progressive">1</property>
  <property name="kdenlive:audio_max1">1</property>
 </producer>
 <producer id="producer7" in="00:00:00.000" out="00:08:19.267">
  <property name="length">14979</property>
  <property name="eof">pause</property>
  <property name="resource">clips/04.0 examples facecam.mkv</property>
  <property name="audio_index">1</property>
  <property name="video_index">0</property>
  <property name="mute_on_pause">0</property>
  <property name="mlt_service">avformat-novalidate</property>
  <property name="meta.media.nb_streams">2</property>
  <property name="meta.media.0.stream.type">video</property>
  <property name="meta.media.0.stream.frame_rate">30</property>
  <property name="meta.media.0.stream.sample_aspect_ratio">0</property>
  <property name="meta.media.0.codec.width">800</property>
  <property name="meta.media.0.codec.height">600</property>
  <property name="meta.media.0.codec.rotate">0</property>
  <property name="meta.media.0.codec.pix_fmt">yuv420p</property>
  <property name="meta.media.0.codec.sample_aspect_ratio">1</property>
  <property name="meta.media.0.codec.colorspace">709</property>
  <property name="meta.media.0.codec.color_trc">1</property>
  <property name="meta.media.0.codec.name">h264</property>
  <property name="meta.media.0.codec.long_name">H.264 / AVC / MPEG-4 AVC / MPEG-4 part 10</property>
  <property name="meta.media.0.codec.bit_rate">0</property>
  <property name="meta.attr.0.stream.DURATION.markup">00:08:19.300000000</property>
  <property name="meta.media.1.stream.type">audio</property>
  <property name="meta.media.1.codec.sample_fmt">fltp</property>
  <property name="meta.media.1.codec.sample_rate">48000</property>
  <property name="meta.media.1.codec.channels">2</property>
  <property name="meta.media.1.codec.name">aac</property>
  <property name="meta.media.1.codec.long_name">AAC (Advanced Audio Coding)</property>
  <property name="meta.media.1.codec.bit_rate">0</property>
  <property name="meta.attr.1.stream.title.markup">Source Record</property>
  <property name="meta.attr.1.stream.DURATION.markup">00:08:19.285000000</property>
  <property name="meta.attr.ENCODER.markup">Lavf58.76.100</property>
  <property name="seekable">1</property>
  <property name="meta.media.sample_aspect_num">1</property>
  <property name="meta.media.sample_aspect_den">1</property>
  <property name="aspect_ratio">1</property>
  <property name="format">3</property>
  <property name="kdenlive:clipname"/>
  <property name="kdenlive:clip_type">0</property>
  <property name="kdenlive:folderid">31</property>
  <property name="kdenlive:id">10</property>
  <property name="kdenlive:file_size">156453412</property>
  <property name="kdenlive:file_hash">ea3e928635eee5f7eccd0f6ee2fb6f3a</property>
  <property name="meta.media.frame_rate_num">30</property>
  <property name="meta.media.frame_rate_den">1</property>
  <property name="meta.media.colorspace">709</property>
  <property name="meta.media.color_trc">1</property>
  <property name="meta.media.has_b_frames">0</property>
  <property name="meta.media.width">800</property>
  <property name="meta.media.height">600</property>
  <property name="meta.media.color_range">mpeg</property>
  <property name="meta.media.top_field_first">0</property>
  <property name="meta.media.progressive">1</property>
  <property name="kdenlive:audio_max1">1</property>
 </producer>
 <producer id="producer9" in="00:00:00.000" out="00:14:21.900">
  <property name="length">25858</property>
  <property name="eof">pause</property>
  <property name="resource">clips/04.1 example garden acre audio.mkv</property>
  <property name="audio_index">1</property>
  <property name="video_index">0</property>
  <property name="mute_on_pause">0</property>
  <property name="mlt_service">avformat-novalidate</property>
  <property name="meta.media.nb_streams">2</property>
  <property name="meta.media.0.stream.type">video</property>
  <property name="meta.media.0.stream.frame_rate">30</property>
  <property name="meta.media.0.stream.sample_aspect_ratio">0</property>
  <property name="meta.media.0.codec.width">1280</property>
  <property name="meta.media.0.codec.height">720</property>
  <property name="meta.media.0.codec.rotate">0</property>
  <property name="meta.media.0.codec.pix_fmt">yuv420p</property>
  <property name="meta.media.0.codec.sample_aspect_ratio">1</property>
  <property name="meta.media.0.codec.colorspace">709</property>
  <property name="meta.media.0.codec.color_trc">1</property>
  <property name="meta.media.0.codec.name">h264</property>
  <property name="meta.media.0.codec.long_name">H.264 / AVC / MPEG-4 AVC / MPEG-4 part 10</property>
  <property name="meta.media.0.codec.bit_rate">0</property>
  <property name="meta.attr.0.stream.DURATION.markup">00:14:21.933000000</property>
  <property name="meta.media.1.stream.type">audio</property>
  <property name="meta.media.1.codec.sample_fmt">fltp</property>
  <property name="meta.media.1.codec.sample_rate">48000</property>
  <property name="meta.media.1.codec.channels">2</property>
  <property name="meta.media.1.codec.name">aac</property>
  <property name="meta.media.1.codec.long_name">AAC (Advanced Audio Coding)</property>
  <property name="meta.media.1.codec.bit_rate">0</property>
  <property name="meta.attr.1.stream.title.markup">Track1</property>
  <property name="meta.attr.1.stream.DURATION.markup">00:14:21.802000000</property>
  <property name="meta.attr.ENCODER.markup">Lavf58.76.100</property>
  <property name="seekable">1</property>
  <property name="meta.media.sample_aspect_num">1</property>
  <property name="meta.media.sample_aspect_den">1</property>
  <property name="aspect_ratio">1</property>
  <property name="format">3</property>
  <property name="kdenlive:clipname"/>
  <property name="kdenlive:clip_type">0</property>
  <property name="kdenlive:folderid">31</property>
  <property name="kdenlive:id">11</property>
  <property name="kdenlive:file_size">287055648</property>
  <property name="kdenlive:file_hash">ead8c19ddf4d7ef6f6e1d421a7606b2a</property>
  <property name="meta.media.frame_rate_num">30</property>
  <property name="meta.media.frame_rate_den">1</property>
  <property name="meta.media.colorspace">709</property>
  <property name="meta.media.color_trc">1</property>
  <property name="meta.media.has_b_frames">2</property>
  <property name="meta.media.width">1280</property>
  <property name="meta.media.height">720</property>
  <property name="meta.media.color_range">mpeg</property>
  <property name="meta.media.top_field_first">0</property>
  <property name="meta.media.progressive">1</property>
  <property name="kdenlive:audio_max1">236</property>
 </producer>
 <producer id="producer11" in="00:00:00.000" out="00:14:22.033">
  <property name="length">25862</property>
  <property name="eof">pause</property>
  <property name="resource">clips/04.1 example garden acre Desktop.mkv</property>
  <property name="audio_index">1</property>
  <property name="video_index">0</property>
  <property name="mute_on_pause">0</property>
  <property name="mlt_service">avformat-novalidate</property>
  <property name="meta.media.nb_streams">2</property>
  <property name="meta.media.0.stream.type">video</property>
  <property name="meta.media.0.stream.frame_rate">30</property>
  <property name="meta.media.0.stream.sample_aspect_ratio">0</property>
  <property name="meta.media.0.codec.width">1920</property>
  <property name="meta.media.0.codec.height">1080</property>
  <property name="meta.media.0.codec.rotate">0</property>
  <property name="meta.media.0.codec.pix_fmt">yuv420p</property>
  <property name="meta.media.0.codec.sample_aspect_ratio">1</property>
  <property name="meta.media.0.codec.colorspace">709</property>
  <property name="meta.media.0.codec.color_trc">1</property>
  <property name="meta.media.0.codec.name">h264</property>
  <property name="meta.media.0.codec.long_name">H.264 / AVC / MPEG-4 AVC / MPEG-4 part 10</property>
  <property name="meta.media.0.codec.bit_rate">0</property>
  <property name="meta.attr.0.stream.DURATION.markup">00:14:22.066000000</property>
  <property name="meta.media.1.stream.type">audio</property>
  <property name="meta.media.1.codec.sample_fmt">fltp</property>
  <property name="meta.media.1.codec.sample_rate">48000</property>
  <property name="meta.media.1.codec.channels">2</property>
  <property name="meta.media.1.codec.name">aac</property>
  <property name="meta.media.1.codec.long_name">AAC (Advanced Audio Coding)</property>
  <property name="meta.media.1.codec.bit_rate">0</property>
  <property name="meta.attr.1.stream.title.markup">Source Record</property>
  <property name="meta.attr.1.stream.DURATION.markup">00:14:22.080000000</property>
  <property name="meta.attr.ENCODER.markup">Lavf58.76.100</property>
  <property name="seekable">1</property>
  <property name="meta.media.sample_aspect_num">1</property>
  <property name="meta.media.sample_aspect_den">1</property>
  <property name="aspect_ratio">1</property>
  <property name="format">3</property>
  <property name="kdenlive:clipname"/>
  <property name="kdenlive:clip_type">0</property>
  <property name="kdenlive:folderid">31</property>
  <property name="kdenlive:id">12</property>
  <property name="kdenlive:file_size">270056992</property>
  <property name="kdenlive:file_hash">1d05c73120af17cfb84ce7a970247940</property>
  <property name="meta.media.frame_rate_num">30</property>
  <property name="meta.media.frame_rate_den">1</property>
  <property name="meta.media.colorspace">709</property>
  <property name="meta.media.color_trc">1</property>
  <property name="meta.media.has_b_frames">0</property>
  <property name="meta.media.width">1920</property>
  <property name="meta.media.height">1080</property>
  <property name="meta.media.color_range">mpeg</property>
  <property name="meta.media.top_field_first">0</property>
  <property name="meta.media.progressive">1</property>
  <property name="kdenlive:audio_max1">1</property>
 </producer>
 <producer id="producer10" in="00:00:00.000" out="00:14:22.433">
  <property name="length">25874</property>
  <property name="eof">pause</property>
  <property name="resource">clips/04.1 example garden acre facecam.mkv</property>
  <property name="audio_index">1</property>
  <property name="video_index">0</property>
  <property name="mute_on_pause">0</property>
  <property name="mlt_service">avformat-novalidate</property>
  <property name="meta.media.nb_streams">2</property>
  <property name="meta.media.0.stream.type">video</property>
  <property name="meta.media.0.stream.frame_rate">30</property>
  <property name="meta.media.0.stream.sample_aspect_ratio">0</property>
  <property name="meta.media.0.codec.width">800</property>
  <property name="meta.media.0.codec.height">600</property>
  <property name="meta.media.0.codec.rotate">0</property>
  <property name="meta.media.0.codec.pix_fmt">yuv420p</property>
  <property name="meta.media.0.codec.sample_aspect_ratio">1</property>
  <property name="meta.media.0.codec.colorspace">709</property>
  <property name="meta.media.0.codec.color_trc">1</property>
  <property name="meta.media.0.codec.name">h264</property>
  <property name="meta.media.0.codec.long_name">H.264 / AVC / MPEG-4 AVC / MPEG-4 part 10</property>
  <property name="meta.media.0.codec.bit_rate">0</property>
  <property name="meta.attr.0.stream.DURATION.markup">00:14:22.466000000</property>
  <property name="meta.media.1.stream.type">audio</property>
  <property name="meta.media.1.codec.sample_fmt">fltp</property>
  <property name="meta.media.1.codec.sample_rate">48000</property>
  <property name="meta.media.1.codec.channels">2</property>
  <property name="meta.media.1.codec.name">aac</property>
  <property name="meta.media.1.codec.long_name">AAC (Advanced Audio Coding)</property>
  <property name="meta.media.1.codec.bit_rate">0</property>
  <property name="meta.attr.1.stream.title.markup">Source Record</property>
  <property name="meta.attr.1.stream.DURATION.markup">00:14:22.464000000</property>
  <property name="meta.attr.ENCODER.markup">Lavf58.76.100</property>
  <property name="seekable">1</property>
  <property name="meta.media.sample_aspect_num">1</property>
  <property name="meta.media.sample_aspect_den">1</property>
  <property name="aspect_ratio">1</property>
  <property name="format">3</property>
  <property name="kdenlive:clipname"/>
  <property name="kdenlive:clip_type">0</property>
  <property name="kdenlive:folderid">31</property>
  <property name="kdenlive:id">13</property>
  <property name="kdenlive:file_size">270253548</property>
  <property name="kdenlive:file_hash">d995768142b8abbb24d96881d62c8bd0</property>
  <property name="meta.media.frame_rate_num">30</property>
  <property name="meta.media.frame_rate_den">1</property>
  <property name="meta.media.colorspace">709</property>
  <property name="meta.media.color_trc">1</property>
  <property name="meta.media.has_b_frames">0</property>
  <property name="meta.media.width">800</property>
  <property name="meta.media.height">600</property>
  <property name="meta.media.color_range">mpeg</property>
  <property name="meta.media.top_field_first">0</property>
  <property name="meta.media.progressive">1</property>
  <property name="kdenlive:audio_max1">1</property>
 </producer>
 <producer id="producer12" in="00:00:00.000" out="00:10:10.967">
  <property name="length">18330</property>
  <property name="eof">pause</property>
  <property name="resource">clips/04.2 example garden town audio.mkv</property>
  <property name="audio_index">1</property>
  <property name="video_index">0</property>
  <property name="mute_on_pause">0</property>
  <property name="mlt_service">avformat-novalidate</property>
  <property name="meta.media.nb_streams">2</property>
  <property name="meta.media.0.stream.type">video</property>
  <property name="meta.media.0.stream.frame_rate">30</property>
  <property name="meta.media.0.stream.sample_aspect_ratio">0</property>
  <property name="meta.media.0.codec.width">1280</property>
  <property name="meta.media.0.codec.height">720</property>
  <property name="meta.media.0.codec.rotate">0</property>
  <property name="meta.media.0.codec.pix_fmt">yuv420p</property>
  <property name="meta.media.0.codec.sample_aspect_ratio">1</property>
  <property name="meta.media.0.codec.colorspace">709</property>
  <property name="meta.media.0.codec.color_trc">1</property>
  <property name="meta.media.0.codec.name">h264</property>
  <property name="meta.media.0.codec.long_name">H.264 / AVC / MPEG-4 AVC / MPEG-4 part 10</property>
  <property name="meta.media.0.codec.bit_rate">0</property>
  <property name="meta.attr.0.stream.DURATION.markup">00:10:11.000000000</property>
  <property name="meta.media.1.stream.type">audio</property>
  <property name="meta.media.1.codec.sample_fmt">fltp</property>
  <property name="meta.media.1.codec.sample_rate">48000</property>
  <property name="meta.media.1.codec.channels">2</property>
  <property name="meta.media.1.codec.name">aac</property>
  <property name="meta.media.1.codec.long_name">AAC (Advanced Audio Coding)</property>
  <property name="meta.media.1.codec.bit_rate">0</property>
  <property name="meta.attr.1.stream.title.markup">Track1</property>
  <property name="meta.attr.1.stream.DURATION.markup">00:10:10.944000000</property>
  <property name="meta.attr.ENCODER.markup">Lavf58.76.100</property>
  <property name="seekable">1</property>
  <property name="meta.media.sample_aspect_num">1</property>
  <property name="meta.media.sample_aspect_den">1</property>
  <property name="aspect_ratio">1</property>
  <property name="format">3</property>
  <property name="kdenlive:clipname"/>
  <property name="kdenlive:clip_type">0</property>
  <property name="kdenlive:folderid">31</property>
  <property name="kdenlive:id">14</property>
  <property name="kdenlive:file_size">203563039</property>
  <property name="kdenlive:file_hash">fb7491cb2e24e46be72e358a485ba419</property>
  <property name="meta.media.frame_rate_num">30</property>
  <property name="meta.media.frame_rate_den">1</property>
  <property name="meta.media.colorspace">709</property>
  <property name="meta.media.color_trc">1</property>
  <property name="meta.media.has_b_frames">2</property>
  <property name="meta.media.width">1280</property>
  <property name="meta.media.height">720</property>
  <property name="meta.media.color_range">mpeg</property>
  <property name="meta.media.top_field_first">0</property>
  <property name="meta.media.progressive">1</property>
  <property name="kdenlive:audio_max1">193</property>
 </producer>
 <producer id="producer14" in="00:00:00.000" out="00:10:03.700">
  <property name="length">18112</property>
  <property name="eof">pause</property>
  <property name="resource">clips/04.2 example garden town Desktop.mkv</property>
  <property name="audio_index">1</property>
  <property name="video_index">0</property>
  <property name="mute_on_pause">0</property>
  <property name="mlt_service">avformat-novalidate</property>
  <property name="meta.media.nb_streams">2</property>
  <property name="meta.media.0.stream.type">video</property>
  <property name="meta.media.0.stream.frame_rate">30</property>
  <property name="meta.media.0.stream.sample_aspect_ratio">0</property>
  <property name="meta.media.0.codec.width">1920</property>
  <property name="meta.media.0.codec.height">1080</property>
  <property name="meta.media.0.codec.rotate">0</property>
  <property name="meta.media.0.codec.pix_fmt">yuv420p</property>
  <property name="meta.media.0.codec.sample_aspect_ratio">1</property>
  <property name="meta.media.0.codec.colorspace">709</property>
  <property name="meta.media.0.codec.color_trc">1</property>
  <property name="meta.media.0.codec.name">h264</property>
  <property name="meta.media.0.codec.long_name">H.264 / AVC / MPEG-4 AVC / MPEG-4 part 10</property>
  <property name="meta.media.0.codec.bit_rate">0</property>
  <property name="meta.attr.0.stream.DURATION.markup">00:10:03.733000000</property>
  <property name="meta.media.1.stream.type">audio</property>
  <property name="meta.media.1.codec.sample_fmt">fltp</property>
  <property name="meta.media.1.codec.sample_rate">48000</property>
  <property name="meta.media.1.codec.channels">2</property>
  <property name="meta.media.1.codec.name">aac</property>
  <property name="meta.media.1.codec.long_name">AAC (Advanced Audio Coding)</property>
  <property name="meta.media.1.codec.bit_rate">0</property>
  <property name="meta.attr.1.stream.title.markup">Source Record</property>
  <property name="meta.attr.1.stream.DURATION.markup">00:10:03.712000000</property>
  <property name="meta.attr.ENCODER.markup">Lavf58.76.100</property>
  <property name="seekable">1</property>
  <property name="meta.media.sample_aspect_num">1</property>
  <property name="meta.media.sample_aspect_den">1</property>
  <property name="aspect_ratio">1</property>
  <property name="format">3</property>
  <property name="kdenlive:clipname"/>
  <property name="kdenlive:clip_type">0</property>
  <property name="kdenlive:folderid">31</property>
  <property name="kdenlive:id">15</property>
  <property name="kdenlive:file_size">189121920</property>
  <property name="kdenlive:file_hash">e6c0e0364bd352fa9c71f10c825b8cc6</property>
  <property name="meta.media.frame_rate_num">30</property>
  <property name="meta.media.frame_rate_den">1</property>
  <property name="meta.media.colorspace">709</property>
  <property name="meta.media.color_trc">1</property>
  <property name="meta.media.has_b_frames">0</property>
  <property name="meta.media.width">1920</property>
  <property name="meta.media.height">1080</property>
  <property name="meta.media.color_range">mpeg</property>
  <property name="meta.media.top_field_first">0</property>
  <property name="meta.media.progressive">1</property>
  <property name="kdenlive:audio_max1">1</property>
 </producer>
 <producer id="producer13" in="00:00:00.000" out="00:10:14.800">
  <property name="length">18445</property>
  <property name="eof">pause</property>
  <property name="resource">clips/04.2 example garden town facecam.mkv</property>
  <property name="audio_index">1</property>
  <property name="video_index">0</property>
  <property name="mute_on_pause">0</property>
  <property name="mlt_service">avformat-novalidate</property>
  <property name="meta.media.nb_streams">2</property>
  <property name="meta.media.0.stream.type">video</property>
  <property name="meta.media.0.stream.frame_rate">30</property>
  <property name="meta.media.0.stream.sample_aspect_ratio">0</property>
  <property name="meta.media.0.codec.width">800</property>
  <property name="meta.media.0.codec.height">600</property>
  <property name="meta.media.0.codec.rotate">0</property>
  <property name="meta.media.0.codec.pix_fmt">yuv420p</property>
  <property name="meta.media.0.codec.sample_aspect_ratio">1</property>
  <property name="meta.media.0.codec.colorspace">709</property>
  <property name="meta.media.0.codec.color_trc">1</property>
  <property name="meta.media.0.codec.name">h264</property>
  <property name="meta.media.0.codec.long_name">H.264 / AVC / MPEG-4 AVC / MPEG-4 part 10</property>
  <property name="meta.media.0.codec.bit_rate">0</property>
  <property name="meta.attr.0.stream.DURATION.markup">00:10:14.833000000</property>
  <property name="meta.media.1.stream.type">audio</property>
  <property name="meta.media.1.codec.sample_fmt">fltp</property>
  <property name="meta.media.1.codec.sample_rate">48000</property>
  <property name="meta.media.1.codec.channels">2</property>
  <property name="meta.media.1.codec.name">aac</property>
  <property name="meta.media.1.codec.long_name">AAC (Advanced Audio Coding)</property>
  <property name="meta.media.1.codec.bit_rate">0</property>
  <property name="meta.attr.1.stream.title.markup">Source Record</property>
  <property name="meta.attr.1.stream.DURATION.markup">00:10:14.826000000</property>
  <property name="meta.attr.ENCODER.markup">Lavf58.76.100</property>
  <property name="seekable">1</property>
  <property name="meta.media.sample_aspect_num">1</property>
  <property name="meta.media.sample_aspect_den">1</property>
  <property name="aspect_ratio">1</property>
  <property name="format">3</property>
  <property name="kdenlive:clipname"/>
  <property name="kdenlive:clip_type">0</property>
  <property name="kdenlive:folderid">31</property>
  <property name="kdenlive:id">16</property>
  <property name="kdenlive:file_size">192633513</property>
  <property name="kdenlive:file_hash">03e9fe36e8077ff4675bf84992bd03bc</property>
  <property name="meta.media.frame_rate_num">30</property>
  <property name="meta.media.frame_rate_den">1</property>
  <property name="meta.media.colorspace">709</property>
  <property name="meta.media.color_trc">1</property>
  <property name="meta.media.has_b_frames">0</property>
  <property name="meta.media.width">800</property>
  <property name="meta.media.height">600</property>
  <property name="meta.media.color_range">mpeg</property>
  <property name="meta.media.top_field_first">0</property>
  <property name="meta.media.progressive">1</property>
  <property name="kdenlive:audio_max1">1</property>
 </producer>
 <producer id="producer16" in="00:00:00.000" out="00:33:34.467">
  <property name="length">60435</property>
  <property name="eof">pause</property>
  <property name="resource">clips/03.0 Shapes audio.mkv</property>
  <property name="audio_index">1</property>
  <property name="video_index">0</property>
  <property name="mute_on_pause">0</property>
  <property name="mlt_service">avformat-novalidate</property>
  <property name="meta.media.nb_streams">2</property>
  <property name="meta.media.0.stream.type">video</property>
  <property name="meta.media.0.stream.frame_rate">30</property>
  <property name="meta.media.0.stream.sample_aspect_ratio">0</property>
  <property name="meta.media.0.codec.width">1280</property>
  <property name="meta.media.0.codec.height">720</property>
  <property name="meta.media.0.codec.rotate">0</property>
  <property name="meta.media.0.codec.pix_fmt">yuv420p</property>
  <property name="meta.media.0.codec.sample_aspect_ratio">1</property>
  <property name="meta.media.0.codec.colorspace">709</property>
  <property name="meta.media.0.codec.color_trc">1</property>
  <property name="meta.media.0.codec.name">h264</property>
  <property name="meta.media.0.codec.long_name">H.264 / AVC / MPEG-4 AVC / MPEG-4 part 10</property>
  <property name="meta.media.0.codec.bit_rate">0</property>
  <property name="meta.attr.0.stream.DURATION.markup">00:33:34.500000000</property>
  <property name="meta.media.1.stream.type">audio</property>
  <property name="meta.media.1.codec.sample_fmt">fltp</property>
  <property name="meta.media.1.codec.sample_rate">48000</property>
  <property name="meta.media.1.codec.channels">2</property>
  <property name="meta.media.1.codec.name">aac</property>
  <property name="meta.media.1.codec.long_name">AAC (Advanced Audio Coding)</property>
  <property name="meta.media.1.codec.bit_rate">0</property>
  <property name="meta.attr.1.stream.title.markup">Track1</property>
  <property name="meta.attr.1.stream.DURATION.markup">00:33:34.442000000</property>
  <property name="meta.attr.ENCODER.markup">Lavf58.76.100</property>
  <property name="seekable">1</property>
  <property name="meta.media.sample_aspect_num">1</property>
  <property name="meta.media.sample_aspect_den">1</property>
  <property name="aspect_ratio">1</property>
  <property name="format">3</property>
  <property name="kdenlive:clipname"/>
  <property name="meta.media.frame_rate_num">30</property>
  <property name="meta.media.frame_rate_den">1</property>
  <property name="meta.media.colorspace">709</property>
  <property name="meta.media.color_trc">1</property>
  <property name="meta.media.has_b_frames">2</property>
  <property name="meta.media.width">1280</property>
  <property name="meta.media.height">720</property>
  <property name="meta.media.color_range">mpeg</property>
  <property name="meta.media.top_field_first">0</property>
  <property name="meta.media.progressive">1</property>
  <property name="kdenlive:clip_type">0</property>
  <property name="kdenlive:folderid">30</property>
  <property name="kdenlive:id">17</property>
  <property name="kdenlive:file_size">670937459</property>
  <property name="kdenlive:file_hash">9232b3e4eaabc82f43fd1c7f483307b0</property>
  <property name="kdenlive:audio_max1">213</property>
 </producer>
 <producer id="producer15" in="00:00:00.000" out="00:33:34.267">
  <property name="length">60429</property>
  <property name="eof">pause</property>
  <property name="resource">clips/03.0 Shapes desktop.mkv</property>
  <property name="audio_index">1</property>
  <property name="video_index">0</property>
  <property name="mute_on_pause">0</property>
  <property name="mlt_service">avformat-novalidate</property>
  <property name="meta.media.nb_streams">2</property>
  <property name="meta.media.0.stream.type">video</property>
  <property name="meta.media.0.stream.frame_rate">30</property>
  <property name="meta.media.0.stream.sample_aspect_ratio">0</property>
  <property name="meta.media.0.codec.width">1920</property>
  <property name="meta.media.0.codec.height">1080</property>
  <property name="meta.media.0.codec.rotate">0</property>
  <property name="meta.media.0.codec.pix_fmt">yuv420p</property>
  <property name="meta.media.0.codec.sample_aspect_ratio">1</property>
  <property name="meta.media.0.codec.colorspace">709</property>
  <property name="meta.media.0.codec.color_trc">1</property>
  <property name="meta.media.0.codec.name">h264</property>
  <property name="meta.media.0.codec.long_name">H.264 / AVC / MPEG-4 AVC / MPEG-4 part 10</property>
  <property name="meta.media.0.codec.bit_rate">0</property>
  <property name="meta.attr.0.stream.DURATION.markup">00:33:34.300000000</property>
  <property name="meta.media.1.stream.type">audio</property>
  <property name="meta.media.1.codec.sample_fmt">fltp</property>
  <property name="meta.media.1.codec.sample_rate">48000</property>
  <property name="meta.media.1.codec.channels">2</property>
  <property name="meta.media.1.codec.name">aac</property>
  <property name="meta.media.1.codec.long_name">AAC (Advanced Audio Coding)</property>
  <property name="meta.media.1.codec.bit_rate">0</property>
  <property name="meta.attr.1.stream.title.markup">Source Record</property>
  <property name="meta.attr.1.stream.DURATION.markup">00:33:34.272000000</property>
  <property name="meta.attr.ENCODER.markup">Lavf58.76.100</property>
  <property name="seekable">1</property>
  <property name="meta.media.sample_aspect_num">1</property>
  <property name="meta.media.sample_aspect_den">1</property>
  <property name="aspect_ratio">1</property>
  <property name="format">3</property>
  <property name="kdenlive:clipname"/>
  <property name="meta.media.frame_rate_num">30</property>
  <property name="meta.media.frame_rate_den">1</property>
  <property name="meta.media.colorspace">709</property>
  <property name="meta.media.color_trc">1</property>
  <property name="meta.media.has_b_frames">0</property>
  <property name="meta.media.width">1920</property>
  <property name="meta.media.height">1080</property>
  <property name="meta.media.color_range">mpeg</property>
  <property name="meta.media.top_field_first">0</property>
  <property name="meta.media.progressive">1</property>
  <property name="kdenlive:clip_type">0</property>
  <property name="kdenlive:folderid">30</property>
  <property name="kdenlive:id">18</property>
  <property name="kdenlive:file_size">631060129</property>
  <property name="kdenlive:file_hash">46c791aa4c2d40544ab5874183465931</property>
  <property name="kdenlive:audio_max1">0</property>
 </producer>
 <producer id="producer17" in="00:00:00.000" out="00:33:35.200">
  <property name="length">60457</property>
  <property name="eof">pause</property>
  <property name="resource">clips/03.0 Shapes facecam.mkv</property>
  <property name="audio_index">1</property>
  <property name="video_index">0</property>
  <property name="mute_on_pause">0</property>
  <property name="mlt_service">avformat-novalidate</property>
  <property name="meta.media.nb_streams">2</property>
  <property name="meta.media.0.stream.type">video</property>
  <property name="meta.media.0.stream.frame_rate">30</property>
  <property name="meta.media.0.stream.sample_aspect_ratio">0</property>
  <property name="meta.media.0.codec.width">800</property>
  <property name="meta.media.0.codec.height">600</property>
  <property name="meta.media.0.codec.rotate">0</property>
  <property name="meta.media.0.codec.pix_fmt">yuv420p</property>
  <property name="meta.media.0.codec.sample_aspect_ratio">1</property>
  <property name="meta.media.0.codec.colorspace">709</property>
  <property name="meta.media.0.codec.color_trc">1</property>
  <property name="meta.media.0.codec.name">h264</property>
  <property name="meta.media.0.codec.long_name">H.264 / AVC / MPEG-4 AVC / MPEG-4 part 10</property>
  <property name="meta.media.0.codec.bit_rate">0</property>
  <property name="meta.attr.0.stream.DURATION.markup">00:33:35.233000000</property>
  <property name="meta.media.1.stream.type">audio</property>
  <property name="meta.media.1.codec.sample_fmt">fltp</property>
  <property name="meta.media.1.codec.sample_rate">48000</property>
  <property name="meta.media.1.codec.channels">2</property>
  <property name="meta.media.1.codec.name">aac</property>
  <property name="meta.media.1.codec.long_name">AAC (Advanced Audio Coding)</property>
  <property name="meta.media.1.codec.bit_rate">0</property>
  <property name="meta.attr.1.stream.title.markup">Source Record</property>
  <property name="meta.attr.1.stream.DURATION.markup">00:33:35.232000000</property>
  <property name="meta.attr.ENCODER.markup">Lavf58.76.100</property>
  <property name="seekable">1</property>
  <property name="meta.media.sample_aspect_num">1</property>
  <property name="meta.media.sample_aspect_den">1</property>
  <property name="aspect_ratio">1</property>
  <property name="format">3</property>
  <property name="kdenlive:clipname"/>
  <property name="meta.media.frame_rate_num">30</property>
  <property name="meta.media.frame_rate_den">1</property>
  <property name="meta.media.colorspace">709</property>
  <property name="meta.media.color_trc">1</property>
  <property name="meta.media.has_b_frames">0</property>
  <property name="meta.media.width">800</property>
  <property name="meta.media.height">600</property>
  <property name="meta.media.color_range">mpeg</property>
  <property name="meta.media.top_field_first">0</property>
  <property name="meta.media.progressive">1</property>
  <property name="kdenlive:clip_type">0</property>
  <property name="kdenlive:folderid">30</property>
  <property name="kdenlive:id">19</property>
  <property name="kdenlive:file_size">631355807</property>
  <property name="kdenlive:file_hash">305fc04fbc6ef869af9bfe4f9efc5c98</property>
  <property name="kdenlive:audio_max1">0</property>
 </producer>
 <producer id="producer19" in="00:00:00.000" out="00:00:05.433">
  <property name="length">164</property>
  <property name="eof">pause</property>
  <property name="resource">clips/03.01 Shapes audio extra.mkv</property>
  <property name="audio_index">1</property>
  <property name="video_index">0</property>
  <property name="mute_on_pause">0</property>
  <property name="mlt_service">avformat-novalidate</property>
  <property name="meta.media.nb_streams">2</property>
  <property name="meta.media.0.stream.type">video</property>
  <property name="meta.media.0.stream.frame_rate">30</property>
  <property name="meta.media.0.stream.sample_aspect_ratio">0</property>
  <property name="meta.media.0.codec.width">1280</property>
  <property name="meta.media.0.codec.height">720</property>
  <property name="meta.media.0.codec.rotate">0</property>
  <property name="meta.media.0.codec.pix_fmt">yuv420p</property>
  <property name="meta.media.0.codec.sample_aspect_ratio">1</property>
  <property name="meta.media.0.codec.colorspace">709</property>
  <property name="meta.media.0.codec.color_trc">1</property>
  <property name="meta.media.0.codec.name">h264</property>
  <property name="meta.media.0.codec.long_name">H.264 / AVC / MPEG-4 AVC / MPEG-4 part 10</property>
  <property name="meta.media.0.codec.bit_rate">0</property>
  <property name="meta.attr.0.stream.DURATION.markup">00:00:05.466000000</property>
  <property name="meta.media.1.stream.type">audio</property>
  <property name="meta.media.1.codec.sample_fmt">fltp</property>
  <property name="meta.media.1.codec.sample_rate">48000</property>
  <property name="meta.media.1.codec.channels">2</property>
  <property name="meta.media.1.codec.name">aac</property>
  <property name="meta.media.1.codec.long_name">AAC (Advanced Audio Coding)</property>
  <property name="meta.media.1.codec.bit_rate">0</property>
  <property name="meta.attr.1.stream.title.markup">Track1</property>
  <property name="meta.attr.1.stream.DURATION.markup">00:00:05.312000000</property>
  <property name="meta.attr.ENCODER.markup">Lavf58.76.100</property>
  <property name="seekable">1</property>
  <property name="meta.media.sample_aspect_num">1</property>
  <property name="meta.media.sample_aspect_den">1</property>
  <property name="aspect_ratio">1</property>
  <property name="format">3</property>
  <property name="kdenlive:clipname"/>
  <property name="meta.media.frame_rate_num">30</property>
  <property name="meta.media.frame_rate_den">1</property>
  <property name="meta.media.colorspace">709</property>
  <property name="meta.media.color_trc">1</property>
  <property name="meta.media.has_b_frames">2</property>
  <property name="meta.media.width">1280</property>
  <property name="meta.media.height">720</property>
  <property name="meta.media.color_range">mpeg</property>
  <property name="meta.media.top_field_first">0</property>
  <property name="meta.media.progressive">1</property>
  <property name="kdenlive:clip_type">0</property>
  <property name="kdenlive:folderid">30</property>
  <property name="kdenlive:id">20</property>
  <property name="kdenlive:file_size">1861495</property>
  <property name="kdenlive:file_hash">bc05027cfcca9c5434027137f8b130e1</property>
  <property name="kdenlive:audio_max1">143</property>
 </producer>
 <producer id="producer20" in="00:00:00.000" out="00:00:05.800">
  <property name="length">175</property>
  <property name="eof">pause</property>
  <property name="resource">clips/03.01 Shapes desktop extra.mkv</property>
  <property name="audio_index">1</property>
  <property name="video_index">0</property>
  <property name="mute_on_pause">0</property>
  <property name="mlt_service">avformat-novalidate</property>
  <property name="meta.media.nb_streams">2</property>
  <property name="meta.media.0.stream.type">video</property>
  <property name="meta.media.0.stream.frame_rate">30</property>
  <property name="meta.media.0.stream.sample_aspect_ratio">0</property>
  <property name="meta.media.0.codec.width">1920</property>
  <property name="meta.media.0.codec.height">1080</property>
  <property name="meta.media.0.codec.rotate">0</property>
  <property name="meta.media.0.codec.pix_fmt">yuv420p</property>
  <property name="meta.media.0.codec.sample_aspect_ratio">1</property>
  <property name="meta.media.0.codec.colorspace">709</property>
  <property name="meta.media.0.codec.color_trc">1</property>
  <property name="meta.media.0.codec.name">h264</property>
  <property name="meta.media.0.codec.long_name">H.264 / AVC / MPEG-4 AVC / MPEG-4 part 10</property>
  <property name="meta.media.0.codec.bit_rate">0</property>
  <property name="meta.attr.0.stream.DURATION.markup">00:00:05.833000000</property>
  <property name="meta.media.1.stream.type">audio</property>
  <property name="meta.media.1.codec.sample_fmt">fltp</property>
  <property name="meta.media.1.codec.sample_rate">48000</property>
  <property name="meta.media.1.codec.channels">2</property>
  <property name="meta.media.1.codec.name">aac</property>
  <property name="meta.media.1.codec.long_name">AAC (Advanced Audio Coding)</property>
  <property name="meta.media.1.codec.bit_rate">0</property>
  <property name="meta.attr.1.stream.title.markup">Source Record</property>
  <property name="meta.attr.1.stream.DURATION.markup">00:00:05.845000000</property>
  <property name="meta.attr.ENCODER.markup">Lavf58.76.100</property>
  <property name="seekable">1</property>
  <property name="meta.media.sample_aspect_num">1</property>
  <property name="meta.media.sample_aspect_den">1</property>
  <property name="aspect_ratio">1</property>
  <property name="format">3</property>
  <property name="kdenlive:clipname"/>
  <property name="meta.media.frame_rate_num">30</property>
  <property name="meta.media.frame_rate_den">1</property>
  <property name="meta.media.colorspace">709</property>
  <property name="meta.media.color_trc">1</property>
  <property name="meta.media.has_b_frames">0</property>
  <property name="meta.media.width">1920</property>
  <property name="meta.media.height">1080</property>
  <property name="meta.media.color_range">mpeg</property>
  <property name="meta.media.top_field_first">0</property>
  <property name="meta.media.progressive">1</property>
  <property name="kdenlive:clip_type">0</property>
  <property name="kdenlive:folderid">30</property>
  <property name="kdenlive:id">21</property>
  <property name="kdenlive:file_size">1797830</property>
  <property name="kdenlive:file_hash">453af191ee2139bf5d339b3506e11e00</property>
 </producer>
 <producer id="producer18" in="00:00:00.000" out="00:00:05.833">
  <property name="length">176</property>
  <property name="eof">pause</property>
  <property name="resource">clips/03.01 Shapes facecam extra.mkv</property>
  <property name="audio_index">1</property>
  <property name="video_index">0</property>
  <property name="mute_on_pause">0</property>
  <property name="mlt_service">avformat-novalidate</property>
  <property name="meta.media.nb_streams">2</property>
  <property name="meta.media.0.stream.type">video</property>
  <property name="meta.media.0.stream.frame_rate">30</property>
  <property name="meta.media.0.stream.sample_aspect_ratio">0</property>
  <property name="meta.media.0.codec.width">800</property>
  <property name="meta.media.0.codec.height">600</property>
  <property name="meta.media.0.codec.rotate">0</property>
  <property name="meta.media.0.codec.pix_fmt">yuv420p</property>
  <property name="meta.media.0.codec.sample_aspect_ratio">1</property>
  <property name="meta.media.0.codec.colorspace">709</property>
  <property name="meta.media.0.codec.color_trc">1</property>
  <property name="meta.media.0.codec.name">h264</property>
  <property name="meta.media.0.codec.long_name">H.264 / AVC / MPEG-4 AVC / MPEG-4 part 10</property>
  <property name="meta.media.0.codec.bit_rate">0</property>
  <property name="meta.attr.0.stream.DURATION.markup">00:00:05.866000000</property>
  <property name="meta.media.1.stream.type">audio</property>
  <property name="meta.media.1.codec.sample_fmt">fltp</property>
  <property name="meta.media.1.codec.sample_rate">48000</property>
  <property name="meta.media.1.codec.channels">2</property>
  <property name="meta.media.1.codec.name">aac</property>
  <property name="meta.media.1.codec.long_name">AAC (Advanced Audio Coding)</property>
  <property name="meta.media.1.codec.bit_rate">0</property>
  <property name="meta.attr.1.stream.title.markup">Source Record</property>
  <property name="meta.attr.1.stream.DURATION.markup">00:00:05.845000000</property>
  <property name="meta.attr.ENCODER.markup">Lavf58.76.100</property>
  <property name="seekable">1</property>
  <property name="meta.media.sample_aspect_num">1</property>
  <property name="meta.media.sample_aspect_den">1</property>
  <property name="aspect_ratio">1</property>
  <property name="format">3</property>
  <property name="kdenlive:clipname"/>
  <property name="meta.media.frame_rate_num">30</property>
  <property name="meta.media.frame_rate_den">1</property>
  <property name="meta.media.colorspace">709</property>
  <property name="meta.media.color_trc">1</property>
  <property name="meta.media.has_b_frames">0</property>
  <property name="meta.media.width">800</property>
  <property name="meta.media.height">600</property>
  <property name="meta.media.color_range">mpeg</property>
  <property name="meta.media.top_field_first">0</property>
  <property name="meta.media.progressive">1</property>
  <property name="kdenlive:clip_type">0</property>
  <property name="kdenlive:folderid">30</property>
  <property name="kdenlive:id">22</property>
  <property name="kdenlive:file_size">1950523</property>
  <property name="kdenlive:file_hash">501fa068ff659288ed757df09494db85</property>
  <property name="kdenlive:audio_max1">0</property>
 </producer>
 <producer id="producer21" in="00:00:00.000" out="00:00:04.967">
  <property name="length">150</property>
  <property name="eof">pause</property>
  <property name="resource"/>
  <property name="progressive">1</property>
  <property name="aspect_ratio">1</property>
  <property name="seekable">1</property>
  <property name="mlt_service">kdenlivetitle</property>
  <property name="kdenlive:duration">150</property>
  <property name="kdenlive:clipname">01 natureworks.org.uk/class/cad</property>
  <property name="xmldata">&lt;kdenlivetitle duration="150" LC_NUMERIC="C" width="1280" height="720" out="149">
 &lt;item type="QGraphicsTextItem" z-index="3">
  &lt;position x="153" y="151">
   &lt;transform>1,0,0,0,1,0,0,0,1&lt;/transform>
  &lt;/position>
  &lt;content line-spacing="0" shadow="0;#64000000;3;3;3" font-underline="0" box-height="92" font-outline-color="0,0,0,255" font="IBM Plex Sans SemiBold" letter-spacing="0" font-pixel-size="70" font-italic="0" typewriter="0;2;1;0;0" alignment="4" font-weight="87" font-outline="0" box-width="973.969" font-color="255,255,255,255">natureworks.org.uk/class/cad&lt;/content>
 &lt;/item>
 &lt;item type="QGraphicsRectItem" z-index="2">
  &lt;position x="133" y="145">
   &lt;transform zoom="100">1,0,0,0,1,0,0,0,1&lt;/transform>
  &lt;/position>
  &lt;content brushcolor="0,0,0,138" pencolor="0,0,0,255" penwidth="0" rect="0,0,1014.33,107"/>
 &lt;/item>
 &lt;startviewport rect="0,0,1280,720"/>
 &lt;endviewport rect="0,0,1280,720"/>
 &lt;background color="0,0,0,0"/>
&lt;/kdenlivetitle>
</property>
  <property name="kdenlive:folderid">32</property>
  <property name="kdenlive:clip_type">2</property>
  <property name="kdenlive:id">23</property>
  <property name="kdenlive:file_hash">4d358534c0849d1e72fae86e225f334a</property>
  <property name="force_reload">0</property>
  <property name="meta.media.width">1280</property>
  <property name="meta.media.height">720</property>
 </producer>
 <producer id="producer22" in="00:00:00.000" out="00:00:05.967">
  <property name="length">180</property>
  <property name="eof">pause</property>
  <property name="resource"/>
  <property name="progressive">1</property>
  <property name="aspect_ratio">1</property>
  <property name="seekable">1</property>
  <property name="mlt_service">kdenlivetitle</property>
  <property name="kdenlive:duration">150</property>
  <property name="kdenlive:clipname">02 Inkscape &amp; Illustrator</property>
  <property name="xmldata">&lt;kdenlivetitle duration="150" LC_NUMERIC="C" width="1280" height="720" out="149">
 &lt;item type="QGraphicsTextItem" z-index="3">
  &lt;position x="156" y="151">
   &lt;transform>1,0,0,0,1,0,0,0,1&lt;/transform>
  &lt;/position>
  &lt;content line-spacing="0" shadow="0;#64000000;3;3;3" font-underline="0" box-height="84" font-outline-color="0,0,0,255" font="IBM Plex Sans SemiBold" letter-spacing="0" font-pixel-size="64" font-italic="0" typewriter="0;2;1;0;0" alignment="4" font-weight="87" font-outline="0" box-width="961.641" font-color="255,255,255,255">inkscape.org &amp;amp; Adobe Illustrator&lt;/content>
 &lt;/item>
 &lt;item type="QGraphicsRectItem" z-index="2">
  &lt;position x="133" y="145">
   &lt;transform zoom="100">1,0,0,0,1,0,0,0,1&lt;/transform>
  &lt;/position>
  &lt;content brushcolor="0,0,0,138" pencolor="0,0,0,255" penwidth="0" rect="0,0,1014.33,107"/>
 &lt;/item>
 &lt;startviewport rect="0,0,1280,720"/>
 &lt;endviewport rect="0,0,1280,720"/>
 &lt;background color="0,0,0,0"/>
&lt;/kdenlivetitle>
</property>
  <property name="kdenlive:folderid">32</property>
  <property name="kdenlive:clip_type">2</property>
  <property name="kdenlive:id">24</property>
  <property name="kdenlive:file_hash">9f902889f25fb411f7fdaea724aa5b96</property>
  <property name="force_reload">0</property>
  <property name="meta.media.width">1280</property>
  <property name="meta.media.height">720</property>
 </producer>
 <producer id="producer23" in="00:00:00.000" out="00:00:06.767">
  <property name="length">204</property>
  <property name="eof">pause</property>
  <property name="resource"/>
  <property name="progressive">1</property>
  <property name="aspect_ratio">1</property>
  <property name="seekable">1</property>
  <property name="mlt_service">kdenlivetitle</property>
  <property name="kdenlive:duration">150</property>
  <property name="kdenlive:clipname">03 QCAD.org</property>
  <property name="xmldata">&lt;kdenlivetitle duration="150" LC_NUMERIC="C" width="1280" height="720" out="149">
 &lt;item type="QGraphicsTextItem" z-index="3">
  &lt;position x="498" y="151">
   &lt;transform>1,0,0,0,1,0,0,0,1&lt;/transform>
  &lt;/position>
  &lt;content line-spacing="0" shadow="0;#64000000;3;3;3" font-underline="0" box-height="84" font="IBM Plex Sans SemiBold" letter-spacing="0" font-pixel-size="64" font-italic="0" typewriter="0;2;1;0;0" alignment="4" font-weight="87" box-width="284.078" font-color="255,255,255,255">QCAD.org&lt;/content>
 &lt;/item>
 &lt;item type="QGraphicsRectItem" z-index="2">
  &lt;position x="482" y="145">
   &lt;transform zoom="100">1,0,0,0,1,0,0,0,1&lt;/transform>
  &lt;/position>
  &lt;content brushcolor="0,0,0,138" pencolor="0,0,0,255" penwidth="0" rect="0,0,315,107"/>
 &lt;/item>
 &lt;startviewport rect="0,0,1280,720"/>
 &lt;endviewport rect="0,0,1280,720"/>
 &lt;background color="0,0,0,0"/>
&lt;/kdenlivetitle>
</property>
  <property name="kdenlive:folderid">32</property>
  <property name="kdenlive:clip_type">2</property>
  <property name="kdenlive:id">25</property>
  <property name="kdenlive:file_hash">03e53ecbc2e60ddbb79f4360f334ce5b</property>
  <property name="force_reload">0</property>
  <property name="meta.media.width">1280</property>
  <property name="meta.media.height">720</property>
 </producer>
 <producer id="producer24" in="00:00:00.000" out="00:00:08.633">
  <property name="length">260</property>
  <property name="eof">pause</property>
  <property name="resource"/>
  <property name="progressive">1</property>
  <property name="aspect_ratio">1</property>
  <property name="seekable">1</property>
  <property name="mlt_service">kdenlivetitle</property>
  <property name="kdenlive:duration">150</property>
  <property name="kdenlive:clipname">04 Vectorworks</property>
  <property name="xmldata">&lt;kdenlivetitle duration="150" LC_NUMERIC="C" width="1280" height="720" out="149">
 &lt;item type="QGraphicsTextItem" z-index="3">
  &lt;position x="194" y="151">
   &lt;transform>1,0,0,0,1,0,0,0,1&lt;/transform>
  &lt;/position>
  &lt;content line-spacing="0" shadow="0;#64000000;3;3;3" font-underline="0" box-height="84" font="IBM Plex Sans SemiBold" letter-spacing="0" font-pixel-size="64" font-italic="0" typewriter="0;2;1;0;0" alignment="4" font-weight="87" box-width="891.734" font-color="255,255,255,255">Vectorworks £1,230 per year! &lt;/content>
 &lt;/item>
 &lt;item type="QGraphicsRectItem" z-index="2">
  &lt;position x="178" y="145">
   &lt;transform zoom="100">1,0,0,0,1,0,0,0,1&lt;/transform>
  &lt;/position>
  &lt;content brushcolor="0,0,0,138" pencolor="0,0,0,255" penwidth="0" rect="0,0,924,107"/>
 &lt;/item>
 &lt;startviewport rect="0,0,1280,720"/>
 &lt;endviewport rect="0,0,1280,720"/>
 &lt;background color="0,0,0,0"/>
&lt;/kdenlivetitle>
</property>
  <property name="kdenlive:folderid">32</property>
  <property name="kdenlive:clip_type">2</property>
  <property name="kdenlive:id">26</property>
  <property name="kdenlive:file_hash">822eaba8db806ebb931637b80855c1e8</property>
  <property name="force_reload">0</property>
  <property name="meta.media.width">1280</property>
  <property name="meta.media.height">720</property>
 </producer>
 <producer id="producer25" in="00:00:00.000" out="00:00:08.633">
  <property name="length">260</property>
  <property name="eof">pause</property>
  <property name="resource"/>
  <property name="progressive">1</property>
  <property name="aspect_ratio">1</property>
  <property name="seekable">1</property>
  <property name="mlt_service">kdenlivetitle</property>
  <property name="kdenlive:duration">150</property>
  <property name="kdenlive:clipname">05 LibreCAD</property>
  <property name="xmldata">&lt;kdenlivetitle duration="150" LC_NUMERIC="C" width="1280" height="720" out="149">
 &lt;item type="QGraphicsTextItem" z-index="3">
  &lt;position x="446" y="151">
   &lt;transform>1,0,0,0,1,0,0,0,1&lt;/transform>
  &lt;/position>
  &lt;content line-spacing="0" shadow="0;#64000000;3;3;3" font-underline="0" box-height="84" font="IBM Plex Sans SemiBold" letter-spacing="0" font-pixel-size="64" font-italic="0" typewriter="0;2;1;0;0" alignment="4" font-weight="87" box-width="388.422" font-color="255,255,255,255">LibreCAD.org&lt;/content>
 &lt;/item>
 &lt;item type="QGraphicsRectItem" z-index="2">
  &lt;position x="411" y="145">
   &lt;transform zoom="100">1,0,0,0,1,0,0,0,1&lt;/transform>
  &lt;/position>
  &lt;content brushcolor="0,0,0,138" pencolor="0,0,0,255" penwidth="0" rect="0,0,457,107"/>
 &lt;/item>
 &lt;startviewport rect="0,0,1280,720"/>
 &lt;endviewport rect="0,0,1280,720"/>
 &lt;background color="0,0,0,0"/>
&lt;/kdenlivetitle>
</property>
  <property name="kdenlive:folderid">32</property>
  <property name="kdenlive:clip_type">2</property>
  <property name="kdenlive:id">27</property>
  <property name="kdenlive:file_hash">b65fb4d34f7c231372adcbd6bfc23b85</property>
  <property name="force_reload">0</property>
  <property name="meta.media.width">1280</property>
  <property name="meta.media.height">720</property>
 </producer>
 <producer id="producer26" in="00:00:00.000" out="00:00:04.967">
  <property name="length">00:00:05.000</property>
  <property name="eof">pause</property>
  <property name="resource">images/01 CAD frame 5. Document.png</property>
  <property name="ttl">25</property>
  <property name="aspect_ratio">1</property>
  <property name="progressive">1</property>
  <property name="seekable">1</property>
  <property name="format">2</property>
  <property name="meta.media.width">1280</property>
  <property name="meta.media.height">720</property>
  <property name="mlt_service">qimage</property>
  <property name="kdenlive:clipname">01 CAD 5. Document.png</property>
  <property name="kdenlive:duration">00:00:05.000</property>
  <property name="kdenlive:folderid">33</property>
  <property name="kdenlive:clip_type">2</property>
  <property name="kdenlive:id">34</property>
  <property name="kdenlive:file_size">263106</property>
  <property name="kdenlive:file_hash">71c338dcfd6c07c5c0375c36aeecee2a</property>
 </producer>
 <producer id="producer27" in="00:00:00.000" out="00:00:12.000">
  <property name="length">361</property>
  <property name="eof">pause</property>
  <property name="resource"/>
  <property name="progressive">1</property>
  <property name="aspect_ratio">1</property>
  <property name="seekable">1</property>
  <property name="mlt_service">kdenlivetitle</property>
  <property name="kdenlive:duration">150</property>
  <property name="kdenlive:clipname">06 Template spreadsheet</property>
  <property name="xmldata">&lt;kdenlivetitle duration="150" LC_NUMERIC="C" width="1280" height="720" out="149">
 &lt;item type="QGraphicsTextItem" z-index="3">
  &lt;position x="114" y="151">
   &lt;transform>1,0,0,0,1,0,0,0,1&lt;/transform>
  &lt;/position>
  &lt;content line-spacing="0" shadow="0;#64000000;3;3;3" font-underline="0" box-height="84" font="IBM Plex Sans SemiBold" letter-spacing="0" font-pixel-size="64" font-italic="0" typewriter="0;2;1;0;0" alignment="4" font-weight="87" box-width="1051.7" font-color="255,255,255,255">Spreadsheet bit.ly/template-plants&lt;/content>
 &lt;/item>
 &lt;item type="QGraphicsRectItem" z-index="2">
  &lt;position x="95" y="145">
   &lt;transform zoom="100">1,0,0,0,1,0,0,0,1&lt;/transform>
  &lt;/position>
  &lt;content brushcolor="0,0,0,138" pencolor="0,0,0,255" penwidth="0" rect="0,0,1090,107"/>
 &lt;/item>
 &lt;startviewport rect="0,0,1280,720"/>
 &lt;endviewport rect="0,0,1280,720"/>
 &lt;background color="0,0,0,0"/>
&lt;/kdenlivetitle>
</property>
  <property name="kdenlive:folderid">32</property>
  <property name="kdenlive:clip_type">2</property>
  <property name="kdenlive:id">35</property>
  <property name="kdenlive:file_hash">23d81925c8310e4e3a25c7f058602c33</property>
  <property name="force_reload">0</property>
  <property name="meta.media.width">1280</property>
  <property name="meta.media.height">720</property>
 </producer>
 <producer id="producer28" in="00:00:00.000" out="00:00:06.967">
  <property name="length">210</property>
  <property name="eof">pause</property>
  <property name="resource"/>
  <property name="progressive">1</property>
  <property name="aspect_ratio">1</property>
  <property name="seekable">1</property>
  <property name="mlt_service">kdenlivetitle</property>
  <property name="kdenlive:duration">150</property>
  <property name="kdenlive:clipname">03.01 QCAD.org/download</property>
  <property name="xmldata">&lt;kdenlivetitle duration="150" LC_NUMERIC="C" width="1280" height="720" out="149">
 &lt;item type="QGraphicsTextItem" z-index="3">
  &lt;position x="338" y="151">
   &lt;transform>1,0,0,0,1,0,0,0,1&lt;/transform>
  &lt;/position>
  &lt;content line-spacing="0" shadow="0;#64000000;3;3;3" font-underline="0" box-height="84" font="IBM Plex Sans SemiBold" letter-spacing="0" font-pixel-size="64" font-italic="0" typewriter="0;2;1;0;0" alignment="4" font-weight="87" box-width="604.453" font-color="255,255,255,255">QCAD.org/download&lt;/content>
 &lt;/item>
 &lt;item type="QGraphicsRectItem" z-index="2">
  &lt;position x="314" y="145">
   &lt;transform zoom="100">1,0,0,0,1,0,0,0,1&lt;/transform>
  &lt;/position>
  &lt;content brushcolor="0,0,0,138" pencolor="0,0,0,255" penwidth="0" rect="0,0,651,107"/>
 &lt;/item>
 &lt;startviewport rect="0,0,1280,720"/>
 &lt;endviewport rect="0,0,1280,720"/>
 &lt;background color="0,0,0,0"/>
&lt;/kdenlivetitle>
</property>
  <property name="kdenlive:folderid">32</property>
  <property name="kdenlive:clip_type">2</property>
  <property name="kdenlive:id">36</property>
  <property name="kdenlive:file_hash">822eaba8db806ebb931637b80855c1e8</property>
  <property name="force_reload">0</property>
  <property name="meta.media.width">1280</property>
  <property name="meta.media.height">720</property>
 </producer>
 <producer id="producer29" in="00:00:00.000" out="00:00:07.000">
  <property name="length">211</property>
  <property name="eof">pause</property>
  <property name="resource"/>
  <property name="progressive">1</property>
  <property name="aspect_ratio">1</property>
  <property name="seekable">1</property>
  <property name="mlt_service">kdenlivetitle</property>
  <property name="kdenlive:duration">150</property>
  <property name="kdenlive:clipname">03.02 QCAD.org/installation</property>
  <property name="xmldata">&lt;kdenlivetitle duration="150" LC_NUMERIC="C" width="1280" height="720" out="149">
 &lt;item type="QGraphicsTextItem" z-index="3">
  &lt;position x="78" y="151">
   &lt;transform>1,0,0,0,1,0,0,0,1&lt;/transform>
  &lt;/position>
  &lt;content line-spacing="0" shadow="0;#64000000;3;3;3" font-underline="0" box-height="84" font="IBM Plex Sans SemiBold" letter-spacing="0" font-pixel-size="64" font-italic="0" typewriter="0;2;1;0;0" alignment="4" font-weight="87" box-width="1123.5" font-color="255,255,255,255">QCAD.org/documentation/installation&lt;/content>
 &lt;/item>
 &lt;item type="QGraphicsRectItem" z-index="2">
  &lt;position x="55" y="145">
   &lt;transform zoom="100">1,0,0,0,1,0,0,0,1&lt;/transform>
  &lt;/position>
  &lt;content brushcolor="0,0,0,138" pencolor="0,0,0,255" penwidth="0" rect="0,0,1170,107"/>
 &lt;/item>
 &lt;startviewport rect="0,0,1280,720"/>
 &lt;endviewport rect="0,0,1280,720"/>
 &lt;background color="0,0,0,0"/>
&lt;/kdenlivetitle>
</property>
  <property name="kdenlive:folderid">32</property>
  <property name="kdenlive:clip_type">2</property>
  <property name="kdenlive:id">37</property>
  <property name="kdenlive:file_hash">b6e9796d5c1b7229e7377e1e71f063df</property>
  <property name="force_reload">0</property>
  <property name="meta.media.width">1280</property>
  <property name="meta.media.height">720</property>
 </producer>
 <producer id="producer30" in="00:00:00.000" out="00:00:19.600">
  <property name="length">589</property>
  <property name="eof">pause</property>
  <property name="resource"/>
  <property name="progressive">1</property>
  <property name="aspect_ratio">1</property>
  <property name="seekable">1</property>
  <property name="mlt_service">kdenlivetitle</property>
  <property name="kdenlive:duration">150</property>
  <property name="kdenlive:clipname">07 Auto Zoom</property>
  <property name="xmldata">&lt;kdenlivetitle duration="150" LC_NUMERIC="C" width="1280" height="720" out="149">
 &lt;item type="QGraphicsTextItem" z-index="3">
  &lt;position x="103" y="318">
   &lt;transform>1,0,0,0,1,0,0,0,1&lt;/transform>
  &lt;/position>
  &lt;content line-spacing="0" shadow="0;#64000000;3;3;3" font-underline="0" box-height="84" font-outline-color="0,0,0,255" font="IBM Plex Mono SemiBold" letter-spacing="0" font-pixel-size="64" font-italic="0" typewriter="0;2;1;0;0" alignment="4" font-weight="87" font-outline="0" box-width="1074.94" font-color="255,255,255,255">View > Zoom > Auto Zoom (ZA)&lt;/content>
 &lt;/item>
 &lt;item type="QGraphicsRectItem" z-index="2">
  &lt;position x="78" y="306">
   &lt;transform zoom="100">1,0,0,0,1,0,0,0,1&lt;/transform>
  &lt;/position>
  &lt;content brushcolor="0,0,0,138" pencolor="0,0,0,255" penwidth="0" rect="0,0,1123,107"/>
 &lt;/item>
 &lt;startviewport rect="0,0,1280,720"/>
 &lt;endviewport rect="0,0,1280,720"/>
 &lt;background color="0,0,0,0"/>
&lt;/kdenlivetitle>
</property>
  <property name="kdenlive:folderid">32</property>
  <property name="kdenlive:clip_type">2</property>
  <property name="kdenlive:id">38</property>
  <property name="kdenlive:file_hash">8dba35abea94e3bfd4364f0bb8609361</property>
  <property name="force_reload">0</property>
  <property name="meta.media.width">1280</property>
  <property name="meta.media.height">720</property>
 </producer>
 <producer id="producer31" in="00:00:00.000" out="00:00:19.600">
  <property name="length">589</property>
  <property name="eof">pause</property>
  <property name="resource"/>
  <property name="progressive">1</property>
  <property name="aspect_ratio">1</property>
  <property name="seekable">1</property>
  <property name="mlt_service">kdenlivetitle</property>
  <property name="kdenlive:duration">150</property>
  <property name="kdenlive:clipname">08 Pan Zoom</property>
  <property name="xmldata">&lt;kdenlivetitle duration="150" LC_NUMERIC="C" width="1280" height="720" out="149">
 &lt;item type="QGraphicsTextItem" z-index="3">
  &lt;position x="122" y="318">
   &lt;transform>1,0,0,0,1,0,0,0,1&lt;/transform>
  &lt;/position>
  &lt;content line-spacing="0" shadow="0;#64000000;3;3;3" font-underline="0" box-height="84" font="IBM Plex Mono SemiBold" letter-spacing="0" font-pixel-size="64" font-italic="0" typewriter="0;2;1;0;0" alignment="4" font-weight="87" box-width="1036.55" font-color="255,255,255,255">View > Zoom > Pan Zoom (ZP)&lt;/content>
 &lt;/item>
 &lt;item type="QGraphicsRectItem" z-index="2">
  &lt;position x="101" y="306">
   &lt;transform zoom="100">1,0,0,0,1,0,0,0,1&lt;/transform>
  &lt;/position>
  &lt;content brushcolor="0,0,0,138" pencolor="0,0,0,255" penwidth="0" rect="0,0,1077,107"/>
 &lt;/item>
 &lt;startviewport rect="0,0,1280,720"/>
 &lt;endviewport rect="0,0,1280,720"/>
 &lt;background color="0,0,0,0"/>
&lt;/kdenlivetitle>
</property>
  <property name="kdenlive:folderid">32</property>
  <property name="kdenlive:clip_type">2</property>
  <property name="kdenlive:id">39</property>
  <property name="kdenlive:file_hash">cf8a7e17947d5d2bb11c9a8d667fc352</property>
  <property name="force_reload">0</property>
  <property name="meta.media.width">1280</property>
  <property name="meta.media.height">720</property>
 </producer>
 <producer id="producer32" in="00:00:00.000" out="00:00:19.600">
  <property name="length">589</property>
  <property name="eof">pause</property>
  <property name="resource"/>
  <property name="progressive">1</property>
  <property name="aspect_ratio">1</property>
  <property name="seekable">1</property>
  <property name="mlt_service">kdenlivetitle</property>
  <property name="kdenlive:duration">150</property>
  <property name="kdenlive:clipname">09 Auto Zoom again</property>
  <property name="xmldata">&lt;kdenlivetitle duration="150" LC_NUMERIC="C" width="1280" height="720" out="149">
 &lt;item type="QGraphicsTextItem" z-index="3">
  &lt;position x="26" y="318">
   &lt;transform>1,0,0,0,1,0,0,0,1&lt;/transform>
  &lt;/position>
  &lt;content line-spacing="0" shadow="0;#64000000;3;3;3" font-underline="0" box-height="84" font="IBM Plex Mono SemiBold" letter-spacing="0" font-pixel-size="64" font-italic="0" typewriter="0;2;1;0;0" alignment="4" font-weight="87" box-width="1228.5" font-color="255,255,255,255">View > Zoom > Auto Zoom (again!)&lt;/content>
 &lt;/item>
 &lt;item type="QGraphicsRectItem" z-index="2">
  &lt;position x="5" y="306">
   &lt;transform zoom="100">1,0,0,0,1,0,0,0,1&lt;/transform>
  &lt;/position>
  &lt;content brushcolor="0,0,0,138" pencolor="0,0,0,255" penwidth="0" rect="0,0,1269,107"/>
 &lt;/item>
 &lt;startviewport rect="0,0,1280,720"/>
 &lt;endviewport rect="0,0,1280,720"/>
 &lt;background color="0,0,0,0"/>
&lt;/kdenlivetitle>
</property>
  <property name="kdenlive:folderid">32</property>
  <property name="kdenlive:clip_type">2</property>
  <property name="kdenlive:id">40</property>
  <property name="kdenlive:file_hash">cf8a7e17947d5d2bb11c9a8d667fc352</property>
  <property name="force_reload">0</property>
  <property name="meta.media.width">1280</property>
  <property name="meta.media.height">720</property>
 </producer>
 <producer id="producer61" in="00:00:00.000" out="00:00:04.967">
  <property name="length">00:00:05.000</property>
  <property name="eof">pause</property>
  <property name="resource">images/03.00 escape key.jpg</property>
  <property name="ttl">25</property>
  <property name="aspect_ratio">1</property>
  <property name="progressive">1</property>
  <property name="seekable">1</property>
  <property name="format">1</property>
  <property name="meta.media.width">1280</property>
  <property name="meta.media.height">720</property>
  <property name="mlt_service">qimage</property>
  <property name="kdenlive:clipname">03.00 escape key.jpg</property>
  <property name="kdenlive:duration">00:00:05.000</property>
  <property name="kdenlive:folderid">33</property>
  <property name="kdenlive:clip_type">2</property>
  <property name="kdenlive:id">41</property>
  <property name="kdenlive:file_size">193168</property>
  <property name="kdenlive:originalurl">images/03.00 escape key.jpg</property>
  <property name="kdenlive:proxy">-</property>
  <property name="kdenlive:file_hash">49c4affb5f0431229534119e41d6e372</property>
 </producer>
 <producer id="producer34" in="00:00:00.000" out="00:00:09.667">
  <property name="length">291</property>
  <property name="eof">pause</property>
  <property name="resource"/>
  <property name="progressive">1</property>
  <property name="aspect_ratio">1</property>
  <property name="seekable">1</property>
  <property name="mlt_service">kdenlivetitle</property>
  <property name="kdenlive:duration">150</property>
  <property name="kdenlive:clipname">10 CAD files </property>
  <property name="xmldata">&lt;kdenlivetitle duration="150" LC_NUMERIC="C" width="1280" height="720" out="149">
 &lt;item type="QGraphicsTextItem" z-index="3">
  &lt;position x="91" y="255">
   &lt;transform>1,0,0,0,1,0,0,0,1&lt;/transform>
  &lt;/position>
  &lt;content line-spacing="0" shadow="0;#64000000;3;3;3" font-underline="0" box-height="80" font="IBM Plex Sans SemiBold" letter-spacing="0" font-pixel-size="61" font-italic="0" typewriter="0;2;1;0;0" alignment="4" font-weight="50" box-width="1097.53" font-color="255,255,255,255">github.com/growdigital/cad-gardeners&lt;/content>
 &lt;/item>
 &lt;item type="QGraphicsRectItem" z-index="2">
  &lt;position x="65" y="249">
   &lt;transform zoom="100">1,0,0,0,1,0,0,0,1&lt;/transform>
  &lt;/position>
  &lt;content brushcolor="0,0,0,138" pencolor="0,0,0,255" penwidth="0" rect="0,0,1152,107"/>
 &lt;/item>
 &lt;startviewport rect="0,0,1280,720"/>
 &lt;endviewport rect="0,0,1280,720"/>
 &lt;background color="0,0,0,0"/>
&lt;/kdenlivetitle>
</property>
  <property name="kdenlive:folderid">32</property>
  <property name="kdenlive:clip_type">2</property>
  <property name="kdenlive:id">42</property>
  <property name="kdenlive:file_hash">9f902889f25fb411f7fdaea724aa5b96</property>
  <property name="force_reload">0</property>
  <property name="meta.media.width">1280</property>
  <property name="meta.media.height">720</property>
  <property name="kdenlive:activeeffect">-1</property>
 </producer>
 <producer id="producer35" in="00:00:00.000" out="00:00:09.667">
  <property name="length">291</property>
  <property name="eof">pause</property>
  <property name="resource"/>
  <property name="progressive">1</property>
  <property name="aspect_ratio">1</property>
  <property name="seekable">1</property>
  <property name="mlt_service">kdenlivetitle</property>
  <property name="kdenlive:duration">150</property>
  <property name="kdenlive:clipname">11 NURBS</property>
  <property name="xmldata">&lt;kdenlivetitle duration="150" LC_NUMERIC="C" width="1280" height="720" out="149">
 &lt;item type="QGraphicsTextItem" z-index="3">
  &lt;position x="92" y="255">
   &lt;transform>1,0,0,0,1,0,0,0,1&lt;/transform>
  &lt;/position>
  &lt;content line-spacing="0" shadow="0;#64000000;3;3;3" font-underline="0" box-height="80" font="IBM Plex Sans SemiBold" letter-spacing="0" font-pixel-size="61" font-italic="0" typewriter="0;2;1;0;0" alignment="4" font-weight="50" box-width="1102.02" font-color="255,255,255,255">NURBS: Non-uniform rational B-spline!&lt;/content>
 &lt;/item>
 &lt;item type="QGraphicsRectItem" z-index="2">
  &lt;position x="65" y="249">
   &lt;transform zoom="100">1,0,0,0,1,0,0,0,1&lt;/transform>
  &lt;/position>
  &lt;content brushcolor="0,0,0,138" pencolor="0,0,0,255" penwidth="0" rect="0,0,1152,107"/>
 &lt;/item>
 &lt;startviewport rect="0,0,1280,720"/>
 &lt;endviewport rect="0,0,1280,720"/>
 &lt;background color="0,0,0,0"/>
&lt;/kdenlivetitle>
</property>
  <property name="kdenlive:folderid">32</property>
  <property name="kdenlive:clip_type">2</property>
  <property name="kdenlive:id">43</property>
  <property name="kdenlive:file_hash">1a29d8e9418c6e87278ec68dae26e61f</property>
  <property name="force_reload">0</property>
  <property name="kdenlive:activeeffect">-1</property>
  <property name="meta.media.width">1280</property>
  <property name="meta.media.height">720</property>
 </producer>
 <producer id="producer36" in="00:00:00.000" out="00:00:04.967">
  <property name="length">00:00:05.000</property>
  <property name="eof">pause</property>
  <property name="resource">images/03.01 shapes rectangle.png</property>
  <property name="ttl">25</property>
  <property name="aspect_ratio">1</property>
  <property name="progressive">1</property>
  <property name="seekable">1</property>
  <property name="format">2</property>
  <property name="meta.media.width">127</property>
  <property name="meta.media.height">130</property>
  <property name="mlt_service">qimage</property>
  <property name="kdenlive:clipname"/>
  <property name="kdenlive:duration">00:00:05.000</property>
  <property name="kdenlive:folderid">33</property>
  <property name="kdenlive:clip_type">2</property>
  <property name="kdenlive:id">44</property>
  <property name="kdenlive:file_size">8062</property>
  <property name="kdenlive:file_hash">1a8022cfdebb9c301202db604fa2e29d</property>
 </producer>
 <producer id="producer37" in="00:00:00.000" out="00:00:09.700">
  <property name="length">292</property>
  <property name="eof">pause</property>
  <property name="resource">images/03.01 shapes rectangle with size.png</property>
  <property name="ttl">25</property>
  <property name="aspect_ratio">1</property>
  <property name="progressive">1</property>
  <property name="seekable">1</property>
  <property name="format">2</property>
  <property name="meta.media.width">124</property>
  <property name="meta.media.height">129</property>
  <property name="mlt_service">qimage</property>
  <property name="kdenlive:clipname"/>
  <property name="kdenlive:duration">00:00:05.000</property>
  <property name="kdenlive:folderid">33</property>
  <property name="kdenlive:clip_type">2</property>
  <property name="kdenlive:id">45</property>
  <property name="kdenlive:file_size">7725</property>
  <property name="kdenlive:file_hash">098e8986ada2125bd6be59717b5648e2</property>
 </producer>
 <producer id="producer38" in="00:00:00.000" out="00:00:19.600">
  <property name="length">589</property>
  <property name="eof">pause</property>
  <property name="resource">images/03.02 shapes line tool.png</property>
  <property name="ttl">25</property>
  <property name="aspect_ratio">1</property>
  <property name="progressive">1</property>
  <property name="seekable">1</property>
  <property name="format">2</property>
  <property name="meta.media.width">123</property>
  <property name="meta.media.height">126</property>
  <property name="mlt_service">qimage</property>
  <property name="kdenlive:clipname"/>
  <property name="kdenlive:duration">00:00:05.000</property>
  <property name="kdenlive:folderid">33</property>
  <property name="kdenlive:clip_type">2</property>
  <property name="kdenlive:id">46</property>
  <property name="kdenlive:file_size">7957</property>
  <property name="kdenlive:file_hash">0b332741ee69f308e4baa26ec061d545</property>
 </producer>
 <producer id="producer39" in="00:00:00.000" out="00:00:24.000">
  <property name="length">721</property>
  <property name="eof">pause</property>
  <property name="resource">images/03.03 shapes circle.png</property>
  <property name="ttl">25</property>
  <property name="aspect_ratio">1</property>
  <property name="progressive">1</property>
  <property name="seekable">1</property>
  <property name="format">2</property>
  <property name="meta.media.width">129</property>
  <property name="meta.media.height">129</property>
  <property name="mlt_service">qimage</property>
  <property name="kdenlive:clipname"/>
  <property name="kdenlive:duration">00:00:05.000</property>
  <property name="kdenlive:folderid">33</property>
  <property name="kdenlive:clip_type">2</property>
  <property name="kdenlive:id">47</property>
  <property name="kdenlive:file_size">9748</property>
  <property name="kdenlive:file_hash">e3528fb7425b6b13afc3141fee617958</property>
  <property name="kdenlive:activeeffect">2</property>
  <filter id="filter0">
   <property name="version">0.1</property>
   <property name="mlt_service">frei0r.scale0tilt</property>
   <property name="kdenlive_id">frei0r.scale0tilt</property>
   <property name="Clip left">00:00:00.000=0</property>
   <property name="Clip right">00:00:00.000=0</property>
   <property name="Clip top">00:00:00.000=0</property>
   <property name="Clip bottom">00:00:00.000=0</property>
   <property name="Scale X">00:00:00.000=0.15</property>
   <property name="Scale Y">00:00:00.000=0.15</property>
   <property name="Tilt X">00:00:00.000=0.609375</property>
   <property name="Tilt Y">00:00:00.000=0.825</property>
   <property name="kdenlive:collapsed">0</property>
  </filter>
  <filter id="filter1" out="00:00:01.000">
   <property name="start">1</property>
   <property name="level">1</property>
   <property name="mlt_service">brightness</property>
   <property name="kdenlive_id">fade_from_Fade in 1 sec</property>
   <property name="alpha">00:00:00.000=0;00:00:01.000=1</property>
   <property name="kdenlive:collapsed">0</property>
  </filter>
  <filter id="filter2" in="00:00:23.000" out="00:00:24.000">
   <property name="start">1</property>
   <property name="level">1</property>
   <property name="mlt_service">brightness</property>
   <property name="kdenlive_id">fade_to_Fade out 1 sec</property>
   <property name="alpha">00:00:00.000=1;00:00:01.000=0</property>
   <property name="kdenlive:collapsed">0</property>
  </filter>
 </producer>
 <producer id="producer40" in="00:00:00.000" out="00:00:19.833">
  <property name="length">596</property>
  <property name="eof">pause</property>
  <property name="resource">images/03.03 shapes circle diameter.png</property>
  <property name="ttl">25</property>
  <property name="aspect_ratio">1</property>
  <property name="progressive">1</property>
  <property name="seekable">1</property>
  <property name="format">2</property>
  <property name="meta.media.width">263</property>
  <property name="meta.media.height">213</property>
  <property name="mlt_service">qimage</property>
  <property name="kdenlive:clipname"/>
  <property name="kdenlive:duration">00:00:05.000</property>
  <property name="kdenlive:folderid">33</property>
  <property name="kdenlive:clip_type">2</property>
  <property name="kdenlive:id">48</property>
  <property name="kdenlive:file_size">23522</property>
  <property name="kdenlive:file_hash">2fb7cee437bb30e3677920707f81d80a</property>
 </producer>
 <producer id="producer41" in="00:00:00.000" out="00:00:05.833">
  <property name="length">176</property>
  <property name="eof">pause</property>
  <property name="resource">images/03.04 shapes NURBS.png</property>
  <property name="ttl">25</property>
  <property name="aspect_ratio">1</property>
  <property name="progressive">1</property>
  <property name="seekable">1</property>
  <property name="format">2</property>
  <property name="meta.media.width">128</property>
  <property name="meta.media.height">129</property>
  <property name="mlt_service">qimage</property>
  <property name="kdenlive:clipname"/>
  <property name="kdenlive:duration">00:00:05.000</property>
  <property name="kdenlive:folderid">33</property>
  <property name="kdenlive:clip_type">2</property>
  <property name="kdenlive:id">49</property>
  <property name="kdenlive:file_size">11285</property>
  <property name="kdenlive:file_hash">5038ef12de3c933e79fd5402e1ba18b3</property>
 </producer>
 <producer id="producer42" in="00:00:00.000" out="00:00:19.600">
  <property name="length">589</property>
  <property name="eof">pause</property>
  <property name="resource"/>
  <property name="progressive">1</property>
  <property name="aspect_ratio">1</property>
  <property name="seekable">1</property>
  <property name="mlt_service">kdenlivetitle</property>
  <property name="kdenlive:duration">150</property>
  <property name="kdenlive:clipname">12 Snap Free</property>
  <property name="xmldata">&lt;kdenlivetitle duration="150" LC_NUMERIC="C" width="1280" height="720" out="149">
 &lt;item type="QGraphicsTextItem" z-index="3">
  &lt;position x="333" y="318">
   &lt;transform>1,0,0,0,1,0,0,0,1&lt;/transform>
  &lt;/position>
  &lt;content line-spacing="0" shadow="0;#64000000;3;3;3" font-underline="0" box-height="84" font="IBM Plex Mono SemiBold" letter-spacing="0" font-pixel-size="64" font-italic="0" typewriter="0;2;1;0;0" alignment="4" font-weight="87" box-width="614.25" font-color="255,255,255,255">Snap > Free (SF)&lt;/content>
 &lt;/item>
 &lt;item type="QGraphicsRectItem" z-index="2">
  &lt;position x="307" y="306">
   &lt;transform zoom="100">1,0,0,0,1,0,0,0,1&lt;/transform>
  &lt;/position>
  &lt;content brushcolor="0,0,0,138" pencolor="0,0,0,255" penwidth="0" rect="0,0,666,107"/>
 &lt;/item>
 &lt;startviewport rect="0,0,1280,720"/>
 &lt;endviewport rect="0,0,1280,720"/>
 &lt;background color="0,0,0,0"/>
&lt;/kdenlivetitle>
</property>
  <property name="kdenlive:folderid">32</property>
  <property name="kdenlive:clip_type">2</property>
  <property name="kdenlive:id">50</property>
  <property name="kdenlive:file_hash">cf8a7e17947d5d2bb11c9a8d667fc352</property>
  <property name="force_reload">0</property>
  <property name="meta.media.width">1280</property>
  <property name="meta.media.height">720</property>
 </producer>
 <producer id="producer43" in="00:00:00.000" out="00:00:19.600">
  <property name="length">589</property>
  <property name="eof">pause</property>
  <property name="resource"/>
  <property name="progressive">1</property>
  <property name="aspect_ratio">1</property>
  <property name="seekable">1</property>
  <property name="mlt_service">kdenlivetitle</property>
  <property name="kdenlive:duration">150</property>
  <property name="kdenlive:clipname">13 Snap Entity</property>
  <property name="xmldata">&lt;kdenlivetitle duration="150" LC_NUMERIC="C" width="1280" height="720" out="149">
 &lt;item type="QGraphicsTextItem" z-index="3">
  &lt;position x="239" y="318">
   &lt;transform>1,0,0,0,1,0,0,0,1&lt;/transform>
  &lt;/position>
  &lt;content line-spacing="0" shadow="0;#64000000;3;3;3" font-underline="0" box-height="84" font="IBM Plex Mono SemiBold" letter-spacing="0" font-pixel-size="64" font-italic="0" typewriter="0;2;1;0;0" alignment="4" font-weight="87" box-width="806.203" font-color="255,255,255,255">Snap > On Entity (ST)&lt;/content>
 &lt;/item>
 &lt;item type="QGraphicsRectItem" z-index="2">
  &lt;position x="205" y="306">
   &lt;transform zoom="100">1,0,0,0,1,0,0,0,1&lt;/transform>
  &lt;/position>
  &lt;content brushcolor="0,0,0,138" pencolor="0,0,0,255" penwidth="0" rect="0,0,870,107"/>
 &lt;/item>
 &lt;startviewport rect="0,0,1280,720"/>
 &lt;endviewport rect="0,0,1280,720"/>
 &lt;background color="0,0,0,0"/>
&lt;/kdenlivetitle>
</property>
  <property name="kdenlive:folderid">32</property>
  <property name="kdenlive:clip_type">2</property>
  <property name="kdenlive:id">51</property>
  <property name="kdenlive:file_hash">aa003b1d103ffe282e52cc7f6ca6fd4e</property>
  <property name="force_reload">0</property>
  <property name="meta.media.width">1280</property>
  <property name="meta.media.height">720</property>
  <property name="kdenlive:activeeffect">-1</property>
 </producer>
 <producer id="producer44" in="00:00:00.000" out="00:00:19.600">
  <property name="length">589</property>
  <property name="eof">pause</property>
  <property name="resource"/>
  <property name="progressive">1</property>
  <property name="aspect_ratio">1</property>
  <property name="seekable">1</property>
  <property name="mlt_service">kdenlivetitle</property>
  <property name="kdenlive:duration">150</property>
  <property name="kdenlive:clipname">14 Snap Auto</property>
  <property name="xmldata">&lt;kdenlivetitle duration="150" LC_NUMERIC="C" width="1280" height="720" out="149">
 &lt;item type="QGraphicsTextItem" z-index="3">
  &lt;position x="334" y="318">
   &lt;transform>1,0,0,0,1,0,0,0,1&lt;/transform>
  &lt;/position>
  &lt;content line-spacing="0" shadow="0;#64000000;3;3;3" font-underline="0" box-height="84" font="IBM Plex Mono SemiBold" letter-spacing="0" font-pixel-size="64" font-italic="0" typewriter="0;2;1;0;0" alignment="4" font-weight="87" box-width="614.25" font-color="255,255,255,255">Snap > Auto (SA)&lt;/content>
 &lt;/item>
 &lt;item type="QGraphicsRectItem" z-index="2">
  &lt;position x="307" y="306">
   &lt;transform zoom="100">1,0,0,0,1,0,0,0,1&lt;/transform>
  &lt;/position>
  &lt;content brushcolor="0,0,0,138" pencolor="0,0,0,255" penwidth="0" rect="0,0,666,107"/>
 &lt;/item>
 &lt;startviewport rect="0,0,1280,720"/>
 &lt;endviewport rect="0,0,1280,720"/>
 &lt;background color="0,0,0,0"/>
&lt;/kdenlivetitle>
</property>
  <property name="kdenlive:folderid">32</property>
  <property name="kdenlive:clip_type">2</property>
  <property name="kdenlive:id">52</property>
  <property name="kdenlive:file_hash">aa003b1d103ffe282e52cc7f6ca6fd4e</property>
  <property name="force_reload">0</property>
  <property name="meta.media.width">1280</property>
  <property name="meta.media.height">720</property>
 </producer>
 <producer id="producer45" in="00:00:00.000" out="00:00:19.600">
  <property name="length">589</property>
  <property name="eof">pause</property>
  <property name="resource"/>
  <property name="progressive">1</property>
  <property name="aspect_ratio">1</property>
  <property name="seekable">1</property>
  <property name="mlt_service">kdenlivetitle</property>
  <property name="kdenlive:duration">150</property>
  <property name="kdenlive:clipname">15 Snap End</property>
  <property name="xmldata">&lt;kdenlivetitle duration="150" LC_NUMERIC="C" width="1280" height="720" out="149">
 &lt;item type="QGraphicsTextItem" z-index="3">
  &lt;position x="352" y="318">
   &lt;transform>1,0,0,0,1,0,0,0,1&lt;/transform>
  &lt;/position>
  &lt;content line-spacing="0" shadow="0;#64000000;3;3;3" font-underline="0" box-height="84" font="IBM Plex Mono SemiBold" letter-spacing="0" font-pixel-size="64" font-italic="0" typewriter="0;2;1;0;0" alignment="4" font-weight="87" box-width="575.859" font-color="255,255,255,255">Snap > End (SE)&lt;/content>
 &lt;/item>
 &lt;item type="QGraphicsRectItem" z-index="2">
  &lt;position x="329" y="306">
   &lt;transform zoom="100">1,0,0,0,1,0,0,0,1&lt;/transform>
  &lt;/position>
  &lt;content brushcolor="0,0,0,138" pencolor="0,0,0,255" penwidth="0" rect="0,0,621,107"/>
 &lt;/item>
 &lt;startviewport rect="0,0,1280,720"/>
 &lt;endviewport rect="0,0,1280,720"/>
 &lt;background color="0,0,0,0"/>
&lt;/kdenlivetitle>
</property>
  <property name="kdenlive:folderid">32</property>
  <property name="kdenlive:clip_type">2</property>
  <property name="kdenlive:id">53</property>
  <property name="kdenlive:file_hash">064548ef831673c71d47674bc317e443</property>
  <property name="force_reload">0</property>
  <property name="meta.media.width">1280</property>
  <property name="meta.media.height">720</property>
 </producer>
 <producer id="producer46" in="00:00:00.000" out="00:00:19.600">
  <property name="length">589</property>
  <property name="eof">pause</property>
  <property name="resource"/>
  <property name="progressive">1</property>
  <property name="aspect_ratio">1</property>
  <property name="seekable">1</property>
  <property name="mlt_service">kdenlivetitle</property>
  <property name="kdenlive:duration">150</property>
  <property name="kdenlive:clipname">16 Create Block</property>
  <property name="xmldata">&lt;kdenlivetitle duration="150" LC_NUMERIC="C" width="1280" height="720" out="149">
 &lt;item type="QGraphicsTextItem" z-index="3">
  &lt;position x="40" y="327">
   &lt;transform>1,0,0,0,1,0,0,0,1&lt;/transform>
  &lt;/position>
  &lt;content line-spacing="0" shadow="0;#64000000;3;3;3" font-underline="0" box-height="66" font-outline-color="0,0,0,255" font="IBM Plex Mono SemiBold" letter-spacing="0" font-pixel-size="50" font-italic="0" typewriter="0;2;1;0;0" alignment="4" font-weight="87" font-outline="0" box-width="1199.38" font-color="255,255,255,255">Block > Create Block from Selection (BC)&lt;/content>
 &lt;/item>
 &lt;item type="QGraphicsRectItem" z-index="2">
  &lt;position x="13" y="313">
   &lt;transform zoom="100">1,0,0,0,1,0,0,0,1&lt;/transform>
  &lt;/position>
  &lt;content brushcolor="0,0,0,138" pencolor="0,0,0,255" penwidth="0" rect="0,0,1254,93"/>
 &lt;/item>
 &lt;startviewport rect="0,0,1280,720"/>
 &lt;endviewport rect="0,0,1280,720"/>
 &lt;background color="0,0,0,0"/>
&lt;/kdenlivetitle>
</property>
  <property name="kdenlive:folderid">32</property>
  <property name="kdenlive:clip_type">2</property>
  <property name="kdenlive:id">54</property>
  <property name="kdenlive:file_hash">73c0583b57fd1ebbee35074944ff2b61</property>
  <property name="force_reload">0</property>
  <property name="meta.media.width">1280</property>
  <property name="meta.media.height">720</property>
 </producer>
 <producer id="producer47" in="00:00:00.000" out="00:00:19.600">
  <property name="length">589</property>
  <property name="eof">pause</property>
  <property name="progressive">1</property>
  <property name="aspect_ratio">1</property>
  <property name="seekable">1</property>
  <property name="mlt_service">kdenlivetitle</property>
  <property name="kdenlive:duration">150</property>
  <property name="kdenlive:clipname">17 Draw > Polyl...</property>
  <property name="xmldata">&lt;kdenlivetitle duration="150" LC_NUMERIC="C" width="1280" height="720" out="149">
 &lt;item type="QGraphicsTextItem" z-index="3">
  &lt;position x="34" y="327">
   &lt;transform>1,0,0,0,1,0,0,0,1&lt;/transform>
  &lt;/position>
  &lt;content line-spacing="0" shadow="0;#64000000;3;3;3" font-underline="0" box-height="59" font="IBM Plex Mono SemiBold" letter-spacing="0" font-pixel-size="44" font-italic="0" typewriter="0;2;1;0;0" alignment="4" font-weight="87" box-width="1213.97" font-color="255,255,255,255">Draw > Polyline > Polyline from Selection (OC)&lt;/content>
 &lt;/item>
 &lt;item type="QGraphicsRectItem" z-index="2">
  &lt;position x="13" y="313">
   &lt;transform zoom="100">1,0,0,0,1,0,0,0,1&lt;/transform>
  &lt;/position>
  &lt;content brushcolor="0,0,0,138" pencolor="0,0,0,255" penwidth="0" rect="0,0,1254,93"/>
 &lt;/item>
 &lt;startviewport rect="0,0,1280,720"/>
 &lt;endviewport rect="0,0,1280,720"/>
 &lt;background color="0,0,0,0"/>
&lt;/kdenlivetitle>
</property>
  <property name="kdenlive:folderid">32</property>
  <property name="kdenlive:clip_type">2</property>
  <property name="kdenlive:id">55</property>
  <property name="force_reload">0</property>
  <property name="meta.media.width">1280</property>
  <property name="meta.media.height">720</property>
  <property name="kdenlive:file_hash">905b37390ec27dceaddc05585f2bff50</property>
 </producer>
 <producer id="producer48" in="00:00:00.000" out="00:00:04.967">
  <property name="length">00:00:05.000</property>
  <property name="eof">pause</property>
  <property name="resource">images/03.05 entites explode.png</property>
  <property name="ttl">25</property>
  <property name="aspect_ratio">1</property>
  <property name="progressive">1</property>
  <property name="seekable">1</property>
  <property name="format">2</property>
  <property name="meta.media.width">129</property>
  <property name="meta.media.height">131</property>
  <property name="mlt_service">qimage</property>
  <property name="kdenlive:clipname"/>
  <property name="kdenlive:duration">00:00:05.000</property>
  <property name="kdenlive:folderid">33</property>
  <property name="kdenlive:clip_type">2</property>
  <property name="kdenlive:id">56</property>
  <property name="kdenlive:file_size">11409</property>
  <property name="kdenlive:file_hash">be4c72505bad0851471176f05848b9b1</property>
 </producer>
 <producer id="producer49" in="00:00:00.000" out="00:00:19.600">
  <property name="length">589</property>
  <property name="eof">pause</property>
  <property name="resource"/>
  <property name="progressive">1</property>
  <property name="aspect_ratio">1</property>
  <property name="seekable">1</property>
  <property name="mlt_service">kdenlivetitle</property>
  <property name="kdenlive:duration">150</property>
  <property name="kdenlive:clipname">18 Explode</property>
  <property name="xmldata">&lt;kdenlivetitle duration="150" LC_NUMERIC="C" width="1280" height="720" out="149">
 &lt;item type="QGraphicsTextItem" z-index="3">
  &lt;position x="60" y="318">
   &lt;transform>1,0,0,0,1,0,0,0,1&lt;/transform>
  &lt;/position>
  &lt;content line-spacing="0" shadow="0;#64000000;3;3;3" font-underline="0" box-height="84" font-outline-color="0,0,0,255" font="IBM Plex Sans SemiBold" letter-spacing="0" font-pixel-size="64" font-italic="0" typewriter="0;2;1;0;0" alignment="4" font-weight="87" font-outline="0" box-width="1159.56" font-color="255,255,255,255">The dynamite breaks apart the polyline&lt;/content>
 &lt;/item>
 &lt;item type="QGraphicsRectItem" z-index="2">
  &lt;position x="36" y="306">
   &lt;transform zoom="100">1,0,0,0,1,0,0,0,1&lt;/transform>
  &lt;/position>
  &lt;content brushcolor="0,0,0,138" pencolor="0,0,0,255" penwidth="0" rect="0,0,1208,107"/>
 &lt;/item>
 &lt;startviewport rect="0,0,1280,720"/>
 &lt;endviewport rect="0,0,1280,720"/>
 &lt;background color="0,0,0,0"/>
&lt;/kdenlivetitle>
</property>
  <property name="kdenlive:folderid">32</property>
  <property name="kdenlive:clip_type">2</property>
  <property name="kdenlive:id">57</property>
  <property name="kdenlive:file_hash">aa003b1d103ffe282e52cc7f6ca6fd4e</property>
  <property name="force_reload">0</property>
  <property name="meta.media.width">1280</property>
  <property name="meta.media.height">720</property>
  <property name="kdenlive:activeeffect">-1</property>
 </producer>
 <producer id="producer50" in="00:00:00.000" out="00:00:09.667">
  <property name="length">291</property>
  <property name="eof">pause</property>
  <property name="resource"/>
  <property name="progressive">1</property>
  <property name="aspect_ratio">1</property>
  <property name="seekable">1</property>
  <property name="mlt_service">kdenlivetitle</property>
  <property name="kdenlive:duration">150</property>
  <property name="kdenlive:clipname">19 5m²</property>
  <property name="xmldata">&lt;kdenlivetitle duration="150" LC_NUMERIC="C" width="1280" height="720" out="149">
 &lt;item type="QGraphicsTextItem" z-index="3">
  &lt;position x="325" y="255">
   &lt;transform>1,0,0,0,1,0,0,0,1&lt;/transform>
  &lt;/position>
  &lt;content line-spacing="0" shadow="0;#64000000;3;3;3" font-underline="0" box-height="80" font="IBM Plex Sans SemiBold" letter-spacing="0" font-pixel-size="61" font-italic="0" typewriter="0;2;1;0;0" alignment="4" font-weight="50" box-width="628.547" font-color="255,255,255,255">5m², not 5m diameter!&lt;/content>
 &lt;/item>
 &lt;item type="QGraphicsRectItem" z-index="2">
  &lt;position x="291" y="249">
   &lt;transform zoom="100">1,0,0,0,1,0,0,0,1&lt;/transform>
  &lt;/position>
  &lt;content brushcolor="0,0,0,138" pencolor="0,0,0,255" penwidth="0" rect="0,0,698,107"/>
 &lt;/item>
 &lt;startviewport rect="0,0,1280,720"/>
 &lt;endviewport rect="0,0,1280,720"/>
 &lt;background color="0,0,0,0"/>
&lt;/kdenlivetitle>
</property>
  <property name="kdenlive:folderid">32</property>
  <property name="kdenlive:clip_type">2</property>
  <property name="kdenlive:id">58</property>
  <property name="kdenlive:file_hash">1a29d8e9418c6e87278ec68dae26e61f</property>
  <property name="force_reload">0</property>
  <property name="kdenlive:activeeffect">-1</property>
  <property name="meta.media.width">1280</property>
  <property name="meta.media.height">720</property>
 </producer>
 <producer id="producer51" in="00:00:00.000" out="00:00:04.967">
  <property name="length">00:00:05.000</property>
  <property name="eof">pause</property>
  <property name="resource">images/03.06 text.png</property>
  <property name="ttl">25</property>
  <property name="aspect_ratio">1</property>
  <property name="progressive">1</property>
  <property name="seekable">1</property>
  <property name="format">2</property>
  <property name="meta.media.width">127</property>
  <property name="meta.media.height">125</property>
  <property name="mlt_service">qimage</property>
  <property name="kdenlive:clipname"/>
  <property name="kdenlive:duration">00:00:05.000</property>
  <property name="kdenlive:folderid">33</property>
  <property name="kdenlive:clip_type">2</property>
  <property name="kdenlive:id">59</property>
  <property name="kdenlive:file_size">9874</property>
  <property name="kdenlive:file_hash">c517ed09bd3f9d32b7791c29ee6316b7</property>
 </producer>
 <producer id="producer52" in="00:00:00.000" out="00:00:12.700">
  <property name="length">382</property>
  <property name="eof">pause</property>
  <property name="resource">images/03.05 THREE entites.png</property>
  <property name="ttl">25</property>
  <property name="aspect_ratio">1</property>
  <property name="progressive">1</property>
  <property name="seekable">1</property>
  <property name="format">1</property>
  <property name="meta.media.width">1920</property>
  <property name="meta.media.height">1080</property>
  <property name="mlt_service">qimage</property>
  <property name="kdenlive:clipname"/>
  <property name="kdenlive:duration">00:00:05.000</property>
  <property name="kdenlive:folderid">33</property>
  <property name="kdenlive:clip_type">2</property>
  <property name="kdenlive:id">60</property>
  <property name="kdenlive:file_size">82387</property>
  <property name="kdenlive:file_hash">71cb9aec460c0cba78a4c5bb3e22af4f</property>
 </producer>
 <producer id="producer53" in="00:00:00.000" out="00:00:19.600">
  <property name="length">589</property>
  <property name="eof">pause</property>
  <property name="resource"/>
  <property name="progressive">1</property>
  <property name="aspect_ratio">1</property>
  <property name="seekable">1</property>
  <property name="mlt_service">kdenlivetitle</property>
  <property name="kdenlive:duration">150</property>
  <property name="kdenlive:clipname">20 View Layers</property>
  <property name="xmldata">&lt;kdenlivetitle duration="150" LC_NUMERIC="C" width="1280" height="720" out="149">
 &lt;item type="QGraphicsTextItem" z-index="3">
  &lt;position x="350" y="327">
   &lt;transform>1,0,0,0,1,0,0,0,1&lt;/transform>
  &lt;/position>
  &lt;content line-spacing="0" shadow="0;#64000000;3;3;3" font-underline="0" box-height="59" font="IBM Plex Mono SemiBold" letter-spacing="0" font-pixel-size="44" font-italic="0" typewriter="0;2;1;0;0" alignment="4" font-weight="87" box-width="580.594" font-color="255,255,255,255">View > Layer List (GY)&lt;/content>
 &lt;/item>
 &lt;item type="QGraphicsRectItem" z-index="2">
  &lt;position x="331" y="313">
   &lt;transform zoom="100">1,0,0,0,1,0,0,0,1&lt;/transform>
  &lt;/position>
  &lt;content brushcolor="0,0,0,138" pencolor="0,0,0,255" penwidth="0" rect="0,0,617,93"/>
 &lt;/item>
 &lt;startviewport rect="0,0,1280,720"/>
 &lt;endviewport rect="0,0,1280,720"/>
 &lt;background color="0,0,0,0"/>
&lt;/kdenlivetitle>
</property>
  <property name="kdenlive:folderid">32</property>
  <property name="kdenlive:clip_type">2</property>
  <property name="kdenlive:id">61</property>
  <property name="force_reload">0</property>
  <property name="kdenlive:file_hash">905b37390ec27dceaddc05585f2bff50</property>
  <property name="meta.media.width">1280</property>
  <property name="meta.media.height">720</property>
 </producer>
 <producer id="producer54" in="00:00:00.000" out="00:00:07.000">
  <property name="length">211</property>
  <property name="eof">pause</property>
  <property name="resource"/>
  <property name="progressive">1</property>
  <property name="aspect_ratio">1</property>
  <property name="seekable">1</property>
  <property name="mlt_service">kdenlivetitle</property>
  <property name="kdenlive:duration">150</property>
  <property name="kdenlive:clipname">21 template URL</property>
  <property name="xmldata">&lt;kdenlivetitle duration="150" LC_NUMERIC="C" width="1280" height="720" out="149">
 &lt;item type="QGraphicsTextItem" z-index="3">
  &lt;position x="145" y="151">
   &lt;transform>1,0,0,0,1,0,0,0,1&lt;/transform>
  &lt;/position>
  &lt;content line-spacing="0" shadow="0;#64000000;3;3;3" font-underline="0" box-height="84" font="IBM Plex Sans SemiBold" letter-spacing="0" font-pixel-size="64" font-italic="0" typewriter="0;2;1;0;0" alignment="4" font-weight="87" box-width="989.109" font-color="255,255,255,255">github.com/growdigital/template&lt;/content>
 &lt;/item>
 &lt;item type="QGraphicsRectItem" z-index="2">
  &lt;position x="121" y="145">
   &lt;transform zoom="100">1,0,0,0,1,0,0,0,1&lt;/transform>
  &lt;/position>
  &lt;content brushcolor="0,0,0,138" pencolor="0,0,0,255" penwidth="0" rect="0,0,1037,107"/>
 &lt;/item>
 &lt;startviewport rect="0,0,1280,720"/>
 &lt;endviewport rect="0,0,1280,720"/>
 &lt;background color="0,0,0,0"/>
&lt;/kdenlivetitle>
</property>
  <property name="kdenlive:folderid">32</property>
  <property name="kdenlive:clip_type">2</property>
  <property name="kdenlive:id">62</property>
  <property name="kdenlive:file_hash">d1c0a627bc7c9a6c9518d5104d43a5f0</property>
  <property name="force_reload">0</property>
  <property name="meta.media.width">1280</property>
  <property name="meta.media.height">720</property>
  <property name="kdenlive:activeeffect">1</property>
 </producer>
 <producer id="producer55" in="00:00:00.000" out="00:00:05.267">
  <property name="length">159</property>
  <property name="eof">pause</property>
  <property name="resource">images/04.00 mods slide.png</property>
  <property name="ttl">25</property>
  <property name="aspect_ratio">1</property>
  <property name="progressive">1</property>
  <property name="seekable">1</property>
  <property name="format">1</property>
  <property name="meta.media.width">1920</property>
  <property name="meta.media.height">1080</property>
  <property name="mlt_service">qimage</property>
  <property name="kdenlive:clipname"/>
  <property name="kdenlive:duration">00:00:05.000</property>
  <property name="kdenlive:folderid">33</property>
  <property name="kdenlive:clip_type">2</property>
  <property name="kdenlive:id">63</property>
  <property name="kdenlive:file_size">102367</property>
  <property name="kdenlive:file_hash">a0036a28acdd6f91d2e7950d407e6154</property>
 </producer>
 <producer id="producer56" in="00:00:00.000" out="00:00:06.333">
  <property name="length">00:00:06.367</property>
  <property name="eof">pause</property>
  <property name="resource">images/04.01 mods cad.png</property>
  <property name="ttl">25</property>
  <property name="aspect_ratio">1</property>
  <property name="progressive">1</property>
  <property name="seekable">1</property>
  <property name="format">2</property>
  <property name="meta.media.width">1920</property>
  <property name="meta.media.height">1080</property>
  <property name="mlt_service">qimage</property>
  <property name="kdenlive:clipname">04.01 mods cad.png</property>
  <property name="kdenlive:duration">00:00:05.000</property>
  <property name="kdenlive:folderid">33</property>
  <property name="kdenlive:clip_type">2</property>
  <property name="kdenlive:id">64</property>
  <property name="kdenlive:file_size">699814</property>
  <property name="kdenlive:originalurl">images/04.01 mods cad.png</property>
  <property name="kdenlive:proxy">-</property>
  <property name="kdenlive:file_hash">47f81984d246804dedfc4def509aa593</property>
 </producer>
 <producer id="producer57" in="00:00:00.000" out="00:00:04.967">
  <property name="length">00:00:05.000</property>
  <property name="eof">pause</property>
  <property name="resource">images/04.02 curved-wall-gabion.jpeg</property>
  <property name="ttl">25</property>
  <property name="aspect_ratio">1</property>
  <property name="progressive">1</property>
  <property name="seekable">1</property>
  <property name="format">1</property>
  <property name="meta.media.width">387</property>
  <property name="meta.media.height">219</property>
  <property name="mlt_service">qimage</property>
  <property name="kdenlive:clipname"/>
  <property name="kdenlive:duration">00:00:05.000</property>
  <property name="kdenlive:folderid">33</property>
  <property name="kdenlive:clip_type">2</property>
  <property name="kdenlive:id">65</property>
  <property name="kdenlive:file_size">32161</property>
  <property name="kdenlive:file_hash">6f59747c3365f5d960c1b67f6b76ed3b</property>
 </producer>
 <producer id="producer33" in="00:00:00.000" out="00:00:04.967">
  <property name="length">00:00:05.000</property>
  <property name="eof">pause</property>
  <property name="resource">images/04.03 mods icon.png</property>
  <property name="ttl">25</property>
  <property name="aspect_ratio">1</property>
  <property name="progressive">1</property>
  <property name="seekable">1</property>
  <property name="format">2</property>
  <property name="meta.media.width">127</property>
  <property name="meta.media.height">125</property>
  <property name="mlt_service">qimage</property>
  <property name="kdenlive:clipname"/>
  <property name="kdenlive:duration">00:00:05.000</property>
  <property name="kdenlive:folderid">33</property>
  <property name="kdenlive:clip_type">2</property>
  <property name="kdenlive:id">66</property>
  <property name="kdenlive:file_size">13161</property>
  <property name="kdenlive:file_hash">52aff5a3848fb1fa30c5dc27808c9477</property>
 </producer>
 <producer id="producer58" in="00:00:00.000" out="00:00:04.967">
  <property name="length">00:00:05.000</property>
  <property name="eof">pause</property>
  <property name="resource">images/04.04 mods offset.png</property>
  <property name="ttl">25</property>
  <property name="aspect_ratio">1</property>
  <property name="progressive">1</property>
  <property name="seekable">1</property>
  <property name="format">2</property>
  <property name="meta.media.width">126</property>
  <property name="meta.media.height">126</property>
  <property name="mlt_service">qimage</property>
  <property name="kdenlive:clipname"/>
  <property name="kdenlive:duration">00:00:05.000</property>
  <property name="kdenlive:folderid">33</property>
  <property name="kdenlive:clip_type">2</property>
  <property name="kdenlive:id">67</property>
  <property name="kdenlive:file_size">8505</property>
  <property name="kdenlive:file_hash">b5ef08a587c48d3e4f734933b40c78f3</property>
 </producer>
 <producer id="producer59" in="00:00:00.000" out="00:00:05.800">
  <property name="length">175</property>
  <property name="eof">pause</property>
  <property name="resource">images/04.05 mods mirror.png</property>
  <property name="ttl">25</property>
  <property name="aspect_ratio">1</property>
  <property name="progressive">1</property>
  <property name="seekable">1</property>
  <property name="format">2</property>
  <property name="meta.media.width">124</property>
  <property name="meta.media.height">123</property>
  <property name="mlt_service">qimage</property>
  <property name="kdenlive:clipname"/>
  <property name="kdenlive:duration">00:00:05.000</property>
  <property name="kdenlive:folderid">33</property>
  <property name="kdenlive:clip_type">2</property>
  <property name="kdenlive:id">68</property>
  <property name="kdenlive:file_size">12066</property>
  <property name="kdenlive:file_hash">78c941416bd7840afd83504aff125275</property>
  <property name="kdenlive:activeeffect">-1</property>
 </producer>
 <producer id="producer60" in="00:00:00.000" out="00:00:04.967">
  <property name="length">00:00:05.000</property>
  <property name="eof">pause</property>
  <property name="resource">images/04.06 mods divide.png</property>
  <property name="ttl">25</property>
  <property name="aspect_ratio">1</property>
  <property name="progressive">1</property>
  <property name="seekable">1</property>
  <property name="format">2</property>
  <property name="meta.media.width">126</property>
  <property name="meta.media.height">126</property>
  <property name="mlt_service">qimage</property>
  <property name="kdenlive:clipname"/>
  <property name="kdenlive:duration">00:00:05.000</property>
  <property name="kdenlive:folderid">33</property>
  <property name="kdenlive:clip_type">2</property>
  <property name="kdenlive:id">69</property>
  <property name="kdenlive:file_size">12201</property>
  <property name="kdenlive:file_hash">a1dc0b7594a10e4b69831f52774b5d41</property>
 </producer>
 <producer id="producer62" in="00:00:00.000" out="00:00:07.000">
  <property name="length">211</property>
  <property name="eof">pause</property>
  <property name="resource"/>
  <property name="progressive">1</property>
  <property name="aspect_ratio">1</property>
  <property name="seekable">1</property>
  <property name="mlt_service">kdenlivetitle</property>
  <property name="kdenlive:duration">150</property>
  <property name="kdenlive:clipname">22 Forest Garden Blocks</property>
  <property name="xmldata">&lt;kdenlivetitle duration="150" LC_NUMERIC="C" width="1280" height="720" out="149">
 &lt;item type="QGraphicsTextItem" z-index="3">
  &lt;position x="52" y="153">
   &lt;transform>1,0,0,0,1,0,0,0,1&lt;/transform>
  &lt;/position>
  &lt;content line-spacing="0" shadow="0;#64000000;3;3;3" font-underline="0" box-height="75" font-outline-color="0,0,0,255" font="IBM Plex Sans SemiBold" letter-spacing="0" font-pixel-size="57" font-italic="0" typewriter="0;2;1;0;0" alignment="4" font-weight="50" font-outline="0" box-width="1176.05" font-color="255,255,255,255">github.com/growdigital/blocks-forestgarden&lt;/content>
 &lt;/item>
 &lt;item type="QGraphicsRectItem" z-index="2">
  &lt;position x="25" y="145">
   &lt;transform zoom="100">1,0,0,0,1,0,0,0,1&lt;/transform>
  &lt;/position>
  &lt;content brushcolor="0,0,0,138" pencolor="0,0,0,255" penwidth="0" rect="0,0,1229,107"/>
 &lt;/item>
 &lt;startviewport rect="0,0,1280,720"/>
 &lt;endviewport rect="0,0,1280,720"/>
 &lt;background color="0,0,0,0"/>
&lt;/kdenlivetitle>
</property>
  <property name="kdenlive:folderid">32</property>
  <property name="kdenlive:clip_type">2</property>
  <property name="kdenlive:id">70</property>
  <property name="kdenlive:file_hash">47f3e879522829a8a82be335dfd8419c</property>
  <property name="force_reload">0</property>
  <property name="kdenlive:activeeffect">-1</property>
  <property name="meta.media.width">1280</property>
  <property name="meta.media.height">720</property>
 </producer>
 <producer id="producer63" in="00:00:00.000" out="00:00:07.000">
  <property name="length">211</property>
  <property name="eof">pause</property>
  <property name="resource"/>
  <property name="progressive">1</property>
  <property name="aspect_ratio">1</property>
  <property name="seekable">1</property>
  <property name="mlt_service">kdenlivetitle</property>
  <property name="kdenlive:duration">150</property>
  <property name="kdenlive:clipname">23 Furniture Blocks</property>
  <property name="xmldata">&lt;kdenlivetitle duration="150" LC_NUMERIC="C" width="1280" height="720" out="149">
 &lt;item type="QGraphicsTextItem" z-index="3">
  &lt;position x="105" y="153">
   &lt;transform>1,0,0,0,1,0,0,0,1&lt;/transform>
  &lt;/position>
  &lt;content line-spacing="0" shadow="0;#64000000;3;3;3" font-underline="0" box-height="75" font="IBM Plex Sans SemiBold" letter-spacing="0" font-pixel-size="57" font-italic="0" typewriter="0;2;1;0;0" alignment="4" font-weight="50" box-width="1070.67" font-color="255,255,255,255">github.com/growdigital/blocks-furniture&lt;/content>
 &lt;/item>
 &lt;item type="QGraphicsRectItem" z-index="2">
  &lt;position x="85" y="145">
   &lt;transform zoom="100">1,0,0,0,1,0,0,0,1&lt;/transform>
  &lt;/position>
  &lt;content brushcolor="0,0,0,138" pencolor="0,0,0,255" penwidth="0" rect="0,0,1110,107"/>
 &lt;/item>
 &lt;startviewport rect="0,0,1280,720"/>
 &lt;endviewport rect="0,0,1280,720"/>
 &lt;background color="0,0,0,0"/>
&lt;/kdenlivetitle>
</property>
  <property name="kdenlive:folderid">32</property>
  <property name="kdenlive:clip_type">2</property>
  <property name="kdenlive:id">71</property>
  <property name="kdenlive:file_hash">08b3eb7b29faa0c94d9f79d4b2ffb72c</property>
  <property name="force_reload">0</property>
  <property name="kdenlive:activeeffect">1</property>
  <property name="meta.media.width">1280</property>
  <property name="meta.media.height">720</property>
 </producer>
 <producer id="producer64" in="00:00:00.000" out="00:00:12.000">
  <property name="length">361</property>
  <property name="eof">pause</property>
  <property name="resource"/>
  <property name="progressive">1</property>
  <property name="aspect_ratio">1</property>
  <property name="seekable">1</property>
  <property name="mlt_service">kdenlivetitle</property>
  <property name="kdenlive:duration">150</property>
  <property name="kdenlive:clipname">24 Forest Garden Spreadsheet</property>
  <property name="xmldata">&lt;kdenlivetitle duration="150" LC_NUMERIC="C" width="1280" height="720" out="149">
 &lt;item type="QGraphicsTextItem" z-index="3">
  &lt;position x="147" y="151">
   &lt;transform>1,0,0,0,1,0,0,0,1&lt;/transform>
  &lt;/position>
  &lt;content line-spacing="0" shadow="0;#64000000;3;3;3" font-underline="0" box-height="84" font="IBM Plex Sans SemiBold" letter-spacing="0" font-pixel-size="64" font-italic="0" typewriter="0;2;1;0;0" alignment="4" font-weight="87" box-width="980.281" font-color="255,255,255,255">bit.ly/forest-garden-spreadsheet&lt;/content>
 &lt;/item>
 &lt;item type="QGraphicsRectItem" z-index="2">
  &lt;position x="128" y="145">
   &lt;transform zoom="100">1,0,0,0,1,0,0,0,1&lt;/transform>
  &lt;/position>
  &lt;content brushcolor="0,0,0,138" pencolor="0,0,0,255" penwidth="0" rect="0,0,1024,107"/>
 &lt;/item>
 &lt;startviewport rect="0,0,1280,720"/>
 &lt;endviewport rect="0,0,1280,720"/>
 &lt;background color="0,0,0,0"/>
&lt;/kdenlivetitle>
</property>
  <property name="kdenlive:folderid">32</property>
  <property name="kdenlive:clip_type">2</property>
  <property name="kdenlive:id">72</property>
  <property name="kdenlive:file_hash">8dba35abea94e3bfd4364f0bb8609361</property>
  <property name="force_reload">0</property>
  <property name="meta.media.width">1280</property>
  <property name="meta.media.height">720</property>
 </producer>
 <producer id="producer65" in="00:00:00.000" out="00:00:04.967">
  <property name="length">00:00:05.000</property>
  <property name="eof">pause</property>
  <property name="resource">images/04.10 place block.png</property>
  <property name="ttl">25</property>
  <property name="aspect_ratio">1</property>
  <property name="progressive">1</property>
  <property name="seekable">1</property>
  <property name="format">2</property>
  <property name="meta.media.width">104</property>
  <property name="meta.media.height">65</property>
  <property name="mlt_service">qimage</property>
  <property name="kdenlive:clipname"/>
  <property name="kdenlive:duration">00:00:05.000</property>
  <property name="kdenlive:folderid">33</property>
  <property name="kdenlive:clip_type">2</property>
  <property name="kdenlive:id">73</property>
  <property name="kdenlive:file_size">7894</property>
  <property name="kdenlive:file_hash">95e6e444a491fbbe25a4dba709e834e4</property>
 </producer>
 <producer id="producer70" in="00:00:00.000" out="00:00:08.567">
  <property name="length">258</property>
  <property name="eof">pause</property>
  <property name="resource"/>
  <property name="progressive">1</property>
  <property name="aspect_ratio">1</property>
  <property name="seekable">1</property>
  <property name="mlt_service">kdenlivetitle</property>
  <property name="kdenlive:duration">150</property>
  <property name="kdenlive:clipname">25 03 image scale factor</property>
  <property name="xmldata">&lt;kdenlivetitle duration="150" LC_NUMERIC="C" width="1280" height="720" out="149">
 &lt;item type="QGraphicsTextItem" z-index="3">
  &lt;position x="139" y="151">
   &lt;transform>1,0,0,0,1,0,0,0,1&lt;/transform>
  &lt;/position>
  &lt;content line-spacing="0" shadow="0;#64000000;3;3;3" font-underline="0" box-height="92" font="IBM Plex Sans SemiBold" letter-spacing="0" font-pixel-size="70" font-italic="0" typewriter="0;2;1;0;0" alignment="4" font-weight="87" box-width="1004.11" font-color="255,255,255,255">10m ÷ 114px = 0.087719 m/px&lt;/content>
 &lt;/item>
 &lt;item type="QGraphicsRectItem" z-index="2">
  &lt;position x="109" y="145">
   &lt;transform zoom="100">1,0,0,0,1,0,0,0,1&lt;/transform>
  &lt;/position>
  &lt;content brushcolor="0,0,0,138" pencolor="0,0,0,255" penwidth="0" rect="0,0,1062,107"/>
 &lt;/item>
 &lt;startviewport rect="0,0,1280,720"/>
 &lt;endviewport rect="0,0,1280,720"/>
 &lt;background color="0,0,0,0"/>
&lt;/kdenlivetitle>
</property>
  <property name="kdenlive:folderid">32</property>
  <property name="kdenlive:clip_type">2</property>
  <property name="kdenlive:id">74</property>
  <property name="kdenlive:file_hash">552a3aa994ed5ba41d956b4ae5913d29</property>
  <property name="force_reload">0</property>
  <property name="kdenlive:activeeffect">-1</property>
  <property name="meta.media.width">1280</property>
  <property name="meta.media.height">720</property>
 </producer>
 <producer id="producer66" in="00:00:00.000" out="00:01:41.333">
  <property name="length">3041</property>
  <property name="eof">pause</property>
  <property name="resource">clips/04.1 template audio.mkv</property>
  <property name="audio_index">1</property>
  <property name="video_index">0</property>
  <property name="mute_on_pause">0</property>
  <property name="mlt_service">avformat-novalidate</property>
  <property name="meta.media.nb_streams">2</property>
  <property name="meta.media.0.stream.type">video</property>
  <property name="meta.media.0.stream.frame_rate">30</property>
  <property name="meta.media.0.stream.sample_aspect_ratio">0</property>
  <property name="meta.media.0.codec.width">1280</property>
  <property name="meta.media.0.codec.height">720</property>
  <property name="meta.media.0.codec.rotate">0</property>
  <property name="meta.media.0.codec.pix_fmt">yuv420p</property>
  <property name="meta.media.0.codec.sample_aspect_ratio">1</property>
  <property name="meta.media.0.codec.colorspace">709</property>
  <property name="meta.media.0.codec.color_trc">1</property>
  <property name="meta.media.0.codec.name">h264</property>
  <property name="meta.media.0.codec.long_name">H.264 / AVC / MPEG-4 AVC / MPEG-4 part 10</property>
  <property name="meta.media.0.codec.bit_rate">0</property>
  <property name="meta.attr.0.stream.DURATION.markup">00:01:41.366000000</property>
  <property name="meta.media.1.stream.type">audio</property>
  <property name="meta.media.1.codec.sample_fmt">fltp</property>
  <property name="meta.media.1.codec.sample_rate">48000</property>
  <property name="meta.media.1.codec.channels">2</property>
  <property name="meta.media.1.codec.name">aac</property>
  <property name="meta.media.1.codec.long_name">AAC (Advanced Audio Coding)</property>
  <property name="meta.media.1.codec.bit_rate">0</property>
  <property name="meta.attr.1.stream.title.markup">Track1</property>
  <property name="meta.attr.1.stream.DURATION.markup">00:01:41.248000000</property>
  <property name="meta.attr.ENCODER.markup">Lavf58.76.100</property>
  <property name="seekable">1</property>
  <property name="meta.media.sample_aspect_num">1</property>
  <property name="meta.media.sample_aspect_den">1</property>
  <property name="aspect_ratio">1</property>
  <property name="format">3</property>
  <property name="kdenlive:clipname"/>
  <property name="meta.media.frame_rate_num">30</property>
  <property name="meta.media.frame_rate_den">1</property>
  <property name="meta.media.colorspace">709</property>
  <property name="meta.media.color_trc">1</property>
  <property name="meta.media.has_b_frames">2</property>
  <property name="meta.media.width">1280</property>
  <property name="meta.media.height">720</property>
  <property name="meta.media.color_range">mpeg</property>
  <property name="meta.media.top_field_first">0</property>
  <property name="meta.media.progressive">1</property>
  <property name="kdenlive:clip_type">0</property>
  <property name="kdenlive:folderid">31</property>
  <property name="kdenlive:id">75</property>
  <property name="kdenlive:file_size">33789859</property>
  <property name="kdenlive:file_hash">d79bbbd77f25f90382cbc054b0582bd1</property>
  <property name="kdenlive:audio_max1">162</property>
 </producer>
 <producer id="producer67" in="00:00:00.000" out="00:01:41.167">
  <property name="length">3036</property>
  <property name="eof">pause</property>
  <property name="resource">clips/04.1 template Desktop.mkv</property>
  <property name="audio_index">1</property>
  <property name="video_index">0</property>
  <property name="mute_on_pause">0</property>
  <property name="mlt_service">avformat-novalidate</property>
  <property name="meta.media.nb_streams">2</property>
  <property name="meta.media.0.stream.type">video</property>
  <property name="meta.media.0.stream.frame_rate">30</property>
  <property name="meta.media.0.stream.sample_aspect_ratio">0</property>
  <property name="meta.media.0.codec.width">1920</property>
  <property name="meta.media.0.codec.height">1080</property>
  <property name="meta.media.0.codec.rotate">0</property>
  <property name="meta.media.0.codec.pix_fmt">yuv420p</property>
  <property name="meta.media.0.codec.sample_aspect_ratio">1</property>
  <property name="meta.media.0.codec.colorspace">709</property>
  <property name="meta.media.0.codec.color_trc">1</property>
  <property name="meta.media.0.codec.name">h264</property>
  <property name="meta.media.0.codec.long_name">H.264 / AVC / MPEG-4 AVC / MPEG-4 part 10</property>
  <property name="meta.media.0.codec.bit_rate">0</property>
  <property name="meta.attr.0.stream.DURATION.markup">00:01:41.200000000</property>
  <property name="meta.media.1.stream.type">audio</property>
  <property name="meta.media.1.codec.sample_fmt">fltp</property>
  <property name="meta.media.1.codec.sample_rate">48000</property>
  <property name="meta.media.1.codec.channels">2</property>
  <property name="meta.media.1.codec.name">aac</property>
  <property name="meta.media.1.codec.long_name">AAC (Advanced Audio Coding)</property>
  <property name="meta.media.1.codec.bit_rate">0</property>
  <property name="meta.attr.1.stream.title.markup">Source Record</property>
  <property name="meta.attr.1.stream.DURATION.markup">00:01:41.184000000</property>
  <property name="meta.attr.ENCODER.markup">Lavf58.76.100</property>
  <property name="seekable">1</property>
  <property name="meta.media.sample_aspect_num">1</property>
  <property name="meta.media.sample_aspect_den">1</property>
  <property name="aspect_ratio">1</property>
  <property name="format">3</property>
  <property name="kdenlive:clipname"/>
  <property name="meta.media.frame_rate_num">30</property>
  <property name="meta.media.frame_rate_den">1</property>
  <property name="meta.media.colorspace">709</property>
  <property name="meta.media.color_trc">1</property>
  <property name="meta.media.has_b_frames">0</property>
  <property name="meta.media.width">1920</property>
  <property name="meta.media.height">1080</property>
  <property name="meta.media.color_range">mpeg</property>
  <property name="meta.media.top_field_first">0</property>
  <property name="meta.media.progressive">1</property>
  <property name="kdenlive:clip_type">0</property>
  <property name="kdenlive:folderid">31</property>
  <property name="kdenlive:id">76</property>
  <property name="kdenlive:file_size">31676764</property>
  <property name="kdenlive:file_hash">4db3264aa09729c22297f60f1469ebd5</property>
  <property name="kdenlive:audio_max1">1</property>
 </producer>
 <producer id="producer68" in="00:00:00.000" out="00:01:41.800">
  <property name="length">3055</property>
  <property name="eof">pause</property>
  <property name="resource">clips/04.1 template facecam.mkv</property>
  <property name="audio_index">1</property>
  <property name="video_index">0</property>
  <property name="mute_on_pause">0</property>
  <property name="mlt_service">avformat-novalidate</property>
  <property name="meta.media.nb_streams">2</property>
  <property name="meta.media.0.stream.type">video</property>
  <property name="meta.media.0.stream.frame_rate">30</property>
  <property name="meta.media.0.stream.sample_aspect_ratio">0</property>
  <property name="meta.media.0.codec.width">800</property>
  <property name="meta.media.0.codec.height">600</property>
  <property name="meta.media.0.codec.rotate">0</property>
  <property name="meta.media.0.codec.pix_fmt">yuv420p</property>
  <property name="meta.media.0.codec.sample_aspect_ratio">1</property>
  <property name="meta.media.0.codec.colorspace">709</property>
  <property name="meta.media.0.codec.color_trc">1</property>
  <property name="meta.media.0.codec.name">h264</property>
  <property name="meta.media.0.codec.long_name">H.264 / AVC / MPEG-4 AVC / MPEG-4 part 10</property>
  <property name="meta.media.0.codec.bit_rate">0</property>
  <property name="meta.attr.0.stream.DURATION.markup">00:01:41.833000000</property>
  <property name="meta.media.1.stream.type">audio</property>
  <property name="meta.media.1.codec.sample_fmt">fltp</property>
  <property name="meta.media.1.codec.sample_rate">48000</property>
  <property name="meta.media.1.codec.channels">2</property>
  <property name="meta.media.1.codec.name">aac</property>
  <property name="meta.media.1.codec.long_name">AAC (Advanced Audio Coding)</property>
  <property name="meta.media.1.codec.bit_rate">0</property>
  <property name="meta.attr.1.stream.title.markup">Source Record</property>
  <property name="meta.attr.1.stream.DURATION.markup">00:01:41.824000000</property>
  <property name="meta.attr.ENCODER.markup">Lavf58.76.100</property>
  <property name="seekable">1</property>
  <property name="meta.media.sample_aspect_num">1</property>
  <property name="meta.media.sample_aspect_den">1</property>
  <property name="aspect_ratio">1</property>
  <property name="format">3</property>
  <property name="kdenlive:clipname"/>
  <property name="meta.media.frame_rate_num">30</property>
  <property name="meta.media.frame_rate_den">1</property>
  <property name="meta.media.colorspace">709</property>
  <property name="meta.media.color_trc">1</property>
  <property name="meta.media.has_b_frames">0</property>
  <property name="meta.media.width">800</property>
  <property name="meta.media.height">600</property>
  <property name="meta.media.color_range">mpeg</property>
  <property name="meta.media.top_field_first">0</property>
  <property name="meta.media.progressive">1</property>
  <property name="kdenlive:clip_type">0</property>
  <property name="kdenlive:folderid">31</property>
  <property name="kdenlive:id">77</property>
  <property name="kdenlive:file_size">31948372</property>
  <property name="kdenlive:file_hash">87d1fbd54fd4c201c93f2aa85ebd89a1</property>
  <property name="kdenlive:audio_max1">1</property>
 </producer>
 <producer id="producer69" in="00:00:00.000" out="00:00:11.633">
  <property name="length">350</property>
  <property name="eof">pause</property>
  <property name="resource"/>
  <property name="progressive">1</property>
  <property name="aspect_ratio">1</property>
  <property name="seekable">1</property>
  <property name="mlt_service">kdenlivetitle</property>
  <property name="kdenlive:duration">150</property>
  <property name="kdenlive:clipname">25 01 GitHub template</property>
  <property name="xmldata">&lt;kdenlivetitle duration="150" LC_NUMERIC="C" width="1280" height="720" out="149">
 &lt;item type="QGraphicsTextItem" z-index="3">
  &lt;position x="99" y="151">
   &lt;transform>1,0,0,0,1,0,0,0,1&lt;/transform>
  &lt;/position>
  &lt;content line-spacing="0" shadow="0;#64000000;3;3;3" font-underline="0" box-height="92" font="IBM Plex Sans SemiBold" letter-spacing="0" font-pixel-size="70" font-italic="0" typewriter="0;2;1;0;0" alignment="4" font-weight="87" box-width="1081.91" font-color="255,255,255,255">github.com/growdigital/template&lt;/content>
 &lt;/item>
 &lt;item type="QGraphicsRectItem" z-index="2">
  &lt;position x="65" y="145">
   &lt;transform zoom="100">1,0,0,0,1,0,0,0,1&lt;/transform>
  &lt;/position>
  &lt;content brushcolor="0,0,0,138" pencolor="0,0,0,255" penwidth="0" rect="0,0,1149,107"/>
 &lt;/item>
 &lt;startviewport rect="0,0,1280,720"/>
 &lt;endviewport rect="0,0,1280,720"/>
 &lt;background color="0,0,0,0"/>
&lt;/kdenlivetitle>
</property>
  <property name="kdenlive:folderid">32</property>
  <property name="kdenlive:clip_type">2</property>
  <property name="kdenlive:id">78</property>
  <property name="kdenlive:file_hash">49e8d682c72156aac7c18e4159767692</property>
  <property name="force_reload">0</property>
  <property name="meta.media.width">1280</property>
  <property name="meta.media.height">720</property>
 </producer>
 <producer id="producer71" in="00:00:00.000" out="00:00:19.600">
  <property name="length">589</property>
  <property name="eof">pause</property>
  <property name="resource"/>
  <property name="progressive">1</property>
  <property name="aspect_ratio">1</property>
  <property name="seekable">1</property>
  <property name="mlt_service">kdenlivetitle</property>
  <property name="kdenlive:duration">150</property>
  <property name="kdenlive:clipname">25 02 add template folder</property>
  <property name="xmldata">&lt;kdenlivetitle duration="150" LC_NUMERIC="C" width="1280" height="720" out="149">
 &lt;item type="QGraphicsTextItem" z-index="3">
  &lt;position x="21" y="327">
   &lt;transform>1,0,0,0,1,0,0,0,1&lt;/transform>
  &lt;/position>
  &lt;content line-spacing="0" shadow="0;#64000000;3;3;3" font-underline="0" box-height="56" font-outline-color="0,0,0,255" font="IBM Plex Mono SemiBold" letter-spacing="0" font-pixel-size="42" font-italic="0" typewriter="0;2;1;0;0" alignment="4" font-weight="87" font-outline="0" box-width="1259.38" font-color="255,255,255,255">Edit > Application Preferences > File > Templates &lt;/content>
 &lt;/item>
 &lt;item type="QGraphicsRectItem" z-index="2">
  &lt;position x="13" y="313">
   &lt;transform zoom="100">1,0,0,0,1,0,0,0,1&lt;/transform>
  &lt;/position>
  &lt;content brushcolor="0,0,0,138" pencolor="0,0,0,255" penwidth="0" rect="0,0,1254,93"/>
 &lt;/item>
 &lt;startviewport rect="0,0,1280,720"/>
 &lt;endviewport rect="0,0,1280,720"/>
 &lt;background color="0,0,0,0"/>
&lt;/kdenlivetitle>
</property>
  <property name="kdenlive:folderid">32</property>
  <property name="kdenlive:clip_type">2</property>
  <property name="kdenlive:id">79</property>
  <property name="force_reload">0</property>
  <property name="kdenlive:file_hash">905b37390ec27dceaddc05585f2bff50</property>
  <property name="meta.media.width">1280</property>
  <property name="meta.media.height">720</property>
 </producer>
 <producer id="producer72" in="00:00:00.000" out="00:00:19.600">
  <property name="length">589</property>
  <property name="eof">pause</property>
  <property name="resource"/>
  <property name="progressive">1</property>
  <property name="aspect_ratio">1</property>
  <property name="seekable">1</property>
  <property name="mlt_service">kdenlivetitle</property>
  <property name="kdenlive:duration">150</property>
  <property name="kdenlive:clipname">25 04 Modify Send to Back</property>
  <property name="xmldata">&lt;kdenlivetitle duration="150" LC_NUMERIC="C" width="1280" height="720" out="149">
 &lt;item type="QGraphicsTextItem" z-index="3">
  &lt;position x="125" y="327">
   &lt;transform>1,0,0,0,1,0,0,0,1&lt;/transform>
  &lt;/position>
  &lt;content line-spacing="0" shadow="0;#64000000;3;3;3" font-underline="0" box-height="59" font-outline-color="0,0,0,255" font="IBM Plex Mono SemiBold" letter-spacing="0" font-pixel-size="44" font-italic="0" typewriter="0;2;1;0;0" alignment="4" font-weight="87" font-outline="0" box-width="1029.23" font-color="255,255,255,255">Modify > Draw Order > Send to Back (MB)&lt;/content>
 &lt;/item>
 &lt;item type="QGraphicsRectItem" z-index="2">
  &lt;position x="101" y="313">
   &lt;transform zoom="100">1,0,0,0,1,0,0,0,1&lt;/transform>
  &lt;/position>
  &lt;content brushcolor="0,0,0,138" pencolor="0,0,0,255" penwidth="0" rect="0,0,1077,93"/>
 &lt;/item>
 &lt;startviewport rect="0,0,1280,720"/>
 &lt;endviewport rect="0,0,1280,720"/>
 &lt;background color="0,0,0,0"/>
&lt;/kdenlivetitle>
</property>
  <property name="kdenlive:folderid">32</property>
  <property name="kdenlive:clip_type">2</property>
  <property name="kdenlive:id">80</property>
  <property name="force_reload">0</property>
  <property name="kdenlive:file_hash">11795cb6fe155695cbac4118c149a4e0</property>
  <property name="meta.media.width">1280</property>
  <property name="meta.media.height">720</property>
 </producer>
 <producer id="producer73" in="00:00:00.000" out="00:00:12.367">
  <property name="length">372</property>
  <property name="eof">pause</property>
  <property name="resource"/>
  <property name="progressive">1</property>
  <property name="aspect_ratio">1</property>
  <property name="seekable">1</property>
  <property name="mlt_service">kdenlivetitle</property>
  <property name="kdenlive:duration">150</property>
  <property name="kdenlive:clipname">25 05 town scale factor</property>
  <property name="xmldata">&lt;kdenlivetitle duration="150" LC_NUMERIC="C" width="1280" height="720" out="149">
 &lt;item type="QGraphicsTextItem" z-index="3">
  &lt;position x="139" y="151">
   &lt;transform>1,0,0,0,1,0,0,0,1&lt;/transform>
  &lt;/position>
  &lt;content line-spacing="0" shadow="0;#64000000;3;3;3" font-underline="0" box-height="92" font="IBM Plex Sans SemiBold" letter-spacing="0" font-pixel-size="70" font-italic="0" typewriter="0;2;1;0;0" alignment="4" font-weight="87" box-width="1004.11" font-color="255,255,255,255">5m ÷ 110px = 0.0454546 m/px&lt;/content>
 &lt;/item>
 &lt;item type="QGraphicsRectItem" z-index="2">
  &lt;position x="109" y="145">
   &lt;transform zoom="100">1,0,0,0,1,0,0,0,1&lt;/transform>
  &lt;/position>
  &lt;content brushcolor="0,0,0,138" pencolor="0,0,0,255" penwidth="0" rect="0,0,1062,107"/>
 &lt;/item>
 &lt;startviewport rect="0,0,1280,720"/>
 &lt;endviewport rect="0,0,1280,720"/>
 &lt;background color="0,0,0,0"/>
&lt;/kdenlivetitle>
</property>
  <property name="kdenlive:folderid">32</property>
  <property name="kdenlive:clip_type">2</property>
  <property name="kdenlive:id">81</property>
  <property name="kdenlive:file_hash">1e1a13953773299be821cdebe6d34812</property>
  <property name="force_reload">0</property>
  <property name="kdenlive:activeeffect">-1</property>
  <property name="meta.media.width">1280</property>
  <property name="meta.media.height">720</property>
 </producer>
 <producer id="producer74" in="00:00:00.000" out="00:00:12.167">
  <property name="length">366</property>
  <property name="eof">pause</property>
  <property name="progressive">1</property>
  <property name="aspect_ratio">1</property>
  <property name="seekable">1</property>
  <property name="mlt_service">kdenlivetitle</property>
  <property name="kdenlive:duration">150</property>
  <property name="kdenlive:clipname">25 06 Telegram group</property>
  <property name="xmldata">&lt;kdenlivetitle duration="150" LC_NUMERIC="C" width="1280" height="720" out="149">
 &lt;item type="QGraphicsTextItem" z-index="3">
  &lt;position x="146" y="151">
   &lt;transform>1,0,0,0,1,0,0,0,1&lt;/transform>
  &lt;/position>
  &lt;content line-spacing="0" shadow="0;#64000000;3;3;3" font-underline="0" box-height="84" font="IBM Plex Sans SemiBold" letter-spacing="0" font-pixel-size="64" font-italic="0" typewriter="0;2;1;0;0" alignment="4" font-weight="87" box-width="983.641" font-color="255,255,255,255">Telegram group: t.me/WildEdible&lt;/content>
 &lt;/item>
 &lt;item type="QGraphicsRectItem" z-index="2">
  &lt;position x="121" y="145">
   &lt;transform zoom="100">1,0,0,0,1,0,0,0,1&lt;/transform>
  &lt;/position>
  &lt;content brushcolor="0,0,0,138" pencolor="0,0,0,255" penwidth="0" rect="0,0,1037,107"/>
 &lt;/item>
 &lt;startviewport rect="0,0,1280,720"/>
 &lt;endviewport rect="0,0,1280,720"/>
 &lt;background color="0,0,0,0"/>
&lt;/kdenlivetitle>
</property>
  <property name="kdenlive:folderid">32</property>
  <property name="kdenlive:clip_type">2</property>
  <property name="kdenlive:id">82</property>
  <property name="force_reload">0</property>
  <property name="kdenlive:activeeffect">1</property>
  <property name="meta.media.width">1280</property>
  <property name="meta.media.height">720</property>
  <property name="kdenlive:file_hash">2be503992c9dbc169442b1888f9ed613</property>
 </producer>
 <producer id="producer75" in="00:00:00.000" out="00:00:12.167">
  <property name="length">366</property>
  <property name="eof">pause</property>
  <property name="resource"/>
  <property name="progressive">1</property>
  <property name="aspect_ratio">1</property>
  <property name="seekable">1</property>
  <property name="mlt_service">kdenlivetitle</property>
  <property name="kdenlive:duration">150</property>
  <property name="kdenlive:clipname">25 07 QCAD forum</property>
  <property name="xmldata">&lt;kdenlivetitle duration="150" LC_NUMERIC="C" width="1280" height="720" out="149">
 &lt;item type="QGraphicsTextItem" z-index="3">
  &lt;position x="376" y="151">
   &lt;transform>1,0,0,0,1,0,0,0,1&lt;/transform>
  &lt;/position>
  &lt;content line-spacing="0" shadow="0;#64000000;3;3;3" font-underline="0" box-height="84" font="IBM Plex Sans SemiBold" letter-spacing="0" font-pixel-size="64" font-italic="0" typewriter="0;2;1;0;0" alignment="4" font-weight="87" box-width="521.938" font-color="255,255,255,255">qcad.org/rsforum&lt;/content>
 &lt;/item>
 &lt;item type="QGraphicsRectItem" z-index="2">
  &lt;position x="357" y="145">
   &lt;transform zoom="100">1,0,0,0,1,0,0,0,1&lt;/transform>
  &lt;/position>
  &lt;content brushcolor="0,0,0,138" pencolor="0,0,0,255" penwidth="0" rect="0,0,565,107"/>
 &lt;/item>
 &lt;startviewport rect="0,0,1280,720"/>
 &lt;endviewport rect="0,0,1280,720"/>
 &lt;background color="0,0,0,0"/>
&lt;/kdenlivetitle>
</property>
  <property name="kdenlive:folderid">32</property>
  <property name="kdenlive:clip_type">2</property>
  <property name="kdenlive:id">83</property>
  <property name="force_reload">0</property>
  <property name="kdenlive:activeeffect">1</property>
  <property name="kdenlive:file_hash">2be503992c9dbc169442b1888f9ed613</property>
  <property name="meta.media.width">1280</property>
  <property name="meta.media.height">720</property>
 </producer>
 <producer id="producer76" in="00:00:00.000" out="00:00:12.000">
  <property name="length">361</property>
  <property name="eof">pause</property>
  <property name="resource"/>
  <property name="progressive">1</property>
  <property name="aspect_ratio">1</property>
  <property name="seekable">1</property>
  <property name="mlt_service">kdenlivetitle</property>
  <property name="kdenlive:duration">150</property>
  <property name="kdenlive:clipname">25 08 Native spreadsheet</property>
  <property name="xmldata">&lt;kdenlivetitle duration="150" LC_NUMERIC="C" width="1280" height="720" out="149">
 &lt;item type="QGraphicsTextItem" z-index="3">
  &lt;position x="174" y="151">
   &lt;transform>1,0,0,0,1,0,0,0,1&lt;/transform>
  &lt;/position>
  &lt;content line-spacing="0" shadow="0;#64000000;3;3;3" font-underline="0" box-height="84" font="IBM Plex Sans SemiBold" letter-spacing="0" font-pixel-size="64" font-italic="0" typewriter="0;2;1;0;0" alignment="4" font-weight="87" box-width="932.453" font-color="255,255,255,255">bit.ly/garden-wild-spreadsheet&lt;/content>
 &lt;/item>
 &lt;item type="QGraphicsRectItem" z-index="2">
  &lt;position x="150" y="145">
   &lt;transform zoom="100">1,0,0,0,1,0,0,0,1&lt;/transform>
  &lt;/position>
  &lt;content brushcolor="0,0,0,138" pencolor="0,0,0,255" penwidth="0" rect="0,0,980,107"/>
 &lt;/item>
 &lt;startviewport rect="0,0,1280,720"/>
 &lt;endviewport rect="0,0,1280,720"/>
 &lt;background color="0,0,0,0"/>
&lt;/kdenlivetitle>
</property>
  <property name="kdenlive:folderid">32</property>
  <property name="kdenlive:clip_type">2</property>
  <property name="kdenlive:id">84</property>
  <property name="kdenlive:file_hash">1e6521ac93e72ea6bcbd7c54726d5735</property>
  <property name="force_reload">0</property>
  <property name="meta.media.width">1280</property>
  <property name="meta.media.height">720</property>
 </producer>
 <producer id="producer77" in="00:00:00.000" out="00:00:13.267">
  <property name="length">399</property>
  <property name="eof">pause</property>
  <property name="resource">images/05 end.png</property>
  <property name="ttl">25</property>
  <property name="aspect_ratio">1</property>
  <property name="progressive">1</property>
  <property name="seekable">1</property>
  <property name="format">1</property>
  <property name="meta.media.width">1920</property>
  <property name="meta.media.height">1080</property>
  <property name="mlt_service">qimage</property>
  <property name="kdenlive:clipname"/>
  <property name="kdenlive:duration">00:00:05.000</property>
  <property name="kdenlive:folderid">33</property>
  <property name="kdenlive:clip_type">2</property>
  <property name="kdenlive:id">85</property>
  <property name="kdenlive:file_size">523447</property>
  <property name="kdenlive:file_hash">9fd530be1dc2277a5b6acc74d3c1180f</property>
 </producer>
 <playlist id="main_bin">
  <property name="kdenlive:folder.-1.28">01 CAD</property>
  <property name="kdenlive:folder.-1.29">02 Setup</property>
  <property name="kdenlive:folder.-1.30">03 Shapes</property>
  <property name="kdenlive:folder.-1.31">04 Examples</property>
  <property name="kdenlive:folder.-1.32">Titles</property>
  <property name="kdenlive:folder.-1.33">Images</property>
  <property name="kdenlive:docproperties.activeTrack">6</property>
  <property name="kdenlive:docproperties.audioChannels">2</property>
  <property name="kdenlive:docproperties.audioTarget">-1</property>
  <property name="kdenlive:docproperties.compositing">1</property>
  <property name="kdenlive:docproperties.disablepreview">0</property>
  <property name="kdenlive:docproperties.documentid">1673512599751</property>
  <property name="kdenlive:docproperties.enableTimelineZone">0</property>
  <property name="kdenlive:docproperties.enableexternalproxy">0</property>
  <property name="kdenlive:docproperties.enableproxy">0</property>
  <property name="kdenlive:docproperties.externalproxyparams">./;GL;.LRV;./;GX;.MP4;./;GP;.LRV;./;GP;.MP4</property>
  <property name="kdenlive:docproperties.generateimageproxy">0</property>
  <property name="kdenlive:docproperties.generateproxy">0</property>
  <property name="kdenlive:docproperties.groups">[
]
</property>
  <property name="kdenlive:docproperties.guides">[
    {
        "comment": "Echo start",
        "pos": 1997,
        "type": 8
    },
    {
        "comment": "Echo end",
        "pos": 2236,
        "type": 8
    },
    {
        "comment": "04 Examples",
        "pos": 83185,
        "type": 0
    },
    {
        "comment": "03 Shapes",
        "pos": 35896,
        "type": 0
    },
    {
        "comment": "02 Setup",
        "pos": 25217,
        "type": 0
    },
    {
        "comment": "Echo in",
        "pos": 75199,
        "type": 8
    },
    {
        "comment": "Echo out",
        "pos": 75531,
        "type": 8
    }
]
</property>
  <property name="kdenlive:docproperties.guidesCategories">[
    {
        "color": "#9b59b6",
        "comment": "Category 1",
        "index": 0
    },
    {
        "color": "#3daee9",
        "comment": "Category 2",
        "index": 1
    },
    {
        "color": "#1abc9c",
        "comment": "Category 3",
        "index": 2
    },
    {
        "color": "#1cdc9a",
        "comment": "Category 4",
        "index": 3
    },
    {
        "color": "#c9ce3b",
        "comment": "Category 5",
        "index": 4
    },
    {
        "color": "#fdbc4b",
        "comment": "Category 6",
        "index": 5
    },
    {
        "color": "#f39c1f",
        "comment": "Category 7",
        "index": 6
    },
    {
        "color": "#f47750",
        "comment": "Category 8",
        "index": 7
    },
    {
        "color": "#da4453",
        "comment": "Category 9",
        "index": 8
    }
]
</property>
  <property name="kdenlive:docproperties.kdenliveversion">22.12.1</property>
  <property name="kdenlive:docproperties.position">84788</property>
  <property name="kdenlive:docproperties.previewextension"/>
  <property name="kdenlive:docproperties.previewparameters"/>
  <property name="kdenlive:docproperties.profile">atsc_720p_30</property>
  <property name="kdenlive:docproperties.proxyextension"/>
  <property name="kdenlive:docproperties.proxyimageminsize">2000</property>
  <property name="kdenlive:docproperties.proxyimagesize">800</property>
  <property name="kdenlive:docproperties.proxyminsize">1000</property>
  <property name="kdenlive:docproperties.proxyparams"/>
  <property name="kdenlive:docproperties.proxyresize">640</property>
  <property name="kdenlive:docproperties.rendercategory">Generic (HD for web, mobile devices...)</property>
  <property name="kdenlive:docproperties.rendercustomquality">100</property>
  <property name="kdenlive:docproperties.renderendguide">3</property>
  <property name="kdenlive:docproperties.renderexportaudio">0</property>
  <property name="kdenlive:docproperties.rendermode">2</property>
  <property name="kdenlive:docproperties.renderplay">0</property>
  <property name="kdenlive:docproperties.renderpreview">0</property>
  <property name="kdenlive:docproperties.renderprofile">MP4-H264/AAC</property>
  <property name="kdenlive:docproperties.renderratio">1</property>
  <property name="kdenlive:docproperties.renderrescale">0</property>
  <property name="kdenlive:docproperties.renderrescaleheight">360</property>
  <property name="kdenlive:docproperties.renderrescalewidth">640</property>
  <property name="kdenlive:docproperties.renderspeed">6</property>
  <property name="kdenlive:docproperties.renderstartguide">3</property>
  <property name="kdenlive:docproperties.rendertcoverlay">0</property>
  <property name="kdenlive:docproperties.rendertctype">-1</property>
  <property name="kdenlive:docproperties.rendertwopass">0</property>
  <property name="kdenlive:docproperties.renderurl">output/04-examples.mp4</property>
  <property name="kdenlive:docproperties.scrollPos">236177</property>
  <property name="kdenlive:docproperties.seekOffset">30000</property>
  <property name="kdenlive:docproperties.version">1.04</property>
  <property name="kdenlive:docproperties.verticalzoom">1</property>
  <property name="kdenlive:docproperties.videoTarget">-1</property>
  <property name="kdenlive:docproperties.zonein">1997</property>
  <property name="kdenlive:docproperties.zoneout">25217</property>
  <property name="kdenlive:docproperties.zoom">4</property>
  <property name="kdenlive:docmetadata.meta.attr.author.markup">Jake Rayson</property>
  <property name="kdenlive:docmetadata.meta.attr.copyright.markup">Nature Works</property>
  <property name="kdenlive:docmetadata.meta.attr.title.markup">CAD for Gardeners</property>
  <property name="kdenlive:docmetadata.meta.attr.year.markup">2023</property>
  <property name="kdenlive:expandedFolders"/>
  <property name="kdenlive:documentnotes"/>
  <property name="xml_retain">1</property>
  <entry producer="producer0" in="00:00:00.000" out="00:24:20.733"/>
  <entry producer="producer2" in="00:00:00.000" out="00:24:21.033"/>
  <entry producer="producer1" in="00:00:00.000" out="00:24:21.167"/>
  <entry producer="producer3" in="00:00:00.000" out="00:09:14.400"/>
  <entry producer="producer4" in="00:00:00.000" out="00:09:14.133"/>
  <entry producer="producer5" in="00:00:00.000" out="00:09:14.967"/>
  <entry producer="producer6" in="00:00:00.000" out="00:08:18.800"/>
  <entry producer="producer8" in="00:00:00.000" out="00:08:19.067"/>
  <entry producer="producer7" in="00:00:00.000" out="00:08:19.267"/>
  <entry producer="producer9" in="00:00:00.000" out="00:14:21.900"/>
  <entry producer="producer11" in="00:00:00.000" out="00:14:22.033"/>
  <entry producer="producer10" in="00:00:00.000" out="00:14:22.433"/>
  <entry producer="producer12" in="00:00:00.000" out="00:10:10.967"/>
  <entry producer="producer14" in="00:00:00.000" out="00:10:03.700"/>
  <entry producer="producer13" in="00:00:00.000" out="00:10:14.800"/>
  <entry producer="producer16" in="00:00:00.000" out="00:33:34.467"/>
  <entry producer="producer15" in="00:00:00.000" out="00:33:34.267"/>
  <entry producer="producer17" in="00:00:00.000" out="00:33:35.200"/>
  <entry producer="producer19" in="00:00:00.000" out="00:00:05.433"/>
  <entry producer="producer20" in="00:00:00.000" out="00:00:05.800"/>
  <entry producer="producer18" in="00:00:00.000" out="00:00:05.833"/>
  <entry producer="producer21" in="00:00:00.000" out="00:00:04.967"/>
  <entry producer="producer22" in="00:00:00.000" out="00:00:05.967"/>
  <entry producer="producer23" in="00:00:00.000" out="00:00:06.767"/>
  <entry producer="producer24" in="00:00:00.000" out="00:00:08.633"/>
  <entry producer="producer25" in="00:00:00.000" out="00:00:08.633"/>
  <entry producer="producer26" in="00:00:00.000" out="00:00:04.967"/>
  <entry producer="producer27" in="00:00:00.000" out="00:00:12.000"/>
  <entry producer="producer28" in="00:00:00.000" out="00:00:06.967"/>
  <entry producer="producer29" in="00:00:00.000" out="00:00:07.000"/>
  <entry producer="producer30" in="00:00:00.000" out="00:00:19.600"/>
  <entry producer="producer31" in="00:00:00.000" out="00:00:19.600"/>
  <entry producer="producer32" in="00:00:00.000" out="00:00:19.600"/>
  <entry producer="producer61" in="00:00:00.000" out="00:00:04.967"/>
  <entry producer="producer34" in="00:00:00.000" out="00:00:09.667"/>
  <entry producer="producer35" in="00:00:00.000" out="00:00:09.667"/>
  <entry producer="producer36" in="00:00:00.000" out="00:00:04.967"/>
  <entry producer="producer37" in="00:00:00.000" out="00:00:09.700"/>
  <entry producer="producer38" in="00:00:00.000" out="00:00:19.600"/>
  <entry producer="producer39" in="00:00:00.000" out="00:00:24.000"/>
  <entry producer="producer40" in="00:00:00.000" out="00:00:19.833"/>
  <entry producer="producer41" in="00:00:00.000" out="00:00:05.833"/>
  <entry producer="producer42" in="00:00:00.000" out="00:00:19.600"/>
  <entry producer="producer43" in="00:00:00.000" out="00:00:19.600"/>
  <entry producer="producer44" in="00:00:00.000" out="00:00:19.600"/>
  <entry producer="producer45" in="00:00:00.000" out="00:00:19.600"/>
  <entry producer="producer46" in="00:00:00.000" out="00:00:19.600"/>
  <entry producer="producer47" in="00:00:00.000" out="00:00:19.600"/>
  <entry producer="producer48" in="00:00:00.000" out="00:00:04.967"/>
  <entry producer="producer49" in="00:00:00.000" out="00:00:19.600"/>
  <entry producer="producer50" in="00:00:00.000" out="00:00:09.667"/>
  <entry producer="producer51" in="00:00:00.000" out="00:00:04.967"/>
  <entry producer="producer52" in="00:00:00.000" out="00:00:12.700"/>
  <entry producer="producer53" in="00:00:00.000" out="00:00:19.600"/>
  <entry producer="producer54" in="00:00:00.000" out="00:00:07.000"/>
  <entry producer="producer55" in="00:00:00.000" out="00:00:05.267"/>
  <entry producer="producer56" in="00:00:00.000" out="00:00:06.333"/>
  <entry producer="producer57" in="00:00:00.000" out="00:00:04.967"/>
  <entry producer="producer33" in="00:00:00.000" out="00:00:04.967"/>
  <entry producer="producer58" in="00:00:00.000" out="00:00:04.967"/>
  <entry producer="producer59" in="00:00:00.000" out="00:00:05.800"/>
  <entry producer="producer60" in="00:00:00.000" out="00:00:04.967"/>
  <entry producer="producer62" in="00:00:00.000" out="00:00:07.000"/>
  <entry producer="producer63" in="00:00:00.000" out="00:00:07.000"/>
  <entry producer="producer64" in="00:00:00.000" out="00:00:12.000"/>
  <entry producer="producer65" in="00:00:00.000" out="00:00:04.967"/>
  <entry producer="producer70" in="00:00:00.000" out="00:00:08.567"/>
  <entry producer="producer66" in="00:00:00.000" out="00:01:41.333"/>
  <entry producer="producer67" in="00:00:00.000" out="00:01:41.167"/>
  <entry producer="producer68" in="00:00:00.000" out="00:01:41.800"/>
  <entry producer="producer69" in="00:00:00.000" out="00:00:11.633"/>
  <entry producer="producer71" in="00:00:00.000" out="00:00:19.600"/>
  <entry producer="producer72" in="00:00:00.000" out="00:00:19.600"/>
  <entry producer="producer73" in="00:00:00.000" out="00:00:12.367"/>
  <entry producer="producer74" in="00:00:00.000" out="00:00:12.167"/>
  <entry producer="producer75" in="00:00:00.000" out="00:00:12.167"/>
  <entry producer="producer76" in="00:00:00.000" out="00:00:12.000"/>
  <entry producer="producer77" in="00:00:00.000" out="00:00:13.267"/>
 </playlist>
 <producer id="black_track" in="00:00:00.000" out="01:27:38.533">
  <property name="length">2147483647</property>
  <property name="eof">continue</property>
  <property name="resource">black</property>
  <property name="aspect_ratio">1</property>
  <property name="mlt_service">color</property>
  <property name="mlt_image_format">rgba</property>
  <property name="set.test_audio">0</property>
 </producer>
 <playlist id="playlist0">
  <property name="kdenlive:audio_track">1</property>
 </playlist>
 <playlist id="playlist1">
  <property name="kdenlive:audio_track">1</property>
 </playlist>
 <tractor id="tractor0" in="00:00:00.000">
  <property name="kdenlive:audio_track">1</property>
  <property name="kdenlive:trackheight">67</property>
  <property name="kdenlive:timeline_active">1</property>
  <property name="kdenlive:collapsed">0</property>
  <property name="kdenlive:thumbs_format"/>
  <property name="kdenlive:audio_rec"/>
  <track hide="video" producer="playlist0"/>
  <track hide="video" producer="playlist1"/>
  <filter id="filter3">
   <property name="window">75</property>
   <property name="max_gain">20dB</property>
   <property name="mlt_service">volume</property>
   <property name="internal_added">237</property>
   <property name="disable">1</property>
  </filter>
  <filter id="filter4">
   <property name="channel">-1</property>
   <property name="mlt_service">panner</property>
   <property name="internal_added">237</property>
   <property name="start">0.5</property>
   <property name="disable">1</property>
  </filter>
  <filter id="filter5">
   <property name="iec_scale">0</property>
   <property name="mlt_service">audiolevel</property>
   <property name="dbpeak">1</property>
   <property name="disable">1</property>
  </filter>
 </tractor>
 <playlist id="playlist2">
  <property name="kdenlive:audio_track">1</property>
 </playlist>
 <playlist id="playlist3">
  <property name="kdenlive:audio_track">1</property>
 </playlist>
 <tractor id="tractor1" in="00:00:00.000">
  <property name="kdenlive:audio_track">1</property>
  <property name="kdenlive:trackheight">67</property>
  <property name="kdenlive:timeline_active">1</property>
  <property name="kdenlive:collapsed">0</property>
  <property name="kdenlive:thumbs_format"/>
  <property name="kdenlive:audio_rec"/>
  <track hide="video" producer="playlist2"/>
  <track hide="video" producer="playlist3"/>
  <filter id="filter6">
   <property name="window">75</property>
   <property name="max_gain">20dB</property>
   <property name="mlt_service">volume</property>
   <property name="internal_added">237</property>
   <property name="disable">1</property>
  </filter>
  <filter id="filter7">
   <property name="channel">-1</property>
   <property name="mlt_service">panner</property>
   <property name="internal_added">237</property>
   <property name="start">0.5</property>
   <property name="disable">1</property>
  </filter>
  <filter id="filter8">
   <property name="iec_scale">0</property>
   <property name="mlt_service">audiolevel</property>
   <property name="dbpeak">1</property>
   <property name="disable">1</property>
  </filter>
 </tractor>
 <producer id="producer78" in="00:00:00.000" out="00:24:20.733">
  <property name="length">43823</property>
  <property name="eof">pause</property>
  <property name="resource">clips/01 CAD audio.mkv</property>
  <property name="audio_index">1</property>
  <property name="video_index">0</property>
  <property name="mute_on_pause">0</property>
  <property name="mlt_service">avformat-novalidate</property>
  <property name="meta.media.nb_streams">2</property>
  <property name="meta.media.0.stream.type">video</property>
  <property name="meta.media.0.stream.frame_rate">30</property>
  <property name="meta.media.0.stream.sample_aspect_ratio">0</property>
  <property name="meta.media.0.codec.width">1280</property>
  <property name="meta.media.0.codec.height">720</property>
  <property name="meta.media.0.codec.rotate">0</property>
  <property name="meta.media.0.codec.pix_fmt">yuv420p</property>
  <property name="meta.media.0.codec.sample_aspect_ratio">1</property>
  <property name="meta.media.0.codec.colorspace">709</property>
  <property name="meta.media.0.codec.color_trc">1</property>
  <property name="meta.media.0.codec.name">h264</property>
  <property name="meta.media.0.codec.long_name">H.264 / AVC / MPEG-4 AVC / MPEG-4 part 10</property>
  <property name="meta.media.0.codec.bit_rate">0</property>
  <property name="meta.attr.0.stream.DURATION.markup">00:24:20.766000000</property>
  <property name="meta.media.1.stream.type">audio</property>
  <property name="meta.media.1.codec.sample_fmt">fltp</property>
  <property name="meta.media.1.codec.sample_rate">48000</property>
  <property name="meta.media.1.codec.channels">2</property>
  <property name="meta.media.1.codec.name">aac</property>
  <property name="meta.media.1.codec.long_name">AAC (Advanced Audio Coding)</property>
  <property name="meta.media.1.codec.bit_rate">0</property>
  <property name="meta.attr.1.stream.title.markup">Track1</property>
  <property name="meta.attr.1.stream.DURATION.markup">00:24:20.608000000</property>
  <property name="meta.attr.ENCODER.markup">Lavf58.76.100</property>
  <property name="seekable">1</property>
  <property name="meta.media.sample_aspect_num">1</property>
  <property name="meta.media.sample_aspect_den">1</property>
  <property name="aspect_ratio">1</property>
  <property name="format">3</property>
  <property name="kdenlive:clipname"/>
  <property name="kdenlive:clip_type">0</property>
  <property name="kdenlive:folderid">-1</property>
  <property name="kdenlive:id">2</property>
  <property name="kdenlive:file_size">486506479</property>
  <property name="kdenlive:file_hash">51d88c746da7879822eea9d20c5972e1</property>
  <property name="kdenlive:audio_max1">234</property>
  <property name="xml">was here</property>
  <property name="meta.media.frame_rate_num">30</property>
  <property name="meta.media.frame_rate_den">1</property>
  <property name="meta.media.colorspace">709</property>
  <property name="meta.media.color_trc">1</property>
  <property name="meta.media.has_b_frames">2</property>
  <property name="meta.media.width">1280</property>
  <property name="meta.media.height">720</property>
  <property name="meta.media.color_range">mpeg</property>
  <property name="meta.media.top_field_first">0</property>
  <property name="meta.media.progressive">1</property>
  <property name="set.test_audio">0</property>
  <property name="set.test_image">1</property>
 </producer>
 <producer id="producer79" in="00:00:00.000" out="00:09:14.400">
  <property name="length">16633</property>
  <property name="eof">pause</property>
  <property name="resource">clips/02 Setup audio.mkv</property>
  <property name="audio_index">1</property>
  <property name="video_index">0</property>
  <property name="mute_on_pause">0</property>
  <property name="mlt_service">avformat-novalidate</property>
  <property name="meta.media.nb_streams">2</property>
  <property name="meta.media.0.stream.type">video</property>
  <property name="meta.media.0.stream.frame_rate">30</property>
  <property name="meta.media.0.stream.sample_aspect_ratio">0</property>
  <property name="meta.media.0.codec.width">1280</property>
  <property name="meta.media.0.codec.height">720</property>
  <property name="meta.media.0.codec.rotate">0</property>
  <property name="meta.media.0.codec.pix_fmt">yuv420p</property>
  <property name="meta.media.0.codec.sample_aspect_ratio">1</property>
  <property name="meta.media.0.codec.colorspace">709</property>
  <property name="meta.media.0.codec.color_trc">1</property>
  <property name="meta.media.0.codec.name">h264</property>
  <property name="meta.media.0.codec.long_name">H.264 / AVC / MPEG-4 AVC / MPEG-4 part 10</property>
  <property name="meta.media.0.codec.bit_rate">0</property>
  <property name="meta.attr.0.stream.DURATION.markup">00:09:14.433000000</property>
  <property name="meta.media.1.stream.type">audio</property>
  <property name="meta.media.1.codec.sample_fmt">fltp</property>
  <property name="meta.media.1.codec.sample_rate">48000</property>
  <property name="meta.media.1.codec.channels">2</property>
  <property name="meta.media.1.codec.name">aac</property>
  <property name="meta.media.1.codec.long_name">AAC (Advanced Audio Coding)</property>
  <property name="meta.media.1.codec.bit_rate">0</property>
  <property name="meta.attr.1.stream.title.markup">Track1</property>
  <property name="meta.attr.1.stream.DURATION.markup">00:09:14.304000000</property>
  <property name="meta.attr.ENCODER.markup">Lavf58.76.100</property>
  <property name="seekable">1</property>
  <property name="meta.media.sample_aspect_num">1</property>
  <property name="meta.media.sample_aspect_den">1</property>
  <property name="aspect_ratio">1</property>
  <property name="format">3</property>
  <property name="kdenlive:clipname"/>
  <property name="kdenlive:clip_type">0</property>
  <property name="kdenlive:folderid">-1</property>
  <property name="kdenlive:id">5</property>
  <property name="kdenlive:file_size">184665858</property>
  <property name="kdenlive:file_hash">d245c29173e458c43a90e2f4ad3837df</property>
  <property name="kdenlive:audio_max1">174</property>
  <property name="xml">was here</property>
  <property name="meta.media.frame_rate_num">30</property>
  <property name="meta.media.frame_rate_den">1</property>
  <property name="meta.media.colorspace">709</property>
  <property name="meta.media.color_trc">1</property>
  <property name="meta.media.has_b_frames">2</property>
  <property name="meta.media.width">1280</property>
  <property name="meta.media.height">720</property>
  <property name="meta.media.color_range">mpeg</property>
  <property name="meta.media.top_field_first">0</property>
  <property name="meta.media.progressive">1</property>
  <property name="set.test_audio">0</property>
  <property name="set.test_image">1</property>
 </producer>
 <producer id="producer80" in="00:00:00.000" out="00:33:34.467">
  <property name="length">60435</property>
  <property name="eof">pause</property>
  <property name="resource">clips/03.0 Shapes audio.mkv</property>
  <property name="audio_index">1</property>
  <property name="video_index">0</property>
  <property name="mute_on_pause">0</property>
  <property name="mlt_service">avformat-novalidate</property>
  <property name="seekable">1</property>
  <property name="aspect_ratio">1</property>
  <property name="format">3</property>
  <property name="kdenlive:clipname"/>
  <property name="kdenlive:clip_type">0</property>
  <property name="kdenlive:folderid">-1</property>
  <property name="kdenlive:id">17</property>
  <property name="kdenlive:file_size">670937459</property>
  <property name="kdenlive:file_hash">9232b3e4eaabc82f43fd1c7f483307b0</property>
  <property name="kdenlive:audio_max1">213</property>
  <property name="xml">was here</property>
  <property name="meta.media.nb_streams">2</property>
  <property name="meta.media.0.stream.type">video</property>
  <property name="meta.media.0.stream.frame_rate">30</property>
  <property name="meta.media.0.stream.sample_aspect_ratio">0</property>
  <property name="meta.media.0.codec.width">1280</property>
  <property name="meta.media.0.codec.height">720</property>
  <property name="meta.media.0.codec.rotate">0</property>
  <property name="meta.media.0.codec.pix_fmt">yuv420p</property>
  <property name="meta.media.0.codec.sample_aspect_ratio">1</property>
  <property name="meta.media.0.codec.colorspace">709</property>
  <property name="meta.media.0.codec.color_trc">1</property>
  <property name="meta.media.0.codec.name">h264</property>
  <property name="meta.media.0.codec.long_name">H.264 / AVC / MPEG-4 AVC / MPEG-4 part 10</property>
  <property name="meta.media.0.codec.bit_rate">0</property>
  <property name="meta.attr.0.stream.DURATION.markup">00:33:34.500000000</property>
  <property name="meta.media.1.stream.type">audio</property>
  <property name="meta.media.1.codec.sample_fmt">fltp</property>
  <property name="meta.media.1.codec.sample_rate">48000</property>
  <property name="meta.media.1.codec.channels">2</property>
  <property name="meta.media.1.codec.name">aac</property>
  <property name="meta.media.1.codec.long_name">AAC (Advanced Audio Coding)</property>
  <property name="meta.media.1.codec.bit_rate">0</property>
  <property name="meta.attr.1.stream.title.markup">Track1</property>
  <property name="meta.attr.1.stream.DURATION.markup">00:33:34.442000000</property>
  <property name="meta.attr.ENCODER.markup">Lavf58.76.100</property>
  <property name="meta.media.sample_aspect_num">1</property>
  <property name="meta.media.sample_aspect_den">1</property>
  <property name="meta.media.frame_rate_num">30</property>
  <property name="meta.media.frame_rate_den">1</property>
  <property name="meta.media.colorspace">709</property>
  <property name="meta.media.color_trc">1</property>
  <property name="meta.media.has_b_frames">2</property>
  <property name="meta.media.width">1280</property>
  <property name="meta.media.height">720</property>
  <property name="meta.media.color_range">mpeg</property>
  <property name="meta.media.top_field_first">0</property>
  <property name="meta.media.progressive">1</property>
  <property name="set.test_audio">0</property>
  <property name="set.test_image">1</property>
 </producer>
 <producer id="producer81" in="00:00:00.000" out="00:08:18.800">
  <property name="length">14965</property>
  <property name="eof">pause</property>
  <property name="resource">clips/04.0 examples audio.mkv</property>
  <property name="audio_index">1</property>
  <property name="video_index">0</property>
  <property name="mute_on_pause">0</property>
  <property name="mlt_service">avformat-novalidate</property>
  <property name="meta.media.nb_streams">2</property>
  <property name="meta.media.0.stream.type">video</property>
  <property name="meta.media.0.stream.frame_rate">30</property>
  <property name="meta.media.0.stream.sample_aspect_ratio">0</property>
  <property name="meta.media.0.codec.width">1280</property>
  <property name="meta.media.0.codec.height">720</property>
  <property name="meta.media.0.codec.rotate">0</property>
  <property name="meta.media.0.codec.pix_fmt">yuv420p</property>
  <property name="meta.media.0.codec.sample_aspect_ratio">1</property>
  <property name="meta.media.0.codec.colorspace">709</property>
  <property name="meta.media.0.codec.color_trc">1</property>
  <property name="meta.media.0.codec.name">h264</property>
  <property name="meta.media.0.codec.long_name">H.264 / AVC / MPEG-4 AVC / MPEG-4 part 10</property>
  <property name="meta.media.0.codec.bit_rate">0</property>
  <property name="meta.attr.0.stream.DURATION.markup">00:08:18.833000000</property>
  <property name="meta.media.1.stream.type">audio</property>
  <property name="meta.media.1.codec.sample_fmt">fltp</property>
  <property name="meta.media.1.codec.sample_rate">48000</property>
  <property name="meta.media.1.codec.channels">2</property>
  <property name="meta.media.1.codec.name">aac</property>
  <property name="meta.media.1.codec.long_name">AAC (Advanced Audio Coding)</property>
  <property name="meta.media.1.codec.bit_rate">0</property>
  <property name="meta.attr.1.stream.title.markup">Track1</property>
  <property name="meta.attr.1.stream.DURATION.markup">00:08:18.666000000</property>
  <property name="meta.attr.ENCODER.markup">Lavf58.76.100</property>
  <property name="seekable">1</property>
  <property name="meta.media.sample_aspect_num">1</property>
  <property name="meta.media.sample_aspect_den">1</property>
  <property name="aspect_ratio">1</property>
  <property name="format">3</property>
  <property name="kdenlive:clipname"/>
  <property name="kdenlive:clip_type">0</property>
  <property name="kdenlive:folderid">-1</property>
  <property name="kdenlive:id">8</property>
  <property name="kdenlive:file_size">166196431</property>
  <property name="kdenlive:file_hash">154550b3169f03cb423d9ba991480391</property>
  <property name="kdenlive:audio_max1">195</property>
  <property name="xml">was here</property>
  <property name="meta.media.frame_rate_num">30</property>
  <property name="meta.media.frame_rate_den">1</property>
  <property name="meta.media.colorspace">709</property>
  <property name="meta.media.color_trc">1</property>
  <property name="meta.media.has_b_frames">2</property>
  <property name="meta.media.width">1280</property>
  <property name="meta.media.height">720</property>
  <property name="meta.media.color_range">mpeg</property>
  <property name="meta.media.top_field_first">0</property>
  <property name="meta.media.progressive">1</property>
  <property name="set.test_audio">0</property>
  <property name="set.test_image">1</property>
 </producer>
 <producer id="producer82" in="00:00:00.000" out="00:14:21.900">
  <property name="length">25858</property>
  <property name="eof">pause</property>
  <property name="resource">clips/04.1 example garden acre audio.mkv</property>
  <property name="audio_index">1</property>
  <property name="video_index">0</property>
  <property name="mute_on_pause">0</property>
  <property name="mlt_service">avformat-novalidate</property>
  <property name="meta.media.nb_streams">2</property>
  <property name="meta.media.0.stream.type">video</property>
  <property name="meta.media.0.stream.frame_rate">30</property>
  <property name="meta.media.0.stream.sample_aspect_ratio">0</property>
  <property name="meta.media.0.codec.width">1280</property>
  <property name="meta.media.0.codec.height">720</property>
  <property name="meta.media.0.codec.rotate">0</property>
  <property name="meta.media.0.codec.pix_fmt">yuv420p</property>
  <property name="meta.media.0.codec.sample_aspect_ratio">1</property>
  <property name="meta.media.0.codec.colorspace">709</property>
  <property name="meta.media.0.codec.color_trc">1</property>
  <property name="meta.media.0.codec.name">h264</property>
  <property name="meta.media.0.codec.long_name">H.264 / AVC / MPEG-4 AVC / MPEG-4 part 10</property>
  <property name="meta.media.0.codec.bit_rate">0</property>
  <property name="meta.attr.0.stream.DURATION.markup">00:14:21.933000000</property>
  <property name="meta.media.1.stream.type">audio</property>
  <property name="meta.media.1.codec.sample_fmt">fltp</property>
  <property name="meta.media.1.codec.sample_rate">48000</property>
  <property name="meta.media.1.codec.channels">2</property>
  <property name="meta.media.1.codec.name">aac</property>
  <property name="meta.media.1.codec.long_name">AAC (Advanced Audio Coding)</property>
  <property name="meta.media.1.codec.bit_rate">0</property>
  <property name="meta.attr.1.stream.title.markup">Track1</property>
  <property name="meta.attr.1.stream.DURATION.markup">00:14:21.802000000</property>
  <property name="meta.attr.ENCODER.markup">Lavf58.76.100</property>
  <property name="seekable">1</property>
  <property name="meta.media.sample_aspect_num">1</property>
  <property name="meta.media.sample_aspect_den">1</property>
  <property name="aspect_ratio">1</property>
  <property name="format">3</property>
  <property name="kdenlive:clipname"/>
  <property name="kdenlive:clip_type">0</property>
  <property name="kdenlive:folderid">-1</property>
  <property name="kdenlive:id">11</property>
  <property name="kdenlive:file_size">287055648</property>
  <property name="kdenlive:file_hash">ead8c19ddf4d7ef6f6e1d421a7606b2a</property>
  <property name="kdenlive:audio_max1">236</property>
  <property name="xml">was here</property>
  <property name="meta.media.frame_rate_num">30</property>
  <property name="meta.media.frame_rate_den">1</property>
  <property name="meta.media.colorspace">709</property>
  <property name="meta.media.color_trc">1</property>
  <property name="meta.media.has_b_frames">2</property>
  <property name="meta.media.width">1280</property>
  <property name="meta.media.height">720</property>
  <property name="meta.media.color_range">mpeg</property>
  <property name="meta.media.top_field_first">0</property>
  <property name="meta.media.progressive">1</property>
  <property name="set.test_audio">0</property>
  <property name="set.test_image">1</property>
 </producer>
 <producer id="producer83" in="00:00:00.000" out="00:01:41.333">
  <property name="length">3041</property>
  <property name="eof">pause</property>
  <property name="resource">clips/04.1 template audio.mkv</property>
  <property name="audio_index">1</property>
  <property name="video_index">0</property>
  <property name="mute_on_pause">0</property>
  <property name="mlt_service">avformat-novalidate</property>
  <property name="seekable">1</property>
  <property name="aspect_ratio">1</property>
  <property name="format">3</property>
  <property name="kdenlive:clipname"/>
  <property name="kdenlive:clip_type">0</property>
  <property name="kdenlive:folderid">31</property>
  <property name="kdenlive:id">75</property>
  <property name="kdenlive:file_size">33789859</property>
  <property name="kdenlive:file_hash">d79bbbd77f25f90382cbc054b0582bd1</property>
  <property name="kdenlive:audio_max1">162</property>
  <property name="xml">was here</property>
  <property name="meta.media.nb_streams">2</property>
  <property name="meta.media.0.stream.type">video</property>
  <property name="meta.media.0.stream.frame_rate">30</property>
  <property name="meta.media.0.stream.sample_aspect_ratio">0</property>
  <property name="meta.media.0.codec.width">1280</property>
  <property name="meta.media.0.codec.height">720</property>
  <property name="meta.media.0.codec.rotate">0</property>
  <property name="meta.media.0.codec.pix_fmt">yuv420p</property>
  <property name="meta.media.0.codec.sample_aspect_ratio">1</property>
  <property name="meta.media.0.codec.colorspace">709</property>
  <property name="meta.media.0.codec.color_trc">1</property>
  <property name="meta.media.0.codec.name">h264</property>
  <property name="meta.media.0.codec.long_name">H.264 / AVC / MPEG-4 AVC / MPEG-4 part 10</property>
  <property name="meta.media.0.codec.bit_rate">0</property>
  <property name="meta.attr.0.stream.DURATION.markup">00:01:41.366000000</property>
  <property name="meta.media.1.stream.type">audio</property>
  <property name="meta.media.1.codec.sample_fmt">fltp</property>
  <property name="meta.media.1.codec.sample_rate">48000</property>
  <property name="meta.media.1.codec.channels">2</property>
  <property name="meta.media.1.codec.name">aac</property>
  <property name="meta.media.1.codec.long_name">AAC (Advanced Audio Coding)</property>
  <property name="meta.media.1.codec.bit_rate">0</property>
  <property name="meta.attr.1.stream.title.markup">Track1</property>
  <property name="meta.attr.1.stream.DURATION.markup">00:01:41.248000000</property>
  <property name="meta.attr.ENCODER.markup">Lavf58.76.100</property>
  <property name="meta.media.sample_aspect_num">1</property>
  <property name="meta.media.sample_aspect_den">1</property>
  <property name="meta.media.frame_rate_num">30</property>
  <property name="meta.media.frame_rate_den">1</property>
  <property name="meta.media.colorspace">709</property>
  <property name="meta.media.color_trc">1</property>
  <property name="meta.media.has_b_frames">2</property>
  <property name="meta.media.width">1280</property>
  <property name="meta.media.height">720</property>
  <property name="meta.media.color_range">mpeg</property>
  <property name="meta.media.top_field_first">0</property>
  <property name="meta.media.progressive">1</property>
  <property name="set.test_audio">0</property>
  <property name="set.test_image">1</property>
 </producer>
 <producer id="producer84" in="00:00:00.000" out="00:10:10.967">
  <property name="length">18330</property>
  <property name="eof">pause</property>
  <property name="resource">clips/04.2 example garden town audio.mkv</property>
  <property name="audio_index">1</property>
  <property name="video_index">0</property>
  <property name="mute_on_pause">0</property>
  <property name="mlt_service">avformat-novalidate</property>
  <property name="seekable">1</property>
  <property name="aspect_ratio">1</property>
  <property name="format">3</property>
  <property name="kdenlive:clipname"/>
  <property name="kdenlive:clip_type">0</property>
  <property name="kdenlive:folderid">31</property>
  <property name="kdenlive:id">14</property>
  <property name="kdenlive:file_size">203563039</property>
  <property name="kdenlive:file_hash">fb7491cb2e24e46be72e358a485ba419</property>
  <property name="kdenlive:audio_max1">193</property>
  <property name="xml">was here</property>
  <property name="meta.media.nb_streams">2</property>
  <property name="meta.media.0.stream.type">video</property>
  <property name="meta.media.0.stream.frame_rate">30</property>
  <property name="meta.media.0.stream.sample_aspect_ratio">0</property>
  <property name="meta.media.0.codec.width">1280</property>
  <property name="meta.media.0.codec.height">720</property>
  <property name="meta.media.0.codec.rotate">0</property>
  <property name="meta.media.0.codec.pix_fmt">yuv420p</property>
  <property name="meta.media.0.codec.sample_aspect_ratio">1</property>
  <property name="meta.media.0.codec.colorspace">709</property>
  <property name="meta.media.0.codec.color_trc">1</property>
  <property name="meta.media.0.codec.name">h264</property>
  <property name="meta.media.0.codec.long_name">H.264 / AVC / MPEG-4 AVC / MPEG-4 part 10</property>
  <property name="meta.media.0.codec.bit_rate">0</property>
  <property name="meta.attr.0.stream.DURATION.markup">00:10:11.000000000</property>
  <property name="meta.media.1.stream.type">audio</property>
  <property name="meta.media.1.codec.sample_fmt">fltp</property>
  <property name="meta.media.1.codec.sample_rate">48000</property>
  <property name="meta.media.1.codec.channels">2</property>
  <property name="meta.media.1.codec.name">aac</property>
  <property name="meta.media.1.codec.long_name">AAC (Advanced Audio Coding)</property>
  <property name="meta.media.1.codec.bit_rate">0</property>
  <property name="meta.attr.1.stream.title.markup">Track1</property>
  <property name="meta.attr.1.stream.DURATION.markup">00:10:10.944000000</property>
  <property name="meta.attr.ENCODER.markup">Lavf58.76.100</property>
  <property name="meta.media.sample_aspect_num">1</property>
  <property name="meta.media.sample_aspect_den">1</property>
  <property name="meta.media.frame_rate_num">30</property>
  <property name="meta.media.frame_rate_den">1</property>
  <property name="meta.media.colorspace">709</property>
  <property name="meta.media.color_trc">1</property>
  <property name="meta.media.has_b_frames">2</property>
  <property name="meta.media.width">1280</property>
  <property name="meta.media.height">720</property>
  <property name="meta.media.color_range">mpeg</property>
  <property name="meta.media.top_field_first">0</property>
  <property name="meta.media.progressive">1</property>
  <property name="set.test_audio">0</property>
  <property name="set.test_image">1</property>
 </producer>
 <playlist id="playlist4">
  <property name="kdenlive:audio_track">1</property>
  <entry producer="producer78" in="00:00:06.400" out="00:00:50.967">
   <property name="kdenlive:id">2</property>
  </entry>
  <entry producer="producer78" in="00:00:53.033" out="00:00:58.467">
   <property name="kdenlive:id">2</property>
  </entry>
  <entry producer="producer78" in="00:01:00.167" out="00:01:08.533">
   <property name="kdenlive:id">2</property>
  </entry>
  <entry producer="producer78" in="00:01:10.700" out="00:01:53.167">
   <property name="kdenlive:id">2</property>
  </entry>
  <entry producer="producer78" in="00:01:54.333" out="00:01:58.900">
   <property name="kdenlive:id">2</property>
  </entry>
  <entry producer="producer78" in="00:02:00.800" out="00:02:14.033">
   <property name="kdenlive:id">2</property>
  </entry>
  <entry producer="producer78" in="00:02:16.100" out="00:02:21.333">
   <property name="kdenlive:id">2</property>
  </entry>
  <entry producer="producer78" in="00:02:22.533" out="00:02:39.667">
   <property name="kdenlive:id">2</property>
  </entry>
  <entry producer="producer78" in="00:02:41.200" out="00:02:51.600">
   <property name="kdenlive:id">2</property>
  </entry>
  <entry producer="producer78" in="00:02:52.133" out="00:02:55.267">
   <property name="kdenlive:id">2</property>
  </entry>
  <entry producer="producer78" in="00:02:57.233" out="00:03:25.633">
   <property name="kdenlive:id">2</property>
  </entry>
  <entry producer="producer78" in="00:03:26.700" out="00:03:49.067">
   <property name="kdenlive:id">2</property>
  </entry>
  <entry producer="producer78" in="00:03:49.867" out="00:03:57.267">
   <property name="kdenlive:id">2</property>
  </entry>
  <entry producer="producer78" in="00:04:05.267" out="00:04:09.067">
   <property name="kdenlive:id">2</property>
  </entry>
  <entry producer="producer78" in="00:05:48.400" out="00:06:14.967">
   <property name="kdenlive:id">2</property>
  </entry>
  <entry producer="producer78" in="00:06:16.200" out="00:06:41.767">
   <property name="kdenlive:id">2</property>
  </entry>
  <entry producer="producer78" in="00:06:44.300" out="00:06:55.167">
   <property name="kdenlive:id">2</property>
  </entry>
  <entry producer="producer78" in="00:06:57.233" out="00:07:00.933">
   <property name="kdenlive:id">2</property>
  </entry>
  <entry producer="producer78" in="00:07:02.067" out="00:07:26.000">
   <property name="kdenlive:id">2</property>
  </entry>
  <entry producer="producer78" in="00:07:30.133" out="00:07:42.800">
   <property name="kdenlive:id">2</property>
  </entry>
  <entry producer="producer78" in="00:07:43.667" out="00:08:00.400">
   <property name="kdenlive:id">2</property>
  </entry>
  <entry producer="producer78" in="00:08:02.367" out="00:08:13.833">
   <property name="kdenlive:id">2</property>
  </entry>
  <entry producer="producer78" in="00:09:50.733" out="00:10:37.900">
   <property name="kdenlive:id">2</property>
  </entry>
  <entry producer="producer78" in="00:10:39.700" out="00:10:45.867">
   <property name="kdenlive:id">2</property>
  </entry>
  <entry producer="producer78" in="00:12:37.167" out="00:14:40.267">
   <property name="kdenlive:id">2</property>
  </entry>
  <entry producer="producer78" in="00:16:21.667" out="00:17:32.800">
   <property name="kdenlive:id">2</property>
  </entry>
  <entry producer="producer78" in="00:17:57.267" out="00:18:26.933">
   <property name="kdenlive:id">2</property>
  </entry>
  <entry producer="producer78" in="00:18:28.967" out="00:19:10.733">
   <property name="kdenlive:id">2</property>
  </entry>
  <entry producer="producer78" in="00:19:45.333" out="00:20:45.367">
   <property name="kdenlive:id">2</property>
  </entry>
  <entry producer="producer78" in="00:22:10.933" out="00:23:22.333">
   <property name="kdenlive:id">2</property>
  </entry>
  <entry producer="producer78" in="00:23:23.767" out="00:23:40.833">
   <property name="kdenlive:id">2</property>
  </entry>
  <entry producer="producer78" in="00:23:42.100" out="00:24:06.100">
   <property name="kdenlive:id">2</property>
  </entry>
  <entry producer="producer79" in="00:00:03.133" out="00:01:38.767">
   <property name="kdenlive:id">5</property>
  </entry>
  <entry producer="producer79" in="00:01:42.667" out="00:02:11.200">
   <property name="kdenlive:id">5</property>
  </entry>
  <entry producer="producer79" in="00:02:19.933" out="00:02:31.367">
   <property name="kdenlive:id">5</property>
  </entry>
  <entry producer="producer79" in="00:02:33.100" out="00:02:42.267">
   <property name="kdenlive:id">5</property>
  </entry>
  <entry producer="producer79" in="00:02:44.500" out="00:02:48.200">
   <property name="kdenlive:id">5</property>
  </entry>
  <entry producer="producer79" in="00:03:02.833" out="00:03:19.733">
   <property name="kdenlive:id">5</property>
  </entry>
  <entry producer="producer79" in="00:03:26.167" out="00:03:44.867">
   <property name="kdenlive:id">5</property>
  </entry>
  <entry producer="producer79" in="00:03:47.267" out="00:03:49.233">
   <property name="kdenlive:id">5</property>
  </entry>
  <entry producer="producer79" in="00:03:59.833" out="00:04:10.667">
   <property name="kdenlive:id">5</property>
  </entry>
  <entry producer="producer79" in="00:04:19.367" out="00:04:23.533">
   <property name="kdenlive:id">5</property>
  </entry>
  <entry producer="producer79" in="00:04:26.800" out="00:04:28.367">
   <property name="kdenlive:id">5</property>
  </entry>
  <entry producer="producer79" in="00:04:31.233" out="00:04:41.300">
   <property name="kdenlive:id">5</property>
  </entry>
  <entry producer="producer79" in="00:04:58.033" out="00:05:16.800">
   <property name="kdenlive:id">5</property>
  </entry>
  <entry producer="producer79" in="00:05:38.867" out="00:05:40.300">
   <property name="kdenlive:id">5</property>
  </entry>
  <entry producer="producer79" in="00:05:42.833" out="00:05:47.233">
   <property name="kdenlive:id">5</property>
  </entry>
  <entry producer="producer79" in="00:05:49.567" out="00:05:52.100">
   <property name="kdenlive:id">5</property>
  </entry>
  <entry producer="producer79" in="00:06:01.167" out="00:06:04.933">
   <property name="kdenlive:id">5</property>
  </entry>
  <entry producer="producer79" in="00:06:05.700" out="00:06:11.867">
   <property name="kdenlive:id">5</property>
  </entry>
  <entry producer="producer79" in="00:06:13.333" out="00:06:14.700">
   <property name="kdenlive:id">5</property>
  </entry>
  <entry producer="producer79" in="00:07:09.567" out="00:07:12.533">
   <property name="kdenlive:id">5</property>
  </entry>
  <entry producer="producer79" in="00:07:13.467" out="00:07:50.900">
   <property name="kdenlive:id">5</property>
  </entry>
  <entry producer="producer79" in="00:08:00.767" out="00:08:08.000">
   <property name="kdenlive:id">5</property>
  </entry>
  <entry producer="producer79" in="00:08:08.867" out="00:08:53.133">
   <property name="kdenlive:id">5</property>
  </entry>
  <entry producer="producer79" in="00:08:57.067" out="00:09:09.233">
   <property name="kdenlive:id">5</property>
  </entry>
  <entry producer="producer80" in="00:00:02.533" out="00:00:32.067">
   <property name="kdenlive:id">17</property>
  </entry>
  <entry producer="producer80" in="00:00:36.433" out="00:00:38.200">
   <property name="kdenlive:id">17</property>
  </entry>
  <entry producer="producer80" in="00:00:39.267" out="00:03:28.667">
   <property name="kdenlive:id">17</property>
  </entry>
  <entry producer="producer80" in="00:03:32.300" out="00:04:24.633">
   <property name="kdenlive:id">17</property>
  </entry>
  <entry producer="producer80" in="00:04:39.000" out="00:04:57.800">
   <property name="kdenlive:id">17</property>
  </entry>
  <entry producer="producer80" in="00:04:59.333" out="00:05:07.200">
   <property name="kdenlive:id">17</property>
  </entry>
  <entry producer="producer80" in="00:05:11.067" out="00:05:16.533">
   <property name="kdenlive:id">17</property>
  </entry>
  <entry producer="producer80" in="00:05:18.700" out="00:05:21.933">
   <property name="kdenlive:id">17</property>
  </entry>
  <entry producer="producer80" in="00:05:28.033" out="00:05:40.333">
   <property name="kdenlive:id">17</property>
  </entry>
  <entry producer="producer80" in="00:05:53.500" out="00:05:58.267">
   <property name="kdenlive:id">17</property>
  </entry>
  <entry producer="producer80" in="00:05:59.500" out="00:09:09.300">
   <property name="kdenlive:id">17</property>
  </entry>
  <entry producer="producer80" in="00:09:13.933" out="00:09:23.667">
   <property name="kdenlive:id">17</property>
  </entry>
  <entry producer="producer80" in="00:09:25.167" out="00:09:28.833">
   <property name="kdenlive:id">17</property>
  </entry>
  <entry producer="producer80" in="00:09:44.433" out="00:10:23.867">
   <property name="kdenlive:id">17</property>
  </entry>
  <entry producer="producer80" in="00:10:35.167" out="00:10:55.500">
   <property name="kdenlive:id">17</property>
  </entry>
  <entry producer="producer80" in="00:10:56.633" out="00:11:07.833">
   <property name="kdenlive:id">17</property>
  </entry>
  <entry producer="producer80" in="00:11:10.433" out="00:13:34.133">
   <property name="kdenlive:id">17</property>
  </entry>
  <entry producer="producer80" in="00:14:42.500" out="00:14:55.200">
   <property name="kdenlive:id">17</property>
  </entry>
  <entry producer="producer80" in="00:15:17.367" out="00:15:34.867">
   <property name="kdenlive:id">17</property>
  </entry>
  <entry producer="producer80" in="00:15:38.133" out="00:21:01.500">
   <property name="kdenlive:id">17</property>
  </entry>
  <entry producer="producer80" in="00:21:03.700" out="00:21:21.700">
   <property name="kdenlive:id">17</property>
  </entry>
  <entry producer="producer80" in="00:22:09.067" out="00:22:13.167">
   <property name="kdenlive:id">17</property>
  </entry>
  <entry producer="producer80" in="00:24:36.767" out="00:24:56.500">
   <property name="kdenlive:id">17</property>
  </entry>
  <entry producer="producer80" in="00:24:59.300" out="00:25:19.733">
   <property name="kdenlive:id">17</property>
  </entry>
  <entry producer="producer80" in="00:25:24.133" out="00:25:33.400">
   <property name="kdenlive:id">17</property>
  </entry>
  <entry producer="producer80" in="00:25:34.633" out="00:25:35.700">
   <property name="kdenlive:id">17</property>
  </entry>
  <entry producer="producer80" in="00:25:37.600" out="00:26:08.300">
   <property name="kdenlive:id">17</property>
  </entry>
  <entry producer="producer80" in="00:26:12.400" out="00:28:18.667">
   <property name="kdenlive:id">17</property>
  </entry>
  <entry producer="producer80" in="00:29:14.767" out="00:30:50.433">
   <property name="kdenlive:id">17</property>
  </entry>
  <entry producer="producer80" in="00:31:02.100" out="00:32:51.433">
   <property name="kdenlive:id">17</property>
  </entry>
  <entry producer="producer80" in="00:32:54.667" out="00:33:28.867">
   <property name="kdenlive:id">17</property>
  </entry>
  <entry producer="producer81" in="00:00:08.267" out="00:00:53.133">
   <property name="kdenlive:id">8</property>
  </entry>
  <entry producer="producer81" in="00:00:57.767" out="00:01:51.600">
   <property name="kdenlive:id">8</property>
  </entry>
  <entry producer="producer81" in="00:01:55.900" out="00:02:38.433">
   <property name="kdenlive:id">8</property>
  </entry>
  <entry producer="producer81" in="00:02:40.767" out="00:03:37.900">
   <property name="kdenlive:id">8</property>
  </entry>
  <entry producer="producer81" in="00:03:40.967" out="00:04:29.567">
   <property name="kdenlive:id">8</property>
  </entry>
  <entry producer="producer82" in="00:00:03.633" out="00:00:12.333">
   <property name="kdenlive:id">11</property>
  </entry>
  <entry producer="producer82" in="00:00:16.700" out="00:00:19.733">
   <property name="kdenlive:id">11</property>
  </entry>
  <entry producer="producer83" in="00:00:01.233" out="00:01:06.700">
   <property name="kdenlive:id">75</property>
  </entry>
  <entry producer="producer83" in="00:01:15.367" out="00:01:34.867">
   <property name="kdenlive:id">75</property>
  </entry>
  <entry producer="producer82" in="00:00:49.767" out="00:01:03.700">
   <property name="kdenlive:id">11</property>
  </entry>
  <entry producer="producer82" in="00:01:07.633" out="00:01:56.167">
   <property name="kdenlive:id">11</property>
  </entry>
  <entry producer="producer82" in="00:02:04.333" out="00:02:08.467">
   <property name="kdenlive:id">11</property>
  </entry>
  <entry producer="producer82" in="00:02:10.533" out="00:02:30.400">
   <property name="kdenlive:id">11</property>
  </entry>
  <entry producer="producer82" in="00:02:31.933" out="00:03:23.333">
   <property name="kdenlive:id">11</property>
  </entry>
  <entry producer="producer82" in="00:03:35.400" out="00:04:54.800">
   <property name="kdenlive:id">11</property>
  </entry>
  <entry producer="producer82" in="00:04:57.167" out="00:05:00.267">
   <property name="kdenlive:id">11</property>
  </entry>
  <entry producer="producer82" in="00:05:04.467" out="00:05:08.167">
   <property name="kdenlive:id">11</property>
  </entry>
  <entry producer="producer82" in="00:05:21.200" out="00:05:52.800">
   <property name="kdenlive:id">11</property>
  </entry>
  <entry producer="producer82" in="00:05:54.133" out="00:06:01.133">
   <property name="kdenlive:id">11</property>
  </entry>
  <entry producer="producer82" in="00:06:08.867" out="00:06:52.000">
   <property name="kdenlive:id">11</property>
  </entry>
  <entry producer="producer82" in="00:06:53.167" out="00:07:00.500">
   <property name="kdenlive:id">11</property>
  </entry>
  <entry producer="producer82" in="00:07:08.100" out="00:07:21.767">
   <property name="kdenlive:id">11</property>
  </entry>
  <entry producer="producer82" in="00:07:22.100" out="00:07:24.533">
   <property name="kdenlive:id">11</property>
  </entry>
  <entry producer="producer82" in="00:07:28.800" out="00:08:05.733">
   <property name="kdenlive:id">11</property>
  </entry>
  <entry producer="producer82" in="00:08:16.233" out="00:09:34.000">
   <property name="kdenlive:id">11</property>
  </entry>
  <entry producer="producer82" in="00:09:51.133" out="00:11:43.300">
   <property name="kdenlive:id">11</property>
  </entry>
  <entry producer="producer82" in="00:12:02.367" out="00:13:19.967">
   <property name="kdenlive:id">11</property>
  </entry>
  <entry producer="producer82" in="00:13:33.600" out="00:14:18.467">
   <property name="kdenlive:id">11</property>
  </entry>
  <entry producer="producer84" in="00:00:01.533" out="00:00:41.500">
   <property name="kdenlive:id">14</property>
  </entry>
  <entry producer="producer84" in="00:00:43.633" out="00:03:23.900">
   <property name="kdenlive:id">14</property>
  </entry>
  <entry producer="producer84" in="00:03:23.933" out="00:04:47.500">
   <property name="kdenlive:id">14</property>
  </entry>
  <entry producer="producer84" in="00:04:58.333" out="00:05:22.933">
   <property name="kdenlive:id">14</property>
  </entry>
  <entry producer="producer84" in="00:05:27.900" out="00:05:57.333">
   <property name="kdenlive:id">14</property>
  </entry>
  <entry producer="producer84" in="00:06:05.200" out="00:06:06.233">
   <property name="kdenlive:id">14</property>
  </entry>
  <entry producer="producer84" in="00:06:10.200" out="00:06:26.567">
   <property name="kdenlive:id">14</property>
  </entry>
  <entry producer="producer84" in="00:06:40.133" out="00:07:34.400">
   <property name="kdenlive:id">14</property>
  </entry>
  <entry producer="producer84" in="00:07:38.667" out="00:07:40.733">
   <property name="kdenlive:id">14</property>
  </entry>
  <entry producer="producer84" in="00:07:44.100" out="00:07:46.500">
   <property name="kdenlive:id">14</property>
  </entry>
  <entry producer="producer84" in="00:07:46.900" out="00:08:08.000">
   <property name="kdenlive:id">14</property>
  </entry>
  <entry producer="producer84" in="00:08:13.933" out="00:08:38.033">
   <property name="kdenlive:id">14</property>
  </entry>
  <entry producer="producer84" in="00:09:15.500" out="00:09:34.733">
   <property name="kdenlive:id">14</property>
  </entry>
  <entry producer="producer84" in="00:09:56.167" out="00:10:09.433">
   <property name="kdenlive:id">14</property>
  </entry>
 </playlist>
 <playlist id="playlist5">
  <property name="kdenlive:audio_track">1</property>
 </playlist>
 <tractor id="tractor2" in="00:00:00.000" out="01:10:58.500">
  <property name="kdenlive:audio_track">1</property>
  <property name="kdenlive:trackheight">67</property>
  <property name="kdenlive:timeline_active">1</property>
  <property name="kdenlive:collapsed">0</property>
  <property name="kdenlive:track_name">Audio</property>
  <property name="kdenlive:thumbs_format"/>
  <property name="kdenlive:audio_rec"/>
  <track hide="video" producer="playlist4"/>
  <track hide="video" producer="playlist5"/>
  <filter id="filter9">
   <property name="window">75</property>
   <property name="max_gain">20dB</property>
   <property name="mlt_service">volume</property>
   <property name="internal_added">237</property>
   <property name="disable">1</property>
  </filter>
  <filter id="filter10">
   <property name="channel">-1</property>
   <property name="mlt_service">panner</property>
   <property name="internal_added">237</property>
   <property name="start">0.5</property>
   <property name="disable">1</property>
  </filter>
  <filter id="filter11">
   <property name="iec_scale">0</property>
   <property name="mlt_service">audiolevel</property>
   <property name="dbpeak">1</property>
   <property name="disable">1</property>
  </filter>
 </tractor>
 <producer id="producer85" in="00:00:00.000" out="00:24:21.033">
  <property name="length">43832</property>
  <property name="eof">pause</property>
  <property name="resource">clips/01 CAD Desktop.mkv</property>
  <property name="audio_index">1</property>
  <property name="video_index">0</property>
  <property name="mute_on_pause">0</property>
  <property name="mlt_service">avformat-novalidate</property>
  <property name="meta.media.nb_streams">2</property>
  <property name="meta.media.0.stream.type">video</property>
  <property name="meta.media.0.stream.frame_rate">30</property>
  <property name="meta.media.0.stream.sample_aspect_ratio">0</property>
  <property name="meta.media.0.codec.width">1920</property>
  <property name="meta.media.0.codec.height">1080</property>
  <property name="meta.media.0.codec.rotate">0</property>
  <property name="meta.media.0.codec.pix_fmt">yuv420p</property>
  <property name="meta.media.0.codec.sample_aspect_ratio">1</property>
  <property name="meta.media.0.codec.colorspace">709</property>
  <property name="meta.media.0.codec.color_trc">1</property>
  <property name="meta.media.0.codec.name">h264</property>
  <property name="meta.media.0.codec.long_name">H.264 / AVC / MPEG-4 AVC / MPEG-4 part 10</property>
  <property name="meta.media.0.codec.bit_rate">0</property>
  <property name="meta.attr.0.stream.DURATION.markup">00:24:21.066000000</property>
  <property name="meta.media.1.stream.type">audio</property>
  <property name="meta.media.1.codec.sample_fmt">fltp</property>
  <property name="meta.media.1.codec.sample_rate">48000</property>
  <property name="meta.media.1.codec.channels">2</property>
  <property name="meta.media.1.codec.name">aac</property>
  <property name="meta.media.1.codec.long_name">AAC (Advanced Audio Coding)</property>
  <property name="meta.media.1.codec.bit_rate">0</property>
  <property name="meta.attr.1.stream.title.markup">Source Record</property>
  <property name="meta.attr.1.stream.DURATION.markup">00:24:21.056000000</property>
  <property name="meta.attr.ENCODER.markup">Lavf58.76.100</property>
  <property name="seekable">1</property>
  <property name="meta.media.sample_aspect_num">1</property>
  <property name="meta.media.sample_aspect_den">1</property>
  <property name="aspect_ratio">1</property>
  <property name="format">3</property>
  <property name="kdenlive:clipname"/>
  <property name="kdenlive:clip_type">0</property>
  <property name="kdenlive:folderid">-1</property>
  <property name="kdenlive:id">3</property>
  <property name="kdenlive:file_size">457735203</property>
  <property name="kdenlive:file_hash">5ea2fd1f66be5394ba4ff472605eaf2d</property>
  <property name="kdenlive:audio_max1">1</property>
  <property name="xml">was here</property>
  <property name="meta.media.frame_rate_num">30</property>
  <property name="meta.media.frame_rate_den">1</property>
  <property name="meta.media.colorspace">709</property>
  <property name="meta.media.color_trc">1</property>
  <property name="meta.media.has_b_frames">0</property>
  <property name="meta.media.width">1920</property>
  <property name="meta.media.height">1080</property>
  <property name="meta.media.color_range">mpeg</property>
  <property name="meta.media.top_field_first">0</property>
  <property name="meta.media.progressive">1</property>
  <property name="set.test_audio">1</property>
  <property name="set.test_image">0</property>
 </producer>
 <producer id="producer86" in="00:00:00.000" out="00:09:14.133">
  <property name="length">16625</property>
  <property name="eof">pause</property>
  <property name="resource">clips/02 Setup Desktop.mkv</property>
  <property name="audio_index">1</property>
  <property name="video_index">0</property>
  <property name="mute_on_pause">0</property>
  <property name="mlt_service">avformat-novalidate</property>
  <property name="meta.media.nb_streams">2</property>
  <property name="meta.media.0.stream.type">video</property>
  <property name="meta.media.0.stream.frame_rate">30</property>
  <property name="meta.media.0.stream.sample_aspect_ratio">0</property>
  <property name="meta.media.0.codec.width">1920</property>
  <property name="meta.media.0.codec.height">1080</property>
  <property name="meta.media.0.codec.rotate">0</property>
  <property name="meta.media.0.codec.pix_fmt">yuv420p</property>
  <property name="meta.media.0.codec.sample_aspect_ratio">1</property>
  <property name="meta.media.0.codec.colorspace">709</property>
  <property name="meta.media.0.codec.color_trc">1</property>
  <property name="meta.media.0.codec.name">h264</property>
  <property name="meta.media.0.codec.long_name">H.264 / AVC / MPEG-4 AVC / MPEG-4 part 10</property>
  <property name="meta.media.0.codec.bit_rate">0</property>
  <property name="meta.attr.0.stream.DURATION.markup">00:09:14.166000000</property>
  <property name="meta.media.1.stream.type">audio</property>
  <property name="meta.media.1.codec.sample_fmt">fltp</property>
  <property name="meta.media.1.codec.sample_rate">48000</property>
  <property name="meta.media.1.codec.channels">2</property>
  <property name="meta.media.1.codec.name">aac</property>
  <property name="meta.media.1.codec.long_name">AAC (Advanced Audio Coding)</property>
  <property name="meta.media.1.codec.bit_rate">0</property>
  <property name="meta.attr.1.stream.title.markup">Source Record</property>
  <property name="meta.attr.1.stream.DURATION.markup">00:09:14.133000000</property>
  <property name="meta.attr.ENCODER.markup">Lavf58.76.100</property>
  <property name="seekable">1</property>
  <property name="meta.media.sample_aspect_num">1</property>
  <property name="meta.media.sample_aspect_den">1</property>
  <property name="aspect_ratio">1</property>
  <property name="format">3</property>
  <property name="kdenlive:clipname"/>
  <property name="kdenlive:clip_type">0</property>
  <property name="kdenlive:folderid">-1</property>
  <property name="kdenlive:id">6</property>
  <property name="kdenlive:file_size">173593797</property>
  <property name="kdenlive:file_hash">69dd0610d4a97bddddb2029b4eb429d0</property>
  <property name="kdenlive:audio_max1">1</property>
  <property name="xml">was here</property>
  <property name="meta.media.frame_rate_num">30</property>
  <property name="meta.media.frame_rate_den">1</property>
  <property name="meta.media.colorspace">709</property>
  <property name="meta.media.color_trc">1</property>
  <property name="meta.media.has_b_frames">0</property>
  <property name="meta.media.width">1920</property>
  <property name="meta.media.height">1080</property>
  <property name="meta.media.color_range">mpeg</property>
  <property name="meta.media.top_field_first">0</property>
  <property name="meta.media.progressive">1</property>
  <property name="set.test_audio">1</property>
  <property name="set.test_image">0</property>
 </producer>
 <producer id="producer87" in="00:00:00.000" out="00:33:34.267">
  <property name="length">60429</property>
  <property name="eof">pause</property>
  <property name="resource">clips/03.0 Shapes desktop.mkv</property>
  <property name="audio_index">1</property>
  <property name="video_index">0</property>
  <property name="mute_on_pause">0</property>
  <property name="mlt_service">avformat-novalidate</property>
  <property name="seekable">1</property>
  <property name="aspect_ratio">1</property>
  <property name="format">3</property>
  <property name="kdenlive:clipname"/>
  <property name="kdenlive:clip_type">0</property>
  <property name="kdenlive:folderid">-1</property>
  <property name="kdenlive:id">18</property>
  <property name="kdenlive:file_size">631060129</property>
  <property name="kdenlive:file_hash">46c791aa4c2d40544ab5874183465931</property>
  <property name="kdenlive:audio_max1">0</property>
  <property name="xml">was here</property>
  <property name="meta.media.nb_streams">2</property>
  <property name="meta.media.0.stream.type">video</property>
  <property name="meta.media.0.stream.frame_rate">30</property>
  <property name="meta.media.0.stream.sample_aspect_ratio">0</property>
  <property name="meta.media.0.codec.width">1920</property>
  <property name="meta.media.0.codec.height">1080</property>
  <property name="meta.media.0.codec.rotate">0</property>
  <property name="meta.media.0.codec.pix_fmt">yuv420p</property>
  <property name="meta.media.0.codec.sample_aspect_ratio">1</property>
  <property name="meta.media.0.codec.colorspace">709</property>
  <property name="meta.media.0.codec.color_trc">1</property>
  <property name="meta.media.0.codec.name">h264</property>
  <property name="meta.media.0.codec.long_name">H.264 / AVC / MPEG-4 AVC / MPEG-4 part 10</property>
  <property name="meta.media.0.codec.bit_rate">0</property>
  <property name="meta.attr.0.stream.DURATION.markup">00:33:34.300000000</property>
  <property name="meta.media.1.stream.type">audio</property>
  <property name="meta.media.1.codec.sample_fmt">fltp</property>
  <property name="meta.media.1.codec.sample_rate">48000</property>
  <property name="meta.media.1.codec.channels">2</property>
  <property name="meta.media.1.codec.name">aac</property>
  <property name="meta.media.1.codec.long_name">AAC (Advanced Audio Coding)</property>
  <property name="meta.media.1.codec.bit_rate">0</property>
  <property name="meta.attr.1.stream.title.markup">Source Record</property>
  <property name="meta.attr.1.stream.DURATION.markup">00:33:34.272000000</property>
  <property name="meta.attr.ENCODER.markup">Lavf58.76.100</property>
  <property name="meta.media.sample_aspect_num">1</property>
  <property name="meta.media.sample_aspect_den">1</property>
  <property name="meta.media.frame_rate_num">30</property>
  <property name="meta.media.frame_rate_den">1</property>
  <property name="meta.media.colorspace">709</property>
  <property name="meta.media.color_trc">1</property>
  <property name="meta.media.has_b_frames">0</property>
  <property name="meta.media.width">1920</property>
  <property name="meta.media.height">1080</property>
  <property name="meta.media.color_range">mpeg</property>
  <property name="meta.media.top_field_first">0</property>
  <property name="meta.media.progressive">1</property>
  <property name="set.test_audio">1</property>
  <property name="set.test_image">0</property>
 </producer>
 <producer id="producer88" in="00:00:00.000" out="00:08:19.067">
  <property name="length">14973</property>
  <property name="eof">pause</property>
  <property name="resource">clips/04.0 examples desktop.mkv</property>
  <property name="audio_index">1</property>
  <property name="video_index">0</property>
  <property name="mute_on_pause">0</property>
  <property name="mlt_service">avformat-novalidate</property>
  <property name="meta.media.nb_streams">2</property>
  <property name="meta.media.0.stream.type">video</property>
  <property name="meta.media.0.stream.frame_rate">30</property>
  <property name="meta.media.0.stream.sample_aspect_ratio">0</property>
  <property name="meta.media.0.codec.width">1920</property>
  <property name="meta.media.0.codec.height">1080</property>
  <property name="meta.media.0.codec.rotate">0</property>
  <property name="meta.media.0.codec.pix_fmt">yuv420p</property>
  <property name="meta.media.0.codec.sample_aspect_ratio">1</property>
  <property name="meta.media.0.codec.colorspace">709</property>
  <property name="meta.media.0.codec.color_trc">1</property>
  <property name="meta.media.0.codec.name">h264</property>
  <property name="meta.media.0.codec.long_name">H.264 / AVC / MPEG-4 AVC / MPEG-4 part 10</property>
  <property name="meta.media.0.codec.bit_rate">0</property>
  <property name="meta.attr.0.stream.DURATION.markup">00:08:19.100000000</property>
  <property name="meta.media.1.stream.type">audio</property>
  <property name="meta.media.1.codec.sample_fmt">fltp</property>
  <property name="meta.media.1.codec.sample_rate">48000</property>
  <property name="meta.media.1.codec.channels">2</property>
  <property name="meta.media.1.codec.name">aac</property>
  <property name="meta.media.1.codec.long_name">AAC (Advanced Audio Coding)</property>
  <property name="meta.media.1.codec.bit_rate">0</property>
  <property name="meta.attr.1.stream.title.markup">Source Record</property>
  <property name="meta.attr.1.stream.DURATION.markup">00:08:19.114000000</property>
  <property name="meta.attr.ENCODER.markup">Lavf58.76.100</property>
  <property name="seekable">1</property>
  <property name="meta.media.sample_aspect_num">1</property>
  <property name="meta.media.sample_aspect_den">1</property>
  <property name="aspect_ratio">1</property>
  <property name="format">3</property>
  <property name="kdenlive:clipname"/>
  <property name="kdenlive:clip_type">0</property>
  <property name="kdenlive:folderid">-1</property>
  <property name="kdenlive:id">9</property>
  <property name="kdenlive:file_size">156406009</property>
  <property name="kdenlive:file_hash">7f91ba74889d494d7efc8794a681e8ae</property>
  <property name="kdenlive:audio_max1">1</property>
  <property name="xml">was here</property>
  <property name="meta.media.frame_rate_num">30</property>
  <property name="meta.media.frame_rate_den">1</property>
  <property name="meta.media.colorspace">709</property>
  <property name="meta.media.color_trc">1</property>
  <property name="meta.media.has_b_frames">0</property>
  <property name="meta.media.width">1920</property>
  <property name="meta.media.height">1080</property>
  <property name="meta.media.color_range">mpeg</property>
  <property name="meta.media.top_field_first">0</property>
  <property name="meta.media.progressive">1</property>
  <property name="set.test_audio">1</property>
  <property name="set.test_image">0</property>
 </producer>
 <producer id="producer89" in="00:00:00.000" out="00:14:22.033">
  <property name="length">25862</property>
  <property name="eof">pause</property>
  <property name="resource">clips/04.1 example garden acre Desktop.mkv</property>
  <property name="audio_index">1</property>
  <property name="video_index">0</property>
  <property name="mute_on_pause">0</property>
  <property name="mlt_service">avformat-novalidate</property>
  <property name="meta.media.nb_streams">2</property>
  <property name="meta.media.0.stream.type">video</property>
  <property name="meta.media.0.stream.frame_rate">30</property>
  <property name="meta.media.0.stream.sample_aspect_ratio">0</property>
  <property name="meta.media.0.codec.width">1920</property>
  <property name="meta.media.0.codec.height">1080</property>
  <property name="meta.media.0.codec.rotate">0</property>
  <property name="meta.media.0.codec.pix_fmt">yuv420p</property>
  <property name="meta.media.0.codec.sample_aspect_ratio">1</property>
  <property name="meta.media.0.codec.colorspace">709</property>
  <property name="meta.media.0.codec.color_trc">1</property>
  <property name="meta.media.0.codec.name">h264</property>
  <property name="meta.media.0.codec.long_name">H.264 / AVC / MPEG-4 AVC / MPEG-4 part 10</property>
  <property name="meta.media.0.codec.bit_rate">0</property>
  <property name="meta.attr.0.stream.DURATION.markup">00:14:22.066000000</property>
  <property name="meta.media.1.stream.type">audio</property>
  <property name="meta.media.1.codec.sample_fmt">fltp</property>
  <property name="meta.media.1.codec.sample_rate">48000</property>
  <property name="meta.media.1.codec.channels">2</property>
  <property name="meta.media.1.codec.name">aac</property>
  <property name="meta.media.1.codec.long_name">AAC (Advanced Audio Coding)</property>
  <property name="meta.media.1.codec.bit_rate">0</property>
  <property name="meta.attr.1.stream.title.markup">Source Record</property>
  <property name="meta.attr.1.stream.DURATION.markup">00:14:22.080000000</property>
  <property name="meta.attr.ENCODER.markup">Lavf58.76.100</property>
  <property name="seekable">1</property>
  <property name="meta.media.sample_aspect_num">1</property>
  <property name="meta.media.sample_aspect_den">1</property>
  <property name="aspect_ratio">1</property>
  <property name="format">3</property>
  <property name="kdenlive:clipname"/>
  <property name="kdenlive:clip_type">0</property>
  <property name="kdenlive:folderid">-1</property>
  <property name="kdenlive:id">12</property>
  <property name="kdenlive:file_size">270056992</property>
  <property name="kdenlive:file_hash">1d05c73120af17cfb84ce7a970247940</property>
  <property name="kdenlive:audio_max1">1</property>
  <property name="xml">was here</property>
  <property name="meta.media.frame_rate_num">30</property>
  <property name="meta.media.frame_rate_den">1</property>
  <property name="meta.media.colorspace">709</property>
  <property name="meta.media.color_trc">1</property>
  <property name="meta.media.has_b_frames">0</property>
  <property name="meta.media.width">1920</property>
  <property name="meta.media.height">1080</property>
  <property name="meta.media.color_range">mpeg</property>
  <property name="meta.media.top_field_first">0</property>
  <property name="meta.media.progressive">1</property>
  <property name="set.test_audio">1</property>
  <property name="set.test_image">0</property>
 </producer>
 <producer id="producer90" in="00:00:00.000" out="00:01:41.167">
  <property name="length">3036</property>
  <property name="eof">pause</property>
  <property name="resource">clips/04.1 template Desktop.mkv</property>
  <property name="audio_index">1</property>
  <property name="video_index">0</property>
  <property name="mute_on_pause">0</property>
  <property name="mlt_service">avformat-novalidate</property>
  <property name="seekable">1</property>
  <property name="aspect_ratio">1</property>
  <property name="format">3</property>
  <property name="kdenlive:clipname"/>
  <property name="kdenlive:clip_type">0</property>
  <property name="kdenlive:folderid">31</property>
  <property name="kdenlive:id">76</property>
  <property name="kdenlive:file_size">31676764</property>
  <property name="kdenlive:file_hash">4db3264aa09729c22297f60f1469ebd5</property>
  <property name="kdenlive:audio_max1">1</property>
  <property name="xml">was here</property>
  <property name="meta.media.nb_streams">2</property>
  <property name="meta.media.0.stream.type">video</property>
  <property name="meta.media.0.stream.frame_rate">30</property>
  <property name="meta.media.0.stream.sample_aspect_ratio">0</property>
  <property name="meta.media.0.codec.width">1920</property>
  <property name="meta.media.0.codec.height">1080</property>
  <property name="meta.media.0.codec.rotate">0</property>
  <property name="meta.media.0.codec.pix_fmt">yuv420p</property>
  <property name="meta.media.0.codec.sample_aspect_ratio">1</property>
  <property name="meta.media.0.codec.colorspace">709</property>
  <property name="meta.media.0.codec.color_trc">1</property>
  <property name="meta.media.0.codec.name">h264</property>
  <property name="meta.media.0.codec.long_name">H.264 / AVC / MPEG-4 AVC / MPEG-4 part 10</property>
  <property name="meta.media.0.codec.bit_rate">0</property>
  <property name="meta.attr.0.stream.DURATION.markup">00:01:41.200000000</property>
  <property name="meta.media.1.stream.type">audio</property>
  <property name="meta.media.1.codec.sample_fmt">fltp</property>
  <property name="meta.media.1.codec.sample_rate">48000</property>
  <property name="meta.media.1.codec.channels">2</property>
  <property name="meta.media.1.codec.name">aac</property>
  <property name="meta.media.1.codec.long_name">AAC (Advanced Audio Coding)</property>
  <property name="meta.media.1.codec.bit_rate">0</property>
  <property name="meta.attr.1.stream.title.markup">Source Record</property>
  <property name="meta.attr.1.stream.DURATION.markup">00:01:41.184000000</property>
  <property name="meta.attr.ENCODER.markup">Lavf58.76.100</property>
  <property name="meta.media.sample_aspect_num">1</property>
  <property name="meta.media.sample_aspect_den">1</property>
  <property name="meta.media.frame_rate_num">30</property>
  <property name="meta.media.frame_rate_den">1</property>
  <property name="meta.media.colorspace">709</property>
  <property name="meta.media.color_trc">1</property>
  <property name="meta.media.has_b_frames">0</property>
  <property name="meta.media.width">1920</property>
  <property name="meta.media.height">1080</property>
  <property name="meta.media.color_range">mpeg</property>
  <property name="meta.media.top_field_first">0</property>
  <property name="meta.media.progressive">1</property>
  <property name="set.test_audio">1</property>
  <property name="set.test_image">0</property>
 </producer>
 <producer id="producer91" in="00:00:00.000" out="00:10:03.700">
  <property name="length">18112</property>
  <property name="eof">pause</property>
  <property name="resource">clips/04.2 example garden town Desktop.mkv</property>
  <property name="audio_index">1</property>
  <property name="video_index">0</property>
  <property name="mute_on_pause">0</property>
  <property name="mlt_service">avformat-novalidate</property>
  <property name="meta.media.nb_streams">2</property>
  <property name="meta.media.0.stream.type">video</property>
  <property name="meta.media.0.stream.frame_rate">30</property>
  <property name="meta.media.0.stream.sample_aspect_ratio">0</property>
  <property name="meta.media.0.codec.width">1920</property>
  <property name="meta.media.0.codec.height">1080</property>
  <property name="meta.media.0.codec.rotate">0</property>
  <property name="meta.media.0.codec.pix_fmt">yuv420p</property>
  <property name="meta.media.0.codec.sample_aspect_ratio">1</property>
  <property name="meta.media.0.codec.colorspace">709</property>
  <property name="meta.media.0.codec.color_trc">1</property>
  <property name="meta.media.0.codec.name">h264</property>
  <property name="meta.media.0.codec.long_name">H.264 / AVC / MPEG-4 AVC / MPEG-4 part 10</property>
  <property name="meta.media.0.codec.bit_rate">0</property>
  <property name="meta.attr.0.stream.DURATION.markup">00:10:03.733000000</property>
  <property name="meta.media.1.stream.type">audio</property>
  <property name="meta.media.1.codec.sample_fmt">fltp</property>
  <property name="meta.media.1.codec.sample_rate">48000</property>
  <property name="meta.media.1.codec.channels">2</property>
  <property name="meta.media.1.codec.name">aac</property>
  <property name="meta.media.1.codec.long_name">AAC (Advanced Audio Coding)</property>
  <property name="meta.media.1.codec.bit_rate">0</property>
  <property name="meta.attr.1.stream.title.markup">Source Record</property>
  <property name="meta.attr.1.stream.DURATION.markup">00:10:03.712000000</property>
  <property name="meta.attr.ENCODER.markup">Lavf58.76.100</property>
  <property name="seekable">1</property>
  <property name="meta.media.sample_aspect_num">1</property>
  <property name="meta.media.sample_aspect_den">1</property>
  <property name="aspect_ratio">1</property>
  <property name="format">3</property>
  <property name="kdenlive:clipname"/>
  <property name="kdenlive:clip_type">0</property>
  <property name="kdenlive:folderid">-1</property>
  <property name="kdenlive:id">15</property>
  <property name="kdenlive:file_size">189121920</property>
  <property name="kdenlive:file_hash">e6c0e0364bd352fa9c71f10c825b8cc6</property>
  <property name="kdenlive:audio_max1">1</property>
  <property name="xml">was here</property>
  <property name="meta.media.frame_rate_num">30</property>
  <property name="meta.media.frame_rate_den">1</property>
  <property name="meta.media.colorspace">709</property>
  <property name="meta.media.color_trc">1</property>
  <property name="meta.media.has_b_frames">0</property>
  <property name="meta.media.width">1920</property>
  <property name="meta.media.height">1080</property>
  <property name="meta.media.color_range">mpeg</property>
  <property name="meta.media.top_field_first">0</property>
  <property name="meta.media.progressive">1</property>
  <property name="set.test_audio">1</property>
  <property name="set.test_image">0</property>
 </producer>
 <playlist id="playlist6">
  <entry producer="producer85" in="00:00:06.400" out="00:00:50.967">
   <property name="kdenlive:id">3</property>
  </entry>
  <entry producer="producer85" in="00:00:53.033" out="00:00:58.467">
   <property name="kdenlive:id">3</property>
  </entry>
  <entry producer="producer85" in="00:01:00.167" out="00:01:08.533">
   <property name="kdenlive:id">3</property>
  </entry>
  <entry producer="producer85" in="00:01:10.700" out="00:01:53.167">
   <property name="kdenlive:id">3</property>
  </entry>
  <entry producer="producer85" in="00:01:54.333" out="00:01:58.900">
   <property name="kdenlive:id">3</property>
  </entry>
  <entry producer="producer85" in="00:02:00.800" out="00:02:14.033">
   <property name="kdenlive:id">3</property>
  </entry>
  <entry producer="producer85" in="00:02:16.100" out="00:02:21.333">
   <property name="kdenlive:id">3</property>
  </entry>
  <entry producer="producer85" in="00:02:22.533" out="00:02:39.667">
   <property name="kdenlive:id">3</property>
  </entry>
  <entry producer="producer85" in="00:02:41.200" out="00:02:51.600">
   <property name="kdenlive:id">3</property>
  </entry>
  <entry producer="producer85" in="00:02:52.133" out="00:02:55.267">
   <property name="kdenlive:id">3</property>
  </entry>
  <entry producer="producer85" in="00:02:57.233" out="00:03:25.633">
   <property name="kdenlive:id">3</property>
  </entry>
  <entry producer="producer85" in="00:03:26.700" out="00:03:49.067">
   <property name="kdenlive:id">3</property>
  </entry>
  <entry producer="producer85" in="00:03:49.867" out="00:03:57.267">
   <property name="kdenlive:id">3</property>
  </entry>
  <entry producer="producer85" in="00:04:05.267" out="00:04:09.067">
   <property name="kdenlive:id">3</property>
  </entry>
  <entry producer="producer85" in="00:05:48.400" out="00:06:14.967">
   <property name="kdenlive:id">3</property>
  </entry>
  <entry producer="producer85" in="00:06:16.200" out="00:06:41.767">
   <property name="kdenlive:id">3</property>
  </entry>
  <entry producer="producer85" in="00:06:44.300" out="00:06:55.167">
   <property name="kdenlive:id">3</property>
  </entry>
  <entry producer="producer85" in="00:06:57.233" out="00:07:00.933">
   <property name="kdenlive:id">3</property>
  </entry>
  <entry producer="producer85" in="00:07:02.067" out="00:07:26.000">
   <property name="kdenlive:id">3</property>
  </entry>
  <entry producer="producer85" in="00:07:30.133" out="00:07:42.800">
   <property name="kdenlive:id">3</property>
  </entry>
  <entry producer="producer85" in="00:07:43.667" out="00:08:00.400">
   <property name="kdenlive:id">3</property>
  </entry>
  <entry producer="producer85" in="00:08:02.367" out="00:08:13.833">
   <property name="kdenlive:id">3</property>
  </entry>
  <entry producer="producer85" in="00:09:50.733" out="00:10:37.900">
   <property name="kdenlive:id">3</property>
  </entry>
  <entry producer="producer85" in="00:10:39.700" out="00:10:45.867">
   <property name="kdenlive:id">3</property>
  </entry>
  <entry producer="producer85" in="00:12:37.167" out="00:14:40.267">
   <property name="kdenlive:id">3</property>
  </entry>
  <entry producer="producer85" in="00:16:21.667" out="00:17:32.800">
   <property name="kdenlive:id">3</property>
  </entry>
  <entry producer="producer85" in="00:17:57.267" out="00:18:26.933">
   <property name="kdenlive:id">3</property>
  </entry>
  <entry producer="producer85" in="00:18:28.967" out="00:19:10.733">
   <property name="kdenlive:id">3</property>
  </entry>
  <entry producer="producer85" in="00:19:45.333" out="00:20:45.367">
   <property name="kdenlive:id">3</property>
  </entry>
  <entry producer="producer85" in="00:22:10.933" out="00:23:12.400">
   <property name="kdenlive:id">3</property>
  </entry>
  <entry producer="producer26" in="00:00:00.000" out="00:00:01.667">
   <property name="kdenlive:id">34</property>
  </entry>
  <entry producer="producer85" in="00:23:14.133" out="00:23:22.333">
   <property name="kdenlive:id">3</property>
  </entry>
  <entry producer="producer85" in="00:23:23.767" out="00:23:40.833">
   <property name="kdenlive:id">3</property>
  </entry>
  <entry producer="producer85" in="00:23:42.100" out="00:24:06.100">
   <property name="kdenlive:id">3</property>
  </entry>
  <entry producer="producer86" in="00:00:03.133" out="00:01:38.767">
   <property name="kdenlive:id">6</property>
  </entry>
  <entry producer="producer86" in="00:01:42.667" out="00:02:11.200">
   <property name="kdenlive:id">6</property>
  </entry>
  <entry producer="producer86" in="00:02:19.933" out="00:02:31.367">
   <property name="kdenlive:id">6</property>
  </entry>
  <entry producer="producer86" in="00:02:33.100" out="00:02:42.267">
   <property name="kdenlive:id">6</property>
  </entry>
  <entry producer="producer86" in="00:02:44.500" out="00:02:48.200">
   <property name="kdenlive:id">6</property>
  </entry>
  <entry producer="producer86" in="00:03:02.833" out="00:03:19.733">
   <property name="kdenlive:id">6</property>
  </entry>
  <entry producer="producer86" in="00:03:26.167" out="00:03:44.867">
   <property name="kdenlive:id">6</property>
  </entry>
  <entry producer="producer86" in="00:03:47.267" out="00:03:49.233">
   <property name="kdenlive:id">6</property>
  </entry>
  <entry producer="producer86" in="00:03:59.833" out="00:04:10.667">
   <property name="kdenlive:id">6</property>
  </entry>
  <entry producer="producer86" in="00:04:19.367" out="00:04:23.533">
   <property name="kdenlive:id">6</property>
  </entry>
  <entry producer="producer86" in="00:04:26.800" out="00:04:28.367">
   <property name="kdenlive:id">6</property>
  </entry>
  <entry producer="producer86" in="00:04:31.233" out="00:04:41.300">
   <property name="kdenlive:id">6</property>
  </entry>
  <entry producer="producer86" in="00:04:58.033" out="00:05:16.800">
   <property name="kdenlive:id">6</property>
  </entry>
  <entry producer="producer86" in="00:05:38.867" out="00:05:40.300">
   <property name="kdenlive:id">6</property>
  </entry>
  <entry producer="producer86" in="00:05:42.833" out="00:05:47.233">
   <property name="kdenlive:id">6</property>
  </entry>
  <entry producer="producer86" in="00:05:49.567" out="00:05:52.100">
   <property name="kdenlive:id">6</property>
  </entry>
  <entry producer="producer86" in="00:06:01.167" out="00:06:04.933">
   <property name="kdenlive:id">6</property>
  </entry>
  <entry producer="producer86" in="00:06:05.700" out="00:06:11.867">
   <property name="kdenlive:id">6</property>
  </entry>
  <entry producer="producer86" in="00:06:13.333" out="00:06:14.700">
   <property name="kdenlive:id">6</property>
  </entry>
  <entry producer="producer86" in="00:07:09.567" out="00:07:12.533">
   <property name="kdenlive:id">6</property>
  </entry>
  <entry producer="producer86" in="00:07:13.467" out="00:07:50.900">
   <property name="kdenlive:id">6</property>
  </entry>
  <entry producer="producer86" in="00:08:00.767" out="00:08:08.000">
   <property name="kdenlive:id">6</property>
  </entry>
  <entry producer="producer86" in="00:08:08.867" out="00:08:53.133">
   <property name="kdenlive:id">6</property>
  </entry>
  <entry producer="producer86" in="00:08:57.067" out="00:09:09.233">
   <property name="kdenlive:id">6</property>
  </entry>
  <entry producer="producer87" in="00:00:02.533" out="00:00:32.067">
   <property name="kdenlive:id">18</property>
  </entry>
  <entry producer="producer87" in="00:00:36.433" out="00:00:38.200">
   <property name="kdenlive:id">18</property>
  </entry>
  <entry producer="producer87" in="00:00:39.267" out="00:03:28.667">
   <property name="kdenlive:id">18</property>
  </entry>
  <entry producer="producer87" in="00:03:32.300" out="00:04:24.633">
   <property name="kdenlive:id">18</property>
  </entry>
  <entry producer="producer87" in="00:04:39.000" out="00:04:57.800">
   <property name="kdenlive:id">18</property>
  </entry>
  <entry producer="producer87" in="00:04:59.333" out="00:05:07.200">
   <property name="kdenlive:id">18</property>
  </entry>
  <entry producer="producer87" in="00:05:11.067" out="00:05:16.533">
   <property name="kdenlive:id">18</property>
  </entry>
  <entry producer="producer87" in="00:05:18.700" out="00:05:21.933">
   <property name="kdenlive:id">18</property>
  </entry>
  <entry producer="producer87" in="00:05:28.033" out="00:05:40.333">
   <property name="kdenlive:id">18</property>
  </entry>
  <entry producer="producer87" in="00:05:53.500" out="00:05:58.267">
   <property name="kdenlive:id">18</property>
  </entry>
  <entry producer="producer87" in="00:05:59.500" out="00:09:09.300">
   <property name="kdenlive:id">18</property>
  </entry>
  <entry producer="producer87" in="00:09:13.933" out="00:09:23.667">
   <property name="kdenlive:id">18</property>
  </entry>
  <entry producer="producer87" in="00:09:25.167" out="00:09:28.833">
   <property name="kdenlive:id">18</property>
  </entry>
  <entry producer="producer87" in="00:09:44.433" out="00:10:23.867">
   <property name="kdenlive:id">18</property>
  </entry>
  <entry producer="producer87" in="00:10:35.167" out="00:10:55.500">
   <property name="kdenlive:id">18</property>
  </entry>
  <entry producer="producer87" in="00:10:56.633" out="00:11:07.833">
   <property name="kdenlive:id">18</property>
  </entry>
  <entry producer="producer87" in="00:11:10.433" out="00:13:34.133">
   <property name="kdenlive:id">18</property>
  </entry>
  <entry producer="producer52" in="00:00:00.000" out="00:00:12.700">
   <property name="kdenlive:id">60</property>
  </entry>
  <entry producer="producer87" in="00:15:17.367" out="00:15:34.867">
   <property name="kdenlive:id">18</property>
  </entry>
  <entry producer="producer87" in="00:15:38.133" out="00:21:01.500">
   <property name="kdenlive:id">18</property>
  </entry>
  <entry producer="producer87" in="00:21:03.700" out="00:21:21.700">
   <property name="kdenlive:id">18</property>
  </entry>
  <entry producer="producer87" in="00:22:09.067" out="00:22:13.167">
   <property name="kdenlive:id">18</property>
  </entry>
  <entry producer="producer87" in="00:24:36.767" out="00:24:56.500">
   <property name="kdenlive:id">18</property>
  </entry>
  <entry producer="producer87" in="00:24:59.300" out="00:25:19.733">
   <property name="kdenlive:id">18</property>
  </entry>
  <entry producer="producer87" in="00:25:24.133" out="00:25:29.200">
   <property name="kdenlive:id">18</property>
  </entry>
  <entry producer="producer55" in="00:00:00.000" out="00:00:05.267">
   <property name="kdenlive:id">63</property>
  </entry>
  <entry producer="producer56" in="00:00:00.000" out="00:00:06.333">
   <property name="kdenlive:id">64</property>
   <filter id="filter12">
    <property name="version">0.1</property>
    <property name="mlt_service">frei0r.scale0tilt</property>
    <property name="kdenlive_id">frei0r.scale0tilt</property>
    <property name="Clip left">00:00:00.000=0</property>
    <property name="Clip right">00:00:00.000=0</property>
    <property name="Clip top">00:00:00.000=0</property>
    <property name="Clip bottom">00:00:00.000=0</property>
    <property name="Scale X">00:00:00.000=0.5</property>
    <property name="Scale Y">00:00:00.000=0.5</property>
    <property name="Tilt X">00:00:00.000=0.5</property>
    <property name="Tilt Y">00:00:00.000=0.5</property>
    <property name="kdenlive:collapsed">0</property>
   </filter>
  </entry>
  <entry producer="producer87" in="00:25:43.967" out="00:26:08.300">
   <property name="kdenlive:id">18</property>
  </entry>
  <entry producer="producer87" in="00:26:12.400" out="00:28:18.667">
   <property name="kdenlive:id">18</property>
  </entry>
  <entry producer="producer87" in="00:29:14.767" out="00:30:50.433">
   <property name="kdenlive:id">18</property>
  </entry>
  <entry producer="producer87" in="00:31:02.100" out="00:32:51.433">
   <property name="kdenlive:id">18</property>
  </entry>
  <entry producer="producer87" in="00:32:54.667" out="00:33:28.867">
   <property name="kdenlive:id">18</property>
  </entry>
  <entry producer="producer88" in="00:00:08.267" out="00:00:53.133">
   <property name="kdenlive:id">9</property>
  </entry>
  <entry producer="producer88" in="00:00:57.767" out="00:01:51.600">
   <property name="kdenlive:id">9</property>
  </entry>
  <entry producer="producer88" in="00:01:55.900" out="00:02:38.433">
   <property name="kdenlive:id">9</property>
  </entry>
  <entry producer="producer88" in="00:02:40.767" out="00:03:37.900">
   <property name="kdenlive:id">9</property>
  </entry>
  <entry producer="producer88" in="00:03:40.967" out="00:04:29.567">
   <property name="kdenlive:id">9</property>
  </entry>
  <entry producer="producer89" in="00:00:03.633" out="00:00:12.333">
   <property name="kdenlive:id">12</property>
  </entry>
  <entry producer="producer89" in="00:00:16.700" out="00:00:19.733">
   <property name="kdenlive:id">12</property>
  </entry>
  <entry producer="producer90" in="00:00:01.233" out="00:01:06.700">
   <property name="kdenlive:id">76</property>
  </entry>
  <entry producer="producer90" in="00:01:15.367" out="00:01:34.867">
   <property name="kdenlive:id">76</property>
  </entry>
  <entry producer="producer89" in="00:00:49.767" out="00:01:03.700">
   <property name="kdenlive:id">12</property>
  </entry>
  <entry producer="producer89" in="00:01:07.633" out="00:01:56.167">
   <property name="kdenlive:id">12</property>
  </entry>
  <entry producer="producer89" in="00:02:04.333" out="00:02:08.467">
   <property name="kdenlive:id">12</property>
  </entry>
  <entry producer="producer89" in="00:02:10.533" out="00:02:30.400">
   <property name="kdenlive:id">12</property>
  </entry>
  <entry producer="producer89" in="00:02:31.933" out="00:03:23.333">
   <property name="kdenlive:id">12</property>
  </entry>
  <entry producer="producer89" in="00:03:35.400" out="00:04:54.800">
   <property name="kdenlive:id">12</property>
  </entry>
  <entry producer="producer89" in="00:04:57.167" out="00:05:00.267">
   <property name="kdenlive:id">12</property>
  </entry>
  <entry producer="producer89" in="00:05:04.467" out="00:05:08.167">
   <property name="kdenlive:id">12</property>
  </entry>
  <entry producer="producer89" in="00:05:21.200" out="00:05:52.800">
   <property name="kdenlive:id">12</property>
  </entry>
  <entry producer="producer89" in="00:05:54.133" out="00:06:01.133">
   <property name="kdenlive:id">12</property>
  </entry>
  <entry producer="producer89" in="00:06:08.867" out="00:06:52.000">
   <property name="kdenlive:id">12</property>
  </entry>
  <entry producer="producer89" in="00:06:53.167" out="00:07:00.500">
   <property name="kdenlive:id">12</property>
  </entry>
  <entry producer="producer89" in="00:07:08.100" out="00:07:21.767">
   <property name="kdenlive:id">12</property>
  </entry>
  <entry producer="producer89" in="00:07:22.100" out="00:07:24.533">
   <property name="kdenlive:id">12</property>
  </entry>
  <entry producer="producer89" in="00:07:28.800" out="00:08:05.733">
   <property name="kdenlive:id">12</property>
  </entry>
  <entry producer="producer89" in="00:08:16.233" out="00:09:34.000">
   <property name="kdenlive:id">12</property>
  </entry>
  <entry producer="producer89" in="00:09:51.133" out="00:11:43.300">
   <property name="kdenlive:id">12</property>
  </entry>
  <entry producer="producer89" in="00:12:02.367" out="00:13:19.967">
   <property name="kdenlive:id">12</property>
  </entry>
  <entry producer="producer89" in="00:13:33.600" out="00:14:18.467">
   <property name="kdenlive:id">12</property>
  </entry>
  <entry producer="producer91" in="00:00:01.533" out="00:00:41.500">
   <property name="kdenlive:id">15</property>
  </entry>
  <entry producer="producer91" in="00:00:43.633" out="00:03:23.900">
   <property name="kdenlive:id">15</property>
  </entry>
  <entry producer="producer91" in="00:03:23.933" out="00:04:47.500">
   <property name="kdenlive:id">15</property>
  </entry>
  <entry producer="producer91" in="00:04:58.333" out="00:05:22.933">
   <property name="kdenlive:id">15</property>
  </entry>
  <entry producer="producer91" in="00:05:27.900" out="00:05:57.333">
   <property name="kdenlive:id">15</property>
  </entry>
  <entry producer="producer91" in="00:06:05.200" out="00:06:06.233">
   <property name="kdenlive:id">15</property>
  </entry>
  <entry producer="producer91" in="00:06:10.200" out="00:06:26.567">
   <property name="kdenlive:id">15</property>
  </entry>
  <entry producer="producer91" in="00:06:40.133" out="00:07:34.400">
   <property name="kdenlive:id">15</property>
  </entry>
  <entry producer="producer91" in="00:07:38.667" out="00:07:40.733">
   <property name="kdenlive:id">15</property>
  </entry>
  <entry producer="producer91" in="00:07:44.100" out="00:07:46.500">
   <property name="kdenlive:id">15</property>
  </entry>
  <entry producer="producer91" in="00:07:46.900" out="00:08:08.000">
   <property name="kdenlive:id">15</property>
  </entry>
  <entry producer="producer91" in="00:08:13.933" out="00:08:38.033">
   <property name="kdenlive:id">15</property>
  </entry>
  <entry producer="producer91" in="00:09:15.500" out="00:09:34.733">
   <property name="kdenlive:id">15</property>
  </entry>
  <entry producer="producer77" in="00:00:00.000" out="00:00:13.267">
   <property name="kdenlive:id">85</property>
  </entry>
 </playlist>
 <playlist id="playlist7"/>
 <tractor id="tractor3" in="00:00:00.000" out="01:10:58.500">
  <property name="kdenlive:trackheight">67</property>
  <property name="kdenlive:timeline_active">1</property>
  <property name="kdenlive:collapsed">0</property>
  <property name="kdenlive:track_name">Desktop</property>
  <property name="kdenlive:thumbs_format"/>
  <property name="kdenlive:audio_rec"/>
  <track hide="audio" producer="playlist6"/>
  <track hide="audio" producer="playlist7"/>
 </tractor>
 <producer id="producer92" in="00:00:00.000" out="00:24:21.167">
  <property name="length">43836</property>
  <property name="eof">pause</property>
  <property name="resource">clips/01 CAD facecam.mkv</property>
  <property name="audio_index">1</property>
  <property name="video_index">0</property>
  <property name="mute_on_pause">0</property>
  <property name="mlt_service">avformat-novalidate</property>
  <property name="meta.media.nb_streams">2</property>
  <property name="meta.media.0.stream.type">video</property>
  <property name="meta.media.0.stream.frame_rate">30</property>
  <property name="meta.media.0.stream.sample_aspect_ratio">0</property>
  <property name="meta.media.0.codec.width">800</property>
  <property name="meta.media.0.codec.height">600</property>
  <property name="meta.media.0.codec.rotate">0</property>
  <property name="meta.media.0.codec.pix_fmt">yuv420p</property>
  <property name="meta.media.0.codec.sample_aspect_ratio">1</property>
  <property name="meta.media.0.codec.colorspace">709</property>
  <property name="meta.media.0.codec.color_trc">1</property>
  <property name="meta.media.0.codec.name">h264</property>
  <property name="meta.media.0.codec.long_name">H.264 / AVC / MPEG-4 AVC / MPEG-4 part 10</property>
  <property name="meta.media.0.codec.bit_rate">0</property>
  <property name="meta.attr.0.stream.DURATION.markup">00:24:21.166000000</property>
  <property name="meta.media.1.stream.type">audio</property>
  <property name="meta.media.1.codec.sample_fmt">fltp</property>
  <property name="meta.media.1.codec.sample_rate">48000</property>
  <property name="meta.media.1.codec.channels">2</property>
  <property name="meta.media.1.codec.name">aac</property>
  <property name="meta.media.1.codec.long_name">AAC (Advanced Audio Coding)</property>
  <property name="meta.media.1.codec.bit_rate">0</property>
  <property name="meta.attr.1.stream.title.markup">Source Record</property>
  <property name="meta.attr.1.stream.DURATION.markup">00:24:21.184000000</property>
  <property name="meta.attr.ENCODER.markup">Lavf58.76.100</property>
  <property name="seekable">1</property>
  <property name="meta.media.sample_aspect_num">1</property>
  <property name="meta.media.sample_aspect_den">1</property>
  <property name="aspect_ratio">1</property>
  <property name="format">3</property>
  <property name="kdenlive:clipname"/>
  <property name="kdenlive:clip_type">0</property>
  <property name="kdenlive:folderid">-1</property>
  <property name="kdenlive:id">4</property>
  <property name="kdenlive:file_size">457797774</property>
  <property name="kdenlive:file_hash">42fbf6649d003d9839583cf493490ac7</property>
  <property name="kdenlive:audio_max1">1</property>
  <property name="xml">was here</property>
  <property name="meta.media.frame_rate_num">30</property>
  <property name="meta.media.frame_rate_den">1</property>
  <property name="meta.media.colorspace">709</property>
  <property name="meta.media.color_trc">1</property>
  <property name="meta.media.has_b_frames">0</property>
  <property name="meta.media.width">800</property>
  <property name="meta.media.height">600</property>
  <property name="meta.media.color_range">mpeg</property>
  <property name="meta.media.top_field_first">0</property>
  <property name="meta.media.progressive">1</property>
  <property name="set.test_audio">1</property>
  <property name="set.test_image">0</property>
 </producer>
 <producer id="producer93" in="00:00:00.000" out="00:09:14.967">
  <property name="length">16650</property>
  <property name="eof">pause</property>
  <property name="resource">clips/02 Setup facecam.mkv</property>
  <property name="audio_index">1</property>
  <property name="video_index">0</property>
  <property name="mute_on_pause">0</property>
  <property name="mlt_service">avformat-novalidate</property>
  <property name="meta.media.nb_streams">2</property>
  <property name="meta.media.0.stream.type">video</property>
  <property name="meta.media.0.stream.frame_rate">30</property>
  <property name="meta.media.0.stream.sample_aspect_ratio">0</property>
  <property name="meta.media.0.codec.width">800</property>
  <property name="meta.media.0.codec.height">600</property>
  <property name="meta.media.0.codec.rotate">0</property>
  <property name="meta.media.0.codec.pix_fmt">yuv420p</property>
  <property name="meta.media.0.codec.sample_aspect_ratio">1</property>
  <property name="meta.media.0.codec.colorspace">709</property>
  <property name="meta.media.0.codec.color_trc">1</property>
  <property name="meta.media.0.codec.name">h264</property>
  <property name="meta.media.0.codec.long_name">H.264 / AVC / MPEG-4 AVC / MPEG-4 part 10</property>
  <property name="meta.media.0.codec.bit_rate">0</property>
  <property name="meta.attr.0.stream.DURATION.markup">00:09:14.966000000</property>
  <property name="meta.media.1.stream.type">audio</property>
  <property name="meta.media.1.codec.sample_fmt">fltp</property>
  <property name="meta.media.1.codec.sample_rate">48000</property>
  <property name="meta.media.1.codec.channels">2</property>
  <property name="meta.media.1.codec.name">aac</property>
  <property name="meta.media.1.codec.long_name">AAC (Advanced Audio Coding)</property>
  <property name="meta.media.1.codec.bit_rate">0</property>
  <property name="meta.attr.1.stream.title.markup">Source Record</property>
  <property name="meta.attr.1.stream.DURATION.markup">00:09:14.986000000</property>
  <property name="meta.attr.ENCODER.markup">Lavf58.76.100</property>
  <property name="seekable">1</property>
  <property name="meta.media.sample_aspect_num">1</property>
  <property name="meta.media.sample_aspect_den">1</property>
  <property name="aspect_ratio">1</property>
  <property name="format">3</property>
  <property name="kdenlive:clipname"/>
  <property name="kdenlive:clip_type">0</property>
  <property name="kdenlive:folderid">-1</property>
  <property name="kdenlive:id">7</property>
  <property name="kdenlive:file_size">173887131</property>
  <property name="kdenlive:file_hash">1f8ba7dc7065f6f6e4b29e68ba7174db</property>
  <property name="kdenlive:audio_max1">1</property>
  <property name="xml">was here</property>
  <property name="meta.media.frame_rate_num">30</property>
  <property name="meta.media.frame_rate_den">1</property>
  <property name="meta.media.colorspace">709</property>
  <property name="meta.media.color_trc">1</property>
  <property name="meta.media.has_b_frames">0</property>
  <property name="meta.media.width">800</property>
  <property name="meta.media.height">600</property>
  <property name="meta.media.color_range">mpeg</property>
  <property name="meta.media.top_field_first">0</property>
  <property name="meta.media.progressive">1</property>
  <property name="set.test_audio">1</property>
  <property name="set.test_image">0</property>
 </producer>
 <producer id="producer94" in="00:00:00.000" out="00:33:35.200">
  <property name="length">60457</property>
  <property name="eof">pause</property>
  <property name="resource">clips/03.0 Shapes facecam.mkv</property>
  <property name="audio_index">1</property>
  <property name="video_index">0</property>
  <property name="mute_on_pause">0</property>
  <property name="mlt_service">avformat-novalidate</property>
  <property name="seekable">1</property>
  <property name="aspect_ratio">1</property>
  <property name="format">3</property>
  <property name="kdenlive:clipname"/>
  <property name="kdenlive:clip_type">0</property>
  <property name="kdenlive:folderid">-1</property>
  <property name="kdenlive:id">19</property>
  <property name="kdenlive:file_size">631355807</property>
  <property name="kdenlive:file_hash">305fc04fbc6ef869af9bfe4f9efc5c98</property>
  <property name="kdenlive:audio_max1">0</property>
  <property name="xml">was here</property>
  <property name="meta.media.nb_streams">2</property>
  <property name="meta.media.0.stream.type">video</property>
  <property name="meta.media.0.stream.frame_rate">30</property>
  <property name="meta.media.0.stream.sample_aspect_ratio">0</property>
  <property name="meta.media.0.codec.width">800</property>
  <property name="meta.media.0.codec.height">600</property>
  <property name="meta.media.0.codec.rotate">0</property>
  <property name="meta.media.0.codec.pix_fmt">yuv420p</property>
  <property name="meta.media.0.codec.sample_aspect_ratio">1</property>
  <property name="meta.media.0.codec.colorspace">709</property>
  <property name="meta.media.0.codec.color_trc">1</property>
  <property name="meta.media.0.codec.name">h264</property>
  <property name="meta.media.0.codec.long_name">H.264 / AVC / MPEG-4 AVC / MPEG-4 part 10</property>
  <property name="meta.media.0.codec.bit_rate">0</property>
  <property name="meta.attr.0.stream.DURATION.markup">00:33:35.233000000</property>
  <property name="meta.media.1.stream.type">audio</property>
  <property name="meta.media.1.codec.sample_fmt">fltp</property>
  <property name="meta.media.1.codec.sample_rate">48000</property>
  <property name="meta.media.1.codec.channels">2</property>
  <property name="meta.media.1.codec.name">aac</property>
  <property name="meta.media.1.codec.long_name">AAC (Advanced Audio Coding)</property>
  <property name="meta.media.1.codec.bit_rate">0</property>
  <property name="meta.attr.1.stream.title.markup">Source Record</property>
  <property name="meta.attr.1.stream.DURATION.markup">00:33:35.232000000</property>
  <property name="meta.attr.ENCODER.markup">Lavf58.76.100</property>
  <property name="meta.media.sample_aspect_num">1</property>
  <property name="meta.media.sample_aspect_den">1</property>
  <property name="meta.media.frame_rate_num">30</property>
  <property name="meta.media.frame_rate_den">1</property>
  <property name="meta.media.colorspace">709</property>
  <property name="meta.media.color_trc">1</property>
  <property name="meta.media.has_b_frames">0</property>
  <property name="meta.media.width">800</property>
  <property name="meta.media.height">600</property>
  <property name="meta.media.color_range">mpeg</property>
  <property name="meta.media.top_field_first">0</property>
  <property name="meta.media.progressive">1</property>
  <property name="set.test_audio">1</property>
  <property name="set.test_image">0</property>
 </producer>
 <producer id="producer95" in="00:00:00.000" out="00:08:19.267">
  <property name="length">14979</property>
  <property name="eof">pause</property>
  <property name="resource">clips/04.0 examples facecam.mkv</property>
  <property name="audio_index">1</property>
  <property name="video_index">0</property>
  <property name="mute_on_pause">0</property>
  <property name="mlt_service">avformat-novalidate</property>
  <property name="meta.media.nb_streams">2</property>
  <property name="meta.media.0.stream.type">video</property>
  <property name="meta.media.0.stream.frame_rate">30</property>
  <property name="meta.media.0.stream.sample_aspect_ratio">0</property>
  <property name="meta.media.0.codec.width">800</property>
  <property name="meta.media.0.codec.height">600</property>
  <property name="meta.media.0.codec.rotate">0</property>
  <property name="meta.media.0.codec.pix_fmt">yuv420p</property>
  <property name="meta.media.0.codec.sample_aspect_ratio">1</property>
  <property name="meta.media.0.codec.colorspace">709</property>
  <property name="meta.media.0.codec.color_trc">1</property>
  <property name="meta.media.0.codec.name">h264</property>
  <property name="meta.media.0.codec.long_name">H.264 / AVC / MPEG-4 AVC / MPEG-4 part 10</property>
  <property name="meta.media.0.codec.bit_rate">0</property>
  <property name="meta.attr.0.stream.DURATION.markup">00:08:19.300000000</property>
  <property name="meta.media.1.stream.type">audio</property>
  <property name="meta.media.1.codec.sample_fmt">fltp</property>
  <property name="meta.media.1.codec.sample_rate">48000</property>
  <property name="meta.media.1.codec.channels">2</property>
  <property name="meta.media.1.codec.name">aac</property>
  <property name="meta.media.1.codec.long_name">AAC (Advanced Audio Coding)</property>
  <property name="meta.media.1.codec.bit_rate">0</property>
  <property name="meta.attr.1.stream.title.markup">Source Record</property>
  <property name="meta.attr.1.stream.DURATION.markup">00:08:19.285000000</property>
  <property name="meta.attr.ENCODER.markup">Lavf58.76.100</property>
  <property name="seekable">1</property>
  <property name="meta.media.sample_aspect_num">1</property>
  <property name="meta.media.sample_aspect_den">1</property>
  <property name="aspect_ratio">1</property>
  <property name="format">3</property>
  <property name="kdenlive:clipname"/>
  <property name="kdenlive:clip_type">0</property>
  <property name="kdenlive:folderid">-1</property>
  <property name="kdenlive:id">10</property>
  <property name="kdenlive:file_size">156453412</property>
  <property name="kdenlive:file_hash">ea3e928635eee5f7eccd0f6ee2fb6f3a</property>
  <property name="kdenlive:audio_max1">1</property>
  <property name="xml">was here</property>
  <property name="meta.media.frame_rate_num">30</property>
  <property name="meta.media.frame_rate_den">1</property>
  <property name="meta.media.colorspace">709</property>
  <property name="meta.media.color_trc">1</property>
  <property name="meta.media.has_b_frames">0</property>
  <property name="meta.media.width">800</property>
  <property name="meta.media.height">600</property>
  <property name="meta.media.color_range">mpeg</property>
  <property name="meta.media.top_field_first">0</property>
  <property name="meta.media.progressive">1</property>
  <property name="set.test_audio">1</property>
  <property name="set.test_image">0</property>
 </producer>
 <producer id="producer96" in="00:00:00.000" out="00:14:22.433">
  <property name="length">25874</property>
  <property name="eof">pause</property>
  <property name="resource">clips/04.1 example garden acre facecam.mkv</property>
  <property name="audio_index">1</property>
  <property name="video_index">0</property>
  <property name="mute_on_pause">0</property>
  <property name="mlt_service">avformat-novalidate</property>
  <property name="meta.media.nb_streams">2</property>
  <property name="meta.media.0.stream.type">video</property>
  <property name="meta.media.0.stream.frame_rate">30</property>
  <property name="meta.media.0.stream.sample_aspect_ratio">0</property>
  <property name="meta.media.0.codec.width">800</property>
  <property name="meta.media.0.codec.height">600</property>
  <property name="meta.media.0.codec.rotate">0</property>
  <property name="meta.media.0.codec.pix_fmt">yuv420p</property>
  <property name="meta.media.0.codec.sample_aspect_ratio">1</property>
  <property name="meta.media.0.codec.colorspace">709</property>
  <property name="meta.media.0.codec.color_trc">1</property>
  <property name="meta.media.0.codec.name">h264</property>
  <property name="meta.media.0.codec.long_name">H.264 / AVC / MPEG-4 AVC / MPEG-4 part 10</property>
  <property name="meta.media.0.codec.bit_rate">0</property>
  <property name="meta.attr.0.stream.DURATION.markup">00:14:22.466000000</property>
  <property name="meta.media.1.stream.type">audio</property>
  <property name="meta.media.1.codec.sample_fmt">fltp</property>
  <property name="meta.media.1.codec.sample_rate">48000</property>
  <property name="meta.media.1.codec.channels">2</property>
  <property name="meta.media.1.codec.name">aac</property>
  <property name="meta.media.1.codec.long_name">AAC (Advanced Audio Coding)</property>
  <property name="meta.media.1.codec.bit_rate">0</property>
  <property name="meta.attr.1.stream.title.markup">Source Record</property>
  <property name="meta.attr.1.stream.DURATION.markup">00:14:22.464000000</property>
  <property name="meta.attr.ENCODER.markup">Lavf58.76.100</property>
  <property name="seekable">1</property>
  <property name="meta.media.sample_aspect_num">1</property>
  <property name="meta.media.sample_aspect_den">1</property>
  <property name="aspect_ratio">1</property>
  <property name="format">3</property>
  <property name="kdenlive:clipname"/>
  <property name="kdenlive:clip_type">0</property>
  <property name="kdenlive:folderid">-1</property>
  <property name="kdenlive:id">13</property>
  <property name="kdenlive:file_size">270253548</property>
  <property name="kdenlive:file_hash">d995768142b8abbb24d96881d62c8bd0</property>
  <property name="kdenlive:audio_max1">1</property>
  <property name="xml">was here</property>
  <property name="meta.media.frame_rate_num">30</property>
  <property name="meta.media.frame_rate_den">1</property>
  <property name="meta.media.colorspace">709</property>
  <property name="meta.media.color_trc">1</property>
  <property name="meta.media.has_b_frames">0</property>
  <property name="meta.media.width">800</property>
  <property name="meta.media.height">600</property>
  <property name="meta.media.color_range">mpeg</property>
  <property name="meta.media.top_field_first">0</property>
  <property name="meta.media.progressive">1</property>
  <property name="set.test_audio">1</property>
  <property name="set.test_image">0</property>
 </producer>
 <producer id="producer97" in="00:00:00.000" out="00:01:41.800">
  <property name="length">3055</property>
  <property name="eof">pause</property>
  <property name="resource">clips/04.1 template facecam.mkv</property>
  <property name="audio_index">1</property>
  <property name="video_index">0</property>
  <property name="mute_on_pause">0</property>
  <property name="mlt_service">avformat-novalidate</property>
  <property name="seekable">1</property>
  <property name="aspect_ratio">1</property>
  <property name="format">3</property>
  <property name="kdenlive:clipname"/>
  <property name="kdenlive:clip_type">0</property>
  <property name="kdenlive:folderid">31</property>
  <property name="kdenlive:id">77</property>
  <property name="kdenlive:file_size">31948372</property>
  <property name="kdenlive:file_hash">87d1fbd54fd4c201c93f2aa85ebd89a1</property>
  <property name="kdenlive:audio_max1">1</property>
  <property name="xml">was here</property>
  <property name="meta.media.nb_streams">2</property>
  <property name="meta.media.0.stream.type">video</property>
  <property name="meta.media.0.stream.frame_rate">30</property>
  <property name="meta.media.0.stream.sample_aspect_ratio">0</property>
  <property name="meta.media.0.codec.width">800</property>
  <property name="meta.media.0.codec.height">600</property>
  <property name="meta.media.0.codec.rotate">0</property>
  <property name="meta.media.0.codec.pix_fmt">yuv420p</property>
  <property name="meta.media.0.codec.sample_aspect_ratio">1</property>
  <property name="meta.media.0.codec.colorspace">709</property>
  <property name="meta.media.0.codec.color_trc">1</property>
  <property name="meta.media.0.codec.name">h264</property>
  <property name="meta.media.0.codec.long_name">H.264 / AVC / MPEG-4 AVC / MPEG-4 part 10</property>
  <property name="meta.media.0.codec.bit_rate">0</property>
  <property name="meta.attr.0.stream.DURATION.markup">00:01:41.833000000</property>
  <property name="meta.media.1.stream.type">audio</property>
  <property name="meta.media.1.codec.sample_fmt">fltp</property>
  <property name="meta.media.1.codec.sample_rate">48000</property>
  <property name="meta.media.1.codec.channels">2</property>
  <property name="meta.media.1.codec.name">aac</property>
  <property name="meta.media.1.codec.long_name">AAC (Advanced Audio Coding)</property>
  <property name="meta.media.1.codec.bit_rate">0</property>
  <property name="meta.attr.1.stream.title.markup">Source Record</property>
  <property name="meta.attr.1.stream.DURATION.markup">00:01:41.824000000</property>
  <property name="meta.attr.ENCODER.markup">Lavf58.76.100</property>
  <property name="meta.media.sample_aspect_num">1</property>
  <property name="meta.media.sample_aspect_den">1</property>
  <property name="meta.media.frame_rate_num">30</property>
  <property name="meta.media.frame_rate_den">1</property>
  <property name="meta.media.colorspace">709</property>
  <property name="meta.media.color_trc">1</property>
  <property name="meta.media.has_b_frames">0</property>
  <property name="meta.media.width">800</property>
  <property name="meta.media.height">600</property>
  <property name="meta.media.color_range">mpeg</property>
  <property name="meta.media.top_field_first">0</property>
  <property name="meta.media.progressive">1</property>
  <property name="set.test_audio">1</property>
  <property name="set.test_image">0</property>
 </producer>
 <producer id="producer98" in="00:00:00.000" out="00:10:14.800">
  <property name="length">18445</property>
  <property name="eof">pause</property>
  <property name="resource">clips/04.2 example garden town facecam.mkv</property>
  <property name="audio_index">1</property>
  <property name="video_index">0</property>
  <property name="mute_on_pause">0</property>
  <property name="mlt_service">avformat-novalidate</property>
  <property name="meta.media.nb_streams">2</property>
  <property name="meta.media.0.stream.type">video</property>
  <property name="meta.media.0.stream.frame_rate">30</property>
  <property name="meta.media.0.stream.sample_aspect_ratio">0</property>
  <property name="meta.media.0.codec.width">800</property>
  <property name="meta.media.0.codec.height">600</property>
  <property name="meta.media.0.codec.rotate">0</property>
  <property name="meta.media.0.codec.pix_fmt">yuv420p</property>
  <property name="meta.media.0.codec.sample_aspect_ratio">1</property>
  <property name="meta.media.0.codec.colorspace">709</property>
  <property name="meta.media.0.codec.color_trc">1</property>
  <property name="meta.media.0.codec.name">h264</property>
  <property name="meta.media.0.codec.long_name">H.264 / AVC / MPEG-4 AVC / MPEG-4 part 10</property>
  <property name="meta.media.0.codec.bit_rate">0</property>
  <property name="meta.attr.0.stream.DURATION.markup">00:10:14.833000000</property>
  <property name="meta.media.1.stream.type">audio</property>
  <property name="meta.media.1.codec.sample_fmt">fltp</property>
  <property name="meta.media.1.codec.sample_rate">48000</property>
  <property name="meta.media.1.codec.channels">2</property>
  <property name="meta.media.1.codec.name">aac</property>
  <property name="meta.media.1.codec.long_name">AAC (Advanced Audio Coding)</property>
  <property name="meta.media.1.codec.bit_rate">0</property>
  <property name="meta.attr.1.stream.title.markup">Source Record</property>
  <property name="meta.attr.1.stream.DURATION.markup">00:10:14.826000000</property>
  <property name="meta.attr.ENCODER.markup">Lavf58.76.100</property>
  <property name="seekable">1</property>
  <property name="meta.media.sample_aspect_num">1</property>
  <property name="meta.media.sample_aspect_den">1</property>
  <property name="aspect_ratio">1</property>
  <property name="format">3</property>
  <property name="kdenlive:clipname"/>
  <property name="kdenlive:clip_type">0</property>
  <property name="kdenlive:folderid">-1</property>
  <property name="kdenlive:id">16</property>
  <property name="kdenlive:file_size">192633513</property>
  <property name="kdenlive:file_hash">03e9fe36e8077ff4675bf84992bd03bc</property>
  <property name="kdenlive:audio_max1">1</property>
  <property name="xml">was here</property>
  <property name="meta.media.frame_rate_num">30</property>
  <property name="meta.media.frame_rate_den">1</property>
  <property name="meta.media.colorspace">709</property>
  <property name="meta.media.color_trc">1</property>
  <property name="meta.media.has_b_frames">0</property>
  <property name="meta.media.width">800</property>
  <property name="meta.media.height">600</property>
  <property name="meta.media.color_range">mpeg</property>
  <property name="meta.media.top_field_first">0</property>
  <property name="meta.media.progressive">1</property>
  <property name="set.test_audio">1</property>
  <property name="set.test_image">0</property>
 </producer>
 <playlist id="playlist8">
  <entry producer="producer92" in="00:00:06.400" out="00:00:50.967">
   <property name="kdenlive:id">4</property>
   <filter id="filter13">
    <property name="version">0.1</property>
    <property name="mlt_service">frei0r.scale0tilt</property>
    <property name="kdenlive_id">Facecam crop</property>
    <property name="Clip left">00:00:06.400=0.296875</property>
    <property name="Clip right">00:00:06.400=0.224219</property>
    <property name="Clip top">00:00:06.400=0.0944444</property>
    <property name="Clip bottom">00:00:06.400=0</property>
    <property name="Scale X">00:00:06.400=0.27</property>
    <property name="Scale Y">00:00:06.400=0.27</property>
    <property name="Tilt X">00:00:06.400=0.790104</property>
    <property name="Tilt Y">00:00:06.400=0.730556</property>
    <property name="kdenlive:collapsed">0</property>
   </filter>
  </entry>
  <entry producer="producer92" in="00:00:53.033" out="00:00:58.467">
   <property name="kdenlive:id">4</property>
   <filter id="filter14">
    <property name="version">0.1</property>
    <property name="mlt_service">frei0r.scale0tilt</property>
    <property name="kdenlive_id">Facecam crop</property>
    <property name="Clip left">00:00:53.033=0.296875</property>
    <property name="Clip right">00:00:53.033=0.224219</property>
    <property name="Clip top">00:00:53.033=0.0944444</property>
    <property name="Clip bottom">00:00:53.033=0</property>
    <property name="Scale X">00:00:53.033=0.27</property>
    <property name="Scale Y">00:00:53.033=0.27</property>
    <property name="Tilt X">00:00:53.033=0.790104</property>
    <property name="Tilt Y">00:00:53.033=0.730556</property>
   </filter>
  </entry>
  <entry producer="producer92" in="00:01:00.167" out="00:01:08.533">
   <property name="kdenlive:id">4</property>
   <filter id="filter15">
    <property name="version">0.1</property>
    <property name="mlt_service">frei0r.scale0tilt</property>
    <property name="kdenlive_id">Facecam crop</property>
    <property name="Clip left">00:01:00.167=0.296875</property>
    <property name="Clip right">00:01:00.167=0.224219</property>
    <property name="Clip top">00:01:00.167=0.0944444</property>
    <property name="Clip bottom">00:01:00.167=0</property>
    <property name="Scale X">00:01:00.167=0.27</property>
    <property name="Scale Y">00:01:00.167=0.27</property>
    <property name="Tilt X">00:01:00.167=0.790104</property>
    <property name="Tilt Y">00:01:00.167=0.730556</property>
   </filter>
  </entry>
  <entry producer="producer92" in="00:01:10.700" out="00:01:53.167">
   <property name="kdenlive:id">4</property>
   <filter id="filter16">
    <property name="version">0.1</property>
    <property name="mlt_service">frei0r.scale0tilt</property>
    <property name="kdenlive_id">Facecam crop</property>
    <property name="Clip left">00:01:10.700=0.296875</property>
    <property name="Clip right">00:01:10.700=0.224219</property>
    <property name="Clip top">00:01:10.700=0.0944444</property>
    <property name="Clip bottom">00:01:10.700=0</property>
    <property name="Scale X">00:01:10.700=0.27</property>
    <property name="Scale Y">00:01:10.700=0.27</property>
    <property name="Tilt X">00:01:10.700=0.790104</property>
    <property name="Tilt Y">00:01:10.700=0.730556</property>
   </filter>
  </entry>
  <entry producer="producer92" in="00:01:54.333" out="00:01:58.900">
   <property name="kdenlive:id">4</property>
   <filter id="filter17">
    <property name="version">0.1</property>
    <property name="mlt_service">frei0r.scale0tilt</property>
    <property name="kdenlive_id">Facecam crop</property>
    <property name="Clip left">00:01:54.333=0.296875</property>
    <property name="Clip right">00:01:54.333=0.224219</property>
    <property name="Clip top">00:01:54.333=0.0944444</property>
    <property name="Clip bottom">00:01:54.333=0</property>
    <property name="Scale X">00:01:54.333=0.27</property>
    <property name="Scale Y">00:01:54.333=0.27</property>
    <property name="Tilt X">00:01:54.333=0.790104</property>
    <property name="Tilt Y">00:01:54.333=0.730556</property>
   </filter>
  </entry>
  <entry producer="producer92" in="00:02:00.800" out="00:02:14.033">
   <property name="kdenlive:id">4</property>
   <filter id="filter18">
    <property name="version">0.1</property>
    <property name="mlt_service">frei0r.scale0tilt</property>
    <property name="kdenlive_id">Facecam crop</property>
    <property name="Clip left">00:02:00.800=0.296875</property>
    <property name="Clip right">00:02:00.800=0.224219</property>
    <property name="Clip top">00:02:00.800=0.0944444</property>
    <property name="Clip bottom">00:02:00.800=0</property>
    <property name="Scale X">00:02:00.800=0.27</property>
    <property name="Scale Y">00:02:00.800=0.27</property>
    <property name="Tilt X">00:02:00.800=0.790104</property>
    <property name="Tilt Y">00:02:00.800=0.730556</property>
   </filter>
  </entry>
  <entry producer="producer92" in="00:02:16.100" out="00:02:21.333">
   <property name="kdenlive:id">4</property>
   <filter id="filter19">
    <property name="version">0.1</property>
    <property name="mlt_service">frei0r.scale0tilt</property>
    <property name="kdenlive_id">Facecam crop</property>
    <property name="Clip left">00:02:16.100=0.296875</property>
    <property name="Clip right">00:02:16.100=0.224219</property>
    <property name="Clip top">00:02:16.100=0.0944444</property>
    <property name="Clip bottom">00:02:16.100=0</property>
    <property name="Scale X">00:02:16.100=0.27</property>
    <property name="Scale Y">00:02:16.100=0.27</property>
    <property name="Tilt X">00:02:16.100=0.790104</property>
    <property name="Tilt Y">00:02:16.100=0.730556</property>
   </filter>
  </entry>
  <entry producer="producer92" in="00:02:22.533" out="00:02:39.667">
   <property name="kdenlive:id">4</property>
   <filter id="filter20">
    <property name="version">0.1</property>
    <property name="mlt_service">frei0r.scale0tilt</property>
    <property name="kdenlive_id">Facecam crop</property>
    <property name="Clip left">00:02:22.533=0.296875</property>
    <property name="Clip right">00:02:22.533=0.224219</property>
    <property name="Clip top">00:02:22.533=0.0944444</property>
    <property name="Clip bottom">00:02:22.533=0</property>
    <property name="Scale X">00:02:22.533=0.27</property>
    <property name="Scale Y">00:02:22.533=0.27</property>
    <property name="Tilt X">00:02:22.533=0.790104</property>
    <property name="Tilt Y">00:02:22.533=0.730556</property>
   </filter>
  </entry>
  <entry producer="producer92" in="00:02:41.200" out="00:02:51.600">
   <property name="kdenlive:id">4</property>
   <filter id="filter21">
    <property name="version">0.1</property>
    <property name="mlt_service">frei0r.scale0tilt</property>
    <property name="kdenlive_id">Facecam crop</property>
    <property name="Clip left">00:02:41.200=0.296875</property>
    <property name="Clip right">00:02:41.200=0.224219</property>
    <property name="Clip top">00:02:41.200=0.0944444</property>
    <property name="Clip bottom">00:02:41.200=0</property>
    <property name="Scale X">00:02:41.200=0.27</property>
    <property name="Scale Y">00:02:41.200=0.27</property>
    <property name="Tilt X">00:02:41.200=0.790104</property>
    <property name="Tilt Y">00:02:41.200=0.730556</property>
   </filter>
  </entry>
  <entry producer="producer92" in="00:02:52.133" out="00:02:55.267">
   <property name="kdenlive:id">4</property>
   <filter id="filter22">
    <property name="version">0.1</property>
    <property name="mlt_service">frei0r.scale0tilt</property>
    <property name="kdenlive_id">Facecam crop</property>
    <property name="Clip left">00:02:52.133=0.296875</property>
    <property name="Clip right">00:02:52.133=0.224219</property>
    <property name="Clip top">00:02:52.133=0.0944444</property>
    <property name="Clip bottom">00:02:52.133=0</property>
    <property name="Scale X">00:02:52.133=0.27</property>
    <property name="Scale Y">00:02:52.133=0.27</property>
    <property name="Tilt X">00:02:52.133=0.790104</property>
    <property name="Tilt Y">00:02:52.133=0.730556</property>
   </filter>
  </entry>
  <entry producer="producer92" in="00:02:57.233" out="00:03:25.633">
   <property name="kdenlive:id">4</property>
   <filter id="filter23">
    <property name="version">0.1</property>
    <property name="mlt_service">frei0r.scale0tilt</property>
    <property name="kdenlive_id">Facecam crop</property>
    <property name="Clip left">00:02:57.233=0.296875</property>
    <property name="Clip right">00:02:57.233=0.224219</property>
    <property name="Clip top">00:02:57.233=0.0944444</property>
    <property name="Clip bottom">00:02:57.233=0</property>
    <property name="Scale X">00:02:57.233=0.27</property>
    <property name="Scale Y">00:02:57.233=0.27</property>
    <property name="Tilt X">00:02:57.233=0.790104</property>
    <property name="Tilt Y">00:02:57.233=0.730556</property>
   </filter>
  </entry>
  <entry producer="producer92" in="00:03:26.700" out="00:03:49.067">
   <property name="kdenlive:id">4</property>
   <filter id="filter24">
    <property name="version">0.1</property>
    <property name="mlt_service">frei0r.scale0tilt</property>
    <property name="kdenlive_id">Facecam crop</property>
    <property name="Clip left">00:03:26.700=0.296875</property>
    <property name="Clip right">00:03:26.700=0.224219</property>
    <property name="Clip top">00:03:26.700=0.0944444</property>
    <property name="Clip bottom">00:03:26.700=0</property>
    <property name="Scale X">00:03:26.700=0.27</property>
    <property name="Scale Y">00:03:26.700=0.27</property>
    <property name="Tilt X">00:03:26.700=0.790104</property>
    <property name="Tilt Y">00:03:26.700=0.730556</property>
   </filter>
  </entry>
  <entry producer="producer92" in="00:03:49.867" out="00:03:57.267">
   <property name="kdenlive:id">4</property>
   <filter id="filter25">
    <property name="version">0.1</property>
    <property name="mlt_service">frei0r.scale0tilt</property>
    <property name="kdenlive_id">Facecam crop</property>
    <property name="Clip left">00:03:49.867=0.296875</property>
    <property name="Clip right">00:03:49.867=0.224219</property>
    <property name="Clip top">00:03:49.867=0.0944444</property>
    <property name="Clip bottom">00:03:49.867=0</property>
    <property name="Scale X">00:03:49.867=0.27</property>
    <property name="Scale Y">00:03:49.867=0.27</property>
    <property name="Tilt X">00:03:49.867=0.790104</property>
    <property name="Tilt Y">00:03:49.867=0.730556</property>
   </filter>
  </entry>
  <entry producer="producer92" in="00:04:05.267" out="00:04:09.067">
   <property name="kdenlive:id">4</property>
   <filter id="filter26">
    <property name="version">0.1</property>
    <property name="mlt_service">frei0r.scale0tilt</property>
    <property name="kdenlive_id">Facecam crop</property>
    <property name="Clip left">00:04:05.267=0.296875</property>
    <property name="Clip right">00:04:05.267=0.224219</property>
    <property name="Clip top">00:04:05.267=0.0944444</property>
    <property name="Clip bottom">00:04:05.267=0</property>
    <property name="Scale X">00:04:05.267=0.27</property>
    <property name="Scale Y">00:04:05.267=0.27</property>
    <property name="Tilt X">00:04:05.267=0.790104</property>
    <property name="Tilt Y">00:04:05.267=0.730556</property>
   </filter>
  </entry>
  <entry producer="producer92" in="00:05:48.400" out="00:06:14.967">
   <property name="kdenlive:id">4</property>
   <filter id="filter27">
    <property name="version">0.1</property>
    <property name="mlt_service">frei0r.scale0tilt</property>
    <property name="kdenlive_id">Facecam crop</property>
    <property name="Clip left">00:05:48.400=0.296875</property>
    <property name="Clip right">00:05:48.400=0.224219</property>
    <property name="Clip top">00:05:48.400=0.0944444</property>
    <property name="Clip bottom">00:05:48.400=0</property>
    <property name="Scale X">00:05:48.400=0.27</property>
    <property name="Scale Y">00:05:48.400=0.27</property>
    <property name="Tilt X">00:05:48.400=0.790104</property>
    <property name="Tilt Y">00:05:48.400=0.730556</property>
   </filter>
  </entry>
  <entry producer="producer92" in="00:06:16.200" out="00:06:41.767">
   <property name="kdenlive:id">4</property>
   <filter id="filter28">
    <property name="version">0.1</property>
    <property name="mlt_service">frei0r.scale0tilt</property>
    <property name="kdenlive_id">Facecam crop</property>
    <property name="Clip left">00:06:16.200=0.296875</property>
    <property name="Clip right">00:06:16.200=0.224219</property>
    <property name="Clip top">00:06:16.200=0.0944444</property>
    <property name="Clip bottom">00:06:16.200=0</property>
    <property name="Scale X">00:06:16.200=0.27</property>
    <property name="Scale Y">00:06:16.200=0.27</property>
    <property name="Tilt X">00:06:16.200=0.790104</property>
    <property name="Tilt Y">00:06:16.200=0.730556</property>
   </filter>
  </entry>
  <entry producer="producer92" in="00:06:44.300" out="00:06:55.167">
   <property name="kdenlive:id">4</property>
   <filter id="filter29">
    <property name="version">0.1</property>
    <property name="mlt_service">frei0r.scale0tilt</property>
    <property name="kdenlive_id">Facecam crop</property>
    <property name="Clip left">00:06:44.300=0.296875</property>
    <property name="Clip right">00:06:44.300=0.224219</property>
    <property name="Clip top">00:06:44.300=0.0944444</property>
    <property name="Clip bottom">00:06:44.300=0</property>
    <property name="Scale X">00:06:44.300=0.27</property>
    <property name="Scale Y">00:06:44.300=0.27</property>
    <property name="Tilt X">00:06:44.300=0.790104</property>
    <property name="Tilt Y">00:06:44.300=0.730556</property>
   </filter>
  </entry>
  <entry producer="producer92" in="00:06:57.233" out="00:07:00.933">
   <property name="kdenlive:id">4</property>
   <filter id="filter30">
    <property name="version">0.1</property>
    <property name="mlt_service">frei0r.scale0tilt</property>
    <property name="kdenlive_id">Facecam crop</property>
    <property name="Clip left">00:06:57.233=0.296875</property>
    <property name="Clip right">00:06:57.233=0.224219</property>
    <property name="Clip top">00:06:57.233=0.0944444</property>
    <property name="Clip bottom">00:06:57.233=0</property>
    <property name="Scale X">00:06:57.233=0.27</property>
    <property name="Scale Y">00:06:57.233=0.27</property>
    <property name="Tilt X">00:06:57.233=0.790104</property>
    <property name="Tilt Y">00:06:57.233=0.730556</property>
   </filter>
  </entry>
  <entry producer="producer92" in="00:07:02.067" out="00:07:26.000">
   <property name="kdenlive:id">4</property>
   <filter id="filter31">
    <property name="version">0.1</property>
    <property name="mlt_service">frei0r.scale0tilt</property>
    <property name="kdenlive_id">Facecam crop</property>
    <property name="Clip left">00:07:02.067=0.296875</property>
    <property name="Clip right">00:07:02.067=0.224219</property>
    <property name="Clip top">00:07:02.067=0.0944444</property>
    <property name="Clip bottom">00:07:02.067=0</property>
    <property name="Scale X">00:07:02.067=0.27</property>
    <property name="Scale Y">00:07:02.067=0.27</property>
    <property name="Tilt X">00:07:02.067=0.790104</property>
    <property name="Tilt Y">00:07:02.067=0.730556</property>
   </filter>
  </entry>
  <entry producer="producer92" in="00:07:30.133" out="00:07:42.800">
   <property name="kdenlive:id">4</property>
   <filter id="filter32">
    <property name="version">0.1</property>
    <property name="mlt_service">frei0r.scale0tilt</property>
    <property name="kdenlive_id">Facecam crop</property>
    <property name="Clip left">00:07:30.133=0.296875</property>
    <property name="Clip right">00:07:30.133=0.224219</property>
    <property name="Clip top">00:07:30.133=0.0944444</property>
    <property name="Clip bottom">00:07:30.133=0</property>
    <property name="Scale X">00:07:30.133=0.27</property>
    <property name="Scale Y">00:07:30.133=0.27</property>
    <property name="Tilt X">00:07:30.133=0.790104</property>
    <property name="Tilt Y">00:07:30.133=0.730556</property>
   </filter>
  </entry>
  <entry producer="producer92" in="00:07:43.667" out="00:08:00.400">
   <property name="kdenlive:id">4</property>
   <filter id="filter33">
    <property name="version">0.1</property>
    <property name="mlt_service">frei0r.scale0tilt</property>
    <property name="kdenlive_id">Facecam crop</property>
    <property name="Clip left">00:07:43.667=0.296875</property>
    <property name="Clip right">00:07:43.667=0.224219</property>
    <property name="Clip top">00:07:43.667=0.0944444</property>
    <property name="Clip bottom">00:07:43.667=0</property>
    <property name="Scale X">00:07:43.667=0.27</property>
    <property name="Scale Y">00:07:43.667=0.27</property>
    <property name="Tilt X">00:07:43.667=0.790104</property>
    <property name="Tilt Y">00:07:43.667=0.730556</property>
   </filter>
  </entry>
  <entry producer="producer92" in="00:08:02.367" out="00:08:13.833">
   <property name="kdenlive:id">4</property>
   <filter id="filter34">
    <property name="version">0.1</property>
    <property name="mlt_service">frei0r.scale0tilt</property>
    <property name="kdenlive_id">Facecam crop</property>
    <property name="Clip left">00:08:02.367=0.296875</property>
    <property name="Clip right">00:08:02.367=0.224219</property>
    <property name="Clip top">00:08:02.367=0.0944444</property>
    <property name="Clip bottom">00:08:02.367=0</property>
    <property name="Scale X">00:08:02.367=0.27</property>
    <property name="Scale Y">00:08:02.367=0.27</property>
    <property name="Tilt X">00:08:02.367=0.790104</property>
    <property name="Tilt Y">00:08:02.367=0.730556</property>
   </filter>
  </entry>
  <entry producer="producer92" in="00:09:50.733" out="00:10:37.900">
   <property name="kdenlive:id">4</property>
   <filter id="filter35">
    <property name="version">0.1</property>
    <property name="mlt_service">frei0r.scale0tilt</property>
    <property name="kdenlive_id">Facecam crop</property>
    <property name="Clip left">00:09:50.733=0.296875</property>
    <property name="Clip right">00:09:50.733=0.224219</property>
    <property name="Clip top">00:09:50.733=0.0944444</property>
    <property name="Clip bottom">00:09:50.733=0</property>
    <property name="Scale X">00:09:50.733=0.27</property>
    <property name="Scale Y">00:09:50.733=0.27</property>
    <property name="Tilt X">00:09:50.733=0.790104</property>
    <property name="Tilt Y">00:09:50.733=0.730556</property>
   </filter>
  </entry>
  <entry producer="producer92" in="00:10:39.700" out="00:10:45.867">
   <property name="kdenlive:id">4</property>
   <filter id="filter36">
    <property name="version">0.1</property>
    <property name="mlt_service">frei0r.scale0tilt</property>
    <property name="kdenlive_id">Facecam crop</property>
    <property name="Clip left">00:10:39.700=0.296875</property>
    <property name="Clip right">00:10:39.700=0.224219</property>
    <property name="Clip top">00:10:39.700=0.0944444</property>
    <property name="Clip bottom">00:10:39.700=0</property>
    <property name="Scale X">00:10:39.700=0.27</property>
    <property name="Scale Y">00:10:39.700=0.27</property>
    <property name="Tilt X">00:10:39.700=0.790104</property>
    <property name="Tilt Y">00:10:39.700=0.730556</property>
   </filter>
  </entry>
  <entry producer="producer92" in="00:12:37.167" out="00:14:40.267">
   <property name="kdenlive:id">4</property>
   <filter id="filter37">
    <property name="version">0.1</property>
    <property name="mlt_service">frei0r.scale0tilt</property>
    <property name="kdenlive_id">Facecam crop</property>
    <property name="Clip left">00:12:37.167=0.296875</property>
    <property name="Clip right">00:12:37.167=0.224219</property>
    <property name="Clip top">00:12:37.167=0.0944444</property>
    <property name="Clip bottom">00:12:37.167=0</property>
    <property name="Scale X">00:12:37.167=0.27</property>
    <property name="Scale Y">00:12:37.167=0.27</property>
    <property name="Tilt X">00:12:37.167=0.790104</property>
    <property name="Tilt Y">00:12:37.167=0.730556</property>
   </filter>
  </entry>
  <entry producer="producer92" in="00:16:21.667" out="00:17:32.800">
   <property name="kdenlive:id">4</property>
   <filter id="filter38">
    <property name="version">0.1</property>
    <property name="mlt_service">frei0r.scale0tilt</property>
    <property name="kdenlive_id">Facecam crop</property>
    <property name="Clip left">00:16:21.667=0.296875</property>
    <property name="Clip right">00:16:21.667=0.224219</property>
    <property name="Clip top">00:16:21.667=0.0944444</property>
    <property name="Clip bottom">00:16:21.667=0</property>
    <property name="Scale X">00:16:21.667=0.27</property>
    <property name="Scale Y">00:16:21.667=0.27</property>
    <property name="Tilt X">00:16:21.667=0.790104</property>
    <property name="Tilt Y">00:16:21.667=0.730556</property>
   </filter>
  </entry>
  <entry producer="producer92" in="00:17:57.267" out="00:18:26.933">
   <property name="kdenlive:id">4</property>
   <filter id="filter39">
    <property name="version">0.1</property>
    <property name="mlt_service">frei0r.scale0tilt</property>
    <property name="kdenlive_id">Facecam crop</property>
    <property name="Clip left">00:17:57.267=0.296875</property>
    <property name="Clip right">00:17:57.267=0.224219</property>
    <property name="Clip top">00:17:57.267=0.0944444</property>
    <property name="Clip bottom">00:17:57.267=0</property>
    <property name="Scale X">00:17:57.267=0.27</property>
    <property name="Scale Y">00:17:57.267=0.27</property>
    <property name="Tilt X">00:17:57.267=0.790104</property>
    <property name="Tilt Y">00:17:57.267=0.730556</property>
   </filter>
  </entry>
  <entry producer="producer92" in="00:18:28.967" out="00:19:10.733">
   <property name="kdenlive:id">4</property>
   <filter id="filter40">
    <property name="version">0.1</property>
    <property name="mlt_service">frei0r.scale0tilt</property>
    <property name="kdenlive_id">Facecam crop</property>
    <property name="Clip left">00:18:28.967=0.296875</property>
    <property name="Clip right">00:18:28.967=0.224219</property>
    <property name="Clip top">00:18:28.967=0.0944444</property>
    <property name="Clip bottom">00:18:28.967=0</property>
    <property name="Scale X">00:18:28.967=0.27</property>
    <property name="Scale Y">00:18:28.967=0.27</property>
    <property name="Tilt X">00:18:28.967=0.790104</property>
    <property name="Tilt Y">00:18:28.967=0.730556</property>
   </filter>
  </entry>
  <entry producer="producer92" in="00:19:45.333" out="00:20:45.367">
   <property name="kdenlive:id">4</property>
   <filter id="filter41">
    <property name="version">0.1</property>
    <property name="mlt_service">frei0r.scale0tilt</property>
    <property name="kdenlive_id">Facecam crop</property>
    <property name="Clip left">00:19:45.333=0.296875</property>
    <property name="Clip right">00:19:45.333=0.224219</property>
    <property name="Clip top">00:19:45.333=0.0944444</property>
    <property name="Clip bottom">00:19:45.333=0</property>
    <property name="Scale X">00:19:45.333=0.27</property>
    <property name="Scale Y">00:19:45.333=0.27</property>
    <property name="Tilt X">00:19:45.333=0.790104</property>
    <property name="Tilt Y">00:19:45.333=0.730556</property>
   </filter>
  </entry>
  <entry producer="producer92" in="00:22:10.933" out="00:23:22.333">
   <property name="kdenlive:id">4</property>
   <filter id="filter42">
    <property name="version">0.1</property>
    <property name="mlt_service">frei0r.scale0tilt</property>
    <property name="kdenlive_id">Facecam crop</property>
    <property name="Clip left">00:22:10.933=0.296875</property>
    <property name="Clip right">00:22:10.933=0.224219</property>
    <property name="Clip top">00:22:10.933=0.0944444</property>
    <property name="Clip bottom">00:22:10.933=0</property>
    <property name="Scale X">00:22:10.933=0.27</property>
    <property name="Scale Y">00:22:10.933=0.27</property>
    <property name="Tilt X">00:22:10.933=0.790104</property>
    <property name="Tilt Y">00:22:10.933=0.730556</property>
   </filter>
  </entry>
  <entry producer="producer92" in="00:23:23.767" out="00:23:40.833">
   <property name="kdenlive:id">4</property>
   <filter id="filter43">
    <property name="version">0.1</property>
    <property name="mlt_service">frei0r.scale0tilt</property>
    <property name="kdenlive_id">Facecam crop</property>
    <property name="Clip left">00:23:23.767=0.296875</property>
    <property name="Clip right">00:23:23.767=0.224219</property>
    <property name="Clip top">00:23:23.767=0.0944444</property>
    <property name="Clip bottom">00:23:23.767=0</property>
    <property name="Scale X">00:23:23.767=0.27</property>
    <property name="Scale Y">00:23:23.767=0.27</property>
    <property name="Tilt X">00:23:23.767=0.790104</property>
    <property name="Tilt Y">00:23:23.767=0.730556</property>
   </filter>
  </entry>
  <entry producer="producer92" in="00:23:42.100" out="00:24:06.100">
   <property name="kdenlive:id">4</property>
   <filter id="filter44">
    <property name="version">0.1</property>
    <property name="mlt_service">frei0r.scale0tilt</property>
    <property name="kdenlive_id">Facecam crop</property>
    <property name="Clip left">00:23:42.100=0.296875</property>
    <property name="Clip right">00:23:42.100=0.224219</property>
    <property name="Clip top">00:23:42.100=0.0944444</property>
    <property name="Clip bottom">00:23:42.100=0</property>
    <property name="Scale X">00:23:42.100=0.27</property>
    <property name="Scale Y">00:23:42.100=0.27</property>
    <property name="Tilt X">00:23:42.100=0.790104</property>
    <property name="Tilt Y">00:23:42.100=0.730556</property>
    <property name="kdenlive:collapsed">0</property>
   </filter>
  </entry>
  <entry producer="producer93" in="00:00:03.133" out="00:01:38.767">
   <property name="kdenlive:id">7</property>
   <filter id="filter45">
    <property name="version">0.1</property>
    <property name="mlt_service">frei0r.scale0tilt</property>
    <property name="kdenlive_id">Facecam crop</property>
    <property name="Clip left">00:00:03.133=0.296875</property>
    <property name="Clip right">00:00:03.133=0.224219</property>
    <property name="Clip top">00:00:03.133=0.0944444</property>
    <property name="Clip bottom">00:00:03.133=0</property>
    <property name="Scale X">00:00:03.133=0.27</property>
    <property name="Scale Y">00:00:03.133=0.27</property>
    <property name="Tilt X">00:00:03.133=0.790104</property>
    <property name="Tilt Y">00:00:03.133=0.730556</property>
   </filter>
  </entry>
  <entry producer="producer93" in="00:01:42.667" out="00:02:11.200">
   <property name="kdenlive:id">7</property>
   <filter id="filter46">
    <property name="version">0.1</property>
    <property name="mlt_service">frei0r.scale0tilt</property>
    <property name="kdenlive_id">Facecam crop</property>
    <property name="Clip left">00:01:42.667=0.296875</property>
    <property name="Clip right">00:01:42.667=0.224219</property>
    <property name="Clip top">00:01:42.667=0.0944444</property>
    <property name="Clip bottom">00:01:42.667=0</property>
    <property name="Scale X">00:01:42.667=0.27</property>
    <property name="Scale Y">00:01:42.667=0.27</property>
    <property name="Tilt X">00:01:42.667=0.790104</property>
    <property name="Tilt Y">00:01:42.667=0.730556</property>
   </filter>
  </entry>
  <entry producer="producer93" in="00:02:19.933" out="00:02:31.367">
   <property name="kdenlive:id">7</property>
   <filter id="filter47">
    <property name="version">0.1</property>
    <property name="mlt_service">frei0r.scale0tilt</property>
    <property name="kdenlive_id">Facecam crop</property>
    <property name="Clip left">00:02:19.933=0.296875</property>
    <property name="Clip right">00:02:19.933=0.224219</property>
    <property name="Clip top">00:02:19.933=0.0944444</property>
    <property name="Clip bottom">00:02:19.933=0</property>
    <property name="Scale X">00:02:19.933=0.27</property>
    <property name="Scale Y">00:02:19.933=0.27</property>
    <property name="Tilt X">00:02:19.933=0.790104</property>
    <property name="Tilt Y">00:02:19.933=0.730556</property>
   </filter>
  </entry>
  <entry producer="producer93" in="00:02:33.100" out="00:02:42.267">
   <property name="kdenlive:id">7</property>
   <filter id="filter48">
    <property name="version">0.1</property>
    <property name="mlt_service">frei0r.scale0tilt</property>
    <property name="kdenlive_id">Facecam crop</property>
    <property name="Clip left">00:02:33.100=0.296875</property>
    <property name="Clip right">00:02:33.100=0.224219</property>
    <property name="Clip top">00:02:33.100=0.0944444</property>
    <property name="Clip bottom">00:02:33.100=0</property>
    <property name="Scale X">00:02:33.100=0.27</property>
    <property name="Scale Y">00:02:33.100=0.27</property>
    <property name="Tilt X">00:02:33.100=0.790104</property>
    <property name="Tilt Y">00:02:33.100=0.730556</property>
   </filter>
  </entry>
  <entry producer="producer93" in="00:02:44.500" out="00:02:48.200">
   <property name="kdenlive:id">7</property>
   <filter id="filter49">
    <property name="version">0.1</property>
    <property name="mlt_service">frei0r.scale0tilt</property>
    <property name="kdenlive_id">Facecam crop</property>
    <property name="Clip left">00:02:44.500=0.296875</property>
    <property name="Clip right">00:02:44.500=0.224219</property>
    <property name="Clip top">00:02:44.500=0.0944444</property>
    <property name="Clip bottom">00:02:44.500=0</property>
    <property name="Scale X">00:02:44.500=0.27</property>
    <property name="Scale Y">00:02:44.500=0.27</property>
    <property name="Tilt X">00:02:44.500=0.790104</property>
    <property name="Tilt Y">00:02:44.500=0.730556</property>
   </filter>
  </entry>
  <entry producer="producer93" in="00:03:02.833" out="00:03:19.733">
   <property name="kdenlive:id">7</property>
   <filter id="filter50">
    <property name="version">0.1</property>
    <property name="mlt_service">frei0r.scale0tilt</property>
    <property name="kdenlive_id">Facecam crop</property>
    <property name="Clip left">00:03:02.833=0.296875</property>
    <property name="Clip right">00:03:02.833=0.224219</property>
    <property name="Clip top">00:03:02.833=0.0944444</property>
    <property name="Clip bottom">00:03:02.833=0</property>
    <property name="Scale X">00:03:02.833=0.27</property>
    <property name="Scale Y">00:03:02.833=0.27</property>
    <property name="Tilt X">00:03:02.833=0.790104</property>
    <property name="Tilt Y">00:03:02.833=0.730556</property>
   </filter>
  </entry>
  <entry producer="producer93" in="00:03:26.167" out="00:03:44.867">
   <property name="kdenlive:id">7</property>
   <filter id="filter51">
    <property name="version">0.1</property>
    <property name="mlt_service">frei0r.scale0tilt</property>
    <property name="kdenlive_id">Facecam crop</property>
    <property name="Clip left">00:03:26.167=0.296875</property>
    <property name="Clip right">00:03:26.167=0.224219</property>
    <property name="Clip top">00:03:26.167=0.0944444</property>
    <property name="Clip bottom">00:03:26.167=0</property>
    <property name="Scale X">00:03:26.167=0.27</property>
    <property name="Scale Y">00:03:26.167=0.27</property>
    <property name="Tilt X">00:03:26.167=0.790104</property>
    <property name="Tilt Y">00:03:26.167=0.730556</property>
   </filter>
  </entry>
  <entry producer="producer93" in="00:03:47.267" out="00:03:49.233">
   <property name="kdenlive:id">7</property>
   <filter id="filter52">
    <property name="version">0.1</property>
    <property name="mlt_service">frei0r.scale0tilt</property>
    <property name="kdenlive_id">Facecam crop</property>
    <property name="Clip left">00:03:47.267=0.296875</property>
    <property name="Clip right">00:03:47.267=0.224219</property>
    <property name="Clip top">00:03:47.267=0.0944444</property>
    <property name="Clip bottom">00:03:47.267=0</property>
    <property name="Scale X">00:03:47.267=0.27</property>
    <property name="Scale Y">00:03:47.267=0.27</property>
    <property name="Tilt X">00:03:47.267=0.790104</property>
    <property name="Tilt Y">00:03:47.267=0.730556</property>
   </filter>
  </entry>
  <entry producer="producer93" in="00:03:59.833" out="00:04:10.667">
   <property name="kdenlive:id">7</property>
   <filter id="filter53">
    <property name="version">0.1</property>
    <property name="mlt_service">frei0r.scale0tilt</property>
    <property name="kdenlive_id">Facecam crop</property>
    <property name="Clip left">00:03:59.833=0.296875</property>
    <property name="Clip right">00:03:59.833=0.224219</property>
    <property name="Clip top">00:03:59.833=0.0944444</property>
    <property name="Clip bottom">00:03:59.833=0</property>
    <property name="Scale X">00:03:59.833=0.27</property>
    <property name="Scale Y">00:03:59.833=0.27</property>
    <property name="Tilt X">00:03:59.833=0.790104</property>
    <property name="Tilt Y">00:03:59.833=0.730556</property>
   </filter>
  </entry>
  <entry producer="producer93" in="00:04:19.367" out="00:04:23.533">
   <property name="kdenlive:id">7</property>
   <filter id="filter54">
    <property name="version">0.1</property>
    <property name="mlt_service">frei0r.scale0tilt</property>
    <property name="kdenlive_id">Facecam crop</property>
    <property name="Clip left">00:04:19.367=0.296875</property>
    <property name="Clip right">00:04:19.367=0.224219</property>
    <property name="Clip top">00:04:19.367=0.0944444</property>
    <property name="Clip bottom">00:04:19.367=0</property>
    <property name="Scale X">00:04:19.367=0.27</property>
    <property name="Scale Y">00:04:19.367=0.27</property>
    <property name="Tilt X">00:04:19.367=0.790104</property>
    <property name="Tilt Y">00:04:19.367=0.730556</property>
   </filter>
  </entry>
  <entry producer="producer93" in="00:04:26.800" out="00:04:28.367">
   <property name="kdenlive:id">7</property>
   <filter id="filter55">
    <property name="version">0.1</property>
    <property name="mlt_service">frei0r.scale0tilt</property>
    <property name="kdenlive_id">Facecam crop</property>
    <property name="Clip left">00:04:26.800=0.296875</property>
    <property name="Clip right">00:04:26.800=0.224219</property>
    <property name="Clip top">00:04:26.800=0.0944444</property>
    <property name="Clip bottom">00:04:26.800=0</property>
    <property name="Scale X">00:04:26.800=0.27</property>
    <property name="Scale Y">00:04:26.800=0.27</property>
    <property name="Tilt X">00:04:26.800=0.790104</property>
    <property name="Tilt Y">00:04:26.800=0.730556</property>
   </filter>
  </entry>
  <entry producer="producer93" in="00:04:31.233" out="00:04:41.300">
   <property name="kdenlive:id">7</property>
   <filter id="filter56">
    <property name="version">0.1</property>
    <property name="mlt_service">frei0r.scale0tilt</property>
    <property name="kdenlive_id">Facecam crop</property>
    <property name="Clip left">00:04:31.233=0.296875</property>
    <property name="Clip right">00:04:31.233=0.224219</property>
    <property name="Clip top">00:04:31.233=0.0944444</property>
    <property name="Clip bottom">00:04:31.233=0</property>
    <property name="Scale X">00:04:31.233=0.27</property>
    <property name="Scale Y">00:04:31.233=0.27</property>
    <property name="Tilt X">00:04:31.233=0.790104</property>
    <property name="Tilt Y">00:04:31.233=0.730556</property>
   </filter>
  </entry>
  <entry producer="producer93" in="00:04:58.033" out="00:05:16.800">
   <property name="kdenlive:id">7</property>
   <filter id="filter57">
    <property name="version">0.1</property>
    <property name="mlt_service">frei0r.scale0tilt</property>
    <property name="kdenlive_id">Facecam crop</property>
    <property name="Clip left">00:04:58.033=0.296875</property>
    <property name="Clip right">00:04:58.033=0.224219</property>
    <property name="Clip top">00:04:58.033=0.0944444</property>
    <property name="Clip bottom">00:04:58.033=0</property>
    <property name="Scale X">00:04:58.033=0.27</property>
    <property name="Scale Y">00:04:58.033=0.27</property>
    <property name="Tilt X">00:04:58.033=0.790104</property>
    <property name="Tilt Y">00:04:58.033=0.730556</property>
   </filter>
  </entry>
  <entry producer="producer93" in="00:05:38.867" out="00:05:40.300">
   <property name="kdenlive:id">7</property>
   <filter id="filter58">
    <property name="version">0.1</property>
    <property name="mlt_service">frei0r.scale0tilt</property>
    <property name="kdenlive_id">Facecam crop</property>
    <property name="Clip left">00:05:38.867=0.296875</property>
    <property name="Clip right">00:05:38.867=0.224219</property>
    <property name="Clip top">00:05:38.867=0.0944444</property>
    <property name="Clip bottom">00:05:38.867=0</property>
    <property name="Scale X">00:05:38.867=0.27</property>
    <property name="Scale Y">00:05:38.867=0.27</property>
    <property name="Tilt X">00:05:38.867=0.790104</property>
    <property name="Tilt Y">00:05:38.867=0.730556</property>
   </filter>
  </entry>
  <entry producer="producer93" in="00:05:42.833" out="00:05:47.233">
   <property name="kdenlive:id">7</property>
   <filter id="filter59">
    <property name="version">0.1</property>
    <property name="mlt_service">frei0r.scale0tilt</property>
    <property name="kdenlive_id">Facecam crop</property>
    <property name="Clip left">00:05:42.833=0.296875</property>
    <property name="Clip right">00:05:42.833=0.224219</property>
    <property name="Clip top">00:05:42.833=0.0944444</property>
    <property name="Clip bottom">00:05:42.833=0</property>
    <property name="Scale X">00:05:42.833=0.27</property>
    <property name="Scale Y">00:05:42.833=0.27</property>
    <property name="Tilt X">00:05:42.833=0.790104</property>
    <property name="Tilt Y">00:05:42.833=0.730556</property>
   </filter>
  </entry>
  <entry producer="producer93" in="00:05:49.567" out="00:05:52.100">
   <property name="kdenlive:id">7</property>
   <filter id="filter60">
    <property name="version">0.1</property>
    <property name="mlt_service">frei0r.scale0tilt</property>
    <property name="kdenlive_id">Facecam crop</property>
    <property name="Clip left">00:05:49.567=0.296875</property>
    <property name="Clip right">00:05:49.567=0.224219</property>
    <property name="Clip top">00:05:49.567=0.0944444</property>
    <property name="Clip bottom">00:05:49.567=0</property>
    <property name="Scale X">00:05:49.567=0.27</property>
    <property name="Scale Y">00:05:49.567=0.27</property>
    <property name="Tilt X">00:05:49.567=0.790104</property>
    <property name="Tilt Y">00:05:49.567=0.730556</property>
   </filter>
  </entry>
  <entry producer="producer93" in="00:06:01.167" out="00:06:04.933">
   <property name="kdenlive:id">7</property>
   <filter id="filter61">
    <property name="version">0.1</property>
    <property name="mlt_service">frei0r.scale0tilt</property>
    <property name="kdenlive_id">Facecam crop</property>
    <property name="Clip left">00:06:01.167=0.296875</property>
    <property name="Clip right">00:06:01.167=0.224219</property>
    <property name="Clip top">00:06:01.167=0.0944444</property>
    <property name="Clip bottom">00:06:01.167=0</property>
    <property name="Scale X">00:06:01.167=0.27</property>
    <property name="Scale Y">00:06:01.167=0.27</property>
    <property name="Tilt X">00:06:01.167=0.790104</property>
    <property name="Tilt Y">00:06:01.167=0.730556</property>
   </filter>
  </entry>
  <entry producer="producer93" in="00:06:05.700" out="00:06:11.867">
   <property name="kdenlive:id">7</property>
   <filter id="filter62">
    <property name="version">0.1</property>
    <property name="mlt_service">frei0r.scale0tilt</property>
    <property name="kdenlive_id">Facecam crop</property>
    <property name="Clip left">00:06:05.700=0.296875</property>
    <property name="Clip right">00:06:05.700=0.224219</property>
    <property name="Clip top">00:06:05.700=0.0944444</property>
    <property name="Clip bottom">00:06:05.700=0</property>
    <property name="Scale X">00:06:05.700=0.27</property>
    <property name="Scale Y">00:06:05.700=0.27</property>
    <property name="Tilt X">00:06:05.700=0.790104</property>
    <property name="Tilt Y">00:06:05.700=0.730556</property>
   </filter>
  </entry>
  <entry producer="producer93" in="00:06:13.333" out="00:06:14.700">
   <property name="kdenlive:id">7</property>
   <filter id="filter63">
    <property name="version">0.1</property>
    <property name="mlt_service">frei0r.scale0tilt</property>
    <property name="kdenlive_id">Facecam crop</property>
    <property name="Clip left">00:06:13.333=0.296875</property>
    <property name="Clip right">00:06:13.333=0.224219</property>
    <property name="Clip top">00:06:13.333=0.0944444</property>
    <property name="Clip bottom">00:06:13.333=0</property>
    <property name="Scale X">00:06:13.333=0.27</property>
    <property name="Scale Y">00:06:13.333=0.27</property>
    <property name="Tilt X">00:06:13.333=0.790104</property>
    <property name="Tilt Y">00:06:13.333=0.730556</property>
   </filter>
  </entry>
  <entry producer="producer93" in="00:07:09.567" out="00:07:12.533">
   <property name="kdenlive:id">7</property>
   <filter id="filter64">
    <property name="version">0.1</property>
    <property name="mlt_service">frei0r.scale0tilt</property>
    <property name="kdenlive_id">Facecam crop</property>
    <property name="Clip left">00:07:09.567=0.296875</property>
    <property name="Clip right">00:07:09.567=0.224219</property>
    <property name="Clip top">00:07:09.567=0.0944444</property>
    <property name="Clip bottom">00:07:09.567=0</property>
    <property name="Scale X">00:07:09.567=0.27</property>
    <property name="Scale Y">00:07:09.567=0.27</property>
    <property name="Tilt X">00:07:09.567=0.790104</property>
    <property name="Tilt Y">00:07:09.567=0.730556</property>
   </filter>
  </entry>
  <entry producer="producer93" in="00:07:13.467" out="00:07:50.900">
   <property name="kdenlive:id">7</property>
   <filter id="filter65">
    <property name="version">0.1</property>
    <property name="mlt_service">frei0r.scale0tilt</property>
    <property name="kdenlive_id">Facecam crop</property>
    <property name="Clip left">00:07:13.467=0.296875</property>
    <property name="Clip right">00:07:13.467=0.224219</property>
    <property name="Clip top">00:07:13.467=0.0944444</property>
    <property name="Clip bottom">00:07:13.467=0</property>
    <property name="Scale X">00:07:13.467=0.27</property>
    <property name="Scale Y">00:07:13.467=0.27</property>
    <property name="Tilt X">00:07:13.467=0.790104</property>
    <property name="Tilt Y">00:07:13.467=0.730556</property>
   </filter>
  </entry>
  <entry producer="producer93" in="00:08:00.767" out="00:08:08.000">
   <property name="kdenlive:id">7</property>
   <filter id="filter66">
    <property name="version">0.1</property>
    <property name="mlt_service">frei0r.scale0tilt</property>
    <property name="kdenlive_id">Facecam crop</property>
    <property name="Clip left">00:08:00.767=0.296875</property>
    <property name="Clip right">00:08:00.767=0.224219</property>
    <property name="Clip top">00:08:00.767=0.0944444</property>
    <property name="Clip bottom">00:08:00.767=0</property>
    <property name="Scale X">00:08:00.767=0.27</property>
    <property name="Scale Y">00:08:00.767=0.27</property>
    <property name="Tilt X">00:08:00.767=0.790104</property>
    <property name="Tilt Y">00:08:00.767=0.730556</property>
   </filter>
  </entry>
  <entry producer="producer93" in="00:08:08.867" out="00:08:53.133">
   <property name="kdenlive:id">7</property>
   <filter id="filter67">
    <property name="version">0.1</property>
    <property name="mlt_service">frei0r.scale0tilt</property>
    <property name="kdenlive_id">Facecam crop</property>
    <property name="Clip left">00:08:08.867=0.296875</property>
    <property name="Clip right">00:08:08.867=0.224219</property>
    <property name="Clip top">00:08:08.867=0.0944444</property>
    <property name="Clip bottom">00:08:08.867=0</property>
    <property name="Scale X">00:08:08.867=0.27</property>
    <property name="Scale Y">00:08:08.867=0.27</property>
    <property name="Tilt X">00:08:08.867=0.790104</property>
    <property name="Tilt Y">00:08:08.867=0.730556</property>
   </filter>
  </entry>
  <entry producer="producer93" in="00:08:57.067" out="00:09:09.233">
   <property name="kdenlive:id">7</property>
   <filter id="filter68">
    <property name="version">0.1</property>
    <property name="mlt_service">frei0r.scale0tilt</property>
    <property name="kdenlive_id">Facecam crop</property>
    <property name="Clip left">00:08:57.067=0.296875</property>
    <property name="Clip right">00:08:57.067=0.224219</property>
    <property name="Clip top">00:08:57.067=0.0944444</property>
    <property name="Clip bottom">00:08:57.067=0</property>
    <property name="Scale X">00:08:57.067=0.27</property>
    <property name="Scale Y">00:08:57.067=0.27</property>
    <property name="Tilt X">00:08:57.067=0.790104</property>
    <property name="Tilt Y">00:08:57.067=0.730556</property>
   </filter>
  </entry>
  <entry producer="producer94" in="00:00:02.533" out="00:00:32.067">
   <property name="kdenlive:id">19</property>
   <filter id="filter69">
    <property name="version">0.1</property>
    <property name="mlt_service">frei0r.scale0tilt</property>
    <property name="kdenlive_id">Facecam crop</property>
    <property name="Clip left">00:00:02.533=0.296875</property>
    <property name="Clip right">00:00:02.533=0.224219</property>
    <property name="Clip top">00:00:02.533=0.0944444</property>
    <property name="Clip bottom">00:00:02.533=0</property>
    <property name="Scale X">00:00:02.533=0.27</property>
    <property name="Scale Y">00:00:02.533=0.27</property>
    <property name="Tilt X">00:00:02.533=0.790104</property>
    <property name="Tilt Y">00:00:02.533=0.730556</property>
   </filter>
  </entry>
  <entry producer="producer94" in="00:00:36.433" out="00:00:38.200">
   <property name="kdenlive:id">19</property>
   <filter id="filter70">
    <property name="version">0.1</property>
    <property name="mlt_service">frei0r.scale0tilt</property>
    <property name="kdenlive_id">Facecam crop</property>
    <property name="Clip left">00:00:36.433=0.296875</property>
    <property name="Clip right">00:00:36.433=0.224219</property>
    <property name="Clip top">00:00:36.433=0.0944444</property>
    <property name="Clip bottom">00:00:36.433=0</property>
    <property name="Scale X">00:00:36.433=0.27</property>
    <property name="Scale Y">00:00:36.433=0.27</property>
    <property name="Tilt X">00:00:36.433=0.790104</property>
    <property name="Tilt Y">00:00:36.433=0.730556</property>
   </filter>
  </entry>
  <entry producer="producer94" in="00:00:39.267" out="00:03:28.667">
   <property name="kdenlive:id">19</property>
   <filter id="filter71">
    <property name="version">0.1</property>
    <property name="mlt_service">frei0r.scale0tilt</property>
    <property name="kdenlive_id">Facecam crop</property>
    <property name="Clip left">00:00:39.267=0.296875</property>
    <property name="Clip right">00:00:39.267=0.224219</property>
    <property name="Clip top">00:00:39.267=0.0944444</property>
    <property name="Clip bottom">00:00:39.267=0</property>
    <property name="Scale X">00:00:39.267=0.27</property>
    <property name="Scale Y">00:00:39.267=0.27</property>
    <property name="Tilt X">00:00:39.267=0.790104</property>
    <property name="Tilt Y">00:00:39.267=0.730556</property>
   </filter>
  </entry>
  <entry producer="producer94" in="00:03:32.300" out="00:04:24.633">
   <property name="kdenlive:id">19</property>
   <filter id="filter72">
    <property name="version">0.1</property>
    <property name="mlt_service">frei0r.scale0tilt</property>
    <property name="kdenlive_id">Facecam crop</property>
    <property name="Clip left">00:03:32.300=0.296875</property>
    <property name="Clip right">00:03:32.300=0.224219</property>
    <property name="Clip top">00:03:32.300=0.0944444</property>
    <property name="Clip bottom">00:03:32.300=0</property>
    <property name="Scale X">00:03:32.300=0.27</property>
    <property name="Scale Y">00:03:32.300=0.27</property>
    <property name="Tilt X">00:03:32.300=0.790104</property>
    <property name="Tilt Y">00:03:32.300=0.730556</property>
   </filter>
  </entry>
  <entry producer="producer94" in="00:04:39.000" out="00:04:57.800">
   <property name="kdenlive:id">19</property>
   <filter id="filter73">
    <property name="version">0.1</property>
    <property name="mlt_service">frei0r.scale0tilt</property>
    <property name="kdenlive_id">Facecam crop</property>
    <property name="Clip left">00:04:39.000=0.296875</property>
    <property name="Clip right">00:04:39.000=0.224219</property>
    <property name="Clip top">00:04:39.000=0.0944444</property>
    <property name="Clip bottom">00:04:39.000=0</property>
    <property name="Scale X">00:04:39.000=0.27</property>
    <property name="Scale Y">00:04:39.000=0.27</property>
    <property name="Tilt X">00:04:39.000=0.790104</property>
    <property name="Tilt Y">00:04:39.000=0.730556</property>
   </filter>
  </entry>
  <entry producer="producer94" in="00:04:59.333" out="00:05:07.200">
   <property name="kdenlive:id">19</property>
   <filter id="filter74">
    <property name="version">0.1</property>
    <property name="mlt_service">frei0r.scale0tilt</property>
    <property name="kdenlive_id">Facecam crop</property>
    <property name="Clip left">00:04:59.333=0.296875</property>
    <property name="Clip right">00:04:59.333=0.224219</property>
    <property name="Clip top">00:04:59.333=0.0944444</property>
    <property name="Clip bottom">00:04:59.333=0</property>
    <property name="Scale X">00:04:59.333=0.27</property>
    <property name="Scale Y">00:04:59.333=0.27</property>
    <property name="Tilt X">00:04:59.333=0.790104</property>
    <property name="Tilt Y">00:04:59.333=0.730556</property>
   </filter>
  </entry>
  <entry producer="producer94" in="00:05:11.067" out="00:05:16.533">
   <property name="kdenlive:id">19</property>
   <filter id="filter75">
    <property name="version">0.1</property>
    <property name="mlt_service">frei0r.scale0tilt</property>
    <property name="kdenlive_id">Facecam crop</property>
    <property name="Clip left">00:05:11.067=0.296875</property>
    <property name="Clip right">00:05:11.067=0.224219</property>
    <property name="Clip top">00:05:11.067=0.0944444</property>
    <property name="Clip bottom">00:05:11.067=0</property>
    <property name="Scale X">00:05:11.067=0.27</property>
    <property name="Scale Y">00:05:11.067=0.27</property>
    <property name="Tilt X">00:05:11.067=0.790104</property>
    <property name="Tilt Y">00:05:11.067=0.730556</property>
   </filter>
  </entry>
  <entry producer="producer94" in="00:05:18.700" out="00:05:21.933">
   <property name="kdenlive:id">19</property>
   <filter id="filter76">
    <property name="version">0.1</property>
    <property name="mlt_service">frei0r.scale0tilt</property>
    <property name="kdenlive_id">Facecam crop</property>
    <property name="Clip left">00:05:18.700=0.296875</property>
    <property name="Clip right">00:05:18.700=0.224219</property>
    <property name="Clip top">00:05:18.700=0.0944444</property>
    <property name="Clip bottom">00:05:18.700=0</property>
    <property name="Scale X">00:05:18.700=0.27</property>
    <property name="Scale Y">00:05:18.700=0.27</property>
    <property name="Tilt X">00:05:18.700=0.790104</property>
    <property name="Tilt Y">00:05:18.700=0.730556</property>
   </filter>
  </entry>
  <entry producer="producer94" in="00:05:28.033" out="00:05:40.333">
   <property name="kdenlive:id">19</property>
   <filter id="filter77">
    <property name="version">0.1</property>
    <property name="mlt_service">frei0r.scale0tilt</property>
    <property name="kdenlive_id">Facecam crop</property>
    <property name="Clip left">00:05:28.033=0.296875</property>
    <property name="Clip right">00:05:28.033=0.224219</property>
    <property name="Clip top">00:05:28.033=0.0944444</property>
    <property name="Clip bottom">00:05:28.033=0</property>
    <property name="Scale X">00:05:28.033=0.27</property>
    <property name="Scale Y">00:05:28.033=0.27</property>
    <property name="Tilt X">00:05:28.033=0.790104</property>
    <property name="Tilt Y">00:05:28.033=0.730556</property>
   </filter>
  </entry>
  <entry producer="producer94" in="00:05:53.500" out="00:05:58.267">
   <property name="kdenlive:id">19</property>
   <filter id="filter78">
    <property name="version">0.1</property>
    <property name="mlt_service">frei0r.scale0tilt</property>
    <property name="kdenlive_id">Facecam crop</property>
    <property name="Clip left">00:05:53.500=0.296875</property>
    <property name="Clip right">00:05:53.500=0.224219</property>
    <property name="Clip top">00:05:53.500=0.0944444</property>
    <property name="Clip bottom">00:05:53.500=0</property>
    <property name="Scale X">00:05:53.500=0.27</property>
    <property name="Scale Y">00:05:53.500=0.27</property>
    <property name="Tilt X">00:05:53.500=0.790104</property>
    <property name="Tilt Y">00:05:53.500=0.730556</property>
   </filter>
  </entry>
  <entry producer="producer94" in="00:05:59.500" out="00:08:19.667">
   <property name="kdenlive:id">19</property>
   <filter id="filter79">
    <property name="version">0.1</property>
    <property name="mlt_service">frei0r.scale0tilt</property>
    <property name="kdenlive_id">Facecam crop</property>
    <property name="Clip left">00:05:59.500=0.296875</property>
    <property name="Clip right">00:05:59.500=0.224219</property>
    <property name="Clip top">00:05:59.500=0.0944444</property>
    <property name="Clip bottom">00:05:59.500=0</property>
    <property name="Scale X">00:05:59.500=0.27</property>
    <property name="Scale Y">00:05:59.500=0.27</property>
    <property name="Tilt X">00:05:59.500=0.790104</property>
    <property name="Tilt Y">00:05:59.500=0.730556</property>
    <property name="kdenlive:collapsed">0</property>
   </filter>
  </entry>
  <entry producer="producer94" in="00:08:19.700" out="00:08:58.933">
   <property name="kdenlive:id">19</property>
   <filter id="filter80">
    <property name="version">0.1</property>
    <property name="mlt_service">frei0r.scale0tilt</property>
    <property name="kdenlive_id">Facecam crop</property>
    <property name="Clip left">00:08:19.700=0.296875</property>
    <property name="Clip right">00:08:19.700=0.224219</property>
    <property name="Clip top">00:08:19.700=0.0944444</property>
    <property name="Clip bottom">00:08:19.700=0</property>
    <property name="Scale X">00:08:19.700=0.27</property>
    <property name="Scale Y">00:08:19.700=0.27</property>
    <property name="Tilt X">00:08:19.700=0.790104</property>
    <property name="Tilt Y">00:08:19.700=0.730556</property>
    <property name="kdenlive:collapsed">1</property>
   </filter>
   <filter id="filter81">
    <property name="version">0.1</property>
    <property name="mlt_service">frei0r.scale0tilt</property>
    <property name="kdenlive_id">frei0r.scale0tilt</property>
    <property name="Clip left">00:08:19.700=0</property>
    <property name="Clip right">00:08:19.700=0</property>
    <property name="Clip top">00:08:19.700=0</property>
    <property name="Clip bottom">00:08:19.700=0</property>
    <property name="Scale X">00:08:19.700=0.4</property>
    <property name="Scale Y">00:08:19.700=0.4</property>
    <property name="Tilt X">00:08:19.700=0.520312</property>
    <property name="Tilt Y">00:08:19.700=0.594444</property>
    <property name="kdenlive:collapsed">1</property>
   </filter>
  </entry>
  <entry producer="producer94" in="00:08:58.967" out="00:09:09.300">
   <property name="kdenlive:id">19</property>
   <filter id="filter82">
    <property name="version">0.1</property>
    <property name="mlt_service">frei0r.scale0tilt</property>
    <property name="kdenlive_id">Facecam crop</property>
    <property name="Clip left">00:08:58.967=0.296875</property>
    <property name="Clip right">00:08:58.967=0.224219</property>
    <property name="Clip top">00:08:58.967=0.0944444</property>
    <property name="Clip bottom">00:08:58.967=0</property>
    <property name="Scale X">00:08:58.967=0.27</property>
    <property name="Scale Y">00:08:58.967=0.27</property>
    <property name="Tilt X">00:08:58.967=0.790104</property>
    <property name="Tilt Y">00:08:58.967=0.730556</property>
    <property name="kdenlive:collapsed">0</property>
   </filter>
  </entry>
  <entry producer="producer94" in="00:09:13.933" out="00:09:23.667">
   <property name="kdenlive:id">19</property>
   <filter id="filter83">
    <property name="version">0.1</property>
    <property name="mlt_service">frei0r.scale0tilt</property>
    <property name="kdenlive_id">Facecam crop</property>
    <property name="Clip left">00:09:13.933=0.296875</property>
    <property name="Clip right">00:09:13.933=0.224219</property>
    <property name="Clip top">00:09:13.933=0.0944444</property>
    <property name="Clip bottom">00:09:13.933=0</property>
    <property name="Scale X">00:09:13.933=0.27</property>
    <property name="Scale Y">00:09:13.933=0.27</property>
    <property name="Tilt X">00:09:13.933=0.790104</property>
    <property name="Tilt Y">00:09:13.933=0.730556</property>
   </filter>
  </entry>
  <entry producer="producer94" in="00:09:25.167" out="00:09:28.833">
   <property name="kdenlive:id">19</property>
   <filter id="filter84">
    <property name="version">0.1</property>
    <property name="mlt_service">frei0r.scale0tilt</property>
    <property name="kdenlive_id">Facecam crop</property>
    <property name="Clip left">00:09:25.167=0.296875</property>
    <property name="Clip right">00:09:25.167=0.224219</property>
    <property name="Clip top">00:09:25.167=0.0944444</property>
    <property name="Clip bottom">00:09:25.167=0</property>
    <property name="Scale X">00:09:25.167=0.27</property>
    <property name="Scale Y">00:09:25.167=0.27</property>
    <property name="Tilt X">00:09:25.167=0.790104</property>
    <property name="Tilt Y">00:09:25.167=0.730556</property>
   </filter>
  </entry>
  <entry producer="producer94" in="00:09:44.433" out="00:10:12.667">
   <property name="kdenlive:id">19</property>
   <filter id="filter85">
    <property name="version">0.1</property>
    <property name="mlt_service">frei0r.scale0tilt</property>
    <property name="kdenlive_id">Facecam crop</property>
    <property name="Clip left">00:09:44.433=0.296875</property>
    <property name="Clip right">00:09:44.433=0.224219</property>
    <property name="Clip top">00:09:44.433=0.0944444</property>
    <property name="Clip bottom">00:09:44.433=0</property>
    <property name="Scale X">00:09:44.433=0.27</property>
    <property name="Scale Y">00:09:44.433=0.27</property>
    <property name="Tilt X">00:09:44.433=0.790104</property>
    <property name="Tilt Y">00:09:44.433=0.730556</property>
    <property name="kdenlive:collapsed">0</property>
   </filter>
  </entry>
  <entry producer="producer94" in="00:10:12.700" out="00:10:23.867">
   <property name="kdenlive:id">19</property>
   <filter id="filter86">
    <property name="version">0.1</property>
    <property name="mlt_service">frei0r.scale0tilt</property>
    <property name="kdenlive_id">Facecam crop</property>
    <property name="Clip left">00:10:12.700=0.296875</property>
    <property name="Clip right">00:10:12.700=0.224219</property>
    <property name="Clip top">00:10:12.700=0.0944444</property>
    <property name="Clip bottom">00:10:12.700=0</property>
    <property name="Scale X">00:10:12.700=0.27</property>
    <property name="Scale Y">00:10:12.700=0.27</property>
    <property name="Tilt X">00:10:12.700=0.522656</property>
    <property name="Tilt Y">00:10:12.700=0.730556</property>
    <property name="kdenlive:collapsed">0</property>
   </filter>
   <filter id="filter87">
    <property name="version">0.1</property>
    <property name="mlt_service">frei0r.scale0tilt</property>
    <property name="kdenlive_id">frei0r.scale0tilt</property>
    <property name="Clip left">00:10:12.700=0</property>
    <property name="Clip right">00:10:12.700=0</property>
    <property name="Clip top">00:10:12.700=0</property>
    <property name="Clip bottom">00:10:12.700=0</property>
    <property name="Scale X">00:10:12.700=0.4</property>
    <property name="Scale Y">00:10:12.700=0.4</property>
    <property name="Tilt X">00:10:12.700=0.520312</property>
    <property name="Tilt Y">00:10:12.700=0.594444</property>
    <property name="kdenlive:collapsed">0</property>
   </filter>
  </entry>
  <entry producer="producer94" in="00:10:35.167" out="00:10:55.500">
   <property name="kdenlive:id">19</property>
   <filter id="filter88">
    <property name="version">0.1</property>
    <property name="mlt_service">frei0r.scale0tilt</property>
    <property name="kdenlive_id">Facecam crop</property>
    <property name="Clip left">00:10:35.167=0.296875</property>
    <property name="Clip right">00:10:35.167=0.224219</property>
    <property name="Clip top">00:10:35.167=0.0944444</property>
    <property name="Clip bottom">00:10:35.167=0</property>
    <property name="Scale X">00:10:35.167=0.27</property>
    <property name="Scale Y">00:10:35.167=0.27</property>
    <property name="Tilt X">00:10:35.167=0.790104</property>
    <property name="Tilt Y">00:10:35.167=0.730556</property>
   </filter>
  </entry>
  <entry producer="producer94" in="00:10:56.633" out="00:11:07.833">
   <property name="kdenlive:id">19</property>
   <filter id="filter89">
    <property name="version">0.1</property>
    <property name="mlt_service">frei0r.scale0tilt</property>
    <property name="kdenlive_id">Facecam crop</property>
    <property name="Clip left">00:10:56.633=0.296875</property>
    <property name="Clip right">00:10:56.633=0.224219</property>
    <property name="Clip top">00:10:56.633=0.0944444</property>
    <property name="Clip bottom">00:10:56.633=0</property>
    <property name="Scale X">00:10:56.633=0.27</property>
    <property name="Scale Y">00:10:56.633=0.27</property>
    <property name="Tilt X">00:10:56.633=0.790104</property>
    <property name="Tilt Y">00:10:56.633=0.730556</property>
   </filter>
  </entry>
  <entry producer="producer94" in="00:11:10.433" out="00:13:34.133">
   <property name="kdenlive:id">19</property>
   <filter id="filter90">
    <property name="version">0.1</property>
    <property name="mlt_service">frei0r.scale0tilt</property>
    <property name="kdenlive_id">Facecam crop</property>
    <property name="Clip left">00:11:10.433=0.296875</property>
    <property name="Clip right">00:11:10.433=0.224219</property>
    <property name="Clip top">00:11:10.433=0.0944444</property>
    <property name="Clip bottom">00:11:10.433=0</property>
    <property name="Scale X">00:11:10.433=0.27</property>
    <property name="Scale Y">00:11:10.433=0.27</property>
    <property name="Tilt X">00:11:10.433=0.790104</property>
    <property name="Tilt Y">00:11:10.433=0.730556</property>
   </filter>
  </entry>
  <entry producer="producer94" in="00:14:42.500" out="00:14:55.200">
   <property name="kdenlive:id">19</property>
   <filter id="filter91">
    <property name="version">0.1</property>
    <property name="mlt_service">frei0r.scale0tilt</property>
    <property name="kdenlive_id">Facecam crop</property>
    <property name="Clip left">00:14:42.500=0.296875</property>
    <property name="Clip right">00:14:42.500=0.224219</property>
    <property name="Clip top">00:14:42.500=0.0944444</property>
    <property name="Clip bottom">00:14:42.500=0</property>
    <property name="Scale X">00:14:42.500=0.27</property>
    <property name="Scale Y">00:14:42.500=0.27</property>
    <property name="Tilt X">00:14:42.500=0.790104</property>
    <property name="Tilt Y">00:14:42.500=0.730556</property>
   </filter>
  </entry>
  <entry producer="producer94" in="00:15:17.367" out="00:15:34.867">
   <property name="kdenlive:id">19</property>
   <filter id="filter92">
    <property name="version">0.1</property>
    <property name="mlt_service">frei0r.scale0tilt</property>
    <property name="kdenlive_id">Facecam crop</property>
    <property name="Clip left">00:15:17.367=0.296875</property>
    <property name="Clip right">00:15:17.367=0.224219</property>
    <property name="Clip top">00:15:17.367=0.0944444</property>
    <property name="Clip bottom">00:15:17.367=0</property>
    <property name="Scale X">00:15:17.367=0.27</property>
    <property name="Scale Y">00:15:17.367=0.27</property>
    <property name="Tilt X">00:15:17.367=0.790104</property>
    <property name="Tilt Y">00:15:17.367=0.730556</property>
   </filter>
  </entry>
  <entry producer="producer94" in="00:15:38.133" out="00:16:45.600">
   <property name="kdenlive:id">19</property>
   <filter id="filter93">
    <property name="version">0.1</property>
    <property name="mlt_service">frei0r.scale0tilt</property>
    <property name="kdenlive_id">Facecam crop</property>
    <property name="Clip left">00:15:38.133=0.296875</property>
    <property name="Clip right">00:15:38.133=0.224219</property>
    <property name="Clip top">00:15:38.133=0.0944444</property>
    <property name="Clip bottom">00:15:38.133=0</property>
    <property name="Scale X">00:15:38.133=0.27</property>
    <property name="Scale Y">00:15:38.133=0.27</property>
    <property name="Tilt X">00:15:38.133=0.790104</property>
    <property name="Tilt Y">00:15:38.133=0.730556</property>
    <property name="kdenlive:collapsed">0</property>
   </filter>
  </entry>
  <entry producer="producer94" in="00:16:45.633" out="00:17:39.933">
   <property name="kdenlive:id">19</property>
   <filter id="filter94">
    <property name="version">0.1</property>
    <property name="mlt_service">frei0r.scale0tilt</property>
    <property name="kdenlive_id">Facecam crop</property>
    <property name="Clip left">00:16:45.633=0.296875</property>
    <property name="Clip right">00:16:45.633=0.224219</property>
    <property name="Clip top">00:16:45.633=0.0944444</property>
    <property name="Clip bottom">00:16:45.633=0</property>
    <property name="Scale X">00:16:45.633=0.27</property>
    <property name="Scale Y">00:16:45.633=0.27</property>
    <property name="Tilt X">00:16:45.633=0.790104</property>
    <property name="Tilt Y">00:16:45.633=0.730556</property>
    <property name="kdenlive:collapsed">1</property>
   </filter>
   <filter id="filter95">
    <property name="version">0.1</property>
    <property name="mlt_service">frei0r.scale0tilt</property>
    <property name="kdenlive_id">frei0r.scale0tilt</property>
    <property name="Clip left">00:16:45.633=0</property>
    <property name="Clip right">00:16:45.633=0</property>
    <property name="Clip top">00:16:45.633=0</property>
    <property name="Clip bottom">00:16:45.633=0</property>
    <property name="Scale X">00:16:45.633=0.4</property>
    <property name="Scale Y">00:16:45.633=0.4</property>
    <property name="Tilt X">00:16:45.633=0.520312</property>
    <property name="Tilt Y">00:16:45.633=0.594444</property>
    <property name="kdenlive:collapsed">1</property>
   </filter>
  </entry>
  <entry producer="producer94" in="00:17:39.967" out="00:19:41.400">
   <property name="kdenlive:id">19</property>
   <filter id="filter96">
    <property name="version">0.1</property>
    <property name="mlt_service">frei0r.scale0tilt</property>
    <property name="kdenlive_id">Facecam crop</property>
    <property name="Clip left">00:17:39.967=0.296875</property>
    <property name="Clip right">00:17:39.967=0.224219</property>
    <property name="Clip top">00:17:39.967=0.0944444</property>
    <property name="Clip bottom">00:17:39.967=0</property>
    <property name="Scale X">00:17:39.967=0.27</property>
    <property name="Scale Y">00:17:39.967=0.27</property>
    <property name="Tilt X">00:17:39.967=0.790104</property>
    <property name="Tilt Y">00:17:39.967=0.730556</property>
    <property name="kdenlive:collapsed">0</property>
   </filter>
  </entry>
  <entry producer="producer94" in="00:19:41.433" out="00:20:04.233">
   <property name="kdenlive:id">19</property>
   <filter id="filter97">
    <property name="version">0.1</property>
    <property name="mlt_service">frei0r.scale0tilt</property>
    <property name="kdenlive_id">Facecam crop</property>
    <property name="Clip left">00:19:41.433=0.296875</property>
    <property name="Clip right">00:19:41.433=0.224219</property>
    <property name="Clip top">00:19:41.433=0.0944444</property>
    <property name="Clip bottom">00:19:41.433=0</property>
    <property name="Scale X">00:19:41.433=0.27</property>
    <property name="Scale Y">00:19:41.433=0.27</property>
    <property name="Tilt X">00:19:41.433=0.790104</property>
    <property name="Tilt Y">00:19:41.433=0.730556</property>
    <property name="kdenlive:collapsed">1</property>
   </filter>
   <filter id="filter98">
    <property name="version">0.1</property>
    <property name="mlt_service">frei0r.scale0tilt</property>
    <property name="kdenlive_id">frei0r.scale0tilt</property>
    <property name="Clip left">00:19:41.433=0</property>
    <property name="Clip right">00:19:41.433=0</property>
    <property name="Clip top">00:19:41.433=0</property>
    <property name="Clip bottom">00:19:41.433=0</property>
    <property name="Scale X">00:19:41.433=0.4</property>
    <property name="Scale Y">00:19:41.433=0.4</property>
    <property name="Tilt X">00:19:41.433=0.520312</property>
    <property name="Tilt Y">00:19:41.433=0.594444</property>
    <property name="kdenlive:collapsed">1</property>
   </filter>
  </entry>
  <entry producer="producer94" in="00:20:04.267" out="00:21:01.500">
   <property name="kdenlive:id">19</property>
   <filter id="filter99">
    <property name="version">0.1</property>
    <property name="mlt_service">frei0r.scale0tilt</property>
    <property name="kdenlive_id">Facecam crop</property>
    <property name="Clip left">00:20:04.267=0.296875</property>
    <property name="Clip right">00:20:04.267=0.224219</property>
    <property name="Clip top">00:20:04.267=0.0944444</property>
    <property name="Clip bottom">00:20:04.267=0</property>
    <property name="Scale X">00:20:04.267=0.27</property>
    <property name="Scale Y">00:20:04.267=0.27</property>
    <property name="Tilt X">00:20:04.267=0.790104</property>
    <property name="Tilt Y">00:20:04.267=0.730556</property>
    <property name="kdenlive:collapsed">0</property>
   </filter>
  </entry>
  <entry producer="producer94" in="00:21:03.700" out="00:21:14.967">
   <property name="kdenlive:id">19</property>
   <filter id="filter100">
    <property name="version">0.1</property>
    <property name="mlt_service">frei0r.scale0tilt</property>
    <property name="kdenlive_id">Facecam crop</property>
    <property name="Clip left">00:21:03.700=0.296875</property>
    <property name="Clip right">00:21:03.700=0.224219</property>
    <property name="Clip top">00:21:03.700=0.0944444</property>
    <property name="Clip bottom">00:21:03.700=0</property>
    <property name="Scale X">00:21:03.700=0.27</property>
    <property name="Scale Y">00:21:03.700=0.27</property>
    <property name="Tilt X">00:21:03.700=0.790104</property>
    <property name="Tilt Y">00:21:03.700=0.730556</property>
    <property name="kdenlive:collapsed">1</property>
   </filter>
   <filter id="filter101">
    <property name="version">0.1</property>
    <property name="mlt_service">frei0r.scale0tilt</property>
    <property name="kdenlive_id">frei0r.scale0tilt</property>
    <property name="Clip left">00:21:03.700=0</property>
    <property name="Clip right">00:21:03.700=0</property>
    <property name="Clip top">00:21:03.700=0</property>
    <property name="Clip bottom">00:21:03.700=0</property>
    <property name="Scale X">00:21:03.700=0.4</property>
    <property name="Scale Y">00:21:03.700=0.4</property>
    <property name="Tilt X">00:21:03.700=0.520312</property>
    <property name="Tilt Y">00:21:03.700=0.594444</property>
    <property name="kdenlive:collapsed">1</property>
   </filter>
  </entry>
  <entry producer="producer94" in="00:21:15.000" out="00:21:21.700">
   <property name="kdenlive:id">19</property>
   <filter id="filter102">
    <property name="version">0.1</property>
    <property name="mlt_service">frei0r.scale0tilt</property>
    <property name="kdenlive_id">Facecam crop</property>
    <property name="Clip left">00:21:15.000=0.296875</property>
    <property name="Clip right">00:21:15.000=0.224219</property>
    <property name="Clip top">00:21:15.000=0.0944444</property>
    <property name="Clip bottom">00:21:15.000=0</property>
    <property name="Scale X">00:21:15.000=0.27</property>
    <property name="Scale Y">00:21:15.000=0.27</property>
    <property name="Tilt X">00:21:15.000=0.790104</property>
    <property name="Tilt Y">00:21:15.000=0.730556</property>
    <property name="kdenlive:collapsed">0</property>
   </filter>
  </entry>
  <entry producer="producer94" in="00:22:09.067" out="00:22:13.167">
   <property name="kdenlive:id">19</property>
   <filter id="filter103">
    <property name="version">0.1</property>
    <property name="mlt_service">frei0r.scale0tilt</property>
    <property name="kdenlive_id">Facecam crop</property>
    <property name="Clip left">00:22:09.067=0.296875</property>
    <property name="Clip right">00:22:09.067=0.224219</property>
    <property name="Clip top">00:22:09.067=0.0944444</property>
    <property name="Clip bottom">00:22:09.067=0</property>
    <property name="Scale X">00:22:09.067=0.27</property>
    <property name="Scale Y">00:22:09.067=0.27</property>
    <property name="Tilt X">00:22:09.067=0.790104</property>
    <property name="Tilt Y">00:22:09.067=0.730556</property>
    <property name="kdenlive:collapsed">0</property>
   </filter>
  </entry>
  <entry producer="producer94" in="00:24:36.767" out="00:24:56.500">
   <property name="kdenlive:id">19</property>
   <filter id="filter108">
    <property name="version">0.1</property>
    <property name="mlt_service">frei0r.scale0tilt</property>
    <property name="kdenlive_id">Facecam crop</property>
    <property name="Clip left">00:24:36.767=0.296875</property>
    <property name="Clip right">00:24:36.767=0.224219</property>
    <property name="Clip top">00:24:36.767=0.0944444</property>
    <property name="Clip bottom">00:24:36.767=0</property>
    <property name="Scale X">00:24:36.767=0.27</property>
    <property name="Scale Y">00:24:36.767=0.27</property>
    <property name="Tilt X">00:24:36.767=0.790104</property>
    <property name="Tilt Y">00:24:36.767=0.730556</property>
    <property name="kdenlive:collapsed">0</property>
   </filter>
  </entry>
  <entry producer="producer94" in="00:24:59.300" out="00:25:19.733">
   <property name="kdenlive:id">19</property>
   <filter id="filter109">
    <property name="version">0.1</property>
    <property name="mlt_service">frei0r.scale0tilt</property>
    <property name="kdenlive_id">Facecam crop</property>
    <property name="Clip left">00:24:59.300=0.296875</property>
    <property name="Clip right">00:24:59.300=0.224219</property>
    <property name="Clip top">00:24:59.300=0.0944444</property>
    <property name="Clip bottom">00:24:59.300=0</property>
    <property name="Scale X">00:24:59.300=0.27</property>
    <property name="Scale Y">00:24:59.300=0.27</property>
    <property name="Tilt X">00:24:59.300=0.790104</property>
    <property name="Tilt Y">00:24:59.300=0.730556</property>
   </filter>
  </entry>
  <entry producer="producer94" in="00:25:24.133" out="00:25:33.400">
   <property name="kdenlive:id">19</property>
   <filter id="filter110">
    <property name="version">0.1</property>
    <property name="mlt_service">frei0r.scale0tilt</property>
    <property name="kdenlive_id">Facecam crop</property>
    <property name="Clip left">00:25:24.133=0.296875</property>
    <property name="Clip right">00:25:24.133=0.224219</property>
    <property name="Clip top">00:25:24.133=0.0944444</property>
    <property name="Clip bottom">00:25:24.133=0</property>
    <property name="Scale X">00:25:24.133=0.27</property>
    <property name="Scale Y">00:25:24.133=0.27</property>
    <property name="Tilt X">00:25:24.133=0.790104</property>
    <property name="Tilt Y">00:25:24.133=0.730556</property>
   </filter>
  </entry>
  <entry producer="producer94" in="00:25:34.633" out="00:25:35.700">
   <property name="kdenlive:id">19</property>
   <filter id="filter111">
    <property name="version">0.1</property>
    <property name="mlt_service">frei0r.scale0tilt</property>
    <property name="kdenlive_id">Facecam crop</property>
    <property name="Clip left">00:25:34.633=0.296875</property>
    <property name="Clip right">00:25:34.633=0.224219</property>
    <property name="Clip top">00:25:34.633=0.0944444</property>
    <property name="Clip bottom">00:25:34.633=0</property>
    <property name="Scale X">00:25:34.633=0.27</property>
    <property name="Scale Y">00:25:34.633=0.27</property>
    <property name="Tilt X">00:25:34.633=0.790104</property>
    <property name="Tilt Y">00:25:34.633=0.730556</property>
   </filter>
  </entry>
  <entry producer="producer94" in="00:25:37.600" out="00:26:08.300">
   <property name="kdenlive:id">19</property>
   <filter id="filter112">
    <property name="version">0.1</property>
    <property name="mlt_service">frei0r.scale0tilt</property>
    <property name="kdenlive_id">Facecam crop</property>
    <property name="Clip left">00:25:37.600=0.296875</property>
    <property name="Clip right">00:25:37.600=0.224219</property>
    <property name="Clip top">00:25:37.600=0.0944444</property>
    <property name="Clip bottom">00:25:37.600=0</property>
    <property name="Scale X">00:25:37.600=0.27</property>
    <property name="Scale Y">00:25:37.600=0.27</property>
    <property name="Tilt X">00:25:37.600=0.790104</property>
    <property name="Tilt Y">00:25:37.600=0.730556</property>
    <property name="kdenlive:collapsed">0</property>
   </filter>
  </entry>
  <entry producer="producer94" in="00:26:12.400" out="00:28:18.667">
   <property name="kdenlive:id">19</property>
   <filter id="filter113">
    <property name="version">0.1</property>
    <property name="mlt_service">frei0r.scale0tilt</property>
    <property name="kdenlive_id">Facecam crop</property>
    <property name="Clip left">00:26:12.400=0.296875</property>
    <property name="Clip right">00:26:12.400=0.224219</property>
    <property name="Clip top">00:26:12.400=0.0944444</property>
    <property name="Clip bottom">00:26:12.400=0</property>
    <property name="Scale X">00:26:12.400=0.27</property>
    <property name="Scale Y">00:26:12.400=0.27</property>
    <property name="Tilt X">00:26:12.400=0.790104</property>
    <property name="Tilt Y">00:26:12.400=0.730556</property>
    <property name="kdenlive:collapsed">0</property>
   </filter>
  </entry>
  <entry producer="producer94" in="00:29:14.767" out="00:30:26.733">
   <property name="kdenlive:id">19</property>
   <filter id="filter114">
    <property name="version">0.1</property>
    <property name="mlt_service">frei0r.scale0tilt</property>
    <property name="kdenlive_id">Facecam crop</property>
    <property name="Clip left">00:29:14.767=0.296875</property>
    <property name="Clip right">00:29:14.767=0.224219</property>
    <property name="Clip top">00:29:14.767=0.0944444</property>
    <property name="Clip bottom">00:29:14.767=0</property>
    <property name="Scale X">00:29:14.767=0.27</property>
    <property name="Scale Y">00:29:14.767=0.27</property>
    <property name="Tilt X">00:29:14.767=0.790104</property>
    <property name="Tilt Y">00:29:14.767=0.730556</property>
    <property name="kdenlive:collapsed">0</property>
   </filter>
  </entry>
  <entry producer="producer94" in="00:30:26.767" out="00:30:50.433">
   <property name="kdenlive:id">19</property>
   <filter id="filter115">
    <property name="version">0.1</property>
    <property name="mlt_service">frei0r.scale0tilt</property>
    <property name="kdenlive_id">Facecam crop</property>
    <property name="Clip left">00:30:26.767=0.296875</property>
    <property name="Clip right">00:30:26.767=0.224219</property>
    <property name="Clip top">00:30:26.767=0.0944444</property>
    <property name="Clip bottom">00:30:26.767=0</property>
    <property name="Scale X">00:30:26.767=0.27</property>
    <property name="Scale Y">00:30:26.767=0.27</property>
    <property name="Tilt X">00:30:26.767=0.790104</property>
    <property name="Tilt Y">00:30:26.767=0.730556</property>
    <property name="kdenlive:collapsed">0</property>
   </filter>
   <filter id="filter116">
    <property name="version">0.1</property>
    <property name="mlt_service">frei0r.scale0tilt</property>
    <property name="kdenlive_id">frei0r.scale0tilt</property>
    <property name="Clip left">00:30:26.767=0</property>
    <property name="Clip right">00:30:26.767=0</property>
    <property name="Clip top">00:30:26.767=0</property>
    <property name="Clip bottom">00:30:26.767=0</property>
    <property name="Scale X">00:30:26.767=0.4</property>
    <property name="Scale Y">00:30:26.767=0.4</property>
    <property name="Tilt X">00:30:26.767=0.520312</property>
    <property name="Tilt Y">00:30:26.767=0.594444</property>
    <property name="kdenlive:collapsed">0</property>
   </filter>
  </entry>
  <entry producer="producer94" in="00:31:02.100" out="00:32:12.900">
   <property name="kdenlive:id">19</property>
   <filter id="filter117">
    <property name="version">0.1</property>
    <property name="mlt_service">frei0r.scale0tilt</property>
    <property name="kdenlive_id">Facecam crop</property>
    <property name="Clip left">00:00:00.000=0.296875</property>
    <property name="Clip right">00:00:00.000=0.224219</property>
    <property name="Clip top">00:00:00.000=0.0944444</property>
    <property name="Clip bottom">00:00:00.000=0</property>
    <property name="Scale X">00:00:00.000=0.27</property>
    <property name="Scale Y">00:00:00.000=0.27</property>
    <property name="Tilt X">00:00:00.000=0.790104</property>
    <property name="Tilt Y">00:00:00.000=0.730556</property>
    <property name="kdenlive:collapsed">0</property>
   </filter>
  </entry>
  <entry producer="producer94" in="00:32:12.933" out="00:32:51.433">
   <property name="kdenlive:id">19</property>
   <filter id="filter118">
    <property name="version">0.1</property>
    <property name="mlt_service">frei0r.scale0tilt</property>
    <property name="kdenlive_id">Facecam crop</property>
    <property name="Clip left">00:32:12.933=0.296875</property>
    <property name="Clip right">00:32:12.933=0.224219</property>
    <property name="Clip top">00:32:12.933=0.0944444</property>
    <property name="Clip bottom">00:32:12.933=0</property>
    <property name="Scale X">00:32:12.933=0.27</property>
    <property name="Scale Y">00:32:12.933=0.27</property>
    <property name="Tilt X">00:32:12.933=0.790104</property>
    <property name="Tilt Y">00:32:12.933=0.730556</property>
    <property name="kdenlive:collapsed">0</property>
   </filter>
   <filter id="filter119">
    <property name="version">0.1</property>
    <property name="mlt_service">frei0r.scale0tilt</property>
    <property name="kdenlive_id">frei0r.scale0tilt</property>
    <property name="Clip left">00:32:12.933=0</property>
    <property name="Clip right">00:32:12.933=0</property>
    <property name="Clip top">00:32:12.933=0</property>
    <property name="Clip bottom">00:32:12.933=0</property>
    <property name="Scale X">00:32:12.933=0.4</property>
    <property name="Scale Y">00:32:12.933=0.4</property>
    <property name="Tilt X">00:32:12.933=0.520312</property>
    <property name="Tilt Y">00:32:12.933=0.594444</property>
    <property name="kdenlive:collapsed">0</property>
   </filter>
  </entry>
  <entry producer="producer94" in="00:32:54.667" out="00:33:14.533">
   <property name="kdenlive:id">19</property>
   <filter id="filter120">
    <property name="version">0.1</property>
    <property name="mlt_service">frei0r.scale0tilt</property>
    <property name="kdenlive_id">Facecam crop</property>
    <property name="Clip left">00:32:54.667=0.296875</property>
    <property name="Clip right">00:32:54.667=0.224219</property>
    <property name="Clip top">00:32:54.667=0.0944444</property>
    <property name="Clip bottom">00:32:54.667=0</property>
    <property name="Scale X">00:32:54.667=0.27</property>
    <property name="Scale Y">00:32:54.667=0.27</property>
    <property name="Tilt X">00:32:54.667=0.790104</property>
    <property name="Tilt Y">00:32:54.667=0.730556</property>
    <property name="kdenlive:collapsed">0</property>
   </filter>
   <filter id="filter121">
    <property name="version">0.1</property>
    <property name="mlt_service">frei0r.scale0tilt</property>
    <property name="kdenlive_id">frei0r.scale0tilt</property>
    <property name="Clip left">00:32:54.667=0</property>
    <property name="Clip right">00:32:54.667=0</property>
    <property name="Clip top">00:32:54.667=0</property>
    <property name="Clip bottom">00:32:54.667=0</property>
    <property name="Scale X">00:32:54.667=0.4</property>
    <property name="Scale Y">00:32:54.667=0.4</property>
    <property name="Tilt X">00:32:54.667=0.520312</property>
    <property name="Tilt Y">00:32:54.667=0.594444</property>
    <property name="kdenlive:collapsed">0</property>
   </filter>
  </entry>
  <entry producer="producer94" in="00:33:14.567" out="00:33:28.867">
   <property name="kdenlive:id">19</property>
   <filter id="filter122">
    <property name="version">0.1</property>
    <property name="mlt_service">frei0r.scale0tilt</property>
    <property name="kdenlive_id">Facecam crop</property>
    <property name="Clip left">00:33:14.567=0.296875</property>
    <property name="Clip right">00:33:14.567=0.224219</property>
    <property name="Clip top">00:33:14.567=0.0944444</property>
    <property name="Clip bottom">00:33:14.567=0</property>
    <property name="Scale X">00:33:14.567=0.27</property>
    <property name="Scale Y">00:33:14.567=0.27</property>
    <property name="Tilt X">00:33:14.567=0.790104</property>
    <property name="Tilt Y">00:33:14.567=0.730556</property>
    <property name="kdenlive:collapsed">1</property>
   </filter>
  </entry>
  <entry producer="producer95" in="00:00:08.267" out="00:00:53.133">
   <property name="kdenlive:id">10</property>
   <filter id="filter123">
    <property name="version">0.1</property>
    <property name="mlt_service">frei0r.scale0tilt</property>
    <property name="kdenlive_id">Facecam crop</property>
    <property name="Clip left">00:00:08.267=0.296875</property>
    <property name="Clip right">00:00:08.267=0.224219</property>
    <property name="Clip top">00:00:08.267=0.0944444</property>
    <property name="Clip bottom">00:00:08.267=0</property>
    <property name="Scale X">00:00:08.267=0.27</property>
    <property name="Scale Y">00:00:08.267=0.27</property>
    <property name="Tilt X">00:00:08.267=0.790104</property>
    <property name="Tilt Y">00:00:08.267=0.730556</property>
    <property name="kdenlive:collapsed">0</property>
   </filter>
  </entry>
  <entry producer="producer95" in="00:00:57.767" out="00:01:51.600">
   <property name="kdenlive:id">10</property>
   <filter id="filter124">
    <property name="version">0.1</property>
    <property name="mlt_service">frei0r.scale0tilt</property>
    <property name="kdenlive_id">Facecam crop</property>
    <property name="Clip left">00:00:57.767=0.296875</property>
    <property name="Clip right">00:00:57.767=0.224219</property>
    <property name="Clip top">00:00:57.767=0.0944444</property>
    <property name="Clip bottom">00:00:57.767=0</property>
    <property name="Scale X">00:00:57.767=0.27</property>
    <property name="Scale Y">00:00:57.767=0.27</property>
    <property name="Tilt X">00:00:57.767=0.790104</property>
    <property name="Tilt Y">00:00:57.767=0.730556</property>
    <property name="kdenlive:collapsed">0</property>
   </filter>
  </entry>
  <entry producer="producer95" in="00:01:55.900" out="00:02:38.433">
   <property name="kdenlive:id">10</property>
   <filter id="filter125">
    <property name="version">0.1</property>
    <property name="mlt_service">frei0r.scale0tilt</property>
    <property name="kdenlive_id">Facecam crop</property>
    <property name="Clip left">00:01:55.900=0.296875</property>
    <property name="Clip right">00:01:55.900=0.224219</property>
    <property name="Clip top">00:01:55.900=0.0944444</property>
    <property name="Clip bottom">00:01:55.900=0</property>
    <property name="Scale X">00:01:55.900=0.27</property>
    <property name="Scale Y">00:01:55.900=0.27</property>
    <property name="Tilt X">00:01:55.900=0.790104</property>
    <property name="Tilt Y">00:01:55.900=0.730556</property>
    <property name="kdenlive:collapsed">0</property>
   </filter>
  </entry>
  <entry producer="producer95" in="00:02:40.767" out="00:03:37.900">
   <property name="kdenlive:id">10</property>
   <filter id="filter126">
    <property name="version">0.1</property>
    <property name="mlt_service">frei0r.scale0tilt</property>
    <property name="kdenlive_id">Facecam crop</property>
    <property name="Clip left">00:02:40.767=0.296875</property>
    <property name="Clip right">00:02:40.767=0.224219</property>
    <property name="Clip top">00:02:40.767=0.0944444</property>
    <property name="Clip bottom">00:02:40.767=0</property>
    <property name="Scale X">00:02:40.767=0.27</property>
    <property name="Scale Y">00:02:40.767=0.27</property>
    <property name="Tilt X">00:02:40.767=0.790104</property>
    <property name="Tilt Y">00:02:40.767=0.730556</property>
    <property name="kdenlive:collapsed">0</property>
   </filter>
  </entry>
  <entry producer="producer95" in="00:03:40.967" out="00:03:47.467">
   <property name="kdenlive:id">10</property>
   <filter id="filter127">
    <property name="version">0.1</property>
    <property name="mlt_service">frei0r.scale0tilt</property>
    <property name="kdenlive_id">Facecam crop</property>
    <property name="Clip left">00:03:40.967=0.296875</property>
    <property name="Clip right">00:03:40.967=0.224219</property>
    <property name="Clip top">00:03:40.967=0.0944444</property>
    <property name="Clip bottom">00:03:40.967=0</property>
    <property name="Scale X">00:03:40.967=0.27</property>
    <property name="Scale Y">00:03:40.967=0.27</property>
    <property name="Tilt X">00:03:40.967=0.790104</property>
    <property name="Tilt Y">00:03:40.967=0.730556</property>
    <property name="kdenlive:collapsed">0</property>
   </filter>
  </entry>
  <entry producer="producer95" in="00:03:47.500" out="00:04:29.567">
   <property name="kdenlive:id">10</property>
   <filter id="filter128">
    <property name="version">0.1</property>
    <property name="mlt_service">frei0r.scale0tilt</property>
    <property name="kdenlive_id">Facecam crop</property>
    <property name="Clip left">00:03:47.500=0.296875</property>
    <property name="Clip right">00:03:47.500=0.224219</property>
    <property name="Clip top">00:03:47.500=0.0944444</property>
    <property name="Clip bottom">00:03:47.500=0</property>
    <property name="Scale X">00:03:47.500=0.27</property>
    <property name="Scale Y">00:03:47.500=0.27</property>
    <property name="Tilt X">00:03:47.500=0.739844</property>
    <property name="Tilt Y">00:03:47.500=0.729167</property>
    <property name="kdenlive:collapsed">0</property>
   </filter>
   <filter id="filter129">
    <property name="version">0.1</property>
    <property name="mlt_service">frei0r.scale0tilt</property>
    <property name="kdenlive_id">frei0r.scale0tilt</property>
    <property name="Clip left">00:03:47.500=0</property>
    <property name="Clip right">00:03:47.500=0</property>
    <property name="Clip top">00:03:47.500=0</property>
    <property name="Clip bottom">00:03:47.500=0</property>
    <property name="Scale X">00:03:47.500=0.4</property>
    <property name="Scale Y">00:03:47.500=0.4</property>
    <property name="Tilt X">00:03:47.500=0.520312</property>
    <property name="Tilt Y">00:03:47.500=0.594444</property>
    <property name="kdenlive:collapsed">0</property>
   </filter>
  </entry>
  <entry producer="producer96" in="00:00:03.633" out="00:00:12.333">
   <property name="kdenlive:id">13</property>
   <filter id="filter130">
    <property name="version">0.1</property>
    <property name="mlt_service">frei0r.scale0tilt</property>
    <property name="kdenlive_id">Facecam crop</property>
    <property name="Clip left">00:00:03.633=0.296875</property>
    <property name="Clip right">00:00:03.633=0.224219</property>
    <property name="Clip top">00:00:03.633=0.0944444</property>
    <property name="Clip bottom">00:00:03.633=0</property>
    <property name="Scale X">00:00:03.633=0.27</property>
    <property name="Scale Y">00:00:03.633=0.27</property>
    <property name="Tilt X">00:00:03.633=0.790104</property>
    <property name="Tilt Y">00:00:03.633=0.730556</property>
    <property name="kdenlive:collapsed">0</property>
   </filter>
  </entry>
  <entry producer="producer96" in="00:00:16.700" out="00:00:19.733">
   <property name="kdenlive:id">13</property>
   <filter id="filter131">
    <property name="version">0.1</property>
    <property name="mlt_service">frei0r.scale0tilt</property>
    <property name="kdenlive_id">Facecam crop</property>
    <property name="Clip left">00:00:16.700=0.296875</property>
    <property name="Clip right">00:00:16.700=0.224219</property>
    <property name="Clip top">00:00:16.700=0.0944444</property>
    <property name="Clip bottom">00:00:16.700=0</property>
    <property name="Scale X">00:00:16.700=0.27</property>
    <property name="Scale Y">00:00:16.700=0.27</property>
    <property name="Tilt X">00:00:16.700=0.790104</property>
    <property name="Tilt Y">00:00:16.700=0.730556</property>
    <property name="kdenlive:collapsed">0</property>
   </filter>
  </entry>
  <entry producer="producer97" in="00:00:01.233" out="00:01:06.700">
   <property name="kdenlive:id">77</property>
   <filter id="filter132">
    <property name="version">0.1</property>
    <property name="mlt_service">frei0r.scale0tilt</property>
    <property name="kdenlive_id">Facecam crop</property>
    <property name="Clip left">00:00:01.233=0.296875</property>
    <property name="Clip right">00:00:01.233=0.224219</property>
    <property name="Clip top">00:00:01.233=0.0944444</property>
    <property name="Clip bottom">00:00:01.233=0</property>
    <property name="Scale X">00:00:01.233=0.27</property>
    <property name="Scale Y">00:00:01.233=0.27</property>
    <property name="Tilt X">00:00:01.233=0.790104</property>
    <property name="Tilt Y">00:00:01.233=0.730556</property>
    <property name="kdenlive:collapsed">0</property>
   </filter>
  </entry>
  <entry producer="producer97" in="00:01:15.367" out="00:01:34.867">
   <property name="kdenlive:id">77</property>
   <filter id="filter133">
    <property name="version">0.1</property>
    <property name="mlt_service">frei0r.scale0tilt</property>
    <property name="kdenlive_id">Facecam crop</property>
    <property name="Clip left">00:01:15.367=0.296875</property>
    <property name="Clip right">00:01:15.367=0.224219</property>
    <property name="Clip top">00:01:15.367=0.0944444</property>
    <property name="Clip bottom">00:01:15.367=0</property>
    <property name="Scale X">00:01:15.367=0.27</property>
    <property name="Scale Y">00:01:15.367=0.27</property>
    <property name="Tilt X">00:01:15.367=0.790104</property>
    <property name="Tilt Y">00:01:15.367=0.730556</property>
    <property name="kdenlive:collapsed">0</property>
   </filter>
  </entry>
  <entry producer="producer96" in="00:00:49.767" out="00:01:03.700">
   <property name="kdenlive:id">13</property>
   <filter id="filter134">
    <property name="version">0.1</property>
    <property name="mlt_service">frei0r.scale0tilt</property>
    <property name="kdenlive_id">Facecam crop</property>
    <property name="Clip left">00:00:49.767=0.296875</property>
    <property name="Clip right">00:00:49.767=0.224219</property>
    <property name="Clip top">00:00:49.767=0.0944444</property>
    <property name="Clip bottom">00:00:49.767=0</property>
    <property name="Scale X">00:00:49.767=0.27</property>
    <property name="Scale Y">00:00:49.767=0.27</property>
    <property name="Tilt X">00:00:49.767=0.790104</property>
    <property name="Tilt Y">00:00:49.767=0.730556</property>
    <property name="kdenlive:collapsed">0</property>
   </filter>
  </entry>
  <entry producer="producer96" in="00:01:07.633" out="00:01:20.367">
   <property name="kdenlive:id">13</property>
   <filter id="filter135">
    <property name="version">0.1</property>
    <property name="mlt_service">frei0r.scale0tilt</property>
    <property name="kdenlive_id">Facecam crop</property>
    <property name="Clip left">00:01:07.633=0.296875</property>
    <property name="Clip right">00:01:07.633=0.224219</property>
    <property name="Clip top">00:01:07.633=0.0944444</property>
    <property name="Clip bottom">00:01:07.633=0</property>
    <property name="Scale X">00:01:07.633=0.27</property>
    <property name="Scale Y">00:01:07.633=0.27</property>
    <property name="Tilt X">00:01:07.633=0.790104</property>
    <property name="Tilt Y">00:01:07.633=0.730556</property>
    <property name="kdenlive:collapsed">0</property>
   </filter>
  </entry>
  <entry producer="producer96" in="00:01:20.400" out="00:01:31.200">
   <property name="kdenlive:id">13</property>
   <filter id="filter136">
    <property name="version">0.1</property>
    <property name="mlt_service">frei0r.scale0tilt</property>
    <property name="kdenlive_id">Facecam crop</property>
    <property name="Clip left">00:01:20.400=0.296875</property>
    <property name="Clip right">00:01:20.400=0.224219</property>
    <property name="Clip top">00:01:20.400=0.0944444</property>
    <property name="Clip bottom">00:01:20.400=0</property>
    <property name="Scale X">00:01:20.400=0.27</property>
    <property name="Scale Y">00:01:20.400=0.27</property>
    <property name="Tilt X">00:01:20.400=0.790104</property>
    <property name="Tilt Y">00:01:20.400=0.730556</property>
    <property name="kdenlive:collapsed">1</property>
   </filter>
   <filter id="filter137">
    <property name="version">0.1</property>
    <property name="mlt_service">frei0r.scale0tilt</property>
    <property name="kdenlive_id">frei0r.scale0tilt</property>
    <property name="Clip left">00:01:20.400=0</property>
    <property name="Clip right">00:01:20.400=0</property>
    <property name="Clip top">00:01:20.400=0</property>
    <property name="Clip bottom">00:01:20.400=0</property>
    <property name="Scale X">00:01:20.400=0.4</property>
    <property name="Scale Y">00:01:20.400=0.4</property>
    <property name="Tilt X">00:01:20.400=0.6125</property>
    <property name="Tilt Y">00:01:20.400=0.594444</property>
    <property name="kdenlive:collapsed">0</property>
   </filter>
  </entry>
  <entry producer="producer96" in="00:01:31.233" out="00:01:56.167">
   <property name="kdenlive:id">13</property>
   <filter id="filter138">
    <property name="version">0.1</property>
    <property name="mlt_service">frei0r.scale0tilt</property>
    <property name="kdenlive_id">Facecam crop</property>
    <property name="Clip left">00:00:00.000=0.296875</property>
    <property name="Clip right">00:00:00.000=0.224219</property>
    <property name="Clip top">00:00:00.000=0.0944444</property>
    <property name="Clip bottom">00:00:00.000=0</property>
    <property name="Scale X">00:00:00.000=0.27</property>
    <property name="Scale Y">00:00:00.000=0.27</property>
    <property name="Tilt X">00:00:00.000=0.790104</property>
    <property name="Tilt Y">00:00:00.000=0.730556</property>
    <property name="kdenlive:collapsed">0</property>
   </filter>
  </entry>
  <entry producer="producer96" in="00:02:04.333" out="00:02:08.467">
   <property name="kdenlive:id">13</property>
   <filter id="filter139">
    <property name="version">0.1</property>
    <property name="mlt_service">frei0r.scale0tilt</property>
    <property name="kdenlive_id">Facecam crop</property>
    <property name="Clip left">00:02:04.333=0.296875</property>
    <property name="Clip right">00:02:04.333=0.224219</property>
    <property name="Clip top">00:02:04.333=0.0944444</property>
    <property name="Clip bottom">00:02:04.333=0</property>
    <property name="Scale X">00:02:04.333=0.27</property>
    <property name="Scale Y">00:02:04.333=0.27</property>
    <property name="Tilt X">00:02:04.333=0.790104</property>
    <property name="Tilt Y">00:02:04.333=0.730556</property>
    <property name="kdenlive:collapsed">0</property>
   </filter>
  </entry>
  <entry producer="producer96" in="00:02:10.533" out="00:02:16.200">
   <property name="kdenlive:id">13</property>
   <filter id="filter140">
    <property name="version">0.1</property>
    <property name="mlt_service">frei0r.scale0tilt</property>
    <property name="kdenlive_id">Facecam crop</property>
    <property name="Clip left">00:02:10.533=0.296875</property>
    <property name="Clip right">00:02:10.533=0.224219</property>
    <property name="Clip top">00:02:10.533=0.0944444</property>
    <property name="Clip bottom">00:02:10.533=0</property>
    <property name="Scale X">00:02:10.533=0.27</property>
    <property name="Scale Y">00:02:10.533=0.27</property>
    <property name="Tilt X">00:02:10.533=0.790104</property>
    <property name="Tilt Y">00:02:10.533=0.730556</property>
    <property name="kdenlive:collapsed">0</property>
   </filter>
  </entry>
  <entry producer="producer96" in="00:02:16.233" out="00:02:30.400">
   <property name="kdenlive:id">13</property>
   <filter id="filter141">
    <property name="version">0.1</property>
    <property name="mlt_service">frei0r.scale0tilt</property>
    <property name="kdenlive_id">Facecam crop</property>
    <property name="Clip left">00:02:16.233=0.296875</property>
    <property name="Clip right">00:02:16.233=0.224219</property>
    <property name="Clip top">00:02:16.233=0.0944444</property>
    <property name="Clip bottom">00:02:16.233=0</property>
    <property name="Scale X">00:02:16.233=0.27</property>
    <property name="Scale Y">00:02:16.233=0.27</property>
    <property name="Tilt X">00:02:16.233=0.790104</property>
    <property name="Tilt Y">00:02:16.233=0.730556</property>
    <property name="kdenlive:collapsed">1</property>
   </filter>
   <filter id="filter142">
    <property name="version">0.1</property>
    <property name="mlt_service">frei0r.scale0tilt</property>
    <property name="kdenlive_id">frei0r.scale0tilt</property>
    <property name="Clip left">00:02:16.233=0</property>
    <property name="Clip right">00:02:16.233=0</property>
    <property name="Clip top">00:02:16.233=0</property>
    <property name="Clip bottom">00:02:16.233=0</property>
    <property name="Scale X">00:02:16.233=0.4</property>
    <property name="Scale Y">00:02:16.233=0.4</property>
    <property name="Tilt X">00:02:16.233=0.520312</property>
    <property name="Tilt Y">00:02:16.233=0.594444</property>
    <property name="kdenlive:collapsed">0</property>
   </filter>
  </entry>
  <entry producer="producer96" in="00:02:31.933" out="00:02:47.100">
   <property name="kdenlive:id">13</property>
   <filter id="filter143">
    <property name="version">0.1</property>
    <property name="mlt_service">frei0r.scale0tilt</property>
    <property name="kdenlive_id">Facecam crop</property>
    <property name="Clip left">00:02:31.933=0.296875</property>
    <property name="Clip right">00:02:31.933=0.224219</property>
    <property name="Clip top">00:02:31.933=0.0944444</property>
    <property name="Clip bottom">00:02:31.933=0</property>
    <property name="Scale X">00:02:31.933=0.27</property>
    <property name="Scale Y">00:02:31.933=0.27</property>
    <property name="Tilt X">00:02:31.933=0.790104</property>
    <property name="Tilt Y">00:02:31.933=0.730556</property>
    <property name="kdenlive:collapsed">0</property>
   </filter>
   <filter id="filter144">
    <property name="version">0.1</property>
    <property name="mlt_service">frei0r.scale0tilt</property>
    <property name="kdenlive_id">frei0r.scale0tilt</property>
    <property name="Clip left">00:02:31.933=0</property>
    <property name="Clip right">00:02:31.933=0</property>
    <property name="Clip top">00:02:31.933=0</property>
    <property name="Clip bottom">00:02:31.933=0</property>
    <property name="Scale X">00:02:31.933=0.4</property>
    <property name="Scale Y">00:02:31.933=0.4</property>
    <property name="Tilt X">00:02:31.933=0.520312</property>
    <property name="Tilt Y">00:02:31.933=0.594444</property>
    <property name="kdenlive:collapsed">0</property>
   </filter>
  </entry>
  <entry producer="producer96" in="00:02:47.133" out="00:03:23.333">
   <property name="kdenlive:id">13</property>
   <filter id="filter145">
    <property name="version">0.1</property>
    <property name="mlt_service">frei0r.scale0tilt</property>
    <property name="kdenlive_id">Facecam crop</property>
    <property name="Clip left">00:00:00.000=0.296875</property>
    <property name="Clip right">00:00:00.000=0.224219</property>
    <property name="Clip top">00:00:00.000=0.0944444</property>
    <property name="Clip bottom">00:00:00.000=0</property>
    <property name="Scale X">00:00:00.000=0.27</property>
    <property name="Scale Y">00:00:00.000=0.27</property>
    <property name="Tilt X">00:00:00.000=0.790104</property>
    <property name="Tilt Y">00:00:00.000=0.730556</property>
    <property name="kdenlive:collapsed">0</property>
   </filter>
  </entry>
  <entry producer="producer96" in="00:03:35.400" out="00:04:54.800">
   <property name="kdenlive:id">13</property>
   <filter id="filter146">
    <property name="version">0.1</property>
    <property name="mlt_service">frei0r.scale0tilt</property>
    <property name="kdenlive_id">Facecam crop</property>
    <property name="Clip left">00:03:35.400=0.296875</property>
    <property name="Clip right">00:03:35.400=0.224219</property>
    <property name="Clip top">00:03:35.400=0.0944444</property>
    <property name="Clip bottom">00:03:35.400=0</property>
    <property name="Scale X">00:03:35.400=0.27</property>
    <property name="Scale Y">00:03:35.400=0.27</property>
    <property name="Tilt X">00:03:35.400=0.790104</property>
    <property name="Tilt Y">00:03:35.400=0.730556</property>
    <property name="kdenlive:collapsed">0</property>
   </filter>
  </entry>
  <entry producer="producer96" in="00:04:57.167" out="00:05:00.267">
   <property name="kdenlive:id">13</property>
   <filter id="filter147">
    <property name="version">0.1</property>
    <property name="mlt_service">frei0r.scale0tilt</property>
    <property name="kdenlive_id">Facecam crop</property>
    <property name="Clip left">00:04:57.167=0.296875</property>
    <property name="Clip right">00:04:57.167=0.224219</property>
    <property name="Clip top">00:04:57.167=0.0944444</property>
    <property name="Clip bottom">00:04:57.167=0</property>
    <property name="Scale X">00:04:57.167=0.27</property>
    <property name="Scale Y">00:04:57.167=0.27</property>
    <property name="Tilt X">00:04:57.167=0.790104</property>
    <property name="Tilt Y">00:04:57.167=0.730556</property>
    <property name="kdenlive:collapsed">0</property>
   </filter>
  </entry>
  <entry producer="producer96" in="00:05:04.467" out="00:05:08.167">
   <property name="kdenlive:id">13</property>
   <filter id="filter148">
    <property name="version">0.1</property>
    <property name="mlt_service">frei0r.scale0tilt</property>
    <property name="kdenlive_id">Facecam crop</property>
    <property name="Clip left">00:05:04.467=0.296875</property>
    <property name="Clip right">00:05:04.467=0.224219</property>
    <property name="Clip top">00:05:04.467=0.0944444</property>
    <property name="Clip bottom">00:05:04.467=0</property>
    <property name="Scale X">00:05:04.467=0.27</property>
    <property name="Scale Y">00:05:04.467=0.27</property>
    <property name="Tilt X">00:05:04.467=0.790104</property>
    <property name="Tilt Y">00:05:04.467=0.730556</property>
    <property name="kdenlive:collapsed">0</property>
   </filter>
  </entry>
  <entry producer="producer96" in="00:05:21.200" out="00:05:52.800">
   <property name="kdenlive:id">13</property>
   <filter id="filter149">
    <property name="version">0.1</property>
    <property name="mlt_service">frei0r.scale0tilt</property>
    <property name="kdenlive_id">Facecam crop</property>
    <property name="Clip left">00:00:00.000=0.296875</property>
    <property name="Clip right">00:00:00.000=0.224219</property>
    <property name="Clip top">00:00:00.000=0.0944444</property>
    <property name="Clip bottom">00:00:00.000=0</property>
    <property name="Scale X">00:00:00.000=0.27</property>
    <property name="Scale Y">00:00:00.000=0.27</property>
    <property name="Tilt X">00:00:00.000=0.790104</property>
    <property name="Tilt Y">00:00:00.000=0.730556</property>
    <property name="kdenlive:collapsed">0</property>
   </filter>
  </entry>
  <entry producer="producer96" in="00:05:54.133" out="00:06:01.133">
   <property name="kdenlive:id">13</property>
   <filter id="filter150">
    <property name="version">0.1</property>
    <property name="mlt_service">frei0r.scale0tilt</property>
    <property name="kdenlive_id">Facecam crop</property>
    <property name="Clip left">00:05:54.133=0.296875</property>
    <property name="Clip right">00:05:54.133=0.224219</property>
    <property name="Clip top">00:05:54.133=0.0944444</property>
    <property name="Clip bottom">00:05:54.133=0</property>
    <property name="Scale X">00:05:54.133=0.27</property>
    <property name="Scale Y">00:05:54.133=0.27</property>
    <property name="Tilt X">00:05:54.133=0.790104</property>
    <property name="Tilt Y">00:05:54.133=0.730556</property>
    <property name="kdenlive:collapsed">0</property>
   </filter>
  </entry>
  <entry producer="producer96" in="00:06:08.867" out="00:06:52.000">
   <property name="kdenlive:id">13</property>
   <filter id="filter151">
    <property name="version">0.1</property>
    <property name="mlt_service">frei0r.scale0tilt</property>
    <property name="kdenlive_id">Facecam crop</property>
    <property name="Clip left">00:06:08.867=0.296875</property>
    <property name="Clip right">00:06:08.867=0.224219</property>
    <property name="Clip top">00:06:08.867=0.0944444</property>
    <property name="Clip bottom">00:06:08.867=0</property>
    <property name="Scale X">00:06:08.867=0.27</property>
    <property name="Scale Y">00:06:08.867=0.27</property>
    <property name="Tilt X">00:06:08.867=0.790104</property>
    <property name="Tilt Y">00:06:08.867=0.730556</property>
    <property name="kdenlive:collapsed">0</property>
   </filter>
  </entry>
  <entry producer="producer96" in="00:06:53.167" out="00:07:00.500">
   <property name="kdenlive:id">13</property>
   <filter id="filter152">
    <property name="version">0.1</property>
    <property name="mlt_service">frei0r.scale0tilt</property>
    <property name="kdenlive_id">Facecam crop</property>
    <property name="Clip left">00:06:53.167=0.296875</property>
    <property name="Clip right">00:06:53.167=0.224219</property>
    <property name="Clip top">00:06:53.167=0.0944444</property>
    <property name="Clip bottom">00:06:53.167=0</property>
    <property name="Scale X">00:06:53.167=0.27</property>
    <property name="Scale Y">00:06:53.167=0.27</property>
    <property name="Tilt X">00:06:53.167=0.790104</property>
    <property name="Tilt Y">00:06:53.167=0.730556</property>
    <property name="kdenlive:collapsed">0</property>
   </filter>
  </entry>
  <entry producer="producer96" in="00:07:08.100" out="00:07:21.767">
   <property name="kdenlive:id">13</property>
   <filter id="filter153">
    <property name="version">0.1</property>
    <property name="mlt_service">frei0r.scale0tilt</property>
    <property name="kdenlive_id">Facecam crop</property>
    <property name="Clip left">00:07:08.100=0.296875</property>
    <property name="Clip right">00:07:08.100=0.224219</property>
    <property name="Clip top">00:07:08.100=0.0944444</property>
    <property name="Clip bottom">00:07:08.100=0</property>
    <property name="Scale X">00:07:08.100=0.27</property>
    <property name="Scale Y">00:07:08.100=0.27</property>
    <property name="Tilt X">00:07:08.100=0.790104</property>
    <property name="Tilt Y">00:07:08.100=0.730556</property>
    <property name="kdenlive:collapsed">0</property>
   </filter>
  </entry>
  <entry producer="producer96" in="00:07:22.100" out="00:07:24.533">
   <property name="kdenlive:id">13</property>
   <filter id="filter154">
    <property name="version">0.1</property>
    <property name="mlt_service">frei0r.scale0tilt</property>
    <property name="kdenlive_id">Facecam crop</property>
    <property name="Clip left">00:07:22.100=0.296875</property>
    <property name="Clip right">00:07:22.100=0.224219</property>
    <property name="Clip top">00:07:22.100=0.0944444</property>
    <property name="Clip bottom">00:07:22.100=0</property>
    <property name="Scale X">00:07:22.100=0.27</property>
    <property name="Scale Y">00:07:22.100=0.27</property>
    <property name="Tilt X">00:07:22.100=0.790104</property>
    <property name="Tilt Y">00:07:22.100=0.730556</property>
    <property name="kdenlive:collapsed">0</property>
   </filter>
  </entry>
  <entry producer="producer96" in="00:07:28.800" out="00:08:05.733">
   <property name="kdenlive:id">13</property>
   <filter id="filter155">
    <property name="version">0.1</property>
    <property name="mlt_service">frei0r.scale0tilt</property>
    <property name="kdenlive_id">Facecam crop</property>
    <property name="Clip left">00:07:28.800=0.296875</property>
    <property name="Clip right">00:07:28.800=0.224219</property>
    <property name="Clip top">00:07:28.800=0.0944444</property>
    <property name="Clip bottom">00:07:28.800=0</property>
    <property name="Scale X">00:07:28.800=0.27</property>
    <property name="Scale Y">00:07:28.800=0.27</property>
    <property name="Tilt X">00:07:28.800=0.790104</property>
    <property name="Tilt Y">00:07:28.800=0.730556</property>
    <property name="kdenlive:collapsed">0</property>
   </filter>
  </entry>
  <entry producer="producer96" in="00:08:16.233" out="00:08:29.133">
   <property name="kdenlive:id">13</property>
   <filter id="filter156">
    <property name="version">0.1</property>
    <property name="mlt_service">frei0r.scale0tilt</property>
    <property name="kdenlive_id">Facecam crop</property>
    <property name="Clip left">00:08:16.233=0.296875</property>
    <property name="Clip right">00:08:16.233=0.224219</property>
    <property name="Clip top">00:08:16.233=0.0944444</property>
    <property name="Clip bottom">00:08:16.233=0</property>
    <property name="Scale X">00:08:16.233=0.27</property>
    <property name="Scale Y">00:08:16.233=0.27</property>
    <property name="Tilt X">00:08:16.233=0.790104</property>
    <property name="Tilt Y">00:08:16.233=0.730556</property>
    <property name="kdenlive:collapsed">0</property>
   </filter>
  </entry>
  <entry producer="producer96" in="00:08:29.167" out="00:09:23.167">
   <property name="kdenlive:id">13</property>
   <filter id="filter157">
    <property name="version">0.1</property>
    <property name="mlt_service">frei0r.scale0tilt</property>
    <property name="kdenlive_id">Facecam crop</property>
    <property name="Clip left">00:08:29.167=0.296875</property>
    <property name="Clip right">00:08:29.167=0.224219</property>
    <property name="Clip top">00:08:29.167=0.0944444</property>
    <property name="Clip bottom">00:08:29.167=0</property>
    <property name="Scale X">00:08:29.167=0.27</property>
    <property name="Scale Y">00:08:29.167=0.27</property>
    <property name="Tilt X">00:08:29.167=0.790104</property>
    <property name="Tilt Y">00:08:29.167=0.730556</property>
    <property name="kdenlive:collapsed">0</property>
   </filter>
   <filter id="filter158">
    <property name="version">0.1</property>
    <property name="mlt_service">frei0r.scale0tilt</property>
    <property name="kdenlive_id">frei0r.scale0tilt</property>
    <property name="Clip left">00:08:29.167=0</property>
    <property name="Clip right">00:08:29.167=0</property>
    <property name="Clip top">00:08:29.167=0</property>
    <property name="Clip bottom">00:08:29.167=0</property>
    <property name="Scale X">00:08:29.167=0.4</property>
    <property name="Scale Y">00:08:29.167=0.4</property>
    <property name="Tilt X">00:08:29.167=0.520312</property>
    <property name="Tilt Y">00:08:29.167=0.594444</property>
    <property name="kdenlive:collapsed">0</property>
   </filter>
  </entry>
  <entry producer="producer96" in="00:09:23.200" out="00:09:34.000">
   <property name="kdenlive:id">13</property>
   <filter id="filter159">
    <property name="version">0.1</property>
    <property name="mlt_service">frei0r.scale0tilt</property>
    <property name="kdenlive_id">Facecam crop</property>
    <property name="Clip left">00:09:23.200=0.296875</property>
    <property name="Clip right">00:09:23.200=0.224219</property>
    <property name="Clip top">00:09:23.200=0.0944444</property>
    <property name="Clip bottom">00:09:23.200=0</property>
    <property name="Scale X">00:09:23.200=0.27</property>
    <property name="Scale Y">00:09:23.200=0.27</property>
    <property name="Tilt X">00:09:23.200=0.790104</property>
    <property name="Tilt Y">00:09:23.200=0.730556</property>
    <property name="kdenlive:collapsed">1</property>
   </filter>
  </entry>
  <entry producer="producer96" in="00:09:51.133" out="00:10:19.067">
   <property name="kdenlive:id">13</property>
   <filter id="filter160">
    <property name="version">0.1</property>
    <property name="mlt_service">frei0r.scale0tilt</property>
    <property name="kdenlive_id">Facecam crop</property>
    <property name="Clip left">00:00:00.000=0.296875</property>
    <property name="Clip right">00:00:00.000=0.224219</property>
    <property name="Clip top">00:00:00.000=0.0944444</property>
    <property name="Clip bottom">00:00:00.000=0</property>
    <property name="Scale X">00:00:00.000=0.27</property>
    <property name="Scale Y">00:00:00.000=0.27</property>
    <property name="Tilt X">00:00:00.000=0.790104</property>
    <property name="Tilt Y">00:00:00.000=0.730556</property>
    <property name="kdenlive:collapsed">0</property>
   </filter>
  </entry>
  <entry producer="producer96" in="00:10:19.100" out="00:10:37.367">
   <property name="kdenlive:id">13</property>
   <filter id="filter161">
    <property name="version">0.1</property>
    <property name="mlt_service">frei0r.scale0tilt</property>
    <property name="kdenlive_id">Facecam crop</property>
    <property name="Clip left">00:10:19.100=0.296875</property>
    <property name="Clip right">00:10:19.100=0.224219</property>
    <property name="Clip top">00:10:19.100=0.0944444</property>
    <property name="Clip bottom">00:10:19.100=0</property>
    <property name="Scale X">00:10:19.100=0.27</property>
    <property name="Scale Y">00:10:19.100=0.27</property>
    <property name="Tilt X">00:10:19.100=0.790104</property>
    <property name="Tilt Y">00:10:19.100=0.730556</property>
    <property name="kdenlive:collapsed">0</property>
   </filter>
   <filter id="filter162">
    <property name="version">0.1</property>
    <property name="mlt_service">frei0r.scale0tilt</property>
    <property name="kdenlive_id">frei0r.scale0tilt</property>
    <property name="Clip left">00:10:19.100=0</property>
    <property name="Clip right">00:10:19.100=0</property>
    <property name="Clip top">00:10:19.100=0</property>
    <property name="Clip bottom">00:10:19.100=0</property>
    <property name="Scale X">00:10:19.100=0.4</property>
    <property name="Scale Y">00:10:19.100=0.4</property>
    <property name="Tilt X">00:10:19.100=0.520312</property>
    <property name="Tilt Y">00:10:19.100=0.594444</property>
    <property name="kdenlive:collapsed">0</property>
   </filter>
  </entry>
  <entry producer="producer96" in="00:10:37.400" out="00:11:43.300">
   <property name="kdenlive:id">13</property>
   <filter id="filter163">
    <property name="version">0.1</property>
    <property name="mlt_service">frei0r.scale0tilt</property>
    <property name="kdenlive_id">Facecam crop</property>
    <property name="Clip left">00:10:37.400=0.296875</property>
    <property name="Clip right">00:10:37.400=0.224219</property>
    <property name="Clip top">00:10:37.400=0.0944444</property>
    <property name="Clip bottom">00:10:37.400=0</property>
    <property name="Scale X">00:10:37.400=0.27</property>
    <property name="Scale Y">00:10:37.400=0.27</property>
    <property name="Tilt X">00:10:37.400=0.790104</property>
    <property name="Tilt Y">00:10:37.400=0.730556</property>
    <property name="kdenlive:collapsed">1</property>
   </filter>
  </entry>
  <entry producer="producer96" in="00:12:02.367" out="00:13:19.967">
   <property name="kdenlive:id">13</property>
   <filter id="filter164">
    <property name="version">0.1</property>
    <property name="mlt_service">frei0r.scale0tilt</property>
    <property name="kdenlive_id">Facecam crop</property>
    <property name="Clip left">00:12:02.367=0.296875</property>
    <property name="Clip right">00:12:02.367=0.224219</property>
    <property name="Clip top">00:12:02.367=0.0944444</property>
    <property name="Clip bottom">00:12:02.367=0</property>
    <property name="Scale X">00:12:02.367=0.27</property>
    <property name="Scale Y">00:12:02.367=0.27</property>
    <property name="Tilt X">00:12:02.367=0.790104</property>
    <property name="Tilt Y">00:12:02.367=0.730556</property>
    <property name="kdenlive:collapsed">0</property>
   </filter>
  </entry>
  <entry producer="producer96" in="00:13:33.600" out="00:14:18.467">
   <property name="kdenlive:id">13</property>
   <filter id="filter165">
    <property name="version">0.1</property>
    <property name="mlt_service">frei0r.scale0tilt</property>
    <property name="kdenlive_id">Facecam crop</property>
    <property name="Clip left">00:13:33.600=0.296875</property>
    <property name="Clip right">00:13:33.600=0.224219</property>
    <property name="Clip top">00:13:33.600=0.0944444</property>
    <property name="Clip bottom">00:13:33.600=0</property>
    <property name="Scale X">00:13:33.600=0.27</property>
    <property name="Scale Y">00:13:33.600=0.27</property>
    <property name="Tilt X">00:13:33.600=0.790104</property>
    <property name="Tilt Y">00:13:33.600=0.730556</property>
    <property name="kdenlive:collapsed">0</property>
   </filter>
  </entry>
  <entry producer="producer98" in="00:00:01.533" out="00:00:41.500">
   <property name="kdenlive:id">16</property>
   <filter id="filter166">
    <property name="version">0.1</property>
    <property name="mlt_service">frei0r.scale0tilt</property>
    <property name="kdenlive_id">Facecam crop</property>
    <property name="Clip left">00:00:01.533=0.296875</property>
    <property name="Clip right">00:00:01.533=0.224219</property>
    <property name="Clip top">00:00:01.533=0.0944444</property>
    <property name="Clip bottom">00:00:01.533=0</property>
    <property name="Scale X">00:00:01.533=0.27</property>
    <property name="Scale Y">00:00:01.533=0.27</property>
    <property name="Tilt X">00:00:01.533=0.790104</property>
    <property name="Tilt Y">00:00:01.533=0.730556</property>
    <property name="kdenlive:collapsed">0</property>
   </filter>
  </entry>
  <entry producer="producer98" in="00:00:43.633" out="00:03:08.267">
   <property name="kdenlive:id">16</property>
   <filter id="filter167">
    <property name="version">0.1</property>
    <property name="mlt_service">frei0r.scale0tilt</property>
    <property name="kdenlive_id">Facecam crop</property>
    <property name="Clip left">00:00:00.000=0.296875</property>
    <property name="Clip right">00:00:00.000=0.224219</property>
    <property name="Clip top">00:00:00.000=0.0944444</property>
    <property name="Clip bottom">00:00:00.000=0</property>
    <property name="Scale X">00:00:00.000=0.27</property>
    <property name="Scale Y">00:00:00.000=0.27</property>
    <property name="Tilt X">00:00:00.000=0.790104</property>
    <property name="Tilt Y">00:00:00.000=0.730556</property>
    <property name="kdenlive:collapsed">0</property>
   </filter>
  </entry>
  <entry producer="producer98" in="00:03:08.300" out="00:03:23.900">
   <property name="kdenlive:id">16</property>
   <filter id="filter168">
    <property name="version">0.1</property>
    <property name="mlt_service">frei0r.scale0tilt</property>
    <property name="kdenlive_id">Facecam crop</property>
    <property name="Clip left">00:03:08.300=0.296875</property>
    <property name="Clip right">00:03:08.300=0.224219</property>
    <property name="Clip top">00:03:08.300=0.0944444</property>
    <property name="Clip bottom">00:03:08.300=0</property>
    <property name="Scale X">00:03:08.300=0.27</property>
    <property name="Scale Y">00:03:08.300=0.27</property>
    <property name="Tilt X">00:03:08.300=0.790104</property>
    <property name="Tilt Y">00:03:08.300=0.730556</property>
    <property name="kdenlive:collapsed">0</property>
   </filter>
   <filter id="filter169">
    <property name="version">0.1</property>
    <property name="mlt_service">frei0r.scale0tilt</property>
    <property name="kdenlive_id">frei0r.scale0tilt</property>
    <property name="Clip left">00:03:08.300=0</property>
    <property name="Clip right">00:03:08.300=0</property>
    <property name="Clip top">00:03:08.300=0</property>
    <property name="Clip bottom">00:03:08.300=0</property>
    <property name="Scale X">00:03:08.300=0.4</property>
    <property name="Scale Y">00:03:08.300=0.4</property>
    <property name="Tilt X">00:03:08.300=0.520312</property>
    <property name="Tilt Y">00:03:08.300=0.594444</property>
    <property name="kdenlive:collapsed">0</property>
   </filter>
  </entry>
  <entry producer="producer98" in="00:03:23.933" out="00:04:47.500">
   <property name="kdenlive:id">16</property>
   <filter id="filter170">
    <property name="version">0.1</property>
    <property name="mlt_service">frei0r.scale0tilt</property>
    <property name="kdenlive_id">Facecam crop</property>
    <property name="Clip left">00:03:23.933=0.296875</property>
    <property name="Clip right">00:03:23.933=0.224219</property>
    <property name="Clip top">00:03:23.933=0.0944444</property>
    <property name="Clip bottom">00:03:23.933=0</property>
    <property name="Scale X">00:03:23.933=0.27</property>
    <property name="Scale Y">00:03:23.933=0.27</property>
    <property name="Tilt X">00:03:23.933=0.790104</property>
    <property name="Tilt Y">00:03:23.933=0.730556</property>
    <property name="kdenlive:collapsed">1</property>
   </filter>
  </entry>
  <entry producer="producer98" in="00:04:58.333" out="00:05:22.933">
   <property name="kdenlive:id">16</property>
   <filter id="filter171">
    <property name="version">0.1</property>
    <property name="mlt_service">frei0r.scale0tilt</property>
    <property name="kdenlive_id">Facecam crop</property>
    <property name="Clip left">00:04:58.333=0.296875</property>
    <property name="Clip right">00:04:58.333=0.224219</property>
    <property name="Clip top">00:04:58.333=0.0944444</property>
    <property name="Clip bottom">00:04:58.333=0</property>
    <property name="Scale X">00:04:58.333=0.27</property>
    <property name="Scale Y">00:04:58.333=0.27</property>
    <property name="Tilt X">00:04:58.333=0.790104</property>
    <property name="Tilt Y">00:04:58.333=0.730556</property>
    <property name="kdenlive:collapsed">1</property>
   </filter>
  </entry>
  <entry producer="producer98" in="00:05:27.900" out="00:05:57.333">
   <property name="kdenlive:id">16</property>
   <filter id="filter172">
    <property name="version">0.1</property>
    <property name="mlt_service">frei0r.scale0tilt</property>
    <property name="kdenlive_id">Facecam crop</property>
    <property name="Clip left">00:05:27.900=0.296875</property>
    <property name="Clip right">00:05:27.900=0.224219</property>
    <property name="Clip top">00:05:27.900=0.0944444</property>
    <property name="Clip bottom">00:05:27.900=0</property>
    <property name="Scale X">00:05:27.900=0.27</property>
    <property name="Scale Y">00:05:27.900=0.27</property>
    <property name="Tilt X">00:05:27.900=0.790104</property>
    <property name="Tilt Y">00:05:27.900=0.730556</property>
    <property name="kdenlive:collapsed">0</property>
   </filter>
  </entry>
  <entry producer="producer98" in="00:06:05.200" out="00:06:06.233">
   <property name="kdenlive:id">16</property>
   <filter id="filter173">
    <property name="version">0.1</property>
    <property name="mlt_service">frei0r.scale0tilt</property>
    <property name="kdenlive_id">Facecam crop</property>
    <property name="Clip left">00:06:05.200=0.296875</property>
    <property name="Clip right">00:06:05.200=0.224219</property>
    <property name="Clip top">00:06:05.200=0.0944444</property>
    <property name="Clip bottom">00:06:05.200=0</property>
    <property name="Scale X">00:06:05.200=0.27</property>
    <property name="Scale Y">00:06:05.200=0.27</property>
    <property name="Tilt X">00:06:05.200=0.790104</property>
    <property name="Tilt Y">00:06:05.200=0.730556</property>
    <property name="kdenlive:collapsed">0</property>
   </filter>
  </entry>
  <entry producer="producer98" in="00:06:10.200" out="00:06:26.567">
   <property name="kdenlive:id">16</property>
   <filter id="filter174">
    <property name="version">0.1</property>
    <property name="mlt_service">frei0r.scale0tilt</property>
    <property name="kdenlive_id">Facecam crop</property>
    <property name="Clip left">00:06:10.200=0.296875</property>
    <property name="Clip right">00:06:10.200=0.224219</property>
    <property name="Clip top">00:06:10.200=0.0944444</property>
    <property name="Clip bottom">00:06:10.200=0</property>
    <property name="Scale X">00:06:10.200=0.27</property>
    <property name="Scale Y">00:06:10.200=0.27</property>
    <property name="Tilt X">00:06:10.200=0.790104</property>
    <property name="Tilt Y">00:06:10.200=0.730556</property>
    <property name="kdenlive:collapsed">0</property>
   </filter>
  </entry>
  <entry producer="producer98" in="00:06:40.133" out="00:07:34.400">
   <property name="kdenlive:id">16</property>
   <filter id="filter175">
    <property name="version">0.1</property>
    <property name="mlt_service">frei0r.scale0tilt</property>
    <property name="kdenlive_id">Facecam crop</property>
    <property name="Clip left">00:06:40.133=0.296875</property>
    <property name="Clip right">00:06:40.133=0.224219</property>
    <property name="Clip top">00:06:40.133=0.0944444</property>
    <property name="Clip bottom">00:06:40.133=0</property>
    <property name="Scale X">00:06:40.133=0.27</property>
    <property name="Scale Y">00:06:40.133=0.27</property>
    <property name="Tilt X">00:06:40.133=0.790104</property>
    <property name="Tilt Y">00:06:40.133=0.730556</property>
    <property name="kdenlive:collapsed">0</property>
   </filter>
  </entry>
  <entry producer="producer98" in="00:07:38.667" out="00:07:40.733">
   <property name="kdenlive:id">16</property>
   <filter id="filter176">
    <property name="version">0.1</property>
    <property name="mlt_service">frei0r.scale0tilt</property>
    <property name="kdenlive_id">Facecam crop</property>
    <property name="Clip left">00:07:38.667=0.296875</property>
    <property name="Clip right">00:07:38.667=0.224219</property>
    <property name="Clip top">00:07:38.667=0.0944444</property>
    <property name="Clip bottom">00:07:38.667=0</property>
    <property name="Scale X">00:07:38.667=0.27</property>
    <property name="Scale Y">00:07:38.667=0.27</property>
    <property name="Tilt X">00:07:38.667=0.790104</property>
    <property name="Tilt Y">00:07:38.667=0.730556</property>
    <property name="kdenlive:collapsed">0</property>
   </filter>
  </entry>
  <entry producer="producer98" in="00:07:44.100" out="00:07:46.500">
   <property name="kdenlive:id">16</property>
   <filter id="filter177">
    <property name="version">0.1</property>
    <property name="mlt_service">frei0r.scale0tilt</property>
    <property name="kdenlive_id">Facecam crop</property>
    <property name="Clip left">00:07:44.100=0.296875</property>
    <property name="Clip right">00:07:44.100=0.224219</property>
    <property name="Clip top">00:07:44.100=0.0944444</property>
    <property name="Clip bottom">00:07:44.100=0</property>
    <property name="Scale X">00:07:44.100=0.27</property>
    <property name="Scale Y">00:07:44.100=0.27</property>
    <property name="Tilt X">00:07:44.100=0.790104</property>
    <property name="Tilt Y">00:07:44.100=0.730556</property>
    <property name="kdenlive:collapsed">0</property>
   </filter>
  </entry>
  <entry producer="producer98" in="00:07:46.900" out="00:08:08.000">
   <property name="kdenlive:id">16</property>
   <filter id="filter178">
    <property name="version">0.1</property>
    <property name="mlt_service">frei0r.scale0tilt</property>
    <property name="kdenlive_id">Facecam crop</property>
    <property name="Clip left">00:07:46.900=0.296875</property>
    <property name="Clip right">00:07:46.900=0.224219</property>
    <property name="Clip top">00:07:46.900=0.0944444</property>
    <property name="Clip bottom">00:07:46.900=0</property>
    <property name="Scale X">00:07:46.900=0.27</property>
    <property name="Scale Y">00:07:46.900=0.27</property>
    <property name="Tilt X">00:07:46.900=0.790104</property>
    <property name="Tilt Y">00:07:46.900=0.730556</property>
    <property name="kdenlive:collapsed">0</property>
   </filter>
  </entry>
  <entry producer="producer98" in="00:08:13.933" out="00:08:38.033">
   <property name="kdenlive:id">16</property>
   <filter id="filter179">
    <property name="version">0.1</property>
    <property name="mlt_service">frei0r.scale0tilt</property>
    <property name="kdenlive_id">Facecam crop</property>
    <property name="Clip left">00:08:13.933=0.296875</property>
    <property name="Clip right">00:08:13.933=0.224219</property>
    <property name="Clip top">00:08:13.933=0.0944444</property>
    <property name="Clip bottom">00:08:13.933=0</property>
    <property name="Scale X">00:08:13.933=0.27</property>
    <property name="Scale Y">00:08:13.933=0.27</property>
    <property name="Tilt X">00:08:13.933=0.790104</property>
    <property name="Tilt Y">00:08:13.933=0.730556</property>
    <property name="kdenlive:collapsed">0</property>
   </filter>
  </entry>
  <entry producer="producer98" in="00:09:15.500" out="00:09:34.733">
   <property name="kdenlive:id">16</property>
   <filter id="filter180">
    <property name="version">0.1</property>
    <property name="mlt_service">frei0r.scale0tilt</property>
    <property name="kdenlive_id">Facecam crop</property>
    <property name="Clip left">00:09:15.500=0.296875</property>
    <property name="Clip right">00:09:15.500=0.224219</property>
    <property name="Clip top">00:09:15.500=0.0944444</property>
    <property name="Clip bottom">00:09:15.500=0</property>
    <property name="Scale X">00:09:15.500=0.27</property>
    <property name="Scale Y">00:09:15.500=0.27</property>
    <property name="Tilt X">00:09:15.500=0.790104</property>
    <property name="Tilt Y">00:09:15.500=0.730556</property>
    <property name="kdenlive:collapsed">0</property>
   </filter>
  </entry>
  <entry producer="producer98" in="00:09:56.167" out="00:10:09.433">
   <property name="kdenlive:id">16</property>
   <filter id="filter181">
    <property name="version">0.1</property>
    <property name="mlt_service">frei0r.scale0tilt</property>
    <property name="kdenlive_id">Facecam crop</property>
    <property name="Clip left">00:09:56.167=0.296875</property>
    <property name="Clip right">00:09:56.167=0.224219</property>
    <property name="Clip top">00:09:56.167=0.0944444</property>
    <property name="Clip bottom">00:09:56.167=0</property>
    <property name="Scale X">00:09:56.167=0.27</property>
    <property name="Scale Y">00:09:56.167=0.27</property>
    <property name="Tilt X">00:09:56.167=0.790104</property>
    <property name="Tilt Y">00:09:56.167=0.730556</property>
    <property name="kdenlive:collapsed">0</property>
   </filter>
  </entry>
 </playlist>
 <playlist id="playlist9"/>
 <tractor id="tractor4" in="00:00:00.000" out="01:10:58.500">
  <property name="kdenlive:trackheight">67</property>
  <property name="kdenlive:timeline_active">1</property>
  <property name="kdenlive:collapsed">0</property>
  <property name="kdenlive:track_name">Facecam</property>
  <property name="kdenlive:thumbs_format"/>
  <property name="kdenlive:audio_rec"/>
  <track hide="audio" producer="playlist8"/>
  <track hide="audio" producer="playlist9"/>
 </tractor>
 <playlist id="playlist10">
  <blank length="00:04:05.767"/>
  <entry producer="producer22" in="00:00:00.000" out="00:00:04.967">
   <property name="kdenlive:id">24</property>
   <filter id="filter182" out="00:00:01.000">
    <property name="start">1</property>
    <property name="level">1</property>
    <property name="mlt_service">brightness</property>
    <property name="kdenlive_id">fade_from_Fade in 1 sec</property>
    <property name="alpha">00:00:00.000=0;00:00:01.000=1</property>
    <property name="kdenlive:collapsed">0</property>
   </filter>
   <filter id="filter183" in="00:00:03.967" out="00:00:04.967">
    <property name="start">1</property>
    <property name="level">1</property>
    <property name="mlt_service">brightness</property>
    <property name="kdenlive_id">fade_to_Fade out 1 sec</property>
    <property name="alpha">00:00:00.000=1;00:00:01.000=0</property>
    <property name="kdenlive:collapsed">0</property>
   </filter>
  </entry>
  <blank length="00:00:22.067"/>
  <entry producer="producer23" in="00:00:00.000" out="00:00:06.767">
   <property name="kdenlive:id">25</property>
   <filter id="filter184" out="00:00:01.000">
    <property name="start">1</property>
    <property name="level">1</property>
    <property name="mlt_service">brightness</property>
    <property name="kdenlive_id">fade_from_Fade in 1 sec</property>
    <property name="alpha">00:00:00.000=0;00:00:01.000=1</property>
    <property name="kdenlive:collapsed">0</property>
   </filter>
   <filter id="filter185" in="00:00:04.433" out="00:00:06.767">
    <property name="start">1</property>
    <property name="level">1</property>
    <property name="mlt_service">brightness</property>
    <property name="kdenlive_id">fade_to_Fade out 1 sec</property>
    <property name="alpha">00:00:00.000=1;00:00:02.333=0</property>
    <property name="kdenlive:collapsed">0</property>
   </filter>
  </entry>
  <blank length="00:00:12.800"/>
  <entry producer="producer24" in="00:00:00.000" out="00:00:08.633">
   <property name="kdenlive:id">26</property>
   <filter id="filter186" out="00:00:01.000">
    <property name="start">1</property>
    <property name="level">1</property>
    <property name="mlt_service">brightness</property>
    <property name="kdenlive_id">fade_from_Fade in 1 sec</property>
    <property name="alpha">00:00:00.000=0;00:00:01.000=1</property>
    <property name="kdenlive:collapsed">0</property>
   </filter>
   <filter id="filter187" in="00:00:07.633" out="00:00:08.633">
    <property name="start">1</property>
    <property name="level">1</property>
    <property name="mlt_service">brightness</property>
    <property name="kdenlive_id">fade_to_Fade out 1 sec</property>
    <property name="alpha">00:00:00.000=1;00:00:01.000=0</property>
    <property name="kdenlive:collapsed">0</property>
   </filter>
  </entry>
  <blank length="00:00:09.233"/>
  <entry producer="producer25" in="00:00:00.000" out="00:00:05.400">
   <property name="kdenlive:id">27</property>
   <filter id="filter188" out="00:00:01.000">
    <property name="start">1</property>
    <property name="level">1</property>
    <property name="mlt_service">brightness</property>
    <property name="kdenlive_id">fade_from_Fade in 1 sec</property>
    <property name="alpha">00:00:00.000=0;00:00:01.000=1</property>
    <property name="kdenlive:collapsed">0</property>
   </filter>
   <filter id="filter189" in="00:00:04.400" out="00:00:05.400">
    <property name="start">1</property>
    <property name="level">1</property>
    <property name="mlt_service">brightness</property>
    <property name="kdenlive_id">fade_to_Fade out 1 sec</property>
    <property name="alpha">00:00:00.000=1;00:00:01.000=0</property>
    <property name="kdenlive:collapsed">0</property>
   </filter>
  </entry>
  <blank length="00:06:38.900"/>
  <entry producer="producer27" in="00:00:00.000" out="00:00:11.933">
   <property name="kdenlive:id">35</property>
   <filter id="filter190" out="00:00:01.000">
    <property name="start">1</property>
    <property name="level">1</property>
    <property name="mlt_service">brightness</property>
    <property name="kdenlive_id">fade_from_Fade in 1 sec</property>
    <property name="alpha">00:00:00.000=0;00:00:01.000=1</property>
    <property name="kdenlive:collapsed">0</property>
   </filter>
   <filter id="filter191" in="00:00:10.933" out="00:00:11.933">
    <property name="start">1</property>
    <property name="level">1</property>
    <property name="mlt_service">brightness</property>
    <property name="kdenlive_id">fade_to_Fade out 1 sec</property>
    <property name="alpha">00:00:00.000=1;00:00:01.000=0</property>
    <property name="kdenlive:collapsed">0</property>
   </filter>
  </entry>
  <blank length="00:02:03.000"/>
  <entry producer="producer23" in="00:00:00.000" out="00:00:06.233">
   <property name="kdenlive:id">25</property>
   <filter id="filter192" out="00:00:01.000">
    <property name="start">1</property>
    <property name="level">1</property>
    <property name="mlt_service">brightness</property>
    <property name="kdenlive_id">fade_from_Fade in 1 sec</property>
    <property name="alpha">00:00:00.000=0;00:00:01.000=1</property>
    <property name="kdenlive:collapsed">0</property>
   </filter>
   <filter id="filter193" in="00:00:05.233" out="00:00:06.233">
    <property name="start">1</property>
    <property name="level">1</property>
    <property name="mlt_service">brightness</property>
    <property name="kdenlive_id">fade_to_Fade out 1 sec</property>
    <property name="alpha">00:00:00.000=1;00:00:01.000=0</property>
    <property name="kdenlive:collapsed">0</property>
   </filter>
  </entry>
  <blank length="00:00:39.100"/>
  <entry producer="producer28" in="00:00:00.000" out="00:00:06.967">
   <property name="kdenlive:id">36</property>
   <filter id="filter194" out="00:00:01.000">
    <property name="start">1</property>
    <property name="level">1</property>
    <property name="mlt_service">brightness</property>
    <property name="kdenlive_id">fade_from_Fade in 1 sec</property>
    <property name="alpha">00:00:00.000=0;00:00:01.000=1</property>
    <property name="kdenlive:collapsed">0</property>
   </filter>
   <filter id="filter195" in="00:00:05.967" out="00:00:06.967">
    <property name="start">1</property>
    <property name="level">1</property>
    <property name="mlt_service">brightness</property>
    <property name="kdenlive_id">fade_to_Fade out 1 sec</property>
    <property name="alpha">00:00:00.000=1;00:00:01.000=0</property>
    <property name="kdenlive:collapsed">0</property>
   </filter>
  </entry>
  <blank length="00:00:06.267"/>
  <entry producer="producer29" in="00:00:00.000" out="00:00:07.000">
   <property name="kdenlive:id">37</property>
   <filter id="filter196" out="00:00:01.000">
    <property name="start">1</property>
    <property name="level">1</property>
    <property name="mlt_service">brightness</property>
    <property name="kdenlive_id">fade_from_Fade in 1 sec</property>
    <property name="alpha">00:00:00.000=0;00:00:01.000=1</property>
    <property name="kdenlive:collapsed">0</property>
   </filter>
   <filter id="filter197" in="00:00:06.000" out="00:00:07.000">
    <property name="start">1</property>
    <property name="level">1</property>
    <property name="mlt_service">brightness</property>
    <property name="kdenlive_id">fade_to_Fade out 1 sec</property>
    <property name="alpha">00:00:00.000=1;00:00:01.000=0</property>
    <property name="kdenlive:collapsed">0</property>
   </filter>
  </entry>
  <blank length="00:06:52.267"/>
  <entry producer="producer30" in="00:00:00.000" out="00:00:14.200">
   <property name="kdenlive:id">38</property>
   <property name="kdenlive:activeeffect">1</property>
   <filter id="filter198" out="00:00:01.000">
    <property name="start">1</property>
    <property name="level">1</property>
    <property name="mlt_service">brightness</property>
    <property name="kdenlive_id">fade_from_Fade in 1 sec</property>
    <property name="alpha">00:00:00.000=0;00:00:01.000=1</property>
    <property name="kdenlive:collapsed">0</property>
   </filter>
   <filter id="filter199" in="00:00:13.200" out="00:00:14.200">
    <property name="start">1</property>
    <property name="level">1</property>
    <property name="mlt_service">brightness</property>
    <property name="kdenlive_id">fade_to_Fade out 1 sec</property>
    <property name="alpha">00:00:00.000=1;00:00:01.000=0</property>
    <property name="kdenlive:collapsed">0</property>
   </filter>
  </entry>
  <blank length="00:00:48.333"/>
  <entry producer="producer31" in="00:00:00.000" out="00:00:05.700">
   <property name="kdenlive:id">39</property>
   <filter id="filter200" out="00:00:01.000">
    <property name="start">1</property>
    <property name="level">1</property>
    <property name="mlt_service">brightness</property>
    <property name="kdenlive_id">fade_from_Fade in 1 sec</property>
    <property name="alpha">00:00:00.000=0;00:00:01.000=1</property>
    <property name="kdenlive:collapsed">0</property>
   </filter>
   <filter id="filter201" in="00:00:04.700" out="00:00:05.700">
    <property name="start">1</property>
    <property name="level">1</property>
    <property name="mlt_service">brightness</property>
    <property name="kdenlive_id">fade_to_Fade out 1 sec</property>
    <property name="alpha">00:00:00.000=1;00:00:01.000=0</property>
    <property name="kdenlive:collapsed">0</property>
   </filter>
  </entry>
  <blank length="00:00:22.000"/>
  <entry producer="producer32" in="00:00:00.000" out="00:00:06.300">
   <property name="kdenlive:id">40</property>
   <property name="kdenlive:activeeffect">1</property>
   <filter id="filter202" out="00:00:01.000">
    <property name="start">1</property>
    <property name="level">1</property>
    <property name="mlt_service">brightness</property>
    <property name="kdenlive_id">fade_from_Fade in 1 sec</property>
    <property name="alpha">00:00:00.000=0;00:00:01.000=1</property>
    <property name="kdenlive:collapsed">0</property>
   </filter>
   <filter id="filter203" in="00:00:05.300" out="00:00:06.300">
    <property name="start">1</property>
    <property name="level">1</property>
    <property name="mlt_service">brightness</property>
    <property name="kdenlive_id">fade_to_Fade out 1 sec</property>
    <property name="alpha">00:00:00.000=1;00:00:01.000=0</property>
    <property name="kdenlive:collapsed">0</property>
   </filter>
  </entry>
  <blank length="00:00:35.500"/>
  <entry producer="producer34" in="00:00:00.000" out="00:00:09.667">
   <property name="kdenlive:id">42</property>
   <filter id="filter204" out="00:00:01.000">
    <property name="start">1</property>
    <property name="level">1</property>
    <property name="mlt_service">brightness</property>
    <property name="kdenlive_id">fade_from_Fade in 1 sec</property>
    <property name="alpha">00:00:00.000=0;00:00:01.000=1</property>
    <property name="kdenlive:collapsed">0</property>
   </filter>
   <filter id="filter205" in="00:00:08.667" out="00:00:09.667">
    <property name="start">1</property>
    <property name="level">1</property>
    <property name="mlt_service">brightness</property>
    <property name="kdenlive_id">fade_to_Fade out 1 sec</property>
    <property name="alpha">00:00:00.000=1;00:00:01.000=0</property>
    <property name="kdenlive:collapsed">0</property>
   </filter>
  </entry>
  <blank length="00:03:49.000"/>
  <entry producer="producer35" in="00:00:00.000" out="00:00:04.967">
   <property name="kdenlive:id">43</property>
   <filter id="filter206" out="00:00:01.000">
    <property name="start">1</property>
    <property name="level">1</property>
    <property name="mlt_service">brightness</property>
    <property name="kdenlive_id">fade_from_Fade in 1 sec</property>
    <property name="alpha">00:00:00.000=0;00:00:01.000=1</property>
    <property name="kdenlive:collapsed">0</property>
   </filter>
   <filter id="filter207" in="00:00:03.967" out="00:00:04.967">
    <property name="start">1</property>
    <property name="level">1</property>
    <property name="mlt_service">brightness</property>
    <property name="kdenlive_id">fade_to_Fade out 1 sec</property>
    <property name="alpha">00:00:00.000=1;00:00:01.000=0</property>
    <property name="kdenlive:collapsed">0</property>
   </filter>
  </entry>
  <blank length="00:01:20.567"/>
  <entry producer="producer42" in="00:00:00.000" out="00:00:06.267">
   <property name="kdenlive:id">50</property>
   <property name="kdenlive:activeeffect">1</property>
   <filter id="filter208" out="00:00:01.000">
    <property name="start">1</property>
    <property name="level">1</property>
    <property name="mlt_service">brightness</property>
    <property name="kdenlive_id">fade_from_Fade in 1 sec</property>
    <property name="alpha">00:00:00.000=0;00:00:01.000=1</property>
    <property name="kdenlive:collapsed">0</property>
   </filter>
   <filter id="filter209" in="00:00:05.267" out="00:00:06.267">
    <property name="start">1</property>
    <property name="level">1</property>
    <property name="mlt_service">brightness</property>
    <property name="kdenlive_id">fade_to_Fade out 1 sec</property>
    <property name="alpha">00:00:00.000=1;00:00:01.000=0</property>
    <property name="kdenlive:collapsed">0</property>
   </filter>
  </entry>
  <blank length="00:00:54.100"/>
  <entry producer="producer43" in="00:00:00.000" out="00:00:07.433">
   <property name="kdenlive:id">51</property>
   <filter id="filter210" out="00:00:01.000">
    <property name="start">1</property>
    <property name="level">1</property>
    <property name="mlt_service">brightness</property>
    <property name="kdenlive_id">fade_from_Fade in 1 sec</property>
    <property name="alpha">00:00:00.000=0;00:00:01.000=1</property>
    <property name="kdenlive:collapsed">0</property>
   </filter>
   <filter id="filter211" in="00:00:06.433" out="00:00:07.433">
    <property name="start">1</property>
    <property name="level">1</property>
    <property name="mlt_service">brightness</property>
    <property name="kdenlive_id">fade_to_Fade out 1 sec</property>
    <property name="alpha">00:00:00.000=1;00:00:01.000=0</property>
    <property name="kdenlive:collapsed">0</property>
   </filter>
  </entry>
  <blank length="00:00:01.267"/>
  <entry producer="producer44" in="00:00:00.000" out="00:00:06.767">
   <property name="kdenlive:id">52</property>
   <filter id="filter212" out="00:00:01.000">
    <property name="start">1</property>
    <property name="level">1</property>
    <property name="mlt_service">brightness</property>
    <property name="kdenlive_id">fade_from_Fade in 1 sec</property>
    <property name="alpha">00:00:00.000=0;00:00:01.000=1</property>
    <property name="kdenlive:collapsed">0</property>
   </filter>
   <filter id="filter213" in="00:00:05.767" out="00:00:06.767">
    <property name="start">1</property>
    <property name="level">1</property>
    <property name="mlt_service">brightness</property>
    <property name="kdenlive_id">fade_to_Fade out 1 sec</property>
    <property name="alpha">00:00:00.000=1;00:00:01.000=0</property>
    <property name="kdenlive:collapsed">0</property>
   </filter>
  </entry>
  <blank length="00:00:27.067"/>
  <entry producer="producer45" in="00:00:00.000" out="00:00:07.567">
   <property name="kdenlive:id">53</property>
   <filter id="filter214" out="00:00:01.000">
    <property name="start">1</property>
    <property name="level">1</property>
    <property name="mlt_service">brightness</property>
    <property name="kdenlive_id">fade_from_Fade in 1 sec</property>
    <property name="alpha">00:00:00.000=0;00:00:01.000=1</property>
    <property name="kdenlive:collapsed">0</property>
   </filter>
   <filter id="filter215" in="00:00:06.567" out="00:00:07.567">
    <property name="start">1</property>
    <property name="level">1</property>
    <property name="mlt_service">brightness</property>
    <property name="kdenlive_id">fade_to_Fade out 1 sec</property>
    <property name="alpha">00:00:00.000=1;00:00:01.000=0</property>
    <property name="kdenlive:collapsed">0</property>
   </filter>
  </entry>
  <blank length="00:01:51.100"/>
  <entry producer="producer46" in="00:00:00.000" out="00:00:05.933">
   <property name="kdenlive:id">54</property>
   <property name="kdenlive:activeeffect">1</property>
   <filter id="filter216" out="00:00:01.000">
    <property name="start">1</property>
    <property name="level">1</property>
    <property name="mlt_service">brightness</property>
    <property name="kdenlive_id">fade_from_Fade in 1 sec</property>
    <property name="alpha">00:00:00.000=0;00:00:01.000=1</property>
    <property name="kdenlive:collapsed">0</property>
   </filter>
   <filter id="filter217" in="00:00:04.933" out="00:00:05.933">
    <property name="start">1</property>
    <property name="level">1</property>
    <property name="mlt_service">brightness</property>
    <property name="kdenlive_id">fade_to_Fade out 1 sec</property>
    <property name="alpha">00:00:00.000=1;00:00:01.000=0</property>
    <property name="kdenlive:collapsed">0</property>
   </filter>
  </entry>
  <blank length="00:01:53.367"/>
  <entry producer="producer47" in="00:00:00.000" out="00:00:09.200">
   <property name="kdenlive:id">55</property>
   <filter id="filter218" out="00:00:01.000">
    <property name="start">1</property>
    <property name="level">1</property>
    <property name="mlt_service">brightness</property>
    <property name="kdenlive_id">fade_from_Fade in 1 sec</property>
    <property name="alpha">00:00:00.000=0;00:00:01.000=1</property>
    <property name="kdenlive:collapsed">0</property>
   </filter>
   <filter id="filter219" in="00:00:08.200" out="00:00:09.200">
    <property name="start">1</property>
    <property name="level">1</property>
    <property name="mlt_service">brightness</property>
    <property name="kdenlive_id">fade_to_Fade out 1 sec</property>
    <property name="alpha">00:00:00.000=1;00:00:01.000=0</property>
    <property name="kdenlive:collapsed">0</property>
   </filter>
  </entry>
  <blank length="00:00:40.933"/>
  <entry producer="producer49" in="00:00:00.000" out="00:00:04.967">
   <property name="kdenlive:id">57</property>
   <filter id="filter220" out="00:00:01.000">
    <property name="start">1</property>
    <property name="level">1</property>
    <property name="mlt_service">brightness</property>
    <property name="kdenlive_id">fade_from_Fade in 1 sec</property>
    <property name="alpha">00:00:00.000=0;00:00:01.000=1</property>
    <property name="kdenlive:collapsed">0</property>
   </filter>
   <filter id="filter221" in="00:00:03.967" out="00:00:04.967">
    <property name="start">1</property>
    <property name="level">1</property>
    <property name="mlt_service">brightness</property>
    <property name="kdenlive_id">fade_to_Fade out 1 sec</property>
    <property name="alpha">00:00:00.000=1;00:00:01.000=0</property>
    <property name="kdenlive:collapsed">0</property>
   </filter>
  </entry>
  <blank length="00:00:23.633"/>
  <entry producer="producer50" in="00:00:00.000" out="00:00:04.000">
   <property name="kdenlive:id">58</property>
   <filter id="filter222" out="00:00:01.000">
    <property name="start">1</property>
    <property name="level">1</property>
    <property name="mlt_service">brightness</property>
    <property name="kdenlive_id">fade_from_Fade in 1 sec</property>
    <property name="alpha">00:00:00.000=0;00:00:01.000=1</property>
    <property name="kdenlive:collapsed">0</property>
   </filter>
   <filter id="filter223" in="00:00:03.000" out="00:00:04.000">
    <property name="start">1</property>
    <property name="level">1</property>
    <property name="mlt_service">brightness</property>
    <property name="kdenlive_id">fade_to_Fade out 1 sec</property>
    <property name="alpha">00:00:00.000=1;00:00:01.000=0</property>
    <property name="kdenlive:collapsed">0</property>
   </filter>
  </entry>
  <blank length="00:01:48.200"/>
  <entry producer="producer54" in="00:00:00.000" out="00:00:03.933">
   <property name="kdenlive:id">62</property>
   <filter id="filter226" out="00:00:01.000">
    <property name="start">1</property>
    <property name="level">1</property>
    <property name="mlt_service">brightness</property>
    <property name="kdenlive_id">fade_from_Fade in 1 sec</property>
    <property name="alpha">00:00:00.000=0;00:00:01.000=1</property>
    <property name="kdenlive:collapsed">0</property>
   </filter>
   <filter id="filter227" in="00:00:02.933" out="00:00:03.933">
    <property name="start">1</property>
    <property name="level">1</property>
    <property name="mlt_service">brightness</property>
    <property name="kdenlive_id">fade_to_Fade out 1 sec</property>
    <property name="alpha">00:00:00.000=1;00:00:01.000=0</property>
    <property name="kdenlive:collapsed">0</property>
   </filter>
  </entry>
  <blank length="00:00:41.200"/>
  <entry producer="producer57" in="00:00:00.000" out="00:00:04.967">
   <property name="kdenlive:id">65</property>
   <filter id="filter228">
    <property name="version">0.1</property>
    <property name="mlt_service">frei0r.scale0tilt</property>
    <property name="kdenlive_id">frei0r.scale0tilt</property>
    <property name="Clip left">00:00:00.000=0</property>
    <property name="Clip right">00:00:00.000=0</property>
    <property name="Clip top">00:00:00.000=0</property>
    <property name="Clip bottom">00:00:00.000=0</property>
    <property name="Scale X">00:00:00.000=0.15</property>
    <property name="Scale Y">00:00:00.000=0.15</property>
    <property name="Tilt X">00:00:00.000=0.660937</property>
    <property name="Tilt Y">00:00:00.000=0.825</property>
    <property name="kdenlive:collapsed">0</property>
   </filter>
   <filter id="filter229" out="00:00:01.000">
    <property name="start">1</property>
    <property name="level">1</property>
    <property name="mlt_service">brightness</property>
    <property name="kdenlive_id">fade_from_Fade in 1 sec</property>
    <property name="alpha">00:00:00.000=0;00:00:01.000=1</property>
    <property name="kdenlive:collapsed">0</property>
   </filter>
   <filter id="filter230" in="00:00:03.967" out="00:00:04.967">
    <property name="start">1</property>
    <property name="level">1</property>
    <property name="mlt_service">brightness</property>
    <property name="kdenlive_id">fade_to_Fade out 1 sec</property>
    <property name="alpha">00:00:00.000=1;00:00:01.000=0</property>
    <property name="kdenlive:collapsed">0</property>
   </filter>
  </entry>
  <blank length="00:03:07.600"/>
  <entry producer="producer46" in="00:00:00.000" out="00:00:08.167">
   <property name="kdenlive:id">54</property>
   <filter id="filter231" out="00:00:01.000">
    <property name="start">1</property>
    <property name="level">1</property>
    <property name="mlt_service">brightness</property>
    <property name="kdenlive_id">fade_from_Fade in 1 sec</property>
    <property name="alpha">00:00:00.000=0;00:00:01.000=1</property>
    <property name="kdenlive:collapsed">0</property>
   </filter>
   <filter id="filter232" in="00:00:07.167" out="00:00:08.167">
    <property name="start">1</property>
    <property name="level">1</property>
    <property name="mlt_service">brightness</property>
    <property name="kdenlive_id">fade_to_Fade out 1 sec</property>
    <property name="alpha">00:00:00.000=1;00:00:01.000=0</property>
    <property name="kdenlive:collapsed">0</property>
   </filter>
  </entry>
  <blank length="00:00:49.733"/>
  <entry producer="producer62" in="00:00:00.000" out="00:00:04.967">
   <property name="kdenlive:id">70</property>
   <filter id="filter233" out="00:00:01.000">
    <property name="start">1</property>
    <property name="level">1</property>
    <property name="mlt_service">brightness</property>
    <property name="kdenlive_id">fade_from_Fade in 1 sec</property>
    <property name="alpha">00:00:00.000=0;00:00:01.000=1</property>
    <property name="kdenlive:collapsed">0</property>
   </filter>
   <filter id="filter234" in="00:00:03.967" out="00:00:04.967">
    <property name="start">1</property>
    <property name="level">1</property>
    <property name="mlt_service">brightness</property>
    <property name="kdenlive_id">fade_to_Fade out 1 sec</property>
    <property name="alpha">00:00:00.000=1;00:00:01.000=0</property>
    <property name="kdenlive:collapsed">0</property>
   </filter>
  </entry>
  <blank length="00:00:01.400"/>
  <entry producer="producer63" in="00:00:00.000" out="00:00:04.967">
   <property name="kdenlive:id">71</property>
   <filter id="filter235" out="00:00:01.000">
    <property name="start">1</property>
    <property name="level">1</property>
    <property name="mlt_service">brightness</property>
    <property name="kdenlive_id">fade_from_Fade in 1 sec</property>
    <property name="alpha">00:00:00.000=0;00:00:01.000=1</property>
    <property name="kdenlive:collapsed">0</property>
   </filter>
   <filter id="filter236" in="00:00:03.967" out="00:00:04.967">
    <property name="start">1</property>
    <property name="level">1</property>
    <property name="mlt_service">brightness</property>
    <property name="kdenlive_id">fade_to_Fade out 1 sec</property>
    <property name="alpha">00:00:00.000=1;00:00:01.000=0</property>
    <property name="kdenlive:collapsed">0</property>
   </filter>
  </entry>
  <blank length="00:00:23.533"/>
  <entry producer="producer64" in="00:00:00.000" out="00:00:08.667">
   <property name="kdenlive:id">72</property>
   <filter id="filter237" out="00:00:01.000">
    <property name="start">1</property>
    <property name="level">1</property>
    <property name="mlt_service">brightness</property>
    <property name="kdenlive_id">fade_from_Fade in 1 sec</property>
    <property name="alpha">00:00:00.000=0;00:00:01.000=1</property>
    <property name="kdenlive:collapsed">0</property>
   </filter>
   <filter id="filter238" in="00:00:07.667" out="00:00:08.667">
    <property name="start">1</property>
    <property name="level">1</property>
    <property name="mlt_service">brightness</property>
    <property name="kdenlive_id">fade_to_Fade out 1 sec</property>
    <property name="alpha">00:00:00.000=1;00:00:01.000=0</property>
    <property name="kdenlive:collapsed">0</property>
   </filter>
  </entry>
  <blank length="00:00:59.133"/>
  <entry producer="producer63" in="00:00:00.000" out="00:00:03.800">
   <property name="kdenlive:id">71</property>
   <filter id="filter239" out="00:00:01.000">
    <property name="start">1</property>
    <property name="level">1</property>
    <property name="mlt_service">brightness</property>
    <property name="kdenlive_id">fade_from_Fade in 1 sec</property>
    <property name="alpha">00:00:00.000=0;00:00:01.000=1</property>
    <property name="kdenlive:collapsed">0</property>
   </filter>
   <filter id="filter240" in="00:00:02.800" out="00:00:03.800">
    <property name="start">1</property>
    <property name="level">1</property>
    <property name="mlt_service">brightness</property>
    <property name="kdenlive_id">fade_to_Fade out 1 sec</property>
    <property name="alpha">00:00:00.000=1;00:00:01.000=0</property>
    <property name="kdenlive:collapsed">0</property>
   </filter>
  </entry>
  <blank length="00:04:43.833"/>
  <entry producer="producer69" in="00:00:00.000" out="00:00:07.167">
   <property name="kdenlive:id">78</property>
   <filter id="filter241" out="00:00:01.000">
    <property name="start">1</property>
    <property name="level">1</property>
    <property name="mlt_service">brightness</property>
    <property name="kdenlive_id">fade_from_Fade in 1 sec</property>
    <property name="alpha">00:00:00.000=0;00:00:01.000=1</property>
    <property name="kdenlive:collapsed">0</property>
   </filter>
   <filter id="filter242" in="00:00:03.967" out="00:00:07.167">
    <property name="start">1</property>
    <property name="level">1</property>
    <property name="mlt_service">brightness</property>
    <property name="kdenlive_id">fade_to_Fade out 1 sec</property>
    <property name="alpha">00:00:00.000=1;00:00:03.200=0</property>
    <property name="kdenlive:collapsed">0</property>
   </filter>
  </entry>
  <blank length="00:00:35.067"/>
  <entry producer="producer71" in="00:00:00.000" out="00:00:04.967">
   <property name="kdenlive:id">79</property>
   <filter id="filter243" out="00:00:01.000">
    <property name="start">1</property>
    <property name="level">1</property>
    <property name="mlt_service">brightness</property>
    <property name="kdenlive_id">fade_from_Fade in 1 sec</property>
    <property name="alpha">00:00:00.000=0;00:00:01.000=1</property>
    <property name="kdenlive:collapsed">0</property>
   </filter>
   <filter id="filter244" in="00:00:03.967" out="00:00:04.967">
    <property name="start">1</property>
    <property name="level">1</property>
    <property name="mlt_service">brightness</property>
    <property name="kdenlive_id">fade_to_Fade out 1 sec</property>
    <property name="alpha">00:00:00.000=1;00:00:01.000=0</property>
    <property name="kdenlive:collapsed">0</property>
   </filter>
  </entry>
  <blank length="00:01:29.600"/>
  <entry producer="producer70" in="00:00:00.000" out="00:00:04.967">
   <property name="kdenlive:id">74</property>
   <filter id="filter245" out="00:00:01.000">
    <property name="start">1</property>
    <property name="level">1</property>
    <property name="mlt_service">brightness</property>
    <property name="kdenlive_id">fade_from_Fade in 1 sec</property>
    <property name="alpha">00:00:00.000=0;00:00:01.000=1</property>
    <property name="kdenlive:collapsed">0</property>
   </filter>
   <filter id="filter246" in="00:00:03.967" out="00:00:04.967">
    <property name="start">1</property>
    <property name="level">1</property>
    <property name="mlt_service">brightness</property>
    <property name="kdenlive_id">fade_to_Fade out 1 sec</property>
    <property name="alpha">00:00:00.000=1;00:00:01.000=0</property>
    <property name="kdenlive:collapsed">0</property>
   </filter>
  </entry>
  <blank length="00:01:14.567"/>
  <entry producer="producer72" in="00:00:00.000" out="00:00:04.967">
   <property name="kdenlive:id">80</property>
   <filter id="filter247" out="00:00:01.000">
    <property name="start">1</property>
    <property name="level">1</property>
    <property name="mlt_service">brightness</property>
    <property name="kdenlive_id">fade_from_Fade in 1 sec</property>
    <property name="alpha">00:00:00.000=0;00:00:01.000=1</property>
    <property name="kdenlive:collapsed">0</property>
   </filter>
   <filter id="filter248" in="00:00:03.967" out="00:00:04.967">
    <property name="start">1</property>
    <property name="level">1</property>
    <property name="mlt_service">brightness</property>
    <property name="kdenlive_id">fade_to_Fade out 1 sec</property>
    <property name="alpha">00:00:00.000=1;00:00:01.000=0</property>
    <property name="kdenlive:collapsed">0</property>
   </filter>
  </entry>
  <blank length="00:01:42.567"/>
  <entry producer="producer47" in="00:00:00.000" out="00:00:07.133">
   <property name="kdenlive:id">55</property>
   <filter id="filter249" out="00:00:01.000">
    <property name="start">1</property>
    <property name="level">1</property>
    <property name="mlt_service">brightness</property>
    <property name="kdenlive_id">fade_from_Fade in 1 sec</property>
    <property name="alpha">00:00:00.000=0;00:00:01.000=1</property>
    <property name="kdenlive:collapsed">0</property>
   </filter>
   <filter id="filter250" in="00:00:03.967" out="00:00:07.133">
    <property name="start">1</property>
    <property name="level">1</property>
    <property name="mlt_service">brightness</property>
    <property name="kdenlive_id">fade_to_Fade out 1 sec</property>
    <property name="alpha">00:00:00.000=1;00:00:03.167=0</property>
    <property name="kdenlive:collapsed">0</property>
   </filter>
  </entry>
  <blank length="00:08:09.133"/>
  <entry producer="producer73" in="00:00:00.000" out="00:00:09.600">
   <property name="kdenlive:id">81</property>
   <filter id="filter251" out="00:00:01.000">
    <property name="start">1</property>
    <property name="level">1</property>
    <property name="mlt_service">brightness</property>
    <property name="kdenlive_id">fade_from_Fade in 1 sec</property>
    <property name="alpha">00:00:00.000=0;00:00:01.000=1</property>
    <property name="kdenlive:collapsed">0</property>
   </filter>
   <filter id="filter252" in="00:00:08.600" out="00:00:09.600">
    <property name="start">1</property>
    <property name="level">1</property>
    <property name="mlt_service">brightness</property>
    <property name="kdenlive_id">fade_to_Fade out 1 sec</property>
    <property name="alpha">00:00:00.000=1;00:00:01.000=0</property>
    <property name="kdenlive:collapsed">0</property>
   </filter>
  </entry>
  <blank length="00:05:58.867"/>
  <entry producer="producer74" in="00:00:00.000" out="00:00:12.167">
   <property name="kdenlive:id">82</property>
   <filter id="filter253" out="00:00:01.000">
    <property name="start">1</property>
    <property name="level">1</property>
    <property name="mlt_service">brightness</property>
    <property name="kdenlive_id">fade_from_Fade in 1 sec</property>
    <property name="alpha">00:00:00.000=0;00:00:01.000=1</property>
    <property name="kdenlive:collapsed">0</property>
   </filter>
   <filter id="filter254" in="00:00:11.167" out="00:00:12.167">
    <property name="start">1</property>
    <property name="level">1</property>
    <property name="mlt_service">brightness</property>
    <property name="kdenlive_id">fade_to_Fade out 1 sec</property>
    <property name="alpha">00:00:00.000=1;00:00:01.000=0</property>
    <property name="kdenlive:collapsed">0</property>
   </filter>
  </entry>
  <blank length="00:00:00.633"/>
  <entry producer="producer75" in="00:00:00.000" out="00:00:03.700">
   <property name="kdenlive:id">83</property>
   <filter id="filter255" out="00:00:01.000">
    <property name="start">1</property>
    <property name="level">1</property>
    <property name="mlt_service">brightness</property>
    <property name="kdenlive_id">fade_from_Fade in 1 sec</property>
    <property name="alpha">00:00:00.000=0;00:00:01.000=1</property>
    <property name="kdenlive:collapsed">0</property>
   </filter>
   <filter id="filter256" in="00:00:02.700" out="00:00:03.700">
    <property name="start">1</property>
    <property name="level">1</property>
    <property name="mlt_service">brightness</property>
    <property name="kdenlive_id">fade_to_Fade out 1 sec</property>
    <property name="alpha">00:00:00.000=1;00:00:01.000=0</property>
    <property name="kdenlive:collapsed">0</property>
   </filter>
  </entry>
  <blank length="00:00:00.800"/>
  <entry producer="producer54" in="00:00:00.000" out="00:00:04.333">
   <property name="kdenlive:id">62</property>
   <filter id="filter257" out="00:00:01.000">
    <property name="start">1</property>
    <property name="level">1</property>
    <property name="mlt_service">brightness</property>
    <property name="kdenlive_id">fade_from_Fade in 1 sec</property>
    <property name="alpha">00:00:00.000=0;00:00:01.000=1</property>
    <property name="kdenlive:collapsed">0</property>
   </filter>
   <filter id="filter258" in="00:00:03.333" out="00:00:04.333">
    <property name="start">1</property>
    <property name="level">1</property>
    <property name="mlt_service">brightness</property>
    <property name="kdenlive_id">fade_to_Fade out 1 sec</property>
    <property name="alpha">00:00:00.000=1;00:00:01.000=0</property>
    <property name="kdenlive:collapsed">0</property>
   </filter>
  </entry>
  <blank length="00:00:00.367"/>
  <entry producer="producer76" in="00:00:00.000" out="00:00:04.967">
   <property name="kdenlive:id">84</property>
   <filter id="filter259" out="00:00:01.000">
    <property name="start">1</property>
    <property name="level">1</property>
    <property name="mlt_service">brightness</property>
    <property name="kdenlive_id">fade_from_Fade in 1 sec</property>
    <property name="alpha">00:00:00.000=0;00:00:01.000=1</property>
    <property name="kdenlive:collapsed">0</property>
   </filter>
   <filter id="filter260" in="00:00:03.967" out="00:00:04.967">
    <property name="start">1</property>
    <property name="level">1</property>
    <property name="mlt_service">brightness</property>
    <property name="kdenlive_id">fade_to_Fade out 1 sec</property>
    <property name="alpha">00:00:00.000=1;00:00:01.000=0</property>
    <property name="kdenlive:collapsed">0</property>
   </filter>
  </entry>
  <blank length="00:00:00.433"/>
  <entry producer="producer64" in="00:00:00.000" out="00:00:04.967">
   <property name="kdenlive:id">72</property>
   <filter id="filter261" out="00:00:01.000">
    <property name="start">1</property>
    <property name="level">1</property>
    <property name="mlt_service">brightness</property>
    <property name="kdenlive_id">fade_from_Fade in 1 sec</property>
    <property name="alpha">00:00:00.000=0;00:00:01.000=1</property>
    <property name="kdenlive:collapsed">0</property>
   </filter>
   <filter id="filter262" in="00:00:03.967" out="00:00:04.967">
    <property name="start">1</property>
    <property name="level">1</property>
    <property name="mlt_service">brightness</property>
    <property name="kdenlive_id">fade_to_Fade out 1 sec</property>
    <property name="alpha">00:00:00.000=1;00:00:01.000=0</property>
    <property name="kdenlive:collapsed">0</property>
   </filter>
  </entry>
  <blank length="00:00:03.367"/>
  <entry producer="producer76" in="00:00:00.000" out="00:00:04.967">
   <property name="kdenlive:id">84</property>
   <filter id="filter263" out="00:00:01.000">
    <property name="start">1</property>
    <property name="level">1</property>
    <property name="mlt_service">brightness</property>
    <property name="kdenlive_id">fade_from_Fade in 1 sec</property>
    <property name="alpha">00:00:00.000=0;00:00:01.000=1</property>
    <property name="kdenlive:collapsed">0</property>
   </filter>
   <filter id="filter264" in="00:00:03.967" out="00:00:04.967">
    <property name="start">1</property>
    <property name="level">1</property>
    <property name="mlt_service">brightness</property>
    <property name="kdenlive_id">fade_to_Fade out 1 sec</property>
    <property name="alpha">00:00:00.000=1;00:00:01.000=0</property>
    <property name="kdenlive:collapsed">0</property>
   </filter>
  </entry>
  <blank length="00:00:03.833"/>
  <entry producer="producer64" in="00:00:00.000" out="00:00:06.667">
   <property name="kdenlive:id">72</property>
   <filter id="filter265" out="00:00:01.000">
    <property name="start">1</property>
    <property name="level">1</property>
    <property name="mlt_service">brightness</property>
    <property name="kdenlive_id">fade_from_Fade in 1 sec</property>
    <property name="alpha">00:00:00.000=0;00:00:01.000=1</property>
    <property name="kdenlive:collapsed">0</property>
   </filter>
   <filter id="filter266" in="00:00:05.667" out="00:00:06.667">
    <property name="start">1</property>
    <property name="level">1</property>
    <property name="mlt_service">brightness</property>
    <property name="kdenlive_id">fade_to_Fade out 1 sec</property>
    <property name="alpha">00:00:00.000=1;00:00:01.000=0</property>
    <property name="kdenlive:collapsed">0</property>
   </filter>
  </entry>
 </playlist>
 <playlist id="playlist11"/>
 <tractor id="tractor5" in="00:00:00.000" out="01:10:42.367">
  <property name="kdenlive:trackheight">67</property>
  <property name="kdenlive:timeline_active">1</property>
  <property name="kdenlive:collapsed">0</property>
  <property name="kdenlive:track_name">Titles</property>
  <property name="kdenlive:thumbs_format"/>
  <property name="kdenlive:audio_rec"/>
  <track hide="audio" producer="playlist10"/>
  <track hide="audio" producer="playlist11"/>
 </tractor>
 <playlist id="playlist12">
  <blank length="00:23:52.600"/>
  <entry producer="producer61" in="00:00:00.000" out="00:00:04.967">
   <property name="kdenlive:id">41</property>
   <filter id="filter267">
    <property name="version">0.1</property>
    <property name="mlt_service">frei0r.scale0tilt</property>
    <property name="kdenlive_id">frei0r.scale0tilt</property>
    <property name="Clip left">00:00:00.000=0</property>
    <property name="Clip right">00:00:00.000=0</property>
    <property name="Clip top">00:00:00.000=0</property>
    <property name="Clip bottom">00:00:00.000=0</property>
    <property name="Scale X">00:00:00.000=0.2</property>
    <property name="Scale Y">00:00:00.000=0.2</property>
    <property name="Tilt X">00:00:00.000=0.625781</property>
    <property name="Tilt Y">00:00:00.000=0.684722</property>
    <property name="kdenlive:collapsed">1</property>
   </filter>
   <filter id="filter268" out="00:00:01.000">
    <property name="start">1</property>
    <property name="level">1</property>
    <property name="mlt_service">brightness</property>
    <property name="kdenlive_id">fade_from_Fade in 1 sec</property>
    <property name="alpha">00:00:00.000=0;00:00:01.000=1</property>
    <property name="kdenlive:collapsed">0</property>
   </filter>
   <filter id="filter269" in="00:00:03.967" out="00:00:04.967">
    <property name="start">1</property>
    <property name="level">1</property>
    <property name="mlt_service">brightness</property>
    <property name="kdenlive_id">fade_to_Fade out 1 sec</property>
    <property name="alpha">00:00:00.000=1;00:00:01.000=0</property>
    <property name="kdenlive:collapsed">0</property>
   </filter>
  </entry>
  <blank length="00:01:08.900"/>
  <entry producer="producer36" in="00:00:00.000" out="00:00:04.967">
   <property name="kdenlive:id">44</property>
   <filter id="filter270">
    <property name="version">0.1</property>
    <property name="mlt_service">frei0r.scale0tilt</property>
    <property name="kdenlive_id">frei0r.scale0tilt</property>
    <property name="Clip left">00:00:00.000=0</property>
    <property name="Clip right">00:00:00.000=0</property>
    <property name="Clip top">00:00:00.000=0</property>
    <property name="Clip bottom">00:00:00.000=0</property>
    <property name="Scale X">00:00:00.000=0.15</property>
    <property name="Scale Y">00:00:00.000=0.15</property>
    <property name="Tilt X">00:00:00.000=0.609375</property>
    <property name="Tilt Y">00:00:00.000=0.825</property>
    <property name="kdenlive:collapsed">0</property>
   </filter>
   <filter id="filter271" out="00:00:01.000">
    <property name="start">1</property>
    <property name="level">1</property>
    <property name="mlt_service">brightness</property>
    <property name="kdenlive_id">fade_from_Fade in 1 sec</property>
    <property name="alpha">00:00:00.000=0;00:00:01.000=1</property>
    <property name="kdenlive:collapsed">0</property>
   </filter>
   <filter id="filter272" in="00:00:03.967" out="00:00:04.967">
    <property name="start">1</property>
    <property name="level">1</property>
    <property name="mlt_service">brightness</property>
    <property name="kdenlive_id">fade_to_Fade out 1 sec</property>
    <property name="alpha">00:00:00.000=1;00:00:01.000=0</property>
    <property name="kdenlive:collapsed">0</property>
   </filter>
  </entry>
  <blank length="00:00:11.300"/>
  <entry producer="producer37" in="00:00:00.000" out="00:00:08.933">
   <property name="kdenlive:id">45</property>
   <filter id="filter273">
    <property name="version">0.1</property>
    <property name="mlt_service">frei0r.scale0tilt</property>
    <property name="kdenlive_id">frei0r.scale0tilt</property>
    <property name="Clip left">00:00:00.000=0</property>
    <property name="Clip right">00:00:00.000=0</property>
    <property name="Clip top">00:00:00.000=0</property>
    <property name="Clip bottom">00:00:00.000=0</property>
    <property name="Scale X">00:00:00.000=0.15</property>
    <property name="Scale Y">00:00:00.000=0.15</property>
    <property name="Tilt X">00:00:00.000=0.609375</property>
    <property name="Tilt Y">00:00:00.000=0.825</property>
    <property name="kdenlive:collapsed">0</property>
   </filter>
   <filter id="filter274" out="00:00:01.000">
    <property name="start">1</property>
    <property name="level">1</property>
    <property name="mlt_service">brightness</property>
    <property name="kdenlive_id">fade_from_Fade in 1 sec</property>
    <property name="alpha">00:00:00.000=0;00:00:01.000=1</property>
    <property name="kdenlive:collapsed">0</property>
   </filter>
   <filter id="filter275" in="00:00:07.933" out="00:00:08.933">
    <property name="start">1</property>
    <property name="level">1</property>
    <property name="mlt_service">brightness</property>
    <property name="kdenlive_id">fade_to_Fade out 1 sec</property>
    <property name="alpha">00:00:00.000=1;00:00:01.000=0</property>
    <property name="kdenlive:collapsed">0</property>
   </filter>
  </entry>
  <blank length="00:00:21.967"/>
  <entry producer="producer38" in="00:00:00.000" out="00:00:14.667">
   <property name="kdenlive:id">46</property>
   <property name="kdenlive:activeeffect">2</property>
   <filter id="filter276">
    <property name="version">0.1</property>
    <property name="mlt_service">frei0r.scale0tilt</property>
    <property name="kdenlive_id">frei0r.scale0tilt</property>
    <property name="Clip left">00:00:00.000=0</property>
    <property name="Clip right">00:00:00.000=0</property>
    <property name="Clip top">00:00:00.000=0</property>
    <property name="Clip bottom">00:00:00.000=0</property>
    <property name="Scale X">00:00:00.000=0.15</property>
    <property name="Scale Y">00:00:00.000=0.15</property>
    <property name="Tilt X">00:00:00.000=0.609375</property>
    <property name="Tilt Y">00:00:00.000=0.825</property>
    <property name="kdenlive:collapsed">0</property>
   </filter>
   <filter id="filter277" out="00:00:01.000">
    <property name="start">1</property>
    <property name="level">1</property>
    <property name="mlt_service">brightness</property>
    <property name="kdenlive_id">fade_from_Fade in 1 sec</property>
    <property name="alpha">00:00:00.000=0;00:00:01.000=1</property>
    <property name="kdenlive:collapsed">0</property>
   </filter>
   <filter id="filter278" in="00:00:13.667" out="00:00:14.667">
    <property name="start">1</property>
    <property name="level">1</property>
    <property name="mlt_service">brightness</property>
    <property name="kdenlive_id">fade_to_Fade out 1 sec</property>
    <property name="alpha">00:00:00.000=1;00:00:01.000=0</property>
    <property name="kdenlive:collapsed">0</property>
   </filter>
  </entry>
  <blank length="00:00:37.400"/>
  <entry producer="producer39" in="00:00:00.000" out="00:00:22.267">
   <property name="kdenlive:id">47</property>
  </entry>
  <blank length="00:00:20.867"/>
  <entry producer="producer40" in="00:00:00.000" out="00:00:17.033">
   <property name="kdenlive:id">48</property>
   <property name="kdenlive:activeeffect">2</property>
   <filter id="filter279">
    <property name="version">0.1</property>
    <property name="mlt_service">frei0r.scale0tilt</property>
    <property name="kdenlive_id">frei0r.scale0tilt</property>
    <property name="Clip left">00:00:00.000=0</property>
    <property name="Clip right">00:00:00.000=0</property>
    <property name="Clip top">00:00:00.000=0</property>
    <property name="Clip bottom">00:00:00.000=0</property>
    <property name="Scale X">00:00:00.000=0.15</property>
    <property name="Scale Y">00:00:00.000=0.15</property>
    <property name="Tilt X">00:00:00.000=0.609375</property>
    <property name="Tilt Y">00:00:00.000=0.825</property>
    <property name="kdenlive:collapsed">0</property>
   </filter>
   <filter id="filter280" out="00:00:01.000">
    <property name="start">1</property>
    <property name="level">1</property>
    <property name="mlt_service">brightness</property>
    <property name="kdenlive_id">fade_from_Fade in 1 sec</property>
    <property name="alpha">00:00:00.000=0;00:00:01.000=1</property>
    <property name="kdenlive:collapsed">0</property>
   </filter>
   <filter id="filter281" in="00:00:16.033" out="00:00:17.033">
    <property name="start">1</property>
    <property name="level">1</property>
    <property name="mlt_service">brightness</property>
    <property name="kdenlive_id">fade_to_Fade out 1 sec</property>
    <property name="alpha">00:00:00.000=1;00:00:01.000=0</property>
    <property name="kdenlive:collapsed">0</property>
   </filter>
  </entry>
  <blank length="00:00:40.033"/>
  <entry producer="producer41" in="00:00:00.000" out="00:00:05.833">
   <property name="kdenlive:id">49</property>
   <filter id="filter282">
    <property name="version">0.1</property>
    <property name="mlt_service">frei0r.scale0tilt</property>
    <property name="kdenlive_id">frei0r.scale0tilt</property>
    <property name="Clip left">00:00:00.000=0</property>
    <property name="Clip right">00:00:00.000=0</property>
    <property name="Clip top">00:00:00.000=0</property>
    <property name="Clip bottom">00:00:00.000=0</property>
    <property name="Scale X">00:00:00.000=0.15</property>
    <property name="Scale Y">00:00:00.000=0.15</property>
    <property name="Tilt X">00:00:00.000=0.609375</property>
    <property name="Tilt Y">00:00:00.000=0.825</property>
    <property name="kdenlive:collapsed">0</property>
   </filter>
   <filter id="filter283" out="00:00:01.000">
    <property name="start">1</property>
    <property name="level">1</property>
    <property name="mlt_service">brightness</property>
    <property name="kdenlive_id">fade_from_Fade in 1 sec</property>
    <property name="alpha">00:00:00.000=0;00:00:01.000=1</property>
    <property name="kdenlive:collapsed">0</property>
   </filter>
   <filter id="filter284" in="00:00:04.833" out="00:00:05.833">
    <property name="start">1</property>
    <property name="level">1</property>
    <property name="mlt_service">brightness</property>
    <property name="kdenlive_id">fade_to_Fade out 1 sec</property>
    <property name="alpha">00:00:00.000=1;00:00:01.000=0</property>
    <property name="kdenlive:collapsed">0</property>
   </filter>
  </entry>
  <blank length="00:07:38.200"/>
  <entry producer="producer48" in="00:00:00.000" out="00:00:04.967">
   <property name="kdenlive:id">56</property>
   <filter id="filter285">
    <property name="version">0.1</property>
    <property name="mlt_service">frei0r.scale0tilt</property>
    <property name="kdenlive_id">frei0r.scale0tilt</property>
    <property name="Clip left">00:00:00.000=0</property>
    <property name="Clip right">00:00:00.000=0</property>
    <property name="Clip top">00:00:00.000=0</property>
    <property name="Clip bottom">00:00:00.000=0</property>
    <property name="Scale X">00:00:00.000=0.15</property>
    <property name="Scale Y">00:00:00.000=0.15</property>
    <property name="Tilt X">00:00:00.000=0.609375</property>
    <property name="Tilt Y">00:00:00.000=0.825</property>
    <property name="kdenlive:collapsed">0</property>
   </filter>
   <filter id="filter286" out="00:00:01.000">
    <property name="start">1</property>
    <property name="level">1</property>
    <property name="mlt_service">brightness</property>
    <property name="kdenlive_id">fade_from_Fade in 1 sec</property>
    <property name="alpha">00:00:00.000=0;00:00:01.000=1</property>
    <property name="kdenlive:collapsed">0</property>
   </filter>
   <filter id="filter287" in="00:00:03.967" out="00:00:04.967">
    <property name="start">1</property>
    <property name="level">1</property>
    <property name="mlt_service">brightness</property>
    <property name="kdenlive_id">fade_to_Fade out 1 sec</property>
    <property name="alpha">00:00:00.000=1;00:00:01.000=0</property>
    <property name="kdenlive:collapsed">0</property>
   </filter>
  </entry>
  <blank length="00:01:02.800"/>
  <entry producer="producer51" in="00:00:00.000" out="00:00:04.967">
   <property name="kdenlive:id">59</property>
   <filter id="filter288">
    <property name="version">0.1</property>
    <property name="mlt_service">frei0r.scale0tilt</property>
    <property name="kdenlive_id">frei0r.scale0tilt</property>
    <property name="Clip left">00:00:00.000=0</property>
    <property name="Clip right">00:00:00.000=0</property>
    <property name="Clip top">00:00:00.000=0</property>
    <property name="Clip bottom">00:00:00.000=0</property>
    <property name="Scale X">00:00:00.000=0.15</property>
    <property name="Scale Y">00:00:00.000=0.15</property>
    <property name="Tilt X">00:00:00.000=0.609375</property>
    <property name="Tilt Y">00:00:00.000=0.825</property>
    <property name="kdenlive:collapsed">0</property>
   </filter>
   <filter id="filter289" out="00:00:01.000">
    <property name="start">1</property>
    <property name="level">1</property>
    <property name="mlt_service">brightness</property>
    <property name="kdenlive_id">fade_from_Fade in 1 sec</property>
    <property name="alpha">00:00:00.000=0;00:00:01.000=1</property>
    <property name="kdenlive:collapsed">0</property>
   </filter>
   <filter id="filter290" in="00:00:03.967" out="00:00:04.967">
    <property name="start">1</property>
    <property name="level">1</property>
    <property name="mlt_service">brightness</property>
    <property name="kdenlive_id">fade_to_Fade out 1 sec</property>
    <property name="alpha">00:00:00.000=1;00:00:01.000=0</property>
    <property name="kdenlive:collapsed">0</property>
   </filter>
  </entry>
  <blank length="00:02:26.300"/>
  <entry producer="producer33" in="00:00:00.000" out="00:00:04.967">
   <property name="kdenlive:id">66</property>
   <filter id="filter291">
    <property name="version">0.1</property>
    <property name="mlt_service">frei0r.scale0tilt</property>
    <property name="kdenlive_id">frei0r.scale0tilt</property>
    <property name="Clip left">00:00:00.000=0</property>
    <property name="Clip right">00:00:00.000=0</property>
    <property name="Clip top">00:00:00.000=0</property>
    <property name="Clip bottom">00:00:00.000=0</property>
    <property name="Scale X">00:00:00.000=0.15</property>
    <property name="Scale Y">00:00:00.000=0.15</property>
    <property name="Tilt X">00:00:00.000=0.609375</property>
    <property name="Tilt Y">00:00:00.000=0.825</property>
    <property name="kdenlive:collapsed">0</property>
   </filter>
   <filter id="filter292" out="00:00:01.000">
    <property name="start">1</property>
    <property name="level">1</property>
    <property name="mlt_service">brightness</property>
    <property name="kdenlive_id">fade_from_Fade in 1 sec</property>
    <property name="alpha">00:00:00.000=0;00:00:01.000=1</property>
    <property name="kdenlive:collapsed">0</property>
   </filter>
   <filter id="filter293" in="00:00:03.967" out="00:00:04.967">
    <property name="start">1</property>
    <property name="level">1</property>
    <property name="mlt_service">brightness</property>
    <property name="kdenlive_id">fade_to_Fade out 1 sec</property>
    <property name="alpha">00:00:00.000=1;00:00:01.000=0</property>
    <property name="kdenlive:collapsed">0</property>
   </filter>
  </entry>
  <blank length="00:00:08.100"/>
  <entry producer="producer58" in="00:00:00.000" out="00:00:04.967">
   <property name="kdenlive:id">67</property>
   <filter id="filter294">
    <property name="version">0.1</property>
    <property name="mlt_service">frei0r.scale0tilt</property>
    <property name="kdenlive_id">frei0r.scale0tilt</property>
    <property name="Clip left">00:00:00.000=0</property>
    <property name="Clip right">00:00:00.000=0</property>
    <property name="Clip top">00:00:00.000=0</property>
    <property name="Clip bottom">00:00:00.000=0</property>
    <property name="Scale X">00:00:00.000=0.15</property>
    <property name="Scale Y">00:00:00.000=0.15</property>
    <property name="Tilt X">00:00:00.000=0.609375</property>
    <property name="Tilt Y">00:00:00.000=0.825</property>
    <property name="kdenlive:collapsed">0</property>
   </filter>
   <filter id="filter295" out="00:00:01.000">
    <property name="start">1</property>
    <property name="level">1</property>
    <property name="mlt_service">brightness</property>
    <property name="kdenlive_id">fade_from_Fade in 1 sec</property>
    <property name="alpha">00:00:00.000=0;00:00:01.000=1</property>
    <property name="kdenlive:collapsed">0</property>
   </filter>
   <filter id="filter296" in="00:00:03.967" out="00:00:04.967">
    <property name="start">1</property>
    <property name="level">1</property>
    <property name="mlt_service">brightness</property>
    <property name="kdenlive_id">fade_to_Fade out 1 sec</property>
    <property name="alpha">00:00:00.000=1;00:00:01.000=0</property>
    <property name="kdenlive:collapsed">0</property>
   </filter>
  </entry>
  <blank length="00:00:49.300"/>
  <entry producer="producer59" in="00:00:00.000" out="00:00:04.967">
   <property name="kdenlive:id">68</property>
   <filter id="filter297">
    <property name="version">0.1</property>
    <property name="mlt_service">frei0r.scale0tilt</property>
    <property name="kdenlive_id">frei0r.scale0tilt</property>
    <property name="Clip left">00:00:00.000=0</property>
    <property name="Clip right">00:00:00.000=0</property>
    <property name="Clip top">00:00:00.000=0</property>
    <property name="Clip bottom">00:00:00.000=0</property>
    <property name="Scale X">00:00:00.000=0.15</property>
    <property name="Scale Y">00:00:00.000=0.15</property>
    <property name="Tilt X">00:00:00.000=0.609375</property>
    <property name="Tilt Y">00:00:00.000=0.825</property>
    <property name="kdenlive:collapsed">0</property>
   </filter>
   <filter id="filter298" out="00:00:01.000">
    <property name="start">1</property>
    <property name="level">1</property>
    <property name="mlt_service">brightness</property>
    <property name="kdenlive_id">fade_from_Fade in 1 sec</property>
    <property name="alpha">00:00:00.000=0;00:00:01.000=1</property>
    <property name="kdenlive:collapsed">0</property>
   </filter>
   <filter id="filter299" in="00:00:03.967" out="00:00:04.967">
    <property name="start">1</property>
    <property name="level">1</property>
    <property name="mlt_service">brightness</property>
    <property name="kdenlive_id">fade_to_Fade out 1 sec</property>
    <property name="alpha">00:00:00.000=1;00:00:01.000=0</property>
    <property name="kdenlive:collapsed">0</property>
   </filter>
  </entry>
  <blank length="00:00:34.667"/>
  <entry producer="producer60" in="00:00:00.000" out="00:00:04.967">
   <property name="kdenlive:id">69</property>
   <filter id="filter300">
    <property name="version">0.1</property>
    <property name="mlt_service">frei0r.scale0tilt</property>
    <property name="kdenlive_id">frei0r.scale0tilt</property>
    <property name="Clip left">00:00:00.000=0</property>
    <property name="Clip right">00:00:00.000=0</property>
    <property name="Clip top">00:00:00.000=0</property>
    <property name="Clip bottom">00:00:00.000=0</property>
    <property name="Scale X">00:00:00.000=0.15</property>
    <property name="Scale Y">00:00:00.000=0.15</property>
    <property name="Tilt X">00:00:00.000=0.609375</property>
    <property name="Tilt Y">00:00:00.000=0.825</property>
    <property name="kdenlive:collapsed">0</property>
   </filter>
   <filter id="filter301" out="00:00:01.000">
    <property name="start">1</property>
    <property name="level">1</property>
    <property name="mlt_service">brightness</property>
    <property name="kdenlive_id">fade_from_Fade in 1 sec</property>
    <property name="alpha">00:00:00.000=0;00:00:01.000=1</property>
    <property name="kdenlive:collapsed">0</property>
   </filter>
   <filter id="filter302" in="00:00:03.967" out="00:00:04.967">
    <property name="start">1</property>
    <property name="level">1</property>
    <property name="mlt_service">brightness</property>
    <property name="kdenlive_id">fade_to_Fade out 1 sec</property>
    <property name="alpha">00:00:00.000=1;00:00:01.000=0</property>
    <property name="kdenlive:collapsed">0</property>
   </filter>
  </entry>
  <blank length="00:03:05.000"/>
  <entry producer="producer65" in="00:00:00.000" out="00:00:02.933">
   <property name="kdenlive:id">73</property>
   <filter id="filter303">
    <property name="version">0.1</property>
    <property name="mlt_service">frei0r.scale0tilt</property>
    <property name="kdenlive_id">frei0r.scale0tilt</property>
    <property name="Clip left">00:00:00.000=0</property>
    <property name="Clip right">00:00:00.000=0</property>
    <property name="Clip top">00:00:00.000=0</property>
    <property name="Clip bottom">00:00:00.000=0</property>
    <property name="Scale X">00:00:00.000=0.15</property>
    <property name="Scale Y">00:00:00.000=0.15</property>
    <property name="Tilt X">00:00:00.000=0.609375</property>
    <property name="Tilt Y">00:00:00.000=0.825</property>
    <property name="kdenlive:collapsed">0</property>
   </filter>
   <filter id="filter304" out="00:00:01.000">
    <property name="start">1</property>
    <property name="level">1</property>
    <property name="mlt_service">brightness</property>
    <property name="kdenlive_id">fade_from_Fade in 1 sec</property>
    <property name="alpha">00:00:00.000=0;00:00:01.000=1</property>
    <property name="kdenlive:collapsed">0</property>
   </filter>
   <filter id="filter305" in="00:00:01.933" out="00:00:02.933">
    <property name="start">1</property>
    <property name="level">1</property>
    <property name="mlt_service">brightness</property>
    <property name="kdenlive_id">fade_to_Fade out 1 sec</property>
    <property name="alpha">00:00:00.000=1;00:00:01.000=0</property>
    <property name="kdenlive:collapsed">0</property>
   </filter>
  </entry>
 </playlist>
 <playlist id="playlist13"/>
 <tractor id="tractor6" in="00:00:00.000" out="00:44:49.267">
  <property name="kdenlive:trackheight">67</property>
  <property name="kdenlive:timeline_active">1</property>
  <property name="kdenlive:collapsed">0</property>
  <property name="kdenlive:track_name">Images</property>
  <property name="kdenlive:thumbs_format"/>
  <property name="kdenlive:audio_rec"/>
  <track hide="audio" producer="playlist12"/>
  <track hide="audio" producer="playlist13"/>
 </tractor>
 <tractor id="tractor7" in="00:00:00.000" out="01:27:38.533">
  <track producer="black_track"/>
  <track producer="tractor0"/>
  <track producer="tractor1"/>
  <track producer="tractor2"/>
  <track producer="tractor3"/>
  <track producer="tractor4"/>
  <track producer="tractor5"/>
  <track producer="tractor6"/>
  <transition id="transition0">
   <property name="a_track">0</property>
   <property name="b_track">1</property>
   <property name="mlt_service">mix</property>
   <property name="kdenlive_id">mix</property>
   <property name="internal_added">237</property>
   <property name="always_active">1</property>
   <property name="accepts_blanks">1</property>
   <property name="sum">1</property>
  </transition>
  <transition id="transition1">
   <property name="a_track">0</property>
   <property name="b_track">2</property>
   <property name="mlt_service">mix</property>
   <property name="kdenlive_id">mix</property>
   <property name="internal_added">237</property>
   <property name="always_active">1</property>
   <property name="accepts_blanks">1</property>
   <property name="sum">1</property>
  </transition>
  <transition id="transition2">
   <property name="a_track">0</property>
   <property name="b_track">3</property>
   <property name="mlt_service">mix</property>
   <property name="kdenlive_id">mix</property>
   <property name="internal_added">237</property>
   <property name="always_active">1</property>
   <property name="accepts_blanks">1</property>
   <property name="sum">1</property>
  </transition>
  <transition id="transition3">
   <property name="a_track">0</property>
   <property name="b_track">4</property>
   <property name="version">0.1</property>
   <property name="mlt_service">frei0r.cairoblend</property>
   <property name="always_active">1</property>
   <property name="internal_added">237</property>
  </transition>
  <transition id="transition4">
   <property name="a_track">0</property>
   <property name="b_track">5</property>
   <property name="version">0.1</property>
   <property name="mlt_service">frei0r.cairoblend</property>
   <property name="always_active">1</property>
   <property name="internal_added">237</property>
  </transition>
  <transition id="transition5">
   <property name="a_track">0</property>
   <property name="b_track">6</property>
   <property name="version">0.1</property>
   <property name="mlt_service">frei0r.cairoblend</property>
   <property name="always_active">1</property>
   <property name="internal_added">237</property>
  </transition>
  <transition id="transition6">
   <property name="a_track">0</property>
   <property name="b_track">7</property>
   <property name="version">0.1</property>
   <property name="mlt_service">frei0r.cairoblend</property>
   <property name="always_active">1</property>
   <property name="internal_added">237</property>
  </transition>
  <filter id="filter306">
   <property name="window">75</property>
   <property name="max_gain">20dB</property>
   <property name="mlt_service">volume</property>
   <property name="internal_added">237</property>
   <property name="disable">1</property>
  </filter>
  <filter id="filter307">
   <property name="channel">-1</property>
   <property name="mlt_service">panner</property>
   <property name="internal_added">237</property>
   <property name="start">0.5</property>
   <property name="disable">1</property>
  </filter>
  <filter id="filter104">
   <property name="mlt_service">avfilter.subtitles</property>
   <property name="internal_added">237</property>
   <property name="av.filename">/var/tmp/1673512599751.srt</property>
   <property name="disable">0</property>
   <property name="kdenlive:locked">0</property>
  </filter>
 </tractor>
</mlt>
