<?xml version='1.0' encoding='utf-8'?>
<mlt LC_NUMERIC="C" producer="main_bin" version="7.13.0" root="/media/jaker/Pterosaur/Videos/Class/CAD">
 <profile frame_rate_num="30" sample_aspect_num="1" display_aspect_den="9" colorspace="709" progressive="1" description="HD 720p 30 fps" display_aspect_num="16" frame_rate_den="1" width="1280" height="720" sample_aspect_den="1"/>
 <producer id="producer0" in="00:00:00.000" out="00:24:20.733">
  <property name="length">43823</property>
  <property name="eof">pause</property>
  <property name="resource">clips/01 CAD audio.mkv</property>
  <property name="audio_index">1</property>
  <property name="video_index">0</property>
  <property name="mute_on_pause">0</property>
  <property name="mlt_service">avformat-novalidate</property>
  <property name="meta.media.nb_streams">2</property>
  <property name="meta.media.0.stream.type">video</property>
  <property name="meta.media.0.stream.frame_rate">30</property>
  <property name="meta.media.0.stream.sample_aspect_ratio">0</property>
  <property name="meta.media.0.codec.width">1280</property>
  <property name="meta.media.0.codec.height">720</property>
  <property name="meta.media.0.codec.rotate">0</property>
  <property name="meta.media.0.codec.pix_fmt">yuv420p</property>
  <property name="meta.media.0.codec.sample_aspect_ratio">1</property>
  <property name="meta.media.0.codec.colorspace">709</property>
  <property name="meta.media.0.codec.color_trc">1</property>
  <property name="meta.media.0.codec.name">h264</property>
  <property name="meta.media.0.codec.long_name">H.264 / AVC / MPEG-4 AVC / MPEG-4 part 10</property>
  <property name="meta.media.0.codec.bit_rate">0</property>
  <property name="meta.attr.0.stream.DURATION.markup">00:24:20.766000000</property>
  <property name="meta.media.1.stream.type">audio</property>
  <property name="meta.media.1.codec.sample_fmt">fltp</property>
  <property name="meta.media.1.codec.sample_rate">48000</property>
  <property name="meta.media.1.codec.channels">2</property>
  <property name="meta.media.1.codec.name">aac</property>
  <property name="meta.media.1.codec.long_name">AAC (Advanced Audio Coding)</property>
  <property name="meta.media.1.codec.bit_rate">0</property>
  <property name="meta.attr.1.stream.title.markup">Track1</property>
  <property name="meta.attr.1.stream.DURATION.markup">00:24:20.608000000</property>
  <property name="meta.attr.ENCODER.markup">Lavf58.76.100</property>
  <property name="seekable">1</property>
  <property name="meta.media.sample_aspect_num">1</property>
  <property name="meta.media.sample_aspect_den">1</property>
  <property name="aspect_ratio">1</property>
  <property name="format">3</property>
  <property name="kdenlive:clipname"/>
  <property name="kdenlive:clip_type">0</property>
  <property name="kdenlive:folderid">28</property>
  <property name="kdenlive:id">2</property>
  <property name="kdenlive:file_size">486506479</property>
  <property name="kdenlive:file_hash">51d88c746da7879822eea9d20c5972e1</property>
  <property name="kdenlive:audio_max1">234</property>
  <property name="meta.media.frame_rate_num">30</property>
  <property name="meta.media.frame_rate_den">1</property>
  <property name="meta.media.colorspace">709</property>
  <property name="meta.media.color_trc">1</property>
  <property name="meta.media.has_b_frames">2</property>
  <property name="meta.media.width">1280</property>
  <property name="meta.media.height">720</property>
  <property name="meta.media.color_range">mpeg</property>
  <property name="meta.media.top_field_first">0</property>
  <property name="meta.media.progressive">1</property>
 </producer>
 <producer id="producer2" in="00:00:00.000" out="00:24:21.033">
  <property name="length">43832</property>
  <property name="eof">pause</property>
  <property name="resource">clips/01 CAD Desktop.mkv</property>
  <property name="audio_index">1</property>
  <property name="video_index">0</property>
  <property name="mute_on_pause">0</property>
  <property name="mlt_service">avformat-novalidate</property>
  <property name="meta.media.nb_streams">2</property>
  <property name="meta.media.0.stream.type">video</property>
  <property name="meta.media.0.stream.frame_rate">30</property>
  <property name="meta.media.0.stream.sample_aspect_ratio">0</property>
  <property name="meta.media.0.codec.width">1920</property>
  <property name="meta.media.0.codec.height">1080</property>
  <property name="meta.media.0.codec.rotate">0</property>
  <property name="meta.media.0.codec.pix_fmt">yuv420p</property>
  <property name="meta.media.0.codec.sample_aspect_ratio">1</property>
  <property name="meta.media.0.codec.colorspace">709</property>
  <property name="meta.media.0.codec.color_trc">1</property>
  <property name="meta.media.0.codec.name">h264</property>
  <property name="meta.media.0.codec.long_name">H.264 / AVC / MPEG-4 AVC / MPEG-4 part 10</property>
  <property name="meta.media.0.codec.bit_rate">0</property>
  <property name="meta.attr.0.stream.DURATION.markup">00:24:21.066000000</property>
  <property name="meta.media.1.stream.type">audio</property>
  <property name="meta.media.1.codec.sample_fmt">fltp</property>
  <property name="meta.media.1.codec.sample_rate">48000</property>
  <property name="meta.media.1.codec.channels">2</property>
  <property name="meta.media.1.codec.name">aac</property>
  <property name="meta.media.1.codec.long_name">AAC (Advanced Audio Coding)</property>
  <property name="meta.media.1.codec.bit_rate">0</property>
  <property name="meta.attr.1.stream.title.markup">Source Record</property>
  <property name="meta.attr.1.stream.DURATION.markup">00:24:21.056000000</property>
  <property name="meta.attr.ENCODER.markup">Lavf58.76.100</property>
  <property name="seekable">1</property>
  <property name="meta.media.sample_aspect_num">1</property>
  <property name="meta.media.sample_aspect_den">1</property>
  <property name="aspect_ratio">1</property>
  <property name="format">3</property>
  <property name="kdenlive:clipname"/>
  <property name="kdenlive:clip_type">0</property>
  <property name="kdenlive:folderid">28</property>
  <property name="kdenlive:id">3</property>
  <property name="kdenlive:file_size">457735203</property>
  <property name="kdenlive:file_hash">5ea2fd1f66be5394ba4ff472605eaf2d</property>
  <property name="kdenlive:audio_max1">1</property>
  <property name="meta.media.frame_rate_num">30</property>
  <property name="meta.media.frame_rate_den">1</property>
  <property name="meta.media.colorspace">709</property>
  <property name="meta.media.color_trc">1</property>
  <property name="meta.media.has_b_frames">0</property>
  <property name="meta.media.width">1920</property>
  <property name="meta.media.height">1080</property>
  <property name="meta.media.color_range">mpeg</property>
  <property name="meta.media.top_field_first">0</property>
  <property name="meta.media.progressive">1</property>
 </producer>
 <producer id="producer1" in="00:00:00.000" out="00:24:21.167">
  <property name="length">43836</property>
  <property name="eof">pause</property>
  <property name="resource">clips/01 CAD facecam.mkv</property>
  <property name="audio_index">1</property>
  <property name="video_index">0</property>
  <property name="mute_on_pause">0</property>
  <property name="mlt_service">avformat-novalidate</property>
  <property name="meta.media.nb_streams">2</property>
  <property name="meta.media.0.stream.type">video</property>
  <property name="meta.media.0.stream.frame_rate">30</property>
  <property name="meta.media.0.stream.sample_aspect_ratio">0</property>
  <property name="meta.media.0.codec.width">800</property>
  <property name="meta.media.0.codec.height">600</property>
  <property name="meta.media.0.codec.rotate">0</property>
  <property name="meta.media.0.codec.pix_fmt">yuv420p</property>
  <property name="meta.media.0.codec.sample_aspect_ratio">1</property>
  <property name="meta.media.0.codec.colorspace">709</property>
  <property name="meta.media.0.codec.color_trc">1</property>
  <property name="meta.media.0.codec.name">h264</property>
  <property name="meta.media.0.codec.long_name">H.264 / AVC / MPEG-4 AVC / MPEG-4 part 10</property>
  <property name="meta.media.0.codec.bit_rate">0</property>
  <property name="meta.attr.0.stream.DURATION.markup">00:24:21.166000000</property>
  <property name="meta.media.1.stream.type">audio</property>
  <property name="meta.media.1.codec.sample_fmt">fltp</property>
  <property name="meta.media.1.codec.sample_rate">48000</property>
  <property name="meta.media.1.codec.channels">2</property>
  <property name="meta.media.1.codec.name">aac</property>
  <property name="meta.media.1.codec.long_name">AAC (Advanced Audio Coding)</property>
  <property name="meta.media.1.codec.bit_rate">0</property>
  <property name="meta.attr.1.stream.title.markup">Source Record</property>
  <property name="meta.attr.1.stream.DURATION.markup">00:24:21.184000000</property>
  <property name="meta.attr.ENCODER.markup">Lavf58.76.100</property>
  <property name="seekable">1</property>
  <property name="meta.media.sample_aspect_num">1</property>
  <property name="meta.media.sample_aspect_den">1</property>
  <property name="aspect_ratio">1</property>
  <property name="format">3</property>
  <property name="kdenlive:clipname"/>
  <property name="kdenlive:clip_type">0</property>
  <property name="kdenlive:folderid">28</property>
  <property name="kdenlive:id">4</property>
  <property name="kdenlive:file_size">457797774</property>
  <property name="kdenlive:file_hash">42fbf6649d003d9839583cf493490ac7</property>
  <property name="kdenlive:audio_max1">1</property>
  <property name="meta.media.frame_rate_num">30</property>
  <property name="meta.media.frame_rate_den">1</property>
  <property name="meta.media.colorspace">709</property>
  <property name="meta.media.color_trc">1</property>
  <property name="meta.media.has_b_frames">0</property>
  <property name="meta.media.width">800</property>
  <property name="meta.media.height">600</property>
  <property name="meta.media.color_range">mpeg</property>
  <property name="meta.media.top_field_first">0</property>
  <property name="meta.media.progressive">1</property>
 </producer>
 <producer id="producer3" in="00:00:00.000" out="00:09:14.400">
  <property name="length">16633</property>
  <property name="eof">pause</property>
  <property name="resource">clips/02 Setup audio.mkv</property>
  <property name="audio_index">1</property>
  <property name="video_index">0</property>
  <property name="mute_on_pause">0</property>
  <property name="mlt_service">avformat-novalidate</property>
  <property name="meta.media.nb_streams">2</property>
  <property name="meta.media.0.stream.type">video</property>
  <property name="meta.media.0.stream.frame_rate">30</property>
  <property name="meta.media.0.stream.sample_aspect_ratio">0</property>
  <property name="meta.media.0.codec.width">1280</property>
  <property name="meta.media.0.codec.height">720</property>
  <property name="meta.media.0.codec.rotate">0</property>
  <property name="meta.media.0.codec.pix_fmt">yuv420p</property>
  <property name="meta.media.0.codec.sample_aspect_ratio">1</property>
  <property name="meta.media.0.codec.colorspace">709</property>
  <property name="meta.media.0.codec.color_trc">1</property>
  <property name="meta.media.0.codec.name">h264</property>
  <property name="meta.media.0.codec.long_name">H.264 / AVC / MPEG-4 AVC / MPEG-4 part 10</property>
  <property name="meta.media.0.codec.bit_rate">0</property>
  <property name="meta.attr.0.stream.DURATION.markup">00:09:14.433000000</property>
  <property name="meta.media.1.stream.type">audio</property>
  <property name="meta.media.1.codec.sample_fmt">fltp</property>
  <property name="meta.media.1.codec.sample_rate">48000</property>
  <property name="meta.media.1.codec.channels">2</property>
  <property name="meta.media.1.codec.name">aac</property>
  <property name="meta.media.1.codec.long_name">AAC (Advanced Audio Coding)</property>
  <property name="meta.media.1.codec.bit_rate">0</property>
  <property name="meta.attr.1.stream.title.markup">Track1</property>
  <property name="meta.attr.1.stream.DURATION.markup">00:09:14.304000000</property>
  <property name="meta.attr.ENCODER.markup">Lavf58.76.100</property>
  <property name="seekable">1</property>
  <property name="meta.media.sample_aspect_num">1</property>
  <property name="meta.media.sample_aspect_den">1</property>
  <property name="aspect_ratio">1</property>
  <property name="format">3</property>
  <property name="kdenlive:clipname"/>
  <property name="kdenlive:clip_type">0</property>
  <property name="kdenlive:folderid">29</property>
  <property name="kdenlive:id">5</property>
  <property name="kdenlive:file_size">184665858</property>
  <property name="kdenlive:file_hash">d245c29173e458c43a90e2f4ad3837df</property>
  <property name="kdenlive:audio_max1">174</property>
  <property name="meta.media.frame_rate_num">30</property>
  <property name="meta.media.frame_rate_den">1</property>
  <property name="meta.media.colorspace">709</property>
  <property name="meta.media.color_trc">1</property>
  <property name="meta.media.has_b_frames">2</property>
  <property name="meta.media.width">1280</property>
  <property name="meta.media.height">720</property>
  <property name="meta.media.color_range">mpeg</property>
  <property name="meta.media.top_field_first">0</property>
  <property name="meta.media.progressive">1</property>
 </producer>
 <producer id="producer4" in="00:00:00.000" out="00:09:14.133">
  <property name="length">16625</property>
  <property name="eof">pause</property>
  <property name="resource">clips/02 Setup Desktop.mkv</property>
  <property name="audio_index">1</property>
  <property name="video_index">0</property>
  <property name="mute_on_pause">0</property>
  <property name="mlt_service">avformat-novalidate</property>
  <property name="meta.media.nb_streams">2</property>
  <property name="meta.media.0.stream.type">video</property>
  <property name="meta.media.0.stream.frame_rate">30</property>
  <property name="meta.media.0.stream.sample_aspect_ratio">0</property>
  <property name="meta.media.0.codec.width">1920</property>
  <property name="meta.media.0.codec.height">1080</property>
  <property name="meta.media.0.codec.rotate">0</property>
  <property name="meta.media.0.codec.pix_fmt">yuv420p</property>
  <property name="meta.media.0.codec.sample_aspect_ratio">1</property>
  <property name="meta.media.0.codec.colorspace">709</property>
  <property name="meta.media.0.codec.color_trc">1</property>
  <property name="meta.media.0.codec.name">h264</property>
  <property name="meta.media.0.codec.long_name">H.264 / AVC / MPEG-4 AVC / MPEG-4 part 10</property>
  <property name="meta.media.0.codec.bit_rate">0</property>
  <property name="meta.attr.0.stream.DURATION.markup">00:09:14.166000000</property>
  <property name="meta.media.1.stream.type">audio</property>
  <property name="meta.media.1.codec.sample_fmt">fltp</property>
  <property name="meta.media.1.codec.sample_rate">48000</property>
  <property name="meta.media.1.codec.channels">2</property>
  <property name="meta.media.1.codec.name">aac</property>
  <property name="meta.media.1.codec.long_name">AAC (Advanced Audio Coding)</property>
  <property name="meta.media.1.codec.bit_rate">0</property>
  <property name="meta.attr.1.stream.title.markup">Source Record</property>
  <property name="meta.attr.1.stream.DURATION.markup">00:09:14.133000000</property>
  <property name="meta.attr.ENCODER.markup">Lavf58.76.100</property>
  <property name="seekable">1</property>
  <property name="meta.media.sample_aspect_num">1</property>
  <property name="meta.media.sample_aspect_den">1</property>
  <property name="aspect_ratio">1</property>
  <property name="format">3</property>
  <property name="kdenlive:clipname"/>
  <property name="kdenlive:clip_type">0</property>
  <property name="kdenlive:folderid">29</property>
  <property name="kdenlive:id">6</property>
  <property name="kdenlive:file_size">173593797</property>
  <property name="kdenlive:file_hash">69dd0610d4a97bddddb2029b4eb429d0</property>
  <property name="kdenlive:audio_max1">1</property>
  <property name="meta.media.frame_rate_num">30</property>
  <property name="meta.media.frame_rate_den">1</property>
  <property name="meta.media.colorspace">709</property>
  <property name="meta.media.color_trc">1</property>
  <property name="meta.media.has_b_frames">0</property>
  <property name="meta.media.width">1920</property>
  <property name="meta.media.height">1080</property>
  <property name="meta.media.color_range">mpeg</property>
  <property name="meta.media.top_field_first">0</property>
  <property name="meta.media.progressive">1</property>
 </producer>
 <producer id="producer5" in="00:00:00.000" out="00:09:14.967">
  <property name="length">16650</property>
  <property name="eof">pause</property>
  <property name="resource">clips/02 Setup facecam.mkv</property>
  <property name="audio_index">1</property>
  <property name="video_index">0</property>
  <property name="mute_on_pause">0</property>
  <property name="mlt_service">avformat-novalidate</property>
  <property name="meta.media.nb_streams">2</property>
  <property name="meta.media.0.stream.type">video</property>
  <property name="meta.media.0.stream.frame_rate">30</property>
  <property name="meta.media.0.stream.sample_aspect_ratio">0</property>
  <property name="meta.media.0.codec.width">800</property>
  <property name="meta.media.0.codec.height">600</property>
  <property name="meta.media.0.codec.rotate">0</property>
  <property name="meta.media.0.codec.pix_fmt">yuv420p</property>
  <property name="meta.media.0.codec.sample_aspect_ratio">1</property>
  <property name="meta.media.0.codec.colorspace">709</property>
  <property name="meta.media.0.codec.color_trc">1</property>
  <property name="meta.media.0.codec.name">h264</property>
  <property name="meta.media.0.codec.long_name">H.264 / AVC / MPEG-4 AVC / MPEG-4 part 10</property>
  <property name="meta.media.0.codec.bit_rate">0</property>
  <property name="meta.attr.0.stream.DURATION.markup">00:09:14.966000000</property>
  <property name="meta.media.1.stream.type">audio</property>
  <property name="meta.media.1.codec.sample_fmt">fltp</property>
  <property name="meta.media.1.codec.sample_rate">48000</property>
  <property name="meta.media.1.codec.channels">2</property>
  <property name="meta.media.1.codec.name">aac</property>
  <property name="meta.media.1.codec.long_name">AAC (Advanced Audio Coding)</property>
  <property name="meta.media.1.codec.bit_rate">0</property>
  <property name="meta.attr.1.stream.title.markup">Source Record</property>
  <property name="meta.attr.1.stream.DURATION.markup">00:09:14.986000000</property>
  <property name="meta.attr.ENCODER.markup">Lavf58.76.100</property>
  <property name="seekable">1</property>
  <property name="meta.media.sample_aspect_num">1</property>
  <property name="meta.media.sample_aspect_den">1</property>
  <property name="aspect_ratio">1</property>
  <property name="format">3</property>
  <property name="kdenlive:clipname"/>
  <property name="kdenlive:clip_type">0</property>
  <property name="kdenlive:folderid">29</property>
  <property name="kdenlive:id">7</property>
  <property name="kdenlive:file_size">173887131</property>
  <property name="kdenlive:file_hash">1f8ba7dc7065f6f6e4b29e68ba7174db</property>
  <property name="kdenlive:audio_max1">1</property>
  <property name="meta.media.frame_rate_num">30</property>
  <property name="meta.media.frame_rate_den">1</property>
  <property name="meta.media.colorspace">709</property>
  <property name="meta.media.color_trc">1</property>
  <property name="meta.media.has_b_frames">0</property>
  <property name="meta.media.width">800</property>
  <property name="meta.media.height">600</property>
  <property name="meta.media.color_range">mpeg</property>
  <property name="meta.media.top_field_first">0</property>
  <property name="meta.media.progressive">1</property>
 </producer>
 <producer id="producer6" in="00:00:00.000" out="00:08:18.800">
  <property name="length">14965</property>
  <property name="eof">pause</property>
  <property name="resource">clips/04.0 examples audio.mkv</property>
  <property name="audio_index">1</property>
  <property name="video_index">0</property>
  <property name="mute_on_pause">0</property>
  <property name="mlt_service">avformat-novalidate</property>
  <property name="meta.media.nb_streams">2</property>
  <property name="meta.media.0.stream.type">video</property>
  <property name="meta.media.0.stream.frame_rate">30</property>
  <property name="meta.media.0.stream.sample_aspect_ratio">0</property>
  <property name="meta.media.0.codec.width">1280</property>
  <property name="meta.media.0.codec.height">720</property>
  <property name="meta.media.0.codec.rotate">0</property>
  <property name="meta.media.0.codec.pix_fmt">yuv420p</property>
  <property name="meta.media.0.codec.sample_aspect_ratio">1</property>
  <property name="meta.media.0.codec.colorspace">709</property>
  <property name="meta.media.0.codec.color_trc">1</property>
  <property name="meta.media.0.codec.name">h264</property>
  <property name="meta.media.0.codec.long_name">H.264 / AVC / MPEG-4 AVC / MPEG-4 part 10</property>
  <property name="meta.media.0.codec.bit_rate">0</property>
  <property name="meta.attr.0.stream.DURATION.markup">00:08:18.833000000</property>
  <property name="meta.media.1.stream.type">audio</property>
  <property name="meta.media.1.codec.sample_fmt">fltp</property>
  <property name="meta.media.1.codec.sample_rate">48000</property>
  <property name="meta.media.1.codec.channels">2</property>
  <property name="meta.media.1.codec.name">aac</property>
  <property name="meta.media.1.codec.long_name">AAC (Advanced Audio Coding)</property>
  <property name="meta.media.1.codec.bit_rate">0</property>
  <property name="meta.attr.1.stream.title.markup">Track1</property>
  <property name="meta.attr.1.stream.DURATION.markup">00:08:18.666000000</property>
  <property name="meta.attr.ENCODER.markup">Lavf58.76.100</property>
  <property name="seekable">1</property>
  <property name="meta.media.sample_aspect_num">1</property>
  <property name="meta.media.sample_aspect_den">1</property>
  <property name="aspect_ratio">1</property>
  <property name="format">3</property>
  <property name="kdenlive:clipname"/>
  <property name="kdenlive:clip_type">0</property>
  <property name="kdenlive:folderid">31</property>
  <property name="kdenlive:id">8</property>
  <property name="kdenlive:file_size">166196431</property>
  <property name="kdenlive:file_hash">154550b3169f03cb423d9ba991480391</property>
  <property name="meta.media.frame_rate_num">30</property>
  <property name="meta.media.frame_rate_den">1</property>
  <property name="meta.media.colorspace">709</property>
  <property name="meta.media.color_trc">1</property>
  <property name="meta.media.has_b_frames">2</property>
  <property name="meta.media.width">1280</property>
  <property name="meta.media.height">720</property>
  <property name="meta.media.color_range">mpeg</property>
  <property name="meta.media.top_field_first">0</property>
  <property name="meta.media.progressive">1</property>
  <property name="kdenlive:audio_max1">195</property>
 </producer>
 <producer id="producer8" in="00:00:00.000" out="00:08:19.067">
  <property name="length">14973</property>
  <property name="eof">pause</property>
  <property name="resource">clips/04.0 examples desktop.mkv</property>
  <property name="audio_index">1</property>
  <property name="video_index">0</property>
  <property name="mute_on_pause">0</property>
  <property name="mlt_service">avformat-novalidate</property>
  <property name="meta.media.nb_streams">2</property>
  <property name="meta.media.0.stream.type">video</property>
  <property name="meta.media.0.stream.frame_rate">30</property>
  <property name="meta.media.0.stream.sample_aspect_ratio">0</property>
  <property name="meta.media.0.codec.width">1920</property>
  <property name="meta.media.0.codec.height">1080</property>
  <property name="meta.media.0.codec.rotate">0</property>
  <property name="meta.media.0.codec.pix_fmt">yuv420p</property>
  <property name="meta.media.0.codec.sample_aspect_ratio">1</property>
  <property name="meta.media.0.codec.colorspace">709</property>
  <property name="meta.media.0.codec.color_trc">1</property>
  <property name="meta.media.0.codec.name">h264</property>
  <property name="meta.media.0.codec.long_name">H.264 / AVC / MPEG-4 AVC / MPEG-4 part 10</property>
  <property name="meta.media.0.codec.bit_rate">0</property>
  <property name="meta.attr.0.stream.DURATION.markup">00:08:19.100000000</property>
  <property name="meta.media.1.stream.type">audio</property>
  <property name="meta.media.1.codec.sample_fmt">fltp</property>
  <property name="meta.media.1.codec.sample_rate">48000</property>
  <property name="meta.media.1.codec.channels">2</property>
  <property name="meta.media.1.codec.name">aac</property>
  <property name="meta.media.1.codec.long_name">AAC (Advanced Audio Coding)</property>
  <property name="meta.media.1.codec.bit_rate">0</property>
  <property name="meta.attr.1.stream.title.markup">Source Record</property>
  <property name="meta.attr.1.stream.DURATION.markup">00:08:19.114000000</property>
  <property name="meta.attr.ENCODER.markup">Lavf58.76.100</property>
  <property name="seekable">1</property>
  <property name="meta.media.sample_aspect_num">1</property>
  <property name="meta.media.sample_aspect_den">1</property>
  <property name="aspect_ratio">1</property>
  <property name="format">3</property>
  <property name="kdenlive:clipname"/>
  <property name="kdenlive:clip_type">0</property>
  <property name="kdenlive:folderid">31</property>
  <property name="kdenlive:id">9</property>
  <property name="kdenlive:file_size">156406009</property>
  <property name="kdenlive:file_hash">7f91ba74889d494d7efc8794a681e8ae</property>
  <property name="meta.media.frame_rate_num">30</property>
  <property name="meta.media.frame_rate_den">1</property>
  <property name="meta.media.colorspace">709</property>
  <property name="meta.media.color_trc">1</property>
  <property name="meta.media.has_b_frames">0</property>
  <property name="meta.media.width">1920</property>
  <property name="meta.media.height">1080</property>
  <property name="meta.media.color_range">mpeg</property>
  <property name="meta.media.top_field_first">0</property>
  <property name="meta.media.progressive">1</property>
  <property name="kdenlive:audio_max1">1</property>
 </producer>
 <producer id="producer7" in="00:00:00.000" out="00:08:19.267">
  <property name="length">14979</property>
  <property name="eof">pause</property>
  <property name="resource">clips/04.0 examples facecam.mkv</property>
  <property name="audio_index">1</property>
  <property name="video_index">0</property>
  <property name="mute_on_pause">0</property>
  <property name="mlt_service">avformat-novalidate</property>
  <property name="meta.media.nb_streams">2</property>
  <property name="meta.media.0.stream.type">video</property>
  <property name="meta.media.0.stream.frame_rate">30</property>
  <property name="meta.media.0.stream.sample_aspect_ratio">0</property>
  <property name="meta.media.0.codec.width">800</property>
  <property name="meta.media.0.codec.height">600</property>
  <property name="meta.media.0.codec.rotate">0</property>
  <property name="meta.media.0.codec.pix_fmt">yuv420p</property>
  <property name="meta.media.0.codec.sample_aspect_ratio">1</property>
  <property name="meta.media.0.codec.colorspace">709</property>
  <property name="meta.media.0.codec.color_trc">1</property>
  <property name="meta.media.0.codec.name">h264</property>
  <property name="meta.media.0.codec.long_name">H.264 / AVC / MPEG-4 AVC / MPEG-4 part 10</property>
  <property name="meta.media.0.codec.bit_rate">0</property>
  <property name="meta.attr.0.stream.DURATION.markup">00:08:19.300000000</property>
  <property name="meta.media.1.stream.type">audio</property>
  <property name="meta.media.1.codec.sample_fmt">fltp</property>
  <property name="meta.media.1.codec.sample_rate">48000</property>
  <property name="meta.media.1.codec.channels">2</property>
  <property name="meta.media.1.codec.name">aac</property>
  <property name="meta.media.1.codec.long_name">AAC (Advanced Audio Coding)</property>
  <property name="meta.media.1.codec.bit_rate">0</property>
  <property name="meta.attr.1.stream.title.markup">Source Record</property>
  <property name="meta.attr.1.stream.DURATION.markup">00:08:19.285000000</property>
  <property name="meta.attr.ENCODER.markup">Lavf58.76.100</property>
  <property name="seekable">1</property>
  <property name="meta.media.sample_aspect_num">1</property>
  <property name="meta.media.sample_aspect_den">1</property>
  <property name="aspect_ratio">1</property>
  <property name="format">3</property>
  <property name="kdenlive:clipname"/>
  <property name="kdenlive:clip_type">0</property>
  <property name="kdenlive:folderid">31</property>
  <property name="kdenlive:id">10</property>
  <property name="kdenlive:file_size">156453412</property>
  <property name="kdenlive:file_hash">ea3e928635eee5f7eccd0f6ee2fb6f3a</property>
  <property name="meta.media.frame_rate_num">30</property>
  <property name="meta.media.frame_rate_den">1</property>
  <property name="meta.media.colorspace">709</property>
  <property name="meta.media.color_trc">1</property>
  <property name="meta.media.has_b_frames">0</property>
  <property name="meta.media.width">800</property>
  <property name="meta.media.height">600</property>
  <property name="meta.media.color_range">mpeg</property>
  <property name="meta.media.top_field_first">0</property>
  <property name="meta.media.progressive">1</property>
  <property name="kdenlive:audio_max1">1</property>
 </producer>
 <producer id="producer9" in="00:00:00.000" out="00:14:21.900">
  <property name="length">25858</property>
  <property name="eof">pause</property>
  <property name="resource">clips/04.1 example garden acre audio.mkv</property>
  <property name="audio_index">1</property>
  <property name="video_index">0</property>
  <property name="mute_on_pause">0</property>
  <property name="mlt_service">avformat-novalidate</property>
  <property name="meta.media.nb_streams">2</property>
  <property name="meta.media.0.stream.type">video</property>
  <property name="meta.media.0.stream.frame_rate">30</property>
  <property name="meta.media.0.stream.sample_aspect_ratio">0</property>
  <property name="meta.media.0.codec.width">1280</property>
  <property name="meta.media.0.codec.height">720</property>
  <property name="meta.media.0.codec.rotate">0</property>
  <property name="meta.media.0.codec.pix_fmt">yuv420p</property>
  <property name="meta.media.0.codec.sample_aspect_ratio">1</property>
  <property name="meta.media.0.codec.colorspace">709</property>
  <property name="meta.media.0.codec.color_trc">1</property>
  <property name="meta.media.0.codec.name">h264</property>
  <property name="meta.media.0.codec.long_name">H.264 / AVC / MPEG-4 AVC / MPEG-4 part 10</property>
  <property name="meta.media.0.codec.bit_rate">0</property>
  <property name="meta.attr.0.stream.DURATION.markup">00:14:21.933000000</property>
  <property name="meta.media.1.stream.type">audio</property>
  <property name="meta.media.1.codec.sample_fmt">fltp</property>
  <property name="meta.media.1.codec.sample_rate">48000</property>
  <property name="meta.media.1.codec.channels">2</property>
  <property name="meta.media.1.codec.name">aac</property>
  <property name="meta.media.1.codec.long_name">AAC (Advanced Audio Coding)</property>
  <property name="meta.media.1.codec.bit_rate">0</property>
  <property name="meta.attr.1.stream.title.markup">Track1</property>
  <property name="meta.attr.1.stream.DURATION.markup">00:14:21.802000000</property>
  <property name="meta.attr.ENCODER.markup">Lavf58.76.100</property>
  <property name="seekable">1</property>
  <property name="meta.media.sample_aspect_num">1</property>
  <property name="meta.media.sample_aspect_den">1</property>
  <property name="aspect_ratio">1</property>
  <property name="format">3</property>
  <property name="kdenlive:clipname"/>
  <property name="kdenlive:clip_type">0</property>
  <property name="kdenlive:folderid">31</property>
  <property name="kdenlive:id">11</property>
  <property name="kdenlive:file_size">287055648</property>
  <property name="kdenlive:file_hash">ead8c19ddf4d7ef6f6e1d421a7606b2a</property>
  <property name="meta.media.frame_rate_num">30</property>
  <property name="meta.media.frame_rate_den">1</property>
  <property name="meta.media.colorspace">709</property>
  <property name="meta.media.color_trc">1</property>
  <property name="meta.media.has_b_frames">2</property>
  <property name="meta.media.width">1280</property>
  <property name="meta.media.height">720</property>
  <property name="meta.media.color_range">mpeg</property>
  <property name="meta.media.top_field_first">0</property>
  <property name="meta.media.progressive">1</property>
  <property name="kdenlive:audio_max1">236</property>
 </producer>
 <producer id="producer11" in="00:00:00.000" out="00:14:22.033">
  <property name="length">25862</property>
  <property name="eof">pause</property>
  <property name="resource">clips/04.1 example garden acre Desktop.mkv</property>
  <property name="audio_index">1</property>
  <property name="video_index">0</property>
  <property name="mute_on_pause">0</property>
  <property name="mlt_service">avformat-novalidate</property>
  <property name="meta.media.nb_streams">2</property>
  <property name="meta.media.0.stream.type">video</property>
  <property name="meta.media.0.stream.frame_rate">30</property>
  <property name="meta.media.0.stream.sample_aspect_ratio">0</property>
  <property name="meta.media.0.codec.width">1920</property>
  <property name="meta.media.0.codec.height">1080</property>
  <property name="meta.media.0.codec.rotate">0</property>
  <property name="meta.media.0.codec.pix_fmt">yuv420p</property>
  <property name="meta.media.0.codec.sample_aspect_ratio">1</property>
  <property name="meta.media.0.codec.colorspace">709</property>
  <property name="meta.media.0.codec.color_trc">1</property>
  <property name="meta.media.0.codec.name">h264</property>
  <property name="meta.media.0.codec.long_name">H.264 / AVC / MPEG-4 AVC / MPEG-4 part 10</property>
  <property name="meta.media.0.codec.bit_rate">0</property>
  <property name="meta.attr.0.stream.DURATION.markup">00:14:22.066000000</property>
  <property name="meta.media.1.stream.type">audio</property>
  <property name="meta.media.1.codec.sample_fmt">fltp</property>
  <property name="meta.media.1.codec.sample_rate">48000</property>
  <property name="meta.media.1.codec.channels">2</property>
  <property name="meta.media.1.codec.name">aac</property>
  <property name="meta.media.1.codec.long_name">AAC (Advanced Audio Coding)</property>
  <property name="meta.media.1.codec.bit_rate">0</property>
  <property name="meta.attr.1.stream.title.markup">Source Record</property>
  <property name="meta.attr.1.stream.DURATION.markup">00:14:22.080000000</property>
  <property name="meta.attr.ENCODER.markup">Lavf58.76.100</property>
  <property name="seekable">1</property>
  <property name="meta.media.sample_aspect_num">1</property>
  <property name="meta.media.sample_aspect_den">1</property>
  <property name="aspect_ratio">1</property>
  <property name="format">3</property>
  <property name="kdenlive:clipname"/>
  <property name="kdenlive:clip_type">0</property>
  <property name="kdenlive:folderid">31</property>
  <property name="kdenlive:id">12</property>
  <property name="kdenlive:file_size">270056992</property>
  <property name="kdenlive:file_hash">1d05c73120af17cfb84ce7a970247940</property>
  <property name="meta.media.frame_rate_num">30</property>
  <property name="meta.media.frame_rate_den">1</property>
  <property name="meta.media.colorspace">709</property>
  <property name="meta.media.color_trc">1</property>
  <property name="meta.media.has_b_frames">0</property>
  <property name="meta.media.width">1920</property>
  <property name="meta.media.height">1080</property>
  <property name="meta.media.color_range">mpeg</property>
  <property name="meta.media.top_field_first">0</property>
  <property name="meta.media.progressive">1</property>
  <property name="kdenlive:audio_max1">1</property>
 </producer>
 <producer id="producer10" in="00:00:00.000" out="00:14:22.433">
  <property name="length">25874</property>
  <property name="eof">pause</property>
  <property name="resource">clips/04.1 example garden acre facecam.mkv</property>
  <property name="audio_index">1</property>
  <property name="video_index">0</property>
  <property name="mute_on_pause">0</property>
  <property name="mlt_service">avformat-novalidate</property>
  <property name="meta.media.nb_streams">2</property>
  <property name="meta.media.0.stream.type">video</property>
  <property name="meta.media.0.stream.frame_rate">30</property>
  <property name="meta.media.0.stream.sample_aspect_ratio">0</property>
  <property name="meta.media.0.codec.width">800</property>
  <property name="meta.media.0.codec.height">600</property>
  <property name="meta.media.0.codec.rotate">0</property>
  <property name="meta.media.0.codec.pix_fmt">yuv420p</property>
  <property name="meta.media.0.codec.sample_aspect_ratio">1</property>
  <property name="meta.media.0.codec.colorspace">709</property>
  <property name="meta.media.0.codec.color_trc">1</property>
  <property name="meta.media.0.codec.name">h264</property>
  <property name="meta.media.0.codec.long_name">H.264 / AVC / MPEG-4 AVC / MPEG-4 part 10</property>
  <property name="meta.media.0.codec.bit_rate">0</property>
  <property name="meta.attr.0.stream.DURATION.markup">00:14:22.466000000</property>
  <property name="meta.media.1.stream.type">audio</property>
  <property name="meta.media.1.codec.sample_fmt">fltp</property>
  <property name="meta.media.1.codec.sample_rate">48000</property>
  <property name="meta.media.1.codec.channels">2</property>
  <property name="meta.media.1.codec.name">aac</property>
  <property name="meta.media.1.codec.long_name">AAC (Advanced Audio Coding)</property>
  <property name="meta.media.1.codec.bit_rate">0</property>
  <property name="meta.attr.1.stream.title.markup">Source Record</property>
  <property name="meta.attr.1.stream.DURATION.markup">00:14:22.464000000</property>
  <property name="meta.attr.ENCODER.markup">Lavf58.76.100</property>
  <property name="seekable">1</property>
  <property name="meta.media.sample_aspect_num">1</property>
  <property name="meta.media.sample_aspect_den">1</property>
  <property name="aspect_ratio">1</property>
  <property name="format">3</property>
  <property name="kdenlive:clipname"/>
  <property name="kdenlive:clip_type">0</property>
  <property name="kdenlive:folderid">31</property>
  <property name="kdenlive:id">13</property>
  <property name="kdenlive:file_size">270253548</property>
  <property name="kdenlive:file_hash">d995768142b8abbb24d96881d62c8bd0</property>
  <property name="meta.media.frame_rate_num">30</property>
  <property name="meta.media.frame_rate_den">1</property>
  <property name="meta.media.colorspace">709</property>
  <property name="meta.media.color_trc">1</property>
  <property name="meta.media.has_b_frames">0</property>
  <property name="meta.media.width">800</property>
  <property name="meta.media.height">600</property>
  <property name="meta.media.color_range">mpeg</property>
  <property name="meta.media.top_field_first">0</property>
  <property name="meta.media.progressive">1</property>
  <property name="kdenlive:audio_max1">1</property>
 </producer>
 <producer id="producer12" in="00:00:00.000" out="00:10:10.967">
  <property name="length">18330</property>
  <property name="eof">pause</property>
  <property name="resource">clips/04.2 example garden town audio.mkv</property>
  <property name="audio_index">1</property>
  <property name="video_index">0</property>
  <property name="mute_on_pause">0</property>
  <property name="mlt_service">avformat-novalidate</property>
  <property name="meta.media.nb_streams">2</property>
  <property name="meta.media.0.stream.type">video</property>
  <property name="meta.media.0.stream.frame_rate">30</property>
  <property name="meta.media.0.stream.sample_aspect_ratio">0</property>
  <property name="meta.media.0.codec.width">1280</property>
  <property name="meta.media.0.codec.height">720</property>
  <property name="meta.media.0.codec.rotate">0</property>
  <property name="meta.media.0.codec.pix_fmt">yuv420p</property>
  <property name="meta.media.0.codec.sample_aspect_ratio">1</property>
  <property name="meta.media.0.codec.colorspace">709</property>
  <property name="meta.media.0.codec.color_trc">1</property>
  <property name="meta.media.0.codec.name">h264</property>
  <property name="meta.media.0.codec.long_name">H.264 / AVC / MPEG-4 AVC / MPEG-4 part 10</property>
  <property name="meta.media.0.codec.bit_rate">0</property>
  <property name="meta.attr.0.stream.DURATION.markup">00:10:11.000000000</property>
  <property name="meta.media.1.stream.type">audio</property>
  <property name="meta.media.1.codec.sample_fmt">fltp</property>
  <property name="meta.media.1.codec.sample_rate">48000</property>
  <property name="meta.media.1.codec.channels">2</property>
  <property name="meta.media.1.codec.name">aac</property>
  <property name="meta.media.1.codec.long_name">AAC (Advanced Audio Coding)</property>
  <property name="meta.media.1.codec.bit_rate">0</property>
  <property name="meta.attr.1.stream.title.markup">Track1</property>
  <property name="meta.attr.1.stream.DURATION.markup">00:10:10.944000000</property>
  <property name="meta.attr.ENCODER.markup">Lavf58.76.100</property>
  <property name="seekable">1</property>
  <property name="meta.media.sample_aspect_num">1</property>
  <property name="meta.media.sample_aspect_den">1</property>
  <property name="aspect_ratio">1</property>
  <property name="format">3</property>
  <property name="kdenlive:clipname"/>
  <property name="kdenlive:clip_type">0</property>
  <property name="kdenlive:folderid">31</property>
  <property name="kdenlive:id">14</property>
  <property name="kdenlive:file_size">203563039</property>
  <property name="kdenlive:file_hash">fb7491cb2e24e46be72e358a485ba419</property>
  <property name="meta.media.frame_rate_num">30</property>
  <property name="meta.media.frame_rate_den">1</property>
  <property name="meta.media.colorspace">709</property>
  <property name="meta.media.color_trc">1</property>
  <property name="meta.media.has_b_frames">2</property>
  <property name="meta.media.width">1280</property>
  <property name="meta.media.height">720</property>
  <property name="meta.media.color_range">mpeg</property>
  <property name="meta.media.top_field_first">0</property>
  <property name="meta.media.progressive">1</property>
  <property name="kdenlive:audio_max1">193</property>
 </producer>
 <producer id="producer14" in="00:00:00.000" out="00:10:03.700">
  <property name="length">18112</property>
  <property name="eof">pause</property>
  <property name="resource">clips/04.2 example garden town Desktop.mkv</property>
  <property name="audio_index">1</property>
  <property name="video_index">0</property>
  <property name="mute_on_pause">0</property>
  <property name="mlt_service">avformat-novalidate</property>
  <property name="meta.media.nb_streams">2</property>
  <property name="meta.media.0.stream.type">video</property>
  <property name="meta.media.0.stream.frame_rate">30</property>
  <property name="meta.media.0.stream.sample_aspect_ratio">0</property>
  <property name="meta.media.0.codec.width">1920</property>
  <property name="meta.media.0.codec.height">1080</property>
  <property name="meta.media.0.codec.rotate">0</property>
  <property name="meta.media.0.codec.pix_fmt">yuv420p</property>
  <property name="meta.media.0.codec.sample_aspect_ratio">1</property>
  <property name="meta.media.0.codec.colorspace">709</property>
  <property name="meta.media.0.codec.color_trc">1</property>
  <property name="meta.media.0.codec.name">h264</property>
  <property name="meta.media.0.codec.long_name">H.264 / AVC / MPEG-4 AVC / MPEG-4 part 10</property>
  <property name="meta.media.0.codec.bit_rate">0</property>
  <property name="meta.attr.0.stream.DURATION.markup">00:10:03.733000000</property>
  <property name="meta.media.1.stream.type">audio</property>
  <property name="meta.media.1.codec.sample_fmt">fltp</property>
  <property name="meta.media.1.codec.sample_rate">48000</property>
  <property name="meta.media.1.codec.channels">2</property>
  <property name="meta.media.1.codec.name">aac</property>
  <property name="meta.media.1.codec.long_name">AAC (Advanced Audio Coding)</property>
  <property name="meta.media.1.codec.bit_rate">0</property>
  <property name="meta.attr.1.stream.title.markup">Source Record</property>
  <property name="meta.attr.1.stream.DURATION.markup">00:10:03.712000000</property>
  <property name="meta.attr.ENCODER.markup">Lavf58.76.100</property>
  <property name="seekable">1</property>
  <property name="meta.media.sample_aspect_num">1</property>
  <property name="meta.media.sample_aspect_den">1</property>
  <property name="aspect_ratio">1</property>
  <property name="format">3</property>
  <property name="kdenlive:clipname"/>
  <property name="kdenlive:clip_type">0</property>
  <property name="kdenlive:folderid">31</property>
  <property name="kdenlive:id">15</property>
  <property name="kdenlive:file_size">189121920</property>
  <property name="kdenlive:file_hash">e6c0e0364bd352fa9c71f10c825b8cc6</property>
  <property name="meta.media.frame_rate_num">30</property>
  <property name="meta.media.frame_rate_den">1</property>
  <property name="meta.media.colorspace">709</property>
  <property name="meta.media.color_trc">1</property>
  <property name="meta.media.has_b_frames">0</property>
  <property name="meta.media.width">1920</property>
  <property name="meta.media.height">1080</property>
  <property name="meta.media.color_range">mpeg</property>
  <property name="meta.media.top_field_first">0</property>
  <property name="meta.media.progressive">1</property>
  <property name="kdenlive:audio_max1">1</property>
 </producer>
 <producer id="producer13" in="00:00:00.000" out="00:10:14.800">
  <property name="length">18445</property>
  <property name="eof">pause</property>
  <property name="resource">clips/04.2 example garden town facecam.mkv</property>
  <property name="audio_index">1</property>
  <property name="video_index">0</property>
  <property name="mute_on_pause">0</property>
  <property name="mlt_service">avformat-novalidate</property>
  <property name="meta.media.nb_streams">2</property>
  <property name="meta.media.0.stream.type">video</property>
  <property name="meta.media.0.stream.frame_rate">30</property>
  <property name="meta.media.0.stream.sample_aspect_ratio">0</property>
  <property name="meta.media.0.codec.width">800</property>
  <property name="meta.media.0.codec.height">600</property>
  <property name="meta.media.0.codec.rotate">0</property>
  <property name="meta.media.0.codec.pix_fmt">yuv420p</property>
  <property name="meta.media.0.codec.sample_aspect_ratio">1</property>
  <property name="meta.media.0.codec.colorspace">709</property>
  <property name="meta.media.0.codec.color_trc">1</property>
  <property name="meta.media.0.codec.name">h264</property>
  <property name="meta.media.0.codec.long_name">H.264 / AVC / MPEG-4 AVC / MPEG-4 part 10</property>
  <property name="meta.media.0.codec.bit_rate">0</property>
  <property name="meta.attr.0.stream.DURATION.markup">00:10:14.833000000</property>
  <property name="meta.media.1.stream.type">audio</property>
  <property name="meta.media.1.codec.sample_fmt">fltp</property>
  <property name="meta.media.1.codec.sample_rate">48000</property>
  <property name="meta.media.1.codec.channels">2</property>
  <property name="meta.media.1.codec.name">aac</property>
  <property name="meta.media.1.codec.long_name">AAC (Advanced Audio Coding)</property>
  <property name="meta.media.1.codec.bit_rate">0</property>
  <property name="meta.attr.1.stream.title.markup">Source Record</property>
  <property name="meta.attr.1.stream.DURATION.markup">00:10:14.826000000</property>
  <property name="meta.attr.ENCODER.markup">Lavf58.76.100</property>
  <property name="seekable">1</property>
  <property name="meta.media.sample_aspect_num">1</property>
  <property name="meta.media.sample_aspect_den">1</property>
  <property name="aspect_ratio">1</property>
  <property name="format">3</property>
  <property name="kdenlive:clipname"/>
  <property name="kdenlive:clip_type">0</property>
  <property name="kdenlive:folderid">31</property>
  <property name="kdenlive:id">16</property>
  <property name="kdenlive:file_size">192633513</property>
  <property name="kdenlive:file_hash">03e9fe36e8077ff4675bf84992bd03bc</property>
  <property name="meta.media.frame_rate_num">30</property>
  <property name="meta.media.frame_rate_den">1</property>
  <property name="meta.media.colorspace">709</property>
  <property name="meta.media.color_trc">1</property>
  <property name="meta.media.has_b_frames">0</property>
  <property name="meta.media.width">800</property>
  <property name="meta.media.height">600</property>
  <property name="meta.media.color_range">mpeg</property>
  <property name="meta.media.top_field_first">0</property>
  <property name="meta.media.progressive">1</property>
  <property name="kdenlive:audio_max1">1</property>
 </producer>
 <producer id="producer16" in="00:00:00.000" out="00:33:34.467">
  <property name="length">60435</property>
  <property name="eof">pause</property>
  <property name="resource">clips/03.0 Shapes audio.mkv</property>
  <property name="audio_index">1</property>
  <property name="video_index">0</property>
  <property name="mute_on_pause">0</property>
  <property name="mlt_service">avformat-novalidate</property>
  <property name="meta.media.nb_streams">2</property>
  <property name="meta.media.0.stream.type">video</property>
  <property name="meta.media.0.stream.frame_rate">30</property>
  <property name="meta.media.0.stream.sample_aspect_ratio">0</property>
  <property name="meta.media.0.codec.width">1280</property>
  <property name="meta.media.0.codec.height">720</property>
  <property name="meta.media.0.codec.rotate">0</property>
  <property name="meta.media.0.codec.pix_fmt">yuv420p</property>
  <property name="meta.media.0.codec.sample_aspect_ratio">1</property>
  <property name="meta.media.0.codec.colorspace">709</property>
  <property name="meta.media.0.codec.color_trc">1</property>
  <property name="meta.media.0.codec.name">h264</property>
  <property name="meta.media.0.codec.long_name">H.264 / AVC / MPEG-4 AVC / MPEG-4 part 10</property>
  <property name="meta.media.0.codec.bit_rate">0</property>
  <property name="meta.attr.0.stream.DURATION.markup">00:33:34.500000000</property>
  <property name="meta.media.1.stream.type">audio</property>
  <property name="meta.media.1.codec.sample_fmt">fltp</property>
  <property name="meta.media.1.codec.sample_rate">48000</property>
  <property name="meta.media.1.codec.channels">2</property>
  <property name="meta.media.1.codec.name">aac</property>
  <property name="meta.media.1.codec.long_name">AAC (Advanced Audio Coding)</property>
  <property name="meta.media.1.codec.bit_rate">0</property>
  <property name="meta.attr.1.stream.title.markup">Track1</property>
  <property name="meta.attr.1.stream.DURATION.markup">00:33:34.442000000</property>
  <property name="meta.attr.ENCODER.markup">Lavf58.76.100</property>
  <property name="seekable">1</property>
  <property name="meta.media.sample_aspect_num">1</property>
  <property name="meta.media.sample_aspect_den">1</property>
  <property name="aspect_ratio">1</property>
  <property name="format">3</property>
  <property name="kdenlive:clipname"/>
  <property name="meta.media.frame_rate_num">30</property>
  <property name="meta.media.frame_rate_den">1</property>
  <property name="meta.media.colorspace">709</property>
  <property name="meta.media.color_trc">1</property>
  <property name="meta.media.has_b_frames">2</property>
  <property name="meta.media.width">1280</property>
  <property name="meta.media.height">720</property>
  <property name="meta.media.color_range">mpeg</property>
  <property name="meta.media.top_field_first">0</property>
  <property name="meta.media.progressive">1</property>
  <property name="kdenlive:clip_type">0</property>
  <property name="kdenlive:folderid">30</property>
  <property name="kdenlive:id">17</property>
  <property name="kdenlive:file_size">670937459</property>
  <property name="kdenlive:file_hash">9232b3e4eaabc82f43fd1c7f483307b0</property>
  <property name="kdenlive:audio_max1">213</property>
 </producer>
 <producer id="producer15" in="00:00:00.000" out="00:33:34.267">
  <property name="length">60429</property>
  <property name="eof">pause</property>
  <property name="resource">clips/03.0 Shapes desktop.mkv</property>
  <property name="audio_index">1</property>
  <property name="video_index">0</property>
  <property name="mute_on_pause">0</property>
  <property name="mlt_service">avformat-novalidate</property>
  <property name="meta.media.nb_streams">2</property>
  <property name="meta.media.0.stream.type">video</property>
  <property name="meta.media.0.stream.frame_rate">30</property>
  <property name="meta.media.0.stream.sample_aspect_ratio">0</property>
  <property name="meta.media.0.codec.width">1920</property>
  <property name="meta.media.0.codec.height">1080</property>
  <property name="meta.media.0.codec.rotate">0</property>
  <property name="meta.media.0.codec.pix_fmt">yuv420p</property>
  <property name="meta.media.0.codec.sample_aspect_ratio">1</property>
  <property name="meta.media.0.codec.colorspace">709</property>
  <property name="meta.media.0.codec.color_trc">1</property>
  <property name="meta.media.0.codec.name">h264</property>
  <property name="meta.media.0.codec.long_name">H.264 / AVC / MPEG-4 AVC / MPEG-4 part 10</property>
  <property name="meta.media.0.codec.bit_rate">0</property>
  <property name="meta.attr.0.stream.DURATION.markup">00:33:34.300000000</property>
  <property name="meta.media.1.stream.type">audio</property>
  <property name="meta.media.1.codec.sample_fmt">fltp</property>
  <property name="meta.media.1.codec.sample_rate">48000</property>
  <property name="meta.media.1.codec.channels">2</property>
  <property name="meta.media.1.codec.name">aac</property>
  <property name="meta.media.1.codec.long_name">AAC (Advanced Audio Coding)</property>
  <property name="meta.media.1.codec.bit_rate">0</property>
  <property name="meta.attr.1.stream.title.markup">Source Record</property>
  <property name="meta.attr.1.stream.DURATION.markup">00:33:34.272000000</property>
  <property name="meta.attr.ENCODER.markup">Lavf58.76.100</property>
  <property name="seekable">1</property>
  <property name="meta.media.sample_aspect_num">1</property>
  <property name="meta.media.sample_aspect_den">1</property>
  <property name="aspect_ratio">1</property>
  <property name="format">3</property>
  <property name="kdenlive:clipname"/>
  <property name="meta.media.frame_rate_num">30</property>
  <property name="meta.media.frame_rate_den">1</property>
  <property name="meta.media.colorspace">709</property>
  <property name="meta.media.color_trc">1</property>
  <property name="meta.media.has_b_frames">0</property>
  <property name="meta.media.width">1920</property>
  <property name="meta.media.height">1080</property>
  <property name="meta.media.color_range">mpeg</property>
  <property name="meta.media.top_field_first">0</property>
  <property name="meta.media.progressive">1</property>
  <property name="kdenlive:clip_type">0</property>
  <property name="kdenlive:folderid">30</property>
  <property name="kdenlive:id">18</property>
  <property name="kdenlive:file_size">631060129</property>
  <property name="kdenlive:file_hash">46c791aa4c2d40544ab5874183465931</property>
  <property name="kdenlive:audio_max1">0</property>
 </producer>
 <producer id="producer17" in="00:00:00.000" out="00:33:35.200">
  <property name="length">60457</property>
  <property name="eof">pause</property>
  <property name="resource">clips/03.0 Shapes facecam.mkv</property>
  <property name="audio_index">1</property>
  <property name="video_index">0</property>
  <property name="mute_on_pause">0</property>
  <property name="mlt_service">avformat-novalidate</property>
  <property name="meta.media.nb_streams">2</property>
  <property name="meta.media.0.stream.type">video</property>
  <property name="meta.media.0.stream.frame_rate">30</property>
  <property name="meta.media.0.stream.sample_aspect_ratio">0</property>
  <property name="meta.media.0.codec.width">800</property>
  <property name="meta.media.0.codec.height">600</property>
  <property name="meta.media.0.codec.rotate">0</property>
  <property name="meta.media.0.codec.pix_fmt">yuv420p</property>
  <property name="meta.media.0.codec.sample_aspect_ratio">1</property>
  <property name="meta.media.0.codec.colorspace">709</property>
  <property name="meta.media.0.codec.color_trc">1</property>
  <property name="meta.media.0.codec.name">h264</property>
  <property name="meta.media.0.codec.long_name">H.264 / AVC / MPEG-4 AVC / MPEG-4 part 10</property>
  <property name="meta.media.0.codec.bit_rate">0</property>
  <property name="meta.attr.0.stream.DURATION.markup">00:33:35.233000000</property>
  <property name="meta.media.1.stream.type">audio</property>
  <property name="meta.media.1.codec.sample_fmt">fltp</property>
  <property name="meta.media.1.codec.sample_rate">48000</property>
  <property name="meta.media.1.codec.channels">2</property>
  <property name="meta.media.1.codec.name">aac</property>
  <property name="meta.media.1.codec.long_name">AAC (Advanced Audio Coding)</property>
  <property name="meta.media.1.codec.bit_rate">0</property>
  <property name="meta.attr.1.stream.title.markup">Source Record</property>
  <property name="meta.attr.1.stream.DURATION.markup">00:33:35.232000000</property>
  <property name="meta.attr.ENCODER.markup">Lavf58.76.100</property>
  <property name="seekable">1</property>
  <property name="meta.media.sample_aspect_num">1</property>
  <property name="meta.media.sample_aspect_den">1</property>
  <property name="aspect_ratio">1</property>
  <property name="format">3</property>
  <property name="kdenlive:clipname"/>
  <property name="meta.media.frame_rate_num">30</property>
  <property name="meta.media.frame_rate_den">1</property>
  <property name="meta.media.colorspace">709</property>
  <property name="meta.media.color_trc">1</property>
  <property name="meta.media.has_b_frames">0</property>
  <property name="meta.media.width">800</property>
  <property name="meta.media.height">600</property>
  <property name="meta.media.color_range">mpeg</property>
  <property name="meta.media.top_field_first">0</property>
  <property name="meta.media.progressive">1</property>
  <property name="kdenlive:clip_type">0</property>
  <property name="kdenlive:folderid">30</property>
  <property name="kdenlive:id">19</property>
  <property name="kdenlive:file_size">631355807</property>
  <property name="kdenlive:file_hash">305fc04fbc6ef869af9bfe4f9efc5c98</property>
  <property name="kdenlive:audio_max1">0</property>
 </producer>
 <producer id="producer19" in="00:00:00.000" out="00:00:05.433">
  <property name="length">164</property>
  <property name="eof">pause</property>
  <property name="resource">clips/03.01 Shapes audio extra.mkv</property>
  <property name="audio_index">1</property>
  <property name="video_index">0</property>
  <property name="mute_on_pause">0</property>
  <property name="mlt_service">avformat-novalidate</property>
  <property name="meta.media.nb_streams">2</property>
  <property name="meta.media.0.stream.type">video</property>
  <property name="meta.media.0.stream.frame_rate">30</property>
  <property name="meta.media.0.stream.sample_aspect_ratio">0</property>
  <property name="meta.media.0.codec.width">1280</property>
  <property name="meta.media.0.codec.height">720</property>
  <property name="meta.media.0.codec.rotate">0</property>
  <property name="meta.media.0.codec.pix_fmt">yuv420p</property>
  <property name="meta.media.0.codec.sample_aspect_ratio">1</property>
  <property name="meta.media.0.codec.colorspace">709</property>
  <property name="meta.media.0.codec.color_trc">1</property>
  <property name="meta.media.0.codec.name">h264</property>
  <property name="meta.media.0.codec.long_name">H.264 / AVC / MPEG-4 AVC / MPEG-4 part 10</property>
  <property name="meta.media.0.codec.bit_rate">0</property>
  <property name="meta.attr.0.stream.DURATION.markup">00:00:05.466000000</property>
  <property name="meta.media.1.stream.type">audio</property>
  <property name="meta.media.1.codec.sample_fmt">fltp</property>
  <property name="meta.media.1.codec.sample_rate">48000</property>
  <property name="meta.media.1.codec.channels">2</property>
  <property name="meta.media.1.codec.name">aac</property>
  <property name="meta.media.1.codec.long_name">AAC (Advanced Audio Coding)</property>
  <property name="meta.media.1.codec.bit_rate">0</property>
  <property name="meta.attr.1.stream.title.markup">Track1</property>
  <property name="meta.attr.1.stream.DURATION.markup">00:00:05.312000000</property>
  <property name="meta.attr.ENCODER.markup">Lavf58.76.100</property>
  <property name="seekable">1</property>
  <property name="meta.media.sample_aspect_num">1</property>
  <property name="meta.media.sample_aspect_den">1</property>
  <property name="aspect_ratio">1</property>
  <property name="format">3</property>
  <property name="kdenlive:clipname"/>
  <property name="meta.media.frame_rate_num">30</property>
  <property name="meta.media.frame_rate_den">1</property>
  <property name="meta.media.colorspace">709</property>
  <property name="meta.media.color_trc">1</property>
  <property name="meta.media.has_b_frames">2</property>
  <property name="meta.media.width">1280</property>
  <property name="meta.media.height">720</property>
  <property name="meta.media.color_range">mpeg</property>
  <property name="meta.media.top_field_first">0</property>
  <property name="meta.media.progressive">1</property>
  <property name="kdenlive:clip_type">0</property>
  <property name="kdenlive:folderid">30</property>
  <property name="kdenlive:id">20</property>
  <property name="kdenlive:file_size">1861495</property>
  <property name="kdenlive:file_hash">bc05027cfcca9c5434027137f8b130e1</property>
  <property name="kdenlive:audio_max1">143</property>
 </producer>
 <producer id="producer20" in="00:00:00.000" out="00:00:05.800">
  <property name="length">175</property>
  <property name="eof">pause</property>
  <property name="resource">clips/03.01 Shapes desktop extra.mkv</property>
  <property name="audio_index">1</property>
  <property name="video_index">0</property>
  <property name="mute_on_pause">0</property>
  <property name="mlt_service">avformat-novalidate</property>
  <property name="meta.media.nb_streams">2</property>
  <property name="meta.media.0.stream.type">video</property>
  <property name="meta.media.0.stream.frame_rate">30</property>
  <property name="meta.media.0.stream.sample_aspect_ratio">0</property>
  <property name="meta.media.0.codec.width">1920</property>
  <property name="meta.media.0.codec.height">1080</property>
  <property name="meta.media.0.codec.rotate">0</property>
  <property name="meta.media.0.codec.pix_fmt">yuv420p</property>
  <property name="meta.media.0.codec.sample_aspect_ratio">1</property>
  <property name="meta.media.0.codec.colorspace">709</property>
  <property name="meta.media.0.codec.color_trc">1</property>
  <property name="meta.media.0.codec.name">h264</property>
  <property name="meta.media.0.codec.long_name">H.264 / AVC / MPEG-4 AVC / MPEG-4 part 10</property>
  <property name="meta.media.0.codec.bit_rate">0</property>
  <property name="meta.attr.0.stream.DURATION.markup">00:00:05.833000000</property>
  <property name="meta.media.1.stream.type">audio</property>
  <property name="meta.media.1.codec.sample_fmt">fltp</property>
  <property name="meta.media.1.codec.sample_rate">48000</property>
  <property name="meta.media.1.codec.channels">2</property>
  <property name="meta.media.1.codec.name">aac</property>
  <property name="meta.media.1.codec.long_name">AAC (Advanced Audio Coding)</property>
  <property name="meta.media.1.codec.bit_rate">0</property>
  <property name="meta.attr.1.stream.title.markup">Source Record</property>
  <property name="meta.attr.1.stream.DURATION.markup">00:00:05.845000000</property>
  <property name="meta.attr.ENCODER.markup">Lavf58.76.100</property>
  <property name="seekable">1</property>
  <property name="meta.media.sample_aspect_num">1</property>
  <property name="meta.media.sample_aspect_den">1</property>
  <property name="aspect_ratio">1</property>
  <property name="format">3</property>
  <property name="kdenlive:clipname"/>
  <property name="meta.media.frame_rate_num">30</property>
  <property name="meta.media.frame_rate_den">1</property>
  <property name="meta.media.colorspace">709</property>
  <property name="meta.media.color_trc">1</property>
  <property name="meta.media.has_b_frames">0</property>
  <property name="meta.media.width">1920</property>
  <property name="meta.media.height">1080</property>
  <property name="meta.media.color_range">mpeg</property>
  <property name="meta.media.top_field_first">0</property>
  <property name="meta.media.progressive">1</property>
  <property name="kdenlive:clip_type">0</property>
  <property name="kdenlive:folderid">30</property>
  <property name="kdenlive:id">21</property>
  <property name="kdenlive:file_size">1797830</property>
  <property name="kdenlive:file_hash">453af191ee2139bf5d339b3506e11e00</property>
 </producer>
 <producer id="producer18" in="00:00:00.000" out="00:00:05.833">
  <property name="length">176</property>
  <property name="eof">pause</property>
  <property name="resource">clips/03.01 Shapes facecam extra.mkv</property>
  <property name="audio_index">1</property>
  <property name="video_index">0</property>
  <property name="mute_on_pause">0</property>
  <property name="mlt_service">avformat-novalidate</property>
  <property name="meta.media.nb_streams">2</property>
  <property name="meta.media.0.stream.type">video</property>
  <property name="meta.media.0.stream.frame_rate">30</property>
  <property name="meta.media.0.stream.sample_aspect_ratio">0</property>
  <property name="meta.media.0.codec.width">800</property>
  <property name="meta.media.0.codec.height">600</property>
  <property name="meta.media.0.codec.rotate">0</property>
  <property name="meta.media.0.codec.pix_fmt">yuv420p</property>
  <property name="meta.media.0.codec.sample_aspect_ratio">1</property>
  <property name="meta.media.0.codec.colorspace">709</property>
  <property name="meta.media.0.codec.color_trc">1</property>
  <property name="meta.media.0.codec.name">h264</property>
  <property name="meta.media.0.codec.long_name">H.264 / AVC / MPEG-4 AVC / MPEG-4 part 10</property>
  <property name="meta.media.0.codec.bit_rate">0</property>
  <property name="meta.attr.0.stream.DURATION.markup">00:00:05.866000000</property>
  <property name="meta.media.1.stream.type">audio</property>
  <property name="meta.media.1.codec.sample_fmt">fltp</property>
  <property name="meta.media.1.codec.sample_rate">48000</property>
  <property name="meta.media.1.codec.channels">2</property>
  <property name="meta.media.1.codec.name">aac</property>
  <property name="meta.media.1.codec.long_name">AAC (Advanced Audio Coding)</property>
  <property name="meta.media.1.codec.bit_rate">0</property>
  <property name="meta.attr.1.stream.title.markup">Source Record</property>
  <property name="meta.attr.1.stream.DURATION.markup">00:00:05.845000000</property>
  <property name="meta.attr.ENCODER.markup">Lavf58.76.100</property>
  <property name="seekable">1</property>
  <property name="meta.media.sample_aspect_num">1</property>
  <property name="meta.media.sample_aspect_den">1</property>
  <property name="aspect_ratio">1</property>
  <property name="format">3</property>
  <property name="kdenlive:clipname"/>
  <property name="meta.media.frame_rate_num">30</property>
  <property name="meta.media.frame_rate_den">1</property>
  <property name="meta.media.colorspace">709</property>
  <property name="meta.media.color_trc">1</property>
  <property name="meta.media.has_b_frames">0</property>
  <property name="meta.media.width">800</property>
  <property name="meta.media.height">600</property>
  <property name="meta.media.color_range">mpeg</property>
  <property name="meta.media.top_field_first">0</property>
  <property name="meta.media.progressive">1</property>
  <property name="kdenlive:clip_type">0</property>
  <property name="kdenlive:folderid">30</property>
  <property name="kdenlive:id">22</property>
  <property name="kdenlive:file_size">1950523</property>
  <property name="kdenlive:file_hash">501fa068ff659288ed757df09494db85</property>
  <property name="kdenlive:audio_max1">0</property>
 </producer>
 <producer id="producer21" in="00:00:00.000" out="00:00:04.967">
  <property name="length">150</property>
  <property name="eof">pause</property>
  <property name="resource"/>
  <property name="progressive">1</property>
  <property name="aspect_ratio">1</property>
  <property name="seekable">1</property>
  <property name="mlt_service">kdenlivetitle</property>
  <property name="kdenlive:duration">150</property>
  <property name="kdenlive:clipname">01 natureworks.org.uk/class/cad</property>
  <property name="xmldata">&lt;kdenlivetitle duration="150" LC_NUMERIC="C" width="1280" height="720" out="149">
 &lt;item type="QGraphicsTextItem" z-index="3">
  &lt;position x="153" y="151">
   &lt;transform>1,0,0,0,1,0,0,0,1&lt;/transform>
  &lt;/position>
  &lt;content line-spacing="0" shadow="0;#64000000;3;3;3" font-underline="0" box-height="92" font-outline-color="0,0,0,255" font="IBM Plex Sans SemiBold" letter-spacing="0" font-pixel-size="70" font-italic="0" typewriter="0;2;1;0;0" alignment="4" font-weight="87" font-outline="0" box-width="973.969" font-color="255,255,255,255">natureworks.org.uk/class/cad&lt;/content>
 &lt;/item>
 &lt;item type="QGraphicsRectItem" z-index="2">
  &lt;position x="133" y="145">
   &lt;transform zoom="100">1,0,0,0,1,0,0,0,1&lt;/transform>
  &lt;/position>
  &lt;content brushcolor="0,0,0,138" pencolor="0,0,0,255" penwidth="0" rect="0,0,1014.33,107"/>
 &lt;/item>
 &lt;startviewport rect="0,0,1280,720"/>
 &lt;endviewport rect="0,0,1280,720"/>
 &lt;background color="0,0,0,0"/>
&lt;/kdenlivetitle>
</property>
  <property name="kdenlive:folderid">32</property>
  <property name="kdenlive:clip_type">2</property>
  <property name="kdenlive:id">23</property>
  <property name="kdenlive:file_hash">4d358534c0849d1e72fae86e225f334a</property>
  <property name="force_reload">0</property>
  <property name="meta.media.width">1280</property>
  <property name="meta.media.height">720</property>
 </producer>
 <producer id="producer22" in="00:00:00.000" out="00:00:05.967">
  <property name="length">180</property>
  <property name="eof">pause</property>
  <property name="resource"/>
  <property name="progressive">1</property>
  <property name="aspect_ratio">1</property>
  <property name="seekable">1</property>
  <property name="mlt_service">kdenlivetitle</property>
  <property name="kdenlive:duration">150</property>
  <property name="kdenlive:clipname">02 Inkscape &amp; Illustrator</property>
  <property name="xmldata">&lt;kdenlivetitle duration="150" LC_NUMERIC="C" width="1280" height="720" out="149">
 &lt;item type="QGraphicsTextItem" z-index="3">
  &lt;position x="156" y="151">
   &lt;transform>1,0,0,0,1,0,0,0,1&lt;/transform>
  &lt;/position>
  &lt;content line-spacing="0" shadow="0;#64000000;3;3;3" font-underline="0" box-height="84" font-outline-color="0,0,0,255" font="IBM Plex Sans SemiBold" letter-spacing="0" font-pixel-size="64" font-italic="0" typewriter="0;2;1;0;0" alignment="4" font-weight="87" font-outline="0" box-width="961.641" font-color="255,255,255,255">inkscape.org &amp;amp; Adobe Illustrator&lt;/content>
 &lt;/item>
 &lt;item type="QGraphicsRectItem" z-index="2">
  &lt;position x="133" y="145">
   &lt;transform zoom="100">1,0,0,0,1,0,0,0,1&lt;/transform>
  &lt;/position>
  &lt;content brushcolor="0,0,0,138" pencolor="0,0,0,255" penwidth="0" rect="0,0,1014.33,107"/>
 &lt;/item>
 &lt;startviewport rect="0,0,1280,720"/>
 &lt;endviewport rect="0,0,1280,720"/>
 &lt;background color="0,0,0,0"/>
&lt;/kdenlivetitle>
</property>
  <property name="kdenlive:folderid">32</property>
  <property name="kdenlive:clip_type">2</property>
  <property name="kdenlive:id">24</property>
  <property name="kdenlive:file_hash">9f902889f25fb411f7fdaea724aa5b96</property>
  <property name="force_reload">0</property>
  <property name="meta.media.width">1280</property>
  <property name="meta.media.height">720</property>
 </producer>
 <producer id="producer23" in="00:00:00.000" out="00:00:06.767">
  <property name="length">204</property>
  <property name="eof">pause</property>
  <property name="resource"/>
  <property name="progressive">1</property>
  <property name="aspect_ratio">1</property>
  <property name="seekable">1</property>
  <property name="mlt_service">kdenlivetitle</property>
  <property name="kdenlive:duration">150</property>
  <property name="kdenlive:clipname">03 QCAD.org</property>
  <property name="xmldata">&lt;kdenlivetitle duration="150" LC_NUMERIC="C" width="1280" height="720" out="149">
 &lt;item type="QGraphicsTextItem" z-index="3">
  &lt;position x="498" y="151">
   &lt;transform>1,0,0,0,1,0,0,0,1&lt;/transform>
  &lt;/position>
  &lt;content line-spacing="0" shadow="0;#64000000;3;3;3" font-underline="0" box-height="84" font="IBM Plex Sans SemiBold" letter-spacing="0" font-pixel-size="64" font-italic="0" typewriter="0;2;1;0;0" alignment="4" font-weight="87" box-width="284.078" font-color="255,255,255,255">QCAD.org&lt;/content>
 &lt;/item>
 &lt;item type="QGraphicsRectItem" z-index="2">
  &lt;position x="482" y="145">
   &lt;transform zoom="100">1,0,0,0,1,0,0,0,1&lt;/transform>
  &lt;/position>
  &lt;content brushcolor="0,0,0,138" pencolor="0,0,0,255" penwidth="0" rect="0,0,315,107"/>
 &lt;/item>
 &lt;startviewport rect="0,0,1280,720"/>
 &lt;endviewport rect="0,0,1280,720"/>
 &lt;background color="0,0,0,0"/>
&lt;/kdenlivetitle>
</property>
  <property name="kdenlive:folderid">32</property>
  <property name="kdenlive:clip_type">2</property>
  <property name="kdenlive:id">25</property>
  <property name="kdenlive:file_hash">03e53ecbc2e60ddbb79f4360f334ce5b</property>
  <property name="force_reload">0</property>
  <property name="meta.media.width">1280</property>
  <property name="meta.media.height">720</property>
 </producer>
 <producer id="producer24" in="00:00:00.000" out="00:00:08.633">
  <property name="length">260</property>
  <property name="eof">pause</property>
  <property name="resource"/>
  <property name="progressive">1</property>
  <property name="aspect_ratio">1</property>
  <property name="seekable">1</property>
  <property name="mlt_service">kdenlivetitle</property>
  <property name="kdenlive:duration">150</property>
  <property name="kdenlive:clipname">04 Vectorworks</property>
  <property name="xmldata">&lt;kdenlivetitle duration="150" LC_NUMERIC="C" width="1280" height="720" out="149">
 &lt;item type="QGraphicsTextItem" z-index="3">
  &lt;position x="194" y="151">
   &lt;transform>1,0,0,0,1,0,0,0,1&lt;/transform>
  &lt;/position>
  &lt;content line-spacing="0" shadow="0;#64000000;3;3;3" font-underline="0" box-height="84" font="IBM Plex Sans SemiBold" letter-spacing="0" font-pixel-size="64" font-italic="0" typewriter="0;2;1;0;0" alignment="4" font-weight="87" box-width="891.734" font-color="255,255,255,255">Vectorworks £1,230 per year! &lt;/content>
 &lt;/item>
 &lt;item type="QGraphicsRectItem" z-index="2">
  &lt;position x="178" y="145">
   &lt;transform zoom="100">1,0,0,0,1,0,0,0,1&lt;/transform>
  &lt;/position>
  &lt;content brushcolor="0,0,0,138" pencolor="0,0,0,255" penwidth="0" rect="0,0,924,107"/>
 &lt;/item>
 &lt;startviewport rect="0,0,1280,720"/>
 &lt;endviewport rect="0,0,1280,720"/>
 &lt;background color="0,0,0,0"/>
&lt;/kdenlivetitle>
</property>
  <property name="kdenlive:folderid">32</property>
  <property name="kdenlive:clip_type">2</property>
  <property name="kdenlive:id">26</property>
  <property name="kdenlive:file_hash">822eaba8db806ebb931637b80855c1e8</property>
  <property name="force_reload">0</property>
  <property name="meta.media.width">1280</property>
  <property name="meta.media.height">720</property>
 </producer>
 <producer id="producer25" in="00:00:00.000" out="00:00:08.633">
  <property name="length">260</property>
  <property name="eof">pause</property>
  <property name="resource"/>
  <property name="progressive">1</property>
  <property name="aspect_ratio">1</property>
  <property name="seekable">1</property>
  <property name="mlt_service">kdenlivetitle</property>
  <property name="kdenlive:duration">150</property>
  <property name="kdenlive:clipname">05 LibreCAD</property>
  <property name="xmldata">&lt;kdenlivetitle duration="150" LC_NUMERIC="C" width="1280" height="720" out="149">
 &lt;item type="QGraphicsTextItem" z-index="3">
  &lt;position x="446" y="151">
   &lt;transform>1,0,0,0,1,0,0,0,1&lt;/transform>
  &lt;/position>
  &lt;content line-spacing="0" shadow="0;#64000000;3;3;3" font-underline="0" box-height="84" font="IBM Plex Sans SemiBold" letter-spacing="0" font-pixel-size="64" font-italic="0" typewriter="0;2;1;0;0" alignment="4" font-weight="87" box-width="388.422" font-color="255,255,255,255">LibreCAD.org&lt;/content>
 &lt;/item>
 &lt;item type="QGraphicsRectItem" z-index="2">
  &lt;position x="411" y="145">
   &lt;transform zoom="100">1,0,0,0,1,0,0,0,1&lt;/transform>
  &lt;/position>
  &lt;content brushcolor="0,0,0,138" pencolor="0,0,0,255" penwidth="0" rect="0,0,457,107"/>
 &lt;/item>
 &lt;startviewport rect="0,0,1280,720"/>
 &lt;endviewport rect="0,0,1280,720"/>
 &lt;background color="0,0,0,0"/>
&lt;/kdenlivetitle>
</property>
  <property name="kdenlive:folderid">32</property>
  <property name="kdenlive:clip_type">2</property>
  <property name="kdenlive:id">27</property>
  <property name="kdenlive:file_hash">b65fb4d34f7c231372adcbd6bfc23b85</property>
  <property name="force_reload">0</property>
  <property name="meta.media.width">1280</property>
  <property name="meta.media.height">720</property>
 </producer>
 <producer id="producer26" in="00:00:00.000" out="00:00:04.967">
  <property name="length">00:00:05.000</property>
  <property name="eof">pause</property>
  <property name="resource">frames/01 CAD frame 5. Document.png</property>
  <property name="ttl">25</property>
  <property name="aspect_ratio">1</property>
  <property name="progressive">1</property>
  <property name="seekable">1</property>
  <property name="format">2</property>
  <property name="meta.media.width">1280</property>
  <property name="meta.media.height">720</property>
  <property name="mlt_service">qimage</property>
  <property name="kdenlive:clipname">01 CAD 5. Document.png</property>
  <property name="kdenlive:duration">00:00:05.000</property>
  <property name="kdenlive:folderid">33</property>
  <property name="kdenlive:clip_type">2</property>
  <property name="kdenlive:id">34</property>
  <property name="kdenlive:file_size">263106</property>
  <property name="kdenlive:file_hash">71c338dcfd6c07c5c0375c36aeecee2a</property>
 </producer>
 <producer id="producer27" in="00:00:00.000" out="00:00:12.000">
  <property name="length">361</property>
  <property name="eof">pause</property>
  <property name="resource"/>
  <property name="progressive">1</property>
  <property name="aspect_ratio">1</property>
  <property name="seekable">1</property>
  <property name="mlt_service">kdenlivetitle</property>
  <property name="kdenlive:duration">150</property>
  <property name="kdenlive:clipname">06 Template spreadsheet</property>
  <property name="xmldata">&lt;kdenlivetitle duration="150" LC_NUMERIC="C" width="1280" height="720" out="149">
 &lt;item type="QGraphicsTextItem" z-index="3">
  &lt;position x="114" y="151">
   &lt;transform>1,0,0,0,1,0,0,0,1&lt;/transform>
  &lt;/position>
  &lt;content line-spacing="0" shadow="0;#64000000;3;3;3" font-underline="0" box-height="84" font="IBM Plex Sans SemiBold" letter-spacing="0" font-pixel-size="64" font-italic="0" typewriter="0;2;1;0;0" alignment="4" font-weight="87" box-width="1051.7" font-color="255,255,255,255">Spreadsheet bit.ly/template-plants&lt;/content>
 &lt;/item>
 &lt;item type="QGraphicsRectItem" z-index="2">
  &lt;position x="95" y="145">
   &lt;transform zoom="100">1,0,0,0,1,0,0,0,1&lt;/transform>
  &lt;/position>
  &lt;content brushcolor="0,0,0,138" pencolor="0,0,0,255" penwidth="0" rect="0,0,1090,107"/>
 &lt;/item>
 &lt;startviewport rect="0,0,1280,720"/>
 &lt;endviewport rect="0,0,1280,720"/>
 &lt;background color="0,0,0,0"/>
&lt;/kdenlivetitle>
</property>
  <property name="kdenlive:folderid">32</property>
  <property name="kdenlive:clip_type">2</property>
  <property name="kdenlive:id">35</property>
  <property name="kdenlive:file_hash">23d81925c8310e4e3a25c7f058602c33</property>
  <property name="force_reload">0</property>
  <property name="meta.media.width">1280</property>
  <property name="meta.media.height">720</property>
 </producer>
 <producer id="producer28" in="00:00:00.000" out="00:00:06.967">
  <property name="length">210</property>
  <property name="eof">pause</property>
  <property name="resource"/>
  <property name="progressive">1</property>
  <property name="aspect_ratio">1</property>
  <property name="seekable">1</property>
  <property name="mlt_service">kdenlivetitle</property>
  <property name="kdenlive:duration">150</property>
  <property name="kdenlive:clipname">03.01 QCAD.org/download</property>
  <property name="xmldata">&lt;kdenlivetitle duration="150" LC_NUMERIC="C" width="1280" height="720" out="149">
 &lt;item type="QGraphicsTextItem" z-index="3">
  &lt;position x="338" y="151">
   &lt;transform>1,0,0,0,1,0,0,0,1&lt;/transform>
  &lt;/position>
  &lt;content line-spacing="0" shadow="0;#64000000;3;3;3" font-underline="0" box-height="84" font="IBM Plex Sans SemiBold" letter-spacing="0" font-pixel-size="64" font-italic="0" typewriter="0;2;1;0;0" alignment="4" font-weight="87" box-width="604.453" font-color="255,255,255,255">QCAD.org/download&lt;/content>
 &lt;/item>
 &lt;item type="QGraphicsRectItem" z-index="2">
  &lt;position x="314" y="145">
   &lt;transform zoom="100">1,0,0,0,1,0,0,0,1&lt;/transform>
  &lt;/position>
  &lt;content brushcolor="0,0,0,138" pencolor="0,0,0,255" penwidth="0" rect="0,0,651,107"/>
 &lt;/item>
 &lt;startviewport rect="0,0,1280,720"/>
 &lt;endviewport rect="0,0,1280,720"/>
 &lt;background color="0,0,0,0"/>
&lt;/kdenlivetitle>
</property>
  <property name="kdenlive:folderid">32</property>
  <property name="kdenlive:clip_type">2</property>
  <property name="kdenlive:id">36</property>
  <property name="kdenlive:file_hash">822eaba8db806ebb931637b80855c1e8</property>
  <property name="force_reload">0</property>
  <property name="meta.media.width">1280</property>
  <property name="meta.media.height">720</property>
 </producer>
 <producer id="producer29" in="00:00:00.000" out="00:00:07.000">
  <property name="length">211</property>
  <property name="eof">pause</property>
  <property name="resource"/>
  <property name="progressive">1</property>
  <property name="aspect_ratio">1</property>
  <property name="seekable">1</property>
  <property name="mlt_service">kdenlivetitle</property>
  <property name="kdenlive:duration">150</property>
  <property name="kdenlive:clipname">03.02 QCAD.org/installation</property>
  <property name="xmldata">&lt;kdenlivetitle duration="150" LC_NUMERIC="C" width="1280" height="720" out="149">
 &lt;item type="QGraphicsTextItem" z-index="3">
  &lt;position x="78" y="151">
   &lt;transform>1,0,0,0,1,0,0,0,1&lt;/transform>
  &lt;/position>
  &lt;content line-spacing="0" shadow="0;#64000000;3;3;3" font-underline="0" box-height="84" font="IBM Plex Sans SemiBold" letter-spacing="0" font-pixel-size="64" font-italic="0" typewriter="0;2;1;0;0" alignment="4" font-weight="87" box-width="1123.5" font-color="255,255,255,255">QCAD.org/documentation/installation&lt;/content>
 &lt;/item>
 &lt;item type="QGraphicsRectItem" z-index="2">
  &lt;position x="55" y="145">
   &lt;transform zoom="100">1,0,0,0,1,0,0,0,1&lt;/transform>
  &lt;/position>
  &lt;content brushcolor="0,0,0,138" pencolor="0,0,0,255" penwidth="0" rect="0,0,1170,107"/>
 &lt;/item>
 &lt;startviewport rect="0,0,1280,720"/>
 &lt;endviewport rect="0,0,1280,720"/>
 &lt;background color="0,0,0,0"/>
&lt;/kdenlivetitle>
</property>
  <property name="kdenlive:folderid">32</property>
  <property name="kdenlive:clip_type">2</property>
  <property name="kdenlive:id">37</property>
  <property name="kdenlive:file_hash">b6e9796d5c1b7229e7377e1e71f063df</property>
  <property name="force_reload">0</property>
  <property name="meta.media.width">1280</property>
  <property name="meta.media.height">720</property>
 </producer>
 <producer id="producer30" in="00:00:00.000" out="00:00:19.600">
  <property name="length">589</property>
  <property name="eof">pause</property>
  <property name="resource"/>
  <property name="progressive">1</property>
  <property name="aspect_ratio">1</property>
  <property name="seekable">1</property>
  <property name="mlt_service">kdenlivetitle</property>
  <property name="kdenlive:duration">150</property>
  <property name="kdenlive:clipname">07 Auto Zoom</property>
  <property name="xmldata">&lt;kdenlivetitle duration="150" LC_NUMERIC="C" width="1280" height="720" out="149">
 &lt;item type="QGraphicsTextItem" z-index="3">
  &lt;position x="103" y="318">
   &lt;transform>1,0,0,0,1,0,0,0,1&lt;/transform>
  &lt;/position>
  &lt;content line-spacing="0" shadow="0;#64000000;3;3;3" font-underline="0" box-height="84" font-outline-color="0,0,0,255" font="IBM Plex Mono SemiBold" letter-spacing="0" font-pixel-size="64" font-italic="0" typewriter="0;2;1;0;0" alignment="4" font-weight="87" font-outline="0" box-width="1074.94" font-color="255,255,255,255">View > Zoom > Auto Zoom (ZA)&lt;/content>
 &lt;/item>
 &lt;item type="QGraphicsRectItem" z-index="2">
  &lt;position x="78" y="306">
   &lt;transform zoom="100">1,0,0,0,1,0,0,0,1&lt;/transform>
  &lt;/position>
  &lt;content brushcolor="0,0,0,138" pencolor="0,0,0,255" penwidth="0" rect="0,0,1123,107"/>
 &lt;/item>
 &lt;startviewport rect="0,0,1280,720"/>
 &lt;endviewport rect="0,0,1280,720"/>
 &lt;background color="0,0,0,0"/>
&lt;/kdenlivetitle>
</property>
  <property name="kdenlive:folderid">32</property>
  <property name="kdenlive:clip_type">2</property>
  <property name="kdenlive:id">38</property>
  <property name="kdenlive:file_hash">8dba35abea94e3bfd4364f0bb8609361</property>
  <property name="force_reload">0</property>
  <property name="meta.media.width">1280</property>
  <property name="meta.media.height">720</property>
 </producer>
 <producer id="producer31" in="00:00:00.000" out="00:00:19.600">
  <property name="length">589</property>
  <property name="eof">pause</property>
  <property name="resource"/>
  <property name="progressive">1</property>
  <property name="aspect_ratio">1</property>
  <property name="seekable">1</property>
  <property name="mlt_service">kdenlivetitle</property>
  <property name="kdenlive:duration">150</property>
  <property name="kdenlive:clipname">08 Pan Zoom</property>
  <property name="xmldata">&lt;kdenlivetitle duration="150" LC_NUMERIC="C" width="1280" height="720" out="149">
 &lt;item type="QGraphicsTextItem" z-index="3">
  &lt;position x="122" y="318">
   &lt;transform>1,0,0,0,1,0,0,0,1&lt;/transform>
  &lt;/position>
  &lt;content line-spacing="0" shadow="0;#64000000;3;3;3" font-underline="0" box-height="84" font="IBM Plex Mono SemiBold" letter-spacing="0" font-pixel-size="64" font-italic="0" typewriter="0;2;1;0;0" alignment="4" font-weight="87" box-width="1036.55" font-color="255,255,255,255">View > Zoom > Pan Zoom (ZP)&lt;/content>
 &lt;/item>
 &lt;item type="QGraphicsRectItem" z-index="2">
  &lt;position x="101" y="306">
   &lt;transform zoom="100">1,0,0,0,1,0,0,0,1&lt;/transform>
  &lt;/position>
  &lt;content brushcolor="0,0,0,138" pencolor="0,0,0,255" penwidth="0" rect="0,0,1077,107"/>
 &lt;/item>
 &lt;startviewport rect="0,0,1280,720"/>
 &lt;endviewport rect="0,0,1280,720"/>
 &lt;background color="0,0,0,0"/>
&lt;/kdenlivetitle>
</property>
  <property name="kdenlive:folderid">32</property>
  <property name="kdenlive:clip_type">2</property>
  <property name="kdenlive:id">39</property>
  <property name="kdenlive:file_hash">cf8a7e17947d5d2bb11c9a8d667fc352</property>
  <property name="force_reload">0</property>
  <property name="meta.media.width">1280</property>
  <property name="meta.media.height">720</property>
 </producer>
 <producer id="producer32" in="00:00:00.000" out="00:00:19.600">
  <property name="length">589</property>
  <property name="eof">pause</property>
  <property name="resource"/>
  <property name="progressive">1</property>
  <property name="aspect_ratio">1</property>
  <property name="seekable">1</property>
  <property name="mlt_service">kdenlivetitle</property>
  <property name="kdenlive:duration">150</property>
  <property name="kdenlive:clipname">09 Auto Zoom again</property>
  <property name="xmldata">&lt;kdenlivetitle duration="150" LC_NUMERIC="C" width="1280" height="720" out="149">
 &lt;item type="QGraphicsTextItem" z-index="3">
  &lt;position x="26" y="318">
   &lt;transform>1,0,0,0,1,0,0,0,1&lt;/transform>
  &lt;/position>
  &lt;content line-spacing="0" shadow="0;#64000000;3;3;3" font-underline="0" box-height="84" font="IBM Plex Mono SemiBold" letter-spacing="0" font-pixel-size="64" font-italic="0" typewriter="0;2;1;0;0" alignment="4" font-weight="87" box-width="1228.5" font-color="255,255,255,255">View > Zoom > Auto Zoom (again!)&lt;/content>
 &lt;/item>
 &lt;item type="QGraphicsRectItem" z-index="2">
  &lt;position x="5" y="306">
   &lt;transform zoom="100">1,0,0,0,1,0,0,0,1&lt;/transform>
  &lt;/position>
  &lt;content brushcolor="0,0,0,138" pencolor="0,0,0,255" penwidth="0" rect="0,0,1269,107"/>
 &lt;/item>
 &lt;startviewport rect="0,0,1280,720"/>
 &lt;endviewport rect="0,0,1280,720"/>
 &lt;background color="0,0,0,0"/>
&lt;/kdenlivetitle>
</property>
  <property name="kdenlive:folderid">32</property>
  <property name="kdenlive:clip_type">2</property>
  <property name="kdenlive:id">40</property>
  <property name="kdenlive:file_hash">cf8a7e17947d5d2bb11c9a8d667fc352</property>
  <property name="force_reload">0</property>
  <property name="meta.media.width">1280</property>
  <property name="meta.media.height">720</property>
 </producer>
 <producer id="producer33" in="00:00:00.000" out="00:00:04.967">
  <property name="length">00:00:05.000</property>
  <property name="eof">pause</property>
  <property name="resource">frames/shiny-red-esc-key.jpg</property>
  <property name="ttl">25</property>
  <property name="aspect_ratio">1</property>
  <property name="progressive">1</property>
  <property name="seekable">1</property>
  <property name="format">1</property>
  <property name="meta.media.width">1280</property>
  <property name="meta.media.height">720</property>
  <property name="mlt_service">qimage</property>
  <property name="kdenlive:clipname"/>
  <property name="kdenlive:duration">00:00:05.000</property>
  <property name="kdenlive:folderid">33</property>
  <property name="kdenlive:clip_type">2</property>
  <property name="kdenlive:id">41</property>
  <property name="kdenlive:file_size">193168</property>
  <property name="kdenlive:file_hash">49c4affb5f0431229534119e41d6e372</property>
 </producer>
 <producer id="producer34" in="00:00:00.000" out="00:00:09.667">
  <property name="length">291</property>
  <property name="eof">pause</property>
  <property name="resource"/>
  <property name="progressive">1</property>
  <property name="aspect_ratio">1</property>
  <property name="seekable">1</property>
  <property name="mlt_service">kdenlivetitle</property>
  <property name="kdenlive:duration">150</property>
  <property name="kdenlive:clipname">10 CAD files </property>
  <property name="xmldata">&lt;kdenlivetitle duration="150" LC_NUMERIC="C" width="1280" height="720" out="149">
 &lt;item type="QGraphicsTextItem" z-index="3">
  &lt;position x="91" y="255">
   &lt;transform>1,0,0,0,1,0,0,0,1&lt;/transform>
  &lt;/position>
  &lt;content line-spacing="0" shadow="0;#64000000;3;3;3" font-underline="0" box-height="80" font="IBM Plex Sans SemiBold" letter-spacing="0" font-pixel-size="61" font-italic="0" typewriter="0;2;1;0;0" alignment="4" font-weight="50" box-width="1097.53" font-color="255,255,255,255">github.com/growdigital/cad-gardeners&lt;/content>
 &lt;/item>
 &lt;item type="QGraphicsRectItem" z-index="2">
  &lt;position x="65" y="249">
   &lt;transform zoom="100">1,0,0,0,1,0,0,0,1&lt;/transform>
  &lt;/position>
  &lt;content brushcolor="0,0,0,138" pencolor="0,0,0,255" penwidth="0" rect="0,0,1152,107"/>
 &lt;/item>
 &lt;startviewport rect="0,0,1280,720"/>
 &lt;endviewport rect="0,0,1280,720"/>
 &lt;background color="0,0,0,0"/>
&lt;/kdenlivetitle>
</property>
  <property name="kdenlive:folderid">32</property>
  <property name="kdenlive:clip_type">2</property>
  <property name="kdenlive:id">42</property>
  <property name="kdenlive:file_hash">9f902889f25fb411f7fdaea724aa5b96</property>
  <property name="force_reload">0</property>
  <property name="meta.media.width">1280</property>
  <property name="meta.media.height">720</property>
  <property name="kdenlive:activeeffect">-1</property>
 </producer>
 <producer id="producer35" in="00:00:00.000" out="00:00:09.667">
  <property name="length">291</property>
  <property name="eof">pause</property>
  <property name="resource"/>
  <property name="progressive">1</property>
  <property name="aspect_ratio">1</property>
  <property name="seekable">1</property>
  <property name="mlt_service">kdenlivetitle</property>
  <property name="kdenlive:duration">150</property>
  <property name="kdenlive:clipname">11 NURBS</property>
  <property name="xmldata">&lt;kdenlivetitle duration="150" LC_NUMERIC="C" width="1280" height="720" out="149">
 &lt;item type="QGraphicsTextItem" z-index="3">
  &lt;position x="92" y="255">
   &lt;transform>1,0,0,0,1,0,0,0,1&lt;/transform>
  &lt;/position>
  &lt;content line-spacing="0" shadow="0;#64000000;3;3;3" font-underline="0" box-height="80" font="IBM Plex Sans SemiBold" letter-spacing="0" font-pixel-size="61" font-italic="0" typewriter="0;2;1;0;0" alignment="4" font-weight="50" box-width="1102.02" font-color="255,255,255,255">NURBS: Non-uniform rational B-spline!&lt;/content>
 &lt;/item>
 &lt;item type="QGraphicsRectItem" z-index="2">
  &lt;position x="65" y="249">
   &lt;transform zoom="100">1,0,0,0,1,0,0,0,1&lt;/transform>
  &lt;/position>
  &lt;content brushcolor="0,0,0,138" pencolor="0,0,0,255" penwidth="0" rect="0,0,1152,107"/>
 &lt;/item>
 &lt;startviewport rect="0,0,1280,720"/>
 &lt;endviewport rect="0,0,1280,720"/>
 &lt;background color="0,0,0,0"/>
&lt;/kdenlivetitle>
</property>
  <property name="kdenlive:folderid">32</property>
  <property name="kdenlive:clip_type">2</property>
  <property name="kdenlive:id">43</property>
  <property name="kdenlive:file_hash">1a29d8e9418c6e87278ec68dae26e61f</property>
  <property name="force_reload">0</property>
  <property name="kdenlive:activeeffect">-1</property>
  <property name="meta.media.width">1280</property>
  <property name="meta.media.height">720</property>
 </producer>
 <producer id="producer36" in="00:00:00.000" out="00:00:04.967">
  <property name="length">00:00:05.000</property>
  <property name="eof">pause</property>
  <property name="resource">frames/03.01 shapes rectangle.png</property>
  <property name="ttl">25</property>
  <property name="aspect_ratio">1</property>
  <property name="progressive">1</property>
  <property name="seekable">1</property>
  <property name="format">1</property>
  <property name="meta.media.width">127</property>
  <property name="meta.media.height">130</property>
  <property name="mlt_service">qimage</property>
  <property name="kdenlive:clipname"/>
  <property name="kdenlive:duration">00:00:05.000</property>
  <property name="kdenlive:folderid">33</property>
  <property name="kdenlive:clip_type">2</property>
  <property name="kdenlive:id">44</property>
  <property name="kdenlive:file_size">8062</property>
  <property name="kdenlive:file_hash">1a8022cfdebb9c301202db604fa2e29d</property>
 </producer>
 <producer id="producer37" in="00:00:00.000" out="00:00:09.700">
  <property name="length">292</property>
  <property name="eof">pause</property>
  <property name="resource">frames/03.01 shapes rectangle with size.png</property>
  <property name="ttl">25</property>
  <property name="aspect_ratio">1</property>
  <property name="progressive">1</property>
  <property name="seekable">1</property>
  <property name="format">2</property>
  <property name="meta.media.width">124</property>
  <property name="meta.media.height">129</property>
  <property name="mlt_service">qimage</property>
  <property name="kdenlive:clipname"/>
  <property name="kdenlive:duration">00:00:05.000</property>
  <property name="kdenlive:folderid">33</property>
  <property name="kdenlive:clip_type">2</property>
  <property name="kdenlive:id">45</property>
  <property name="kdenlive:file_size">7725</property>
  <property name="kdenlive:file_hash">098e8986ada2125bd6be59717b5648e2</property>
 </producer>
 <producer id="producer38" in="00:00:00.000" out="00:00:19.600">
  <property name="length">589</property>
  <property name="eof">pause</property>
  <property name="resource">frames/03.02 shapes line tool.png</property>
  <property name="ttl">25</property>
  <property name="aspect_ratio">1</property>
  <property name="progressive">1</property>
  <property name="seekable">1</property>
  <property name="format">2</property>
  <property name="meta.media.width">123</property>
  <property name="meta.media.height">126</property>
  <property name="mlt_service">qimage</property>
  <property name="kdenlive:clipname"/>
  <property name="kdenlive:duration">00:00:05.000</property>
  <property name="kdenlive:folderid">33</property>
  <property name="kdenlive:clip_type">2</property>
  <property name="kdenlive:id">46</property>
  <property name="kdenlive:file_size">7957</property>
  <property name="kdenlive:file_hash">0b332741ee69f308e4baa26ec061d545</property>
 </producer>
 <producer id="producer39" in="00:00:00.000" out="00:00:24.000">
  <property name="length">721</property>
  <property name="eof">pause</property>
  <property name="resource">frames/03.03 shapes circle.png</property>
  <property name="ttl">25</property>
  <property name="aspect_ratio">1</property>
  <property name="progressive">1</property>
  <property name="seekable">1</property>
  <property name="format">2</property>
  <property name="meta.media.width">129</property>
  <property name="meta.media.height">129</property>
  <property name="mlt_service">qimage</property>
  <property name="kdenlive:clipname"/>
  <property name="kdenlive:duration">00:00:05.000</property>
  <property name="kdenlive:folderid">33</property>
  <property name="kdenlive:clip_type">2</property>
  <property name="kdenlive:id">47</property>
  <property name="kdenlive:file_size">9748</property>
  <property name="kdenlive:file_hash">e3528fb7425b6b13afc3141fee617958</property>
  <property name="kdenlive:activeeffect">2</property>
  <filter id="filter0">
   <property name="version">0.1</property>
   <property name="mlt_service">frei0r.scale0tilt</property>
   <property name="kdenlive_id">frei0r.scale0tilt</property>
   <property name="Clip left">00:00:00.000=0</property>
   <property name="Clip right">00:00:00.000=0</property>
   <property name="Clip top">00:00:00.000=0</property>
   <property name="Clip bottom">00:00:00.000=0</property>
   <property name="Scale X">00:00:00.000=0.15</property>
   <property name="Scale Y">00:00:00.000=0.15</property>
   <property name="Tilt X">00:00:00.000=0.609375</property>
   <property name="Tilt Y">00:00:00.000=0.825</property>
   <property name="kdenlive:collapsed">0</property>
  </filter>
  <filter id="filter1" out="00:00:01.000">
   <property name="start">1</property>
   <property name="level">1</property>
   <property name="mlt_service">brightness</property>
   <property name="kdenlive_id">fade_from_Fade in 1 sec</property>
   <property name="alpha">00:00:00.000=0;00:00:01.000=1</property>
   <property name="kdenlive:collapsed">0</property>
  </filter>
  <filter id="filter2" in="00:00:23.000" out="00:00:24.000">
   <property name="start">1</property>
   <property name="level">1</property>
   <property name="mlt_service">brightness</property>
   <property name="kdenlive_id">fade_to_Fade out 1 sec</property>
   <property name="alpha">00:00:00.000=1;00:00:01.000=0</property>
   <property name="kdenlive:collapsed">0</property>
  </filter>
 </producer>
 <producer id="producer40" in="00:00:00.000" out="00:00:19.833">
  <property name="length">596</property>
  <property name="eof">pause</property>
  <property name="resource">frames/03.03 shapes circle diameter.png</property>
  <property name="ttl">25</property>
  <property name="aspect_ratio">1</property>
  <property name="progressive">1</property>
  <property name="seekable">1</property>
  <property name="format">2</property>
  <property name="meta.media.width">263</property>
  <property name="meta.media.height">213</property>
  <property name="mlt_service">qimage</property>
  <property name="kdenlive:clipname"/>
  <property name="kdenlive:duration">00:00:05.000</property>
  <property name="kdenlive:folderid">33</property>
  <property name="kdenlive:clip_type">2</property>
  <property name="kdenlive:id">48</property>
  <property name="kdenlive:file_size">23522</property>
  <property name="kdenlive:file_hash">2fb7cee437bb30e3677920707f81d80a</property>
 </producer>
 <playlist id="main_bin">
  <property name="kdenlive:folder.-1.28">01 CAD</property>
  <property name="kdenlive:folder.-1.29">02 Setup</property>
  <property name="kdenlive:folder.-1.30">03 Shapes</property>
  <property name="kdenlive:folder.-1.31">04 Examples</property>
  <property name="kdenlive:folder.-1.32">Titles</property>
  <property name="kdenlive:folder.-1.33">Frames</property>
  <property name="kdenlive:docproperties.activeTrack">5</property>
  <property name="kdenlive:docproperties.audioChannels">2</property>
  <property name="kdenlive:docproperties.audioTarget">-1</property>
  <property name="kdenlive:docproperties.compositing">1</property>
  <property name="kdenlive:docproperties.disablepreview">0</property>
  <property name="kdenlive:docproperties.documentid">1673512599751</property>
  <property name="kdenlive:docproperties.enableTimelineZone">0</property>
  <property name="kdenlive:docproperties.enableexternalproxy">0</property>
  <property name="kdenlive:docproperties.enableproxy">0</property>
  <property name="kdenlive:docproperties.externalproxyparams">./;GL;.LRV;./;GX;.MP4;./;GP;.LRV;./;GP;.MP4</property>
  <property name="kdenlive:docproperties.generateimageproxy">0</property>
  <property name="kdenlive:docproperties.generateproxy">0</property>
  <property name="kdenlive:docproperties.groups">[
]
</property>
  <property name="kdenlive:docproperties.guides">[
]
</property>
  <property name="kdenlive:docproperties.guidesCategories">[
    {
        "color": "#9b59b6",
        "comment": "Category 1",
        "index": 0
    },
    {
        "color": "#3daee9",
        "comment": "Category 2",
        "index": 1
    },
    {
        "color": "#1abc9c",
        "comment": "Category 3",
        "index": 2
    },
    {
        "color": "#1cdc9a",
        "comment": "Category 4",
        "index": 3
    },
    {
        "color": "#c9ce3b",
        "comment": "Category 5",
        "index": 4
    },
    {
        "color": "#fdbc4b",
        "comment": "Category 6",
        "index": 5
    },
    {
        "color": "#f39c1f",
        "comment": "Category 7",
        "index": 6
    },
    {
        "color": "#f47750",
        "comment": "Category 8",
        "index": 7
    },
    {
        "color": "#da4453",
        "comment": "Category 9",
        "index": 8
    }
]
</property>
  <property name="kdenlive:docproperties.kdenliveversion">22.12.1</property>
  <property name="kdenlive:docproperties.position">51686</property>
  <property name="kdenlive:docproperties.previewextension"/>
  <property name="kdenlive:docproperties.previewparameters"/>
  <property name="kdenlive:docproperties.profile">atsc_720p_30</property>
  <property name="kdenlive:docproperties.proxyextension"/>
  <property name="kdenlive:docproperties.proxyimageminsize">2000</property>
  <property name="kdenlive:docproperties.proxyimagesize">800</property>
  <property name="kdenlive:docproperties.proxyminsize">1000</property>
  <property name="kdenlive:docproperties.proxyparams"/>
  <property name="kdenlive:docproperties.proxyresize">640</property>
  <property name="kdenlive:docproperties.scrollPos">71131</property>
  <property name="kdenlive:docproperties.seekOffset">30000</property>
  <property name="kdenlive:docproperties.version">1.04</property>
  <property name="kdenlive:docproperties.verticalzoom">1</property>
  <property name="kdenlive:docproperties.videoTarget">-1</property>
  <property name="kdenlive:docproperties.zonein">50765</property>
  <property name="kdenlive:docproperties.zoneout">50903</property>
  <property name="kdenlive:docproperties.zoom">5</property>
  <property name="kdenlive:expandedFolders">32</property>
  <property name="kdenlive:documentnotes"/>
  <property name="xml_retain">1</property>
  <entry producer="producer0" in="00:00:00.000" out="00:24:20.733"/>
  <entry producer="producer2" in="00:00:00.000" out="00:24:21.033"/>
  <entry producer="producer1" in="00:00:00.000" out="00:24:21.167"/>
  <entry producer="producer3" in="00:00:00.000" out="00:09:14.400"/>
  <entry producer="producer4" in="00:00:00.000" out="00:09:14.133"/>
  <entry producer="producer5" in="00:00:00.000" out="00:09:14.967"/>
  <entry producer="producer6" in="00:00:00.000" out="00:08:18.800"/>
  <entry producer="producer8" in="00:00:00.000" out="00:08:19.067"/>
  <entry producer="producer7" in="00:00:00.000" out="00:08:19.267"/>
  <entry producer="producer9" in="00:00:00.000" out="00:14:21.900"/>
  <entry producer="producer11" in="00:00:00.000" out="00:14:22.033"/>
  <entry producer="producer10" in="00:00:00.000" out="00:14:22.433"/>
  <entry producer="producer12" in="00:00:00.000" out="00:10:10.967"/>
  <entry producer="producer14" in="00:00:00.000" out="00:10:03.700"/>
  <entry producer="producer13" in="00:00:00.000" out="00:10:14.800"/>
  <entry producer="producer16" in="00:00:00.000" out="00:33:34.467"/>
  <entry producer="producer15" in="00:00:00.000" out="00:33:34.267"/>
  <entry producer="producer17" in="00:00:00.000" out="00:33:35.200"/>
  <entry producer="producer19" in="00:00:00.000" out="00:00:05.433"/>
  <entry producer="producer20" in="00:00:00.000" out="00:00:05.800"/>
  <entry producer="producer18" in="00:00:00.000" out="00:00:05.833"/>
  <entry producer="producer21" in="00:00:00.000" out="00:00:04.967"/>
  <entry producer="producer22" in="00:00:00.000" out="00:00:05.967"/>
  <entry producer="producer23" in="00:00:00.000" out="00:00:06.767"/>
  <entry producer="producer24" in="00:00:00.000" out="00:00:08.633"/>
  <entry producer="producer25" in="00:00:00.000" out="00:00:08.633"/>
  <entry producer="producer26" in="00:00:00.000" out="00:00:04.967"/>
  <entry producer="producer27" in="00:00:00.000" out="00:00:12.000"/>
  <entry producer="producer28" in="00:00:00.000" out="00:00:06.967"/>
  <entry producer="producer29" in="00:00:00.000" out="00:00:07.000"/>
  <entry producer="producer30" in="00:00:00.000" out="00:00:19.600"/>
  <entry producer="producer31" in="00:00:00.000" out="00:00:19.600"/>
  <entry producer="producer32" in="00:00:00.000" out="00:00:19.600"/>
  <entry producer="producer33" in="00:00:00.000" out="00:00:04.967"/>
  <entry producer="producer34" in="00:00:00.000" out="00:00:09.667"/>
  <entry producer="producer35" in="00:00:00.000" out="00:00:09.667"/>
  <entry producer="producer36" in="00:00:00.000" out="00:00:04.967"/>
  <entry producer="producer37" in="00:00:00.000" out="00:00:09.700"/>
  <entry producer="producer38" in="00:00:00.000" out="00:00:19.600"/>
  <entry producer="producer39" in="00:00:00.000" out="00:00:24.000"/>
  <entry producer="producer40" in="00:00:00.000" out="00:00:19.833"/>
 </playlist>
 <producer id="black_track" in="00:00:00.000" out="01:43:11.367">
  <property name="length">2147483647</property>
  <property name="eof">continue</property>
  <property name="resource">black</property>
  <property name="aspect_ratio">1</property>
  <property name="mlt_service">color</property>
  <property name="mlt_image_format">rgba</property>
  <property name="set.test_audio">0</property>
 </producer>
 <playlist id="playlist0">
  <property name="kdenlive:audio_track">1</property>
 </playlist>
 <playlist id="playlist1">
  <property name="kdenlive:audio_track">1</property>
 </playlist>
 <tractor id="tractor0" in="00:00:00.000">
  <property name="kdenlive:audio_track">1</property>
  <property name="kdenlive:trackheight">67</property>
  <property name="kdenlive:timeline_active">1</property>
  <property name="kdenlive:collapsed">0</property>
  <property name="kdenlive:thumbs_format"/>
  <property name="kdenlive:audio_rec"/>
  <track hide="video" producer="playlist0"/>
  <track hide="video" producer="playlist1"/>
  <filter id="filter3">
   <property name="window">75</property>
   <property name="max_gain">20dB</property>
   <property name="mlt_service">volume</property>
   <property name="internal_added">237</property>
   <property name="disable">1</property>
  </filter>
  <filter id="filter4">
   <property name="channel">-1</property>
   <property name="mlt_service">panner</property>
   <property name="internal_added">237</property>
   <property name="start">0.5</property>
   <property name="disable">1</property>
  </filter>
  <filter id="filter5">
   <property name="iec_scale">0</property>
   <property name="mlt_service">audiolevel</property>
   <property name="dbpeak">1</property>
   <property name="disable">1</property>
  </filter>
 </tractor>
 <playlist id="playlist2">
  <property name="kdenlive:audio_track">1</property>
 </playlist>
 <playlist id="playlist3">
  <property name="kdenlive:audio_track">1</property>
 </playlist>
 <tractor id="tractor1" in="00:00:00.000">
  <property name="kdenlive:audio_track">1</property>
  <property name="kdenlive:trackheight">67</property>
  <property name="kdenlive:timeline_active">1</property>
  <property name="kdenlive:collapsed">0</property>
  <property name="kdenlive:thumbs_format"/>
  <property name="kdenlive:audio_rec"/>
  <track hide="video" producer="playlist2"/>
  <track hide="video" producer="playlist3"/>
  <filter id="filter6">
   <property name="window">75</property>
   <property name="max_gain">20dB</property>
   <property name="mlt_service">volume</property>
   <property name="internal_added">237</property>
   <property name="disable">1</property>
  </filter>
  <filter id="filter7">
   <property name="channel">-1</property>
   <property name="mlt_service">panner</property>
   <property name="internal_added">237</property>
   <property name="start">0.5</property>
   <property name="disable">1</property>
  </filter>
  <filter id="filter8">
   <property name="iec_scale">0</property>
   <property name="mlt_service">audiolevel</property>
   <property name="dbpeak">1</property>
   <property name="disable">1</property>
  </filter>
 </tractor>
 <producer id="producer41" in="00:00:00.000" out="00:24:20.733">
  <property name="length">43823</property>
  <property name="eof">pause</property>
  <property name="resource">clips/01 CAD audio.mkv</property>
  <property name="audio_index">1</property>
  <property name="video_index">0</property>
  <property name="mute_on_pause">0</property>
  <property name="mlt_service">avformat-novalidate</property>
  <property name="meta.media.nb_streams">2</property>
  <property name="meta.media.0.stream.type">video</property>
  <property name="meta.media.0.stream.frame_rate">30</property>
  <property name="meta.media.0.stream.sample_aspect_ratio">0</property>
  <property name="meta.media.0.codec.width">1280</property>
  <property name="meta.media.0.codec.height">720</property>
  <property name="meta.media.0.codec.rotate">0</property>
  <property name="meta.media.0.codec.pix_fmt">yuv420p</property>
  <property name="meta.media.0.codec.sample_aspect_ratio">1</property>
  <property name="meta.media.0.codec.colorspace">709</property>
  <property name="meta.media.0.codec.color_trc">1</property>
  <property name="meta.media.0.codec.name">h264</property>
  <property name="meta.media.0.codec.long_name">H.264 / AVC / MPEG-4 AVC / MPEG-4 part 10</property>
  <property name="meta.media.0.codec.bit_rate">0</property>
  <property name="meta.attr.0.stream.DURATION.markup">00:24:20.766000000</property>
  <property name="meta.media.1.stream.type">audio</property>
  <property name="meta.media.1.codec.sample_fmt">fltp</property>
  <property name="meta.media.1.codec.sample_rate">48000</property>
  <property name="meta.media.1.codec.channels">2</property>
  <property name="meta.media.1.codec.name">aac</property>
  <property name="meta.media.1.codec.long_name">AAC (Advanced Audio Coding)</property>
  <property name="meta.media.1.codec.bit_rate">0</property>
  <property name="meta.attr.1.stream.title.markup">Track1</property>
  <property name="meta.attr.1.stream.DURATION.markup">00:24:20.608000000</property>
  <property name="meta.attr.ENCODER.markup">Lavf58.76.100</property>
  <property name="seekable">1</property>
  <property name="meta.media.sample_aspect_num">1</property>
  <property name="meta.media.sample_aspect_den">1</property>
  <property name="aspect_ratio">1</property>
  <property name="format">3</property>
  <property name="kdenlive:clipname"/>
  <property name="kdenlive:clip_type">0</property>
  <property name="kdenlive:folderid">-1</property>
  <property name="kdenlive:id">2</property>
  <property name="kdenlive:file_size">486506479</property>
  <property name="kdenlive:file_hash">51d88c746da7879822eea9d20c5972e1</property>
  <property name="kdenlive:audio_max1">234</property>
  <property name="xml">was here</property>
  <property name="meta.media.frame_rate_num">30</property>
  <property name="meta.media.frame_rate_den">1</property>
  <property name="meta.media.colorspace">709</property>
  <property name="meta.media.color_trc">1</property>
  <property name="meta.media.has_b_frames">2</property>
  <property name="meta.media.width">1280</property>
  <property name="meta.media.height">720</property>
  <property name="meta.media.color_range">mpeg</property>
  <property name="meta.media.top_field_first">0</property>
  <property name="meta.media.progressive">1</property>
  <property name="set.test_audio">0</property>
  <property name="set.test_image">1</property>
 </producer>
 <producer id="producer42" in="00:00:00.000" out="00:09:14.400">
  <property name="length">16633</property>
  <property name="eof">pause</property>
  <property name="resource">clips/02 Setup audio.mkv</property>
  <property name="audio_index">1</property>
  <property name="video_index">0</property>
  <property name="mute_on_pause">0</property>
  <property name="mlt_service">avformat-novalidate</property>
  <property name="meta.media.nb_streams">2</property>
  <property name="meta.media.0.stream.type">video</property>
  <property name="meta.media.0.stream.frame_rate">30</property>
  <property name="meta.media.0.stream.sample_aspect_ratio">0</property>
  <property name="meta.media.0.codec.width">1280</property>
  <property name="meta.media.0.codec.height">720</property>
  <property name="meta.media.0.codec.rotate">0</property>
  <property name="meta.media.0.codec.pix_fmt">yuv420p</property>
  <property name="meta.media.0.codec.sample_aspect_ratio">1</property>
  <property name="meta.media.0.codec.colorspace">709</property>
  <property name="meta.media.0.codec.color_trc">1</property>
  <property name="meta.media.0.codec.name">h264</property>
  <property name="meta.media.0.codec.long_name">H.264 / AVC / MPEG-4 AVC / MPEG-4 part 10</property>
  <property name="meta.media.0.codec.bit_rate">0</property>
  <property name="meta.attr.0.stream.DURATION.markup">00:09:14.433000000</property>
  <property name="meta.media.1.stream.type">audio</property>
  <property name="meta.media.1.codec.sample_fmt">fltp</property>
  <property name="meta.media.1.codec.sample_rate">48000</property>
  <property name="meta.media.1.codec.channels">2</property>
  <property name="meta.media.1.codec.name">aac</property>
  <property name="meta.media.1.codec.long_name">AAC (Advanced Audio Coding)</property>
  <property name="meta.media.1.codec.bit_rate">0</property>
  <property name="meta.attr.1.stream.title.markup">Track1</property>
  <property name="meta.attr.1.stream.DURATION.markup">00:09:14.304000000</property>
  <property name="meta.attr.ENCODER.markup">Lavf58.76.100</property>
  <property name="seekable">1</property>
  <property name="meta.media.sample_aspect_num">1</property>
  <property name="meta.media.sample_aspect_den">1</property>
  <property name="aspect_ratio">1</property>
  <property name="format">3</property>
  <property name="kdenlive:clipname"/>
  <property name="kdenlive:clip_type">0</property>
  <property name="kdenlive:folderid">-1</property>
  <property name="kdenlive:id">5</property>
  <property name="kdenlive:file_size">184665858</property>
  <property name="kdenlive:file_hash">d245c29173e458c43a90e2f4ad3837df</property>
  <property name="kdenlive:audio_max1">174</property>
  <property name="xml">was here</property>
  <property name="meta.media.frame_rate_num">30</property>
  <property name="meta.media.frame_rate_den">1</property>
  <property name="meta.media.colorspace">709</property>
  <property name="meta.media.color_trc">1</property>
  <property name="meta.media.has_b_frames">2</property>
  <property name="meta.media.width">1280</property>
  <property name="meta.media.height">720</property>
  <property name="meta.media.color_range">mpeg</property>
  <property name="meta.media.top_field_first">0</property>
  <property name="meta.media.progressive">1</property>
  <property name="set.test_audio">0</property>
  <property name="set.test_image">1</property>
 </producer>
 <producer id="producer43" in="00:00:00.000" out="00:33:34.467">
  <property name="length">60435</property>
  <property name="eof">pause</property>
  <property name="resource">clips/03.0 Shapes audio.mkv</property>
  <property name="audio_index">1</property>
  <property name="video_index">0</property>
  <property name="mute_on_pause">0</property>
  <property name="mlt_service">avformat-novalidate</property>
  <property name="seekable">1</property>
  <property name="aspect_ratio">1</property>
  <property name="format">3</property>
  <property name="kdenlive:clipname"/>
  <property name="kdenlive:clip_type">0</property>
  <property name="kdenlive:folderid">-1</property>
  <property name="kdenlive:id">17</property>
  <property name="kdenlive:file_size">670937459</property>
  <property name="kdenlive:file_hash">9232b3e4eaabc82f43fd1c7f483307b0</property>
  <property name="kdenlive:audio_max1">213</property>
  <property name="xml">was here</property>
  <property name="meta.media.nb_streams">2</property>
  <property name="meta.media.0.stream.type">video</property>
  <property name="meta.media.0.stream.frame_rate">30</property>
  <property name="meta.media.0.stream.sample_aspect_ratio">0</property>
  <property name="meta.media.0.codec.width">1280</property>
  <property name="meta.media.0.codec.height">720</property>
  <property name="meta.media.0.codec.rotate">0</property>
  <property name="meta.media.0.codec.pix_fmt">yuv420p</property>
  <property name="meta.media.0.codec.sample_aspect_ratio">1</property>
  <property name="meta.media.0.codec.colorspace">709</property>
  <property name="meta.media.0.codec.color_trc">1</property>
  <property name="meta.media.0.codec.name">h264</property>
  <property name="meta.media.0.codec.long_name">H.264 / AVC / MPEG-4 AVC / MPEG-4 part 10</property>
  <property name="meta.media.0.codec.bit_rate">0</property>
  <property name="meta.attr.0.stream.DURATION.markup">00:33:34.500000000</property>
  <property name="meta.media.1.stream.type">audio</property>
  <property name="meta.media.1.codec.sample_fmt">fltp</property>
  <property name="meta.media.1.codec.sample_rate">48000</property>
  <property name="meta.media.1.codec.channels">2</property>
  <property name="meta.media.1.codec.name">aac</property>
  <property name="meta.media.1.codec.long_name">AAC (Advanced Audio Coding)</property>
  <property name="meta.media.1.codec.bit_rate">0</property>
  <property name="meta.attr.1.stream.title.markup">Track1</property>
  <property name="meta.attr.1.stream.DURATION.markup">00:33:34.442000000</property>
  <property name="meta.attr.ENCODER.markup">Lavf58.76.100</property>
  <property name="meta.media.sample_aspect_num">1</property>
  <property name="meta.media.sample_aspect_den">1</property>
  <property name="meta.media.frame_rate_num">30</property>
  <property name="meta.media.frame_rate_den">1</property>
  <property name="meta.media.colorspace">709</property>
  <property name="meta.media.color_trc">1</property>
  <property name="meta.media.has_b_frames">2</property>
  <property name="meta.media.width">1280</property>
  <property name="meta.media.height">720</property>
  <property name="meta.media.color_range">mpeg</property>
  <property name="meta.media.top_field_first">0</property>
  <property name="meta.media.progressive">1</property>
  <property name="set.test_audio">0</property>
  <property name="set.test_image">1</property>
 </producer>
 <producer id="producer44" in="00:00:00.000" out="00:08:18.800">
  <property name="length">14965</property>
  <property name="eof">pause</property>
  <property name="resource">clips/04.0 examples audio.mkv</property>
  <property name="audio_index">1</property>
  <property name="video_index">0</property>
  <property name="mute_on_pause">0</property>
  <property name="mlt_service">avformat-novalidate</property>
  <property name="meta.media.nb_streams">2</property>
  <property name="meta.media.0.stream.type">video</property>
  <property name="meta.media.0.stream.frame_rate">30</property>
  <property name="meta.media.0.stream.sample_aspect_ratio">0</property>
  <property name="meta.media.0.codec.width">1280</property>
  <property name="meta.media.0.codec.height">720</property>
  <property name="meta.media.0.codec.rotate">0</property>
  <property name="meta.media.0.codec.pix_fmt">yuv420p</property>
  <property name="meta.media.0.codec.sample_aspect_ratio">1</property>
  <property name="meta.media.0.codec.colorspace">709</property>
  <property name="meta.media.0.codec.color_trc">1</property>
  <property name="meta.media.0.codec.name">h264</property>
  <property name="meta.media.0.codec.long_name">H.264 / AVC / MPEG-4 AVC / MPEG-4 part 10</property>
  <property name="meta.media.0.codec.bit_rate">0</property>
  <property name="meta.attr.0.stream.DURATION.markup">00:08:18.833000000</property>
  <property name="meta.media.1.stream.type">audio</property>
  <property name="meta.media.1.codec.sample_fmt">fltp</property>
  <property name="meta.media.1.codec.sample_rate">48000</property>
  <property name="meta.media.1.codec.channels">2</property>
  <property name="meta.media.1.codec.name">aac</property>
  <property name="meta.media.1.codec.long_name">AAC (Advanced Audio Coding)</property>
  <property name="meta.media.1.codec.bit_rate">0</property>
  <property name="meta.attr.1.stream.title.markup">Track1</property>
  <property name="meta.attr.1.stream.DURATION.markup">00:08:18.666000000</property>
  <property name="meta.attr.ENCODER.markup">Lavf58.76.100</property>
  <property name="seekable">1</property>
  <property name="meta.media.sample_aspect_num">1</property>
  <property name="meta.media.sample_aspect_den">1</property>
  <property name="aspect_ratio">1</property>
  <property name="format">3</property>
  <property name="kdenlive:clipname"/>
  <property name="kdenlive:clip_type">0</property>
  <property name="kdenlive:folderid">-1</property>
  <property name="kdenlive:id">8</property>
  <property name="kdenlive:file_size">166196431</property>
  <property name="kdenlive:file_hash">154550b3169f03cb423d9ba991480391</property>
  <property name="kdenlive:audio_max1">195</property>
  <property name="xml">was here</property>
  <property name="meta.media.frame_rate_num">30</property>
  <property name="meta.media.frame_rate_den">1</property>
  <property name="meta.media.colorspace">709</property>
  <property name="meta.media.color_trc">1</property>
  <property name="meta.media.has_b_frames">2</property>
  <property name="meta.media.width">1280</property>
  <property name="meta.media.height">720</property>
  <property name="meta.media.color_range">mpeg</property>
  <property name="meta.media.top_field_first">0</property>
  <property name="meta.media.progressive">1</property>
  <property name="set.test_audio">0</property>
  <property name="set.test_image">1</property>
 </producer>
 <producer id="producer45" in="00:00:00.000" out="00:14:21.900">
  <property name="length">25858</property>
  <property name="eof">pause</property>
  <property name="resource">clips/04.1 example garden acre audio.mkv</property>
  <property name="audio_index">1</property>
  <property name="video_index">0</property>
  <property name="mute_on_pause">0</property>
  <property name="mlt_service">avformat-novalidate</property>
  <property name="meta.media.nb_streams">2</property>
  <property name="meta.media.0.stream.type">video</property>
  <property name="meta.media.0.stream.frame_rate">30</property>
  <property name="meta.media.0.stream.sample_aspect_ratio">0</property>
  <property name="meta.media.0.codec.width">1280</property>
  <property name="meta.media.0.codec.height">720</property>
  <property name="meta.media.0.codec.rotate">0</property>
  <property name="meta.media.0.codec.pix_fmt">yuv420p</property>
  <property name="meta.media.0.codec.sample_aspect_ratio">1</property>
  <property name="meta.media.0.codec.colorspace">709</property>
  <property name="meta.media.0.codec.color_trc">1</property>
  <property name="meta.media.0.codec.name">h264</property>
  <property name="meta.media.0.codec.long_name">H.264 / AVC / MPEG-4 AVC / MPEG-4 part 10</property>
  <property name="meta.media.0.codec.bit_rate">0</property>
  <property name="meta.attr.0.stream.DURATION.markup">00:14:21.933000000</property>
  <property name="meta.media.1.stream.type">audio</property>
  <property name="meta.media.1.codec.sample_fmt">fltp</property>
  <property name="meta.media.1.codec.sample_rate">48000</property>
  <property name="meta.media.1.codec.channels">2</property>
  <property name="meta.media.1.codec.name">aac</property>
  <property name="meta.media.1.codec.long_name">AAC (Advanced Audio Coding)</property>
  <property name="meta.media.1.codec.bit_rate">0</property>
  <property name="meta.attr.1.stream.title.markup">Track1</property>
  <property name="meta.attr.1.stream.DURATION.markup">00:14:21.802000000</property>
  <property name="meta.attr.ENCODER.markup">Lavf58.76.100</property>
  <property name="seekable">1</property>
  <property name="meta.media.sample_aspect_num">1</property>
  <property name="meta.media.sample_aspect_den">1</property>
  <property name="aspect_ratio">1</property>
  <property name="format">3</property>
  <property name="kdenlive:clipname"/>
  <property name="kdenlive:clip_type">0</property>
  <property name="kdenlive:folderid">-1</property>
  <property name="kdenlive:id">11</property>
  <property name="kdenlive:file_size">287055648</property>
  <property name="kdenlive:file_hash">ead8c19ddf4d7ef6f6e1d421a7606b2a</property>
  <property name="kdenlive:audio_max1">236</property>
  <property name="xml">was here</property>
  <property name="meta.media.frame_rate_num">30</property>
  <property name="meta.media.frame_rate_den">1</property>
  <property name="meta.media.colorspace">709</property>
  <property name="meta.media.color_trc">1</property>
  <property name="meta.media.has_b_frames">2</property>
  <property name="meta.media.width">1280</property>
  <property name="meta.media.height">720</property>
  <property name="meta.media.color_range">mpeg</property>
  <property name="meta.media.top_field_first">0</property>
  <property name="meta.media.progressive">1</property>
  <property name="set.test_audio">0</property>
  <property name="set.test_image">1</property>
 </producer>
 <producer id="producer46" in="00:00:00.000" out="00:10:10.967">
  <property name="length">18330</property>
  <property name="eof">pause</property>
  <property name="resource">clips/04.2 example garden town audio.mkv</property>
  <property name="audio_index">1</property>
  <property name="video_index">0</property>
  <property name="mute_on_pause">0</property>
  <property name="mlt_service">avformat-novalidate</property>
  <property name="meta.media.nb_streams">2</property>
  <property name="meta.media.0.stream.type">video</property>
  <property name="meta.media.0.stream.frame_rate">30</property>
  <property name="meta.media.0.stream.sample_aspect_ratio">0</property>
  <property name="meta.media.0.codec.width">1280</property>
  <property name="meta.media.0.codec.height">720</property>
  <property name="meta.media.0.codec.rotate">0</property>
  <property name="meta.media.0.codec.pix_fmt">yuv420p</property>
  <property name="meta.media.0.codec.sample_aspect_ratio">1</property>
  <property name="meta.media.0.codec.colorspace">709</property>
  <property name="meta.media.0.codec.color_trc">1</property>
  <property name="meta.media.0.codec.name">h264</property>
  <property name="meta.media.0.codec.long_name">H.264 / AVC / MPEG-4 AVC / MPEG-4 part 10</property>
  <property name="meta.media.0.codec.bit_rate">0</property>
  <property name="meta.attr.0.stream.DURATION.markup">00:10:11.000000000</property>
  <property name="meta.media.1.stream.type">audio</property>
  <property name="meta.media.1.codec.sample_fmt">fltp</property>
  <property name="meta.media.1.codec.sample_rate">48000</property>
  <property name="meta.media.1.codec.channels">2</property>
  <property name="meta.media.1.codec.name">aac</property>
  <property name="meta.media.1.codec.long_name">AAC (Advanced Audio Coding)</property>
  <property name="meta.media.1.codec.bit_rate">0</property>
  <property name="meta.attr.1.stream.title.markup">Track1</property>
  <property name="meta.attr.1.stream.DURATION.markup">00:10:10.944000000</property>
  <property name="meta.attr.ENCODER.markup">Lavf58.76.100</property>
  <property name="seekable">1</property>
  <property name="meta.media.sample_aspect_num">1</property>
  <property name="meta.media.sample_aspect_den">1</property>
  <property name="aspect_ratio">1</property>
  <property name="format">3</property>
  <property name="kdenlive:clipname"/>
  <property name="kdenlive:clip_type">0</property>
  <property name="kdenlive:folderid">-1</property>
  <property name="kdenlive:id">14</property>
  <property name="kdenlive:file_size">203563039</property>
  <property name="kdenlive:file_hash">fb7491cb2e24e46be72e358a485ba419</property>
  <property name="kdenlive:audio_max1">193</property>
  <property name="xml">was here</property>
  <property name="meta.media.frame_rate_num">30</property>
  <property name="meta.media.frame_rate_den">1</property>
  <property name="meta.media.colorspace">709</property>
  <property name="meta.media.color_trc">1</property>
  <property name="meta.media.has_b_frames">2</property>
  <property name="meta.media.width">1280</property>
  <property name="meta.media.height">720</property>
  <property name="meta.media.color_range">mpeg</property>
  <property name="meta.media.top_field_first">0</property>
  <property name="meta.media.progressive">1</property>
  <property name="set.test_audio">0</property>
  <property name="set.test_image">1</property>
 </producer>
 <playlist id="playlist4">
  <property name="kdenlive:audio_track">1</property>
  <entry producer="producer41" in="00:00:06.400" out="00:00:50.967">
   <property name="kdenlive:id">2</property>
  </entry>
  <entry producer="producer41" in="00:00:53.033" out="00:00:58.467">
   <property name="kdenlive:id">2</property>
  </entry>
  <entry producer="producer41" in="00:01:00.167" out="00:01:08.533">
   <property name="kdenlive:id">2</property>
  </entry>
  <entry producer="producer41" in="00:01:10.700" out="00:01:53.167">
   <property name="kdenlive:id">2</property>
  </entry>
  <entry producer="producer41" in="00:01:54.333" out="00:01:58.900">
   <property name="kdenlive:id">2</property>
  </entry>
  <entry producer="producer41" in="00:02:00.800" out="00:02:14.033">
   <property name="kdenlive:id">2</property>
  </entry>
  <entry producer="producer41" in="00:02:16.100" out="00:02:21.333">
   <property name="kdenlive:id">2</property>
  </entry>
  <entry producer="producer41" in="00:02:22.533" out="00:02:39.667">
   <property name="kdenlive:id">2</property>
  </entry>
  <entry producer="producer41" in="00:02:41.200" out="00:02:51.600">
   <property name="kdenlive:id">2</property>
  </entry>
  <entry producer="producer41" in="00:02:52.133" out="00:02:55.267">
   <property name="kdenlive:id">2</property>
  </entry>
  <entry producer="producer41" in="00:02:57.233" out="00:03:25.633">
   <property name="kdenlive:id">2</property>
  </entry>
  <entry producer="producer41" in="00:03:26.700" out="00:03:49.067">
   <property name="kdenlive:id">2</property>
  </entry>
  <entry producer="producer41" in="00:03:49.867" out="00:03:57.267">
   <property name="kdenlive:id">2</property>
  </entry>
  <entry producer="producer41" in="00:04:05.267" out="00:04:09.067">
   <property name="kdenlive:id">2</property>
  </entry>
  <entry producer="producer41" in="00:05:48.400" out="00:06:14.967">
   <property name="kdenlive:id">2</property>
  </entry>
  <entry producer="producer41" in="00:06:16.200" out="00:06:41.767">
   <property name="kdenlive:id">2</property>
  </entry>
  <entry producer="producer41" in="00:06:44.300" out="00:06:55.167">
   <property name="kdenlive:id">2</property>
  </entry>
  <entry producer="producer41" in="00:06:57.233" out="00:07:00.933">
   <property name="kdenlive:id">2</property>
  </entry>
  <entry producer="producer41" in="00:07:02.067" out="00:07:26.000">
   <property name="kdenlive:id">2</property>
  </entry>
  <entry producer="producer41" in="00:07:30.133" out="00:07:42.800">
   <property name="kdenlive:id">2</property>
  </entry>
  <entry producer="producer41" in="00:07:43.667" out="00:08:00.400">
   <property name="kdenlive:id">2</property>
  </entry>
  <entry producer="producer41" in="00:08:02.367" out="00:08:13.833">
   <property name="kdenlive:id">2</property>
  </entry>
  <entry producer="producer41" in="00:09:50.733" out="00:10:37.900">
   <property name="kdenlive:id">2</property>
  </entry>
  <entry producer="producer41" in="00:10:39.700" out="00:10:45.867">
   <property name="kdenlive:id">2</property>
  </entry>
  <entry producer="producer41" in="00:12:37.167" out="00:14:40.267">
   <property name="kdenlive:id">2</property>
  </entry>
  <entry producer="producer41" in="00:16:21.667" out="00:17:32.800">
   <property name="kdenlive:id">2</property>
  </entry>
  <entry producer="producer41" in="00:17:57.267" out="00:18:26.933">
   <property name="kdenlive:id">2</property>
  </entry>
  <entry producer="producer41" in="00:18:28.967" out="00:19:10.733">
   <property name="kdenlive:id">2</property>
  </entry>
  <entry producer="producer41" in="00:19:45.333" out="00:20:45.367">
   <property name="kdenlive:id">2</property>
  </entry>
  <entry producer="producer41" in="00:22:10.933" out="00:23:22.333">
   <property name="kdenlive:id">2</property>
  </entry>
  <entry producer="producer41" in="00:23:23.767" out="00:23:40.833">
   <property name="kdenlive:id">2</property>
  </entry>
  <entry producer="producer41" in="00:23:42.100" out="00:24:06.100">
   <property name="kdenlive:id">2</property>
  </entry>
  <entry producer="producer42" in="00:00:03.133" out="00:01:38.767">
   <property name="kdenlive:id">5</property>
  </entry>
  <entry producer="producer42" in="00:01:42.667" out="00:02:11.200">
   <property name="kdenlive:id">5</property>
  </entry>
  <entry producer="producer42" in="00:02:19.933" out="00:02:31.367">
   <property name="kdenlive:id">5</property>
  </entry>
  <entry producer="producer42" in="00:02:33.100" out="00:02:42.267">
   <property name="kdenlive:id">5</property>
  </entry>
  <entry producer="producer42" in="00:02:44.500" out="00:02:48.200">
   <property name="kdenlive:id">5</property>
  </entry>
  <entry producer="producer42" in="00:03:02.833" out="00:03:19.733">
   <property name="kdenlive:id">5</property>
  </entry>
  <entry producer="producer42" in="00:03:26.167" out="00:03:44.867">
   <property name="kdenlive:id">5</property>
  </entry>
  <entry producer="producer42" in="00:03:47.267" out="00:03:49.233">
   <property name="kdenlive:id">5</property>
  </entry>
  <entry producer="producer42" in="00:03:59.833" out="00:04:10.667">
   <property name="kdenlive:id">5</property>
  </entry>
  <entry producer="producer42" in="00:04:19.367" out="00:04:23.533">
   <property name="kdenlive:id">5</property>
  </entry>
  <entry producer="producer42" in="00:04:26.800" out="00:04:28.367">
   <property name="kdenlive:id">5</property>
  </entry>
  <entry producer="producer42" in="00:04:31.233" out="00:04:41.300">
   <property name="kdenlive:id">5</property>
  </entry>
  <entry producer="producer42" in="00:04:58.033" out="00:05:16.800">
   <property name="kdenlive:id">5</property>
  </entry>
  <entry producer="producer42" in="00:05:38.867" out="00:05:40.300">
   <property name="kdenlive:id">5</property>
  </entry>
  <entry producer="producer42" in="00:05:42.833" out="00:05:47.233">
   <property name="kdenlive:id">5</property>
  </entry>
  <entry producer="producer42" in="00:05:49.567" out="00:05:52.100">
   <property name="kdenlive:id">5</property>
  </entry>
  <entry producer="producer42" in="00:06:01.167" out="00:06:04.933">
   <property name="kdenlive:id">5</property>
  </entry>
  <entry producer="producer42" in="00:06:05.700" out="00:06:11.867">
   <property name="kdenlive:id">5</property>
  </entry>
  <entry producer="producer42" in="00:06:13.333" out="00:06:14.700">
   <property name="kdenlive:id">5</property>
  </entry>
  <entry producer="producer42" in="00:07:09.567" out="00:07:12.533">
   <property name="kdenlive:id">5</property>
  </entry>
  <entry producer="producer42" in="00:07:13.467" out="00:07:50.900">
   <property name="kdenlive:id">5</property>
  </entry>
  <entry producer="producer42" in="00:08:00.767" out="00:08:08.000">
   <property name="kdenlive:id">5</property>
  </entry>
  <entry producer="producer42" in="00:08:08.867" out="00:08:53.133">
   <property name="kdenlive:id">5</property>
  </entry>
  <entry producer="producer42" in="00:08:57.067" out="00:09:09.233">
   <property name="kdenlive:id">5</property>
  </entry>
  <entry producer="producer43" in="00:00:02.533" out="00:00:32.067">
   <property name="kdenlive:id">17</property>
  </entry>
  <entry producer="producer43" in="00:00:36.433" out="00:00:38.200">
   <property name="kdenlive:id">17</property>
  </entry>
  <entry producer="producer43" in="00:00:39.267" out="00:03:28.667">
   <property name="kdenlive:id">17</property>
  </entry>
  <entry producer="producer43" in="00:03:32.300" out="00:04:24.633">
   <property name="kdenlive:id">17</property>
  </entry>
  <entry producer="producer43" in="00:04:39.000" out="00:04:57.800">
   <property name="kdenlive:id">17</property>
  </entry>
  <entry producer="producer43" in="00:04:59.333" out="00:05:07.200">
   <property name="kdenlive:id">17</property>
  </entry>
  <entry producer="producer43" in="00:05:11.067" out="00:05:16.533">
   <property name="kdenlive:id">17</property>
  </entry>
  <entry producer="producer43" in="00:05:18.700" out="00:05:21.933">
   <property name="kdenlive:id">17</property>
  </entry>
  <entry producer="producer43" in="00:05:28.033" out="00:05:40.333">
   <property name="kdenlive:id">17</property>
  </entry>
  <entry producer="producer43" in="00:05:53.500" out="00:05:58.267">
   <property name="kdenlive:id">17</property>
  </entry>
  <entry producer="producer43" in="00:05:59.500" out="00:09:09.300">
   <property name="kdenlive:id">17</property>
  </entry>
  <entry producer="producer43" in="00:09:13.933" out="00:33:34.467">
   <property name="kdenlive:id">17</property>
  </entry>
  <blank length="00:00:10.100"/>
  <entry producer="producer44" in="00:00:00.000" out="00:08:18.800">
   <property name="kdenlive:id">8</property>
  </entry>
  <entry producer="producer45" in="00:00:00.000" out="00:14:21.900">
   <property name="kdenlive:id">11</property>
  </entry>
  <blank length="00:00:52.933"/>
  <entry producer="producer46" in="00:00:00.000" out="00:10:10.967">
   <property name="kdenlive:id">14</property>
  </entry>
 </playlist>
 <playlist id="playlist5">
  <property name="kdenlive:audio_track">1</property>
 </playlist>
 <tractor id="tractor2" in="00:00:00.000" out="01:26:27.500">
  <property name="kdenlive:audio_track">1</property>
  <property name="kdenlive:trackheight">67</property>
  <property name="kdenlive:timeline_active">1</property>
  <property name="kdenlive:collapsed">0</property>
  <property name="kdenlive:thumbs_format"/>
  <property name="kdenlive:audio_rec"/>
  <track hide="video" producer="playlist4"/>
  <track hide="video" producer="playlist5"/>
  <filter id="filter9">
   <property name="window">75</property>
   <property name="max_gain">20dB</property>
   <property name="mlt_service">volume</property>
   <property name="internal_added">237</property>
   <property name="disable">1</property>
  </filter>
  <filter id="filter10">
   <property name="channel">-1</property>
   <property name="mlt_service">panner</property>
   <property name="internal_added">237</property>
   <property name="start">0.5</property>
   <property name="disable">1</property>
  </filter>
  <filter id="filter11">
   <property name="iec_scale">0</property>
   <property name="mlt_service">audiolevel</property>
   <property name="dbpeak">1</property>
   <property name="disable">1</property>
  </filter>
 </tractor>
 <producer id="producer47" in="00:00:00.000" out="00:24:21.033">
  <property name="length">43832</property>
  <property name="eof">pause</property>
  <property name="resource">clips/01 CAD Desktop.mkv</property>
  <property name="audio_index">1</property>
  <property name="video_index">0</property>
  <property name="mute_on_pause">0</property>
  <property name="mlt_service">avformat-novalidate</property>
  <property name="meta.media.nb_streams">2</property>
  <property name="meta.media.0.stream.type">video</property>
  <property name="meta.media.0.stream.frame_rate">30</property>
  <property name="meta.media.0.stream.sample_aspect_ratio">0</property>
  <property name="meta.media.0.codec.width">1920</property>
  <property name="meta.media.0.codec.height">1080</property>
  <property name="meta.media.0.codec.rotate">0</property>
  <property name="meta.media.0.codec.pix_fmt">yuv420p</property>
  <property name="meta.media.0.codec.sample_aspect_ratio">1</property>
  <property name="meta.media.0.codec.colorspace">709</property>
  <property name="meta.media.0.codec.color_trc">1</property>
  <property name="meta.media.0.codec.name">h264</property>
  <property name="meta.media.0.codec.long_name">H.264 / AVC / MPEG-4 AVC / MPEG-4 part 10</property>
  <property name="meta.media.0.codec.bit_rate">0</property>
  <property name="meta.attr.0.stream.DURATION.markup">00:24:21.066000000</property>
  <property name="meta.media.1.stream.type">audio</property>
  <property name="meta.media.1.codec.sample_fmt">fltp</property>
  <property name="meta.media.1.codec.sample_rate">48000</property>
  <property name="meta.media.1.codec.channels">2</property>
  <property name="meta.media.1.codec.name">aac</property>
  <property name="meta.media.1.codec.long_name">AAC (Advanced Audio Coding)</property>
  <property name="meta.media.1.codec.bit_rate">0</property>
  <property name="meta.attr.1.stream.title.markup">Source Record</property>
  <property name="meta.attr.1.stream.DURATION.markup">00:24:21.056000000</property>
  <property name="meta.attr.ENCODER.markup">Lavf58.76.100</property>
  <property name="seekable">1</property>
  <property name="meta.media.sample_aspect_num">1</property>
  <property name="meta.media.sample_aspect_den">1</property>
  <property name="aspect_ratio">1</property>
  <property name="format">3</property>
  <property name="kdenlive:clipname"/>
  <property name="kdenlive:clip_type">0</property>
  <property name="kdenlive:folderid">-1</property>
  <property name="kdenlive:id">3</property>
  <property name="kdenlive:file_size">457735203</property>
  <property name="kdenlive:file_hash">5ea2fd1f66be5394ba4ff472605eaf2d</property>
  <property name="kdenlive:audio_max1">1</property>
  <property name="xml">was here</property>
  <property name="meta.media.frame_rate_num">30</property>
  <property name="meta.media.frame_rate_den">1</property>
  <property name="meta.media.colorspace">709</property>
  <property name="meta.media.color_trc">1</property>
  <property name="meta.media.has_b_frames">0</property>
  <property name="meta.media.width">1920</property>
  <property name="meta.media.height">1080</property>
  <property name="meta.media.color_range">mpeg</property>
  <property name="meta.media.top_field_first">0</property>
  <property name="meta.media.progressive">1</property>
  <property name="set.test_audio">1</property>
  <property name="set.test_image">0</property>
 </producer>
 <producer id="producer48" in="00:00:00.000" out="00:09:14.133">
  <property name="length">16625</property>
  <property name="eof">pause</property>
  <property name="resource">clips/02 Setup Desktop.mkv</property>
  <property name="audio_index">1</property>
  <property name="video_index">0</property>
  <property name="mute_on_pause">0</property>
  <property name="mlt_service">avformat-novalidate</property>
  <property name="meta.media.nb_streams">2</property>
  <property name="meta.media.0.stream.type">video</property>
  <property name="meta.media.0.stream.frame_rate">30</property>
  <property name="meta.media.0.stream.sample_aspect_ratio">0</property>
  <property name="meta.media.0.codec.width">1920</property>
  <property name="meta.media.0.codec.height">1080</property>
  <property name="meta.media.0.codec.rotate">0</property>
  <property name="meta.media.0.codec.pix_fmt">yuv420p</property>
  <property name="meta.media.0.codec.sample_aspect_ratio">1</property>
  <property name="meta.media.0.codec.colorspace">709</property>
  <property name="meta.media.0.codec.color_trc">1</property>
  <property name="meta.media.0.codec.name">h264</property>
  <property name="meta.media.0.codec.long_name">H.264 / AVC / MPEG-4 AVC / MPEG-4 part 10</property>
  <property name="meta.media.0.codec.bit_rate">0</property>
  <property name="meta.attr.0.stream.DURATION.markup">00:09:14.166000000</property>
  <property name="meta.media.1.stream.type">audio</property>
  <property name="meta.media.1.codec.sample_fmt">fltp</property>
  <property name="meta.media.1.codec.sample_rate">48000</property>
  <property name="meta.media.1.codec.channels">2</property>
  <property name="meta.media.1.codec.name">aac</property>
  <property name="meta.media.1.codec.long_name">AAC (Advanced Audio Coding)</property>
  <property name="meta.media.1.codec.bit_rate">0</property>
  <property name="meta.attr.1.stream.title.markup">Source Record</property>
  <property name="meta.attr.1.stream.DURATION.markup">00:09:14.133000000</property>
  <property name="meta.attr.ENCODER.markup">Lavf58.76.100</property>
  <property name="seekable">1</property>
  <property name="meta.media.sample_aspect_num">1</property>
  <property name="meta.media.sample_aspect_den">1</property>
  <property name="aspect_ratio">1</property>
  <property name="format">3</property>
  <property name="kdenlive:clipname"/>
  <property name="kdenlive:clip_type">0</property>
  <property name="kdenlive:folderid">-1</property>
  <property name="kdenlive:id">6</property>
  <property name="kdenlive:file_size">173593797</property>
  <property name="kdenlive:file_hash">69dd0610d4a97bddddb2029b4eb429d0</property>
  <property name="kdenlive:audio_max1">1</property>
  <property name="xml">was here</property>
  <property name="meta.media.frame_rate_num">30</property>
  <property name="meta.media.frame_rate_den">1</property>
  <property name="meta.media.colorspace">709</property>
  <property name="meta.media.color_trc">1</property>
  <property name="meta.media.has_b_frames">0</property>
  <property name="meta.media.width">1920</property>
  <property name="meta.media.height">1080</property>
  <property name="meta.media.color_range">mpeg</property>
  <property name="meta.media.top_field_first">0</property>
  <property name="meta.media.progressive">1</property>
  <property name="set.test_audio">1</property>
  <property name="set.test_image">0</property>
 </producer>
 <producer id="producer49" in="00:00:00.000" out="00:33:34.267">
  <property name="length">60429</property>
  <property name="eof">pause</property>
  <property name="resource">clips/03.0 Shapes desktop.mkv</property>
  <property name="audio_index">1</property>
  <property name="video_index">0</property>
  <property name="mute_on_pause">0</property>
  <property name="mlt_service">avformat-novalidate</property>
  <property name="seekable">1</property>
  <property name="aspect_ratio">1</property>
  <property name="format">3</property>
  <property name="kdenlive:clipname"/>
  <property name="kdenlive:clip_type">0</property>
  <property name="kdenlive:folderid">-1</property>
  <property name="kdenlive:id">18</property>
  <property name="kdenlive:file_size">631060129</property>
  <property name="kdenlive:file_hash">46c791aa4c2d40544ab5874183465931</property>
  <property name="kdenlive:audio_max1">0</property>
  <property name="xml">was here</property>
  <property name="meta.media.nb_streams">2</property>
  <property name="meta.media.0.stream.type">video</property>
  <property name="meta.media.0.stream.frame_rate">30</property>
  <property name="meta.media.0.stream.sample_aspect_ratio">0</property>
  <property name="meta.media.0.codec.width">1920</property>
  <property name="meta.media.0.codec.height">1080</property>
  <property name="meta.media.0.codec.rotate">0</property>
  <property name="meta.media.0.codec.pix_fmt">yuv420p</property>
  <property name="meta.media.0.codec.sample_aspect_ratio">1</property>
  <property name="meta.media.0.codec.colorspace">709</property>
  <property name="meta.media.0.codec.color_trc">1</property>
  <property name="meta.media.0.codec.name">h264</property>
  <property name="meta.media.0.codec.long_name">H.264 / AVC / MPEG-4 AVC / MPEG-4 part 10</property>
  <property name="meta.media.0.codec.bit_rate">0</property>
  <property name="meta.attr.0.stream.DURATION.markup">00:33:34.300000000</property>
  <property name="meta.media.1.stream.type">audio</property>
  <property name="meta.media.1.codec.sample_fmt">fltp</property>
  <property name="meta.media.1.codec.sample_rate">48000</property>
  <property name="meta.media.1.codec.channels">2</property>
  <property name="meta.media.1.codec.name">aac</property>
  <property name="meta.media.1.codec.long_name">AAC (Advanced Audio Coding)</property>
  <property name="meta.media.1.codec.bit_rate">0</property>
  <property name="meta.attr.1.stream.title.markup">Source Record</property>
  <property name="meta.attr.1.stream.DURATION.markup">00:33:34.272000000</property>
  <property name="meta.attr.ENCODER.markup">Lavf58.76.100</property>
  <property name="meta.media.sample_aspect_num">1</property>
  <property name="meta.media.sample_aspect_den">1</property>
  <property name="meta.media.frame_rate_num">30</property>
  <property name="meta.media.frame_rate_den">1</property>
  <property name="meta.media.colorspace">709</property>
  <property name="meta.media.color_trc">1</property>
  <property name="meta.media.has_b_frames">0</property>
  <property name="meta.media.width">1920</property>
  <property name="meta.media.height">1080</property>
  <property name="meta.media.color_range">mpeg</property>
  <property name="meta.media.top_field_first">0</property>
  <property name="meta.media.progressive">1</property>
  <property name="set.test_audio">1</property>
  <property name="set.test_image">0</property>
 </producer>
 <producer id="producer50" in="00:00:00.000" out="00:08:19.067">
  <property name="length">14973</property>
  <property name="eof">pause</property>
  <property name="resource">clips/04.0 examples desktop.mkv</property>
  <property name="audio_index">1</property>
  <property name="video_index">0</property>
  <property name="mute_on_pause">0</property>
  <property name="mlt_service">avformat-novalidate</property>
  <property name="meta.media.nb_streams">2</property>
  <property name="meta.media.0.stream.type">video</property>
  <property name="meta.media.0.stream.frame_rate">30</property>
  <property name="meta.media.0.stream.sample_aspect_ratio">0</property>
  <property name="meta.media.0.codec.width">1920</property>
  <property name="meta.media.0.codec.height">1080</property>
  <property name="meta.media.0.codec.rotate">0</property>
  <property name="meta.media.0.codec.pix_fmt">yuv420p</property>
  <property name="meta.media.0.codec.sample_aspect_ratio">1</property>
  <property name="meta.media.0.codec.colorspace">709</property>
  <property name="meta.media.0.codec.color_trc">1</property>
  <property name="meta.media.0.codec.name">h264</property>
  <property name="meta.media.0.codec.long_name">H.264 / AVC / MPEG-4 AVC / MPEG-4 part 10</property>
  <property name="meta.media.0.codec.bit_rate">0</property>
  <property name="meta.attr.0.stream.DURATION.markup">00:08:19.100000000</property>
  <property name="meta.media.1.stream.type">audio</property>
  <property name="meta.media.1.codec.sample_fmt">fltp</property>
  <property name="meta.media.1.codec.sample_rate">48000</property>
  <property name="meta.media.1.codec.channels">2</property>
  <property name="meta.media.1.codec.name">aac</property>
  <property name="meta.media.1.codec.long_name">AAC (Advanced Audio Coding)</property>
  <property name="meta.media.1.codec.bit_rate">0</property>
  <property name="meta.attr.1.stream.title.markup">Source Record</property>
  <property name="meta.attr.1.stream.DURATION.markup">00:08:19.114000000</property>
  <property name="meta.attr.ENCODER.markup">Lavf58.76.100</property>
  <property name="seekable">1</property>
  <property name="meta.media.sample_aspect_num">1</property>
  <property name="meta.media.sample_aspect_den">1</property>
  <property name="aspect_ratio">1</property>
  <property name="format">3</property>
  <property name="kdenlive:clipname"/>
  <property name="kdenlive:clip_type">0</property>
  <property name="kdenlive:folderid">-1</property>
  <property name="kdenlive:id">9</property>
  <property name="kdenlive:file_size">156406009</property>
  <property name="kdenlive:file_hash">7f91ba74889d494d7efc8794a681e8ae</property>
  <property name="kdenlive:audio_max1">1</property>
  <property name="xml">was here</property>
  <property name="meta.media.frame_rate_num">30</property>
  <property name="meta.media.frame_rate_den">1</property>
  <property name="meta.media.colorspace">709</property>
  <property name="meta.media.color_trc">1</property>
  <property name="meta.media.has_b_frames">0</property>
  <property name="meta.media.width">1920</property>
  <property name="meta.media.height">1080</property>
  <property name="meta.media.color_range">mpeg</property>
  <property name="meta.media.top_field_first">0</property>
  <property name="meta.media.progressive">1</property>
  <property name="set.test_audio">1</property>
  <property name="set.test_image">0</property>
 </producer>
 <producer id="producer51" in="00:00:00.000" out="00:14:22.033">
  <property name="length">25862</property>
  <property name="eof">pause</property>
  <property name="resource">clips/04.1 example garden acre Desktop.mkv</property>
  <property name="audio_index">1</property>
  <property name="video_index">0</property>
  <property name="mute_on_pause">0</property>
  <property name="mlt_service">avformat-novalidate</property>
  <property name="meta.media.nb_streams">2</property>
  <property name="meta.media.0.stream.type">video</property>
  <property name="meta.media.0.stream.frame_rate">30</property>
  <property name="meta.media.0.stream.sample_aspect_ratio">0</property>
  <property name="meta.media.0.codec.width">1920</property>
  <property name="meta.media.0.codec.height">1080</property>
  <property name="meta.media.0.codec.rotate">0</property>
  <property name="meta.media.0.codec.pix_fmt">yuv420p</property>
  <property name="meta.media.0.codec.sample_aspect_ratio">1</property>
  <property name="meta.media.0.codec.colorspace">709</property>
  <property name="meta.media.0.codec.color_trc">1</property>
  <property name="meta.media.0.codec.name">h264</property>
  <property name="meta.media.0.codec.long_name">H.264 / AVC / MPEG-4 AVC / MPEG-4 part 10</property>
  <property name="meta.media.0.codec.bit_rate">0</property>
  <property name="meta.attr.0.stream.DURATION.markup">00:14:22.066000000</property>
  <property name="meta.media.1.stream.type">audio</property>
  <property name="meta.media.1.codec.sample_fmt">fltp</property>
  <property name="meta.media.1.codec.sample_rate">48000</property>
  <property name="meta.media.1.codec.channels">2</property>
  <property name="meta.media.1.codec.name">aac</property>
  <property name="meta.media.1.codec.long_name">AAC (Advanced Audio Coding)</property>
  <property name="meta.media.1.codec.bit_rate">0</property>
  <property name="meta.attr.1.stream.title.markup">Source Record</property>
  <property name="meta.attr.1.stream.DURATION.markup">00:14:22.080000000</property>
  <property name="meta.attr.ENCODER.markup">Lavf58.76.100</property>
  <property name="seekable">1</property>
  <property name="meta.media.sample_aspect_num">1</property>
  <property name="meta.media.sample_aspect_den">1</property>
  <property name="aspect_ratio">1</property>
  <property name="format">3</property>
  <property name="kdenlive:clipname"/>
  <property name="kdenlive:clip_type">0</property>
  <property name="kdenlive:folderid">-1</property>
  <property name="kdenlive:id">12</property>
  <property name="kdenlive:file_size">270056992</property>
  <property name="kdenlive:file_hash">1d05c73120af17cfb84ce7a970247940</property>
  <property name="kdenlive:audio_max1">1</property>
  <property name="xml">was here</property>
  <property name="meta.media.frame_rate_num">30</property>
  <property name="meta.media.frame_rate_den">1</property>
  <property name="meta.media.colorspace">709</property>
  <property name="meta.media.color_trc">1</property>
  <property name="meta.media.has_b_frames">0</property>
  <property name="meta.media.width">1920</property>
  <property name="meta.media.height">1080</property>
  <property name="meta.media.color_range">mpeg</property>
  <property name="meta.media.top_field_first">0</property>
  <property name="meta.media.progressive">1</property>
  <property name="set.test_audio">1</property>
  <property name="set.test_image">0</property>
 </producer>
 <producer id="producer52" in="00:00:00.000" out="00:10:03.700">
  <property name="length">18112</property>
  <property name="eof">pause</property>
  <property name="resource">clips/04.2 example garden town Desktop.mkv</property>
  <property name="audio_index">1</property>
  <property name="video_index">0</property>
  <property name="mute_on_pause">0</property>
  <property name="mlt_service">avformat-novalidate</property>
  <property name="meta.media.nb_streams">2</property>
  <property name="meta.media.0.stream.type">video</property>
  <property name="meta.media.0.stream.frame_rate">30</property>
  <property name="meta.media.0.stream.sample_aspect_ratio">0</property>
  <property name="meta.media.0.codec.width">1920</property>
  <property name="meta.media.0.codec.height">1080</property>
  <property name="meta.media.0.codec.rotate">0</property>
  <property name="meta.media.0.codec.pix_fmt">yuv420p</property>
  <property name="meta.media.0.codec.sample_aspect_ratio">1</property>
  <property name="meta.media.0.codec.colorspace">709</property>
  <property name="meta.media.0.codec.color_trc">1</property>
  <property name="meta.media.0.codec.name">h264</property>
  <property name="meta.media.0.codec.long_name">H.264 / AVC / MPEG-4 AVC / MPEG-4 part 10</property>
  <property name="meta.media.0.codec.bit_rate">0</property>
  <property name="meta.attr.0.stream.DURATION.markup">00:10:03.733000000</property>
  <property name="meta.media.1.stream.type">audio</property>
  <property name="meta.media.1.codec.sample_fmt">fltp</property>
  <property name="meta.media.1.codec.sample_rate">48000</property>
  <property name="meta.media.1.codec.channels">2</property>
  <property name="meta.media.1.codec.name">aac</property>
  <property name="meta.media.1.codec.long_name">AAC (Advanced Audio Coding)</property>
  <property name="meta.media.1.codec.bit_rate">0</property>
  <property name="meta.attr.1.stream.title.markup">Source Record</property>
  <property name="meta.attr.1.stream.DURATION.markup">00:10:03.712000000</property>
  <property name="meta.attr.ENCODER.markup">Lavf58.76.100</property>
  <property name="seekable">1</property>
  <property name="meta.media.sample_aspect_num">1</property>
  <property name="meta.media.sample_aspect_den">1</property>
  <property name="aspect_ratio">1</property>
  <property name="format">3</property>
  <property name="kdenlive:clipname"/>
  <property name="kdenlive:clip_type">0</property>
  <property name="kdenlive:folderid">-1</property>
  <property name="kdenlive:id">15</property>
  <property name="kdenlive:file_size">189121920</property>
  <property name="kdenlive:file_hash">e6c0e0364bd352fa9c71f10c825b8cc6</property>
  <property name="kdenlive:audio_max1">1</property>
  <property name="xml">was here</property>
  <property name="meta.media.frame_rate_num">30</property>
  <property name="meta.media.frame_rate_den">1</property>
  <property name="meta.media.colorspace">709</property>
  <property name="meta.media.color_trc">1</property>
  <property name="meta.media.has_b_frames">0</property>
  <property name="meta.media.width">1920</property>
  <property name="meta.media.height">1080</property>
  <property name="meta.media.color_range">mpeg</property>
  <property name="meta.media.top_field_first">0</property>
  <property name="meta.media.progressive">1</property>
  <property name="set.test_audio">1</property>
  <property name="set.test_image">0</property>
 </producer>
 <playlist id="playlist6">
  <entry producer="producer47" in="00:00:06.400" out="00:00:50.967">
   <property name="kdenlive:id">3</property>
  </entry>
  <entry producer="producer47" in="00:00:53.033" out="00:00:58.467">
   <property name="kdenlive:id">3</property>
  </entry>
  <entry producer="producer47" in="00:01:00.167" out="00:01:08.533">
   <property name="kdenlive:id">3</property>
  </entry>
  <entry producer="producer47" in="00:01:10.700" out="00:01:53.167">
   <property name="kdenlive:id">3</property>
  </entry>
  <entry producer="producer47" in="00:01:54.333" out="00:01:58.900">
   <property name="kdenlive:id">3</property>
  </entry>
  <entry producer="producer47" in="00:02:00.800" out="00:02:14.033">
   <property name="kdenlive:id">3</property>
  </entry>
  <entry producer="producer47" in="00:02:16.100" out="00:02:21.333">
   <property name="kdenlive:id">3</property>
  </entry>
  <entry producer="producer47" in="00:02:22.533" out="00:02:39.667">
   <property name="kdenlive:id">3</property>
  </entry>
  <entry producer="producer47" in="00:02:41.200" out="00:02:51.600">
   <property name="kdenlive:id">3</property>
  </entry>
  <entry producer="producer47" in="00:02:52.133" out="00:02:55.267">
   <property name="kdenlive:id">3</property>
  </entry>
  <entry producer="producer47" in="00:02:57.233" out="00:03:25.633">
   <property name="kdenlive:id">3</property>
  </entry>
  <entry producer="producer47" in="00:03:26.700" out="00:03:49.067">
   <property name="kdenlive:id">3</property>
  </entry>
  <entry producer="producer47" in="00:03:49.867" out="00:03:57.267">
   <property name="kdenlive:id">3</property>
  </entry>
  <entry producer="producer47" in="00:04:05.267" out="00:04:09.067">
   <property name="kdenlive:id">3</property>
  </entry>
  <entry producer="producer47" in="00:05:48.400" out="00:06:14.967">
   <property name="kdenlive:id">3</property>
  </entry>
  <entry producer="producer47" in="00:06:16.200" out="00:06:41.767">
   <property name="kdenlive:id">3</property>
  </entry>
  <entry producer="producer47" in="00:06:44.300" out="00:06:55.167">
   <property name="kdenlive:id">3</property>
  </entry>
  <entry producer="producer47" in="00:06:57.233" out="00:07:00.933">
   <property name="kdenlive:id">3</property>
  </entry>
  <entry producer="producer47" in="00:07:02.067" out="00:07:26.000">
   <property name="kdenlive:id">3</property>
  </entry>
  <entry producer="producer47" in="00:07:30.133" out="00:07:42.800">
   <property name="kdenlive:id">3</property>
  </entry>
  <entry producer="producer47" in="00:07:43.667" out="00:08:00.400">
   <property name="kdenlive:id">3</property>
  </entry>
  <entry producer="producer47" in="00:08:02.367" out="00:08:13.833">
   <property name="kdenlive:id">3</property>
  </entry>
  <entry producer="producer47" in="00:09:50.733" out="00:10:37.900">
   <property name="kdenlive:id">3</property>
  </entry>
  <entry producer="producer47" in="00:10:39.700" out="00:10:45.867">
   <property name="kdenlive:id">3</property>
  </entry>
  <entry producer="producer47" in="00:12:37.167" out="00:14:40.267">
   <property name="kdenlive:id">3</property>
  </entry>
  <entry producer="producer47" in="00:16:21.667" out="00:17:32.800">
   <property name="kdenlive:id">3</property>
  </entry>
  <entry producer="producer47" in="00:17:57.267" out="00:18:26.933">
   <property name="kdenlive:id">3</property>
  </entry>
  <entry producer="producer47" in="00:18:28.967" out="00:19:10.733">
   <property name="kdenlive:id">3</property>
  </entry>
  <entry producer="producer47" in="00:19:45.333" out="00:20:45.367">
   <property name="kdenlive:id">3</property>
  </entry>
  <entry producer="producer47" in="00:22:10.933" out="00:23:12.400">
   <property name="kdenlive:id">3</property>
  </entry>
  <entry producer="producer26" in="00:00:00.000" out="00:00:01.667">
   <property name="kdenlive:id">34</property>
  </entry>
  <entry producer="producer47" in="00:23:14.133" out="00:23:22.333">
   <property name="kdenlive:id">3</property>
  </entry>
  <entry producer="producer47" in="00:23:23.767" out="00:23:40.833">
   <property name="kdenlive:id">3</property>
  </entry>
  <entry producer="producer47" in="00:23:42.100" out="00:24:06.100">
   <property name="kdenlive:id">3</property>
  </entry>
  <entry producer="producer48" in="00:00:03.133" out="00:01:38.767">
   <property name="kdenlive:id">6</property>
  </entry>
  <entry producer="producer48" in="00:01:42.667" out="00:02:11.200">
   <property name="kdenlive:id">6</property>
  </entry>
  <entry producer="producer48" in="00:02:19.933" out="00:02:31.367">
   <property name="kdenlive:id">6</property>
  </entry>
  <entry producer="producer48" in="00:02:33.100" out="00:02:42.267">
   <property name="kdenlive:id">6</property>
  </entry>
  <entry producer="producer48" in="00:02:44.500" out="00:02:48.200">
   <property name="kdenlive:id">6</property>
  </entry>
  <entry producer="producer48" in="00:03:02.833" out="00:03:19.733">
   <property name="kdenlive:id">6</property>
  </entry>
  <entry producer="producer48" in="00:03:26.167" out="00:03:44.867">
   <property name="kdenlive:id">6</property>
  </entry>
  <entry producer="producer48" in="00:03:47.267" out="00:03:49.233">
   <property name="kdenlive:id">6</property>
  </entry>
  <entry producer="producer48" in="00:03:59.833" out="00:04:10.667">
   <property name="kdenlive:id">6</property>
  </entry>
  <entry producer="producer48" in="00:04:19.367" out="00:04:23.533">
   <property name="kdenlive:id">6</property>
  </entry>
  <entry producer="producer48" in="00:04:26.800" out="00:04:28.367">
   <property name="kdenlive:id">6</property>
  </entry>
  <entry producer="producer48" in="00:04:31.233" out="00:04:41.300">
   <property name="kdenlive:id">6</property>
  </entry>
  <entry producer="producer48" in="00:04:58.033" out="00:05:16.800">
   <property name="kdenlive:id">6</property>
  </entry>
  <entry producer="producer48" in="00:05:38.867" out="00:05:40.300">
   <property name="kdenlive:id">6</property>
  </entry>
  <entry producer="producer48" in="00:05:42.833" out="00:05:47.233">
   <property name="kdenlive:id">6</property>
  </entry>
  <entry producer="producer48" in="00:05:49.567" out="00:05:52.100">
   <property name="kdenlive:id">6</property>
  </entry>
  <entry producer="producer48" in="00:06:01.167" out="00:06:04.933">
   <property name="kdenlive:id">6</property>
  </entry>
  <entry producer="producer48" in="00:06:05.700" out="00:06:11.867">
   <property name="kdenlive:id">6</property>
  </entry>
  <entry producer="producer48" in="00:06:13.333" out="00:06:14.700">
   <property name="kdenlive:id">6</property>
  </entry>
  <entry producer="producer48" in="00:07:09.567" out="00:07:12.533">
   <property name="kdenlive:id">6</property>
  </entry>
  <entry producer="producer48" in="00:07:13.467" out="00:07:50.900">
   <property name="kdenlive:id">6</property>
  </entry>
  <entry producer="producer48" in="00:08:00.767" out="00:08:08.000">
   <property name="kdenlive:id">6</property>
  </entry>
  <entry producer="producer48" in="00:08:08.867" out="00:08:53.133">
   <property name="kdenlive:id">6</property>
  </entry>
  <entry producer="producer48" in="00:08:57.067" out="00:09:09.233">
   <property name="kdenlive:id">6</property>
  </entry>
  <entry producer="producer49" in="00:00:02.533" out="00:00:32.067">
   <property name="kdenlive:id">18</property>
  </entry>
  <entry producer="producer49" in="00:00:36.433" out="00:00:38.200">
   <property name="kdenlive:id">18</property>
  </entry>
  <entry producer="producer49" in="00:00:39.267" out="00:03:28.667">
   <property name="kdenlive:id">18</property>
  </entry>
  <entry producer="producer49" in="00:03:32.300" out="00:04:24.633">
   <property name="kdenlive:id">18</property>
  </entry>
  <entry producer="producer49" in="00:04:39.000" out="00:04:57.800">
   <property name="kdenlive:id">18</property>
  </entry>
  <entry producer="producer49" in="00:04:59.333" out="00:05:07.200">
   <property name="kdenlive:id">18</property>
  </entry>
  <entry producer="producer49" in="00:05:11.067" out="00:05:16.533">
   <property name="kdenlive:id">18</property>
  </entry>
  <entry producer="producer49" in="00:05:18.700" out="00:05:21.933">
   <property name="kdenlive:id">18</property>
  </entry>
  <entry producer="producer49" in="00:05:28.033" out="00:05:40.333">
   <property name="kdenlive:id">18</property>
  </entry>
  <entry producer="producer49" in="00:05:53.500" out="00:05:58.267">
   <property name="kdenlive:id">18</property>
  </entry>
  <entry producer="producer49" in="00:05:59.500" out="00:09:09.300">
   <property name="kdenlive:id">18</property>
  </entry>
  <entry producer="producer49" in="00:09:13.933" out="00:33:34.267">
   <property name="kdenlive:id">18</property>
  </entry>
  <blank length="00:00:09.500"/>
  <entry producer="producer50" in="00:00:00.000" out="00:08:19.067">
   <property name="kdenlive:id">9</property>
  </entry>
  <entry producer="producer51" in="00:00:00.000" out="00:14:22.033">
   <property name="kdenlive:id">12</property>
  </entry>
  <blank length="00:00:53.333"/>
  <entry producer="producer52" in="00:00:00.000" out="00:10:03.700">
   <property name="kdenlive:id">15</property>
  </entry>
 </playlist>
 <playlist id="playlist7"/>
 <tractor id="tractor3" in="00:00:00.000" out="01:26:20.233">
  <property name="kdenlive:trackheight">67</property>
  <property name="kdenlive:timeline_active">1</property>
  <property name="kdenlive:collapsed">0</property>
  <property name="kdenlive:thumbs_format"/>
  <property name="kdenlive:audio_rec"/>
  <track hide="audio" producer="playlist6"/>
  <track hide="audio" producer="playlist7"/>
 </tractor>
 <producer id="producer53" in="00:00:00.000" out="00:24:21.167">
  <property name="length">43836</property>
  <property name="eof">pause</property>
  <property name="resource">clips/01 CAD facecam.mkv</property>
  <property name="audio_index">1</property>
  <property name="video_index">0</property>
  <property name="mute_on_pause">0</property>
  <property name="mlt_service">avformat-novalidate</property>
  <property name="meta.media.nb_streams">2</property>
  <property name="meta.media.0.stream.type">video</property>
  <property name="meta.media.0.stream.frame_rate">30</property>
  <property name="meta.media.0.stream.sample_aspect_ratio">0</property>
  <property name="meta.media.0.codec.width">800</property>
  <property name="meta.media.0.codec.height">600</property>
  <property name="meta.media.0.codec.rotate">0</property>
  <property name="meta.media.0.codec.pix_fmt">yuv420p</property>
  <property name="meta.media.0.codec.sample_aspect_ratio">1</property>
  <property name="meta.media.0.codec.colorspace">709</property>
  <property name="meta.media.0.codec.color_trc">1</property>
  <property name="meta.media.0.codec.name">h264</property>
  <property name="meta.media.0.codec.long_name">H.264 / AVC / MPEG-4 AVC / MPEG-4 part 10</property>
  <property name="meta.media.0.codec.bit_rate">0</property>
  <property name="meta.attr.0.stream.DURATION.markup">00:24:21.166000000</property>
  <property name="meta.media.1.stream.type">audio</property>
  <property name="meta.media.1.codec.sample_fmt">fltp</property>
  <property name="meta.media.1.codec.sample_rate">48000</property>
  <property name="meta.media.1.codec.channels">2</property>
  <property name="meta.media.1.codec.name">aac</property>
  <property name="meta.media.1.codec.long_name">AAC (Advanced Audio Coding)</property>
  <property name="meta.media.1.codec.bit_rate">0</property>
  <property name="meta.attr.1.stream.title.markup">Source Record</property>
  <property name="meta.attr.1.stream.DURATION.markup">00:24:21.184000000</property>
  <property name="meta.attr.ENCODER.markup">Lavf58.76.100</property>
  <property name="seekable">1</property>
  <property name="meta.media.sample_aspect_num">1</property>
  <property name="meta.media.sample_aspect_den">1</property>
  <property name="aspect_ratio">1</property>
  <property name="format">3</property>
  <property name="kdenlive:clipname"/>
  <property name="kdenlive:clip_type">0</property>
  <property name="kdenlive:folderid">-1</property>
  <property name="kdenlive:id">4</property>
  <property name="kdenlive:file_size">457797774</property>
  <property name="kdenlive:file_hash">42fbf6649d003d9839583cf493490ac7</property>
  <property name="kdenlive:audio_max1">1</property>
  <property name="xml">was here</property>
  <property name="meta.media.frame_rate_num">30</property>
  <property name="meta.media.frame_rate_den">1</property>
  <property name="meta.media.colorspace">709</property>
  <property name="meta.media.color_trc">1</property>
  <property name="meta.media.has_b_frames">0</property>
  <property name="meta.media.width">800</property>
  <property name="meta.media.height">600</property>
  <property name="meta.media.color_range">mpeg</property>
  <property name="meta.media.top_field_first">0</property>
  <property name="meta.media.progressive">1</property>
  <property name="set.test_audio">1</property>
  <property name="set.test_image">0</property>
 </producer>
 <producer id="producer54" in="00:00:00.000" out="00:09:14.967">
  <property name="length">16650</property>
  <property name="eof">pause</property>
  <property name="resource">clips/02 Setup facecam.mkv</property>
  <property name="audio_index">1</property>
  <property name="video_index">0</property>
  <property name="mute_on_pause">0</property>
  <property name="mlt_service">avformat-novalidate</property>
  <property name="meta.media.nb_streams">2</property>
  <property name="meta.media.0.stream.type">video</property>
  <property name="meta.media.0.stream.frame_rate">30</property>
  <property name="meta.media.0.stream.sample_aspect_ratio">0</property>
  <property name="meta.media.0.codec.width">800</property>
  <property name="meta.media.0.codec.height">600</property>
  <property name="meta.media.0.codec.rotate">0</property>
  <property name="meta.media.0.codec.pix_fmt">yuv420p</property>
  <property name="meta.media.0.codec.sample_aspect_ratio">1</property>
  <property name="meta.media.0.codec.colorspace">709</property>
  <property name="meta.media.0.codec.color_trc">1</property>
  <property name="meta.media.0.codec.name">h264</property>
  <property name="meta.media.0.codec.long_name">H.264 / AVC / MPEG-4 AVC / MPEG-4 part 10</property>
  <property name="meta.media.0.codec.bit_rate">0</property>
  <property name="meta.attr.0.stream.DURATION.markup">00:09:14.966000000</property>
  <property name="meta.media.1.stream.type">audio</property>
  <property name="meta.media.1.codec.sample_fmt">fltp</property>
  <property name="meta.media.1.codec.sample_rate">48000</property>
  <property name="meta.media.1.codec.channels">2</property>
  <property name="meta.media.1.codec.name">aac</property>
  <property name="meta.media.1.codec.long_name">AAC (Advanced Audio Coding)</property>
  <property name="meta.media.1.codec.bit_rate">0</property>
  <property name="meta.attr.1.stream.title.markup">Source Record</property>
  <property name="meta.attr.1.stream.DURATION.markup">00:09:14.986000000</property>
  <property name="meta.attr.ENCODER.markup">Lavf58.76.100</property>
  <property name="seekable">1</property>
  <property name="meta.media.sample_aspect_num">1</property>
  <property name="meta.media.sample_aspect_den">1</property>
  <property name="aspect_ratio">1</property>
  <property name="format">3</property>
  <property name="kdenlive:clipname"/>
  <property name="kdenlive:clip_type">0</property>
  <property name="kdenlive:folderid">-1</property>
  <property name="kdenlive:id">7</property>
  <property name="kdenlive:file_size">173887131</property>
  <property name="kdenlive:file_hash">1f8ba7dc7065f6f6e4b29e68ba7174db</property>
  <property name="kdenlive:audio_max1">1</property>
  <property name="xml">was here</property>
  <property name="meta.media.frame_rate_num">30</property>
  <property name="meta.media.frame_rate_den">1</property>
  <property name="meta.media.colorspace">709</property>
  <property name="meta.media.color_trc">1</property>
  <property name="meta.media.has_b_frames">0</property>
  <property name="meta.media.width">800</property>
  <property name="meta.media.height">600</property>
  <property name="meta.media.color_range">mpeg</property>
  <property name="meta.media.top_field_first">0</property>
  <property name="meta.media.progressive">1</property>
  <property name="set.test_audio">1</property>
  <property name="set.test_image">0</property>
 </producer>
 <producer id="producer55" in="00:00:00.000" out="00:33:35.200">
  <property name="length">60457</property>
  <property name="eof">pause</property>
  <property name="resource">clips/03.0 Shapes facecam.mkv</property>
  <property name="audio_index">1</property>
  <property name="video_index">0</property>
  <property name="mute_on_pause">0</property>
  <property name="mlt_service">avformat-novalidate</property>
  <property name="seekable">1</property>
  <property name="aspect_ratio">1</property>
  <property name="format">3</property>
  <property name="kdenlive:clipname"/>
  <property name="kdenlive:clip_type">0</property>
  <property name="kdenlive:folderid">-1</property>
  <property name="kdenlive:id">19</property>
  <property name="kdenlive:file_size">631355807</property>
  <property name="kdenlive:file_hash">305fc04fbc6ef869af9bfe4f9efc5c98</property>
  <property name="kdenlive:audio_max1">0</property>
  <property name="xml">was here</property>
  <property name="meta.media.nb_streams">2</property>
  <property name="meta.media.0.stream.type">video</property>
  <property name="meta.media.0.stream.frame_rate">30</property>
  <property name="meta.media.0.stream.sample_aspect_ratio">0</property>
  <property name="meta.media.0.codec.width">800</property>
  <property name="meta.media.0.codec.height">600</property>
  <property name="meta.media.0.codec.rotate">0</property>
  <property name="meta.media.0.codec.pix_fmt">yuv420p</property>
  <property name="meta.media.0.codec.sample_aspect_ratio">1</property>
  <property name="meta.media.0.codec.colorspace">709</property>
  <property name="meta.media.0.codec.color_trc">1</property>
  <property name="meta.media.0.codec.name">h264</property>
  <property name="meta.media.0.codec.long_name">H.264 / AVC / MPEG-4 AVC / MPEG-4 part 10</property>
  <property name="meta.media.0.codec.bit_rate">0</property>
  <property name="meta.attr.0.stream.DURATION.markup">00:33:35.233000000</property>
  <property name="meta.media.1.stream.type">audio</property>
  <property name="meta.media.1.codec.sample_fmt">fltp</property>
  <property name="meta.media.1.codec.sample_rate">48000</property>
  <property name="meta.media.1.codec.channels">2</property>
  <property name="meta.media.1.codec.name">aac</property>
  <property name="meta.media.1.codec.long_name">AAC (Advanced Audio Coding)</property>
  <property name="meta.media.1.codec.bit_rate">0</property>
  <property name="meta.attr.1.stream.title.markup">Source Record</property>
  <property name="meta.attr.1.stream.DURATION.markup">00:33:35.232000000</property>
  <property name="meta.attr.ENCODER.markup">Lavf58.76.100</property>
  <property name="meta.media.sample_aspect_num">1</property>
  <property name="meta.media.sample_aspect_den">1</property>
  <property name="meta.media.frame_rate_num">30</property>
  <property name="meta.media.frame_rate_den">1</property>
  <property name="meta.media.colorspace">709</property>
  <property name="meta.media.color_trc">1</property>
  <property name="meta.media.has_b_frames">0</property>
  <property name="meta.media.width">800</property>
  <property name="meta.media.height">600</property>
  <property name="meta.media.color_range">mpeg</property>
  <property name="meta.media.top_field_first">0</property>
  <property name="meta.media.progressive">1</property>
  <property name="set.test_audio">1</property>
  <property name="set.test_image">0</property>
 </producer>
 <producer id="producer56" in="00:00:00.000" out="00:08:19.267">
  <property name="length">14979</property>
  <property name="eof">pause</property>
  <property name="resource">clips/04.0 examples facecam.mkv</property>
  <property name="audio_index">1</property>
  <property name="video_index">0</property>
  <property name="mute_on_pause">0</property>
  <property name="mlt_service">avformat-novalidate</property>
  <property name="meta.media.nb_streams">2</property>
  <property name="meta.media.0.stream.type">video</property>
  <property name="meta.media.0.stream.frame_rate">30</property>
  <property name="meta.media.0.stream.sample_aspect_ratio">0</property>
  <property name="meta.media.0.codec.width">800</property>
  <property name="meta.media.0.codec.height">600</property>
  <property name="meta.media.0.codec.rotate">0</property>
  <property name="meta.media.0.codec.pix_fmt">yuv420p</property>
  <property name="meta.media.0.codec.sample_aspect_ratio">1</property>
  <property name="meta.media.0.codec.colorspace">709</property>
  <property name="meta.media.0.codec.color_trc">1</property>
  <property name="meta.media.0.codec.name">h264</property>
  <property name="meta.media.0.codec.long_name">H.264 / AVC / MPEG-4 AVC / MPEG-4 part 10</property>
  <property name="meta.media.0.codec.bit_rate">0</property>
  <property name="meta.attr.0.stream.DURATION.markup">00:08:19.300000000</property>
  <property name="meta.media.1.stream.type">audio</property>
  <property name="meta.media.1.codec.sample_fmt">fltp</property>
  <property name="meta.media.1.codec.sample_rate">48000</property>
  <property name="meta.media.1.codec.channels">2</property>
  <property name="meta.media.1.codec.name">aac</property>
  <property name="meta.media.1.codec.long_name">AAC (Advanced Audio Coding)</property>
  <property name="meta.media.1.codec.bit_rate">0</property>
  <property name="meta.attr.1.stream.title.markup">Source Record</property>
  <property name="meta.attr.1.stream.DURATION.markup">00:08:19.285000000</property>
  <property name="meta.attr.ENCODER.markup">Lavf58.76.100</property>
  <property name="seekable">1</property>
  <property name="meta.media.sample_aspect_num">1</property>
  <property name="meta.media.sample_aspect_den">1</property>
  <property name="aspect_ratio">1</property>
  <property name="format">3</property>
  <property name="kdenlive:clipname"/>
  <property name="kdenlive:clip_type">0</property>
  <property name="kdenlive:folderid">-1</property>
  <property name="kdenlive:id">10</property>
  <property name="kdenlive:file_size">156453412</property>
  <property name="kdenlive:file_hash">ea3e928635eee5f7eccd0f6ee2fb6f3a</property>
  <property name="kdenlive:audio_max1">1</property>
  <property name="xml">was here</property>
  <property name="meta.media.frame_rate_num">30</property>
  <property name="meta.media.frame_rate_den">1</property>
  <property name="meta.media.colorspace">709</property>
  <property name="meta.media.color_trc">1</property>
  <property name="meta.media.has_b_frames">0</property>
  <property name="meta.media.width">800</property>
  <property name="meta.media.height">600</property>
  <property name="meta.media.color_range">mpeg</property>
  <property name="meta.media.top_field_first">0</property>
  <property name="meta.media.progressive">1</property>
  <property name="set.test_audio">1</property>
  <property name="set.test_image">0</property>
 </producer>
 <producer id="producer57" in="00:00:00.000" out="00:14:22.433">
  <property name="length">25874</property>
  <property name="eof">pause</property>
  <property name="resource">clips/04.1 example garden acre facecam.mkv</property>
  <property name="audio_index">1</property>
  <property name="video_index">0</property>
  <property name="mute_on_pause">0</property>
  <property name="mlt_service">avformat-novalidate</property>
  <property name="meta.media.nb_streams">2</property>
  <property name="meta.media.0.stream.type">video</property>
  <property name="meta.media.0.stream.frame_rate">30</property>
  <property name="meta.media.0.stream.sample_aspect_ratio">0</property>
  <property name="meta.media.0.codec.width">800</property>
  <property name="meta.media.0.codec.height">600</property>
  <property name="meta.media.0.codec.rotate">0</property>
  <property name="meta.media.0.codec.pix_fmt">yuv420p</property>
  <property name="meta.media.0.codec.sample_aspect_ratio">1</property>
  <property name="meta.media.0.codec.colorspace">709</property>
  <property name="meta.media.0.codec.color_trc">1</property>
  <property name="meta.media.0.codec.name">h264</property>
  <property name="meta.media.0.codec.long_name">H.264 / AVC / MPEG-4 AVC / MPEG-4 part 10</property>
  <property name="meta.media.0.codec.bit_rate">0</property>
  <property name="meta.attr.0.stream.DURATION.markup">00:14:22.466000000</property>
  <property name="meta.media.1.stream.type">audio</property>
  <property name="meta.media.1.codec.sample_fmt">fltp</property>
  <property name="meta.media.1.codec.sample_rate">48000</property>
  <property name="meta.media.1.codec.channels">2</property>
  <property name="meta.media.1.codec.name">aac</property>
  <property name="meta.media.1.codec.long_name">AAC (Advanced Audio Coding)</property>
  <property name="meta.media.1.codec.bit_rate">0</property>
  <property name="meta.attr.1.stream.title.markup">Source Record</property>
  <property name="meta.attr.1.stream.DURATION.markup">00:14:22.464000000</property>
  <property name="meta.attr.ENCODER.markup">Lavf58.76.100</property>
  <property name="seekable">1</property>
  <property name="meta.media.sample_aspect_num">1</property>
  <property name="meta.media.sample_aspect_den">1</property>
  <property name="aspect_ratio">1</property>
  <property name="format">3</property>
  <property name="kdenlive:clipname"/>
  <property name="kdenlive:clip_type">0</property>
  <property name="kdenlive:folderid">-1</property>
  <property name="kdenlive:id">13</property>
  <property name="kdenlive:file_size">270253548</property>
  <property name="kdenlive:file_hash">d995768142b8abbb24d96881d62c8bd0</property>
  <property name="kdenlive:audio_max1">1</property>
  <property name="xml">was here</property>
  <property name="meta.media.frame_rate_num">30</property>
  <property name="meta.media.frame_rate_den">1</property>
  <property name="meta.media.colorspace">709</property>
  <property name="meta.media.color_trc">1</property>
  <property name="meta.media.has_b_frames">0</property>
  <property name="meta.media.width">800</property>
  <property name="meta.media.height">600</property>
  <property name="meta.media.color_range">mpeg</property>
  <property name="meta.media.top_field_first">0</property>
  <property name="meta.media.progressive">1</property>
  <property name="set.test_audio">1</property>
  <property name="set.test_image">0</property>
 </producer>
 <producer id="producer58" in="00:00:00.000" out="00:10:14.800">
  <property name="length">18445</property>
  <property name="eof">pause</property>
  <property name="resource">clips/04.2 example garden town facecam.mkv</property>
  <property name="audio_index">1</property>
  <property name="video_index">0</property>
  <property name="mute_on_pause">0</property>
  <property name="mlt_service">avformat-novalidate</property>
  <property name="meta.media.nb_streams">2</property>
  <property name="meta.media.0.stream.type">video</property>
  <property name="meta.media.0.stream.frame_rate">30</property>
  <property name="meta.media.0.stream.sample_aspect_ratio">0</property>
  <property name="meta.media.0.codec.width">800</property>
  <property name="meta.media.0.codec.height">600</property>
  <property name="meta.media.0.codec.rotate">0</property>
  <property name="meta.media.0.codec.pix_fmt">yuv420p</property>
  <property name="meta.media.0.codec.sample_aspect_ratio">1</property>
  <property name="meta.media.0.codec.colorspace">709</property>
  <property name="meta.media.0.codec.color_trc">1</property>
  <property name="meta.media.0.codec.name">h264</property>
  <property name="meta.media.0.codec.long_name">H.264 / AVC / MPEG-4 AVC / MPEG-4 part 10</property>
  <property name="meta.media.0.codec.bit_rate">0</property>
  <property name="meta.attr.0.stream.DURATION.markup">00:10:14.833000000</property>
  <property name="meta.media.1.stream.type">audio</property>
  <property name="meta.media.1.codec.sample_fmt">fltp</property>
  <property name="meta.media.1.codec.sample_rate">48000</property>
  <property name="meta.media.1.codec.channels">2</property>
  <property name="meta.media.1.codec.name">aac</property>
  <property name="meta.media.1.codec.long_name">AAC (Advanced Audio Coding)</property>
  <property name="meta.media.1.codec.bit_rate">0</property>
  <property name="meta.attr.1.stream.title.markup">Source Record</property>
  <property name="meta.attr.1.stream.DURATION.markup">00:10:14.826000000</property>
  <property name="meta.attr.ENCODER.markup">Lavf58.76.100</property>
  <property name="seekable">1</property>
  <property name="meta.media.sample_aspect_num">1</property>
  <property name="meta.media.sample_aspect_den">1</property>
  <property name="aspect_ratio">1</property>
  <property name="format">3</property>
  <property name="kdenlive:clipname"/>
  <property name="kdenlive:clip_type">0</property>
  <property name="kdenlive:folderid">-1</property>
  <property name="kdenlive:id">16</property>
  <property name="kdenlive:file_size">192633513</property>
  <property name="kdenlive:file_hash">03e9fe36e8077ff4675bf84992bd03bc</property>
  <property name="kdenlive:audio_max1">1</property>
  <property name="xml">was here</property>
  <property name="meta.media.frame_rate_num">30</property>
  <property name="meta.media.frame_rate_den">1</property>
  <property name="meta.media.colorspace">709</property>
  <property name="meta.media.color_trc">1</property>
  <property name="meta.media.has_b_frames">0</property>
  <property name="meta.media.width">800</property>
  <property name="meta.media.height">600</property>
  <property name="meta.media.color_range">mpeg</property>
  <property name="meta.media.top_field_first">0</property>
  <property name="meta.media.progressive">1</property>
  <property name="set.test_audio">1</property>
  <property name="set.test_image">0</property>
 </producer>
 <playlist id="playlist8">
  <entry producer="producer53" in="00:00:06.400" out="00:00:50.967">
   <property name="kdenlive:id">4</property>
   <filter id="filter12">
    <property name="version">0.1</property>
    <property name="mlt_service">frei0r.scale0tilt</property>
    <property name="kdenlive_id">Facecam crop</property>
    <property name="Clip left">00:00:06.400=0.296875</property>
    <property name="Clip right">00:00:06.400=0.224219</property>
    <property name="Clip top">00:00:06.400=0.0944444</property>
    <property name="Clip bottom">00:00:06.400=0</property>
    <property name="Scale X">00:00:06.400=0.27</property>
    <property name="Scale Y">00:00:06.400=0.27</property>
    <property name="Tilt X">00:00:06.400=0.790104</property>
    <property name="Tilt Y">00:00:06.400=0.730556</property>
   </filter>
  </entry>
  <entry producer="producer53" in="00:00:53.033" out="00:00:58.467">
   <property name="kdenlive:id">4</property>
   <filter id="filter13">
    <property name="version">0.1</property>
    <property name="mlt_service">frei0r.scale0tilt</property>
    <property name="kdenlive_id">Facecam crop</property>
    <property name="Clip left">00:00:53.033=0.296875</property>
    <property name="Clip right">00:00:53.033=0.224219</property>
    <property name="Clip top">00:00:53.033=0.0944444</property>
    <property name="Clip bottom">00:00:53.033=0</property>
    <property name="Scale X">00:00:53.033=0.27</property>
    <property name="Scale Y">00:00:53.033=0.27</property>
    <property name="Tilt X">00:00:53.033=0.790104</property>
    <property name="Tilt Y">00:00:53.033=0.730556</property>
   </filter>
  </entry>
  <entry producer="producer53" in="00:01:00.167" out="00:01:08.533">
   <property name="kdenlive:id">4</property>
   <filter id="filter14">
    <property name="version">0.1</property>
    <property name="mlt_service">frei0r.scale0tilt</property>
    <property name="kdenlive_id">Facecam crop</property>
    <property name="Clip left">00:01:00.167=0.296875</property>
    <property name="Clip right">00:01:00.167=0.224219</property>
    <property name="Clip top">00:01:00.167=0.0944444</property>
    <property name="Clip bottom">00:01:00.167=0</property>
    <property name="Scale X">00:01:00.167=0.27</property>
    <property name="Scale Y">00:01:00.167=0.27</property>
    <property name="Tilt X">00:01:00.167=0.790104</property>
    <property name="Tilt Y">00:01:00.167=0.730556</property>
   </filter>
  </entry>
  <entry producer="producer53" in="00:01:10.700" out="00:01:53.167">
   <property name="kdenlive:id">4</property>
   <filter id="filter15">
    <property name="version">0.1</property>
    <property name="mlt_service">frei0r.scale0tilt</property>
    <property name="kdenlive_id">Facecam crop</property>
    <property name="Clip left">00:01:10.700=0.296875</property>
    <property name="Clip right">00:01:10.700=0.224219</property>
    <property name="Clip top">00:01:10.700=0.0944444</property>
    <property name="Clip bottom">00:01:10.700=0</property>
    <property name="Scale X">00:01:10.700=0.27</property>
    <property name="Scale Y">00:01:10.700=0.27</property>
    <property name="Tilt X">00:01:10.700=0.790104</property>
    <property name="Tilt Y">00:01:10.700=0.730556</property>
   </filter>
  </entry>
  <entry producer="producer53" in="00:01:54.333" out="00:01:58.900">
   <property name="kdenlive:id">4</property>
   <filter id="filter16">
    <property name="version">0.1</property>
    <property name="mlt_service">frei0r.scale0tilt</property>
    <property name="kdenlive_id">Facecam crop</property>
    <property name="Clip left">00:01:54.333=0.296875</property>
    <property name="Clip right">00:01:54.333=0.224219</property>
    <property name="Clip top">00:01:54.333=0.0944444</property>
    <property name="Clip bottom">00:01:54.333=0</property>
    <property name="Scale X">00:01:54.333=0.27</property>
    <property name="Scale Y">00:01:54.333=0.27</property>
    <property name="Tilt X">00:01:54.333=0.790104</property>
    <property name="Tilt Y">00:01:54.333=0.730556</property>
   </filter>
  </entry>
  <entry producer="producer53" in="00:02:00.800" out="00:02:14.033">
   <property name="kdenlive:id">4</property>
   <filter id="filter17">
    <property name="version">0.1</property>
    <property name="mlt_service">frei0r.scale0tilt</property>
    <property name="kdenlive_id">Facecam crop</property>
    <property name="Clip left">00:02:00.800=0.296875</property>
    <property name="Clip right">00:02:00.800=0.224219</property>
    <property name="Clip top">00:02:00.800=0.0944444</property>
    <property name="Clip bottom">00:02:00.800=0</property>
    <property name="Scale X">00:02:00.800=0.27</property>
    <property name="Scale Y">00:02:00.800=0.27</property>
    <property name="Tilt X">00:02:00.800=0.790104</property>
    <property name="Tilt Y">00:02:00.800=0.730556</property>
   </filter>
  </entry>
  <entry producer="producer53" in="00:02:16.100" out="00:02:21.333">
   <property name="kdenlive:id">4</property>
   <filter id="filter18">
    <property name="version">0.1</property>
    <property name="mlt_service">frei0r.scale0tilt</property>
    <property name="kdenlive_id">Facecam crop</property>
    <property name="Clip left">00:02:16.100=0.296875</property>
    <property name="Clip right">00:02:16.100=0.224219</property>
    <property name="Clip top">00:02:16.100=0.0944444</property>
    <property name="Clip bottom">00:02:16.100=0</property>
    <property name="Scale X">00:02:16.100=0.27</property>
    <property name="Scale Y">00:02:16.100=0.27</property>
    <property name="Tilt X">00:02:16.100=0.790104</property>
    <property name="Tilt Y">00:02:16.100=0.730556</property>
   </filter>
  </entry>
  <entry producer="producer53" in="00:02:22.533" out="00:02:39.667">
   <property name="kdenlive:id">4</property>
   <filter id="filter19">
    <property name="version">0.1</property>
    <property name="mlt_service">frei0r.scale0tilt</property>
    <property name="kdenlive_id">Facecam crop</property>
    <property name="Clip left">00:02:22.533=0.296875</property>
    <property name="Clip right">00:02:22.533=0.224219</property>
    <property name="Clip top">00:02:22.533=0.0944444</property>
    <property name="Clip bottom">00:02:22.533=0</property>
    <property name="Scale X">00:02:22.533=0.27</property>
    <property name="Scale Y">00:02:22.533=0.27</property>
    <property name="Tilt X">00:02:22.533=0.790104</property>
    <property name="Tilt Y">00:02:22.533=0.730556</property>
   </filter>
  </entry>
  <entry producer="producer53" in="00:02:41.200" out="00:02:51.600">
   <property name="kdenlive:id">4</property>
   <filter id="filter20">
    <property name="version">0.1</property>
    <property name="mlt_service">frei0r.scale0tilt</property>
    <property name="kdenlive_id">Facecam crop</property>
    <property name="Clip left">00:02:41.200=0.296875</property>
    <property name="Clip right">00:02:41.200=0.224219</property>
    <property name="Clip top">00:02:41.200=0.0944444</property>
    <property name="Clip bottom">00:02:41.200=0</property>
    <property name="Scale X">00:02:41.200=0.27</property>
    <property name="Scale Y">00:02:41.200=0.27</property>
    <property name="Tilt X">00:02:41.200=0.790104</property>
    <property name="Tilt Y">00:02:41.200=0.730556</property>
   </filter>
  </entry>
  <entry producer="producer53" in="00:02:52.133" out="00:02:55.267">
   <property name="kdenlive:id">4</property>
   <filter id="filter21">
    <property name="version">0.1</property>
    <property name="mlt_service">frei0r.scale0tilt</property>
    <property name="kdenlive_id">Facecam crop</property>
    <property name="Clip left">00:02:52.133=0.296875</property>
    <property name="Clip right">00:02:52.133=0.224219</property>
    <property name="Clip top">00:02:52.133=0.0944444</property>
    <property name="Clip bottom">00:02:52.133=0</property>
    <property name="Scale X">00:02:52.133=0.27</property>
    <property name="Scale Y">00:02:52.133=0.27</property>
    <property name="Tilt X">00:02:52.133=0.790104</property>
    <property name="Tilt Y">00:02:52.133=0.730556</property>
   </filter>
  </entry>
  <entry producer="producer53" in="00:02:57.233" out="00:03:25.633">
   <property name="kdenlive:id">4</property>
   <filter id="filter22">
    <property name="version">0.1</property>
    <property name="mlt_service">frei0r.scale0tilt</property>
    <property name="kdenlive_id">Facecam crop</property>
    <property name="Clip left">00:02:57.233=0.296875</property>
    <property name="Clip right">00:02:57.233=0.224219</property>
    <property name="Clip top">00:02:57.233=0.0944444</property>
    <property name="Clip bottom">00:02:57.233=0</property>
    <property name="Scale X">00:02:57.233=0.27</property>
    <property name="Scale Y">00:02:57.233=0.27</property>
    <property name="Tilt X">00:02:57.233=0.790104</property>
    <property name="Tilt Y">00:02:57.233=0.730556</property>
   </filter>
  </entry>
  <entry producer="producer53" in="00:03:26.700" out="00:03:49.067">
   <property name="kdenlive:id">4</property>
   <filter id="filter23">
    <property name="version">0.1</property>
    <property name="mlt_service">frei0r.scale0tilt</property>
    <property name="kdenlive_id">Facecam crop</property>
    <property name="Clip left">00:03:26.700=0.296875</property>
    <property name="Clip right">00:03:26.700=0.224219</property>
    <property name="Clip top">00:03:26.700=0.0944444</property>
    <property name="Clip bottom">00:03:26.700=0</property>
    <property name="Scale X">00:03:26.700=0.27</property>
    <property name="Scale Y">00:03:26.700=0.27</property>
    <property name="Tilt X">00:03:26.700=0.790104</property>
    <property name="Tilt Y">00:03:26.700=0.730556</property>
   </filter>
  </entry>
  <entry producer="producer53" in="00:03:49.867" out="00:03:57.267">
   <property name="kdenlive:id">4</property>
   <filter id="filter24">
    <property name="version">0.1</property>
    <property name="mlt_service">frei0r.scale0tilt</property>
    <property name="kdenlive_id">Facecam crop</property>
    <property name="Clip left">00:03:49.867=0.296875</property>
    <property name="Clip right">00:03:49.867=0.224219</property>
    <property name="Clip top">00:03:49.867=0.0944444</property>
    <property name="Clip bottom">00:03:49.867=0</property>
    <property name="Scale X">00:03:49.867=0.27</property>
    <property name="Scale Y">00:03:49.867=0.27</property>
    <property name="Tilt X">00:03:49.867=0.790104</property>
    <property name="Tilt Y">00:03:49.867=0.730556</property>
   </filter>
  </entry>
  <entry producer="producer53" in="00:04:05.267" out="00:04:09.067">
   <property name="kdenlive:id">4</property>
   <filter id="filter25">
    <property name="version">0.1</property>
    <property name="mlt_service">frei0r.scale0tilt</property>
    <property name="kdenlive_id">Facecam crop</property>
    <property name="Clip left">00:04:05.267=0.296875</property>
    <property name="Clip right">00:04:05.267=0.224219</property>
    <property name="Clip top">00:04:05.267=0.0944444</property>
    <property name="Clip bottom">00:04:05.267=0</property>
    <property name="Scale X">00:04:05.267=0.27</property>
    <property name="Scale Y">00:04:05.267=0.27</property>
    <property name="Tilt X">00:04:05.267=0.790104</property>
    <property name="Tilt Y">00:04:05.267=0.730556</property>
   </filter>
  </entry>
  <entry producer="producer53" in="00:05:48.400" out="00:06:14.967">
   <property name="kdenlive:id">4</property>
   <filter id="filter26">
    <property name="version">0.1</property>
    <property name="mlt_service">frei0r.scale0tilt</property>
    <property name="kdenlive_id">Facecam crop</property>
    <property name="Clip left">00:05:48.400=0.296875</property>
    <property name="Clip right">00:05:48.400=0.224219</property>
    <property name="Clip top">00:05:48.400=0.0944444</property>
    <property name="Clip bottom">00:05:48.400=0</property>
    <property name="Scale X">00:05:48.400=0.27</property>
    <property name="Scale Y">00:05:48.400=0.27</property>
    <property name="Tilt X">00:05:48.400=0.790104</property>
    <property name="Tilt Y">00:05:48.400=0.730556</property>
   </filter>
  </entry>
  <entry producer="producer53" in="00:06:16.200" out="00:06:41.767">
   <property name="kdenlive:id">4</property>
   <filter id="filter27">
    <property name="version">0.1</property>
    <property name="mlt_service">frei0r.scale0tilt</property>
    <property name="kdenlive_id">Facecam crop</property>
    <property name="Clip left">00:06:16.200=0.296875</property>
    <property name="Clip right">00:06:16.200=0.224219</property>
    <property name="Clip top">00:06:16.200=0.0944444</property>
    <property name="Clip bottom">00:06:16.200=0</property>
    <property name="Scale X">00:06:16.200=0.27</property>
    <property name="Scale Y">00:06:16.200=0.27</property>
    <property name="Tilt X">00:06:16.200=0.790104</property>
    <property name="Tilt Y">00:06:16.200=0.730556</property>
   </filter>
  </entry>
  <entry producer="producer53" in="00:06:44.300" out="00:06:55.167">
   <property name="kdenlive:id">4</property>
   <filter id="filter28">
    <property name="version">0.1</property>
    <property name="mlt_service">frei0r.scale0tilt</property>
    <property name="kdenlive_id">Facecam crop</property>
    <property name="Clip left">00:06:44.300=0.296875</property>
    <property name="Clip right">00:06:44.300=0.224219</property>
    <property name="Clip top">00:06:44.300=0.0944444</property>
    <property name="Clip bottom">00:06:44.300=0</property>
    <property name="Scale X">00:06:44.300=0.27</property>
    <property name="Scale Y">00:06:44.300=0.27</property>
    <property name="Tilt X">00:06:44.300=0.790104</property>
    <property name="Tilt Y">00:06:44.300=0.730556</property>
   </filter>
  </entry>
  <entry producer="producer53" in="00:06:57.233" out="00:07:00.933">
   <property name="kdenlive:id">4</property>
   <filter id="filter29">
    <property name="version">0.1</property>
    <property name="mlt_service">frei0r.scale0tilt</property>
    <property name="kdenlive_id">Facecam crop</property>
    <property name="Clip left">00:06:57.233=0.296875</property>
    <property name="Clip right">00:06:57.233=0.224219</property>
    <property name="Clip top">00:06:57.233=0.0944444</property>
    <property name="Clip bottom">00:06:57.233=0</property>
    <property name="Scale X">00:06:57.233=0.27</property>
    <property name="Scale Y">00:06:57.233=0.27</property>
    <property name="Tilt X">00:06:57.233=0.790104</property>
    <property name="Tilt Y">00:06:57.233=0.730556</property>
   </filter>
  </entry>
  <entry producer="producer53" in="00:07:02.067" out="00:07:26.000">
   <property name="kdenlive:id">4</property>
   <filter id="filter30">
    <property name="version">0.1</property>
    <property name="mlt_service">frei0r.scale0tilt</property>
    <property name="kdenlive_id">Facecam crop</property>
    <property name="Clip left">00:07:02.067=0.296875</property>
    <property name="Clip right">00:07:02.067=0.224219</property>
    <property name="Clip top">00:07:02.067=0.0944444</property>
    <property name="Clip bottom">00:07:02.067=0</property>
    <property name="Scale X">00:07:02.067=0.27</property>
    <property name="Scale Y">00:07:02.067=0.27</property>
    <property name="Tilt X">00:07:02.067=0.790104</property>
    <property name="Tilt Y">00:07:02.067=0.730556</property>
   </filter>
  </entry>
  <entry producer="producer53" in="00:07:30.133" out="00:07:42.800">
   <property name="kdenlive:id">4</property>
   <filter id="filter31">
    <property name="version">0.1</property>
    <property name="mlt_service">frei0r.scale0tilt</property>
    <property name="kdenlive_id">Facecam crop</property>
    <property name="Clip left">00:07:30.133=0.296875</property>
    <property name="Clip right">00:07:30.133=0.224219</property>
    <property name="Clip top">00:07:30.133=0.0944444</property>
    <property name="Clip bottom">00:07:30.133=0</property>
    <property name="Scale X">00:07:30.133=0.27</property>
    <property name="Scale Y">00:07:30.133=0.27</property>
    <property name="Tilt X">00:07:30.133=0.790104</property>
    <property name="Tilt Y">00:07:30.133=0.730556</property>
   </filter>
  </entry>
  <entry producer="producer53" in="00:07:43.667" out="00:08:00.400">
   <property name="kdenlive:id">4</property>
   <filter id="filter32">
    <property name="version">0.1</property>
    <property name="mlt_service">frei0r.scale0tilt</property>
    <property name="kdenlive_id">Facecam crop</property>
    <property name="Clip left">00:07:43.667=0.296875</property>
    <property name="Clip right">00:07:43.667=0.224219</property>
    <property name="Clip top">00:07:43.667=0.0944444</property>
    <property name="Clip bottom">00:07:43.667=0</property>
    <property name="Scale X">00:07:43.667=0.27</property>
    <property name="Scale Y">00:07:43.667=0.27</property>
    <property name="Tilt X">00:07:43.667=0.790104</property>
    <property name="Tilt Y">00:07:43.667=0.730556</property>
   </filter>
  </entry>
  <entry producer="producer53" in="00:08:02.367" out="00:08:13.833">
   <property name="kdenlive:id">4</property>
   <filter id="filter33">
    <property name="version">0.1</property>
    <property name="mlt_service">frei0r.scale0tilt</property>
    <property name="kdenlive_id">Facecam crop</property>
    <property name="Clip left">00:08:02.367=0.296875</property>
    <property name="Clip right">00:08:02.367=0.224219</property>
    <property name="Clip top">00:08:02.367=0.0944444</property>
    <property name="Clip bottom">00:08:02.367=0</property>
    <property name="Scale X">00:08:02.367=0.27</property>
    <property name="Scale Y">00:08:02.367=0.27</property>
    <property name="Tilt X">00:08:02.367=0.790104</property>
    <property name="Tilt Y">00:08:02.367=0.730556</property>
   </filter>
  </entry>
  <entry producer="producer53" in="00:09:50.733" out="00:10:37.900">
   <property name="kdenlive:id">4</property>
   <filter id="filter34">
    <property name="version">0.1</property>
    <property name="mlt_service">frei0r.scale0tilt</property>
    <property name="kdenlive_id">Facecam crop</property>
    <property name="Clip left">00:09:50.733=0.296875</property>
    <property name="Clip right">00:09:50.733=0.224219</property>
    <property name="Clip top">00:09:50.733=0.0944444</property>
    <property name="Clip bottom">00:09:50.733=0</property>
    <property name="Scale X">00:09:50.733=0.27</property>
    <property name="Scale Y">00:09:50.733=0.27</property>
    <property name="Tilt X">00:09:50.733=0.790104</property>
    <property name="Tilt Y">00:09:50.733=0.730556</property>
   </filter>
  </entry>
  <entry producer="producer53" in="00:10:39.700" out="00:10:45.867">
   <property name="kdenlive:id">4</property>
   <filter id="filter35">
    <property name="version">0.1</property>
    <property name="mlt_service">frei0r.scale0tilt</property>
    <property name="kdenlive_id">Facecam crop</property>
    <property name="Clip left">00:10:39.700=0.296875</property>
    <property name="Clip right">00:10:39.700=0.224219</property>
    <property name="Clip top">00:10:39.700=0.0944444</property>
    <property name="Clip bottom">00:10:39.700=0</property>
    <property name="Scale X">00:10:39.700=0.27</property>
    <property name="Scale Y">00:10:39.700=0.27</property>
    <property name="Tilt X">00:10:39.700=0.790104</property>
    <property name="Tilt Y">00:10:39.700=0.730556</property>
   </filter>
  </entry>
  <entry producer="producer53" in="00:12:37.167" out="00:14:40.267">
   <property name="kdenlive:id">4</property>
   <filter id="filter36">
    <property name="version">0.1</property>
    <property name="mlt_service">frei0r.scale0tilt</property>
    <property name="kdenlive_id">Facecam crop</property>
    <property name="Clip left">00:12:37.167=0.296875</property>
    <property name="Clip right">00:12:37.167=0.224219</property>
    <property name="Clip top">00:12:37.167=0.0944444</property>
    <property name="Clip bottom">00:12:37.167=0</property>
    <property name="Scale X">00:12:37.167=0.27</property>
    <property name="Scale Y">00:12:37.167=0.27</property>
    <property name="Tilt X">00:12:37.167=0.790104</property>
    <property name="Tilt Y">00:12:37.167=0.730556</property>
   </filter>
  </entry>
  <entry producer="producer53" in="00:16:21.667" out="00:17:32.800">
   <property name="kdenlive:id">4</property>
   <filter id="filter37">
    <property name="version">0.1</property>
    <property name="mlt_service">frei0r.scale0tilt</property>
    <property name="kdenlive_id">Facecam crop</property>
    <property name="Clip left">00:16:21.667=0.296875</property>
    <property name="Clip right">00:16:21.667=0.224219</property>
    <property name="Clip top">00:16:21.667=0.0944444</property>
    <property name="Clip bottom">00:16:21.667=0</property>
    <property name="Scale X">00:16:21.667=0.27</property>
    <property name="Scale Y">00:16:21.667=0.27</property>
    <property name="Tilt X">00:16:21.667=0.790104</property>
    <property name="Tilt Y">00:16:21.667=0.730556</property>
   </filter>
  </entry>
  <entry producer="producer53" in="00:17:57.267" out="00:18:26.933">
   <property name="kdenlive:id">4</property>
   <filter id="filter38">
    <property name="version">0.1</property>
    <property name="mlt_service">frei0r.scale0tilt</property>
    <property name="kdenlive_id">Facecam crop</property>
    <property name="Clip left">00:17:57.267=0.296875</property>
    <property name="Clip right">00:17:57.267=0.224219</property>
    <property name="Clip top">00:17:57.267=0.0944444</property>
    <property name="Clip bottom">00:17:57.267=0</property>
    <property name="Scale X">00:17:57.267=0.27</property>
    <property name="Scale Y">00:17:57.267=0.27</property>
    <property name="Tilt X">00:17:57.267=0.790104</property>
    <property name="Tilt Y">00:17:57.267=0.730556</property>
   </filter>
  </entry>
  <entry producer="producer53" in="00:18:28.967" out="00:19:10.733">
   <property name="kdenlive:id">4</property>
   <filter id="filter39">
    <property name="version">0.1</property>
    <property name="mlt_service">frei0r.scale0tilt</property>
    <property name="kdenlive_id">Facecam crop</property>
    <property name="Clip left">00:18:28.967=0.296875</property>
    <property name="Clip right">00:18:28.967=0.224219</property>
    <property name="Clip top">00:18:28.967=0.0944444</property>
    <property name="Clip bottom">00:18:28.967=0</property>
    <property name="Scale X">00:18:28.967=0.27</property>
    <property name="Scale Y">00:18:28.967=0.27</property>
    <property name="Tilt X">00:18:28.967=0.790104</property>
    <property name="Tilt Y">00:18:28.967=0.730556</property>
   </filter>
  </entry>
  <entry producer="producer53" in="00:19:45.333" out="00:20:45.367">
   <property name="kdenlive:id">4</property>
   <filter id="filter40">
    <property name="version">0.1</property>
    <property name="mlt_service">frei0r.scale0tilt</property>
    <property name="kdenlive_id">Facecam crop</property>
    <property name="Clip left">00:19:45.333=0.296875</property>
    <property name="Clip right">00:19:45.333=0.224219</property>
    <property name="Clip top">00:19:45.333=0.0944444</property>
    <property name="Clip bottom">00:19:45.333=0</property>
    <property name="Scale X">00:19:45.333=0.27</property>
    <property name="Scale Y">00:19:45.333=0.27</property>
    <property name="Tilt X">00:19:45.333=0.790104</property>
    <property name="Tilt Y">00:19:45.333=0.730556</property>
   </filter>
  </entry>
  <entry producer="producer53" in="00:22:10.933" out="00:23:22.333">
   <property name="kdenlive:id">4</property>
   <filter id="filter41">
    <property name="version">0.1</property>
    <property name="mlt_service">frei0r.scale0tilt</property>
    <property name="kdenlive_id">Facecam crop</property>
    <property name="Clip left">00:22:10.933=0.296875</property>
    <property name="Clip right">00:22:10.933=0.224219</property>
    <property name="Clip top">00:22:10.933=0.0944444</property>
    <property name="Clip bottom">00:22:10.933=0</property>
    <property name="Scale X">00:22:10.933=0.27</property>
    <property name="Scale Y">00:22:10.933=0.27</property>
    <property name="Tilt X">00:22:10.933=0.790104</property>
    <property name="Tilt Y">00:22:10.933=0.730556</property>
   </filter>
  </entry>
  <entry producer="producer53" in="00:23:23.767" out="00:23:40.833">
   <property name="kdenlive:id">4</property>
   <filter id="filter42">
    <property name="version">0.1</property>
    <property name="mlt_service">frei0r.scale0tilt</property>
    <property name="kdenlive_id">Facecam crop</property>
    <property name="Clip left">00:23:23.767=0.296875</property>
    <property name="Clip right">00:23:23.767=0.224219</property>
    <property name="Clip top">00:23:23.767=0.0944444</property>
    <property name="Clip bottom">00:23:23.767=0</property>
    <property name="Scale X">00:23:23.767=0.27</property>
    <property name="Scale Y">00:23:23.767=0.27</property>
    <property name="Tilt X">00:23:23.767=0.790104</property>
    <property name="Tilt Y">00:23:23.767=0.730556</property>
   </filter>
  </entry>
  <entry producer="producer53" in="00:23:42.100" out="00:24:06.100">
   <property name="kdenlive:id">4</property>
   <filter id="filter43">
    <property name="version">0.1</property>
    <property name="mlt_service">frei0r.scale0tilt</property>
    <property name="kdenlive_id">Facecam crop</property>
    <property name="Clip left">00:23:42.100=0.296875</property>
    <property name="Clip right">00:23:42.100=0.224219</property>
    <property name="Clip top">00:23:42.100=0.0944444</property>
    <property name="Clip bottom">00:23:42.100=0</property>
    <property name="Scale X">00:23:42.100=0.27</property>
    <property name="Scale Y">00:23:42.100=0.27</property>
    <property name="Tilt X">00:23:42.100=0.790104</property>
    <property name="Tilt Y">00:23:42.100=0.730556</property>
    <property name="kdenlive:collapsed">0</property>
   </filter>
  </entry>
  <entry producer="producer54" in="00:00:03.133" out="00:01:38.767">
   <property name="kdenlive:id">7</property>
   <filter id="filter44">
    <property name="version">0.1</property>
    <property name="mlt_service">frei0r.scale0tilt</property>
    <property name="kdenlive_id">Facecam crop</property>
    <property name="Clip left">00:00:03.133=0.296875</property>
    <property name="Clip right">00:00:03.133=0.224219</property>
    <property name="Clip top">00:00:03.133=0.0944444</property>
    <property name="Clip bottom">00:00:03.133=0</property>
    <property name="Scale X">00:00:03.133=0.27</property>
    <property name="Scale Y">00:00:03.133=0.27</property>
    <property name="Tilt X">00:00:03.133=0.790104</property>
    <property name="Tilt Y">00:00:03.133=0.730556</property>
   </filter>
  </entry>
  <entry producer="producer54" in="00:01:42.667" out="00:02:11.200">
   <property name="kdenlive:id">7</property>
   <filter id="filter45">
    <property name="version">0.1</property>
    <property name="mlt_service">frei0r.scale0tilt</property>
    <property name="kdenlive_id">Facecam crop</property>
    <property name="Clip left">00:01:42.667=0.296875</property>
    <property name="Clip right">00:01:42.667=0.224219</property>
    <property name="Clip top">00:01:42.667=0.0944444</property>
    <property name="Clip bottom">00:01:42.667=0</property>
    <property name="Scale X">00:01:42.667=0.27</property>
    <property name="Scale Y">00:01:42.667=0.27</property>
    <property name="Tilt X">00:01:42.667=0.790104</property>
    <property name="Tilt Y">00:01:42.667=0.730556</property>
   </filter>
  </entry>
  <entry producer="producer54" in="00:02:19.933" out="00:02:31.367">
   <property name="kdenlive:id">7</property>
   <filter id="filter46">
    <property name="version">0.1</property>
    <property name="mlt_service">frei0r.scale0tilt</property>
    <property name="kdenlive_id">Facecam crop</property>
    <property name="Clip left">00:02:19.933=0.296875</property>
    <property name="Clip right">00:02:19.933=0.224219</property>
    <property name="Clip top">00:02:19.933=0.0944444</property>
    <property name="Clip bottom">00:02:19.933=0</property>
    <property name="Scale X">00:02:19.933=0.27</property>
    <property name="Scale Y">00:02:19.933=0.27</property>
    <property name="Tilt X">00:02:19.933=0.790104</property>
    <property name="Tilt Y">00:02:19.933=0.730556</property>
   </filter>
  </entry>
  <entry producer="producer54" in="00:02:33.100" out="00:02:42.267">
   <property name="kdenlive:id">7</property>
   <filter id="filter47">
    <property name="version">0.1</property>
    <property name="mlt_service">frei0r.scale0tilt</property>
    <property name="kdenlive_id">Facecam crop</property>
    <property name="Clip left">00:02:33.100=0.296875</property>
    <property name="Clip right">00:02:33.100=0.224219</property>
    <property name="Clip top">00:02:33.100=0.0944444</property>
    <property name="Clip bottom">00:02:33.100=0</property>
    <property name="Scale X">00:02:33.100=0.27</property>
    <property name="Scale Y">00:02:33.100=0.27</property>
    <property name="Tilt X">00:02:33.100=0.790104</property>
    <property name="Tilt Y">00:02:33.100=0.730556</property>
   </filter>
  </entry>
  <entry producer="producer54" in="00:02:44.500" out="00:02:48.200">
   <property name="kdenlive:id">7</property>
   <filter id="filter48">
    <property name="version">0.1</property>
    <property name="mlt_service">frei0r.scale0tilt</property>
    <property name="kdenlive_id">Facecam crop</property>
    <property name="Clip left">00:02:44.500=0.296875</property>
    <property name="Clip right">00:02:44.500=0.224219</property>
    <property name="Clip top">00:02:44.500=0.0944444</property>
    <property name="Clip bottom">00:02:44.500=0</property>
    <property name="Scale X">00:02:44.500=0.27</property>
    <property name="Scale Y">00:02:44.500=0.27</property>
    <property name="Tilt X">00:02:44.500=0.790104</property>
    <property name="Tilt Y">00:02:44.500=0.730556</property>
   </filter>
  </entry>
  <entry producer="producer54" in="00:03:02.833" out="00:03:19.733">
   <property name="kdenlive:id">7</property>
   <filter id="filter49">
    <property name="version">0.1</property>
    <property name="mlt_service">frei0r.scale0tilt</property>
    <property name="kdenlive_id">Facecam crop</property>
    <property name="Clip left">00:03:02.833=0.296875</property>
    <property name="Clip right">00:03:02.833=0.224219</property>
    <property name="Clip top">00:03:02.833=0.0944444</property>
    <property name="Clip bottom">00:03:02.833=0</property>
    <property name="Scale X">00:03:02.833=0.27</property>
    <property name="Scale Y">00:03:02.833=0.27</property>
    <property name="Tilt X">00:03:02.833=0.790104</property>
    <property name="Tilt Y">00:03:02.833=0.730556</property>
   </filter>
  </entry>
  <entry producer="producer54" in="00:03:26.167" out="00:03:44.867">
   <property name="kdenlive:id">7</property>
   <filter id="filter50">
    <property name="version">0.1</property>
    <property name="mlt_service">frei0r.scale0tilt</property>
    <property name="kdenlive_id">Facecam crop</property>
    <property name="Clip left">00:03:26.167=0.296875</property>
    <property name="Clip right">00:03:26.167=0.224219</property>
    <property name="Clip top">00:03:26.167=0.0944444</property>
    <property name="Clip bottom">00:03:26.167=0</property>
    <property name="Scale X">00:03:26.167=0.27</property>
    <property name="Scale Y">00:03:26.167=0.27</property>
    <property name="Tilt X">00:03:26.167=0.790104</property>
    <property name="Tilt Y">00:03:26.167=0.730556</property>
   </filter>
  </entry>
  <entry producer="producer54" in="00:03:47.267" out="00:03:49.233">
   <property name="kdenlive:id">7</property>
   <filter id="filter51">
    <property name="version">0.1</property>
    <property name="mlt_service">frei0r.scale0tilt</property>
    <property name="kdenlive_id">Facecam crop</property>
    <property name="Clip left">00:03:47.267=0.296875</property>
    <property name="Clip right">00:03:47.267=0.224219</property>
    <property name="Clip top">00:03:47.267=0.0944444</property>
    <property name="Clip bottom">00:03:47.267=0</property>
    <property name="Scale X">00:03:47.267=0.27</property>
    <property name="Scale Y">00:03:47.267=0.27</property>
    <property name="Tilt X">00:03:47.267=0.790104</property>
    <property name="Tilt Y">00:03:47.267=0.730556</property>
   </filter>
  </entry>
  <entry producer="producer54" in="00:03:59.833" out="00:04:10.667">
   <property name="kdenlive:id">7</property>
   <filter id="filter52">
    <property name="version">0.1</property>
    <property name="mlt_service">frei0r.scale0tilt</property>
    <property name="kdenlive_id">Facecam crop</property>
    <property name="Clip left">00:03:59.833=0.296875</property>
    <property name="Clip right">00:03:59.833=0.224219</property>
    <property name="Clip top">00:03:59.833=0.0944444</property>
    <property name="Clip bottom">00:03:59.833=0</property>
    <property name="Scale X">00:03:59.833=0.27</property>
    <property name="Scale Y">00:03:59.833=0.27</property>
    <property name="Tilt X">00:03:59.833=0.790104</property>
    <property name="Tilt Y">00:03:59.833=0.730556</property>
   </filter>
  </entry>
  <entry producer="producer54" in="00:04:19.367" out="00:04:23.533">
   <property name="kdenlive:id">7</property>
   <filter id="filter53">
    <property name="version">0.1</property>
    <property name="mlt_service">frei0r.scale0tilt</property>
    <property name="kdenlive_id">Facecam crop</property>
    <property name="Clip left">00:04:19.367=0.296875</property>
    <property name="Clip right">00:04:19.367=0.224219</property>
    <property name="Clip top">00:04:19.367=0.0944444</property>
    <property name="Clip bottom">00:04:19.367=0</property>
    <property name="Scale X">00:04:19.367=0.27</property>
    <property name="Scale Y">00:04:19.367=0.27</property>
    <property name="Tilt X">00:04:19.367=0.790104</property>
    <property name="Tilt Y">00:04:19.367=0.730556</property>
   </filter>
  </entry>
  <entry producer="producer54" in="00:04:26.800" out="00:04:28.367">
   <property name="kdenlive:id">7</property>
   <filter id="filter54">
    <property name="version">0.1</property>
    <property name="mlt_service">frei0r.scale0tilt</property>
    <property name="kdenlive_id">Facecam crop</property>
    <property name="Clip left">00:04:26.800=0.296875</property>
    <property name="Clip right">00:04:26.800=0.224219</property>
    <property name="Clip top">00:04:26.800=0.0944444</property>
    <property name="Clip bottom">00:04:26.800=0</property>
    <property name="Scale X">00:04:26.800=0.27</property>
    <property name="Scale Y">00:04:26.800=0.27</property>
    <property name="Tilt X">00:04:26.800=0.790104</property>
    <property name="Tilt Y">00:04:26.800=0.730556</property>
   </filter>
  </entry>
  <entry producer="producer54" in="00:04:31.233" out="00:04:41.300">
   <property name="kdenlive:id">7</property>
   <filter id="filter55">
    <property name="version">0.1</property>
    <property name="mlt_service">frei0r.scale0tilt</property>
    <property name="kdenlive_id">Facecam crop</property>
    <property name="Clip left">00:04:31.233=0.296875</property>
    <property name="Clip right">00:04:31.233=0.224219</property>
    <property name="Clip top">00:04:31.233=0.0944444</property>
    <property name="Clip bottom">00:04:31.233=0</property>
    <property name="Scale X">00:04:31.233=0.27</property>
    <property name="Scale Y">00:04:31.233=0.27</property>
    <property name="Tilt X">00:04:31.233=0.790104</property>
    <property name="Tilt Y">00:04:31.233=0.730556</property>
   </filter>
  </entry>
  <entry producer="producer54" in="00:04:58.033" out="00:05:16.800">
   <property name="kdenlive:id">7</property>
   <filter id="filter56">
    <property name="version">0.1</property>
    <property name="mlt_service">frei0r.scale0tilt</property>
    <property name="kdenlive_id">Facecam crop</property>
    <property name="Clip left">00:04:58.033=0.296875</property>
    <property name="Clip right">00:04:58.033=0.224219</property>
    <property name="Clip top">00:04:58.033=0.0944444</property>
    <property name="Clip bottom">00:04:58.033=0</property>
    <property name="Scale X">00:04:58.033=0.27</property>
    <property name="Scale Y">00:04:58.033=0.27</property>
    <property name="Tilt X">00:04:58.033=0.790104</property>
    <property name="Tilt Y">00:04:58.033=0.730556</property>
   </filter>
  </entry>
  <entry producer="producer54" in="00:05:38.867" out="00:05:40.300">
   <property name="kdenlive:id">7</property>
   <filter id="filter57">
    <property name="version">0.1</property>
    <property name="mlt_service">frei0r.scale0tilt</property>
    <property name="kdenlive_id">Facecam crop</property>
    <property name="Clip left">00:05:38.867=0.296875</property>
    <property name="Clip right">00:05:38.867=0.224219</property>
    <property name="Clip top">00:05:38.867=0.0944444</property>
    <property name="Clip bottom">00:05:38.867=0</property>
    <property name="Scale X">00:05:38.867=0.27</property>
    <property name="Scale Y">00:05:38.867=0.27</property>
    <property name="Tilt X">00:05:38.867=0.790104</property>
    <property name="Tilt Y">00:05:38.867=0.730556</property>
   </filter>
  </entry>
  <entry producer="producer54" in="00:05:42.833" out="00:05:47.233">
   <property name="kdenlive:id">7</property>
   <filter id="filter58">
    <property name="version">0.1</property>
    <property name="mlt_service">frei0r.scale0tilt</property>
    <property name="kdenlive_id">Facecam crop</property>
    <property name="Clip left">00:05:42.833=0.296875</property>
    <property name="Clip right">00:05:42.833=0.224219</property>
    <property name="Clip top">00:05:42.833=0.0944444</property>
    <property name="Clip bottom">00:05:42.833=0</property>
    <property name="Scale X">00:05:42.833=0.27</property>
    <property name="Scale Y">00:05:42.833=0.27</property>
    <property name="Tilt X">00:05:42.833=0.790104</property>
    <property name="Tilt Y">00:05:42.833=0.730556</property>
   </filter>
  </entry>
  <entry producer="producer54" in="00:05:49.567" out="00:05:52.100">
   <property name="kdenlive:id">7</property>
   <filter id="filter59">
    <property name="version">0.1</property>
    <property name="mlt_service">frei0r.scale0tilt</property>
    <property name="kdenlive_id">Facecam crop</property>
    <property name="Clip left">00:05:49.567=0.296875</property>
    <property name="Clip right">00:05:49.567=0.224219</property>
    <property name="Clip top">00:05:49.567=0.0944444</property>
    <property name="Clip bottom">00:05:49.567=0</property>
    <property name="Scale X">00:05:49.567=0.27</property>
    <property name="Scale Y">00:05:49.567=0.27</property>
    <property name="Tilt X">00:05:49.567=0.790104</property>
    <property name="Tilt Y">00:05:49.567=0.730556</property>
   </filter>
  </entry>
  <entry producer="producer54" in="00:06:01.167" out="00:06:04.933">
   <property name="kdenlive:id">7</property>
   <filter id="filter60">
    <property name="version">0.1</property>
    <property name="mlt_service">frei0r.scale0tilt</property>
    <property name="kdenlive_id">Facecam crop</property>
    <property name="Clip left">00:06:01.167=0.296875</property>
    <property name="Clip right">00:06:01.167=0.224219</property>
    <property name="Clip top">00:06:01.167=0.0944444</property>
    <property name="Clip bottom">00:06:01.167=0</property>
    <property name="Scale X">00:06:01.167=0.27</property>
    <property name="Scale Y">00:06:01.167=0.27</property>
    <property name="Tilt X">00:06:01.167=0.790104</property>
    <property name="Tilt Y">00:06:01.167=0.730556</property>
   </filter>
  </entry>
  <entry producer="producer54" in="00:06:05.700" out="00:06:11.867">
   <property name="kdenlive:id">7</property>
   <filter id="filter61">
    <property name="version">0.1</property>
    <property name="mlt_service">frei0r.scale0tilt</property>
    <property name="kdenlive_id">Facecam crop</property>
    <property name="Clip left">00:06:05.700=0.296875</property>
    <property name="Clip right">00:06:05.700=0.224219</property>
    <property name="Clip top">00:06:05.700=0.0944444</property>
    <property name="Clip bottom">00:06:05.700=0</property>
    <property name="Scale X">00:06:05.700=0.27</property>
    <property name="Scale Y">00:06:05.700=0.27</property>
    <property name="Tilt X">00:06:05.700=0.790104</property>
    <property name="Tilt Y">00:06:05.700=0.730556</property>
   </filter>
  </entry>
  <entry producer="producer54" in="00:06:13.333" out="00:06:14.700">
   <property name="kdenlive:id">7</property>
   <filter id="filter62">
    <property name="version">0.1</property>
    <property name="mlt_service">frei0r.scale0tilt</property>
    <property name="kdenlive_id">Facecam crop</property>
    <property name="Clip left">00:06:13.333=0.296875</property>
    <property name="Clip right">00:06:13.333=0.224219</property>
    <property name="Clip top">00:06:13.333=0.0944444</property>
    <property name="Clip bottom">00:06:13.333=0</property>
    <property name="Scale X">00:06:13.333=0.27</property>
    <property name="Scale Y">00:06:13.333=0.27</property>
    <property name="Tilt X">00:06:13.333=0.790104</property>
    <property name="Tilt Y">00:06:13.333=0.730556</property>
   </filter>
  </entry>
  <entry producer="producer54" in="00:07:09.567" out="00:07:12.533">
   <property name="kdenlive:id">7</property>
   <filter id="filter63">
    <property name="version">0.1</property>
    <property name="mlt_service">frei0r.scale0tilt</property>
    <property name="kdenlive_id">Facecam crop</property>
    <property name="Clip left">00:07:09.567=0.296875</property>
    <property name="Clip right">00:07:09.567=0.224219</property>
    <property name="Clip top">00:07:09.567=0.0944444</property>
    <property name="Clip bottom">00:07:09.567=0</property>
    <property name="Scale X">00:07:09.567=0.27</property>
    <property name="Scale Y">00:07:09.567=0.27</property>
    <property name="Tilt X">00:07:09.567=0.790104</property>
    <property name="Tilt Y">00:07:09.567=0.730556</property>
   </filter>
  </entry>
  <entry producer="producer54" in="00:07:13.467" out="00:07:50.900">
   <property name="kdenlive:id">7</property>
   <filter id="filter64">
    <property name="version">0.1</property>
    <property name="mlt_service">frei0r.scale0tilt</property>
    <property name="kdenlive_id">Facecam crop</property>
    <property name="Clip left">00:07:13.467=0.296875</property>
    <property name="Clip right">00:07:13.467=0.224219</property>
    <property name="Clip top">00:07:13.467=0.0944444</property>
    <property name="Clip bottom">00:07:13.467=0</property>
    <property name="Scale X">00:07:13.467=0.27</property>
    <property name="Scale Y">00:07:13.467=0.27</property>
    <property name="Tilt X">00:07:13.467=0.790104</property>
    <property name="Tilt Y">00:07:13.467=0.730556</property>
   </filter>
  </entry>
  <entry producer="producer54" in="00:08:00.767" out="00:08:08.000">
   <property name="kdenlive:id">7</property>
   <filter id="filter65">
    <property name="version">0.1</property>
    <property name="mlt_service">frei0r.scale0tilt</property>
    <property name="kdenlive_id">Facecam crop</property>
    <property name="Clip left">00:08:00.767=0.296875</property>
    <property name="Clip right">00:08:00.767=0.224219</property>
    <property name="Clip top">00:08:00.767=0.0944444</property>
    <property name="Clip bottom">00:08:00.767=0</property>
    <property name="Scale X">00:08:00.767=0.27</property>
    <property name="Scale Y">00:08:00.767=0.27</property>
    <property name="Tilt X">00:08:00.767=0.790104</property>
    <property name="Tilt Y">00:08:00.767=0.730556</property>
   </filter>
  </entry>
  <entry producer="producer54" in="00:08:08.867" out="00:08:53.133">
   <property name="kdenlive:id">7</property>
   <filter id="filter66">
    <property name="version">0.1</property>
    <property name="mlt_service">frei0r.scale0tilt</property>
    <property name="kdenlive_id">Facecam crop</property>
    <property name="Clip left">00:08:08.867=0.296875</property>
    <property name="Clip right">00:08:08.867=0.224219</property>
    <property name="Clip top">00:08:08.867=0.0944444</property>
    <property name="Clip bottom">00:08:08.867=0</property>
    <property name="Scale X">00:08:08.867=0.27</property>
    <property name="Scale Y">00:08:08.867=0.27</property>
    <property name="Tilt X">00:08:08.867=0.790104</property>
    <property name="Tilt Y">00:08:08.867=0.730556</property>
   </filter>
  </entry>
  <entry producer="producer54" in="00:08:57.067" out="00:09:09.233">
   <property name="kdenlive:id">7</property>
   <filter id="filter67">
    <property name="version">0.1</property>
    <property name="mlt_service">frei0r.scale0tilt</property>
    <property name="kdenlive_id">Facecam crop</property>
    <property name="Clip left">00:08:57.067=0.296875</property>
    <property name="Clip right">00:08:57.067=0.224219</property>
    <property name="Clip top">00:08:57.067=0.0944444</property>
    <property name="Clip bottom">00:08:57.067=0</property>
    <property name="Scale X">00:08:57.067=0.27</property>
    <property name="Scale Y">00:08:57.067=0.27</property>
    <property name="Tilt X">00:08:57.067=0.790104</property>
    <property name="Tilt Y">00:08:57.067=0.730556</property>
   </filter>
  </entry>
  <entry producer="producer55" in="00:00:02.533" out="00:00:32.067">
   <property name="kdenlive:id">19</property>
   <filter id="filter68">
    <property name="version">0.1</property>
    <property name="mlt_service">frei0r.scale0tilt</property>
    <property name="kdenlive_id">Facecam crop</property>
    <property name="Clip left">00:00:02.533=0.296875</property>
    <property name="Clip right">00:00:02.533=0.224219</property>
    <property name="Clip top">00:00:02.533=0.0944444</property>
    <property name="Clip bottom">00:00:02.533=0</property>
    <property name="Scale X">00:00:02.533=0.27</property>
    <property name="Scale Y">00:00:02.533=0.27</property>
    <property name="Tilt X">00:00:02.533=0.790104</property>
    <property name="Tilt Y">00:00:02.533=0.730556</property>
   </filter>
  </entry>
  <entry producer="producer55" in="00:00:36.433" out="00:00:38.200">
   <property name="kdenlive:id">19</property>
   <filter id="filter69">
    <property name="version">0.1</property>
    <property name="mlt_service">frei0r.scale0tilt</property>
    <property name="kdenlive_id">Facecam crop</property>
    <property name="Clip left">00:00:36.433=0.296875</property>
    <property name="Clip right">00:00:36.433=0.224219</property>
    <property name="Clip top">00:00:36.433=0.0944444</property>
    <property name="Clip bottom">00:00:36.433=0</property>
    <property name="Scale X">00:00:36.433=0.27</property>
    <property name="Scale Y">00:00:36.433=0.27</property>
    <property name="Tilt X">00:00:36.433=0.790104</property>
    <property name="Tilt Y">00:00:36.433=0.730556</property>
   </filter>
  </entry>
  <entry producer="producer55" in="00:00:39.267" out="00:03:28.667">
   <property name="kdenlive:id">19</property>
   <filter id="filter70">
    <property name="version">0.1</property>
    <property name="mlt_service">frei0r.scale0tilt</property>
    <property name="kdenlive_id">Facecam crop</property>
    <property name="Clip left">00:00:39.267=0.296875</property>
    <property name="Clip right">00:00:39.267=0.224219</property>
    <property name="Clip top">00:00:39.267=0.0944444</property>
    <property name="Clip bottom">00:00:39.267=0</property>
    <property name="Scale X">00:00:39.267=0.27</property>
    <property name="Scale Y">00:00:39.267=0.27</property>
    <property name="Tilt X">00:00:39.267=0.790104</property>
    <property name="Tilt Y">00:00:39.267=0.730556</property>
   </filter>
  </entry>
  <entry producer="producer55" in="00:03:32.300" out="00:04:24.633">
   <property name="kdenlive:id">19</property>
   <filter id="filter71">
    <property name="version">0.1</property>
    <property name="mlt_service">frei0r.scale0tilt</property>
    <property name="kdenlive_id">Facecam crop</property>
    <property name="Clip left">00:03:32.300=0.296875</property>
    <property name="Clip right">00:03:32.300=0.224219</property>
    <property name="Clip top">00:03:32.300=0.0944444</property>
    <property name="Clip bottom">00:03:32.300=0</property>
    <property name="Scale X">00:03:32.300=0.27</property>
    <property name="Scale Y">00:03:32.300=0.27</property>
    <property name="Tilt X">00:03:32.300=0.790104</property>
    <property name="Tilt Y">00:03:32.300=0.730556</property>
   </filter>
  </entry>
  <entry producer="producer55" in="00:04:39.000" out="00:04:57.800">
   <property name="kdenlive:id">19</property>
   <filter id="filter72">
    <property name="version">0.1</property>
    <property name="mlt_service">frei0r.scale0tilt</property>
    <property name="kdenlive_id">Facecam crop</property>
    <property name="Clip left">00:04:39.000=0.296875</property>
    <property name="Clip right">00:04:39.000=0.224219</property>
    <property name="Clip top">00:04:39.000=0.0944444</property>
    <property name="Clip bottom">00:04:39.000=0</property>
    <property name="Scale X">00:04:39.000=0.27</property>
    <property name="Scale Y">00:04:39.000=0.27</property>
    <property name="Tilt X">00:04:39.000=0.790104</property>
    <property name="Tilt Y">00:04:39.000=0.730556</property>
   </filter>
  </entry>
  <entry producer="producer55" in="00:04:59.333" out="00:05:07.200">
   <property name="kdenlive:id">19</property>
   <filter id="filter73">
    <property name="version">0.1</property>
    <property name="mlt_service">frei0r.scale0tilt</property>
    <property name="kdenlive_id">Facecam crop</property>
    <property name="Clip left">00:04:59.333=0.296875</property>
    <property name="Clip right">00:04:59.333=0.224219</property>
    <property name="Clip top">00:04:59.333=0.0944444</property>
    <property name="Clip bottom">00:04:59.333=0</property>
    <property name="Scale X">00:04:59.333=0.27</property>
    <property name="Scale Y">00:04:59.333=0.27</property>
    <property name="Tilt X">00:04:59.333=0.790104</property>
    <property name="Tilt Y">00:04:59.333=0.730556</property>
   </filter>
  </entry>
  <entry producer="producer55" in="00:05:11.067" out="00:05:16.533">
   <property name="kdenlive:id">19</property>
   <filter id="filter74">
    <property name="version">0.1</property>
    <property name="mlt_service">frei0r.scale0tilt</property>
    <property name="kdenlive_id">Facecam crop</property>
    <property name="Clip left">00:05:11.067=0.296875</property>
    <property name="Clip right">00:05:11.067=0.224219</property>
    <property name="Clip top">00:05:11.067=0.0944444</property>
    <property name="Clip bottom">00:05:11.067=0</property>
    <property name="Scale X">00:05:11.067=0.27</property>
    <property name="Scale Y">00:05:11.067=0.27</property>
    <property name="Tilt X">00:05:11.067=0.790104</property>
    <property name="Tilt Y">00:05:11.067=0.730556</property>
   </filter>
  </entry>
  <entry producer="producer55" in="00:05:18.700" out="00:05:21.933">
   <property name="kdenlive:id">19</property>
   <filter id="filter75">
    <property name="version">0.1</property>
    <property name="mlt_service">frei0r.scale0tilt</property>
    <property name="kdenlive_id">Facecam crop</property>
    <property name="Clip left">00:05:18.700=0.296875</property>
    <property name="Clip right">00:05:18.700=0.224219</property>
    <property name="Clip top">00:05:18.700=0.0944444</property>
    <property name="Clip bottom">00:05:18.700=0</property>
    <property name="Scale X">00:05:18.700=0.27</property>
    <property name="Scale Y">00:05:18.700=0.27</property>
    <property name="Tilt X">00:05:18.700=0.790104</property>
    <property name="Tilt Y">00:05:18.700=0.730556</property>
   </filter>
  </entry>
  <entry producer="producer55" in="00:05:28.033" out="00:05:40.333">
   <property name="kdenlive:id">19</property>
   <filter id="filter76">
    <property name="version">0.1</property>
    <property name="mlt_service">frei0r.scale0tilt</property>
    <property name="kdenlive_id">Facecam crop</property>
    <property name="Clip left">00:05:28.033=0.296875</property>
    <property name="Clip right">00:05:28.033=0.224219</property>
    <property name="Clip top">00:05:28.033=0.0944444</property>
    <property name="Clip bottom">00:05:28.033=0</property>
    <property name="Scale X">00:05:28.033=0.27</property>
    <property name="Scale Y">00:05:28.033=0.27</property>
    <property name="Tilt X">00:05:28.033=0.790104</property>
    <property name="Tilt Y">00:05:28.033=0.730556</property>
   </filter>
  </entry>
  <entry producer="producer55" in="00:05:53.500" out="00:05:58.267">
   <property name="kdenlive:id">19</property>
   <filter id="filter77">
    <property name="version">0.1</property>
    <property name="mlt_service">frei0r.scale0tilt</property>
    <property name="kdenlive_id">Facecam crop</property>
    <property name="Clip left">00:05:53.500=0.296875</property>
    <property name="Clip right">00:05:53.500=0.224219</property>
    <property name="Clip top">00:05:53.500=0.0944444</property>
    <property name="Clip bottom">00:05:53.500=0</property>
    <property name="Scale X">00:05:53.500=0.27</property>
    <property name="Scale Y">00:05:53.500=0.27</property>
    <property name="Tilt X">00:05:53.500=0.790104</property>
    <property name="Tilt Y">00:05:53.500=0.730556</property>
   </filter>
  </entry>
  <entry producer="producer55" in="00:05:59.500" out="00:08:19.667">
   <property name="kdenlive:id">19</property>
   <filter id="filter78">
    <property name="version">0.1</property>
    <property name="mlt_service">frei0r.scale0tilt</property>
    <property name="kdenlive_id">Facecam crop</property>
    <property name="Clip left">00:05:59.500=0.296875</property>
    <property name="Clip right">00:05:59.500=0.224219</property>
    <property name="Clip top">00:05:59.500=0.0944444</property>
    <property name="Clip bottom">00:05:59.500=0</property>
    <property name="Scale X">00:05:59.500=0.27</property>
    <property name="Scale Y">00:05:59.500=0.27</property>
    <property name="Tilt X">00:05:59.500=0.790104</property>
    <property name="Tilt Y">00:05:59.500=0.730556</property>
    <property name="kdenlive:collapsed">0</property>
   </filter>
  </entry>
  <entry producer="producer55" in="00:08:19.700" out="00:08:58.933">
   <property name="kdenlive:id">19</property>
   <filter id="filter79">
    <property name="version">0.1</property>
    <property name="mlt_service">frei0r.scale0tilt</property>
    <property name="kdenlive_id">Facecam crop</property>
    <property name="Clip left">00:08:19.700=0.296875</property>
    <property name="Clip right">00:08:19.700=0.224219</property>
    <property name="Clip top">00:08:19.700=0.0944444</property>
    <property name="Clip bottom">00:08:19.700=0</property>
    <property name="Scale X">00:08:19.700=0.27</property>
    <property name="Scale Y">00:08:19.700=0.27</property>
    <property name="Tilt X">00:08:19.700=0.790104</property>
    <property name="Tilt Y">00:08:19.700=0.730556</property>
    <property name="kdenlive:collapsed">1</property>
   </filter>
   <filter id="filter80">
    <property name="version">0.1</property>
    <property name="mlt_service">frei0r.scale0tilt</property>
    <property name="kdenlive_id">frei0r.scale0tilt</property>
    <property name="Clip left">00:08:19.700=0</property>
    <property name="Clip right">00:08:19.700=0</property>
    <property name="Clip top">00:08:19.700=0</property>
    <property name="Clip bottom">00:08:19.700=0</property>
    <property name="Scale X">00:08:19.700=0.4</property>
    <property name="Scale Y">00:08:19.700=0.4</property>
    <property name="Tilt X">00:08:19.700=0.520312</property>
    <property name="Tilt Y">00:08:19.700=0.594444</property>
    <property name="kdenlive:collapsed">0</property>
   </filter>
  </entry>
  <entry producer="producer55" in="00:08:58.967" out="00:09:09.300">
   <property name="kdenlive:id">19</property>
   <filter id="filter81">
    <property name="version">0.1</property>
    <property name="mlt_service">frei0r.scale0tilt</property>
    <property name="kdenlive_id">Facecam crop</property>
    <property name="Clip left">00:08:58.967=0.296875</property>
    <property name="Clip right">00:08:58.967=0.224219</property>
    <property name="Clip top">00:08:58.967=0.0944444</property>
    <property name="Clip bottom">00:08:58.967=0</property>
    <property name="Scale X">00:08:58.967=0.27</property>
    <property name="Scale Y">00:08:58.967=0.27</property>
    <property name="Tilt X">00:08:58.967=0.790104</property>
    <property name="Tilt Y">00:08:58.967=0.730556</property>
    <property name="kdenlive:collapsed">0</property>
   </filter>
  </entry>
  <entry producer="producer55" in="00:09:13.933" out="00:33:35.200">
   <property name="kdenlive:id">19</property>
   <filter id="filter82">
    <property name="version">0.1</property>
    <property name="mlt_service">frei0r.scale0tilt</property>
    <property name="kdenlive_id">Facecam crop</property>
    <property name="Clip left">00:09:13.933=0.296875</property>
    <property name="Clip right">00:09:13.933=0.224219</property>
    <property name="Clip top">00:09:13.933=0.0944444</property>
    <property name="Clip bottom">00:09:13.933=0</property>
    <property name="Scale X">00:09:13.933=0.27</property>
    <property name="Scale Y">00:09:13.933=0.27</property>
    <property name="Tilt X">00:09:13.933=0.790104</property>
    <property name="Tilt Y">00:09:13.933=0.730556</property>
   </filter>
  </entry>
  <blank length="00:00:08.367"/>
  <entry producer="producer56" in="00:00:00.000" out="00:08:19.267">
   <property name="kdenlive:id">10</property>
  </entry>
  <entry producer="producer57" in="00:00:00.000" out="00:14:22.433">
   <property name="kdenlive:id">13</property>
  </entry>
  <blank length="00:00:52.933"/>
  <entry producer="producer58" in="00:00:00.000" out="00:10:14.800">
   <property name="kdenlive:id">16</property>
  </entry>
 </playlist>
 <playlist id="playlist9"/>
 <tractor id="tractor4" in="00:00:00.000" out="01:26:31.333">
  <property name="kdenlive:trackheight">67</property>
  <property name="kdenlive:timeline_active">1</property>
  <property name="kdenlive:collapsed">0</property>
  <property name="kdenlive:thumbs_format"/>
  <property name="kdenlive:audio_rec"/>
  <track hide="audio" producer="playlist8"/>
  <track hide="audio" producer="playlist9"/>
 </tractor>
 <playlist id="playlist10">
  <blank length="00:04:05.767"/>
  <entry producer="producer22" in="00:00:00.000" out="00:00:04.967">
   <property name="kdenlive:id">24</property>
   <filter id="filter83" out="00:00:01.000">
    <property name="start">1</property>
    <property name="level">1</property>
    <property name="mlt_service">brightness</property>
    <property name="kdenlive_id">fade_from_Fade in 1 sec</property>
    <property name="alpha">00:00:00.000=0;00:00:01.000=1</property>
    <property name="kdenlive:collapsed">0</property>
   </filter>
   <filter id="filter84" in="00:00:03.967" out="00:00:04.967">
    <property name="start">1</property>
    <property name="level">1</property>
    <property name="mlt_service">brightness</property>
    <property name="kdenlive_id">fade_to_Fade out 1 sec</property>
    <property name="alpha">00:00:00.000=1;00:00:01.000=0</property>
    <property name="kdenlive:collapsed">0</property>
   </filter>
  </entry>
  <blank length="00:00:22.067"/>
  <entry producer="producer23" in="00:00:00.000" out="00:00:06.767">
   <property name="kdenlive:id">25</property>
   <filter id="filter85" out="00:00:01.000">
    <property name="start">1</property>
    <property name="level">1</property>
    <property name="mlt_service">brightness</property>
    <property name="kdenlive_id">fade_from_Fade in 1 sec</property>
    <property name="alpha">00:00:00.000=0;00:00:01.000=1</property>
    <property name="kdenlive:collapsed">0</property>
   </filter>
   <filter id="filter86" in="00:00:04.433" out="00:00:06.767">
    <property name="start">1</property>
    <property name="level">1</property>
    <property name="mlt_service">brightness</property>
    <property name="kdenlive_id">fade_to_Fade out 1 sec</property>
    <property name="alpha">00:00:00.000=1;00:00:02.333=0</property>
    <property name="kdenlive:collapsed">0</property>
   </filter>
  </entry>
  <blank length="00:00:12.800"/>
  <entry producer="producer24" in="00:00:00.000" out="00:00:08.633">
   <property name="kdenlive:id">26</property>
   <filter id="filter87" out="00:00:01.000">
    <property name="start">1</property>
    <property name="level">1</property>
    <property name="mlt_service">brightness</property>
    <property name="kdenlive_id">fade_from_Fade in 1 sec</property>
    <property name="alpha">00:00:00.000=0;00:00:01.000=1</property>
    <property name="kdenlive:collapsed">0</property>
   </filter>
   <filter id="filter88" in="00:00:07.633" out="00:00:08.633">
    <property name="start">1</property>
    <property name="level">1</property>
    <property name="mlt_service">brightness</property>
    <property name="kdenlive_id">fade_to_Fade out 1 sec</property>
    <property name="alpha">00:00:00.000=1;00:00:01.000=0</property>
    <property name="kdenlive:collapsed">0</property>
   </filter>
  </entry>
  <blank length="00:00:09.233"/>
  <entry producer="producer25" in="00:00:00.000" out="00:00:05.400">
   <property name="kdenlive:id">27</property>
   <filter id="filter89" out="00:00:01.000">
    <property name="start">1</property>
    <property name="level">1</property>
    <property name="mlt_service">brightness</property>
    <property name="kdenlive_id">fade_from_Fade in 1 sec</property>
    <property name="alpha">00:00:00.000=0;00:00:01.000=1</property>
    <property name="kdenlive:collapsed">0</property>
   </filter>
   <filter id="filter90" in="00:00:04.400" out="00:00:05.400">
    <property name="start">1</property>
    <property name="level">1</property>
    <property name="mlt_service">brightness</property>
    <property name="kdenlive_id">fade_to_Fade out 1 sec</property>
    <property name="alpha">00:00:00.000=1;00:00:01.000=0</property>
    <property name="kdenlive:collapsed">0</property>
   </filter>
  </entry>
  <blank length="00:06:38.900"/>
  <entry producer="producer27" in="00:00:00.000" out="00:00:11.933">
   <property name="kdenlive:id">35</property>
   <filter id="filter91" out="00:00:01.000">
    <property name="start">1</property>
    <property name="level">1</property>
    <property name="mlt_service">brightness</property>
    <property name="kdenlive_id">fade_from_Fade in 1 sec</property>
    <property name="alpha">00:00:00.000=0;00:00:01.000=1</property>
    <property name="kdenlive:collapsed">0</property>
   </filter>
   <filter id="filter92" in="00:00:10.933" out="00:00:11.933">
    <property name="start">1</property>
    <property name="level">1</property>
    <property name="mlt_service">brightness</property>
    <property name="kdenlive_id">fade_to_Fade out 1 sec</property>
    <property name="alpha">00:00:00.000=1;00:00:01.000=0</property>
    <property name="kdenlive:collapsed">0</property>
   </filter>
  </entry>
  <blank length="00:02:03.000"/>
  <entry producer="producer23" in="00:00:00.000" out="00:00:06.233">
   <property name="kdenlive:id">25</property>
   <filter id="filter93" out="00:00:01.000">
    <property name="start">1</property>
    <property name="level">1</property>
    <property name="mlt_service">brightness</property>
    <property name="kdenlive_id">fade_from_Fade in 1 sec</property>
    <property name="alpha">00:00:00.000=0;00:00:01.000=1</property>
    <property name="kdenlive:collapsed">0</property>
   </filter>
   <filter id="filter94" in="00:00:05.233" out="00:00:06.233">
    <property name="start">1</property>
    <property name="level">1</property>
    <property name="mlt_service">brightness</property>
    <property name="kdenlive_id">fade_to_Fade out 1 sec</property>
    <property name="alpha">00:00:00.000=1;00:00:01.000=0</property>
    <property name="kdenlive:collapsed">0</property>
   </filter>
  </entry>
  <blank length="00:00:39.100"/>
  <entry producer="producer28" in="00:00:00.000" out="00:00:06.967">
   <property name="kdenlive:id">36</property>
   <filter id="filter95" out="00:00:01.000">
    <property name="start">1</property>
    <property name="level">1</property>
    <property name="mlt_service">brightness</property>
    <property name="kdenlive_id">fade_from_Fade in 1 sec</property>
    <property name="alpha">00:00:00.000=0;00:00:01.000=1</property>
    <property name="kdenlive:collapsed">0</property>
   </filter>
   <filter id="filter96" in="00:00:05.967" out="00:00:06.967">
    <property name="start">1</property>
    <property name="level">1</property>
    <property name="mlt_service">brightness</property>
    <property name="kdenlive_id">fade_to_Fade out 1 sec</property>
    <property name="alpha">00:00:00.000=1;00:00:01.000=0</property>
    <property name="kdenlive:collapsed">0</property>
   </filter>
  </entry>
  <blank length="00:00:06.267"/>
  <entry producer="producer29" in="00:00:00.000" out="00:00:07.000">
   <property name="kdenlive:id">37</property>
   <filter id="filter97" out="00:00:01.000">
    <property name="start">1</property>
    <property name="level">1</property>
    <property name="mlt_service">brightness</property>
    <property name="kdenlive_id">fade_from_Fade in 1 sec</property>
    <property name="alpha">00:00:00.000=0;00:00:01.000=1</property>
    <property name="kdenlive:collapsed">0</property>
   </filter>
   <filter id="filter98" in="00:00:06.000" out="00:00:07.000">
    <property name="start">1</property>
    <property name="level">1</property>
    <property name="mlt_service">brightness</property>
    <property name="kdenlive_id">fade_to_Fade out 1 sec</property>
    <property name="alpha">00:00:00.000=1;00:00:01.000=0</property>
    <property name="kdenlive:collapsed">0</property>
   </filter>
  </entry>
  <blank length="00:06:52.267"/>
  <entry producer="producer30" in="00:00:00.000" out="00:00:14.200">
   <property name="kdenlive:id">38</property>
   <property name="kdenlive:activeeffect">1</property>
   <filter id="filter99" out="00:00:01.000">
    <property name="start">1</property>
    <property name="level">1</property>
    <property name="mlt_service">brightness</property>
    <property name="kdenlive_id">fade_from_Fade in 1 sec</property>
    <property name="alpha">00:00:00.000=0;00:00:01.000=1</property>
    <property name="kdenlive:collapsed">0</property>
   </filter>
   <filter id="filter100" in="00:00:13.200" out="00:00:14.200">
    <property name="start">1</property>
    <property name="level">1</property>
    <property name="mlt_service">brightness</property>
    <property name="kdenlive_id">fade_to_Fade out 1 sec</property>
    <property name="alpha">00:00:00.000=1;00:00:01.000=0</property>
    <property name="kdenlive:collapsed">0</property>
   </filter>
  </entry>
  <blank length="00:00:48.333"/>
  <entry producer="producer31" in="00:00:00.000" out="00:00:05.700">
   <property name="kdenlive:id">39</property>
   <filter id="filter101" out="00:00:01.000">
    <property name="start">1</property>
    <property name="level">1</property>
    <property name="mlt_service">brightness</property>
    <property name="kdenlive_id">fade_from_Fade in 1 sec</property>
    <property name="alpha">00:00:00.000=0;00:00:01.000=1</property>
    <property name="kdenlive:collapsed">0</property>
   </filter>
   <filter id="filter102" in="00:00:04.700" out="00:00:05.700">
    <property name="start">1</property>
    <property name="level">1</property>
    <property name="mlt_service">brightness</property>
    <property name="kdenlive_id">fade_to_Fade out 1 sec</property>
    <property name="alpha">00:00:00.000=1;00:00:01.000=0</property>
    <property name="kdenlive:collapsed">0</property>
   </filter>
  </entry>
  <blank length="00:00:22.000"/>
  <entry producer="producer32" in="00:00:00.000" out="00:00:06.300">
   <property name="kdenlive:id">40</property>
   <property name="kdenlive:activeeffect">1</property>
   <filter id="filter103" out="00:00:01.000">
    <property name="start">1</property>
    <property name="level">1</property>
    <property name="mlt_service">brightness</property>
    <property name="kdenlive_id">fade_from_Fade in 1 sec</property>
    <property name="alpha">0=0;-1=1</property>
    <property name="kdenlive:collapsed">0</property>
   </filter>
   <filter id="filter104" in="00:00:05.300" out="00:00:06.300">
    <property name="start">1</property>
    <property name="level">1</property>
    <property name="mlt_service">brightness</property>
    <property name="kdenlive_id">fade_to_Fade out 1 sec</property>
    <property name="alpha">0=1;-1=0</property>
    <property name="kdenlive:collapsed">0</property>
   </filter>
  </entry>
  <blank length="00:00:35.500"/>
  <entry producer="producer34" in="00:00:00.000" out="00:00:09.667">
   <property name="kdenlive:id">42</property>
   <filter id="filter105" out="00:00:01.000">
    <property name="start">1</property>
    <property name="level">1</property>
    <property name="mlt_service">brightness</property>
    <property name="kdenlive_id">fade_from_Fade in 1 sec</property>
    <property name="alpha">00:00:00.000=0;00:00:01.000=1</property>
    <property name="kdenlive:collapsed">0</property>
   </filter>
   <filter id="filter106" in="00:00:08.667" out="00:00:09.667">
    <property name="start">1</property>
    <property name="level">1</property>
    <property name="mlt_service">brightness</property>
    <property name="kdenlive_id">fade_to_Fade out 1 sec</property>
    <property name="alpha">00:00:00.000=1;00:00:01.000=0</property>
    <property name="kdenlive:collapsed">0</property>
   </filter>
  </entry>
  <blank length="00:03:48.300"/>
  <entry producer="producer35" in="00:00:00.000" out="00:00:04.967">
   <property name="kdenlive:id">43</property>
   <filter id="filter107" out="00:00:01.000">
    <property name="start">1</property>
    <property name="level">1</property>
    <property name="mlt_service">brightness</property>
    <property name="kdenlive_id">fade_from_Fade in 1 sec</property>
    <property name="alpha">00:00:00.000=0;00:00:01.000=1</property>
    <property name="kdenlive:collapsed">0</property>
   </filter>
   <filter id="filter108" in="00:00:03.967" out="00:00:04.967">
    <property name="start">1</property>
    <property name="level">1</property>
    <property name="mlt_service">brightness</property>
    <property name="kdenlive_id">fade_to_Fade out 1 sec</property>
    <property name="alpha">00:00:00.000=1;00:00:01.000=0</property>
    <property name="kdenlive:collapsed">0</property>
   </filter>
  </entry>
 </playlist>
 <playlist id="playlist11"/>
 <tractor id="tractor5" in="00:00:00.000" out="00:28:22.667">
  <property name="kdenlive:trackheight">67</property>
  <property name="kdenlive:timeline_active">0</property>
  <property name="kdenlive:collapsed">0</property>
  <property name="kdenlive:track_name">Titles</property>
  <property name="kdenlive:thumbs_format"/>
  <property name="kdenlive:audio_rec"/>
  <track hide="audio" producer="playlist10"/>
  <track hide="audio" producer="playlist11"/>
 </tractor>
 <playlist id="playlist12">
  <blank length="00:23:52.600"/>
  <entry producer="producer33" in="00:00:00.000" out="00:00:04.967">
   <property name="kdenlive:id">41</property>
   <filter id="filter109">
    <property name="version">0.1</property>
    <property name="mlt_service">frei0r.scale0tilt</property>
    <property name="kdenlive_id">frei0r.scale0tilt</property>
    <property name="Clip left">00:00:00.000=0</property>
    <property name="Clip right">00:00:00.000=0</property>
    <property name="Clip top">00:00:00.000=0</property>
    <property name="Clip bottom">00:00:00.000=0</property>
    <property name="Scale X">00:00:00.000=0.2</property>
    <property name="Scale Y">00:00:00.000=0.2</property>
    <property name="Tilt X">00:00:00.000=0.625781</property>
    <property name="Tilt Y">00:00:00.000=0.684722</property>
    <property name="kdenlive:collapsed">1</property>
   </filter>
   <filter id="filter110" out="00:00:01.000">
    <property name="start">1</property>
    <property name="level">1</property>
    <property name="mlt_service">brightness</property>
    <property name="kdenlive_id">fade_from_Fade in 1 sec</property>
    <property name="alpha">00:00:00.000=0;00:00:01.000=1</property>
    <property name="kdenlive:collapsed">0</property>
   </filter>
   <filter id="filter111" in="00:00:03.967" out="00:00:04.967">
    <property name="start">1</property>
    <property name="level">1</property>
    <property name="mlt_service">brightness</property>
    <property name="kdenlive_id">fade_to_Fade out 1 sec</property>
    <property name="alpha">00:00:00.000=1;00:00:01.000=0</property>
    <property name="kdenlive:collapsed">0</property>
   </filter>
  </entry>
  <blank length="00:01:08.900"/>
  <entry producer="producer36" in="00:00:00.000" out="00:00:04.967">
   <property name="kdenlive:id">44</property>
   <filter id="filter112">
    <property name="version">0.1</property>
    <property name="mlt_service">frei0r.scale0tilt</property>
    <property name="kdenlive_id">frei0r.scale0tilt</property>
    <property name="Clip left">00:00:00.000=0</property>
    <property name="Clip right">00:00:00.000=0</property>
    <property name="Clip top">00:00:00.000=0</property>
    <property name="Clip bottom">00:00:00.000=0</property>
    <property name="Scale X">00:00:00.000=0.15</property>
    <property name="Scale Y">00:00:00.000=0.15</property>
    <property name="Tilt X">00:00:00.000=0.609375</property>
    <property name="Tilt Y">00:00:00.000=0.825</property>
    <property name="kdenlive:collapsed">0</property>
   </filter>
   <filter id="filter113" out="00:00:01.000">
    <property name="start">1</property>
    <property name="level">1</property>
    <property name="mlt_service">brightness</property>
    <property name="kdenlive_id">fade_from_Fade in 1 sec</property>
    <property name="alpha">00:00:00.000=0;00:00:01.000=1</property>
    <property name="kdenlive:collapsed">0</property>
   </filter>
   <filter id="filter114" in="00:00:03.967" out="00:00:04.967">
    <property name="start">1</property>
    <property name="level">1</property>
    <property name="mlt_service">brightness</property>
    <property name="kdenlive_id">fade_to_Fade out 1 sec</property>
    <property name="alpha">00:00:00.000=1;00:00:01.000=0</property>
    <property name="kdenlive:collapsed">0</property>
   </filter>
  </entry>
  <blank length="00:00:11.300"/>
  <entry producer="producer37" in="00:00:00.000" out="00:00:08.933">
   <property name="kdenlive:id">45</property>
   <filter id="filter115">
    <property name="version">0.1</property>
    <property name="mlt_service">frei0r.scale0tilt</property>
    <property name="kdenlive_id">frei0r.scale0tilt</property>
    <property name="Clip left">00:00:00.000=0</property>
    <property name="Clip right">00:00:00.000=0</property>
    <property name="Clip top">00:00:00.000=0</property>
    <property name="Clip bottom">00:00:00.000=0</property>
    <property name="Scale X">00:00:00.000=0.15</property>
    <property name="Scale Y">00:00:00.000=0.15</property>
    <property name="Tilt X">00:00:00.000=0.609375</property>
    <property name="Tilt Y">00:00:00.000=0.825</property>
    <property name="kdenlive:collapsed">0</property>
   </filter>
   <filter id="filter116" out="00:00:01.000">
    <property name="start">1</property>
    <property name="level">1</property>
    <property name="mlt_service">brightness</property>
    <property name="kdenlive_id">fade_from_Fade in 1 sec</property>
    <property name="alpha">00:00:00.000=0;00:00:01.000=1</property>
    <property name="kdenlive:collapsed">0</property>
   </filter>
   <filter id="filter117" in="00:00:07.933" out="00:00:08.933">
    <property name="start">1</property>
    <property name="level">1</property>
    <property name="mlt_service">brightness</property>
    <property name="kdenlive_id">fade_to_Fade out 1 sec</property>
    <property name="alpha">00:00:00.000=1;00:00:01.000=0</property>
    <property name="kdenlive:collapsed">0</property>
   </filter>
  </entry>
  <blank length="00:00:21.967"/>
  <entry producer="producer38" in="00:00:00.000" out="00:00:14.667">
   <property name="kdenlive:id">46</property>
   <property name="kdenlive:activeeffect">2</property>
   <filter id="filter118">
    <property name="version">0.1</property>
    <property name="mlt_service">frei0r.scale0tilt</property>
    <property name="kdenlive_id">frei0r.scale0tilt</property>
    <property name="Clip left">00:00:00.000=0</property>
    <property name="Clip right">00:00:00.000=0</property>
    <property name="Clip top">00:00:00.000=0</property>
    <property name="Clip bottom">00:00:00.000=0</property>
    <property name="Scale X">00:00:00.000=0.15</property>
    <property name="Scale Y">00:00:00.000=0.15</property>
    <property name="Tilt X">00:00:00.000=0.609375</property>
    <property name="Tilt Y">00:00:00.000=0.825</property>
    <property name="kdenlive:collapsed">0</property>
   </filter>
   <filter id="filter119" out="00:00:01.000">
    <property name="start">1</property>
    <property name="level">1</property>
    <property name="mlt_service">brightness</property>
    <property name="kdenlive_id">fade_from_Fade in 1 sec</property>
    <property name="alpha">00:00:00.000=0;00:00:01.000=1</property>
    <property name="kdenlive:collapsed">0</property>
   </filter>
   <filter id="filter120" in="00:00:13.667" out="00:00:14.667">
    <property name="start">1</property>
    <property name="level">1</property>
    <property name="mlt_service">brightness</property>
    <property name="kdenlive_id">fade_to_Fade out 1 sec</property>
    <property name="alpha">00:00:00.000=1;00:00:01.000=0</property>
    <property name="kdenlive:collapsed">0</property>
   </filter>
  </entry>
  <blank length="00:00:37.400"/>
  <entry producer="producer39" in="00:00:00.000" out="00:00:22.267">
   <property name="kdenlive:id">47</property>
  </entry>
  <blank length="00:00:20.867"/>
  <entry producer="producer40" in="00:00:00.000" out="00:00:17.033">
   <property name="kdenlive:id">48</property>
   <property name="kdenlive:activeeffect">2</property>
   <filter id="filter121">
    <property name="version">0.1</property>
    <property name="mlt_service">frei0r.scale0tilt</property>
    <property name="kdenlive_id">frei0r.scale0tilt</property>
    <property name="Clip left">00:00:00.000=0</property>
    <property name="Clip right">00:00:00.000=0</property>
    <property name="Clip top">00:00:00.000=0</property>
    <property name="Clip bottom">00:00:00.000=0</property>
    <property name="Scale X">00:00:00.000=0.15</property>
    <property name="Scale Y">00:00:00.000=0.15</property>
    <property name="Tilt X">00:00:00.000=0.609375</property>
    <property name="Tilt Y">00:00:00.000=0.825</property>
    <property name="kdenlive:collapsed">0</property>
   </filter>
   <filter id="filter122" out="00:00:01.000">
    <property name="start">1</property>
    <property name="level">1</property>
    <property name="mlt_service">brightness</property>
    <property name="kdenlive_id">fade_from_Fade in 1 sec</property>
    <property name="alpha">00:00:00.000=0;00:00:01.000=1</property>
    <property name="kdenlive:collapsed">0</property>
   </filter>
   <filter id="filter123" in="00:00:16.033" out="00:00:17.033">
    <property name="start">1</property>
    <property name="level">1</property>
    <property name="mlt_service">brightness</property>
    <property name="kdenlive_id">fade_to_Fade out 1 sec</property>
    <property name="alpha">00:00:00.000=1;00:00:01.000=0</property>
    <property name="kdenlive:collapsed">0</property>
   </filter>
  </entry>
 </playlist>
 <playlist id="playlist13"/>
 <tractor id="tractor6" in="00:00:00.000" out="00:27:46.033">
  <property name="kdenlive:trackheight">67</property>
  <property name="kdenlive:timeline_active">1</property>
  <property name="kdenlive:collapsed">0</property>
  <property name="kdenlive:track_name">Frames</property>
  <property name="kdenlive:thumbs_format"/>
  <property name="kdenlive:audio_rec"/>
  <track hide="audio" producer="playlist12"/>
  <track hide="audio" producer="playlist13"/>
 </tractor>
 <tractor id="tractor7" in="00:00:00.000" out="01:43:11.367">
  <track producer="black_track"/>
  <track producer="tractor0"/>
  <track producer="tractor1"/>
  <track producer="tractor2"/>
  <track producer="tractor3"/>
  <track producer="tractor4"/>
  <track producer="tractor5"/>
  <track producer="tractor6"/>
  <transition id="transition0">
   <property name="a_track">0</property>
   <property name="b_track">1</property>
   <property name="mlt_service">mix</property>
   <property name="kdenlive_id">mix</property>
   <property name="internal_added">237</property>
   <property name="always_active">1</property>
   <property name="accepts_blanks">1</property>
   <property name="sum">1</property>
  </transition>
  <transition id="transition1">
   <property name="a_track">0</property>
   <property name="b_track">2</property>
   <property name="mlt_service">mix</property>
   <property name="kdenlive_id">mix</property>
   <property name="internal_added">237</property>
   <property name="always_active">1</property>
   <property name="accepts_blanks">1</property>
   <property name="sum">1</property>
  </transition>
  <transition id="transition2">
   <property name="a_track">0</property>
   <property name="b_track">3</property>
   <property name="mlt_service">mix</property>
   <property name="kdenlive_id">mix</property>
   <property name="internal_added">237</property>
   <property name="always_active">1</property>
   <property name="accepts_blanks">1</property>
   <property name="sum">1</property>
  </transition>
  <transition id="transition3">
   <property name="a_track">0</property>
   <property name="b_track">4</property>
   <property name="version">0.1</property>
   <property name="mlt_service">frei0r.cairoblend</property>
   <property name="always_active">1</property>
   <property name="internal_added">237</property>
  </transition>
  <transition id="transition4">
   <property name="a_track">0</property>
   <property name="b_track">5</property>
   <property name="version">0.1</property>
   <property name="mlt_service">frei0r.cairoblend</property>
   <property name="always_active">1</property>
   <property name="internal_added">237</property>
  </transition>
  <transition id="transition5">
   <property name="a_track">0</property>
   <property name="b_track">6</property>
   <property name="version">0.1</property>
   <property name="mlt_service">frei0r.cairoblend</property>
   <property name="always_active">1</property>
   <property name="internal_added">237</property>
  </transition>
  <transition id="transition6">
   <property name="a_track">0</property>
   <property name="b_track">7</property>
   <property name="version">0.1</property>
   <property name="mlt_service">frei0r.cairoblend</property>
   <property name="always_active">1</property>
   <property name="internal_added">237</property>
  </transition>
  <filter id="filter124">
   <property name="window">75</property>
   <property name="max_gain">20dB</property>
   <property name="mlt_service">volume</property>
   <property name="internal_added">237</property>
   <property name="disable">1</property>
  </filter>
  <filter id="filter125">
   <property name="channel">-1</property>
   <property name="mlt_service">panner</property>
   <property name="internal_added">237</property>
   <property name="start">0.5</property>
   <property name="disable">1</property>
  </filter>
 </tractor>
</mlt>
