<?xml version='1.0' encoding='utf-8'?>
<mlt LC_NUMERIC="C" producer="main_bin" version="7.13.0" root="/media/jaker/Pterosaur/Videos/Class/CAD/subtitles">
 <profile frame_rate_num="30" sample_aspect_num="1" display_aspect_den="9" colorspace="709" progressive="1" description="HD 720p 30 fps" display_aspect_num="16" frame_rate_den="1" width="1280" height="720" sample_aspect_den="1"/>
 <producer id="producer0" in="00:00:00.000" out="00:24:20.733">
  <property name="length">43823</property>
  <property name="eof">pause</property>
  <property name="resource">/media/jaker/Pterosaur/Videos/Class/CAD/clips/01 CAD audio.mkv</property>
  <property name="audio_index">1</property>
  <property name="video_index">0</property>
  <property name="mute_on_pause">0</property>
  <property name="mlt_service">avformat-novalidate</property>
  <property name="meta.media.nb_streams">2</property>
  <property name="meta.media.0.stream.type">video</property>
  <property name="meta.media.0.stream.frame_rate">30</property>
  <property name="meta.media.0.stream.sample_aspect_ratio">0</property>
  <property name="meta.media.0.codec.width">1280</property>
  <property name="meta.media.0.codec.height">720</property>
  <property name="meta.media.0.codec.rotate">0</property>
  <property name="meta.media.0.codec.pix_fmt">yuv420p</property>
  <property name="meta.media.0.codec.sample_aspect_ratio">1</property>
  <property name="meta.media.0.codec.colorspace">709</property>
  <property name="meta.media.0.codec.color_trc">1</property>
  <property name="meta.media.0.codec.name">h264</property>
  <property name="meta.media.0.codec.long_name">H.264 / AVC / MPEG-4 AVC / MPEG-4 part 10</property>
  <property name="meta.media.0.codec.bit_rate">0</property>
  <property name="meta.attr.0.stream.DURATION.markup">00:24:20.766000000</property>
  <property name="meta.media.1.stream.type">audio</property>
  <property name="meta.media.1.codec.sample_fmt">fltp</property>
  <property name="meta.media.1.codec.sample_rate">48000</property>
  <property name="meta.media.1.codec.channels">2</property>
  <property name="meta.media.1.codec.name">aac</property>
  <property name="meta.media.1.codec.long_name">AAC (Advanced Audio Coding)</property>
  <property name="meta.media.1.codec.bit_rate">0</property>
  <property name="meta.attr.1.stream.title.markup">Track1</property>
  <property name="meta.attr.1.stream.DURATION.markup">00:24:20.608000000</property>
  <property name="meta.attr.ENCODER.markup">Lavf58.76.100</property>
  <property name="seekable">1</property>
  <property name="meta.media.sample_aspect_num">1</property>
  <property name="meta.media.sample_aspect_den">1</property>
  <property name="aspect_ratio">1</property>
  <property name="format">3</property>
  <property name="kdenlive:clipname"/>
  <property name="kdenlive:clip_type">0</property>
  <property name="kdenlive:folderid">28</property>
  <property name="kdenlive:id">2</property>
  <property name="kdenlive:file_size">486506479</property>
  <property name="kdenlive:file_hash">51d88c746da7879822eea9d20c5972e1</property>
  <property name="kdenlive:audio_max1">234</property>
  <property name="meta.media.frame_rate_num">30</property>
  <property name="meta.media.frame_rate_den">1</property>
  <property name="meta.media.colorspace">709</property>
  <property name="meta.media.color_trc">1</property>
  <property name="meta.media.has_b_frames">2</property>
  <property name="meta.media.width">1280</property>
  <property name="meta.media.height">720</property>
  <property name="meta.media.color_range">mpeg</property>
  <property name="meta.media.top_field_first">0</property>
  <property name="meta.media.progressive">1</property>
 </producer>
 <producer id="producer2" in="00:00:00.000" out="00:24:21.033">
  <property name="length">43832</property>
  <property name="eof">pause</property>
  <property name="resource">/media/jaker/Pterosaur/Videos/Class/CAD/clips/01 CAD Desktop.mkv</property>
  <property name="audio_index">1</property>
  <property name="video_index">0</property>
  <property name="mute_on_pause">0</property>
  <property name="mlt_service">avformat-novalidate</property>
  <property name="meta.media.nb_streams">2</property>
  <property name="meta.media.0.stream.type">video</property>
  <property name="meta.media.0.stream.frame_rate">30</property>
  <property name="meta.media.0.stream.sample_aspect_ratio">0</property>
  <property name="meta.media.0.codec.width">1920</property>
  <property name="meta.media.0.codec.height">1080</property>
  <property name="meta.media.0.codec.rotate">0</property>
  <property name="meta.media.0.codec.pix_fmt">yuv420p</property>
  <property name="meta.media.0.codec.sample_aspect_ratio">1</property>
  <property name="meta.media.0.codec.colorspace">709</property>
  <property name="meta.media.0.codec.color_trc">1</property>
  <property name="meta.media.0.codec.name">h264</property>
  <property name="meta.media.0.codec.long_name">H.264 / AVC / MPEG-4 AVC / MPEG-4 part 10</property>
  <property name="meta.media.0.codec.bit_rate">0</property>
  <property name="meta.attr.0.stream.DURATION.markup">00:24:21.066000000</property>
  <property name="meta.media.1.stream.type">audio</property>
  <property name="meta.media.1.codec.sample_fmt">fltp</property>
  <property name="meta.media.1.codec.sample_rate">48000</property>
  <property name="meta.media.1.codec.channels">2</property>
  <property name="meta.media.1.codec.name">aac</property>
  <property name="meta.media.1.codec.long_name">AAC (Advanced Audio Coding)</property>
  <property name="meta.media.1.codec.bit_rate">0</property>
  <property name="meta.attr.1.stream.title.markup">Source Record</property>
  <property name="meta.attr.1.stream.DURATION.markup">00:24:21.056000000</property>
  <property name="meta.attr.ENCODER.markup">Lavf58.76.100</property>
  <property name="seekable">1</property>
  <property name="meta.media.sample_aspect_num">1</property>
  <property name="meta.media.sample_aspect_den">1</property>
  <property name="aspect_ratio">1</property>
  <property name="format">3</property>
  <property name="kdenlive:clipname"/>
  <property name="kdenlive:clip_type">0</property>
  <property name="kdenlive:folderid">28</property>
  <property name="kdenlive:id">3</property>
  <property name="kdenlive:file_size">457735203</property>
  <property name="kdenlive:file_hash">5ea2fd1f66be5394ba4ff472605eaf2d</property>
  <property name="kdenlive:audio_max1">1</property>
  <property name="meta.media.frame_rate_num">30</property>
  <property name="meta.media.frame_rate_den">1</property>
  <property name="meta.media.colorspace">709</property>
  <property name="meta.media.color_trc">1</property>
  <property name="meta.media.has_b_frames">0</property>
  <property name="meta.media.width">1920</property>
  <property name="meta.media.height">1080</property>
  <property name="meta.media.color_range">mpeg</property>
  <property name="meta.media.top_field_first">0</property>
  <property name="meta.media.progressive">1</property>
 </producer>
 <producer id="producer1" in="00:00:00.000" out="00:24:21.167">
  <property name="length">43836</property>
  <property name="eof">pause</property>
  <property name="resource">/media/jaker/Pterosaur/Videos/Class/CAD/clips/01 CAD facecam.mkv</property>
  <property name="audio_index">1</property>
  <property name="video_index">0</property>
  <property name="mute_on_pause">0</property>
  <property name="mlt_service">avformat-novalidate</property>
  <property name="meta.media.nb_streams">2</property>
  <property name="meta.media.0.stream.type">video</property>
  <property name="meta.media.0.stream.frame_rate">30</property>
  <property name="meta.media.0.stream.sample_aspect_ratio">0</property>
  <property name="meta.media.0.codec.width">800</property>
  <property name="meta.media.0.codec.height">600</property>
  <property name="meta.media.0.codec.rotate">0</property>
  <property name="meta.media.0.codec.pix_fmt">yuv420p</property>
  <property name="meta.media.0.codec.sample_aspect_ratio">1</property>
  <property name="meta.media.0.codec.colorspace">709</property>
  <property name="meta.media.0.codec.color_trc">1</property>
  <property name="meta.media.0.codec.name">h264</property>
  <property name="meta.media.0.codec.long_name">H.264 / AVC / MPEG-4 AVC / MPEG-4 part 10</property>
  <property name="meta.media.0.codec.bit_rate">0</property>
  <property name="meta.attr.0.stream.DURATION.markup">00:24:21.166000000</property>
  <property name="meta.media.1.stream.type">audio</property>
  <property name="meta.media.1.codec.sample_fmt">fltp</property>
  <property name="meta.media.1.codec.sample_rate">48000</property>
  <property name="meta.media.1.codec.channels">2</property>
  <property name="meta.media.1.codec.name">aac</property>
  <property name="meta.media.1.codec.long_name">AAC (Advanced Audio Coding)</property>
  <property name="meta.media.1.codec.bit_rate">0</property>
  <property name="meta.attr.1.stream.title.markup">Source Record</property>
  <property name="meta.attr.1.stream.DURATION.markup">00:24:21.184000000</property>
  <property name="meta.attr.ENCODER.markup">Lavf58.76.100</property>
  <property name="seekable">1</property>
  <property name="meta.media.sample_aspect_num">1</property>
  <property name="meta.media.sample_aspect_den">1</property>
  <property name="aspect_ratio">1</property>
  <property name="format">3</property>
  <property name="kdenlive:clipname"/>
  <property name="kdenlive:clip_type">0</property>
  <property name="kdenlive:folderid">28</property>
  <property name="kdenlive:id">4</property>
  <property name="kdenlive:file_size">457797774</property>
  <property name="kdenlive:file_hash">42fbf6649d003d9839583cf493490ac7</property>
  <property name="kdenlive:audio_max1">1</property>
  <property name="meta.media.frame_rate_num">30</property>
  <property name="meta.media.frame_rate_den">1</property>
  <property name="meta.media.colorspace">709</property>
  <property name="meta.media.color_trc">1</property>
  <property name="meta.media.has_b_frames">0</property>
  <property name="meta.media.width">800</property>
  <property name="meta.media.height">600</property>
  <property name="meta.media.color_range">mpeg</property>
  <property name="meta.media.top_field_first">0</property>
  <property name="meta.media.progressive">1</property>
 </producer>
 <producer id="producer3" in="00:00:00.000" out="00:09:14.400">
  <property name="length">16633</property>
  <property name="eof">pause</property>
  <property name="resource">/media/jaker/Pterosaur/Videos/Class/CAD/clips/02 Setup audio.mkv</property>
  <property name="audio_index">1</property>
  <property name="video_index">0</property>
  <property name="mute_on_pause">0</property>
  <property name="mlt_service">avformat-novalidate</property>
  <property name="meta.media.nb_streams">2</property>
  <property name="meta.media.0.stream.type">video</property>
  <property name="meta.media.0.stream.frame_rate">30</property>
  <property name="meta.media.0.stream.sample_aspect_ratio">0</property>
  <property name="meta.media.0.codec.width">1280</property>
  <property name="meta.media.0.codec.height">720</property>
  <property name="meta.media.0.codec.rotate">0</property>
  <property name="meta.media.0.codec.pix_fmt">yuv420p</property>
  <property name="meta.media.0.codec.sample_aspect_ratio">1</property>
  <property name="meta.media.0.codec.colorspace">709</property>
  <property name="meta.media.0.codec.color_trc">1</property>
  <property name="meta.media.0.codec.name">h264</property>
  <property name="meta.media.0.codec.long_name">H.264 / AVC / MPEG-4 AVC / MPEG-4 part 10</property>
  <property name="meta.media.0.codec.bit_rate">0</property>
  <property name="meta.attr.0.stream.DURATION.markup">00:09:14.433000000</property>
  <property name="meta.media.1.stream.type">audio</property>
  <property name="meta.media.1.codec.sample_fmt">fltp</property>
  <property name="meta.media.1.codec.sample_rate">48000</property>
  <property name="meta.media.1.codec.channels">2</property>
  <property name="meta.media.1.codec.name">aac</property>
  <property name="meta.media.1.codec.long_name">AAC (Advanced Audio Coding)</property>
  <property name="meta.media.1.codec.bit_rate">0</property>
  <property name="meta.attr.1.stream.title.markup">Track1</property>
  <property name="meta.attr.1.stream.DURATION.markup">00:09:14.304000000</property>
  <property name="meta.attr.ENCODER.markup">Lavf58.76.100</property>
  <property name="seekable">1</property>
  <property name="meta.media.sample_aspect_num">1</property>
  <property name="meta.media.sample_aspect_den">1</property>
  <property name="aspect_ratio">1</property>
  <property name="format">3</property>
  <property name="kdenlive:clipname"/>
  <property name="kdenlive:clip_type">0</property>
  <property name="kdenlive:folderid">29</property>
  <property name="kdenlive:id">5</property>
  <property name="kdenlive:file_size">184665858</property>
  <property name="kdenlive:file_hash">d245c29173e458c43a90e2f4ad3837df</property>
  <property name="kdenlive:audio_max1">174</property>
  <property name="meta.media.frame_rate_num">30</property>
  <property name="meta.media.frame_rate_den">1</property>
  <property name="meta.media.colorspace">709</property>
  <property name="meta.media.color_trc">1</property>
  <property name="meta.media.has_b_frames">2</property>
  <property name="meta.media.width">1280</property>
  <property name="meta.media.height">720</property>
  <property name="meta.media.color_range">mpeg</property>
  <property name="meta.media.top_field_first">0</property>
  <property name="meta.media.progressive">1</property>
 </producer>
 <producer id="producer4" in="00:00:00.000" out="00:09:14.133">
  <property name="length">16625</property>
  <property name="eof">pause</property>
  <property name="resource">/media/jaker/Pterosaur/Videos/Class/CAD/clips/02 Setup Desktop.mkv</property>
  <property name="audio_index">1</property>
  <property name="video_index">0</property>
  <property name="mute_on_pause">0</property>
  <property name="mlt_service">avformat-novalidate</property>
  <property name="meta.media.nb_streams">2</property>
  <property name="meta.media.0.stream.type">video</property>
  <property name="meta.media.0.stream.frame_rate">30</property>
  <property name="meta.media.0.stream.sample_aspect_ratio">0</property>
  <property name="meta.media.0.codec.width">1920</property>
  <property name="meta.media.0.codec.height">1080</property>
  <property name="meta.media.0.codec.rotate">0</property>
  <property name="meta.media.0.codec.pix_fmt">yuv420p</property>
  <property name="meta.media.0.codec.sample_aspect_ratio">1</property>
  <property name="meta.media.0.codec.colorspace">709</property>
  <property name="meta.media.0.codec.color_trc">1</property>
  <property name="meta.media.0.codec.name">h264</property>
  <property name="meta.media.0.codec.long_name">H.264 / AVC / MPEG-4 AVC / MPEG-4 part 10</property>
  <property name="meta.media.0.codec.bit_rate">0</property>
  <property name="meta.attr.0.stream.DURATION.markup">00:09:14.166000000</property>
  <property name="meta.media.1.stream.type">audio</property>
  <property name="meta.media.1.codec.sample_fmt">fltp</property>
  <property name="meta.media.1.codec.sample_rate">48000</property>
  <property name="meta.media.1.codec.channels">2</property>
  <property name="meta.media.1.codec.name">aac</property>
  <property name="meta.media.1.codec.long_name">AAC (Advanced Audio Coding)</property>
  <property name="meta.media.1.codec.bit_rate">0</property>
  <property name="meta.attr.1.stream.title.markup">Source Record</property>
  <property name="meta.attr.1.stream.DURATION.markup">00:09:14.133000000</property>
  <property name="meta.attr.ENCODER.markup">Lavf58.76.100</property>
  <property name="seekable">1</property>
  <property name="meta.media.sample_aspect_num">1</property>
  <property name="meta.media.sample_aspect_den">1</property>
  <property name="aspect_ratio">1</property>
  <property name="format">3</property>
  <property name="kdenlive:clipname"/>
  <property name="kdenlive:clip_type">0</property>
  <property name="kdenlive:folderid">29</property>
  <property name="kdenlive:id">6</property>
  <property name="kdenlive:file_size">173593797</property>
  <property name="kdenlive:file_hash">69dd0610d4a97bddddb2029b4eb429d0</property>
  <property name="kdenlive:audio_max1">1</property>
  <property name="meta.media.frame_rate_num">30</property>
  <property name="meta.media.frame_rate_den">1</property>
  <property name="meta.media.colorspace">709</property>
  <property name="meta.media.color_trc">1</property>
  <property name="meta.media.has_b_frames">0</property>
  <property name="meta.media.width">1920</property>
  <property name="meta.media.height">1080</property>
  <property name="meta.media.color_range">mpeg</property>
  <property name="meta.media.top_field_first">0</property>
  <property name="meta.media.progressive">1</property>
 </producer>
 <producer id="producer5" in="00:00:00.000" out="00:09:14.967">
  <property name="length">16650</property>
  <property name="eof">pause</property>
  <property name="resource">/media/jaker/Pterosaur/Videos/Class/CAD/clips/02 Setup facecam.mkv</property>
  <property name="audio_index">1</property>
  <property name="video_index">0</property>
  <property name="mute_on_pause">0</property>
  <property name="mlt_service">avformat-novalidate</property>
  <property name="meta.media.nb_streams">2</property>
  <property name="meta.media.0.stream.type">video</property>
  <property name="meta.media.0.stream.frame_rate">30</property>
  <property name="meta.media.0.stream.sample_aspect_ratio">0</property>
  <property name="meta.media.0.codec.width">800</property>
  <property name="meta.media.0.codec.height">600</property>
  <property name="meta.media.0.codec.rotate">0</property>
  <property name="meta.media.0.codec.pix_fmt">yuv420p</property>
  <property name="meta.media.0.codec.sample_aspect_ratio">1</property>
  <property name="meta.media.0.codec.colorspace">709</property>
  <property name="meta.media.0.codec.color_trc">1</property>
  <property name="meta.media.0.codec.name">h264</property>
  <property name="meta.media.0.codec.long_name">H.264 / AVC / MPEG-4 AVC / MPEG-4 part 10</property>
  <property name="meta.media.0.codec.bit_rate">0</property>
  <property name="meta.attr.0.stream.DURATION.markup">00:09:14.966000000</property>
  <property name="meta.media.1.stream.type">audio</property>
  <property name="meta.media.1.codec.sample_fmt">fltp</property>
  <property name="meta.media.1.codec.sample_rate">48000</property>
  <property name="meta.media.1.codec.channels">2</property>
  <property name="meta.media.1.codec.name">aac</property>
  <property name="meta.media.1.codec.long_name">AAC (Advanced Audio Coding)</property>
  <property name="meta.media.1.codec.bit_rate">0</property>
  <property name="meta.attr.1.stream.title.markup">Source Record</property>
  <property name="meta.attr.1.stream.DURATION.markup">00:09:14.986000000</property>
  <property name="meta.attr.ENCODER.markup">Lavf58.76.100</property>
  <property name="seekable">1</property>
  <property name="meta.media.sample_aspect_num">1</property>
  <property name="meta.media.sample_aspect_den">1</property>
  <property name="aspect_ratio">1</property>
  <property name="format">3</property>
  <property name="kdenlive:clipname"/>
  <property name="kdenlive:clip_type">0</property>
  <property name="kdenlive:folderid">29</property>
  <property name="kdenlive:id">7</property>
  <property name="kdenlive:file_size">173887131</property>
  <property name="kdenlive:file_hash">1f8ba7dc7065f6f6e4b29e68ba7174db</property>
  <property name="kdenlive:audio_max1">1</property>
  <property name="meta.media.frame_rate_num">30</property>
  <property name="meta.media.frame_rate_den">1</property>
  <property name="meta.media.colorspace">709</property>
  <property name="meta.media.color_trc">1</property>
  <property name="meta.media.has_b_frames">0</property>
  <property name="meta.media.width">800</property>
  <property name="meta.media.height">600</property>
  <property name="meta.media.color_range">mpeg</property>
  <property name="meta.media.top_field_first">0</property>
  <property name="meta.media.progressive">1</property>
 </producer>
 <producer id="producer6" in="00:00:00.000" out="00:08:18.800">
  <property name="length">14965</property>
  <property name="eof">pause</property>
  <property name="resource">/media/jaker/Pterosaur/Videos/Class/CAD/clips/04.0 examples audio.mkv</property>
  <property name="audio_index">1</property>
  <property name="video_index">0</property>
  <property name="mute_on_pause">0</property>
  <property name="mlt_service">avformat-novalidate</property>
  <property name="meta.media.nb_streams">2</property>
  <property name="meta.media.0.stream.type">video</property>
  <property name="meta.media.0.stream.frame_rate">30</property>
  <property name="meta.media.0.stream.sample_aspect_ratio">0</property>
  <property name="meta.media.0.codec.width">1280</property>
  <property name="meta.media.0.codec.height">720</property>
  <property name="meta.media.0.codec.rotate">0</property>
  <property name="meta.media.0.codec.pix_fmt">yuv420p</property>
  <property name="meta.media.0.codec.sample_aspect_ratio">1</property>
  <property name="meta.media.0.codec.colorspace">709</property>
  <property name="meta.media.0.codec.color_trc">1</property>
  <property name="meta.media.0.codec.name">h264</property>
  <property name="meta.media.0.codec.long_name">H.264 / AVC / MPEG-4 AVC / MPEG-4 part 10</property>
  <property name="meta.media.0.codec.bit_rate">0</property>
  <property name="meta.attr.0.stream.DURATION.markup">00:08:18.833000000</property>
  <property name="meta.media.1.stream.type">audio</property>
  <property name="meta.media.1.codec.sample_fmt">fltp</property>
  <property name="meta.media.1.codec.sample_rate">48000</property>
  <property name="meta.media.1.codec.channels">2</property>
  <property name="meta.media.1.codec.name">aac</property>
  <property name="meta.media.1.codec.long_name">AAC (Advanced Audio Coding)</property>
  <property name="meta.media.1.codec.bit_rate">0</property>
  <property name="meta.attr.1.stream.title.markup">Track1</property>
  <property name="meta.attr.1.stream.DURATION.markup">00:08:18.666000000</property>
  <property name="meta.attr.ENCODER.markup">Lavf58.76.100</property>
  <property name="seekable">1</property>
  <property name="meta.media.sample_aspect_num">1</property>
  <property name="meta.media.sample_aspect_den">1</property>
  <property name="aspect_ratio">1</property>
  <property name="format">3</property>
  <property name="kdenlive:clipname"/>
  <property name="kdenlive:clip_type">0</property>
  <property name="kdenlive:folderid">31</property>
  <property name="kdenlive:id">8</property>
  <property name="kdenlive:file_size">166196431</property>
  <property name="kdenlive:file_hash">154550b3169f03cb423d9ba991480391</property>
  <property name="meta.media.frame_rate_num">30</property>
  <property name="meta.media.frame_rate_den">1</property>
  <property name="meta.media.colorspace">709</property>
  <property name="meta.media.color_trc">1</property>
  <property name="meta.media.has_b_frames">2</property>
  <property name="meta.media.width">1280</property>
  <property name="meta.media.height">720</property>
  <property name="meta.media.color_range">mpeg</property>
  <property name="meta.media.top_field_first">0</property>
  <property name="meta.media.progressive">1</property>
  <property name="kdenlive:audio_max1">195</property>
 </producer>
 <producer id="producer8" in="00:00:00.000" out="00:08:19.067">
  <property name="length">14973</property>
  <property name="eof">pause</property>
  <property name="resource">/media/jaker/Pterosaur/Videos/Class/CAD/clips/04.0 examples desktop.mkv</property>
  <property name="audio_index">1</property>
  <property name="video_index">0</property>
  <property name="mute_on_pause">0</property>
  <property name="mlt_service">avformat-novalidate</property>
  <property name="meta.media.nb_streams">2</property>
  <property name="meta.media.0.stream.type">video</property>
  <property name="meta.media.0.stream.frame_rate">30</property>
  <property name="meta.media.0.stream.sample_aspect_ratio">0</property>
  <property name="meta.media.0.codec.width">1920</property>
  <property name="meta.media.0.codec.height">1080</property>
  <property name="meta.media.0.codec.rotate">0</property>
  <property name="meta.media.0.codec.pix_fmt">yuv420p</property>
  <property name="meta.media.0.codec.sample_aspect_ratio">1</property>
  <property name="meta.media.0.codec.colorspace">709</property>
  <property name="meta.media.0.codec.color_trc">1</property>
  <property name="meta.media.0.codec.name">h264</property>
  <property name="meta.media.0.codec.long_name">H.264 / AVC / MPEG-4 AVC / MPEG-4 part 10</property>
  <property name="meta.media.0.codec.bit_rate">0</property>
  <property name="meta.attr.0.stream.DURATION.markup">00:08:19.100000000</property>
  <property name="meta.media.1.stream.type">audio</property>
  <property name="meta.media.1.codec.sample_fmt">fltp</property>
  <property name="meta.media.1.codec.sample_rate">48000</property>
  <property name="meta.media.1.codec.channels">2</property>
  <property name="meta.media.1.codec.name">aac</property>
  <property name="meta.media.1.codec.long_name">AAC (Advanced Audio Coding)</property>
  <property name="meta.media.1.codec.bit_rate">0</property>
  <property name="meta.attr.1.stream.title.markup">Source Record</property>
  <property name="meta.attr.1.stream.DURATION.markup">00:08:19.114000000</property>
  <property name="meta.attr.ENCODER.markup">Lavf58.76.100</property>
  <property name="seekable">1</property>
  <property name="meta.media.sample_aspect_num">1</property>
  <property name="meta.media.sample_aspect_den">1</property>
  <property name="aspect_ratio">1</property>
  <property name="format">3</property>
  <property name="kdenlive:clipname"/>
  <property name="kdenlive:clip_type">0</property>
  <property name="kdenlive:folderid">31</property>
  <property name="kdenlive:id">9</property>
  <property name="kdenlive:file_size">156406009</property>
  <property name="kdenlive:file_hash">7f91ba74889d494d7efc8794a681e8ae</property>
  <property name="meta.media.frame_rate_num">30</property>
  <property name="meta.media.frame_rate_den">1</property>
  <property name="meta.media.colorspace">709</property>
  <property name="meta.media.color_trc">1</property>
  <property name="meta.media.has_b_frames">0</property>
  <property name="meta.media.width">1920</property>
  <property name="meta.media.height">1080</property>
  <property name="meta.media.color_range">mpeg</property>
  <property name="meta.media.top_field_first">0</property>
  <property name="meta.media.progressive">1</property>
  <property name="kdenlive:audio_max1">1</property>
 </producer>
 <producer id="producer7" in="00:00:00.000" out="00:08:19.267">
  <property name="length">14979</property>
  <property name="eof">pause</property>
  <property name="resource">/media/jaker/Pterosaur/Videos/Class/CAD/clips/04.0 examples facecam.mkv</property>
  <property name="audio_index">1</property>
  <property name="video_index">0</property>
  <property name="mute_on_pause">0</property>
  <property name="mlt_service">avformat-novalidate</property>
  <property name="meta.media.nb_streams">2</property>
  <property name="meta.media.0.stream.type">video</property>
  <property name="meta.media.0.stream.frame_rate">30</property>
  <property name="meta.media.0.stream.sample_aspect_ratio">0</property>
  <property name="meta.media.0.codec.width">800</property>
  <property name="meta.media.0.codec.height">600</property>
  <property name="meta.media.0.codec.rotate">0</property>
  <property name="meta.media.0.codec.pix_fmt">yuv420p</property>
  <property name="meta.media.0.codec.sample_aspect_ratio">1</property>
  <property name="meta.media.0.codec.colorspace">709</property>
  <property name="meta.media.0.codec.color_trc">1</property>
  <property name="meta.media.0.codec.name">h264</property>
  <property name="meta.media.0.codec.long_name">H.264 / AVC / MPEG-4 AVC / MPEG-4 part 10</property>
  <property name="meta.media.0.codec.bit_rate">0</property>
  <property name="meta.attr.0.stream.DURATION.markup">00:08:19.300000000</property>
  <property name="meta.media.1.stream.type">audio</property>
  <property name="meta.media.1.codec.sample_fmt">fltp</property>
  <property name="meta.media.1.codec.sample_rate">48000</property>
  <property name="meta.media.1.codec.channels">2</property>
  <property name="meta.media.1.codec.name">aac</property>
  <property name="meta.media.1.codec.long_name">AAC (Advanced Audio Coding)</property>
  <property name="meta.media.1.codec.bit_rate">0</property>
  <property name="meta.attr.1.stream.title.markup">Source Record</property>
  <property name="meta.attr.1.stream.DURATION.markup">00:08:19.285000000</property>
  <property name="meta.attr.ENCODER.markup">Lavf58.76.100</property>
  <property name="seekable">1</property>
  <property name="meta.media.sample_aspect_num">1</property>
  <property name="meta.media.sample_aspect_den">1</property>
  <property name="aspect_ratio">1</property>
  <property name="format">3</property>
  <property name="kdenlive:clipname"/>
  <property name="kdenlive:clip_type">0</property>
  <property name="kdenlive:folderid">31</property>
  <property name="kdenlive:id">10</property>
  <property name="kdenlive:file_size">156453412</property>
  <property name="kdenlive:file_hash">ea3e928635eee5f7eccd0f6ee2fb6f3a</property>
  <property name="meta.media.frame_rate_num">30</property>
  <property name="meta.media.frame_rate_den">1</property>
  <property name="meta.media.colorspace">709</property>
  <property name="meta.media.color_trc">1</property>
  <property name="meta.media.has_b_frames">0</property>
  <property name="meta.media.width">800</property>
  <property name="meta.media.height">600</property>
  <property name="meta.media.color_range">mpeg</property>
  <property name="meta.media.top_field_first">0</property>
  <property name="meta.media.progressive">1</property>
  <property name="kdenlive:audio_max1">1</property>
 </producer>
 <producer id="producer9" in="00:00:00.000" out="00:14:21.900">
  <property name="length">25858</property>
  <property name="eof">pause</property>
  <property name="resource">/media/jaker/Pterosaur/Videos/Class/CAD/clips/04.1 example garden acre audio.mkv</property>
  <property name="audio_index">1</property>
  <property name="video_index">0</property>
  <property name="mute_on_pause">0</property>
  <property name="mlt_service">avformat-novalidate</property>
  <property name="meta.media.nb_streams">2</property>
  <property name="meta.media.0.stream.type">video</property>
  <property name="meta.media.0.stream.frame_rate">30</property>
  <property name="meta.media.0.stream.sample_aspect_ratio">0</property>
  <property name="meta.media.0.codec.width">1280</property>
  <property name="meta.media.0.codec.height">720</property>
  <property name="meta.media.0.codec.rotate">0</property>
  <property name="meta.media.0.codec.pix_fmt">yuv420p</property>
  <property name="meta.media.0.codec.sample_aspect_ratio">1</property>
  <property name="meta.media.0.codec.colorspace">709</property>
  <property name="meta.media.0.codec.color_trc">1</property>
  <property name="meta.media.0.codec.name">h264</property>
  <property name="meta.media.0.codec.long_name">H.264 / AVC / MPEG-4 AVC / MPEG-4 part 10</property>
  <property name="meta.media.0.codec.bit_rate">0</property>
  <property name="meta.attr.0.stream.DURATION.markup">00:14:21.933000000</property>
  <property name="meta.media.1.stream.type">audio</property>
  <property name="meta.media.1.codec.sample_fmt">fltp</property>
  <property name="meta.media.1.codec.sample_rate">48000</property>
  <property name="meta.media.1.codec.channels">2</property>
  <property name="meta.media.1.codec.name">aac</property>
  <property name="meta.media.1.codec.long_name">AAC (Advanced Audio Coding)</property>
  <property name="meta.media.1.codec.bit_rate">0</property>
  <property name="meta.attr.1.stream.title.markup">Track1</property>
  <property name="meta.attr.1.stream.DURATION.markup">00:14:21.802000000</property>
  <property name="meta.attr.ENCODER.markup">Lavf58.76.100</property>
  <property name="seekable">1</property>
  <property name="meta.media.sample_aspect_num">1</property>
  <property name="meta.media.sample_aspect_den">1</property>
  <property name="aspect_ratio">1</property>
  <property name="format">3</property>
  <property name="kdenlive:clipname"/>
  <property name="kdenlive:clip_type">0</property>
  <property name="kdenlive:folderid">31</property>
  <property name="kdenlive:id">11</property>
  <property name="kdenlive:file_size">287055648</property>
  <property name="kdenlive:file_hash">ead8c19ddf4d7ef6f6e1d421a7606b2a</property>
  <property name="meta.media.frame_rate_num">30</property>
  <property name="meta.media.frame_rate_den">1</property>
  <property name="meta.media.colorspace">709</property>
  <property name="meta.media.color_trc">1</property>
  <property name="meta.media.has_b_frames">2</property>
  <property name="meta.media.width">1280</property>
  <property name="meta.media.height">720</property>
  <property name="meta.media.color_range">mpeg</property>
  <property name="meta.media.top_field_first">0</property>
  <property name="meta.media.progressive">1</property>
  <property name="kdenlive:audio_max1">236</property>
 </producer>
 <producer id="producer11" in="00:00:00.000" out="00:14:22.033">
  <property name="length">25862</property>
  <property name="eof">pause</property>
  <property name="resource">/media/jaker/Pterosaur/Videos/Class/CAD/clips/04.1 example garden acre Desktop.mkv</property>
  <property name="audio_index">1</property>
  <property name="video_index">0</property>
  <property name="mute_on_pause">0</property>
  <property name="mlt_service">avformat-novalidate</property>
  <property name="meta.media.nb_streams">2</property>
  <property name="meta.media.0.stream.type">video</property>
  <property name="meta.media.0.stream.frame_rate">30</property>
  <property name="meta.media.0.stream.sample_aspect_ratio">0</property>
  <property name="meta.media.0.codec.width">1920</property>
  <property name="meta.media.0.codec.height">1080</property>
  <property name="meta.media.0.codec.rotate">0</property>
  <property name="meta.media.0.codec.pix_fmt">yuv420p</property>
  <property name="meta.media.0.codec.sample_aspect_ratio">1</property>
  <property name="meta.media.0.codec.colorspace">709</property>
  <property name="meta.media.0.codec.color_trc">1</property>
  <property name="meta.media.0.codec.name">h264</property>
  <property name="meta.media.0.codec.long_name">H.264 / AVC / MPEG-4 AVC / MPEG-4 part 10</property>
  <property name="meta.media.0.codec.bit_rate">0</property>
  <property name="meta.attr.0.stream.DURATION.markup">00:14:22.066000000</property>
  <property name="meta.media.1.stream.type">audio</property>
  <property name="meta.media.1.codec.sample_fmt">fltp</property>
  <property name="meta.media.1.codec.sample_rate">48000</property>
  <property name="meta.media.1.codec.channels">2</property>
  <property name="meta.media.1.codec.name">aac</property>
  <property name="meta.media.1.codec.long_name">AAC (Advanced Audio Coding)</property>
  <property name="meta.media.1.codec.bit_rate">0</property>
  <property name="meta.attr.1.stream.title.markup">Source Record</property>
  <property name="meta.attr.1.stream.DURATION.markup">00:14:22.080000000</property>
  <property name="meta.attr.ENCODER.markup">Lavf58.76.100</property>
  <property name="seekable">1</property>
  <property name="meta.media.sample_aspect_num">1</property>
  <property name="meta.media.sample_aspect_den">1</property>
  <property name="aspect_ratio">1</property>
  <property name="format">3</property>
  <property name="kdenlive:clipname"/>
  <property name="kdenlive:clip_type">0</property>
  <property name="kdenlive:folderid">31</property>
  <property name="kdenlive:id">12</property>
  <property name="kdenlive:file_size">270056992</property>
  <property name="kdenlive:file_hash">1d05c73120af17cfb84ce7a970247940</property>
  <property name="meta.media.frame_rate_num">30</property>
  <property name="meta.media.frame_rate_den">1</property>
  <property name="meta.media.colorspace">709</property>
  <property name="meta.media.color_trc">1</property>
  <property name="meta.media.has_b_frames">0</property>
  <property name="meta.media.width">1920</property>
  <property name="meta.media.height">1080</property>
  <property name="meta.media.color_range">mpeg</property>
  <property name="meta.media.top_field_first">0</property>
  <property name="meta.media.progressive">1</property>
  <property name="kdenlive:audio_max1">1</property>
 </producer>
 <producer id="producer10" in="00:00:00.000" out="00:14:22.433">
  <property name="length">25874</property>
  <property name="eof">pause</property>
  <property name="resource">/media/jaker/Pterosaur/Videos/Class/CAD/clips/04.1 example garden acre facecam.mkv</property>
  <property name="audio_index">1</property>
  <property name="video_index">0</property>
  <property name="mute_on_pause">0</property>
  <property name="mlt_service">avformat-novalidate</property>
  <property name="meta.media.nb_streams">2</property>
  <property name="meta.media.0.stream.type">video</property>
  <property name="meta.media.0.stream.frame_rate">30</property>
  <property name="meta.media.0.stream.sample_aspect_ratio">0</property>
  <property name="meta.media.0.codec.width">800</property>
  <property name="meta.media.0.codec.height">600</property>
  <property name="meta.media.0.codec.rotate">0</property>
  <property name="meta.media.0.codec.pix_fmt">yuv420p</property>
  <property name="meta.media.0.codec.sample_aspect_ratio">1</property>
  <property name="meta.media.0.codec.colorspace">709</property>
  <property name="meta.media.0.codec.color_trc">1</property>
  <property name="meta.media.0.codec.name">h264</property>
  <property name="meta.media.0.codec.long_name">H.264 / AVC / MPEG-4 AVC / MPEG-4 part 10</property>
  <property name="meta.media.0.codec.bit_rate">0</property>
  <property name="meta.attr.0.stream.DURATION.markup">00:14:22.466000000</property>
  <property name="meta.media.1.stream.type">audio</property>
  <property name="meta.media.1.codec.sample_fmt">fltp</property>
  <property name="meta.media.1.codec.sample_rate">48000</property>
  <property name="meta.media.1.codec.channels">2</property>
  <property name="meta.media.1.codec.name">aac</property>
  <property name="meta.media.1.codec.long_name">AAC (Advanced Audio Coding)</property>
  <property name="meta.media.1.codec.bit_rate">0</property>
  <property name="meta.attr.1.stream.title.markup">Source Record</property>
  <property name="meta.attr.1.stream.DURATION.markup">00:14:22.464000000</property>
  <property name="meta.attr.ENCODER.markup">Lavf58.76.100</property>
  <property name="seekable">1</property>
  <property name="meta.media.sample_aspect_num">1</property>
  <property name="meta.media.sample_aspect_den">1</property>
  <property name="aspect_ratio">1</property>
  <property name="format">3</property>
  <property name="kdenlive:clipname"/>
  <property name="kdenlive:clip_type">0</property>
  <property name="kdenlive:folderid">31</property>
  <property name="kdenlive:id">13</property>
  <property name="kdenlive:file_size">270253548</property>
  <property name="kdenlive:file_hash">d995768142b8abbb24d96881d62c8bd0</property>
  <property name="meta.media.frame_rate_num">30</property>
  <property name="meta.media.frame_rate_den">1</property>
  <property name="meta.media.colorspace">709</property>
  <property name="meta.media.color_trc">1</property>
  <property name="meta.media.has_b_frames">0</property>
  <property name="meta.media.width">800</property>
  <property name="meta.media.height">600</property>
  <property name="meta.media.color_range">mpeg</property>
  <property name="meta.media.top_field_first">0</property>
  <property name="meta.media.progressive">1</property>
  <property name="kdenlive:audio_max1">1</property>
 </producer>
 <producer id="producer12" in="00:00:00.000" out="00:10:10.967">
  <property name="length">18330</property>
  <property name="eof">pause</property>
  <property name="resource">/media/jaker/Pterosaur/Videos/Class/CAD/clips/04.2 example garden town audio.mkv</property>
  <property name="audio_index">1</property>
  <property name="video_index">0</property>
  <property name="mute_on_pause">0</property>
  <property name="mlt_service">avformat-novalidate</property>
  <property name="meta.media.nb_streams">2</property>
  <property name="meta.media.0.stream.type">video</property>
  <property name="meta.media.0.stream.frame_rate">30</property>
  <property name="meta.media.0.stream.sample_aspect_ratio">0</property>
  <property name="meta.media.0.codec.width">1280</property>
  <property name="meta.media.0.codec.height">720</property>
  <property name="meta.media.0.codec.rotate">0</property>
  <property name="meta.media.0.codec.pix_fmt">yuv420p</property>
  <property name="meta.media.0.codec.sample_aspect_ratio">1</property>
  <property name="meta.media.0.codec.colorspace">709</property>
  <property name="meta.media.0.codec.color_trc">1</property>
  <property name="meta.media.0.codec.name">h264</property>
  <property name="meta.media.0.codec.long_name">H.264 / AVC / MPEG-4 AVC / MPEG-4 part 10</property>
  <property name="meta.media.0.codec.bit_rate">0</property>
  <property name="meta.attr.0.stream.DURATION.markup">00:10:11.000000000</property>
  <property name="meta.media.1.stream.type">audio</property>
  <property name="meta.media.1.codec.sample_fmt">fltp</property>
  <property name="meta.media.1.codec.sample_rate">48000</property>
  <property name="meta.media.1.codec.channels">2</property>
  <property name="meta.media.1.codec.name">aac</property>
  <property name="meta.media.1.codec.long_name">AAC (Advanced Audio Coding)</property>
  <property name="meta.media.1.codec.bit_rate">0</property>
  <property name="meta.attr.1.stream.title.markup">Track1</property>
  <property name="meta.attr.1.stream.DURATION.markup">00:10:10.944000000</property>
  <property name="meta.attr.ENCODER.markup">Lavf58.76.100</property>
  <property name="seekable">1</property>
  <property name="meta.media.sample_aspect_num">1</property>
  <property name="meta.media.sample_aspect_den">1</property>
  <property name="aspect_ratio">1</property>
  <property name="format">3</property>
  <property name="kdenlive:clipname"/>
  <property name="kdenlive:clip_type">0</property>
  <property name="kdenlive:folderid">31</property>
  <property name="kdenlive:id">14</property>
  <property name="kdenlive:file_size">203563039</property>
  <property name="kdenlive:file_hash">fb7491cb2e24e46be72e358a485ba419</property>
  <property name="meta.media.frame_rate_num">30</property>
  <property name="meta.media.frame_rate_den">1</property>
  <property name="meta.media.colorspace">709</property>
  <property name="meta.media.color_trc">1</property>
  <property name="meta.media.has_b_frames">2</property>
  <property name="meta.media.width">1280</property>
  <property name="meta.media.height">720</property>
  <property name="meta.media.color_range">mpeg</property>
  <property name="meta.media.top_field_first">0</property>
  <property name="meta.media.progressive">1</property>
  <property name="kdenlive:audio_max1">193</property>
 </producer>
 <producer id="producer14" in="00:00:00.000" out="00:10:03.700">
  <property name="length">18112</property>
  <property name="eof">pause</property>
  <property name="resource">/media/jaker/Pterosaur/Videos/Class/CAD/clips/04.2 example garden town Desktop.mkv</property>
  <property name="audio_index">1</property>
  <property name="video_index">0</property>
  <property name="mute_on_pause">0</property>
  <property name="mlt_service">avformat-novalidate</property>
  <property name="meta.media.nb_streams">2</property>
  <property name="meta.media.0.stream.type">video</property>
  <property name="meta.media.0.stream.frame_rate">30</property>
  <property name="meta.media.0.stream.sample_aspect_ratio">0</property>
  <property name="meta.media.0.codec.width">1920</property>
  <property name="meta.media.0.codec.height">1080</property>
  <property name="meta.media.0.codec.rotate">0</property>
  <property name="meta.media.0.codec.pix_fmt">yuv420p</property>
  <property name="meta.media.0.codec.sample_aspect_ratio">1</property>
  <property name="meta.media.0.codec.colorspace">709</property>
  <property name="meta.media.0.codec.color_trc">1</property>
  <property name="meta.media.0.codec.name">h264</property>
  <property name="meta.media.0.codec.long_name">H.264 / AVC / MPEG-4 AVC / MPEG-4 part 10</property>
  <property name="meta.media.0.codec.bit_rate">0</property>
  <property name="meta.attr.0.stream.DURATION.markup">00:10:03.733000000</property>
  <property name="meta.media.1.stream.type">audio</property>
  <property name="meta.media.1.codec.sample_fmt">fltp</property>
  <property name="meta.media.1.codec.sample_rate">48000</property>
  <property name="meta.media.1.codec.channels">2</property>
  <property name="meta.media.1.codec.name">aac</property>
  <property name="meta.media.1.codec.long_name">AAC (Advanced Audio Coding)</property>
  <property name="meta.media.1.codec.bit_rate">0</property>
  <property name="meta.attr.1.stream.title.markup">Source Record</property>
  <property name="meta.attr.1.stream.DURATION.markup">00:10:03.712000000</property>
  <property name="meta.attr.ENCODER.markup">Lavf58.76.100</property>
  <property name="seekable">1</property>
  <property name="meta.media.sample_aspect_num">1</property>
  <property name="meta.media.sample_aspect_den">1</property>
  <property name="aspect_ratio">1</property>
  <property name="format">3</property>
  <property name="kdenlive:clipname"/>
  <property name="kdenlive:clip_type">0</property>
  <property name="kdenlive:folderid">31</property>
  <property name="kdenlive:id">15</property>
  <property name="kdenlive:file_size">189121920</property>
  <property name="kdenlive:file_hash">e6c0e0364bd352fa9c71f10c825b8cc6</property>
  <property name="meta.media.frame_rate_num">30</property>
  <property name="meta.media.frame_rate_den">1</property>
  <property name="meta.media.colorspace">709</property>
  <property name="meta.media.color_trc">1</property>
  <property name="meta.media.has_b_frames">0</property>
  <property name="meta.media.width">1920</property>
  <property name="meta.media.height">1080</property>
  <property name="meta.media.color_range">mpeg</property>
  <property name="meta.media.top_field_first">0</property>
  <property name="meta.media.progressive">1</property>
  <property name="kdenlive:audio_max1">1</property>
 </producer>
 <producer id="producer13" in="00:00:00.000" out="00:10:14.800">
  <property name="length">18445</property>
  <property name="eof">pause</property>
  <property name="resource">/media/jaker/Pterosaur/Videos/Class/CAD/clips/04.2 example garden town facecam.mkv</property>
  <property name="audio_index">1</property>
  <property name="video_index">0</property>
  <property name="mute_on_pause">0</property>
  <property name="mlt_service">avformat-novalidate</property>
  <property name="meta.media.nb_streams">2</property>
  <property name="meta.media.0.stream.type">video</property>
  <property name="meta.media.0.stream.frame_rate">30</property>
  <property name="meta.media.0.stream.sample_aspect_ratio">0</property>
  <property name="meta.media.0.codec.width">800</property>
  <property name="meta.media.0.codec.height">600</property>
  <property name="meta.media.0.codec.rotate">0</property>
  <property name="meta.media.0.codec.pix_fmt">yuv420p</property>
  <property name="meta.media.0.codec.sample_aspect_ratio">1</property>
  <property name="meta.media.0.codec.colorspace">709</property>
  <property name="meta.media.0.codec.color_trc">1</property>
  <property name="meta.media.0.codec.name">h264</property>
  <property name="meta.media.0.codec.long_name">H.264 / AVC / MPEG-4 AVC / MPEG-4 part 10</property>
  <property name="meta.media.0.codec.bit_rate">0</property>
  <property name="meta.attr.0.stream.DURATION.markup">00:10:14.833000000</property>
  <property name="meta.media.1.stream.type">audio</property>
  <property name="meta.media.1.codec.sample_fmt">fltp</property>
  <property name="meta.media.1.codec.sample_rate">48000</property>
  <property name="meta.media.1.codec.channels">2</property>
  <property name="meta.media.1.codec.name">aac</property>
  <property name="meta.media.1.codec.long_name">AAC (Advanced Audio Coding)</property>
  <property name="meta.media.1.codec.bit_rate">0</property>
  <property name="meta.attr.1.stream.title.markup">Source Record</property>
  <property name="meta.attr.1.stream.DURATION.markup">00:10:14.826000000</property>
  <property name="meta.attr.ENCODER.markup">Lavf58.76.100</property>
  <property name="seekable">1</property>
  <property name="meta.media.sample_aspect_num">1</property>
  <property name="meta.media.sample_aspect_den">1</property>
  <property name="aspect_ratio">1</property>
  <property name="format">3</property>
  <property name="kdenlive:clipname"/>
  <property name="kdenlive:clip_type">0</property>
  <property name="kdenlive:folderid">31</property>
  <property name="kdenlive:id">16</property>
  <property name="kdenlive:file_size">192633513</property>
  <property name="kdenlive:file_hash">03e9fe36e8077ff4675bf84992bd03bc</property>
  <property name="meta.media.frame_rate_num">30</property>
  <property name="meta.media.frame_rate_den">1</property>
  <property name="meta.media.colorspace">709</property>
  <property name="meta.media.color_trc">1</property>
  <property name="meta.media.has_b_frames">0</property>
  <property name="meta.media.width">800</property>
  <property name="meta.media.height">600</property>
  <property name="meta.media.color_range">mpeg</property>
  <property name="meta.media.top_field_first">0</property>
  <property name="meta.media.progressive">1</property>
  <property name="kdenlive:audio_max1">1</property>
 </producer>
 <producer id="producer16" in="00:00:00.000" out="00:33:34.467">
  <property name="length">60435</property>
  <property name="eof">pause</property>
  <property name="resource">/media/jaker/Pterosaur/Videos/Class/CAD/clips/03.0 Shapes audio.mkv</property>
  <property name="audio_index">1</property>
  <property name="video_index">0</property>
  <property name="mute_on_pause">0</property>
  <property name="mlt_service">avformat-novalidate</property>
  <property name="meta.media.nb_streams">2</property>
  <property name="meta.media.0.stream.type">video</property>
  <property name="meta.media.0.stream.frame_rate">30</property>
  <property name="meta.media.0.stream.sample_aspect_ratio">0</property>
  <property name="meta.media.0.codec.width">1280</property>
  <property name="meta.media.0.codec.height">720</property>
  <property name="meta.media.0.codec.rotate">0</property>
  <property name="meta.media.0.codec.pix_fmt">yuv420p</property>
  <property name="meta.media.0.codec.sample_aspect_ratio">1</property>
  <property name="meta.media.0.codec.colorspace">709</property>
  <property name="meta.media.0.codec.color_trc">1</property>
  <property name="meta.media.0.codec.name">h264</property>
  <property name="meta.media.0.codec.long_name">H.264 / AVC / MPEG-4 AVC / MPEG-4 part 10</property>
  <property name="meta.media.0.codec.bit_rate">0</property>
  <property name="meta.attr.0.stream.DURATION.markup">00:33:34.500000000</property>
  <property name="meta.media.1.stream.type">audio</property>
  <property name="meta.media.1.codec.sample_fmt">fltp</property>
  <property name="meta.media.1.codec.sample_rate">48000</property>
  <property name="meta.media.1.codec.channels">2</property>
  <property name="meta.media.1.codec.name">aac</property>
  <property name="meta.media.1.codec.long_name">AAC (Advanced Audio Coding)</property>
  <property name="meta.media.1.codec.bit_rate">0</property>
  <property name="meta.attr.1.stream.title.markup">Track1</property>
  <property name="meta.attr.1.stream.DURATION.markup">00:33:34.442000000</property>
  <property name="meta.attr.ENCODER.markup">Lavf58.76.100</property>
  <property name="seekable">1</property>
  <property name="meta.media.sample_aspect_num">1</property>
  <property name="meta.media.sample_aspect_den">1</property>
  <property name="aspect_ratio">1</property>
  <property name="format">3</property>
  <property name="kdenlive:clipname"/>
  <property name="meta.media.frame_rate_num">30</property>
  <property name="meta.media.frame_rate_den">1</property>
  <property name="meta.media.colorspace">709</property>
  <property name="meta.media.color_trc">1</property>
  <property name="meta.media.has_b_frames">2</property>
  <property name="meta.media.width">1280</property>
  <property name="meta.media.height">720</property>
  <property name="meta.media.color_range">mpeg</property>
  <property name="meta.media.top_field_first">0</property>
  <property name="meta.media.progressive">1</property>
  <property name="kdenlive:clip_type">0</property>
  <property name="kdenlive:folderid">30</property>
  <property name="kdenlive:id">17</property>
  <property name="kdenlive:file_size">670937459</property>
  <property name="kdenlive:file_hash">9232b3e4eaabc82f43fd1c7f483307b0</property>
  <property name="kdenlive:audio_max1">213</property>
 </producer>
 <producer id="producer15" in="00:00:00.000" out="00:33:34.267">
  <property name="length">60429</property>
  <property name="eof">pause</property>
  <property name="resource">/media/jaker/Pterosaur/Videos/Class/CAD/clips/03.0 Shapes desktop.mkv</property>
  <property name="audio_index">1</property>
  <property name="video_index">0</property>
  <property name="mute_on_pause">0</property>
  <property name="mlt_service">avformat-novalidate</property>
  <property name="meta.media.nb_streams">2</property>
  <property name="meta.media.0.stream.type">video</property>
  <property name="meta.media.0.stream.frame_rate">30</property>
  <property name="meta.media.0.stream.sample_aspect_ratio">0</property>
  <property name="meta.media.0.codec.width">1920</property>
  <property name="meta.media.0.codec.height">1080</property>
  <property name="meta.media.0.codec.rotate">0</property>
  <property name="meta.media.0.codec.pix_fmt">yuv420p</property>
  <property name="meta.media.0.codec.sample_aspect_ratio">1</property>
  <property name="meta.media.0.codec.colorspace">709</property>
  <property name="meta.media.0.codec.color_trc">1</property>
  <property name="meta.media.0.codec.name">h264</property>
  <property name="meta.media.0.codec.long_name">H.264 / AVC / MPEG-4 AVC / MPEG-4 part 10</property>
  <property name="meta.media.0.codec.bit_rate">0</property>
  <property name="meta.attr.0.stream.DURATION.markup">00:33:34.300000000</property>
  <property name="meta.media.1.stream.type">audio</property>
  <property name="meta.media.1.codec.sample_fmt">fltp</property>
  <property name="meta.media.1.codec.sample_rate">48000</property>
  <property name="meta.media.1.codec.channels">2</property>
  <property name="meta.media.1.codec.name">aac</property>
  <property name="meta.media.1.codec.long_name">AAC (Advanced Audio Coding)</property>
  <property name="meta.media.1.codec.bit_rate">0</property>
  <property name="meta.attr.1.stream.title.markup">Source Record</property>
  <property name="meta.attr.1.stream.DURATION.markup">00:33:34.272000000</property>
  <property name="meta.attr.ENCODER.markup">Lavf58.76.100</property>
  <property name="seekable">1</property>
  <property name="meta.media.sample_aspect_num">1</property>
  <property name="meta.media.sample_aspect_den">1</property>
  <property name="aspect_ratio">1</property>
  <property name="format">3</property>
  <property name="kdenlive:clipname"/>
  <property name="meta.media.frame_rate_num">30</property>
  <property name="meta.media.frame_rate_den">1</property>
  <property name="meta.media.colorspace">709</property>
  <property name="meta.media.color_trc">1</property>
  <property name="meta.media.has_b_frames">0</property>
  <property name="meta.media.width">1920</property>
  <property name="meta.media.height">1080</property>
  <property name="meta.media.color_range">mpeg</property>
  <property name="meta.media.top_field_first">0</property>
  <property name="meta.media.progressive">1</property>
  <property name="kdenlive:clip_type">0</property>
  <property name="kdenlive:folderid">30</property>
  <property name="kdenlive:id">18</property>
  <property name="kdenlive:file_size">631060129</property>
  <property name="kdenlive:file_hash">46c791aa4c2d40544ab5874183465931</property>
  <property name="kdenlive:audio_max1">0</property>
 </producer>
 <producer id="producer17" in="00:00:00.000" out="00:33:35.200">
  <property name="length">60457</property>
  <property name="eof">pause</property>
  <property name="resource">/media/jaker/Pterosaur/Videos/Class/CAD/clips/03.0 Shapes facecam.mkv</property>
  <property name="audio_index">1</property>
  <property name="video_index">0</property>
  <property name="mute_on_pause">0</property>
  <property name="mlt_service">avformat-novalidate</property>
  <property name="meta.media.nb_streams">2</property>
  <property name="meta.media.0.stream.type">video</property>
  <property name="meta.media.0.stream.frame_rate">30</property>
  <property name="meta.media.0.stream.sample_aspect_ratio">0</property>
  <property name="meta.media.0.codec.width">800</property>
  <property name="meta.media.0.codec.height">600</property>
  <property name="meta.media.0.codec.rotate">0</property>
  <property name="meta.media.0.codec.pix_fmt">yuv420p</property>
  <property name="meta.media.0.codec.sample_aspect_ratio">1</property>
  <property name="meta.media.0.codec.colorspace">709</property>
  <property name="meta.media.0.codec.color_trc">1</property>
  <property name="meta.media.0.codec.name">h264</property>
  <property name="meta.media.0.codec.long_name">H.264 / AVC / MPEG-4 AVC / MPEG-4 part 10</property>
  <property name="meta.media.0.codec.bit_rate">0</property>
  <property name="meta.attr.0.stream.DURATION.markup">00:33:35.233000000</property>
  <property name="meta.media.1.stream.type">audio</property>
  <property name="meta.media.1.codec.sample_fmt">fltp</property>
  <property name="meta.media.1.codec.sample_rate">48000</property>
  <property name="meta.media.1.codec.channels">2</property>
  <property name="meta.media.1.codec.name">aac</property>
  <property name="meta.media.1.codec.long_name">AAC (Advanced Audio Coding)</property>
  <property name="meta.media.1.codec.bit_rate">0</property>
  <property name="meta.attr.1.stream.title.markup">Source Record</property>
  <property name="meta.attr.1.stream.DURATION.markup">00:33:35.232000000</property>
  <property name="meta.attr.ENCODER.markup">Lavf58.76.100</property>
  <property name="seekable">1</property>
  <property name="meta.media.sample_aspect_num">1</property>
  <property name="meta.media.sample_aspect_den">1</property>
  <property name="aspect_ratio">1</property>
  <property name="format">3</property>
  <property name="kdenlive:clipname"/>
  <property name="meta.media.frame_rate_num">30</property>
  <property name="meta.media.frame_rate_den">1</property>
  <property name="meta.media.colorspace">709</property>
  <property name="meta.media.color_trc">1</property>
  <property name="meta.media.has_b_frames">0</property>
  <property name="meta.media.width">800</property>
  <property name="meta.media.height">600</property>
  <property name="meta.media.color_range">mpeg</property>
  <property name="meta.media.top_field_first">0</property>
  <property name="meta.media.progressive">1</property>
  <property name="kdenlive:clip_type">0</property>
  <property name="kdenlive:folderid">30</property>
  <property name="kdenlive:id">19</property>
  <property name="kdenlive:file_size">631355807</property>
  <property name="kdenlive:file_hash">305fc04fbc6ef869af9bfe4f9efc5c98</property>
  <property name="kdenlive:audio_max1">0</property>
 </producer>
 <producer id="producer19" in="00:00:00.000" out="00:00:05.433">
  <property name="length">164</property>
  <property name="eof">pause</property>
  <property name="resource">/media/jaker/Pterosaur/Videos/Class/CAD/clips/03.01 Shapes audio extra.mkv</property>
  <property name="audio_index">1</property>
  <property name="video_index">0</property>
  <property name="mute_on_pause">0</property>
  <property name="mlt_service">avformat-novalidate</property>
  <property name="meta.media.nb_streams">2</property>
  <property name="meta.media.0.stream.type">video</property>
  <property name="meta.media.0.stream.frame_rate">30</property>
  <property name="meta.media.0.stream.sample_aspect_ratio">0</property>
  <property name="meta.media.0.codec.width">1280</property>
  <property name="meta.media.0.codec.height">720</property>
  <property name="meta.media.0.codec.rotate">0</property>
  <property name="meta.media.0.codec.pix_fmt">yuv420p</property>
  <property name="meta.media.0.codec.sample_aspect_ratio">1</property>
  <property name="meta.media.0.codec.colorspace">709</property>
  <property name="meta.media.0.codec.color_trc">1</property>
  <property name="meta.media.0.codec.name">h264</property>
  <property name="meta.media.0.codec.long_name">H.264 / AVC / MPEG-4 AVC / MPEG-4 part 10</property>
  <property name="meta.media.0.codec.bit_rate">0</property>
  <property name="meta.attr.0.stream.DURATION.markup">00:00:05.466000000</property>
  <property name="meta.media.1.stream.type">audio</property>
  <property name="meta.media.1.codec.sample_fmt">fltp</property>
  <property name="meta.media.1.codec.sample_rate">48000</property>
  <property name="meta.media.1.codec.channels">2</property>
  <property name="meta.media.1.codec.name">aac</property>
  <property name="meta.media.1.codec.long_name">AAC (Advanced Audio Coding)</property>
  <property name="meta.media.1.codec.bit_rate">0</property>
  <property name="meta.attr.1.stream.title.markup">Track1</property>
  <property name="meta.attr.1.stream.DURATION.markup">00:00:05.312000000</property>
  <property name="meta.attr.ENCODER.markup">Lavf58.76.100</property>
  <property name="seekable">1</property>
  <property name="meta.media.sample_aspect_num">1</property>
  <property name="meta.media.sample_aspect_den">1</property>
  <property name="aspect_ratio">1</property>
  <property name="format">3</property>
  <property name="kdenlive:clipname"/>
  <property name="meta.media.frame_rate_num">30</property>
  <property name="meta.media.frame_rate_den">1</property>
  <property name="meta.media.colorspace">709</property>
  <property name="meta.media.color_trc">1</property>
  <property name="meta.media.has_b_frames">2</property>
  <property name="meta.media.width">1280</property>
  <property name="meta.media.height">720</property>
  <property name="meta.media.color_range">mpeg</property>
  <property name="meta.media.top_field_first">0</property>
  <property name="meta.media.progressive">1</property>
  <property name="kdenlive:clip_type">0</property>
  <property name="kdenlive:folderid">30</property>
  <property name="kdenlive:id">20</property>
  <property name="kdenlive:file_size">1861495</property>
  <property name="kdenlive:file_hash">bc05027cfcca9c5434027137f8b130e1</property>
  <property name="kdenlive:audio_max1">143</property>
 </producer>
 <producer id="producer20" in="00:00:00.000" out="00:00:05.800">
  <property name="length">175</property>
  <property name="eof">pause</property>
  <property name="resource">/media/jaker/Pterosaur/Videos/Class/CAD/clips/03.01 Shapes desktop extra.mkv</property>
  <property name="audio_index">1</property>
  <property name="video_index">0</property>
  <property name="mute_on_pause">0</property>
  <property name="mlt_service">avformat-novalidate</property>
  <property name="meta.media.nb_streams">2</property>
  <property name="meta.media.0.stream.type">video</property>
  <property name="meta.media.0.stream.frame_rate">30</property>
  <property name="meta.media.0.stream.sample_aspect_ratio">0</property>
  <property name="meta.media.0.codec.width">1920</property>
  <property name="meta.media.0.codec.height">1080</property>
  <property name="meta.media.0.codec.rotate">0</property>
  <property name="meta.media.0.codec.pix_fmt">yuv420p</property>
  <property name="meta.media.0.codec.sample_aspect_ratio">1</property>
  <property name="meta.media.0.codec.colorspace">709</property>
  <property name="meta.media.0.codec.color_trc">1</property>
  <property name="meta.media.0.codec.name">h264</property>
  <property name="meta.media.0.codec.long_name">H.264 / AVC / MPEG-4 AVC / MPEG-4 part 10</property>
  <property name="meta.media.0.codec.bit_rate">0</property>
  <property name="meta.attr.0.stream.DURATION.markup">00:00:05.833000000</property>
  <property name="meta.media.1.stream.type">audio</property>
  <property name="meta.media.1.codec.sample_fmt">fltp</property>
  <property name="meta.media.1.codec.sample_rate">48000</property>
  <property name="meta.media.1.codec.channels">2</property>
  <property name="meta.media.1.codec.name">aac</property>
  <property name="meta.media.1.codec.long_name">AAC (Advanced Audio Coding)</property>
  <property name="meta.media.1.codec.bit_rate">0</property>
  <property name="meta.attr.1.stream.title.markup">Source Record</property>
  <property name="meta.attr.1.stream.DURATION.markup">00:00:05.845000000</property>
  <property name="meta.attr.ENCODER.markup">Lavf58.76.100</property>
  <property name="seekable">1</property>
  <property name="meta.media.sample_aspect_num">1</property>
  <property name="meta.media.sample_aspect_den">1</property>
  <property name="aspect_ratio">1</property>
  <property name="format">3</property>
  <property name="kdenlive:clipname"/>
  <property name="meta.media.frame_rate_num">30</property>
  <property name="meta.media.frame_rate_den">1</property>
  <property name="meta.media.colorspace">709</property>
  <property name="meta.media.color_trc">1</property>
  <property name="meta.media.has_b_frames">0</property>
  <property name="meta.media.width">1920</property>
  <property name="meta.media.height">1080</property>
  <property name="meta.media.color_range">mpeg</property>
  <property name="meta.media.top_field_first">0</property>
  <property name="meta.media.progressive">1</property>
  <property name="kdenlive:clip_type">0</property>
  <property name="kdenlive:folderid">30</property>
  <property name="kdenlive:id">21</property>
  <property name="kdenlive:file_size">1797830</property>
  <property name="kdenlive:file_hash">453af191ee2139bf5d339b3506e11e00</property>
 </producer>
 <producer id="producer18" in="00:00:00.000" out="00:00:05.833">
  <property name="length">176</property>
  <property name="eof">pause</property>
  <property name="resource">/media/jaker/Pterosaur/Videos/Class/CAD/clips/03.01 Shapes facecam extra.mkv</property>
  <property name="audio_index">1</property>
  <property name="video_index">0</property>
  <property name="mute_on_pause">0</property>
  <property name="mlt_service">avformat-novalidate</property>
  <property name="meta.media.nb_streams">2</property>
  <property name="meta.media.0.stream.type">video</property>
  <property name="meta.media.0.stream.frame_rate">30</property>
  <property name="meta.media.0.stream.sample_aspect_ratio">0</property>
  <property name="meta.media.0.codec.width">800</property>
  <property name="meta.media.0.codec.height">600</property>
  <property name="meta.media.0.codec.rotate">0</property>
  <property name="meta.media.0.codec.pix_fmt">yuv420p</property>
  <property name="meta.media.0.codec.sample_aspect_ratio">1</property>
  <property name="meta.media.0.codec.colorspace">709</property>
  <property name="meta.media.0.codec.color_trc">1</property>
  <property name="meta.media.0.codec.name">h264</property>
  <property name="meta.media.0.codec.long_name">H.264 / AVC / MPEG-4 AVC / MPEG-4 part 10</property>
  <property name="meta.media.0.codec.bit_rate">0</property>
  <property name="meta.attr.0.stream.DURATION.markup">00:00:05.866000000</property>
  <property name="meta.media.1.stream.type">audio</property>
  <property name="meta.media.1.codec.sample_fmt">fltp</property>
  <property name="meta.media.1.codec.sample_rate">48000</property>
  <property name="meta.media.1.codec.channels">2</property>
  <property name="meta.media.1.codec.name">aac</property>
  <property name="meta.media.1.codec.long_name">AAC (Advanced Audio Coding)</property>
  <property name="meta.media.1.codec.bit_rate">0</property>
  <property name="meta.attr.1.stream.title.markup">Source Record</property>
  <property name="meta.attr.1.stream.DURATION.markup">00:00:05.845000000</property>
  <property name="meta.attr.ENCODER.markup">Lavf58.76.100</property>
  <property name="seekable">1</property>
  <property name="meta.media.sample_aspect_num">1</property>
  <property name="meta.media.sample_aspect_den">1</property>
  <property name="aspect_ratio">1</property>
  <property name="format">3</property>
  <property name="kdenlive:clipname"/>
  <property name="meta.media.frame_rate_num">30</property>
  <property name="meta.media.frame_rate_den">1</property>
  <property name="meta.media.colorspace">709</property>
  <property name="meta.media.color_trc">1</property>
  <property name="meta.media.has_b_frames">0</property>
  <property name="meta.media.width">800</property>
  <property name="meta.media.height">600</property>
  <property name="meta.media.color_range">mpeg</property>
  <property name="meta.media.top_field_first">0</property>
  <property name="meta.media.progressive">1</property>
  <property name="kdenlive:clip_type">0</property>
  <property name="kdenlive:folderid">30</property>
  <property name="kdenlive:id">22</property>
  <property name="kdenlive:file_size">1950523</property>
  <property name="kdenlive:file_hash">501fa068ff659288ed757df09494db85</property>
  <property name="kdenlive:audio_max1">0</property>
 </producer>
 <producer id="producer21" in="00:00:00.000" out="00:00:04.967">
  <property name="length">150</property>
  <property name="eof">pause</property>
  <property name="resource"/>
  <property name="progressive">1</property>
  <property name="aspect_ratio">1</property>
  <property name="seekable">1</property>
  <property name="mlt_service">kdenlivetitle</property>
  <property name="kdenlive:duration">150</property>
  <property name="kdenlive:clipname">01 natureworks.org.uk/class/cad</property>
  <property name="xmldata">&lt;kdenlivetitle duration="150" LC_NUMERIC="C" width="1280" height="720" out="149">
 &lt;item type="QGraphicsTextItem" z-index="3">
  &lt;position x="153" y="151">
   &lt;transform>1,0,0,0,1,0,0,0,1&lt;/transform>
  &lt;/position>
  &lt;content line-spacing="0" shadow="0;#64000000;3;3;3" font-underline="0" box-height="92" font-outline-color="0,0,0,255" font="IBM Plex Sans SemiBold" letter-spacing="0" font-pixel-size="70" font-italic="0" typewriter="0;2;1;0;0" alignment="4" font-weight="87" font-outline="0" box-width="973.969" font-color="255,255,255,255">natureworks.org.uk/class/cad&lt;/content>
 &lt;/item>
 &lt;item type="QGraphicsRectItem" z-index="2">
  &lt;position x="133" y="145">
   &lt;transform zoom="100">1,0,0,0,1,0,0,0,1&lt;/transform>
  &lt;/position>
  &lt;content brushcolor="0,0,0,138" pencolor="0,0,0,255" penwidth="0" rect="0,0,1014.33,107"/>
 &lt;/item>
 &lt;startviewport rect="0,0,1280,720"/>
 &lt;endviewport rect="0,0,1280,720"/>
 &lt;background color="0,0,0,0"/>
&lt;/kdenlivetitle>
</property>
  <property name="kdenlive:folderid">32</property>
  <property name="kdenlive:clip_type">2</property>
  <property name="kdenlive:id">23</property>
  <property name="kdenlive:file_hash">4d358534c0849d1e72fae86e225f334a</property>
  <property name="force_reload">0</property>
  <property name="meta.media.width">1280</property>
  <property name="meta.media.height">720</property>
 </producer>
 <producer id="producer22" in="00:00:00.000" out="00:00:05.967">
  <property name="length">180</property>
  <property name="eof">pause</property>
  <property name="resource"/>
  <property name="progressive">1</property>
  <property name="aspect_ratio">1</property>
  <property name="seekable">1</property>
  <property name="mlt_service">kdenlivetitle</property>
  <property name="kdenlive:duration">150</property>
  <property name="kdenlive:clipname">02 Inkscape &amp; Illustrator</property>
  <property name="xmldata">&lt;kdenlivetitle duration="150" LC_NUMERIC="C" width="1280" height="720" out="149">
 &lt;item type="QGraphicsTextItem" z-index="3">
  &lt;position x="156" y="151">
   &lt;transform>1,0,0,0,1,0,0,0,1&lt;/transform>
  &lt;/position>
  &lt;content line-spacing="0" shadow="0;#64000000;3;3;3" font-underline="0" box-height="84" font-outline-color="0,0,0,255" font="IBM Plex Sans SemiBold" letter-spacing="0" font-pixel-size="64" font-italic="0" typewriter="0;2;1;0;0" alignment="4" font-weight="87" font-outline="0" box-width="961.641" font-color="255,255,255,255">inkscape.org &amp;amp; Adobe Illustrator&lt;/content>
 &lt;/item>
 &lt;item type="QGraphicsRectItem" z-index="2">
  &lt;position x="133" y="145">
   &lt;transform zoom="100">1,0,0,0,1,0,0,0,1&lt;/transform>
  &lt;/position>
  &lt;content brushcolor="0,0,0,138" pencolor="0,0,0,255" penwidth="0" rect="0,0,1014.33,107"/>
 &lt;/item>
 &lt;startviewport rect="0,0,1280,720"/>
 &lt;endviewport rect="0,0,1280,720"/>
 &lt;background color="0,0,0,0"/>
&lt;/kdenlivetitle>
</property>
  <property name="kdenlive:folderid">32</property>
  <property name="kdenlive:clip_type">2</property>
  <property name="kdenlive:id">24</property>
  <property name="kdenlive:file_hash">9f902889f25fb411f7fdaea724aa5b96</property>
  <property name="force_reload">0</property>
  <property name="meta.media.width">1280</property>
  <property name="meta.media.height">720</property>
 </producer>
 <producer id="producer23" in="00:00:00.000" out="00:00:06.767">
  <property name="length">204</property>
  <property name="eof">pause</property>
  <property name="resource"/>
  <property name="progressive">1</property>
  <property name="aspect_ratio">1</property>
  <property name="seekable">1</property>
  <property name="mlt_service">kdenlivetitle</property>
  <property name="kdenlive:duration">150</property>
  <property name="kdenlive:clipname">03 QCAD.org</property>
  <property name="xmldata">&lt;kdenlivetitle duration="150" LC_NUMERIC="C" width="1280" height="720" out="149">
 &lt;item type="QGraphicsTextItem" z-index="3">
  &lt;position x="498" y="151">
   &lt;transform>1,0,0,0,1,0,0,0,1&lt;/transform>
  &lt;/position>
  &lt;content line-spacing="0" shadow="0;#64000000;3;3;3" font-underline="0" box-height="84" font="IBM Plex Sans SemiBold" letter-spacing="0" font-pixel-size="64" font-italic="0" typewriter="0;2;1;0;0" alignment="4" font-weight="87" box-width="284.078" font-color="255,255,255,255">QCAD.org&lt;/content>
 &lt;/item>
 &lt;item type="QGraphicsRectItem" z-index="2">
  &lt;position x="482" y="145">
   &lt;transform zoom="100">1,0,0,0,1,0,0,0,1&lt;/transform>
  &lt;/position>
  &lt;content brushcolor="0,0,0,138" pencolor="0,0,0,255" penwidth="0" rect="0,0,315,107"/>
 &lt;/item>
 &lt;startviewport rect="0,0,1280,720"/>
 &lt;endviewport rect="0,0,1280,720"/>
 &lt;background color="0,0,0,0"/>
&lt;/kdenlivetitle>
</property>
  <property name="kdenlive:folderid">32</property>
  <property name="kdenlive:clip_type">2</property>
  <property name="kdenlive:id">25</property>
  <property name="kdenlive:file_hash">03e53ecbc2e60ddbb79f4360f334ce5b</property>
  <property name="force_reload">0</property>
  <property name="meta.media.width">1280</property>
  <property name="meta.media.height">720</property>
 </producer>
 <producer id="producer24" in="00:00:00.000" out="00:00:08.633">
  <property name="length">260</property>
  <property name="eof">pause</property>
  <property name="resource"/>
  <property name="progressive">1</property>
  <property name="aspect_ratio">1</property>
  <property name="seekable">1</property>
  <property name="mlt_service">kdenlivetitle</property>
  <property name="kdenlive:duration">150</property>
  <property name="kdenlive:clipname">04 Vectorworks</property>
  <property name="xmldata">&lt;kdenlivetitle duration="150" LC_NUMERIC="C" width="1280" height="720" out="149">
 &lt;item type="QGraphicsTextItem" z-index="3">
  &lt;position x="194" y="151">
   &lt;transform>1,0,0,0,1,0,0,0,1&lt;/transform>
  &lt;/position>
  &lt;content line-spacing="0" shadow="0;#64000000;3;3;3" font-underline="0" box-height="84" font="IBM Plex Sans SemiBold" letter-spacing="0" font-pixel-size="64" font-italic="0" typewriter="0;2;1;0;0" alignment="4" font-weight="87" box-width="891.734" font-color="255,255,255,255">Vectorworks £1,230 per year! &lt;/content>
 &lt;/item>
 &lt;item type="QGraphicsRectItem" z-index="2">
  &lt;position x="178" y="145">
   &lt;transform zoom="100">1,0,0,0,1,0,0,0,1&lt;/transform>
  &lt;/position>
  &lt;content brushcolor="0,0,0,138" pencolor="0,0,0,255" penwidth="0" rect="0,0,924,107"/>
 &lt;/item>
 &lt;startviewport rect="0,0,1280,720"/>
 &lt;endviewport rect="0,0,1280,720"/>
 &lt;background color="0,0,0,0"/>
&lt;/kdenlivetitle>
</property>
  <property name="kdenlive:folderid">32</property>
  <property name="kdenlive:clip_type">2</property>
  <property name="kdenlive:id">26</property>
  <property name="kdenlive:file_hash">822eaba8db806ebb931637b80855c1e8</property>
  <property name="force_reload">0</property>
  <property name="meta.media.width">1280</property>
  <property name="meta.media.height">720</property>
 </producer>
 <producer id="producer25" in="00:00:00.000" out="00:00:08.633">
  <property name="length">260</property>
  <property name="eof">pause</property>
  <property name="resource"/>
  <property name="progressive">1</property>
  <property name="aspect_ratio">1</property>
  <property name="seekable">1</property>
  <property name="mlt_service">kdenlivetitle</property>
  <property name="kdenlive:duration">150</property>
  <property name="kdenlive:clipname">05 LibreCAD</property>
  <property name="xmldata">&lt;kdenlivetitle duration="150" LC_NUMERIC="C" width="1280" height="720" out="149">
 &lt;item type="QGraphicsTextItem" z-index="3">
  &lt;position x="446" y="151">
   &lt;transform>1,0,0,0,1,0,0,0,1&lt;/transform>
  &lt;/position>
  &lt;content line-spacing="0" shadow="0;#64000000;3;3;3" font-underline="0" box-height="84" font="IBM Plex Sans SemiBold" letter-spacing="0" font-pixel-size="64" font-italic="0" typewriter="0;2;1;0;0" alignment="4" font-weight="87" box-width="388.422" font-color="255,255,255,255">LibreCAD.org&lt;/content>
 &lt;/item>
 &lt;item type="QGraphicsRectItem" z-index="2">
  &lt;position x="411" y="145">
   &lt;transform zoom="100">1,0,0,0,1,0,0,0,1&lt;/transform>
  &lt;/position>
  &lt;content brushcolor="0,0,0,138" pencolor="0,0,0,255" penwidth="0" rect="0,0,457,107"/>
 &lt;/item>
 &lt;startviewport rect="0,0,1280,720"/>
 &lt;endviewport rect="0,0,1280,720"/>
 &lt;background color="0,0,0,0"/>
&lt;/kdenlivetitle>
</property>
  <property name="kdenlive:folderid">32</property>
  <property name="kdenlive:clip_type">2</property>
  <property name="kdenlive:id">27</property>
  <property name="kdenlive:file_hash">b65fb4d34f7c231372adcbd6bfc23b85</property>
  <property name="force_reload">0</property>
  <property name="meta.media.width">1280</property>
  <property name="meta.media.height">720</property>
 </producer>
 <producer id="producer26" in="00:00:00.000" out="00:00:04.967">
  <property name="length">00:00:05.000</property>
  <property name="eof">pause</property>
  <property name="resource">/media/jaker/Pterosaur/Videos/Class/CAD/images/01 CAD frame 5. Document.png</property>
  <property name="ttl">25</property>
  <property name="aspect_ratio">1</property>
  <property name="progressive">1</property>
  <property name="seekable">1</property>
  <property name="format">2</property>
  <property name="meta.media.width">1280</property>
  <property name="meta.media.height">720</property>
  <property name="mlt_service">qimage</property>
  <property name="kdenlive:clipname">01 CAD 5. Document.png</property>
  <property name="kdenlive:duration">00:00:05.000</property>
  <property name="kdenlive:folderid">33</property>
  <property name="kdenlive:clip_type">2</property>
  <property name="kdenlive:id">34</property>
  <property name="kdenlive:file_size">263106</property>
  <property name="kdenlive:file_hash">71c338dcfd6c07c5c0375c36aeecee2a</property>
 </producer>
 <producer id="producer27" in="00:00:00.000" out="00:00:12.000">
  <property name="length">361</property>
  <property name="eof">pause</property>
  <property name="resource"/>
  <property name="progressive">1</property>
  <property name="aspect_ratio">1</property>
  <property name="seekable">1</property>
  <property name="mlt_service">kdenlivetitle</property>
  <property name="kdenlive:duration">150</property>
  <property name="kdenlive:clipname">06 Template spreadsheet</property>
  <property name="xmldata">&lt;kdenlivetitle duration="150" LC_NUMERIC="C" width="1280" height="720" out="149">
 &lt;item type="QGraphicsTextItem" z-index="3">
  &lt;position x="114" y="151">
   &lt;transform>1,0,0,0,1,0,0,0,1&lt;/transform>
  &lt;/position>
  &lt;content line-spacing="0" shadow="0;#64000000;3;3;3" font-underline="0" box-height="84" font="IBM Plex Sans SemiBold" letter-spacing="0" font-pixel-size="64" font-italic="0" typewriter="0;2;1;0;0" alignment="4" font-weight="87" box-width="1051.7" font-color="255,255,255,255">Spreadsheet bit.ly/template-plants&lt;/content>
 &lt;/item>
 &lt;item type="QGraphicsRectItem" z-index="2">
  &lt;position x="95" y="145">
   &lt;transform zoom="100">1,0,0,0,1,0,0,0,1&lt;/transform>
  &lt;/position>
  &lt;content brushcolor="0,0,0,138" pencolor="0,0,0,255" penwidth="0" rect="0,0,1090,107"/>
 &lt;/item>
 &lt;startviewport rect="0,0,1280,720"/>
 &lt;endviewport rect="0,0,1280,720"/>
 &lt;background color="0,0,0,0"/>
&lt;/kdenlivetitle>
</property>
  <property name="kdenlive:folderid">32</property>
  <property name="kdenlive:clip_type">2</property>
  <property name="kdenlive:id">35</property>
  <property name="kdenlive:file_hash">23d81925c8310e4e3a25c7f058602c33</property>
  <property name="force_reload">0</property>
  <property name="meta.media.width">1280</property>
  <property name="meta.media.height">720</property>
 </producer>
 <producer id="producer28" in="00:00:00.000" out="00:00:06.967">
  <property name="length">210</property>
  <property name="eof">pause</property>
  <property name="resource"/>
  <property name="progressive">1</property>
  <property name="aspect_ratio">1</property>
  <property name="seekable">1</property>
  <property name="mlt_service">kdenlivetitle</property>
  <property name="kdenlive:duration">150</property>
  <property name="kdenlive:clipname">03.01 QCAD.org/download</property>
  <property name="xmldata">&lt;kdenlivetitle duration="150" LC_NUMERIC="C" width="1280" height="720" out="149">
 &lt;item type="QGraphicsTextItem" z-index="3">
  &lt;position x="338" y="151">
   &lt;transform>1,0,0,0,1,0,0,0,1&lt;/transform>
  &lt;/position>
  &lt;content line-spacing="0" shadow="0;#64000000;3;3;3" font-underline="0" box-height="84" font="IBM Plex Sans SemiBold" letter-spacing="0" font-pixel-size="64" font-italic="0" typewriter="0;2;1;0;0" alignment="4" font-weight="87" box-width="604.453" font-color="255,255,255,255">QCAD.org/download&lt;/content>
 &lt;/item>
 &lt;item type="QGraphicsRectItem" z-index="2">
  &lt;position x="314" y="145">
   &lt;transform zoom="100">1,0,0,0,1,0,0,0,1&lt;/transform>
  &lt;/position>
  &lt;content brushcolor="0,0,0,138" pencolor="0,0,0,255" penwidth="0" rect="0,0,651,107"/>
 &lt;/item>
 &lt;startviewport rect="0,0,1280,720"/>
 &lt;endviewport rect="0,0,1280,720"/>
 &lt;background color="0,0,0,0"/>
&lt;/kdenlivetitle>
</property>
  <property name="kdenlive:folderid">32</property>
  <property name="kdenlive:clip_type">2</property>
  <property name="kdenlive:id">36</property>
  <property name="kdenlive:file_hash">822eaba8db806ebb931637b80855c1e8</property>
  <property name="force_reload">0</property>
  <property name="meta.media.width">1280</property>
  <property name="meta.media.height">720</property>
 </producer>
 <producer id="producer29" in="00:00:00.000" out="00:00:07.000">
  <property name="length">211</property>
  <property name="eof">pause</property>
  <property name="resource"/>
  <property name="progressive">1</property>
  <property name="aspect_ratio">1</property>
  <property name="seekable">1</property>
  <property name="mlt_service">kdenlivetitle</property>
  <property name="kdenlive:duration">150</property>
  <property name="kdenlive:clipname">03.02 QCAD.org/installation</property>
  <property name="xmldata">&lt;kdenlivetitle duration="150" LC_NUMERIC="C" width="1280" height="720" out="149">
 &lt;item type="QGraphicsTextItem" z-index="3">
  &lt;position x="78" y="151">
   &lt;transform>1,0,0,0,1,0,0,0,1&lt;/transform>
  &lt;/position>
  &lt;content line-spacing="0" shadow="0;#64000000;3;3;3" font-underline="0" box-height="84" font="IBM Plex Sans SemiBold" letter-spacing="0" font-pixel-size="64" font-italic="0" typewriter="0;2;1;0;0" alignment="4" font-weight="87" box-width="1123.5" font-color="255,255,255,255">QCAD.org/documentation/installation&lt;/content>
 &lt;/item>
 &lt;item type="QGraphicsRectItem" z-index="2">
  &lt;position x="55" y="145">
   &lt;transform zoom="100">1,0,0,0,1,0,0,0,1&lt;/transform>
  &lt;/position>
  &lt;content brushcolor="0,0,0,138" pencolor="0,0,0,255" penwidth="0" rect="0,0,1170,107"/>
 &lt;/item>
 &lt;startviewport rect="0,0,1280,720"/>
 &lt;endviewport rect="0,0,1280,720"/>
 &lt;background color="0,0,0,0"/>
&lt;/kdenlivetitle>
</property>
  <property name="kdenlive:folderid">32</property>
  <property name="kdenlive:clip_type">2</property>
  <property name="kdenlive:id">37</property>
  <property name="kdenlive:file_hash">b6e9796d5c1b7229e7377e1e71f063df</property>
  <property name="force_reload">0</property>
  <property name="meta.media.width">1280</property>
  <property name="meta.media.height">720</property>
 </producer>
 <producer id="producer30" in="00:00:00.000" out="00:00:19.600">
  <property name="length">589</property>
  <property name="eof">pause</property>
  <property name="resource"/>
  <property name="progressive">1</property>
  <property name="aspect_ratio">1</property>
  <property name="seekable">1</property>
  <property name="mlt_service">kdenlivetitle</property>
  <property name="kdenlive:duration">150</property>
  <property name="kdenlive:clipname">07 Auto Zoom</property>
  <property name="xmldata">&lt;kdenlivetitle duration="150" LC_NUMERIC="C" width="1280" height="720" out="149">
 &lt;item type="QGraphicsTextItem" z-index="3">
  &lt;position x="103" y="318">
   &lt;transform>1,0,0,0,1,0,0,0,1&lt;/transform>
  &lt;/position>
  &lt;content line-spacing="0" shadow="0;#64000000;3;3;3" font-underline="0" box-height="84" font-outline-color="0,0,0,255" font="IBM Plex Mono SemiBold" letter-spacing="0" font-pixel-size="64" font-italic="0" typewriter="0;2;1;0;0" alignment="4" font-weight="87" font-outline="0" box-width="1074.94" font-color="255,255,255,255">View > Zoom > Auto Zoom (ZA)&lt;/content>
 &lt;/item>
 &lt;item type="QGraphicsRectItem" z-index="2">
  &lt;position x="78" y="306">
   &lt;transform zoom="100">1,0,0,0,1,0,0,0,1&lt;/transform>
  &lt;/position>
  &lt;content brushcolor="0,0,0,138" pencolor="0,0,0,255" penwidth="0" rect="0,0,1123,107"/>
 &lt;/item>
 &lt;startviewport rect="0,0,1280,720"/>
 &lt;endviewport rect="0,0,1280,720"/>
 &lt;background color="0,0,0,0"/>
&lt;/kdenlivetitle>
</property>
  <property name="kdenlive:folderid">32</property>
  <property name="kdenlive:clip_type">2</property>
  <property name="kdenlive:id">38</property>
  <property name="kdenlive:file_hash">8dba35abea94e3bfd4364f0bb8609361</property>
  <property name="force_reload">0</property>
  <property name="meta.media.width">1280</property>
  <property name="meta.media.height">720</property>
 </producer>
 <producer id="producer31" in="00:00:00.000" out="00:00:19.600">
  <property name="length">589</property>
  <property name="eof">pause</property>
  <property name="resource"/>
  <property name="progressive">1</property>
  <property name="aspect_ratio">1</property>
  <property name="seekable">1</property>
  <property name="mlt_service">kdenlivetitle</property>
  <property name="kdenlive:duration">150</property>
  <property name="kdenlive:clipname">08 Pan Zoom</property>
  <property name="xmldata">&lt;kdenlivetitle duration="150" LC_NUMERIC="C" width="1280" height="720" out="149">
 &lt;item type="QGraphicsTextItem" z-index="3">
  &lt;position x="122" y="318">
   &lt;transform>1,0,0,0,1,0,0,0,1&lt;/transform>
  &lt;/position>
  &lt;content line-spacing="0" shadow="0;#64000000;3;3;3" font-underline="0" box-height="84" font="IBM Plex Mono SemiBold" letter-spacing="0" font-pixel-size="64" font-italic="0" typewriter="0;2;1;0;0" alignment="4" font-weight="87" box-width="1036.55" font-color="255,255,255,255">View > Zoom > Pan Zoom (ZP)&lt;/content>
 &lt;/item>
 &lt;item type="QGraphicsRectItem" z-index="2">
  &lt;position x="101" y="306">
   &lt;transform zoom="100">1,0,0,0,1,0,0,0,1&lt;/transform>
  &lt;/position>
  &lt;content brushcolor="0,0,0,138" pencolor="0,0,0,255" penwidth="0" rect="0,0,1077,107"/>
 &lt;/item>
 &lt;startviewport rect="0,0,1280,720"/>
 &lt;endviewport rect="0,0,1280,720"/>
 &lt;background color="0,0,0,0"/>
&lt;/kdenlivetitle>
</property>
  <property name="kdenlive:folderid">32</property>
  <property name="kdenlive:clip_type">2</property>
  <property name="kdenlive:id">39</property>
  <property name="kdenlive:file_hash">cf8a7e17947d5d2bb11c9a8d667fc352</property>
  <property name="force_reload">0</property>
  <property name="meta.media.width">1280</property>
  <property name="meta.media.height">720</property>
 </producer>
 <producer id="producer32" in="00:00:00.000" out="00:00:19.600">
  <property name="length">589</property>
  <property name="eof">pause</property>
  <property name="resource"/>
  <property name="progressive">1</property>
  <property name="aspect_ratio">1</property>
  <property name="seekable">1</property>
  <property name="mlt_service">kdenlivetitle</property>
  <property name="kdenlive:duration">150</property>
  <property name="kdenlive:clipname">09 Auto Zoom again</property>
  <property name="xmldata">&lt;kdenlivetitle duration="150" LC_NUMERIC="C" width="1280" height="720" out="149">
 &lt;item type="QGraphicsTextItem" z-index="3">
  &lt;position x="26" y="318">
   &lt;transform>1,0,0,0,1,0,0,0,1&lt;/transform>
  &lt;/position>
  &lt;content line-spacing="0" shadow="0;#64000000;3;3;3" font-underline="0" box-height="84" font="IBM Plex Mono SemiBold" letter-spacing="0" font-pixel-size="64" font-italic="0" typewriter="0;2;1;0;0" alignment="4" font-weight="87" box-width="1228.5" font-color="255,255,255,255">View > Zoom > Auto Zoom (again!)&lt;/content>
 &lt;/item>
 &lt;item type="QGraphicsRectItem" z-index="2">
  &lt;position x="5" y="306">
   &lt;transform zoom="100">1,0,0,0,1,0,0,0,1&lt;/transform>
  &lt;/position>
  &lt;content brushcolor="0,0,0,138" pencolor="0,0,0,255" penwidth="0" rect="0,0,1269,107"/>
 &lt;/item>
 &lt;startviewport rect="0,0,1280,720"/>
 &lt;endviewport rect="0,0,1280,720"/>
 &lt;background color="0,0,0,0"/>
&lt;/kdenlivetitle>
</property>
  <property name="kdenlive:folderid">32</property>
  <property name="kdenlive:clip_type">2</property>
  <property name="kdenlive:id">40</property>
  <property name="kdenlive:file_hash">cf8a7e17947d5d2bb11c9a8d667fc352</property>
  <property name="force_reload">0</property>
  <property name="meta.media.width">1280</property>
  <property name="meta.media.height">720</property>
 </producer>
 <producer id="producer61" in="00:00:00.000" out="00:00:04.967">
  <property name="length">00:00:05.000</property>
  <property name="eof">pause</property>
  <property name="resource">/media/jaker/Pterosaur/Videos/Class/CAD/images/03.00 escape key.jpg</property>
  <property name="ttl">25</property>
  <property name="aspect_ratio">1</property>
  <property name="progressive">1</property>
  <property name="seekable">1</property>
  <property name="format">1</property>
  <property name="meta.media.width">1280</property>
  <property name="meta.media.height">720</property>
  <property name="mlt_service">qimage</property>
  <property name="kdenlive:clipname">03.00 escape key.jpg</property>
  <property name="kdenlive:duration">00:00:05.000</property>
  <property name="kdenlive:folderid">33</property>
  <property name="kdenlive:clip_type">2</property>
  <property name="kdenlive:id">41</property>
  <property name="kdenlive:file_size">193168</property>
  <property name="kdenlive:originalurl">/media/jaker/Pterosaur/Videos/Class/CAD/images/03.00 escape key.jpg</property>
  <property name="kdenlive:proxy">-</property>
  <property name="kdenlive:file_hash">49c4affb5f0431229534119e41d6e372</property>
 </producer>
 <producer id="producer34" in="00:00:00.000" out="00:00:09.667">
  <property name="length">291</property>
  <property name="eof">pause</property>
  <property name="resource"/>
  <property name="progressive">1</property>
  <property name="aspect_ratio">1</property>
  <property name="seekable">1</property>
  <property name="mlt_service">kdenlivetitle</property>
  <property name="kdenlive:duration">150</property>
  <property name="kdenlive:clipname">10 CAD files </property>
  <property name="xmldata">&lt;kdenlivetitle duration="150" LC_NUMERIC="C" width="1280" height="720" out="149">
 &lt;item type="QGraphicsTextItem" z-index="3">
  &lt;position x="91" y="255">
   &lt;transform>1,0,0,0,1,0,0,0,1&lt;/transform>
  &lt;/position>
  &lt;content line-spacing="0" shadow="0;#64000000;3;3;3" font-underline="0" box-height="80" font="IBM Plex Sans SemiBold" letter-spacing="0" font-pixel-size="61" font-italic="0" typewriter="0;2;1;0;0" alignment="4" font-weight="50" box-width="1097.53" font-color="255,255,255,255">github.com/growdigital/cad-gardeners&lt;/content>
 &lt;/item>
 &lt;item type="QGraphicsRectItem" z-index="2">
  &lt;position x="65" y="249">
   &lt;transform zoom="100">1,0,0,0,1,0,0,0,1&lt;/transform>
  &lt;/position>
  &lt;content brushcolor="0,0,0,138" pencolor="0,0,0,255" penwidth="0" rect="0,0,1152,107"/>
 &lt;/item>
 &lt;startviewport rect="0,0,1280,720"/>
 &lt;endviewport rect="0,0,1280,720"/>
 &lt;background color="0,0,0,0"/>
&lt;/kdenlivetitle>
</property>
  <property name="kdenlive:folderid">32</property>
  <property name="kdenlive:clip_type">2</property>
  <property name="kdenlive:id">42</property>
  <property name="kdenlive:file_hash">9f902889f25fb411f7fdaea724aa5b96</property>
  <property name="force_reload">0</property>
  <property name="meta.media.width">1280</property>
  <property name="meta.media.height">720</property>
  <property name="kdenlive:activeeffect">-1</property>
 </producer>
 <producer id="producer35" in="00:00:00.000" out="00:00:09.667">
  <property name="length">291</property>
  <property name="eof">pause</property>
  <property name="resource"/>
  <property name="progressive">1</property>
  <property name="aspect_ratio">1</property>
  <property name="seekable">1</property>
  <property name="mlt_service">kdenlivetitle</property>
  <property name="kdenlive:duration">150</property>
  <property name="kdenlive:clipname">11 NURBS</property>
  <property name="xmldata">&lt;kdenlivetitle duration="150" LC_NUMERIC="C" width="1280" height="720" out="149">
 &lt;item type="QGraphicsTextItem" z-index="3">
  &lt;position x="92" y="255">
   &lt;transform>1,0,0,0,1,0,0,0,1&lt;/transform>
  &lt;/position>
  &lt;content line-spacing="0" shadow="0;#64000000;3;3;3" font-underline="0" box-height="80" font="IBM Plex Sans SemiBold" letter-spacing="0" font-pixel-size="61" font-italic="0" typewriter="0;2;1;0;0" alignment="4" font-weight="50" box-width="1102.02" font-color="255,255,255,255">NURBS: Non-uniform rational B-spline!&lt;/content>
 &lt;/item>
 &lt;item type="QGraphicsRectItem" z-index="2">
  &lt;position x="65" y="249">
   &lt;transform zoom="100">1,0,0,0,1,0,0,0,1&lt;/transform>
  &lt;/position>
  &lt;content brushcolor="0,0,0,138" pencolor="0,0,0,255" penwidth="0" rect="0,0,1152,107"/>
 &lt;/item>
 &lt;startviewport rect="0,0,1280,720"/>
 &lt;endviewport rect="0,0,1280,720"/>
 &lt;background color="0,0,0,0"/>
&lt;/kdenlivetitle>
</property>
  <property name="kdenlive:folderid">32</property>
  <property name="kdenlive:clip_type">2</property>
  <property name="kdenlive:id">43</property>
  <property name="kdenlive:file_hash">1a29d8e9418c6e87278ec68dae26e61f</property>
  <property name="force_reload">0</property>
  <property name="kdenlive:activeeffect">-1</property>
  <property name="meta.media.width">1280</property>
  <property name="meta.media.height">720</property>
 </producer>
 <producer id="producer36" in="00:00:00.000" out="00:00:04.967">
  <property name="length">00:00:05.000</property>
  <property name="eof">pause</property>
  <property name="resource">/media/jaker/Pterosaur/Videos/Class/CAD/images/03.01 shapes rectangle.png</property>
  <property name="ttl">25</property>
  <property name="aspect_ratio">1</property>
  <property name="progressive">1</property>
  <property name="seekable">1</property>
  <property name="format">2</property>
  <property name="meta.media.width">127</property>
  <property name="meta.media.height">130</property>
  <property name="mlt_service">qimage</property>
  <property name="kdenlive:clipname"/>
  <property name="kdenlive:duration">00:00:05.000</property>
  <property name="kdenlive:folderid">33</property>
  <property name="kdenlive:clip_type">2</property>
  <property name="kdenlive:id">44</property>
  <property name="kdenlive:file_size">8062</property>
  <property name="kdenlive:file_hash">1a8022cfdebb9c301202db604fa2e29d</property>
 </producer>
 <producer id="producer37" in="00:00:00.000" out="00:00:09.700">
  <property name="length">292</property>
  <property name="eof">pause</property>
  <property name="resource">/media/jaker/Pterosaur/Videos/Class/CAD/images/03.01 shapes rectangle with size.png</property>
  <property name="ttl">25</property>
  <property name="aspect_ratio">1</property>
  <property name="progressive">1</property>
  <property name="seekable">1</property>
  <property name="format">2</property>
  <property name="meta.media.width">124</property>
  <property name="meta.media.height">129</property>
  <property name="mlt_service">qimage</property>
  <property name="kdenlive:clipname"/>
  <property name="kdenlive:duration">00:00:05.000</property>
  <property name="kdenlive:folderid">33</property>
  <property name="kdenlive:clip_type">2</property>
  <property name="kdenlive:id">45</property>
  <property name="kdenlive:file_size">7725</property>
  <property name="kdenlive:file_hash">098e8986ada2125bd6be59717b5648e2</property>
 </producer>
 <producer id="producer38" in="00:00:00.000" out="00:00:19.600">
  <property name="length">589</property>
  <property name="eof">pause</property>
  <property name="resource">/media/jaker/Pterosaur/Videos/Class/CAD/images/03.02 shapes line tool.png</property>
  <property name="ttl">25</property>
  <property name="aspect_ratio">1</property>
  <property name="progressive">1</property>
  <property name="seekable">1</property>
  <property name="format">2</property>
  <property name="meta.media.width">123</property>
  <property name="meta.media.height">126</property>
  <property name="mlt_service">qimage</property>
  <property name="kdenlive:clipname"/>
  <property name="kdenlive:duration">00:00:05.000</property>
  <property name="kdenlive:folderid">33</property>
  <property name="kdenlive:clip_type">2</property>
  <property name="kdenlive:id">46</property>
  <property name="kdenlive:file_size">7957</property>
  <property name="kdenlive:file_hash">0b332741ee69f308e4baa26ec061d545</property>
 </producer>
 <producer id="producer39" in="00:00:00.000" out="00:00:24.000">
  <property name="length">721</property>
  <property name="eof">pause</property>
  <property name="resource">/media/jaker/Pterosaur/Videos/Class/CAD/images/03.03 shapes circle.png</property>
  <property name="ttl">25</property>
  <property name="aspect_ratio">1</property>
  <property name="progressive">1</property>
  <property name="seekable">1</property>
  <property name="format">2</property>
  <property name="meta.media.width">129</property>
  <property name="meta.media.height">129</property>
  <property name="mlt_service">qimage</property>
  <property name="kdenlive:clipname"/>
  <property name="kdenlive:duration">00:00:05.000</property>
  <property name="kdenlive:folderid">33</property>
  <property name="kdenlive:clip_type">2</property>
  <property name="kdenlive:id">47</property>
  <property name="kdenlive:file_size">9748</property>
  <property name="kdenlive:file_hash">e3528fb7425b6b13afc3141fee617958</property>
  <property name="kdenlive:activeeffect">2</property>
  <filter id="filter0">
   <property name="version">0.1</property>
   <property name="mlt_service">frei0r.scale0tilt</property>
   <property name="kdenlive_id">frei0r.scale0tilt</property>
   <property name="Clip left">00:00:00.000=0</property>
   <property name="Clip right">00:00:00.000=0</property>
   <property name="Clip top">00:00:00.000=0</property>
   <property name="Clip bottom">00:00:00.000=0</property>
   <property name="Scale X">00:00:00.000=0.15</property>
   <property name="Scale Y">00:00:00.000=0.15</property>
   <property name="Tilt X">00:00:00.000=0.609375</property>
   <property name="Tilt Y">00:00:00.000=0.825</property>
   <property name="kdenlive:collapsed">0</property>
  </filter>
  <filter id="filter1" out="00:00:01.000">
   <property name="start">1</property>
   <property name="level">1</property>
   <property name="mlt_service">brightness</property>
   <property name="kdenlive_id">fade_from_Fade in 1 sec</property>
   <property name="alpha">00:00:00.000=0;00:00:01.000=1</property>
   <property name="kdenlive:collapsed">0</property>
  </filter>
  <filter id="filter2" in="00:00:23.000" out="00:00:24.000">
   <property name="start">1</property>
   <property name="level">1</property>
   <property name="mlt_service">brightness</property>
   <property name="kdenlive_id">fade_to_Fade out 1 sec</property>
   <property name="alpha">00:00:00.000=1;00:00:01.000=0</property>
   <property name="kdenlive:collapsed">0</property>
  </filter>
 </producer>
 <producer id="producer40" in="00:00:00.000" out="00:00:19.833">
  <property name="length">596</property>
  <property name="eof">pause</property>
  <property name="resource">/media/jaker/Pterosaur/Videos/Class/CAD/images/03.03 shapes circle diameter.png</property>
  <property name="ttl">25</property>
  <property name="aspect_ratio">1</property>
  <property name="progressive">1</property>
  <property name="seekable">1</property>
  <property name="format">2</property>
  <property name="meta.media.width">263</property>
  <property name="meta.media.height">213</property>
  <property name="mlt_service">qimage</property>
  <property name="kdenlive:clipname"/>
  <property name="kdenlive:duration">00:00:05.000</property>
  <property name="kdenlive:folderid">33</property>
  <property name="kdenlive:clip_type">2</property>
  <property name="kdenlive:id">48</property>
  <property name="kdenlive:file_size">23522</property>
  <property name="kdenlive:file_hash">2fb7cee437bb30e3677920707f81d80a</property>
 </producer>
 <producer id="producer41" in="00:00:00.000" out="00:00:05.833">
  <property name="length">176</property>
  <property name="eof">pause</property>
  <property name="resource">/media/jaker/Pterosaur/Videos/Class/CAD/images/03.04 shapes NURBS.png</property>
  <property name="ttl">25</property>
  <property name="aspect_ratio">1</property>
  <property name="progressive">1</property>
  <property name="seekable">1</property>
  <property name="format">2</property>
  <property name="meta.media.width">128</property>
  <property name="meta.media.height">129</property>
  <property name="mlt_service">qimage</property>
  <property name="kdenlive:clipname"/>
  <property name="kdenlive:duration">00:00:05.000</property>
  <property name="kdenlive:folderid">33</property>
  <property name="kdenlive:clip_type">2</property>
  <property name="kdenlive:id">49</property>
  <property name="kdenlive:file_size">11285</property>
  <property name="kdenlive:file_hash">5038ef12de3c933e79fd5402e1ba18b3</property>
 </producer>
 <producer id="producer42" in="00:00:00.000" out="00:00:19.600">
  <property name="length">589</property>
  <property name="eof">pause</property>
  <property name="resource"/>
  <property name="progressive">1</property>
  <property name="aspect_ratio">1</property>
  <property name="seekable">1</property>
  <property name="mlt_service">kdenlivetitle</property>
  <property name="kdenlive:duration">150</property>
  <property name="kdenlive:clipname">12 Snap Free</property>
  <property name="xmldata">&lt;kdenlivetitle duration="150" LC_NUMERIC="C" width="1280" height="720" out="149">
 &lt;item type="QGraphicsTextItem" z-index="3">
  &lt;position x="333" y="318">
   &lt;transform>1,0,0,0,1,0,0,0,1&lt;/transform>
  &lt;/position>
  &lt;content line-spacing="0" shadow="0;#64000000;3;3;3" font-underline="0" box-height="84" font="IBM Plex Mono SemiBold" letter-spacing="0" font-pixel-size="64" font-italic="0" typewriter="0;2;1;0;0" alignment="4" font-weight="87" box-width="614.25" font-color="255,255,255,255">Snap > Free (SF)&lt;/content>
 &lt;/item>
 &lt;item type="QGraphicsRectItem" z-index="2">
  &lt;position x="307" y="306">
   &lt;transform zoom="100">1,0,0,0,1,0,0,0,1&lt;/transform>
  &lt;/position>
  &lt;content brushcolor="0,0,0,138" pencolor="0,0,0,255" penwidth="0" rect="0,0,666,107"/>
 &lt;/item>
 &lt;startviewport rect="0,0,1280,720"/>
 &lt;endviewport rect="0,0,1280,720"/>
 &lt;background color="0,0,0,0"/>
&lt;/kdenlivetitle>
</property>
  <property name="kdenlive:folderid">32</property>
  <property name="kdenlive:clip_type">2</property>
  <property name="kdenlive:id">50</property>
  <property name="kdenlive:file_hash">cf8a7e17947d5d2bb11c9a8d667fc352</property>
  <property name="force_reload">0</property>
  <property name="meta.media.width">1280</property>
  <property name="meta.media.height">720</property>
 </producer>
 <producer id="producer43" in="00:00:00.000" out="00:00:19.600">
  <property name="length">589</property>
  <property name="eof">pause</property>
  <property name="resource"/>
  <property name="progressive">1</property>
  <property name="aspect_ratio">1</property>
  <property name="seekable">1</property>
  <property name="mlt_service">kdenlivetitle</property>
  <property name="kdenlive:duration">150</property>
  <property name="kdenlive:clipname">13 Snap Entity</property>
  <property name="xmldata">&lt;kdenlivetitle duration="150" LC_NUMERIC="C" width="1280" height="720" out="149">
 &lt;item type="QGraphicsTextItem" z-index="3">
  &lt;position x="239" y="318">
   &lt;transform>1,0,0,0,1,0,0,0,1&lt;/transform>
  &lt;/position>
  &lt;content line-spacing="0" shadow="0;#64000000;3;3;3" font-underline="0" box-height="84" font="IBM Plex Mono SemiBold" letter-spacing="0" font-pixel-size="64" font-italic="0" typewriter="0;2;1;0;0" alignment="4" font-weight="87" box-width="806.203" font-color="255,255,255,255">Snap > On Entity (ST)&lt;/content>
 &lt;/item>
 &lt;item type="QGraphicsRectItem" z-index="2">
  &lt;position x="205" y="306">
   &lt;transform zoom="100">1,0,0,0,1,0,0,0,1&lt;/transform>
  &lt;/position>
  &lt;content brushcolor="0,0,0,138" pencolor="0,0,0,255" penwidth="0" rect="0,0,870,107"/>
 &lt;/item>
 &lt;startviewport rect="0,0,1280,720"/>
 &lt;endviewport rect="0,0,1280,720"/>
 &lt;background color="0,0,0,0"/>
&lt;/kdenlivetitle>
</property>
  <property name="kdenlive:folderid">32</property>
  <property name="kdenlive:clip_type">2</property>
  <property name="kdenlive:id">51</property>
  <property name="kdenlive:file_hash">aa003b1d103ffe282e52cc7f6ca6fd4e</property>
  <property name="force_reload">0</property>
  <property name="meta.media.width">1280</property>
  <property name="meta.media.height">720</property>
  <property name="kdenlive:activeeffect">-1</property>
 </producer>
 <producer id="producer44" in="00:00:00.000" out="00:00:19.600">
  <property name="length">589</property>
  <property name="eof">pause</property>
  <property name="resource"/>
  <property name="progressive">1</property>
  <property name="aspect_ratio">1</property>
  <property name="seekable">1</property>
  <property name="mlt_service">kdenlivetitle</property>
  <property name="kdenlive:duration">150</property>
  <property name="kdenlive:clipname">14 Snap Auto</property>
  <property name="xmldata">&lt;kdenlivetitle duration="150" LC_NUMERIC="C" width="1280" height="720" out="149">
 &lt;item type="QGraphicsTextItem" z-index="3">
  &lt;position x="334" y="318">
   &lt;transform>1,0,0,0,1,0,0,0,1&lt;/transform>
  &lt;/position>
  &lt;content line-spacing="0" shadow="0;#64000000;3;3;3" font-underline="0" box-height="84" font="IBM Plex Mono SemiBold" letter-spacing="0" font-pixel-size="64" font-italic="0" typewriter="0;2;1;0;0" alignment="4" font-weight="87" box-width="614.25" font-color="255,255,255,255">Snap > Auto (SA)&lt;/content>
 &lt;/item>
 &lt;item type="QGraphicsRectItem" z-index="2">
  &lt;position x="307" y="306">
   &lt;transform zoom="100">1,0,0,0,1,0,0,0,1&lt;/transform>
  &lt;/position>
  &lt;content brushcolor="0,0,0,138" pencolor="0,0,0,255" penwidth="0" rect="0,0,666,107"/>
 &lt;/item>
 &lt;startviewport rect="0,0,1280,720"/>
 &lt;endviewport rect="0,0,1280,720"/>
 &lt;background color="0,0,0,0"/>
&lt;/kdenlivetitle>
</property>
  <property name="kdenlive:folderid">32</property>
  <property name="kdenlive:clip_type">2</property>
  <property name="kdenlive:id">52</property>
  <property name="kdenlive:file_hash">aa003b1d103ffe282e52cc7f6ca6fd4e</property>
  <property name="force_reload">0</property>
  <property name="meta.media.width">1280</property>
  <property name="meta.media.height">720</property>
 </producer>
 <producer id="producer45" in="00:00:00.000" out="00:00:19.600">
  <property name="length">589</property>
  <property name="eof">pause</property>
  <property name="resource"/>
  <property name="progressive">1</property>
  <property name="aspect_ratio">1</property>
  <property name="seekable">1</property>
  <property name="mlt_service">kdenlivetitle</property>
  <property name="kdenlive:duration">150</property>
  <property name="kdenlive:clipname">15 Snap End</property>
  <property name="xmldata">&lt;kdenlivetitle duration="150" LC_NUMERIC="C" width="1280" height="720" out="149">
 &lt;item type="QGraphicsTextItem" z-index="3">
  &lt;position x="352" y="318">
   &lt;transform>1,0,0,0,1,0,0,0,1&lt;/transform>
  &lt;/position>
  &lt;content line-spacing="0" shadow="0;#64000000;3;3;3" font-underline="0" box-height="84" font="IBM Plex Mono SemiBold" letter-spacing="0" font-pixel-size="64" font-italic="0" typewriter="0;2;1;0;0" alignment="4" font-weight="87" box-width="575.859" font-color="255,255,255,255">Snap > End (SE)&lt;/content>
 &lt;/item>
 &lt;item type="QGraphicsRectItem" z-index="2">
  &lt;position x="329" y="306">
   &lt;transform zoom="100">1,0,0,0,1,0,0,0,1&lt;/transform>
  &lt;/position>
  &lt;content brushcolor="0,0,0,138" pencolor="0,0,0,255" penwidth="0" rect="0,0,621,107"/>
 &lt;/item>
 &lt;startviewport rect="0,0,1280,720"/>
 &lt;endviewport rect="0,0,1280,720"/>
 &lt;background color="0,0,0,0"/>
&lt;/kdenlivetitle>
</property>
  <property name="kdenlive:folderid">32</property>
  <property name="kdenlive:clip_type">2</property>
  <property name="kdenlive:id">53</property>
  <property name="kdenlive:file_hash">064548ef831673c71d47674bc317e443</property>
  <property name="force_reload">0</property>
  <property name="meta.media.width">1280</property>
  <property name="meta.media.height">720</property>
 </producer>
 <producer id="producer46" in="00:00:00.000" out="00:00:19.600">
  <property name="length">589</property>
  <property name="eof">pause</property>
  <property name="resource"/>
  <property name="progressive">1</property>
  <property name="aspect_ratio">1</property>
  <property name="seekable">1</property>
  <property name="mlt_service">kdenlivetitle</property>
  <property name="kdenlive:duration">150</property>
  <property name="kdenlive:clipname">16 Create Block</property>
  <property name="xmldata">&lt;kdenlivetitle duration="150" LC_NUMERIC="C" width="1280" height="720" out="149">
 &lt;item type="QGraphicsTextItem" z-index="3">
  &lt;position x="40" y="327">
   &lt;transform>1,0,0,0,1,0,0,0,1&lt;/transform>
  &lt;/position>
  &lt;content line-spacing="0" shadow="0;#64000000;3;3;3" font-underline="0" box-height="66" font-outline-color="0,0,0,255" font="IBM Plex Mono SemiBold" letter-spacing="0" font-pixel-size="50" font-italic="0" typewriter="0;2;1;0;0" alignment="4" font-weight="87" font-outline="0" box-width="1199.38" font-color="255,255,255,255">Block > Create Block from Selection (BC)&lt;/content>
 &lt;/item>
 &lt;item type="QGraphicsRectItem" z-index="2">
  &lt;position x="13" y="313">
   &lt;transform zoom="100">1,0,0,0,1,0,0,0,1&lt;/transform>
  &lt;/position>
  &lt;content brushcolor="0,0,0,138" pencolor="0,0,0,255" penwidth="0" rect="0,0,1254,93"/>
 &lt;/item>
 &lt;startviewport rect="0,0,1280,720"/>
 &lt;endviewport rect="0,0,1280,720"/>
 &lt;background color="0,0,0,0"/>
&lt;/kdenlivetitle>
</property>
  <property name="kdenlive:folderid">32</property>
  <property name="kdenlive:clip_type">2</property>
  <property name="kdenlive:id">54</property>
  <property name="kdenlive:file_hash">73c0583b57fd1ebbee35074944ff2b61</property>
  <property name="force_reload">0</property>
  <property name="meta.media.width">1280</property>
  <property name="meta.media.height">720</property>
 </producer>
 <producer id="producer47" in="00:00:00.000" out="00:00:19.600">
  <property name="length">589</property>
  <property name="eof">pause</property>
  <property name="progressive">1</property>
  <property name="aspect_ratio">1</property>
  <property name="seekable">1</property>
  <property name="mlt_service">kdenlivetitle</property>
  <property name="kdenlive:duration">150</property>
  <property name="kdenlive:clipname">17 Draw > Polyl...</property>
  <property name="xmldata">&lt;kdenlivetitle duration="150" LC_NUMERIC="C" width="1280" height="720" out="149">
 &lt;item type="QGraphicsTextItem" z-index="3">
  &lt;position x="34" y="327">
   &lt;transform>1,0,0,0,1,0,0,0,1&lt;/transform>
  &lt;/position>
  &lt;content line-spacing="0" shadow="0;#64000000;3;3;3" font-underline="0" box-height="59" font="IBM Plex Mono SemiBold" letter-spacing="0" font-pixel-size="44" font-italic="0" typewriter="0;2;1;0;0" alignment="4" font-weight="87" box-width="1213.97" font-color="255,255,255,255">Draw > Polyline > Polyline from Selection (OC)&lt;/content>
 &lt;/item>
 &lt;item type="QGraphicsRectItem" z-index="2">
  &lt;position x="13" y="313">
   &lt;transform zoom="100">1,0,0,0,1,0,0,0,1&lt;/transform>
  &lt;/position>
  &lt;content brushcolor="0,0,0,138" pencolor="0,0,0,255" penwidth="0" rect="0,0,1254,93"/>
 &lt;/item>
 &lt;startviewport rect="0,0,1280,720"/>
 &lt;endviewport rect="0,0,1280,720"/>
 &lt;background color="0,0,0,0"/>
&lt;/kdenlivetitle>
</property>
  <property name="kdenlive:folderid">32</property>
  <property name="kdenlive:clip_type">2</property>
  <property name="kdenlive:id">55</property>
  <property name="force_reload">0</property>
  <property name="meta.media.width">1280</property>
  <property name="meta.media.height">720</property>
  <property name="kdenlive:file_hash">905b37390ec27dceaddc05585f2bff50</property>
 </producer>
 <producer id="producer48" in="00:00:00.000" out="00:00:04.967">
  <property name="length">00:00:05.000</property>
  <property name="eof">pause</property>
  <property name="resource">/media/jaker/Pterosaur/Videos/Class/CAD/images/03.05 entites explode.png</property>
  <property name="ttl">25</property>
  <property name="aspect_ratio">1</property>
  <property name="progressive">1</property>
  <property name="seekable">1</property>
  <property name="format">2</property>
  <property name="meta.media.width">129</property>
  <property name="meta.media.height">131</property>
  <property name="mlt_service">qimage</property>
  <property name="kdenlive:clipname"/>
  <property name="kdenlive:duration">00:00:05.000</property>
  <property name="kdenlive:folderid">33</property>
  <property name="kdenlive:clip_type">2</property>
  <property name="kdenlive:id">56</property>
  <property name="kdenlive:file_size">11409</property>
  <property name="kdenlive:file_hash">be4c72505bad0851471176f05848b9b1</property>
 </producer>
 <producer id="producer49" in="00:00:00.000" out="00:00:19.600">
  <property name="length">589</property>
  <property name="eof">pause</property>
  <property name="resource"/>
  <property name="progressive">1</property>
  <property name="aspect_ratio">1</property>
  <property name="seekable">1</property>
  <property name="mlt_service">kdenlivetitle</property>
  <property name="kdenlive:duration">150</property>
  <property name="kdenlive:clipname">18 Explode</property>
  <property name="xmldata">&lt;kdenlivetitle duration="150" LC_NUMERIC="C" width="1280" height="720" out="149">
 &lt;item type="QGraphicsTextItem" z-index="3">
  &lt;position x="60" y="318">
   &lt;transform>1,0,0,0,1,0,0,0,1&lt;/transform>
  &lt;/position>
  &lt;content line-spacing="0" shadow="0;#64000000;3;3;3" font-underline="0" box-height="84" font-outline-color="0,0,0,255" font="IBM Plex Sans SemiBold" letter-spacing="0" font-pixel-size="64" font-italic="0" typewriter="0;2;1;0;0" alignment="4" font-weight="87" font-outline="0" box-width="1159.56" font-color="255,255,255,255">The dynamite breaks apart the polyline&lt;/content>
 &lt;/item>
 &lt;item type="QGraphicsRectItem" z-index="2">
  &lt;position x="36" y="306">
   &lt;transform zoom="100">1,0,0,0,1,0,0,0,1&lt;/transform>
  &lt;/position>
  &lt;content brushcolor="0,0,0,138" pencolor="0,0,0,255" penwidth="0" rect="0,0,1208,107"/>
 &lt;/item>
 &lt;startviewport rect="0,0,1280,720"/>
 &lt;endviewport rect="0,0,1280,720"/>
 &lt;background color="0,0,0,0"/>
&lt;/kdenlivetitle>
</property>
  <property name="kdenlive:folderid">32</property>
  <property name="kdenlive:clip_type">2</property>
  <property name="kdenlive:id">57</property>
  <property name="kdenlive:file_hash">aa003b1d103ffe282e52cc7f6ca6fd4e</property>
  <property name="force_reload">0</property>
  <property name="meta.media.width">1280</property>
  <property name="meta.media.height">720</property>
  <property name="kdenlive:activeeffect">-1</property>
 </producer>
 <producer id="producer50" in="00:00:00.000" out="00:00:09.667">
  <property name="length">291</property>
  <property name="eof">pause</property>
  <property name="resource"/>
  <property name="progressive">1</property>
  <property name="aspect_ratio">1</property>
  <property name="seekable">1</property>
  <property name="mlt_service">kdenlivetitle</property>
  <property name="kdenlive:duration">150</property>
  <property name="kdenlive:clipname">19 5m²</property>
  <property name="xmldata">&lt;kdenlivetitle duration="150" LC_NUMERIC="C" width="1280" height="720" out="149">
 &lt;item type="QGraphicsTextItem" z-index="3">
  &lt;position x="325" y="255">
   &lt;transform>1,0,0,0,1,0,0,0,1&lt;/transform>
  &lt;/position>
  &lt;content line-spacing="0" shadow="0;#64000000;3;3;3" font-underline="0" box-height="80" font="IBM Plex Sans SemiBold" letter-spacing="0" font-pixel-size="61" font-italic="0" typewriter="0;2;1;0;0" alignment="4" font-weight="50" box-width="628.547" font-color="255,255,255,255">5m², not 5m diameter!&lt;/content>
 &lt;/item>
 &lt;item type="QGraphicsRectItem" z-index="2">
  &lt;position x="291" y="249">
   &lt;transform zoom="100">1,0,0,0,1,0,0,0,1&lt;/transform>
  &lt;/position>
  &lt;content brushcolor="0,0,0,138" pencolor="0,0,0,255" penwidth="0" rect="0,0,698,107"/>
 &lt;/item>
 &lt;startviewport rect="0,0,1280,720"/>
 &lt;endviewport rect="0,0,1280,720"/>
 &lt;background color="0,0,0,0"/>
&lt;/kdenlivetitle>
</property>
  <property name="kdenlive:folderid">32</property>
  <property name="kdenlive:clip_type">2</property>
  <property name="kdenlive:id">58</property>
  <property name="kdenlive:file_hash">1a29d8e9418c6e87278ec68dae26e61f</property>
  <property name="force_reload">0</property>
  <property name="kdenlive:activeeffect">-1</property>
  <property name="meta.media.width">1280</property>
  <property name="meta.media.height">720</property>
 </producer>
 <producer id="producer51" in="00:00:00.000" out="00:00:04.967">
  <property name="length">00:00:05.000</property>
  <property name="eof">pause</property>
  <property name="resource">/media/jaker/Pterosaur/Videos/Class/CAD/images/03.06 text.png</property>
  <property name="ttl">25</property>
  <property name="aspect_ratio">1</property>
  <property name="progressive">1</property>
  <property name="seekable">1</property>
  <property name="format">2</property>
  <property name="meta.media.width">127</property>
  <property name="meta.media.height">125</property>
  <property name="mlt_service">qimage</property>
  <property name="kdenlive:clipname"/>
  <property name="kdenlive:duration">00:00:05.000</property>
  <property name="kdenlive:folderid">33</property>
  <property name="kdenlive:clip_type">2</property>
  <property name="kdenlive:id">59</property>
  <property name="kdenlive:file_size">9874</property>
  <property name="kdenlive:file_hash">c517ed09bd3f9d32b7791c29ee6316b7</property>
 </producer>
 <producer id="producer52" in="00:00:00.000" out="00:00:12.700">
  <property name="length">382</property>
  <property name="eof">pause</property>
  <property name="resource">/media/jaker/Pterosaur/Videos/Class/CAD/images/03.05 THREE entites.png</property>
  <property name="ttl">25</property>
  <property name="aspect_ratio">1</property>
  <property name="progressive">1</property>
  <property name="seekable">1</property>
  <property name="format">1</property>
  <property name="meta.media.width">1920</property>
  <property name="meta.media.height">1080</property>
  <property name="mlt_service">qimage</property>
  <property name="kdenlive:clipname"/>
  <property name="kdenlive:duration">00:00:05.000</property>
  <property name="kdenlive:folderid">33</property>
  <property name="kdenlive:clip_type">2</property>
  <property name="kdenlive:id">60</property>
  <property name="kdenlive:file_size">82387</property>
  <property name="kdenlive:file_hash">71cb9aec460c0cba78a4c5bb3e22af4f</property>
 </producer>
 <producer id="producer53" in="00:00:00.000" out="00:00:19.600">
  <property name="length">589</property>
  <property name="eof">pause</property>
  <property name="resource"/>
  <property name="progressive">1</property>
  <property name="aspect_ratio">1</property>
  <property name="seekable">1</property>
  <property name="mlt_service">kdenlivetitle</property>
  <property name="kdenlive:duration">150</property>
  <property name="kdenlive:clipname">20 View Layers</property>
  <property name="xmldata">&lt;kdenlivetitle duration="150" LC_NUMERIC="C" width="1280" height="720" out="149">
 &lt;item type="QGraphicsTextItem" z-index="3">
  &lt;position x="350" y="327">
   &lt;transform>1,0,0,0,1,0,0,0,1&lt;/transform>
  &lt;/position>
  &lt;content line-spacing="0" shadow="0;#64000000;3;3;3" font-underline="0" box-height="59" font="IBM Plex Mono SemiBold" letter-spacing="0" font-pixel-size="44" font-italic="0" typewriter="0;2;1;0;0" alignment="4" font-weight="87" box-width="580.594" font-color="255,255,255,255">View > Layer List (GY)&lt;/content>
 &lt;/item>
 &lt;item type="QGraphicsRectItem" z-index="2">
  &lt;position x="331" y="313">
   &lt;transform zoom="100">1,0,0,0,1,0,0,0,1&lt;/transform>
  &lt;/position>
  &lt;content brushcolor="0,0,0,138" pencolor="0,0,0,255" penwidth="0" rect="0,0,617,93"/>
 &lt;/item>
 &lt;startviewport rect="0,0,1280,720"/>
 &lt;endviewport rect="0,0,1280,720"/>
 &lt;background color="0,0,0,0"/>
&lt;/kdenlivetitle>
</property>
  <property name="kdenlive:folderid">32</property>
  <property name="kdenlive:clip_type">2</property>
  <property name="kdenlive:id">61</property>
  <property name="force_reload">0</property>
  <property name="kdenlive:file_hash">905b37390ec27dceaddc05585f2bff50</property>
  <property name="meta.media.width">1280</property>
  <property name="meta.media.height">720</property>
 </producer>
 <producer id="producer54" in="00:00:00.000" out="00:00:07.000">
  <property name="length">211</property>
  <property name="eof">pause</property>
  <property name="resource"/>
  <property name="progressive">1</property>
  <property name="aspect_ratio">1</property>
  <property name="seekable">1</property>
  <property name="mlt_service">kdenlivetitle</property>
  <property name="kdenlive:duration">150</property>
  <property name="kdenlive:clipname">21 template URL</property>
  <property name="xmldata">&lt;kdenlivetitle duration="150" LC_NUMERIC="C" width="1280" height="720" out="149">
 &lt;item type="QGraphicsTextItem" z-index="3">
  &lt;position x="145" y="151">
   &lt;transform>1,0,0,0,1,0,0,0,1&lt;/transform>
  &lt;/position>
  &lt;content line-spacing="0" shadow="0;#64000000;3;3;3" font-underline="0" box-height="84" font="IBM Plex Sans SemiBold" letter-spacing="0" font-pixel-size="64" font-italic="0" typewriter="0;2;1;0;0" alignment="4" font-weight="87" box-width="989.109" font-color="255,255,255,255">github.com/growdigital/template&lt;/content>
 &lt;/item>
 &lt;item type="QGraphicsRectItem" z-index="2">
  &lt;position x="121" y="145">
   &lt;transform zoom="100">1,0,0,0,1,0,0,0,1&lt;/transform>
  &lt;/position>
  &lt;content brushcolor="0,0,0,138" pencolor="0,0,0,255" penwidth="0" rect="0,0,1037,107"/>
 &lt;/item>
 &lt;startviewport rect="0,0,1280,720"/>
 &lt;endviewport rect="0,0,1280,720"/>
 &lt;background color="0,0,0,0"/>
&lt;/kdenlivetitle>
</property>
  <property name="kdenlive:folderid">32</property>
  <property name="kdenlive:clip_type">2</property>
  <property name="kdenlive:id">62</property>
  <property name="kdenlive:file_hash">d1c0a627bc7c9a6c9518d5104d43a5f0</property>
  <property name="force_reload">0</property>
  <property name="meta.media.width">1280</property>
  <property name="meta.media.height">720</property>
  <property name="kdenlive:activeeffect">1</property>
 </producer>
 <producer id="producer55" in="00:00:00.000" out="00:00:05.267">
  <property name="length">159</property>
  <property name="eof">pause</property>
  <property name="resource">/media/jaker/Pterosaur/Videos/Class/CAD/images/04.00 mods slide.png</property>
  <property name="ttl">25</property>
  <property name="aspect_ratio">1</property>
  <property name="progressive">1</property>
  <property name="seekable">1</property>
  <property name="format">1</property>
  <property name="meta.media.width">1920</property>
  <property name="meta.media.height">1080</property>
  <property name="mlt_service">qimage</property>
  <property name="kdenlive:clipname"/>
  <property name="kdenlive:duration">00:00:05.000</property>
  <property name="kdenlive:folderid">33</property>
  <property name="kdenlive:clip_type">2</property>
  <property name="kdenlive:id">63</property>
  <property name="kdenlive:file_size">102367</property>
  <property name="kdenlive:file_hash">a0036a28acdd6f91d2e7950d407e6154</property>
 </producer>
 <producer id="producer56" in="00:00:00.000" out="00:00:06.333">
  <property name="length">00:00:06.367</property>
  <property name="eof">pause</property>
  <property name="resource">/media/jaker/Pterosaur/Videos/Class/CAD/images/04.01 mods cad.png</property>
  <property name="ttl">25</property>
  <property name="aspect_ratio">1</property>
  <property name="progressive">1</property>
  <property name="seekable">1</property>
  <property name="format">2</property>
  <property name="meta.media.width">1920</property>
  <property name="meta.media.height">1080</property>
  <property name="mlt_service">qimage</property>
  <property name="kdenlive:clipname">04.01 mods cad.png</property>
  <property name="kdenlive:duration">00:00:05.000</property>
  <property name="kdenlive:folderid">33</property>
  <property name="kdenlive:clip_type">2</property>
  <property name="kdenlive:id">64</property>
  <property name="kdenlive:file_size">699814</property>
  <property name="kdenlive:originalurl">/media/jaker/Pterosaur/Videos/Class/CAD/images/04.01 mods cad.png</property>
  <property name="kdenlive:proxy">-</property>
  <property name="kdenlive:file_hash">47f81984d246804dedfc4def509aa593</property>
 </producer>
 <producer id="producer57" in="00:00:00.000" out="00:00:04.967">
  <property name="length">00:00:05.000</property>
  <property name="eof">pause</property>
  <property name="resource">/media/jaker/Pterosaur/Videos/Class/CAD/images/04.02 curved-wall-gabion.jpeg</property>
  <property name="ttl">25</property>
  <property name="aspect_ratio">1</property>
  <property name="progressive">1</property>
  <property name="seekable">1</property>
  <property name="format">1</property>
  <property name="meta.media.width">387</property>
  <property name="meta.media.height">219</property>
  <property name="mlt_service">qimage</property>
  <property name="kdenlive:clipname"/>
  <property name="kdenlive:duration">00:00:05.000</property>
  <property name="kdenlive:folderid">33</property>
  <property name="kdenlive:clip_type">2</property>
  <property name="kdenlive:id">65</property>
  <property name="kdenlive:file_size">32161</property>
  <property name="kdenlive:file_hash">6f59747c3365f5d960c1b67f6b76ed3b</property>
 </producer>
 <producer id="producer33" in="00:00:00.000" out="00:00:04.967">
  <property name="length">00:00:05.000</property>
  <property name="eof">pause</property>
  <property name="resource">/media/jaker/Pterosaur/Videos/Class/CAD/images/04.03 mods icon.png</property>
  <property name="ttl">25</property>
  <property name="aspect_ratio">1</property>
  <property name="progressive">1</property>
  <property name="seekable">1</property>
  <property name="format">2</property>
  <property name="meta.media.width">127</property>
  <property name="meta.media.height">125</property>
  <property name="mlt_service">qimage</property>
  <property name="kdenlive:clipname"/>
  <property name="kdenlive:duration">00:00:05.000</property>
  <property name="kdenlive:folderid">33</property>
  <property name="kdenlive:clip_type">2</property>
  <property name="kdenlive:id">66</property>
  <property name="kdenlive:file_size">13161</property>
  <property name="kdenlive:file_hash">52aff5a3848fb1fa30c5dc27808c9477</property>
 </producer>
 <producer id="producer58" in="00:00:00.000" out="00:00:04.967">
  <property name="length">00:00:05.000</property>
  <property name="eof">pause</property>
  <property name="resource">/media/jaker/Pterosaur/Videos/Class/CAD/images/04.04 mods offset.png</property>
  <property name="ttl">25</property>
  <property name="aspect_ratio">1</property>
  <property name="progressive">1</property>
  <property name="seekable">1</property>
  <property name="format">2</property>
  <property name="meta.media.width">126</property>
  <property name="meta.media.height">126</property>
  <property name="mlt_service">qimage</property>
  <property name="kdenlive:clipname"/>
  <property name="kdenlive:duration">00:00:05.000</property>
  <property name="kdenlive:folderid">33</property>
  <property name="kdenlive:clip_type">2</property>
  <property name="kdenlive:id">67</property>
  <property name="kdenlive:file_size">8505</property>
  <property name="kdenlive:file_hash">b5ef08a587c48d3e4f734933b40c78f3</property>
 </producer>
 <producer id="producer59" in="00:00:00.000" out="00:00:05.800">
  <property name="length">175</property>
  <property name="eof">pause</property>
  <property name="resource">/media/jaker/Pterosaur/Videos/Class/CAD/images/04.05 mods mirror.png</property>
  <property name="ttl">25</property>
  <property name="aspect_ratio">1</property>
  <property name="progressive">1</property>
  <property name="seekable">1</property>
  <property name="format">2</property>
  <property name="meta.media.width">124</property>
  <property name="meta.media.height">123</property>
  <property name="mlt_service">qimage</property>
  <property name="kdenlive:clipname"/>
  <property name="kdenlive:duration">00:00:05.000</property>
  <property name="kdenlive:folderid">33</property>
  <property name="kdenlive:clip_type">2</property>
  <property name="kdenlive:id">68</property>
  <property name="kdenlive:file_size">12066</property>
  <property name="kdenlive:file_hash">78c941416bd7840afd83504aff125275</property>
  <property name="kdenlive:activeeffect">-1</property>
 </producer>
 <producer id="producer60" in="00:00:00.000" out="00:00:04.967">
  <property name="length">00:00:05.000</property>
  <property name="eof">pause</property>
  <property name="resource">/media/jaker/Pterosaur/Videos/Class/CAD/images/04.06 mods divide.png</property>
  <property name="ttl">25</property>
  <property name="aspect_ratio">1</property>
  <property name="progressive">1</property>
  <property name="seekable">1</property>
  <property name="format">2</property>
  <property name="meta.media.width">126</property>
  <property name="meta.media.height">126</property>
  <property name="mlt_service">qimage</property>
  <property name="kdenlive:clipname"/>
  <property name="kdenlive:duration">00:00:05.000</property>
  <property name="kdenlive:folderid">33</property>
  <property name="kdenlive:clip_type">2</property>
  <property name="kdenlive:id">69</property>
  <property name="kdenlive:file_size">12201</property>
  <property name="kdenlive:file_hash">a1dc0b7594a10e4b69831f52774b5d41</property>
 </producer>
 <producer id="producer62" in="00:00:00.000" out="00:00:07.000">
  <property name="length">211</property>
  <property name="eof">pause</property>
  <property name="resource"/>
  <property name="progressive">1</property>
  <property name="aspect_ratio">1</property>
  <property name="seekable">1</property>
  <property name="mlt_service">kdenlivetitle</property>
  <property name="kdenlive:duration">150</property>
  <property name="kdenlive:clipname">22 Forest Garden Blocks</property>
  <property name="xmldata">&lt;kdenlivetitle duration="150" LC_NUMERIC="C" width="1280" height="720" out="149">
 &lt;item type="QGraphicsTextItem" z-index="3">
  &lt;position x="52" y="153">
   &lt;transform>1,0,0,0,1,0,0,0,1&lt;/transform>
  &lt;/position>
  &lt;content line-spacing="0" shadow="0;#64000000;3;3;3" font-underline="0" box-height="75" font-outline-color="0,0,0,255" font="IBM Plex Sans SemiBold" letter-spacing="0" font-pixel-size="57" font-italic="0" typewriter="0;2;1;0;0" alignment="4" font-weight="50" font-outline="0" box-width="1176.05" font-color="255,255,255,255">github.com/growdigital/blocks-forestgarden&lt;/content>
 &lt;/item>
 &lt;item type="QGraphicsRectItem" z-index="2">
  &lt;position x="25" y="145">
   &lt;transform zoom="100">1,0,0,0,1,0,0,0,1&lt;/transform>
  &lt;/position>
  &lt;content brushcolor="0,0,0,138" pencolor="0,0,0,255" penwidth="0" rect="0,0,1229,107"/>
 &lt;/item>
 &lt;startviewport rect="0,0,1280,720"/>
 &lt;endviewport rect="0,0,1280,720"/>
 &lt;background color="0,0,0,0"/>
&lt;/kdenlivetitle>
</property>
  <property name="kdenlive:folderid">32</property>
  <property name="kdenlive:clip_type">2</property>
  <property name="kdenlive:id">70</property>
  <property name="kdenlive:file_hash">47f3e879522829a8a82be335dfd8419c</property>
  <property name="force_reload">0</property>
  <property name="kdenlive:activeeffect">-1</property>
  <property name="meta.media.width">1280</property>
  <property name="meta.media.height">720</property>
 </producer>
 <producer id="producer63" in="00:00:00.000" out="00:00:07.000">
  <property name="length">211</property>
  <property name="eof">pause</property>
  <property name="resource"/>
  <property name="progressive">1</property>
  <property name="aspect_ratio">1</property>
  <property name="seekable">1</property>
  <property name="mlt_service">kdenlivetitle</property>
  <property name="kdenlive:duration">150</property>
  <property name="kdenlive:clipname">23 Furniture Blocks</property>
  <property name="xmldata">&lt;kdenlivetitle duration="150" LC_NUMERIC="C" width="1280" height="720" out="149">
 &lt;item type="QGraphicsTextItem" z-index="3">
  &lt;position x="105" y="153">
   &lt;transform>1,0,0,0,1,0,0,0,1&lt;/transform>
  &lt;/position>
  &lt;content line-spacing="0" shadow="0;#64000000;3;3;3" font-underline="0" box-height="75" font="IBM Plex Sans SemiBold" letter-spacing="0" font-pixel-size="57" font-italic="0" typewriter="0;2;1;0;0" alignment="4" font-weight="50" box-width="1070.67" font-color="255,255,255,255">github.com/growdigital/blocks-furniture&lt;/content>
 &lt;/item>
 &lt;item type="QGraphicsRectItem" z-index="2">
  &lt;position x="85" y="145">
   &lt;transform zoom="100">1,0,0,0,1,0,0,0,1&lt;/transform>
  &lt;/position>
  &lt;content brushcolor="0,0,0,138" pencolor="0,0,0,255" penwidth="0" rect="0,0,1110,107"/>
 &lt;/item>
 &lt;startviewport rect="0,0,1280,720"/>
 &lt;endviewport rect="0,0,1280,720"/>
 &lt;background color="0,0,0,0"/>
&lt;/kdenlivetitle>
</property>
  <property name="kdenlive:folderid">32</property>
  <property name="kdenlive:clip_type">2</property>
  <property name="kdenlive:id">71</property>
  <property name="kdenlive:file_hash">08b3eb7b29faa0c94d9f79d4b2ffb72c</property>
  <property name="force_reload">0</property>
  <property name="kdenlive:activeeffect">1</property>
  <property name="meta.media.width">1280</property>
  <property name="meta.media.height">720</property>
 </producer>
 <producer id="producer64" in="00:00:00.000" out="00:00:12.000">
  <property name="length">361</property>
  <property name="eof">pause</property>
  <property name="resource"/>
  <property name="progressive">1</property>
  <property name="aspect_ratio">1</property>
  <property name="seekable">1</property>
  <property name="mlt_service">kdenlivetitle</property>
  <property name="kdenlive:duration">150</property>
  <property name="kdenlive:clipname">24 Forest Garden Spreadsheet</property>
  <property name="xmldata">&lt;kdenlivetitle duration="150" LC_NUMERIC="C" width="1280" height="720" out="149">
 &lt;item type="QGraphicsTextItem" z-index="3">
  &lt;position x="147" y="151">
   &lt;transform>1,0,0,0,1,0,0,0,1&lt;/transform>
  &lt;/position>
  &lt;content line-spacing="0" shadow="0;#64000000;3;3;3" font-underline="0" box-height="84" font="IBM Plex Sans SemiBold" letter-spacing="0" font-pixel-size="64" font-italic="0" typewriter="0;2;1;0;0" alignment="4" font-weight="87" box-width="980.281" font-color="255,255,255,255">bit.ly/forest-garden-spreadsheet&lt;/content>
 &lt;/item>
 &lt;item type="QGraphicsRectItem" z-index="2">
  &lt;position x="128" y="145">
   &lt;transform zoom="100">1,0,0,0,1,0,0,0,1&lt;/transform>
  &lt;/position>
  &lt;content brushcolor="0,0,0,138" pencolor="0,0,0,255" penwidth="0" rect="0,0,1024,107"/>
 &lt;/item>
 &lt;startviewport rect="0,0,1280,720"/>
 &lt;endviewport rect="0,0,1280,720"/>
 &lt;background color="0,0,0,0"/>
&lt;/kdenlivetitle>
</property>
  <property name="kdenlive:folderid">32</property>
  <property name="kdenlive:clip_type">2</property>
  <property name="kdenlive:id">72</property>
  <property name="kdenlive:file_hash">8dba35abea94e3bfd4364f0bb8609361</property>
  <property name="force_reload">0</property>
  <property name="meta.media.width">1280</property>
  <property name="meta.media.height">720</property>
 </producer>
 <producer id="producer65" in="00:00:00.000" out="00:00:04.967">
  <property name="length">00:00:05.000</property>
  <property name="eof">pause</property>
  <property name="resource">/media/jaker/Pterosaur/Videos/Class/CAD/images/04.10 place block.png</property>
  <property name="ttl">25</property>
  <property name="aspect_ratio">1</property>
  <property name="progressive">1</property>
  <property name="seekable">1</property>
  <property name="format">2</property>
  <property name="meta.media.width">104</property>
  <property name="meta.media.height">65</property>
  <property name="mlt_service">qimage</property>
  <property name="kdenlive:clipname"/>
  <property name="kdenlive:duration">00:00:05.000</property>
  <property name="kdenlive:folderid">33</property>
  <property name="kdenlive:clip_type">2</property>
  <property name="kdenlive:id">73</property>
  <property name="kdenlive:file_size">7894</property>
  <property name="kdenlive:file_hash">95e6e444a491fbbe25a4dba709e834e4</property>
 </producer>
 <producer id="producer70" in="00:00:00.000" out="00:00:08.567">
  <property name="length">258</property>
  <property name="eof">pause</property>
  <property name="resource"/>
  <property name="progressive">1</property>
  <property name="aspect_ratio">1</property>
  <property name="seekable">1</property>
  <property name="mlt_service">kdenlivetitle</property>
  <property name="kdenlive:duration">150</property>
  <property name="kdenlive:clipname">25 03 image scale factor</property>
  <property name="xmldata">&lt;kdenlivetitle duration="150" LC_NUMERIC="C" width="1280" height="720" out="149">
 &lt;item type="QGraphicsTextItem" z-index="3">
  &lt;position x="139" y="151">
   &lt;transform>1,0,0,0,1,0,0,0,1&lt;/transform>
  &lt;/position>
  &lt;content line-spacing="0" shadow="0;#64000000;3;3;3" font-underline="0" box-height="92" font="IBM Plex Sans SemiBold" letter-spacing="0" font-pixel-size="70" font-italic="0" typewriter="0;2;1;0;0" alignment="4" font-weight="87" box-width="1004.11" font-color="255,255,255,255">10m ÷ 114px = 0.087719 m/px&lt;/content>
 &lt;/item>
 &lt;item type="QGraphicsRectItem" z-index="2">
  &lt;position x="109" y="145">
   &lt;transform zoom="100">1,0,0,0,1,0,0,0,1&lt;/transform>
  &lt;/position>
  &lt;content brushcolor="0,0,0,138" pencolor="0,0,0,255" penwidth="0" rect="0,0,1062,107"/>
 &lt;/item>
 &lt;startviewport rect="0,0,1280,720"/>
 &lt;endviewport rect="0,0,1280,720"/>
 &lt;background color="0,0,0,0"/>
&lt;/kdenlivetitle>
</property>
  <property name="kdenlive:folderid">32</property>
  <property name="kdenlive:clip_type">2</property>
  <property name="kdenlive:id">74</property>
  <property name="kdenlive:file_hash">552a3aa994ed5ba41d956b4ae5913d29</property>
  <property name="force_reload">0</property>
  <property name="kdenlive:activeeffect">-1</property>
  <property name="meta.media.width">1280</property>
  <property name="meta.media.height">720</property>
 </producer>
 <producer id="producer66" in="00:00:00.000" out="00:01:41.333">
  <property name="length">3041</property>
  <property name="eof">pause</property>
  <property name="resource">/media/jaker/Pterosaur/Videos/Class/CAD/clips/04.1 template audio.mkv</property>
  <property name="audio_index">1</property>
  <property name="video_index">0</property>
  <property name="mute_on_pause">0</property>
  <property name="mlt_service">avformat-novalidate</property>
  <property name="meta.media.nb_streams">2</property>
  <property name="meta.media.0.stream.type">video</property>
  <property name="meta.media.0.stream.frame_rate">30</property>
  <property name="meta.media.0.stream.sample_aspect_ratio">0</property>
  <property name="meta.media.0.codec.width">1280</property>
  <property name="meta.media.0.codec.height">720</property>
  <property name="meta.media.0.codec.rotate">0</property>
  <property name="meta.media.0.codec.pix_fmt">yuv420p</property>
  <property name="meta.media.0.codec.sample_aspect_ratio">1</property>
  <property name="meta.media.0.codec.colorspace">709</property>
  <property name="meta.media.0.codec.color_trc">1</property>
  <property name="meta.media.0.codec.name">h264</property>
  <property name="meta.media.0.codec.long_name">H.264 / AVC / MPEG-4 AVC / MPEG-4 part 10</property>
  <property name="meta.media.0.codec.bit_rate">0</property>
  <property name="meta.attr.0.stream.DURATION.markup">00:01:41.366000000</property>
  <property name="meta.media.1.stream.type">audio</property>
  <property name="meta.media.1.codec.sample_fmt">fltp</property>
  <property name="meta.media.1.codec.sample_rate">48000</property>
  <property name="meta.media.1.codec.channels">2</property>
  <property name="meta.media.1.codec.name">aac</property>
  <property name="meta.media.1.codec.long_name">AAC (Advanced Audio Coding)</property>
  <property name="meta.media.1.codec.bit_rate">0</property>
  <property name="meta.attr.1.stream.title.markup">Track1</property>
  <property name="meta.attr.1.stream.DURATION.markup">00:01:41.248000000</property>
  <property name="meta.attr.ENCODER.markup">Lavf58.76.100</property>
  <property name="seekable">1</property>
  <property name="meta.media.sample_aspect_num">1</property>
  <property name="meta.media.sample_aspect_den">1</property>
  <property name="aspect_ratio">1</property>
  <property name="format">3</property>
  <property name="kdenlive:clipname"/>
  <property name="meta.media.frame_rate_num">30</property>
  <property name="meta.media.frame_rate_den">1</property>
  <property name="meta.media.colorspace">709</property>
  <property name="meta.media.color_trc">1</property>
  <property name="meta.media.has_b_frames">2</property>
  <property name="meta.media.width">1280</property>
  <property name="meta.media.height">720</property>
  <property name="meta.media.color_range">mpeg</property>
  <property name="meta.media.top_field_first">0</property>
  <property name="meta.media.progressive">1</property>
  <property name="kdenlive:clip_type">0</property>
  <property name="kdenlive:folderid">31</property>
  <property name="kdenlive:id">75</property>
  <property name="kdenlive:file_size">33789859</property>
  <property name="kdenlive:file_hash">d79bbbd77f25f90382cbc054b0582bd1</property>
  <property name="kdenlive:audio_max1">162</property>
 </producer>
 <producer id="producer67" in="00:00:00.000" out="00:01:41.167">
  <property name="length">3036</property>
  <property name="eof">pause</property>
  <property name="resource">/media/jaker/Pterosaur/Videos/Class/CAD/clips/04.1 template Desktop.mkv</property>
  <property name="audio_index">1</property>
  <property name="video_index">0</property>
  <property name="mute_on_pause">0</property>
  <property name="mlt_service">avformat-novalidate</property>
  <property name="meta.media.nb_streams">2</property>
  <property name="meta.media.0.stream.type">video</property>
  <property name="meta.media.0.stream.frame_rate">30</property>
  <property name="meta.media.0.stream.sample_aspect_ratio">0</property>
  <property name="meta.media.0.codec.width">1920</property>
  <property name="meta.media.0.codec.height">1080</property>
  <property name="meta.media.0.codec.rotate">0</property>
  <property name="meta.media.0.codec.pix_fmt">yuv420p</property>
  <property name="meta.media.0.codec.sample_aspect_ratio">1</property>
  <property name="meta.media.0.codec.colorspace">709</property>
  <property name="meta.media.0.codec.color_trc">1</property>
  <property name="meta.media.0.codec.name">h264</property>
  <property name="meta.media.0.codec.long_name">H.264 / AVC / MPEG-4 AVC / MPEG-4 part 10</property>
  <property name="meta.media.0.codec.bit_rate">0</property>
  <property name="meta.attr.0.stream.DURATION.markup">00:01:41.200000000</property>
  <property name="meta.media.1.stream.type">audio</property>
  <property name="meta.media.1.codec.sample_fmt">fltp</property>
  <property name="meta.media.1.codec.sample_rate">48000</property>
  <property name="meta.media.1.codec.channels">2</property>
  <property name="meta.media.1.codec.name">aac</property>
  <property name="meta.media.1.codec.long_name">AAC (Advanced Audio Coding)</property>
  <property name="meta.media.1.codec.bit_rate">0</property>
  <property name="meta.attr.1.stream.title.markup">Source Record</property>
  <property name="meta.attr.1.stream.DURATION.markup">00:01:41.184000000</property>
  <property name="meta.attr.ENCODER.markup">Lavf58.76.100</property>
  <property name="seekable">1</property>
  <property name="meta.media.sample_aspect_num">1</property>
  <property name="meta.media.sample_aspect_den">1</property>
  <property name="aspect_ratio">1</property>
  <property name="format">3</property>
  <property name="kdenlive:clipname"/>
  <property name="meta.media.frame_rate_num">30</property>
  <property name="meta.media.frame_rate_den">1</property>
  <property name="meta.media.colorspace">709</property>
  <property name="meta.media.color_trc">1</property>
  <property name="meta.media.has_b_frames">0</property>
  <property name="meta.media.width">1920</property>
  <property name="meta.media.height">1080</property>
  <property name="meta.media.color_range">mpeg</property>
  <property name="meta.media.top_field_first">0</property>
  <property name="meta.media.progressive">1</property>
  <property name="kdenlive:clip_type">0</property>
  <property name="kdenlive:folderid">31</property>
  <property name="kdenlive:id">76</property>
  <property name="kdenlive:file_size">31676764</property>
  <property name="kdenlive:file_hash">4db3264aa09729c22297f60f1469ebd5</property>
  <property name="kdenlive:audio_max1">1</property>
 </producer>
 <producer id="producer68" in="00:00:00.000" out="00:01:41.800">
  <property name="length">3055</property>
  <property name="eof">pause</property>
  <property name="resource">/media/jaker/Pterosaur/Videos/Class/CAD/clips/04.1 template facecam.mkv</property>
  <property name="audio_index">1</property>
  <property name="video_index">0</property>
  <property name="mute_on_pause">0</property>
  <property name="mlt_service">avformat-novalidate</property>
  <property name="meta.media.nb_streams">2</property>
  <property name="meta.media.0.stream.type">video</property>
  <property name="meta.media.0.stream.frame_rate">30</property>
  <property name="meta.media.0.stream.sample_aspect_ratio">0</property>
  <property name="meta.media.0.codec.width">800</property>
  <property name="meta.media.0.codec.height">600</property>
  <property name="meta.media.0.codec.rotate">0</property>
  <property name="meta.media.0.codec.pix_fmt">yuv420p</property>
  <property name="meta.media.0.codec.sample_aspect_ratio">1</property>
  <property name="meta.media.0.codec.colorspace">709</property>
  <property name="meta.media.0.codec.color_trc">1</property>
  <property name="meta.media.0.codec.name">h264</property>
  <property name="meta.media.0.codec.long_name">H.264 / AVC / MPEG-4 AVC / MPEG-4 part 10</property>
  <property name="meta.media.0.codec.bit_rate">0</property>
  <property name="meta.attr.0.stream.DURATION.markup">00:01:41.833000000</property>
  <property name="meta.media.1.stream.type">audio</property>
  <property name="meta.media.1.codec.sample_fmt">fltp</property>
  <property name="meta.media.1.codec.sample_rate">48000</property>
  <property name="meta.media.1.codec.channels">2</property>
  <property name="meta.media.1.codec.name">aac</property>
  <property name="meta.media.1.codec.long_name">AAC (Advanced Audio Coding)</property>
  <property name="meta.media.1.codec.bit_rate">0</property>
  <property name="meta.attr.1.stream.title.markup">Source Record</property>
  <property name="meta.attr.1.stream.DURATION.markup">00:01:41.824000000</property>
  <property name="meta.attr.ENCODER.markup">Lavf58.76.100</property>
  <property name="seekable">1</property>
  <property name="meta.media.sample_aspect_num">1</property>
  <property name="meta.media.sample_aspect_den">1</property>
  <property name="aspect_ratio">1</property>
  <property name="format">3</property>
  <property name="kdenlive:clipname"/>
  <property name="meta.media.frame_rate_num">30</property>
  <property name="meta.media.frame_rate_den">1</property>
  <property name="meta.media.colorspace">709</property>
  <property name="meta.media.color_trc">1</property>
  <property name="meta.media.has_b_frames">0</property>
  <property name="meta.media.width">800</property>
  <property name="meta.media.height">600</property>
  <property name="meta.media.color_range">mpeg</property>
  <property name="meta.media.top_field_first">0</property>
  <property name="meta.media.progressive">1</property>
  <property name="kdenlive:clip_type">0</property>
  <property name="kdenlive:folderid">31</property>
  <property name="kdenlive:id">77</property>
  <property name="kdenlive:file_size">31948372</property>
  <property name="kdenlive:file_hash">87d1fbd54fd4c201c93f2aa85ebd89a1</property>
  <property name="kdenlive:audio_max1">1</property>
 </producer>
 <producer id="producer69" in="00:00:00.000" out="00:00:11.633">
  <property name="length">350</property>
  <property name="eof">pause</property>
  <property name="resource"/>
  <property name="progressive">1</property>
  <property name="aspect_ratio">1</property>
  <property name="seekable">1</property>
  <property name="mlt_service">kdenlivetitle</property>
  <property name="kdenlive:duration">150</property>
  <property name="kdenlive:clipname">25 01 GitHub template</property>
  <property name="xmldata">&lt;kdenlivetitle duration="150" LC_NUMERIC="C" width="1280" height="720" out="149">
 &lt;item type="QGraphicsTextItem" z-index="3">
  &lt;position x="99" y="151">
   &lt;transform>1,0,0,0,1,0,0,0,1&lt;/transform>
  &lt;/position>
  &lt;content line-spacing="0" shadow="0;#64000000;3;3;3" font-underline="0" box-height="92" font="IBM Plex Sans SemiBold" letter-spacing="0" font-pixel-size="70" font-italic="0" typewriter="0;2;1;0;0" alignment="4" font-weight="87" box-width="1081.91" font-color="255,255,255,255">github.com/growdigital/template&lt;/content>
 &lt;/item>
 &lt;item type="QGraphicsRectItem" z-index="2">
  &lt;position x="65" y="145">
   &lt;transform zoom="100">1,0,0,0,1,0,0,0,1&lt;/transform>
  &lt;/position>
  &lt;content brushcolor="0,0,0,138" pencolor="0,0,0,255" penwidth="0" rect="0,0,1149,107"/>
 &lt;/item>
 &lt;startviewport rect="0,0,1280,720"/>
 &lt;endviewport rect="0,0,1280,720"/>
 &lt;background color="0,0,0,0"/>
&lt;/kdenlivetitle>
</property>
  <property name="kdenlive:folderid">32</property>
  <property name="kdenlive:clip_type">2</property>
  <property name="kdenlive:id">78</property>
  <property name="kdenlive:file_hash">49e8d682c72156aac7c18e4159767692</property>
  <property name="force_reload">0</property>
  <property name="meta.media.width">1280</property>
  <property name="meta.media.height">720</property>
 </producer>
 <producer id="producer71" in="00:00:00.000" out="00:00:19.600">
  <property name="length">589</property>
  <property name="eof">pause</property>
  <property name="resource"/>
  <property name="progressive">1</property>
  <property name="aspect_ratio">1</property>
  <property name="seekable">1</property>
  <property name="mlt_service">kdenlivetitle</property>
  <property name="kdenlive:duration">150</property>
  <property name="kdenlive:clipname">25 02 add template folder</property>
  <property name="xmldata">&lt;kdenlivetitle duration="150" LC_NUMERIC="C" width="1280" height="720" out="149">
 &lt;item type="QGraphicsTextItem" z-index="3">
  &lt;position x="21" y="327">
   &lt;transform>1,0,0,0,1,0,0,0,1&lt;/transform>
  &lt;/position>
  &lt;content line-spacing="0" shadow="0;#64000000;3;3;3" font-underline="0" box-height="56" font-outline-color="0,0,0,255" font="IBM Plex Mono SemiBold" letter-spacing="0" font-pixel-size="42" font-italic="0" typewriter="0;2;1;0;0" alignment="4" font-weight="87" font-outline="0" box-width="1259.38" font-color="255,255,255,255">Edit > Application Preferences > File > Templates &lt;/content>
 &lt;/item>
 &lt;item type="QGraphicsRectItem" z-index="2">
  &lt;position x="13" y="313">
   &lt;transform zoom="100">1,0,0,0,1,0,0,0,1&lt;/transform>
  &lt;/position>
  &lt;content brushcolor="0,0,0,138" pencolor="0,0,0,255" penwidth="0" rect="0,0,1254,93"/>
 &lt;/item>
 &lt;startviewport rect="0,0,1280,720"/>
 &lt;endviewport rect="0,0,1280,720"/>
 &lt;background color="0,0,0,0"/>
&lt;/kdenlivetitle>
</property>
  <property name="kdenlive:folderid">32</property>
  <property name="kdenlive:clip_type">2</property>
  <property name="kdenlive:id">79</property>
  <property name="force_reload">0</property>
  <property name="kdenlive:file_hash">905b37390ec27dceaddc05585f2bff50</property>
  <property name="meta.media.width">1280</property>
  <property name="meta.media.height">720</property>
 </producer>
 <producer id="producer72" in="00:00:00.000" out="00:00:19.600">
  <property name="length">589</property>
  <property name="eof">pause</property>
  <property name="resource"/>
  <property name="progressive">1</property>
  <property name="aspect_ratio">1</property>
  <property name="seekable">1</property>
  <property name="mlt_service">kdenlivetitle</property>
  <property name="kdenlive:duration">150</property>
  <property name="kdenlive:clipname">25 04 Modify Send to Back</property>
  <property name="xmldata">&lt;kdenlivetitle duration="150" LC_NUMERIC="C" width="1280" height="720" out="149">
 &lt;item type="QGraphicsTextItem" z-index="3">
  &lt;position x="125" y="327">
   &lt;transform>1,0,0,0,1,0,0,0,1&lt;/transform>
  &lt;/position>
  &lt;content line-spacing="0" shadow="0;#64000000;3;3;3" font-underline="0" box-height="59" font-outline-color="0,0,0,255" font="IBM Plex Mono SemiBold" letter-spacing="0" font-pixel-size="44" font-italic="0" typewriter="0;2;1;0;0" alignment="4" font-weight="87" font-outline="0" box-width="1029.23" font-color="255,255,255,255">Modify > Draw Order > Send to Back (MB)&lt;/content>
 &lt;/item>
 &lt;item type="QGraphicsRectItem" z-index="2">
  &lt;position x="101" y="313">
   &lt;transform zoom="100">1,0,0,0,1,0,0,0,1&lt;/transform>
  &lt;/position>
  &lt;content brushcolor="0,0,0,138" pencolor="0,0,0,255" penwidth="0" rect="0,0,1077,93"/>
 &lt;/item>
 &lt;startviewport rect="0,0,1280,720"/>
 &lt;endviewport rect="0,0,1280,720"/>
 &lt;background color="0,0,0,0"/>
&lt;/kdenlivetitle>
</property>
  <property name="kdenlive:folderid">32</property>
  <property name="kdenlive:clip_type">2</property>
  <property name="kdenlive:id">80</property>
  <property name="force_reload">0</property>
  <property name="kdenlive:file_hash">11795cb6fe155695cbac4118c149a4e0</property>
  <property name="meta.media.width">1280</property>
  <property name="meta.media.height">720</property>
 </producer>
 <producer id="producer73" in="00:00:00.000" out="00:00:12.367">
  <property name="length">372</property>
  <property name="eof">pause</property>
  <property name="resource"/>
  <property name="progressive">1</property>
  <property name="aspect_ratio">1</property>
  <property name="seekable">1</property>
  <property name="mlt_service">kdenlivetitle</property>
  <property name="kdenlive:duration">150</property>
  <property name="kdenlive:clipname">25 05 town scale factor</property>
  <property name="xmldata">&lt;kdenlivetitle duration="150" LC_NUMERIC="C" width="1280" height="720" out="149">
 &lt;item type="QGraphicsTextItem" z-index="3">
  &lt;position x="139" y="151">
   &lt;transform>1,0,0,0,1,0,0,0,1&lt;/transform>
  &lt;/position>
  &lt;content line-spacing="0" shadow="0;#64000000;3;3;3" font-underline="0" box-height="92" font="IBM Plex Sans SemiBold" letter-spacing="0" font-pixel-size="70" font-italic="0" typewriter="0;2;1;0;0" alignment="4" font-weight="87" box-width="1004.11" font-color="255,255,255,255">5m ÷ 110px = 0.0454546 m/px&lt;/content>
 &lt;/item>
 &lt;item type="QGraphicsRectItem" z-index="2">
  &lt;position x="109" y="145">
   &lt;transform zoom="100">1,0,0,0,1,0,0,0,1&lt;/transform>
  &lt;/position>
  &lt;content brushcolor="0,0,0,138" pencolor="0,0,0,255" penwidth="0" rect="0,0,1062,107"/>
 &lt;/item>
 &lt;startviewport rect="0,0,1280,720"/>
 &lt;endviewport rect="0,0,1280,720"/>
 &lt;background color="0,0,0,0"/>
&lt;/kdenlivetitle>
</property>
  <property name="kdenlive:folderid">32</property>
  <property name="kdenlive:clip_type">2</property>
  <property name="kdenlive:id">81</property>
  <property name="kdenlive:file_hash">1e1a13953773299be821cdebe6d34812</property>
  <property name="force_reload">0</property>
  <property name="kdenlive:activeeffect">-1</property>
  <property name="meta.media.width">1280</property>
  <property name="meta.media.height">720</property>
 </producer>
 <producer id="producer74" in="00:00:00.000" out="00:00:12.167">
  <property name="length">366</property>
  <property name="eof">pause</property>
  <property name="progressive">1</property>
  <property name="aspect_ratio">1</property>
  <property name="seekable">1</property>
  <property name="mlt_service">kdenlivetitle</property>
  <property name="kdenlive:duration">150</property>
  <property name="kdenlive:clipname">25 06 Telegram group</property>
  <property name="xmldata">&lt;kdenlivetitle duration="150" LC_NUMERIC="C" width="1280" height="720" out="149">
 &lt;item type="QGraphicsTextItem" z-index="3">
  &lt;position x="146" y="151">
   &lt;transform>1,0,0,0,1,0,0,0,1&lt;/transform>
  &lt;/position>
  &lt;content line-spacing="0" shadow="0;#64000000;3;3;3" font-underline="0" box-height="84" font="IBM Plex Sans SemiBold" letter-spacing="0" font-pixel-size="64" font-italic="0" typewriter="0;2;1;0;0" alignment="4" font-weight="87" box-width="983.641" font-color="255,255,255,255">Telegram group: t.me/WildEdible&lt;/content>
 &lt;/item>
 &lt;item type="QGraphicsRectItem" z-index="2">
  &lt;position x="121" y="145">
   &lt;transform zoom="100">1,0,0,0,1,0,0,0,1&lt;/transform>
  &lt;/position>
  &lt;content brushcolor="0,0,0,138" pencolor="0,0,0,255" penwidth="0" rect="0,0,1037,107"/>
 &lt;/item>
 &lt;startviewport rect="0,0,1280,720"/>
 &lt;endviewport rect="0,0,1280,720"/>
 &lt;background color="0,0,0,0"/>
&lt;/kdenlivetitle>
</property>
  <property name="kdenlive:folderid">32</property>
  <property name="kdenlive:clip_type">2</property>
  <property name="kdenlive:id">82</property>
  <property name="force_reload">0</property>
  <property name="kdenlive:activeeffect">1</property>
  <property name="meta.media.width">1280</property>
  <property name="meta.media.height">720</property>
  <property name="kdenlive:file_hash">2be503992c9dbc169442b1888f9ed613</property>
 </producer>
 <producer id="producer75" in="00:00:00.000" out="00:00:12.167">
  <property name="length">366</property>
  <property name="eof">pause</property>
  <property name="resource"/>
  <property name="progressive">1</property>
  <property name="aspect_ratio">1</property>
  <property name="seekable">1</property>
  <property name="mlt_service">kdenlivetitle</property>
  <property name="kdenlive:duration">150</property>
  <property name="kdenlive:clipname">25 07 QCAD forum</property>
  <property name="xmldata">&lt;kdenlivetitle duration="150" LC_NUMERIC="C" width="1280" height="720" out="149">
 &lt;item type="QGraphicsTextItem" z-index="3">
  &lt;position x="376" y="151">
   &lt;transform>1,0,0,0,1,0,0,0,1&lt;/transform>
  &lt;/position>
  &lt;content line-spacing="0" shadow="0;#64000000;3;3;3" font-underline="0" box-height="84" font="IBM Plex Sans SemiBold" letter-spacing="0" font-pixel-size="64" font-italic="0" typewriter="0;2;1;0;0" alignment="4" font-weight="87" box-width="521.938" font-color="255,255,255,255">qcad.org/rsforum&lt;/content>
 &lt;/item>
 &lt;item type="QGraphicsRectItem" z-index="2">
  &lt;position x="357" y="145">
   &lt;transform zoom="100">1,0,0,0,1,0,0,0,1&lt;/transform>
  &lt;/position>
  &lt;content brushcolor="0,0,0,138" pencolor="0,0,0,255" penwidth="0" rect="0,0,565,107"/>
 &lt;/item>
 &lt;startviewport rect="0,0,1280,720"/>
 &lt;endviewport rect="0,0,1280,720"/>
 &lt;background color="0,0,0,0"/>
&lt;/kdenlivetitle>
</property>
  <property name="kdenlive:folderid">32</property>
  <property name="kdenlive:clip_type">2</property>
  <property name="kdenlive:id">83</property>
  <property name="force_reload">0</property>
  <property name="kdenlive:activeeffect">1</property>
  <property name="kdenlive:file_hash">2be503992c9dbc169442b1888f9ed613</property>
  <property name="meta.media.width">1280</property>
  <property name="meta.media.height">720</property>
 </producer>
 <producer id="producer76" in="00:00:00.000" out="00:00:12.000">
  <property name="length">361</property>
  <property name="eof">pause</property>
  <property name="resource"/>
  <property name="progressive">1</property>
  <property name="aspect_ratio">1</property>
  <property name="seekable">1</property>
  <property name="mlt_service">kdenlivetitle</property>
  <property name="kdenlive:duration">150</property>
  <property name="kdenlive:clipname">25 08 Native spreadsheet</property>
  <property name="xmldata">&lt;kdenlivetitle duration="150" LC_NUMERIC="C" width="1280" height="720" out="149">
 &lt;item type="QGraphicsTextItem" z-index="3">
  &lt;position x="174" y="151">
   &lt;transform>1,0,0,0,1,0,0,0,1&lt;/transform>
  &lt;/position>
  &lt;content line-spacing="0" shadow="0;#64000000;3;3;3" font-underline="0" box-height="84" font="IBM Plex Sans SemiBold" letter-spacing="0" font-pixel-size="64" font-italic="0" typewriter="0;2;1;0;0" alignment="4" font-weight="87" box-width="932.453" font-color="255,255,255,255">bit.ly/garden-wild-spreadsheet&lt;/content>
 &lt;/item>
 &lt;item type="QGraphicsRectItem" z-index="2">
  &lt;position x="150" y="145">
   &lt;transform zoom="100">1,0,0,0,1,0,0,0,1&lt;/transform>
  &lt;/position>
  &lt;content brushcolor="0,0,0,138" pencolor="0,0,0,255" penwidth="0" rect="0,0,980,107"/>
 &lt;/item>
 &lt;startviewport rect="0,0,1280,720"/>
 &lt;endviewport rect="0,0,1280,720"/>
 &lt;background color="0,0,0,0"/>
&lt;/kdenlivetitle>
</property>
  <property name="kdenlive:folderid">32</property>
  <property name="kdenlive:clip_type">2</property>
  <property name="kdenlive:id">84</property>
  <property name="kdenlive:file_hash">1e6521ac93e72ea6bcbd7c54726d5735</property>
  <property name="force_reload">0</property>
  <property name="meta.media.width">1280</property>
  <property name="meta.media.height">720</property>
 </producer>
 <producer id="producer77" in="00:00:00.000" out="00:00:13.267">
  <property name="length">399</property>
  <property name="eof">pause</property>
  <property name="resource">/media/jaker/Pterosaur/Videos/Class/CAD/images/05 end.png</property>
  <property name="ttl">25</property>
  <property name="aspect_ratio">1</property>
  <property name="progressive">1</property>
  <property name="seekable">1</property>
  <property name="format">1</property>
  <property name="meta.media.width">1920</property>
  <property name="meta.media.height">1080</property>
  <property name="mlt_service">qimage</property>
  <property name="kdenlive:clipname"/>
  <property name="kdenlive:duration">00:00:05.000</property>
  <property name="kdenlive:folderid">33</property>
  <property name="kdenlive:clip_type">2</property>
  <property name="kdenlive:id">85</property>
  <property name="kdenlive:file_size">523447</property>
  <property name="kdenlive:file_hash">9fd530be1dc2277a5b6acc74d3c1180f</property>
 </producer>
 <playlist id="main_bin">
  <property name="kdenlive:folder.-1.28">01 CAD</property>
  <property name="kdenlive:folder.-1.29">02 Setup</property>
  <property name="kdenlive:folder.-1.30">03 Shapes</property>
  <property name="kdenlive:folder.-1.31">04 Examples</property>
  <property name="kdenlive:folder.-1.32">Titles</property>
  <property name="kdenlive:folder.-1.33">Images</property>
  <property name="kdenlive:docproperties.activeTrack">4</property>
  <property name="kdenlive:docproperties.audioChannels">2</property>
  <property name="kdenlive:docproperties.audioTarget">-1</property>
  <property name="kdenlive:docproperties.compositing">1</property>
  <property name="kdenlive:docproperties.disablepreview">0</property>
  <property name="kdenlive:docproperties.documentid">1673512599751</property>
  <property name="kdenlive:docproperties.enableTimelineZone">0</property>
  <property name="kdenlive:docproperties.enableexternalproxy">0</property>
  <property name="kdenlive:docproperties.enableproxy">0</property>
  <property name="kdenlive:docproperties.externalproxyparams">./;GL;.LRV;./;GX;.MP4;./;GP;.LRV;./;GP;.MP4</property>
  <property name="kdenlive:docproperties.generateimageproxy">0</property>
  <property name="kdenlive:docproperties.generateproxy">0</property>
  <property name="kdenlive:docproperties.groups">[
    {
        "children": [
            {
                "data": "-2:26995",
                "leaf": "subtitle",
                "type": "Leaf"
            },
            {
                "data": "-2:26954",
                "leaf": "subtitle",
                "type": "Leaf"
            },
            {
                "data": "-2:26870",
                "leaf": "subtitle",
                "type": "Leaf"
            },
            {
                "data": "-2:26804",
                "leaf": "subtitle",
                "type": "Leaf"
            },
            {
                "data": "-2:26767",
                "leaf": "subtitle",
                "type": "Leaf"
            },
            {
                "data": "-2:26693",
                "leaf": "subtitle",
                "type": "Leaf"
            },
            {
                "data": "-2:26607",
                "leaf": "subtitle",
                "type": "Leaf"
            },
            {
                "data": "-2:26552",
                "leaf": "subtitle",
                "type": "Leaf"
            },
            {
                "data": "-2:26511",
                "leaf": "subtitle",
                "type": "Leaf"
            },
            {
                "data": "-2:26432",
                "leaf": "subtitle",
                "type": "Leaf"
            },
            {
                "data": "-2:26377",
                "leaf": "subtitle",
                "type": "Leaf"
            },
            {
                "data": "-2:26340",
                "leaf": "subtitle",
                "type": "Leaf"
            },
            {
                "data": "-2:26300",
                "leaf": "subtitle",
                "type": "Leaf"
            },
            {
                "data": "-2:26250",
                "leaf": "subtitle",
                "type": "Leaf"
            },
            {
                "data": "-2:26149",
                "leaf": "subtitle",
                "type": "Leaf"
            },
            {
                "data": "-2:26113",
                "leaf": "subtitle",
                "type": "Leaf"
            },
            {
                "data": "-2:26033",
                "leaf": "subtitle",
                "type": "Leaf"
            },
            {
                "data": "-2:25989",
                "leaf": "subtitle",
                "type": "Leaf"
            },
            {
                "data": "-2:25933",
                "leaf": "subtitle",
                "type": "Leaf"
            },
            {
                "data": "-2:25854",
                "leaf": "subtitle",
                "type": "Leaf"
            },
            {
                "data": "-2:25798",
                "leaf": "subtitle",
                "type": "Leaf"
            },
            {
                "data": "-2:25735",
                "leaf": "subtitle",
                "type": "Leaf"
            },
            {
                "data": "-2:25670",
                "leaf": "subtitle",
                "type": "Leaf"
            },
            {
                "data": "-2:25569",
                "leaf": "subtitle",
                "type": "Leaf"
            },
            {
                "data": "-2:25512",
                "leaf": "subtitle",
                "type": "Leaf"
            },
            {
                "data": "-2:25452",
                "leaf": "subtitle",
                "type": "Leaf"
            },
            {
                "data": "-2:25408",
                "leaf": "subtitle",
                "type": "Leaf"
            },
            {
                "data": "-2:25331",
                "leaf": "subtitle",
                "type": "Leaf"
            },
            {
                "data": "-2:25235",
                "leaf": "subtitle",
                "type": "Leaf"
            },
            {
                "data": "-2:25131",
                "leaf": "subtitle",
                "type": "Leaf"
            },
            {
                "data": "-2:25086",
                "leaf": "subtitle",
                "type": "Leaf"
            },
            {
                "data": "-2:25047",
                "leaf": "subtitle",
                "type": "Leaf"
            },
            {
                "data": "-2:24886",
                "leaf": "subtitle",
                "type": "Leaf"
            },
            {
                "data": "-2:24828",
                "leaf": "subtitle",
                "type": "Leaf"
            },
            {
                "data": "-2:24682",
                "leaf": "subtitle",
                "type": "Leaf"
            },
            {
                "data": "-2:24556",
                "leaf": "subtitle",
                "type": "Leaf"
            },
            {
                "data": "-2:24469",
                "leaf": "subtitle",
                "type": "Leaf"
            },
            {
                "data": "-2:24387",
                "leaf": "subtitle",
                "type": "Leaf"
            },
            {
                "data": "-2:24322",
                "leaf": "subtitle",
                "type": "Leaf"
            },
            {
                "data": "-2:24200",
                "leaf": "subtitle",
                "type": "Leaf"
            },
            {
                "data": "-2:24109",
                "leaf": "subtitle",
                "type": "Leaf"
            },
            {
                "data": "-2:23965",
                "leaf": "subtitle",
                "type": "Leaf"
            },
            {
                "data": "-2:23921",
                "leaf": "subtitle",
                "type": "Leaf"
            },
            {
                "data": "-2:23863",
                "leaf": "subtitle",
                "type": "Leaf"
            },
            {
                "data": "-2:23798",
                "leaf": "subtitle",
                "type": "Leaf"
            },
            {
                "data": "-2:23721",
                "leaf": "subtitle",
                "type": "Leaf"
            },
            {
                "data": "-2:23675",
                "leaf": "subtitle",
                "type": "Leaf"
            },
            {
                "data": "-2:23609",
                "leaf": "subtitle",
                "type": "Leaf"
            },
            {
                "data": "-2:23513",
                "leaf": "subtitle",
                "type": "Leaf"
            },
            {
                "data": "-2:23401",
                "leaf": "subtitle",
                "type": "Leaf"
            },
            {
                "data": "-2:23350",
                "leaf": "subtitle",
                "type": "Leaf"
            },
            {
                "data": "-2:23224",
                "leaf": "subtitle",
                "type": "Leaf"
            },
            {
                "data": "-2:23187",
                "leaf": "subtitle",
                "type": "Leaf"
            },
            {
                "data": "-2:23161",
                "leaf": "subtitle",
                "type": "Leaf"
            },
            {
                "data": "-2:23095",
                "leaf": "subtitle",
                "type": "Leaf"
            },
            {
                "data": "-2:23039",
                "leaf": "subtitle",
                "type": "Leaf"
            },
            {
                "data": "-2:22948",
                "leaf": "subtitle",
                "type": "Leaf"
            },
            {
                "data": "-2:22868",
                "leaf": "subtitle",
                "type": "Leaf"
            },
            {
                "data": "-2:22811",
                "leaf": "subtitle",
                "type": "Leaf"
            },
            {
                "data": "-2:22734",
                "leaf": "subtitle",
                "type": "Leaf"
            },
            {
                "data": "-2:22630",
                "leaf": "subtitle",
                "type": "Leaf"
            },
            {
                "data": "-2:22486",
                "leaf": "subtitle",
                "type": "Leaf"
            },
            {
                "data": "-2:22362",
                "leaf": "subtitle",
                "type": "Leaf"
            },
            {
                "data": "-2:22212",
                "leaf": "subtitle",
                "type": "Leaf"
            },
            {
                "data": "-2:22101",
                "leaf": "subtitle",
                "type": "Leaf"
            },
            {
                "data": "-2:21986",
                "leaf": "subtitle",
                "type": "Leaf"
            },
            {
                "data": "-2:21875",
                "leaf": "subtitle",
                "type": "Leaf"
            },
            {
                "data": "-2:21752",
                "leaf": "subtitle",
                "type": "Leaf"
            },
            {
                "data": "-2:21616",
                "leaf": "subtitle",
                "type": "Leaf"
            },
            {
                "data": "-2:21527",
                "leaf": "subtitle",
                "type": "Leaf"
            },
            {
                "data": "-2:21442",
                "leaf": "subtitle",
                "type": "Leaf"
            },
            {
                "data": "-2:21371",
                "leaf": "subtitle",
                "type": "Leaf"
            },
            {
                "data": "-2:21340",
                "leaf": "subtitle",
                "type": "Leaf"
            },
            {
                "data": "-2:21282",
                "leaf": "subtitle",
                "type": "Leaf"
            },
            {
                "data": "-2:21217",
                "leaf": "subtitle",
                "type": "Leaf"
            },
            {
                "data": "-2:21184",
                "leaf": "subtitle",
                "type": "Leaf"
            },
            {
                "data": "-2:21119",
                "leaf": "subtitle",
                "type": "Leaf"
            },
            {
                "data": "-2:21019",
                "leaf": "subtitle",
                "type": "Leaf"
            },
            {
                "data": "-2:20942",
                "leaf": "subtitle",
                "type": "Leaf"
            },
            {
                "data": "-2:20870",
                "leaf": "subtitle",
                "type": "Leaf"
            },
            {
                "data": "-2:20782",
                "leaf": "subtitle",
                "type": "Leaf"
            },
            {
                "data": "-2:20667",
                "leaf": "subtitle",
                "type": "Leaf"
            },
            {
                "data": "-2:20518",
                "leaf": "subtitle",
                "type": "Leaf"
            },
            {
                "data": "-2:38487",
                "leaf": "subtitle",
                "type": "Leaf"
            },
            {
                "data": "-2:39409",
                "leaf": "subtitle",
                "type": "Leaf"
            },
            {
                "data": "-2:41373",
                "leaf": "subtitle",
                "type": "Leaf"
            },
            {
                "data": "-2:1133",
                "leaf": "subtitle",
                "type": "Leaf"
            },
            {
                "data": "-2:39281",
                "leaf": "subtitle",
                "type": "Leaf"
            },
            {
                "data": "-2:41291",
                "leaf": "subtitle",
                "type": "Leaf"
            },
            {
                "data": "-2:1063",
                "leaf": "subtitle",
                "type": "Leaf"
            },
            {
                "data": "-2:39222",
                "leaf": "subtitle",
                "type": "Leaf"
            },
            {
                "data": "-2:39112",
                "leaf": "subtitle",
                "type": "Leaf"
            },
            {
                "data": "-2:38780",
                "leaf": "subtitle",
                "type": "Leaf"
            },
            {
                "data": "-2:38696",
                "leaf": "subtitle",
                "type": "Leaf"
            },
            {
                "data": "-2:38572",
                "leaf": "subtitle",
                "type": "Leaf"
            },
            {
                "data": "-2:38526",
                "leaf": "subtitle",
                "type": "Leaf"
            },
            {
                "data": "-2:37441",
                "leaf": "subtitle",
                "type": "Leaf"
            },
            {
                "data": "-2:37386",
                "leaf": "subtitle",
                "type": "Leaf"
            },
            {
                "data": "-2:37327",
                "leaf": "subtitle",
                "type": "Leaf"
            },
            {
                "data": "-2:37263",
                "leaf": "subtitle",
                "type": "Leaf"
            },
            {
                "data": "-2:37221",
                "leaf": "subtitle",
                "type": "Leaf"
            },
            {
                "data": "-2:5968",
                "leaf": "subtitle",
                "type": "Leaf"
            },
            {
                "data": "4:0",
                "leaf": "clip",
                "type": "Leaf"
            },
            {
                "data": "-2:37192",
                "leaf": "subtitle",
                "type": "Leaf"
            },
            {
                "data": "-2:37151",
                "leaf": "subtitle",
                "type": "Leaf"
            },
            {
                "data": "-2:37120",
                "leaf": "subtitle",
                "type": "Leaf"
            },
            {
                "data": "-2:37022",
                "leaf": "subtitle",
                "type": "Leaf"
            },
            {
                "data": "-2:36935",
                "leaf": "subtitle",
                "type": "Leaf"
            },
            {
                "data": "-2:36866",
                "leaf": "subtitle",
                "type": "Leaf"
            },
            {
                "data": "-2:36758",
                "leaf": "subtitle",
                "type": "Leaf"
            },
            {
                "data": "-2:36706",
                "leaf": "subtitle",
                "type": "Leaf"
            },
            {
                "data": "-2:36616",
                "leaf": "subtitle",
                "type": "Leaf"
            },
            {
                "data": "-2:36526",
                "leaf": "subtitle",
                "type": "Leaf"
            },
            {
                "data": "-2:36478",
                "leaf": "subtitle",
                "type": "Leaf"
            },
            {
                "data": "-2:36435",
                "leaf": "subtitle",
                "type": "Leaf"
            },
            {
                "data": "-2:36346",
                "leaf": "subtitle",
                "type": "Leaf"
            },
            {
                "data": "-2:36269",
                "leaf": "subtitle",
                "type": "Leaf"
            },
            {
                "data": "-2:36172",
                "leaf": "subtitle",
                "type": "Leaf"
            },
            {
                "data": "-2:36101",
                "leaf": "subtitle",
                "type": "Leaf"
            },
            {
                "data": "-2:36031",
                "leaf": "subtitle",
                "type": "Leaf"
            },
            {
                "data": "-2:35943",
                "leaf": "subtitle",
                "type": "Leaf"
            },
            {
                "data": "-2:35873",
                "leaf": "subtitle",
                "type": "Leaf"
            },
            {
                "data": "-2:35795",
                "leaf": "subtitle",
                "type": "Leaf"
            },
            {
                "data": "-2:35752",
                "leaf": "subtitle",
                "type": "Leaf"
            },
            {
                "data": "-2:35534",
                "leaf": "subtitle",
                "type": "Leaf"
            },
            {
                "data": "-2:35430",
                "leaf": "subtitle",
                "type": "Leaf"
            },
            {
                "data": "-2:35381",
                "leaf": "subtitle",
                "type": "Leaf"
            },
            {
                "data": "-2:35305",
                "leaf": "subtitle",
                "type": "Leaf"
            },
            {
                "data": "-2:39474",
                "leaf": "subtitle",
                "type": "Leaf"
            },
            {
                "data": "-2:1283",
                "leaf": "subtitle",
                "type": "Leaf"
            },
            {
                "data": "-2:41535",
                "leaf": "subtitle",
                "type": "Leaf"
            },
            {
                "data": "-2:3061",
                "leaf": "subtitle",
                "type": "Leaf"
            },
            {
                "data": "-2:43418",
                "leaf": "subtitle",
                "type": "Leaf"
            },
            {
                "data": "-2:39524",
                "leaf": "subtitle",
                "type": "Leaf"
            },
            {
                "data": "-2:1333",
                "leaf": "subtitle",
                "type": "Leaf"
            },
            {
                "data": "-2:41648",
                "leaf": "subtitle",
                "type": "Leaf"
            },
            {
                "data": "-2:3095",
                "leaf": "subtitle",
                "type": "Leaf"
            },
            {
                "data": "-2:43513",
                "leaf": "subtitle",
                "type": "Leaf"
            },
            {
                "data": "-2:39639",
                "leaf": "subtitle",
                "type": "Leaf"
            },
            {
                "data": "-2:1429",
                "leaf": "subtitle",
                "type": "Leaf"
            },
            {
                "data": "-2:41727",
                "leaf": "subtitle",
                "type": "Leaf"
            },
            {
                "data": "-2:3173",
                "leaf": "subtitle",
                "type": "Leaf"
            },
            {
                "data": "-2:43577",
                "leaf": "subtitle",
                "type": "Leaf"
            },
            {
                "data": "-2:43622",
                "leaf": "subtitle",
                "type": "Leaf"
            },
            {
                "data": "-2:3272",
                "leaf": "subtitle",
                "type": "Leaf"
            },
            {
                "data": "-2:41755",
                "leaf": "subtitle",
                "type": "Leaf"
            },
            {
                "data": "-2:1506",
                "leaf": "subtitle",
                "type": "Leaf"
            },
            {
                "data": "-2:43709",
                "leaf": "subtitle",
                "type": "Leaf"
            },
            {
                "data": "-2:3307",
                "leaf": "subtitle",
                "type": "Leaf"
            },
            {
                "data": "-2:41844",
                "leaf": "subtitle",
                "type": "Leaf"
            },
            {
                "data": "-2:1579",
                "leaf": "subtitle",
                "type": "Leaf"
            },
            {
                "data": "-2:28983",
                "leaf": "subtitle",
                "type": "Leaf"
            },
            {
                "data": "-2:29088",
                "leaf": "subtitle",
                "type": "Leaf"
            },
            {
                "data": "-2:29133",
                "leaf": "subtitle",
                "type": "Leaf"
            },
            {
                "data": "-2:29218",
                "leaf": "subtitle",
                "type": "Leaf"
            },
            {
                "data": "-2:10201",
                "leaf": "subtitle",
                "type": "Leaf"
            },
            {
                "data": "-2:29258",
                "leaf": "subtitle",
                "type": "Leaf"
            },
            {
                "data": "-2:10295",
                "leaf": "subtitle",
                "type": "Leaf"
            },
            {
                "data": "-2:29337",
                "leaf": "subtitle",
                "type": "Leaf"
            },
            {
                "data": "-2:10343",
                "leaf": "subtitle",
                "type": "Leaf"
            },
            {
                "data": "-2:29402",
                "leaf": "subtitle",
                "type": "Leaf"
            },
            {
                "data": "-2:10390",
                "leaf": "subtitle",
                "type": "Leaf"
            },
            {
                "data": "-2:29469",
                "leaf": "subtitle",
                "type": "Leaf"
            },
            {
                "data": "-2:10529",
                "leaf": "subtitle",
                "type": "Leaf"
            },
            {
                "data": "-2:29530",
                "leaf": "subtitle",
                "type": "Leaf"
            },
            {
                "data": "-2:10612",
                "leaf": "subtitle",
                "type": "Leaf"
            },
            {
                "data": "-2:29581",
                "leaf": "subtitle",
                "type": "Leaf"
            },
            {
                "data": "-2:10712",
                "leaf": "subtitle",
                "type": "Leaf"
            },
            {
                "data": "-2:29715",
                "leaf": "subtitle",
                "type": "Leaf"
            },
            {
                "data": "-2:10760",
                "leaf": "subtitle",
                "type": "Leaf"
            },
            {
                "data": "-2:29790",
                "leaf": "subtitle",
                "type": "Leaf"
            },
            {
                "data": "-2:1680",
                "leaf": "subtitle",
                "type": "Leaf"
            },
            {
                "data": "-2:41953",
                "leaf": "subtitle",
                "type": "Leaf"
            },
            {
                "data": "-2:10804",
                "leaf": "subtitle",
                "type": "Leaf"
            },
            {
                "data": "-2:29819",
                "leaf": "subtitle",
                "type": "Leaf"
            },
            {
                "data": "-2:1770",
                "leaf": "subtitle",
                "type": "Leaf"
            },
            {
                "data": "-2:42041",
                "leaf": "subtitle",
                "type": "Leaf"
            },
            {
                "data": "-2:10912",
                "leaf": "subtitle",
                "type": "Leaf"
            },
            {
                "data": "-2:29880",
                "leaf": "subtitle",
                "type": "Leaf"
            },
            {
                "data": "-2:1849",
                "leaf": "subtitle",
                "type": "Leaf"
            },
            {
                "data": "-2:42087",
                "leaf": "subtitle",
                "type": "Leaf"
            },
            {
                "data": "-2:10990",
                "leaf": "subtitle",
                "type": "Leaf"
            },
            {
                "data": "-2:29943",
                "leaf": "subtitle",
                "type": "Leaf"
            },
            {
                "data": "-2:1888",
                "leaf": "subtitle",
                "type": "Leaf"
            },
            {
                "data": "-2:42144",
                "leaf": "subtitle",
                "type": "Leaf"
            },
            {
                "data": "-2:11080",
                "leaf": "subtitle",
                "type": "Leaf"
            },
            {
                "data": "-2:29989",
                "leaf": "subtitle",
                "type": "Leaf"
            },
            {
                "data": "-2:1982",
                "leaf": "subtitle",
                "type": "Leaf"
            },
            {
                "data": "-2:42209",
                "leaf": "subtitle",
                "type": "Leaf"
            },
            {
                "data": "-2:11162",
                "leaf": "subtitle",
                "type": "Leaf"
            },
            {
                "data": "-2:30094",
                "leaf": "subtitle",
                "type": "Leaf"
            },
            {
                "data": "-2:2018",
                "leaf": "subtitle",
                "type": "Leaf"
            },
            {
                "data": "-2:42285",
                "leaf": "subtitle",
                "type": "Leaf"
            },
            {
                "data": "-2:11237",
                "leaf": "subtitle",
                "type": "Leaf"
            },
            {
                "data": "-2:30190",
                "leaf": "subtitle",
                "type": "Leaf"
            },
            {
                "data": "-2:2056",
                "leaf": "subtitle",
                "type": "Leaf"
            },
            {
                "data": "-2:42379",
                "leaf": "subtitle",
                "type": "Leaf"
            },
            {
                "data": "-2:11335",
                "leaf": "subtitle",
                "type": "Leaf"
            },
            {
                "data": "-2:30247",
                "leaf": "subtitle",
                "type": "Leaf"
            },
            {
                "data": "-2:2098",
                "leaf": "subtitle",
                "type": "Leaf"
            },
            {
                "data": "-2:42438",
                "leaf": "subtitle",
                "type": "Leaf"
            },
            {
                "data": "-2:11404",
                "leaf": "subtitle",
                "type": "Leaf"
            },
            {
                "data": "-2:30305",
                "leaf": "subtitle",
                "type": "Leaf"
            },
            {
                "data": "-2:2141",
                "leaf": "subtitle",
                "type": "Leaf"
            },
            {
                "data": "-2:42484",
                "leaf": "subtitle",
                "type": "Leaf"
            },
            {
                "data": "-2:11462",
                "leaf": "subtitle",
                "type": "Leaf"
            },
            {
                "data": "-2:30343",
                "leaf": "subtitle",
                "type": "Leaf"
            },
            {
                "data": "-2:2198",
                "leaf": "subtitle",
                "type": "Leaf"
            },
            {
                "data": "-2:42562",
                "leaf": "subtitle",
                "type": "Leaf"
            },
            {
                "data": "-2:11558",
                "leaf": "subtitle",
                "type": "Leaf"
            },
            {
                "data": "-2:30408",
                "leaf": "subtitle",
                "type": "Leaf"
            },
            {
                "data": "-2:2276",
                "leaf": "subtitle",
                "type": "Leaf"
            },
            {
                "data": "-2:42640",
                "leaf": "subtitle",
                "type": "Leaf"
            },
            {
                "data": "-2:11669",
                "leaf": "subtitle",
                "type": "Leaf"
            },
            {
                "data": "-2:30469",
                "leaf": "subtitle",
                "type": "Leaf"
            },
            {
                "data": "-2:2391",
                "leaf": "subtitle",
                "type": "Leaf"
            },
            {
                "data": "-2:42645",
                "leaf": "subtitle",
                "type": "Leaf"
            },
            {
                "data": "-2:11739",
                "leaf": "subtitle",
                "type": "Leaf"
            },
            {
                "data": "-2:30542",
                "leaf": "subtitle",
                "type": "Leaf"
            },
            {
                "data": "-2:2438",
                "leaf": "subtitle",
                "type": "Leaf"
            },
            {
                "data": "-2:42698",
                "leaf": "subtitle",
                "type": "Leaf"
            },
            {
                "data": "-2:11823",
                "leaf": "subtitle",
                "type": "Leaf"
            },
            {
                "data": "-2:30635",
                "leaf": "subtitle",
                "type": "Leaf"
            },
            {
                "data": "-2:2530",
                "leaf": "subtitle",
                "type": "Leaf"
            },
            {
                "data": "-2:42749",
                "leaf": "subtitle",
                "type": "Leaf"
            },
            {
                "data": "-2:11893",
                "leaf": "subtitle",
                "type": "Leaf"
            },
            {
                "data": "-2:30677",
                "leaf": "subtitle",
                "type": "Leaf"
            },
            {
                "data": "-2:2575",
                "leaf": "subtitle",
                "type": "Leaf"
            },
            {
                "data": "-2:42812",
                "leaf": "subtitle",
                "type": "Leaf"
            },
            {
                "data": "-2:11971",
                "leaf": "subtitle",
                "type": "Leaf"
            },
            {
                "data": "-2:30766",
                "leaf": "subtitle",
                "type": "Leaf"
            },
            {
                "data": "-2:2632",
                "leaf": "subtitle",
                "type": "Leaf"
            },
            {
                "data": "-2:42870",
                "leaf": "subtitle",
                "type": "Leaf"
            },
            {
                "data": "-2:12033",
                "leaf": "subtitle",
                "type": "Leaf"
            },
            {
                "data": "-2:30843",
                "leaf": "subtitle",
                "type": "Leaf"
            },
            {
                "data": "-2:2680",
                "leaf": "subtitle",
                "type": "Leaf"
            },
            {
                "data": "-2:42932",
                "leaf": "subtitle",
                "type": "Leaf"
            },
            {
                "data": "-2:12127",
                "leaf": "subtitle",
                "type": "Leaf"
            },
            {
                "data": "-2:30893",
                "leaf": "subtitle",
                "type": "Leaf"
            },
            {
                "data": "-2:2703",
                "leaf": "subtitle",
                "type": "Leaf"
            },
            {
                "data": "-2:43015",
                "leaf": "subtitle",
                "type": "Leaf"
            },
            {
                "data": "-2:12278",
                "leaf": "subtitle",
                "type": "Leaf"
            },
            {
                "data": "-2:30942",
                "leaf": "subtitle",
                "type": "Leaf"
            },
            {
                "data": "-2:2772",
                "leaf": "subtitle",
                "type": "Leaf"
            },
            {
                "data": "-2:43122",
                "leaf": "subtitle",
                "type": "Leaf"
            },
            {
                "data": "-2:13320",
                "leaf": "subtitle",
                "type": "Leaf"
            },
            {
                "data": "-2:32285",
                "leaf": "subtitle",
                "type": "Leaf"
            },
            {
                "data": "-2:13383",
                "leaf": "subtitle",
                "type": "Leaf"
            },
            {
                "data": "-2:32332",
                "leaf": "subtitle",
                "type": "Leaf"
            },
            {
                "data": "-2:13422",
                "leaf": "subtitle",
                "type": "Leaf"
            },
            {
                "data": "-2:32440",
                "leaf": "subtitle",
                "type": "Leaf"
            },
            {
                "data": "-2:13492",
                "leaf": "subtitle",
                "type": "Leaf"
            },
            {
                "data": "-2:32491",
                "leaf": "subtitle",
                "type": "Leaf"
            },
            {
                "data": "-2:13582",
                "leaf": "subtitle",
                "type": "Leaf"
            },
            {
                "data": "-2:32567",
                "leaf": "subtitle",
                "type": "Leaf"
            },
            {
                "data": "-2:13682",
                "leaf": "subtitle",
                "type": "Leaf"
            },
            {
                "data": "-2:32687",
                "leaf": "subtitle",
                "type": "Leaf"
            },
            {
                "data": "-2:13775",
                "leaf": "subtitle",
                "type": "Leaf"
            },
            {
                "data": "-2:32776",
                "leaf": "subtitle",
                "type": "Leaf"
            },
            {
                "data": "-2:13862",
                "leaf": "subtitle",
                "type": "Leaf"
            },
            {
                "data": "-2:32834",
                "leaf": "subtitle",
                "type": "Leaf"
            },
            {
                "data": "-2:14013",
                "leaf": "subtitle",
                "type": "Leaf"
            },
            {
                "data": "-2:32952",
                "leaf": "subtitle",
                "type": "Leaf"
            },
            {
                "data": "-2:14060",
                "leaf": "subtitle",
                "type": "Leaf"
            },
            {
                "data": "-2:33177",
                "leaf": "subtitle",
                "type": "Leaf"
            },
            {
                "data": "-2:14122",
                "leaf": "subtitle",
                "type": "Leaf"
            },
            {
                "data": "-2:33206",
                "leaf": "subtitle",
                "type": "Leaf"
            },
            {
                "data": "-2:14187",
                "leaf": "subtitle",
                "type": "Leaf"
            },
            {
                "data": "-2:33286",
                "leaf": "subtitle",
                "type": "Leaf"
            },
            {
                "data": "-2:14266",
                "leaf": "subtitle",
                "type": "Leaf"
            },
            {
                "data": "-2:33417",
                "leaf": "subtitle",
                "type": "Leaf"
            },
            {
                "data": "-2:13275",
                "leaf": "subtitle",
                "type": "Leaf"
            },
            {
                "data": "-2:32248",
                "leaf": "subtitle",
                "type": "Leaf"
            },
            {
                "data": "-2:13148",
                "leaf": "subtitle",
                "type": "Leaf"
            },
            {
                "data": "-2:32061",
                "leaf": "subtitle",
                "type": "Leaf"
            },
            {
                "data": "-2:13091",
                "leaf": "subtitle",
                "type": "Leaf"
            },
            {
                "data": "-2:32006",
                "leaf": "subtitle",
                "type": "Leaf"
            },
            {
                "data": "-2:13050",
                "leaf": "subtitle",
                "type": "Leaf"
            },
            {
                "data": "-2:31893",
                "leaf": "subtitle",
                "type": "Leaf"
            },
            {
                "data": "-2:13003",
                "leaf": "subtitle",
                "type": "Leaf"
            },
            {
                "data": "-2:31803",
                "leaf": "subtitle",
                "type": "Leaf"
            },
            {
                "data": "-2:12948",
                "leaf": "subtitle",
                "type": "Leaf"
            },
            {
                "data": "-2:31729",
                "leaf": "subtitle",
                "type": "Leaf"
            },
            {
                "data": "-2:3542",
                "leaf": "subtitle",
                "type": "Leaf"
            },
            {
                "data": "-2:43855",
                "leaf": "subtitle",
                "type": "Leaf"
            },
            {
                "data": "-2:12898",
                "leaf": "subtitle",
                "type": "Leaf"
            },
            {
                "data": "-2:31659",
                "leaf": "subtitle",
                "type": "Leaf"
            },
            {
                "data": "-2:3469",
                "leaf": "subtitle",
                "type": "Leaf"
            },
            {
                "data": "-2:43835",
                "leaf": "subtitle",
                "type": "Leaf"
            },
            {
                "data": "-2:12848",
                "leaf": "subtitle",
                "type": "Leaf"
            },
            {
                "data": "-2:31541",
                "leaf": "subtitle",
                "type": "Leaf"
            },
            {
                "data": "-2:3375",
                "leaf": "subtitle",
                "type": "Leaf"
            },
            {
                "data": "-2:43758",
                "leaf": "subtitle",
                "type": "Leaf"
            },
            {
                "data": "-2:12799",
                "leaf": "subtitle",
                "type": "Leaf"
            },
            {
                "data": "-2:31474",
                "leaf": "subtitle",
                "type": "Leaf"
            },
            {
                "data": "-2:12755",
                "leaf": "subtitle",
                "type": "Leaf"
            },
            {
                "data": "-2:31345",
                "leaf": "subtitle",
                "type": "Leaf"
            },
            {
                "data": "-2:12694",
                "leaf": "subtitle",
                "type": "Leaf"
            },
            {
                "data": "-2:31279",
                "leaf": "subtitle",
                "type": "Leaf"
            },
            {
                "data": "-2:12601",
                "leaf": "subtitle",
                "type": "Leaf"
            },
            {
                "data": "-2:31214",
                "leaf": "subtitle",
                "type": "Leaf"
            },
            {
                "data": "-2:12544",
                "leaf": "subtitle",
                "type": "Leaf"
            },
            {
                "data": "-2:31168",
                "leaf": "subtitle",
                "type": "Leaf"
            },
            {
                "data": "-2:12508",
                "leaf": "subtitle",
                "type": "Leaf"
            },
            {
                "data": "-2:31080",
                "leaf": "subtitle",
                "type": "Leaf"
            },
            {
                "data": "-2:12430",
                "leaf": "subtitle",
                "type": "Leaf"
            },
            {
                "data": "-2:31029",
                "leaf": "subtitle",
                "type": "Leaf"
            },
            {
                "data": "-2:12384",
                "leaf": "subtitle",
                "type": "Leaf"
            },
            {
                "data": "-2:30996",
                "leaf": "subtitle",
                "type": "Leaf"
            },
            {
                "data": "-2:28845",
                "leaf": "subtitle",
                "type": "Leaf"
            },
            {
                "data": "-2:28764",
                "leaf": "subtitle",
                "type": "Leaf"
            },
            {
                "data": "-2:28706",
                "leaf": "subtitle",
                "type": "Leaf"
            },
            {
                "data": "-2:28636",
                "leaf": "subtitle",
                "type": "Leaf"
            },
            {
                "data": "-2:28571",
                "leaf": "subtitle",
                "type": "Leaf"
            },
            {
                "data": "-2:28507",
                "leaf": "subtitle",
                "type": "Leaf"
            },
            {
                "data": "-2:28393",
                "leaf": "subtitle",
                "type": "Leaf"
            },
            {
                "data": "-2:28324",
                "leaf": "subtitle",
                "type": "Leaf"
            },
            {
                "data": "-2:28264",
                "leaf": "subtitle",
                "type": "Leaf"
            },
            {
                "data": "-2:28209",
                "leaf": "subtitle",
                "type": "Leaf"
            },
            {
                "data": "-2:28170",
                "leaf": "subtitle",
                "type": "Leaf"
            },
            {
                "data": "-2:8730",
                "leaf": "subtitle",
                "type": "Leaf"
            },
            {
                "data": "-2:28036",
                "leaf": "subtitle",
                "type": "Leaf"
            },
            {
                "data": "-2:8657",
                "leaf": "subtitle",
                "type": "Leaf"
            },
            {
                "data": "-2:27969",
                "leaf": "subtitle",
                "type": "Leaf"
            },
            {
                "data": "-2:8563",
                "leaf": "subtitle",
                "type": "Leaf"
            },
            {
                "data": "-2:27903",
                "leaf": "subtitle",
                "type": "Leaf"
            },
            {
                "data": "-2:8452",
                "leaf": "subtitle",
                "type": "Leaf"
            },
            {
                "data": "-2:27855",
                "leaf": "subtitle",
                "type": "Leaf"
            },
            {
                "data": "-2:27755",
                "leaf": "subtitle",
                "type": "Leaf"
            },
            {
                "data": "-2:27715",
                "leaf": "subtitle",
                "type": "Leaf"
            },
            {
                "data": "-2:27643",
                "leaf": "subtitle",
                "type": "Leaf"
            },
            {
                "data": "-2:8154",
                "leaf": "subtitle",
                "type": "Leaf"
            },
            {
                "data": "-2:27522",
                "leaf": "subtitle",
                "type": "Leaf"
            },
            {
                "data": "-2:8043",
                "leaf": "subtitle",
                "type": "Leaf"
            },
            {
                "data": "-2:27469",
                "leaf": "subtitle",
                "type": "Leaf"
            },
            {
                "data": "-2:27283",
                "leaf": "subtitle",
                "type": "Leaf"
            },
            {
                "data": "-2:27161",
                "leaf": "subtitle",
                "type": "Leaf"
            },
            {
                "data": "-2:7831",
                "leaf": "subtitle",
                "type": "Leaf"
            },
            {
                "data": "-2:27095",
                "leaf": "subtitle",
                "type": "Leaf"
            },
            {
                "data": "-2:27051",
                "leaf": "subtitle",
                "type": "Leaf"
            },
            {
                "data": "-2:38993",
                "leaf": "subtitle",
                "type": "Leaf"
            },
            {
                "data": "-2:890",
                "leaf": "subtitle",
                "type": "Leaf"
            },
            {
                "data": "-2:41177",
                "leaf": "subtitle",
                "type": "Leaf"
            },
            {
                "data": "-2:38883",
                "leaf": "subtitle",
                "type": "Leaf"
            },
            {
                "data": "-2:809",
                "leaf": "subtitle",
                "type": "Leaf"
            },
            {
                "data": "-2:41131",
                "leaf": "subtitle",
                "type": "Leaf"
            },
            {
                "data": "-2:10125",
                "leaf": "subtitle",
                "type": "Leaf"
            },
            {
                "data": "-2:9997",
                "leaf": "subtitle",
                "type": "Leaf"
            },
            {
                "data": "-2:38244",
                "leaf": "subtitle",
                "type": "Leaf"
            },
            {
                "data": "-2:9929",
                "leaf": "subtitle",
                "type": "Leaf"
            },
            {
                "data": "-2:9861",
                "leaf": "subtitle",
                "type": "Leaf"
            },
            {
                "data": "-2:9773",
                "leaf": "subtitle",
                "type": "Leaf"
            },
            {
                "data": "-2:9714",
                "leaf": "subtitle",
                "type": "Leaf"
            },
            {
                "data": "-2:38411",
                "leaf": "subtitle",
                "type": "Leaf"
            },
            {
                "data": "-2:420",
                "leaf": "subtitle",
                "type": "Leaf"
            },
            {
                "data": "-2:40642",
                "leaf": "subtitle",
                "type": "Leaf"
            },
            {
                "data": "-2:9647",
                "leaf": "subtitle",
                "type": "Leaf"
            },
            {
                "data": "-2:37919",
                "leaf": "subtitle",
                "type": "Leaf"
            },
            {
                "data": "-2:38329",
                "leaf": "subtitle",
                "type": "Leaf"
            },
            {
                "data": "-2:335",
                "leaf": "subtitle",
                "type": "Leaf"
            },
            {
                "data": "-2:40577",
                "leaf": "subtitle",
                "type": "Leaf"
            },
            {
                "data": "-2:9568",
                "leaf": "subtitle",
                "type": "Leaf"
            },
            {
                "data": "-2:37852",
                "leaf": "subtitle",
                "type": "Leaf"
            },
            {
                "data": "-2:9472",
                "leaf": "subtitle",
                "type": "Leaf"
            },
            {
                "data": "-2:37765",
                "leaf": "subtitle",
                "type": "Leaf"
            },
            {
                "data": "-2:38145",
                "leaf": "subtitle",
                "type": "Leaf"
            },
            {
                "data": "-2:205",
                "leaf": "subtitle",
                "type": "Leaf"
            },
            {
                "data": "-2:40337",
                "leaf": "subtitle",
                "type": "Leaf"
            },
            {
                "data": "-2:9300",
                "leaf": "subtitle",
                "type": "Leaf"
            },
            {
                "data": "-2:37724",
                "leaf": "subtitle",
                "type": "Leaf"
            },
            {
                "data": "-2:38106",
                "leaf": "subtitle",
                "type": "Leaf"
            },
            {
                "data": "-2:187",
                "leaf": "subtitle",
                "type": "Leaf"
            },
            {
                "data": "-2:40205",
                "leaf": "subtitle",
                "type": "Leaf"
            },
            {
                "data": "-2:9211",
                "leaf": "subtitle",
                "type": "Leaf"
            },
            {
                "data": "-2:37670",
                "leaf": "subtitle",
                "type": "Leaf"
            },
            {
                "data": "-2:38007",
                "leaf": "subtitle",
                "type": "Leaf"
            },
            {
                "data": "-2:103",
                "leaf": "subtitle",
                "type": "Leaf"
            },
            {
                "data": "-2:40135",
                "leaf": "subtitle",
                "type": "Leaf"
            },
            {
                "data": "-2:9058",
                "leaf": "subtitle",
                "type": "Leaf"
            },
            {
                "data": "-2:37634",
                "leaf": "subtitle",
                "type": "Leaf"
            },
            {
                "data": "-2:37979",
                "leaf": "subtitle",
                "type": "Leaf"
            },
            {
                "data": "-2:0",
                "leaf": "subtitle",
                "type": "Leaf"
            },
            {
                "data": "-2:40044",
                "leaf": "subtitle",
                "type": "Leaf"
            },
            {
                "data": "-2:8958",
                "leaf": "subtitle",
                "type": "Leaf"
            },
            {
                "data": "-2:37566",
                "leaf": "subtitle",
                "type": "Leaf"
            },
            {
                "data": "-2:8878",
                "leaf": "subtitle",
                "type": "Leaf"
            },
            {
                "data": "-2:37498",
                "leaf": "subtitle",
                "type": "Leaf"
            },
            {
                "data": "-2:8804",
                "leaf": "subtitle",
                "type": "Leaf"
            },
            {
                "data": "-2:35163",
                "leaf": "subtitle",
                "type": "Leaf"
            },
            {
                "data": "-2:35070",
                "leaf": "subtitle",
                "type": "Leaf"
            },
            {
                "data": "-2:35032",
                "leaf": "subtitle",
                "type": "Leaf"
            },
            {
                "data": "-2:34960",
                "leaf": "subtitle",
                "type": "Leaf"
            },
            {
                "data": "-2:34902",
                "leaf": "subtitle",
                "type": "Leaf"
            },
            {
                "data": "-2:34827",
                "leaf": "subtitle",
                "type": "Leaf"
            },
            {
                "data": "-2:34761",
                "leaf": "subtitle",
                "type": "Leaf"
            },
            {
                "data": "-2:34685",
                "leaf": "subtitle",
                "type": "Leaf"
            },
            {
                "data": "-2:34609",
                "leaf": "subtitle",
                "type": "Leaf"
            },
            {
                "data": "-2:34520",
                "leaf": "subtitle",
                "type": "Leaf"
            },
            {
                "data": "-2:34456",
                "leaf": "subtitle",
                "type": "Leaf"
            },
            {
                "data": "-2:34419",
                "leaf": "subtitle",
                "type": "Leaf"
            },
            {
                "data": "-2:15035",
                "leaf": "subtitle",
                "type": "Leaf"
            },
            {
                "data": "-2:34256",
                "leaf": "subtitle",
                "type": "Leaf"
            },
            {
                "data": "-2:14913",
                "leaf": "subtitle",
                "type": "Leaf"
            },
            {
                "data": "-2:34180",
                "leaf": "subtitle",
                "type": "Leaf"
            },
            {
                "data": "-2:14853",
                "leaf": "subtitle",
                "type": "Leaf"
            },
            {
                "data": "-2:34114",
                "leaf": "subtitle",
                "type": "Leaf"
            },
            {
                "data": "-2:14791",
                "leaf": "subtitle",
                "type": "Leaf"
            },
            {
                "data": "-2:34030",
                "leaf": "subtitle",
                "type": "Leaf"
            },
            {
                "data": "-2:14768",
                "leaf": "subtitle",
                "type": "Leaf"
            },
            {
                "data": "-2:33972",
                "leaf": "subtitle",
                "type": "Leaf"
            },
            {
                "data": "-2:14698",
                "leaf": "subtitle",
                "type": "Leaf"
            },
            {
                "data": "-2:33891",
                "leaf": "subtitle",
                "type": "Leaf"
            },
            {
                "data": "-2:14601",
                "leaf": "subtitle",
                "type": "Leaf"
            },
            {
                "data": "-2:33845",
                "leaf": "subtitle",
                "type": "Leaf"
            },
            {
                "data": "-2:14541",
                "leaf": "subtitle",
                "type": "Leaf"
            },
            {
                "data": "-2:33774",
                "leaf": "subtitle",
                "type": "Leaf"
            },
            {
                "data": "-2:14473",
                "leaf": "subtitle",
                "type": "Leaf"
            },
            {
                "data": "-2:33712",
                "leaf": "subtitle",
                "type": "Leaf"
            },
            {
                "data": "-2:14405",
                "leaf": "subtitle",
                "type": "Leaf"
            },
            {
                "data": "-2:33635",
                "leaf": "subtitle",
                "type": "Leaf"
            },
            {
                "data": "-2:14361",
                "leaf": "subtitle",
                "type": "Leaf"
            },
            {
                "data": "-2:33576",
                "leaf": "subtitle",
                "type": "Leaf"
            },
            {
                "data": "-2:14313",
                "leaf": "subtitle",
                "type": "Leaf"
            },
            {
                "data": "-2:33495",
                "leaf": "subtitle",
                "type": "Leaf"
            },
            {
                "data": "-2:43227",
                "leaf": "subtitle",
                "type": "Leaf"
            },
            {
                "data": "-2:2860",
                "leaf": "subtitle",
                "type": "Leaf"
            },
            {
                "data": "-2:43250",
                "leaf": "subtitle",
                "type": "Leaf"
            },
            {
                "data": "-2:2917",
                "leaf": "subtitle",
                "type": "Leaf"
            },
            {
                "data": "-2:43311",
                "leaf": "subtitle",
                "type": "Leaf"
            },
            {
                "data": "-2:3003",
                "leaf": "subtitle",
                "type": "Leaf"
            },
            {
                "data": "-2:15102",
                "leaf": "subtitle",
                "type": "Leaf"
            },
            {
                "data": "-2:44786",
                "leaf": "subtitle",
                "type": "Leaf"
            },
            {
                "data": "-2:4427",
                "leaf": "subtitle",
                "type": "Leaf"
            },
            {
                "data": "-2:16303",
                "leaf": "subtitle",
                "type": "Leaf"
            },
            {
                "data": "-2:44840",
                "leaf": "subtitle",
                "type": "Leaf"
            },
            {
                "data": "-2:4512",
                "leaf": "subtitle",
                "type": "Leaf"
            },
            {
                "data": "-2:16357",
                "leaf": "subtitle",
                "type": "Leaf"
            },
            {
                "data": "-2:44889",
                "leaf": "subtitle",
                "type": "Leaf"
            },
            {
                "data": "-2:4563",
                "leaf": "subtitle",
                "type": "Leaf"
            },
            {
                "data": "-2:16439",
                "leaf": "subtitle",
                "type": "Leaf"
            },
            {
                "data": "-2:44944",
                "leaf": "subtitle",
                "type": "Leaf"
            },
            {
                "data": "-2:4637",
                "leaf": "subtitle",
                "type": "Leaf"
            },
            {
                "data": "-2:16481",
                "leaf": "subtitle",
                "type": "Leaf"
            },
            {
                "data": "-2:45020",
                "leaf": "subtitle",
                "type": "Leaf"
            },
            {
                "data": "-2:4710",
                "leaf": "subtitle",
                "type": "Leaf"
            },
            {
                "data": "-2:16514",
                "leaf": "subtitle",
                "type": "Leaf"
            },
            {
                "data": "-2:45065",
                "leaf": "subtitle",
                "type": "Leaf"
            },
            {
                "data": "-2:4779",
                "leaf": "subtitle",
                "type": "Leaf"
            },
            {
                "data": "-2:16609",
                "leaf": "subtitle",
                "type": "Leaf"
            },
            {
                "data": "-2:45114",
                "leaf": "subtitle",
                "type": "Leaf"
            },
            {
                "data": "-2:4856",
                "leaf": "subtitle",
                "type": "Leaf"
            },
            {
                "data": "-2:16665",
                "leaf": "subtitle",
                "type": "Leaf"
            },
            {
                "data": "-2:45181",
                "leaf": "subtitle",
                "type": "Leaf"
            },
            {
                "data": "-2:4942",
                "leaf": "subtitle",
                "type": "Leaf"
            },
            {
                "data": "-2:16733",
                "leaf": "subtitle",
                "type": "Leaf"
            },
            {
                "data": "-2:45219",
                "leaf": "subtitle",
                "type": "Leaf"
            },
            {
                "data": "-2:4995",
                "leaf": "subtitle",
                "type": "Leaf"
            },
            {
                "data": "-2:16786",
                "leaf": "subtitle",
                "type": "Leaf"
            },
            {
                "data": "-2:45278",
                "leaf": "subtitle",
                "type": "Leaf"
            },
            {
                "data": "-2:5053",
                "leaf": "subtitle",
                "type": "Leaf"
            },
            {
                "data": "-2:16842",
                "leaf": "subtitle",
                "type": "Leaf"
            },
            {
                "data": "-2:45320",
                "leaf": "subtitle",
                "type": "Leaf"
            },
            {
                "data": "-2:5122",
                "leaf": "subtitle",
                "type": "Leaf"
            },
            {
                "data": "-2:16907",
                "leaf": "subtitle",
                "type": "Leaf"
            },
            {
                "data": "-2:45363",
                "leaf": "subtitle",
                "type": "Leaf"
            },
            {
                "data": "-2:5212",
                "leaf": "subtitle",
                "type": "Leaf"
            },
            {
                "data": "-2:16996",
                "leaf": "subtitle",
                "type": "Leaf"
            },
            {
                "data": "-2:45421",
                "leaf": "subtitle",
                "type": "Leaf"
            },
            {
                "data": "-2:5288",
                "leaf": "subtitle",
                "type": "Leaf"
            },
            {
                "data": "-2:17041",
                "leaf": "subtitle",
                "type": "Leaf"
            },
            {
                "data": "-2:44661",
                "leaf": "subtitle",
                "type": "Leaf"
            },
            {
                "data": "-2:4343",
                "leaf": "subtitle",
                "type": "Leaf"
            },
            {
                "data": "-2:16204",
                "leaf": "subtitle",
                "type": "Leaf"
            },
            {
                "data": "-2:44610",
                "leaf": "subtitle",
                "type": "Leaf"
            },
            {
                "data": "-2:4195",
                "leaf": "subtitle",
                "type": "Leaf"
            },
            {
                "data": "-2:16147",
                "leaf": "subtitle",
                "type": "Leaf"
            },
            {
                "data": "-2:44542",
                "leaf": "subtitle",
                "type": "Leaf"
            },
            {
                "data": "-2:4147",
                "leaf": "subtitle",
                "type": "Leaf"
            },
            {
                "data": "-2:16084",
                "leaf": "subtitle",
                "type": "Leaf"
            },
            {
                "data": "-2:44460",
                "leaf": "subtitle",
                "type": "Leaf"
            },
            {
                "data": "-2:4072",
                "leaf": "subtitle",
                "type": "Leaf"
            },
            {
                "data": "-2:16045",
                "leaf": "subtitle",
                "type": "Leaf"
            },
            {
                "data": "-2:44385",
                "leaf": "subtitle",
                "type": "Leaf"
            },
            {
                "data": "-2:4006",
                "leaf": "subtitle",
                "type": "Leaf"
            },
            {
                "data": "-2:15908",
                "leaf": "subtitle",
                "type": "Leaf"
            },
            {
                "data": "-2:44319",
                "leaf": "subtitle",
                "type": "Leaf"
            },
            {
                "data": "-2:3912",
                "leaf": "subtitle",
                "type": "Leaf"
            },
            {
                "data": "-2:15826",
                "leaf": "subtitle",
                "type": "Leaf"
            },
            {
                "data": "-2:44202",
                "leaf": "subtitle",
                "type": "Leaf"
            },
            {
                "data": "-2:3860",
                "leaf": "subtitle",
                "type": "Leaf"
            },
            {
                "data": "-2:15751",
                "leaf": "subtitle",
                "type": "Leaf"
            },
            {
                "data": "-2:44158",
                "leaf": "subtitle",
                "type": "Leaf"
            },
            {
                "data": "-2:3806",
                "leaf": "subtitle",
                "type": "Leaf"
            },
            {
                "data": "-2:15692",
                "leaf": "subtitle",
                "type": "Leaf"
            },
            {
                "data": "-2:44086",
                "leaf": "subtitle",
                "type": "Leaf"
            },
            {
                "data": "-2:3741",
                "leaf": "subtitle",
                "type": "Leaf"
            },
            {
                "data": "-2:15619",
                "leaf": "subtitle",
                "type": "Leaf"
            },
            {
                "data": "-2:43983",
                "leaf": "subtitle",
                "type": "Leaf"
            },
            {
                "data": "-2:3669",
                "leaf": "subtitle",
                "type": "Leaf"
            },
            {
                "data": "-2:15590",
                "leaf": "subtitle",
                "type": "Leaf"
            },
            {
                "data": "-2:43905",
                "leaf": "subtitle",
                "type": "Leaf"
            },
            {
                "data": "-2:3621",
                "leaf": "subtitle",
                "type": "Leaf"
            },
            {
                "data": "-2:15545",
                "leaf": "subtitle",
                "type": "Leaf"
            },
            {
                "data": "-2:15494",
                "leaf": "subtitle",
                "type": "Leaf"
            },
            {
                "data": "-2:15438",
                "leaf": "subtitle",
                "type": "Leaf"
            },
            {
                "data": "-2:15388",
                "leaf": "subtitle",
                "type": "Leaf"
            },
            {
                "data": "-2:15259",
                "leaf": "subtitle",
                "type": "Leaf"
            },
            {
                "data": "-2:15210",
                "leaf": "subtitle",
                "type": "Leaf"
            },
            {
                "data": "-2:41464",
                "leaf": "subtitle",
                "type": "Leaf"
            },
            {
                "data": "-2:1211",
                "leaf": "subtitle",
                "type": "Leaf"
            },
            {
                "data": "-2:41222",
                "leaf": "subtitle",
                "type": "Leaf"
            },
            {
                "data": "-2:964",
                "leaf": "subtitle",
                "type": "Leaf"
            },
            {
                "data": "-2:41034",
                "leaf": "subtitle",
                "type": "Leaf"
            },
            {
                "data": "-2:765",
                "leaf": "subtitle",
                "type": "Leaf"
            },
            {
                "data": "-2:40973",
                "leaf": "subtitle",
                "type": "Leaf"
            },
            {
                "data": "-2:725",
                "leaf": "subtitle",
                "type": "Leaf"
            },
            {
                "data": "-2:40855",
                "leaf": "subtitle",
                "type": "Leaf"
            },
            {
                "data": "-2:614",
                "leaf": "subtitle",
                "type": "Leaf"
            },
            {
                "data": "-2:40796",
                "leaf": "subtitle",
                "type": "Leaf"
            },
            {
                "data": "-2:526",
                "leaf": "subtitle",
                "type": "Leaf"
            },
            {
                "data": "-2:40716",
                "leaf": "subtitle",
                "type": "Leaf"
            },
            {
                "data": "-2:467",
                "leaf": "subtitle",
                "type": "Leaf"
            },
            {
                "data": "-2:40423",
                "leaf": "subtitle",
                "type": "Leaf"
            },
            {
                "data": "-2:286",
                "leaf": "subtitle",
                "type": "Leaf"
            },
            {
                "data": "-2:39963",
                "leaf": "subtitle",
                "type": "Leaf"
            },
            {
                "data": "-2:39869",
                "leaf": "subtitle",
                "type": "Leaf"
            },
            {
                "data": "-2:39828",
                "leaf": "subtitle",
                "type": "Leaf"
            },
            {
                "data": "-2:39760",
                "leaf": "subtitle",
                "type": "Leaf"
            },
            {
                "data": "-2:39716",
                "leaf": "subtitle",
                "type": "Leaf"
            },
            {
                "data": "-2:39678",
                "leaf": "subtitle",
                "type": "Leaf"
            },
            {
                "data": "-2:18149",
                "leaf": "subtitle",
                "type": "Leaf"
            },
            {
                "data": "-2:18057",
                "leaf": "subtitle",
                "type": "Leaf"
            },
            {
                "data": "-2:17983",
                "leaf": "subtitle",
                "type": "Leaf"
            },
            {
                "data": "-2:17922",
                "leaf": "subtitle",
                "type": "Leaf"
            },
            {
                "data": "-2:17843",
                "leaf": "subtitle",
                "type": "Leaf"
            },
            {
                "data": "-2:17781",
                "leaf": "subtitle",
                "type": "Leaf"
            },
            {
                "data": "-2:17715",
                "leaf": "subtitle",
                "type": "Leaf"
            },
            {
                "data": "-2:17613",
                "leaf": "subtitle",
                "type": "Leaf"
            },
            {
                "data": "-2:17454",
                "leaf": "subtitle",
                "type": "Leaf"
            },
            {
                "data": "-2:17349",
                "leaf": "subtitle",
                "type": "Leaf"
            },
            {
                "data": "-2:17298",
                "leaf": "subtitle",
                "type": "Leaf"
            },
            {
                "data": "-2:17262",
                "leaf": "subtitle",
                "type": "Leaf"
            },
            {
                "data": "-2:17164",
                "leaf": "subtitle",
                "type": "Leaf"
            },
            {
                "data": "-2:17074",
                "leaf": "subtitle",
                "type": "Leaf"
            },
            {
                "data": "-2:8306",
                "leaf": "subtitle",
                "type": "Leaf"
            },
            {
                "data": "-2:7852",
                "leaf": "subtitle",
                "type": "Leaf"
            },
            {
                "data": "4:1347",
                "leaf": "clip",
                "type": "Leaf"
            },
            {
                "data": "-2:6047",
                "leaf": "subtitle",
                "type": "Leaf"
            },
            {
                "data": "-2:8376",
                "leaf": "subtitle",
                "type": "Leaf"
            },
            {
                "data": "-2:5369",
                "leaf": "subtitle",
                "type": "Leaf"
            },
            {
                "data": "-2:5444",
                "leaf": "subtitle",
                "type": "Leaf"
            },
            {
                "data": "-2:5497",
                "leaf": "subtitle",
                "type": "Leaf"
            },
            {
                "data": "-2:5550",
                "leaf": "subtitle",
                "type": "Leaf"
            },
            {
                "data": "2:0",
                "leaf": "clip",
                "type": "Leaf"
            },
            {
                "data": "-2:5629",
                "leaf": "subtitle",
                "type": "Leaf"
            },
            {
                "data": "2:1347",
                "leaf": "clip",
                "type": "Leaf"
            },
            {
                "data": "-2:5681",
                "leaf": "subtitle",
                "type": "Leaf"
            },
            {
                "data": "-2:5808",
                "leaf": "subtitle",
                "type": "Leaf"
            },
            {
                "data": "3:0",
                "leaf": "clip",
                "type": "Leaf"
            },
            {
                "data": "-2:5874",
                "leaf": "subtitle",
                "type": "Leaf"
            },
            {
                "data": "3:1347",
                "leaf": "clip",
                "type": "Leaf"
            },
            {
                "data": "-2:5908",
                "leaf": "subtitle",
                "type": "Leaf"
            },
            {
                "data": "-2:6086",
                "leaf": "subtitle",
                "type": "Leaf"
            },
            {
                "data": "-2:6189",
                "leaf": "subtitle",
                "type": "Leaf"
            },
            {
                "data": "-2:6238",
                "leaf": "subtitle",
                "type": "Leaf"
            },
            {
                "data": "-2:6301",
                "leaf": "subtitle",
                "type": "Leaf"
            },
            {
                "data": "-2:6346",
                "leaf": "subtitle",
                "type": "Leaf"
            },
            {
                "data": "-2:6405",
                "leaf": "subtitle",
                "type": "Leaf"
            },
            {
                "data": "-2:6506",
                "leaf": "subtitle",
                "type": "Leaf"
            },
            {
                "data": "-2:6557",
                "leaf": "subtitle",
                "type": "Leaf"
            },
            {
                "data": "-2:6621",
                "leaf": "subtitle",
                "type": "Leaf"
            },
            {
                "data": "-2:6641",
                "leaf": "subtitle",
                "type": "Leaf"
            },
            {
                "data": "-2:6737",
                "leaf": "subtitle",
                "type": "Leaf"
            },
            {
                "data": "-2:6792",
                "leaf": "subtitle",
                "type": "Leaf"
            },
            {
                "data": "-2:6899",
                "leaf": "subtitle",
                "type": "Leaf"
            },
            {
                "data": "-2:6987",
                "leaf": "subtitle",
                "type": "Leaf"
            },
            {
                "data": "-2:7066",
                "leaf": "subtitle",
                "type": "Leaf"
            },
            {
                "data": "-2:7159",
                "leaf": "subtitle",
                "type": "Leaf"
            },
            {
                "data": "-2:7210",
                "leaf": "subtitle",
                "type": "Leaf"
            },
            {
                "data": "-2:7246",
                "leaf": "subtitle",
                "type": "Leaf"
            },
            {
                "data": "-2:7320",
                "leaf": "subtitle",
                "type": "Leaf"
            },
            {
                "data": "-2:7398",
                "leaf": "subtitle",
                "type": "Leaf"
            },
            {
                "data": "-2:7449",
                "leaf": "subtitle",
                "type": "Leaf"
            },
            {
                "data": "-2:7534",
                "leaf": "subtitle",
                "type": "Leaf"
            },
            {
                "data": "-2:7684",
                "leaf": "subtitle",
                "type": "Leaf"
            },
            {
                "data": "-2:7742",
                "leaf": "subtitle",
                "type": "Leaf"
            },
            {
                "data": "-2:7804",
                "leaf": "subtitle",
                "type": "Leaf"
            },
            {
                "data": "-2:7932",
                "leaf": "subtitle",
                "type": "Leaf"
            },
            {
                "data": "-2:8226",
                "leaf": "subtitle",
                "type": "Leaf"
            },
            {
                "data": "-2:18190",
                "leaf": "subtitle",
                "type": "Leaf"
            },
            {
                "data": "-2:18247",
                "leaf": "subtitle",
                "type": "Leaf"
            },
            {
                "data": "-2:18326",
                "leaf": "subtitle",
                "type": "Leaf"
            },
            {
                "data": "-2:18413",
                "leaf": "subtitle",
                "type": "Leaf"
            },
            {
                "data": "-2:18469",
                "leaf": "subtitle",
                "type": "Leaf"
            },
            {
                "data": "-2:18505",
                "leaf": "subtitle",
                "type": "Leaf"
            },
            {
                "data": "-2:18613",
                "leaf": "subtitle",
                "type": "Leaf"
            },
            {
                "data": "-2:18672",
                "leaf": "subtitle",
                "type": "Leaf"
            },
            {
                "data": "-2:18758",
                "leaf": "subtitle",
                "type": "Leaf"
            },
            {
                "data": "-2:18821",
                "leaf": "subtitle",
                "type": "Leaf"
            },
            {
                "data": "-2:18897",
                "leaf": "subtitle",
                "type": "Leaf"
            },
            {
                "data": "-2:18955",
                "leaf": "subtitle",
                "type": "Leaf"
            },
            {
                "data": "-2:19109",
                "leaf": "subtitle",
                "type": "Leaf"
            },
            {
                "data": "-2:19148",
                "leaf": "subtitle",
                "type": "Leaf"
            },
            {
                "data": "-2:19236",
                "leaf": "subtitle",
                "type": "Leaf"
            },
            {
                "data": "-2:19331",
                "leaf": "subtitle",
                "type": "Leaf"
            },
            {
                "data": "-2:19390",
                "leaf": "subtitle",
                "type": "Leaf"
            },
            {
                "data": "-2:19489",
                "leaf": "subtitle",
                "type": "Leaf"
            },
            {
                "data": "-2:19563",
                "leaf": "subtitle",
                "type": "Leaf"
            },
            {
                "data": "-2:19640",
                "leaf": "subtitle",
                "type": "Leaf"
            },
            {
                "data": "-2:19696",
                "leaf": "subtitle",
                "type": "Leaf"
            },
            {
                "data": "-2:19737",
                "leaf": "subtitle",
                "type": "Leaf"
            },
            {
                "data": "-2:19826",
                "leaf": "subtitle",
                "type": "Leaf"
            },
            {
                "data": "-2:19867",
                "leaf": "subtitle",
                "type": "Leaf"
            },
            {
                "data": "-2:19932",
                "leaf": "subtitle",
                "type": "Leaf"
            },
            {
                "data": "-2:19980",
                "leaf": "subtitle",
                "type": "Leaf"
            },
            {
                "data": "-2:20045",
                "leaf": "subtitle",
                "type": "Leaf"
            },
            {
                "data": "-2:20140",
                "leaf": "subtitle",
                "type": "Leaf"
            },
            {
                "data": "-2:20162",
                "leaf": "subtitle",
                "type": "Leaf"
            },
            {
                "data": "-2:20224",
                "leaf": "subtitle",
                "type": "Leaf"
            },
            {
                "data": "-2:20263",
                "leaf": "subtitle",
                "type": "Leaf"
            },
            {
                "data": "-2:20310",
                "leaf": "subtitle",
                "type": "Leaf"
            },
            {
                "data": "-2:20394",
                "leaf": "subtitle",
                "type": "Leaf"
            },
            {
                "data": "-2:20438",
                "leaf": "subtitle",
                "type": "Leaf"
            },
            {
                "data": "-2:20482",
                "leaf": "subtitle",
                "type": "Leaf"
            }
        ],
        "type": "Selection"
    }
]
</property>
  <property name="kdenlive:docproperties.guides">[
    {
        "comment": "Echo start",
        "pos": 1997,
        "type": 8
    },
    {
        "comment": "Echo end",
        "pos": 2236,
        "type": 8
    },
    {
        "comment": "03 Shapes",
        "pos": 35896,
        "type": 0
    },
    {
        "comment": "02 Setup",
        "pos": 25217,
        "type": 0
    },
    {
        "comment": "Echo in",
        "pos": 75199,
        "type": 8
    },
    {
        "comment": "Echo out",
        "pos": 75531,
        "type": 8
    },
    {
        "comment": "04 Examples",
        "pos": 82297,
        "type": 0
    }
]
</property>
  <property name="kdenlive:docproperties.guidesCategories">[
    {
        "color": "#9b59b6",
        "comment": "Category 1",
        "index": 0
    },
    {
        "color": "#3daee9",
        "comment": "Category 2",
        "index": 1
    },
    {
        "color": "#1abc9c",
        "comment": "Category 3",
        "index": 2
    },
    {
        "color": "#1cdc9a",
        "comment": "Category 4",
        "index": 3
    },
    {
        "color": "#c9ce3b",
        "comment": "Category 5",
        "index": 4
    },
    {
        "color": "#fdbc4b",
        "comment": "Category 6",
        "index": 5
    },
    {
        "color": "#f39c1f",
        "comment": "Category 7",
        "index": 6
    },
    {
        "color": "#f47750",
        "comment": "Category 8",
        "index": 7
    },
    {
        "color": "#da4453",
        "comment": "Category 9",
        "index": 8
    }
]
</property>
  <property name="kdenlive:docproperties.kdenliveversion">22.12.1</property>
  <property name="kdenlive:docproperties.position">0</property>
  <property name="kdenlive:docproperties.previewextension"/>
  <property name="kdenlive:docproperties.previewparameters"/>
  <property name="kdenlive:docproperties.profile">atsc_720p_30</property>
  <property name="kdenlive:docproperties.proxyextension"/>
  <property name="kdenlive:docproperties.proxyimageminsize">2000</property>
  <property name="kdenlive:docproperties.proxyimagesize">800</property>
  <property name="kdenlive:docproperties.proxyminsize">1000</property>
  <property name="kdenlive:docproperties.proxyparams"/>
  <property name="kdenlive:docproperties.proxyresize">640</property>
  <property name="kdenlive:docproperties.rendercategory">Generic (HD for web, mobile devices...)</property>
  <property name="kdenlive:docproperties.rendercustomquality">91</property>
  <property name="kdenlive:docproperties.renderendguide">7</property>
  <property name="kdenlive:docproperties.renderexportaudio">0</property>
  <property name="kdenlive:docproperties.rendermode">2</property>
  <property name="kdenlive:docproperties.renderplay">0</property>
  <property name="kdenlive:docproperties.renderpreview">0</property>
  <property name="kdenlive:docproperties.renderprofile">MP4-H264/AAC</property>
  <property name="kdenlive:docproperties.renderratio">1</property>
  <property name="kdenlive:docproperties.renderrescale">0</property>
  <property name="kdenlive:docproperties.renderrescaleheight">360</property>
  <property name="kdenlive:docproperties.renderrescalewidth">640</property>
  <property name="kdenlive:docproperties.renderspeed">2</property>
  <property name="kdenlive:docproperties.renderstartguide">7</property>
  <property name="kdenlive:docproperties.rendertcoverlay">0</property>
  <property name="kdenlive:docproperties.rendertctype">-1</property>
  <property name="kdenlive:docproperties.rendertwopass">0</property>
  <property name="kdenlive:docproperties.scrollPos">0</property>
  <property name="kdenlive:docproperties.seekOffset">30000</property>
  <property name="kdenlive:docproperties.version">1.04</property>
  <property name="kdenlive:docproperties.verticalzoom">1</property>
  <property name="kdenlive:docproperties.videoTarget">-1</property>
  <property name="kdenlive:docproperties.zonein">126128</property>
  <property name="kdenlive:docproperties.zoneout">127756</property>
  <property name="kdenlive:docproperties.zoom">5</property>
  <property name="kdenlive:docmetadata.meta.attr.author.markup">Jake Rayson</property>
  <property name="kdenlive:docmetadata.meta.attr.copyright.markup">Nature Works</property>
  <property name="kdenlive:docmetadata.meta.attr.title.markup">CAD for Gardeners</property>
  <property name="kdenlive:docmetadata.meta.attr.year.markup">2023</property>
  <property name="kdenlive:expandedFolders"/>
  <property name="kdenlive:documentnotes"/>
  <property name="xml_retain">1</property>
  <entry producer="producer0" in="00:00:00.000" out="00:24:20.733"/>
  <entry producer="producer2" in="00:00:00.000" out="00:24:21.033"/>
  <entry producer="producer1" in="00:00:00.000" out="00:24:21.167"/>
  <entry producer="producer3" in="00:00:00.000" out="00:09:14.400"/>
  <entry producer="producer4" in="00:00:00.000" out="00:09:14.133"/>
  <entry producer="producer5" in="00:00:00.000" out="00:09:14.967"/>
  <entry producer="producer6" in="00:00:00.000" out="00:08:18.800"/>
  <entry producer="producer8" in="00:00:00.000" out="00:08:19.067"/>
  <entry producer="producer7" in="00:00:00.000" out="00:08:19.267"/>
  <entry producer="producer9" in="00:00:00.000" out="00:14:21.900"/>
  <entry producer="producer11" in="00:00:00.000" out="00:14:22.033"/>
  <entry producer="producer10" in="00:00:00.000" out="00:14:22.433"/>
  <entry producer="producer12" in="00:00:00.000" out="00:10:10.967"/>
  <entry producer="producer14" in="00:00:00.000" out="00:10:03.700"/>
  <entry producer="producer13" in="00:00:00.000" out="00:10:14.800"/>
  <entry producer="producer16" in="00:00:00.000" out="00:33:34.467"/>
  <entry producer="producer15" in="00:00:00.000" out="00:33:34.267"/>
  <entry producer="producer17" in="00:00:00.000" out="00:33:35.200"/>
  <entry producer="producer19" in="00:00:00.000" out="00:00:05.433"/>
  <entry producer="producer20" in="00:00:00.000" out="00:00:05.800"/>
  <entry producer="producer18" in="00:00:00.000" out="00:00:05.833"/>
  <entry producer="producer21" in="00:00:00.000" out="00:00:04.967"/>
  <entry producer="producer22" in="00:00:00.000" out="00:00:05.967"/>
  <entry producer="producer23" in="00:00:00.000" out="00:00:06.767"/>
  <entry producer="producer24" in="00:00:00.000" out="00:00:08.633"/>
  <entry producer="producer25" in="00:00:00.000" out="00:00:08.633"/>
  <entry producer="producer26" in="00:00:00.000" out="00:00:04.967"/>
  <entry producer="producer27" in="00:00:00.000" out="00:00:12.000"/>
  <entry producer="producer28" in="00:00:00.000" out="00:00:06.967"/>
  <entry producer="producer29" in="00:00:00.000" out="00:00:07.000"/>
  <entry producer="producer30" in="00:00:00.000" out="00:00:19.600"/>
  <entry producer="producer31" in="00:00:00.000" out="00:00:19.600"/>
  <entry producer="producer32" in="00:00:00.000" out="00:00:19.600"/>
  <entry producer="producer61" in="00:00:00.000" out="00:00:04.967"/>
  <entry producer="producer34" in="00:00:00.000" out="00:00:09.667"/>
  <entry producer="producer35" in="00:00:00.000" out="00:00:09.667"/>
  <entry producer="producer36" in="00:00:00.000" out="00:00:04.967"/>
  <entry producer="producer37" in="00:00:00.000" out="00:00:09.700"/>
  <entry producer="producer38" in="00:00:00.000" out="00:00:19.600"/>
  <entry producer="producer39" in="00:00:00.000" out="00:00:24.000"/>
  <entry producer="producer40" in="00:00:00.000" out="00:00:19.833"/>
  <entry producer="producer41" in="00:00:00.000" out="00:00:05.833"/>
  <entry producer="producer42" in="00:00:00.000" out="00:00:19.600"/>
  <entry producer="producer43" in="00:00:00.000" out="00:00:19.600"/>
  <entry producer="producer44" in="00:00:00.000" out="00:00:19.600"/>
  <entry producer="producer45" in="00:00:00.000" out="00:00:19.600"/>
  <entry producer="producer46" in="00:00:00.000" out="00:00:19.600"/>
  <entry producer="producer47" in="00:00:00.000" out="00:00:19.600"/>
  <entry producer="producer48" in="00:00:00.000" out="00:00:04.967"/>
  <entry producer="producer49" in="00:00:00.000" out="00:00:19.600"/>
  <entry producer="producer50" in="00:00:00.000" out="00:00:09.667"/>
  <entry producer="producer51" in="00:00:00.000" out="00:00:04.967"/>
  <entry producer="producer52" in="00:00:00.000" out="00:00:12.700"/>
  <entry producer="producer53" in="00:00:00.000" out="00:00:19.600"/>
  <entry producer="producer54" in="00:00:00.000" out="00:00:07.000"/>
  <entry producer="producer55" in="00:00:00.000" out="00:00:05.267"/>
  <entry producer="producer56" in="00:00:00.000" out="00:00:06.333"/>
  <entry producer="producer57" in="00:00:00.000" out="00:00:04.967"/>
  <entry producer="producer33" in="00:00:00.000" out="00:00:04.967"/>
  <entry producer="producer58" in="00:00:00.000" out="00:00:04.967"/>
  <entry producer="producer59" in="00:00:00.000" out="00:00:05.800"/>
  <entry producer="producer60" in="00:00:00.000" out="00:00:04.967"/>
  <entry producer="producer62" in="00:00:00.000" out="00:00:07.000"/>
  <entry producer="producer63" in="00:00:00.000" out="00:00:07.000"/>
  <entry producer="producer64" in="00:00:00.000" out="00:00:12.000"/>
  <entry producer="producer65" in="00:00:00.000" out="00:00:04.967"/>
  <entry producer="producer70" in="00:00:00.000" out="00:00:08.567"/>
  <entry producer="producer66" in="00:00:00.000" out="00:01:41.333"/>
  <entry producer="producer67" in="00:00:00.000" out="00:01:41.167"/>
  <entry producer="producer68" in="00:00:00.000" out="00:01:41.800"/>
  <entry producer="producer69" in="00:00:00.000" out="00:00:11.633"/>
  <entry producer="producer71" in="00:00:00.000" out="00:00:19.600"/>
  <entry producer="producer72" in="00:00:00.000" out="00:00:19.600"/>
  <entry producer="producer73" in="00:00:00.000" out="00:00:12.367"/>
  <entry producer="producer74" in="00:00:00.000" out="00:00:12.167"/>
  <entry producer="producer75" in="00:00:00.000" out="00:00:12.167"/>
  <entry producer="producer76" in="00:00:00.000" out="00:00:12.000"/>
  <entry producer="producer77" in="00:00:00.000" out="00:00:13.267"/>
 </playlist>
 <producer id="black_track" in="00:00:00.000" out="00:41:55.033">
  <property name="length">2147483647</property>
  <property name="eof">continue</property>
  <property name="resource">black</property>
  <property name="aspect_ratio">1</property>
  <property name="mlt_service">color</property>
  <property name="mlt_image_format">rgba</property>
  <property name="set.test_audio">0</property>
 </producer>
 <playlist id="playlist0">
  <property name="kdenlive:audio_track">1</property>
 </playlist>
 <playlist id="playlist1">
  <property name="kdenlive:audio_track">1</property>
 </playlist>
 <tractor id="tractor0" in="00:00:00.000">
  <property name="kdenlive:audio_track">1</property>
  <property name="kdenlive:trackheight">67</property>
  <property name="kdenlive:timeline_active">1</property>
  <property name="kdenlive:collapsed">0</property>
  <property name="kdenlive:thumbs_format"/>
  <property name="kdenlive:audio_rec"/>
  <track hide="video" producer="playlist0"/>
  <track hide="video" producer="playlist1"/>
  <filter id="filter3">
   <property name="window">75</property>
   <property name="max_gain">20dB</property>
   <property name="mlt_service">volume</property>
   <property name="internal_added">237</property>
   <property name="disable">1</property>
  </filter>
  <filter id="filter4">
   <property name="channel">-1</property>
   <property name="mlt_service">panner</property>
   <property name="internal_added">237</property>
   <property name="start">0.5</property>
   <property name="disable">1</property>
  </filter>
  <filter id="filter5">
   <property name="iec_scale">0</property>
   <property name="mlt_service">audiolevel</property>
   <property name="dbpeak">1</property>
   <property name="disable">1</property>
  </filter>
 </tractor>
 <playlist id="playlist2">
  <property name="kdenlive:audio_track">1</property>
 </playlist>
 <playlist id="playlist3">
  <property name="kdenlive:audio_track">1</property>
 </playlist>
 <tractor id="tractor1" in="00:00:00.000">
  <property name="kdenlive:audio_track">1</property>
  <property name="kdenlive:trackheight">67</property>
  <property name="kdenlive:timeline_active">1</property>
  <property name="kdenlive:collapsed">0</property>
  <property name="kdenlive:thumbs_format"/>
  <property name="kdenlive:audio_rec"/>
  <track hide="video" producer="playlist2"/>
  <track hide="video" producer="playlist3"/>
  <filter id="filter6">
   <property name="window">75</property>
   <property name="max_gain">20dB</property>
   <property name="mlt_service">volume</property>
   <property name="internal_added">237</property>
   <property name="disable">1</property>
  </filter>
  <filter id="filter7">
   <property name="channel">-1</property>
   <property name="mlt_service">panner</property>
   <property name="internal_added">237</property>
   <property name="start">0.5</property>
   <property name="disable">1</property>
  </filter>
  <filter id="filter8">
   <property name="iec_scale">0</property>
   <property name="mlt_service">audiolevel</property>
   <property name="dbpeak">1</property>
   <property name="disable">1</property>
  </filter>
 </tractor>
 <producer id="producer81" in="00:00:00.000" out="00:08:18.800">
  <property name="length">14965</property>
  <property name="eof">pause</property>
  <property name="resource">/media/jaker/Pterosaur/Videos/Class/CAD/clips/04.0 examples audio.mkv</property>
  <property name="audio_index">1</property>
  <property name="video_index">0</property>
  <property name="mute_on_pause">0</property>
  <property name="mlt_service">avformat-novalidate</property>
  <property name="meta.media.nb_streams">2</property>
  <property name="meta.media.0.stream.type">video</property>
  <property name="meta.media.0.stream.frame_rate">30</property>
  <property name="meta.media.0.stream.sample_aspect_ratio">0</property>
  <property name="meta.media.0.codec.width">1280</property>
  <property name="meta.media.0.codec.height">720</property>
  <property name="meta.media.0.codec.rotate">0</property>
  <property name="meta.media.0.codec.pix_fmt">yuv420p</property>
  <property name="meta.media.0.codec.sample_aspect_ratio">1</property>
  <property name="meta.media.0.codec.colorspace">709</property>
  <property name="meta.media.0.codec.color_trc">1</property>
  <property name="meta.media.0.codec.name">h264</property>
  <property name="meta.media.0.codec.long_name">H.264 / AVC / MPEG-4 AVC / MPEG-4 part 10</property>
  <property name="meta.media.0.codec.bit_rate">0</property>
  <property name="meta.attr.0.stream.DURATION.markup">00:08:18.833000000</property>
  <property name="meta.media.1.stream.type">audio</property>
  <property name="meta.media.1.codec.sample_fmt">fltp</property>
  <property name="meta.media.1.codec.sample_rate">48000</property>
  <property name="meta.media.1.codec.channels">2</property>
  <property name="meta.media.1.codec.name">aac</property>
  <property name="meta.media.1.codec.long_name">AAC (Advanced Audio Coding)</property>
  <property name="meta.media.1.codec.bit_rate">0</property>
  <property name="meta.attr.1.stream.title.markup">Track1</property>
  <property name="meta.attr.1.stream.DURATION.markup">00:08:18.666000000</property>
  <property name="meta.attr.ENCODER.markup">Lavf58.76.100</property>
  <property name="seekable">1</property>
  <property name="meta.media.sample_aspect_num">1</property>
  <property name="meta.media.sample_aspect_den">1</property>
  <property name="aspect_ratio">1</property>
  <property name="format">3</property>
  <property name="kdenlive:clipname"/>
  <property name="kdenlive:clip_type">0</property>
  <property name="kdenlive:folderid">-1</property>
  <property name="kdenlive:id">8</property>
  <property name="kdenlive:file_size">166196431</property>
  <property name="kdenlive:file_hash">154550b3169f03cb423d9ba991480391</property>
  <property name="kdenlive:audio_max1">195</property>
  <property name="xml">was here</property>
  <property name="meta.media.frame_rate_num">30</property>
  <property name="meta.media.frame_rate_den">1</property>
  <property name="meta.media.colorspace">709</property>
  <property name="meta.media.color_trc">1</property>
  <property name="meta.media.has_b_frames">2</property>
  <property name="meta.media.width">1280</property>
  <property name="meta.media.height">720</property>
  <property name="meta.media.color_range">mpeg</property>
  <property name="meta.media.top_field_first">0</property>
  <property name="meta.media.progressive">1</property>
  <property name="set.test_audio">0</property>
  <property name="set.test_image">1</property>
 </producer>
 <playlist id="playlist4">
  <property name="kdenlive:audio_track">1</property>
  <entry producer="producer81" in="00:00:08.267" out="00:00:53.133">
   <property name="kdenlive:id">8</property>
  </entry>
  <entry producer="producer81" in="00:00:57.767" out="00:01:51.600">
   <property name="kdenlive:id">8</property>
  </entry>
 </playlist>
 <playlist id="playlist5">
  <property name="kdenlive:audio_track">1</property>
 </playlist>
 <tractor id="tractor2" in="00:00:00.000" out="00:01:38.733">
  <property name="kdenlive:audio_track">1</property>
  <property name="kdenlive:trackheight">67</property>
  <property name="kdenlive:timeline_active">1</property>
  <property name="kdenlive:collapsed">0</property>
  <property name="kdenlive:track_name">Audio</property>
  <property name="kdenlive:thumbs_format"/>
  <property name="kdenlive:audio_rec"/>
  <track hide="video" producer="playlist4"/>
  <track hide="video" producer="playlist5"/>
  <filter id="filter9">
   <property name="window">75</property>
   <property name="max_gain">20dB</property>
   <property name="mlt_service">volume</property>
   <property name="internal_added">237</property>
   <property name="disable">1</property>
  </filter>
  <filter id="filter10">
   <property name="channel">-1</property>
   <property name="mlt_service">panner</property>
   <property name="internal_added">237</property>
   <property name="start">0.5</property>
   <property name="disable">1</property>
  </filter>
  <filter id="filter11">
   <property name="iec_scale">0</property>
   <property name="mlt_service">audiolevel</property>
   <property name="dbpeak">1</property>
   <property name="disable">1</property>
  </filter>
 </tractor>
 <producer id="producer88" in="00:00:00.000" out="00:08:19.067">
  <property name="length">14973</property>
  <property name="eof">pause</property>
  <property name="resource">/media/jaker/Pterosaur/Videos/Class/CAD/clips/04.0 examples desktop.mkv</property>
  <property name="audio_index">1</property>
  <property name="video_index">0</property>
  <property name="mute_on_pause">0</property>
  <property name="mlt_service">avformat-novalidate</property>
  <property name="meta.media.nb_streams">2</property>
  <property name="meta.media.0.stream.type">video</property>
  <property name="meta.media.0.stream.frame_rate">30</property>
  <property name="meta.media.0.stream.sample_aspect_ratio">0</property>
  <property name="meta.media.0.codec.width">1920</property>
  <property name="meta.media.0.codec.height">1080</property>
  <property name="meta.media.0.codec.rotate">0</property>
  <property name="meta.media.0.codec.pix_fmt">yuv420p</property>
  <property name="meta.media.0.codec.sample_aspect_ratio">1</property>
  <property name="meta.media.0.codec.colorspace">709</property>
  <property name="meta.media.0.codec.color_trc">1</property>
  <property name="meta.media.0.codec.name">h264</property>
  <property name="meta.media.0.codec.long_name">H.264 / AVC / MPEG-4 AVC / MPEG-4 part 10</property>
  <property name="meta.media.0.codec.bit_rate">0</property>
  <property name="meta.attr.0.stream.DURATION.markup">00:08:19.100000000</property>
  <property name="meta.media.1.stream.type">audio</property>
  <property name="meta.media.1.codec.sample_fmt">fltp</property>
  <property name="meta.media.1.codec.sample_rate">48000</property>
  <property name="meta.media.1.codec.channels">2</property>
  <property name="meta.media.1.codec.name">aac</property>
  <property name="meta.media.1.codec.long_name">AAC (Advanced Audio Coding)</property>
  <property name="meta.media.1.codec.bit_rate">0</property>
  <property name="meta.attr.1.stream.title.markup">Source Record</property>
  <property name="meta.attr.1.stream.DURATION.markup">00:08:19.114000000</property>
  <property name="meta.attr.ENCODER.markup">Lavf58.76.100</property>
  <property name="seekable">1</property>
  <property name="meta.media.sample_aspect_num">1</property>
  <property name="meta.media.sample_aspect_den">1</property>
  <property name="aspect_ratio">1</property>
  <property name="format">3</property>
  <property name="kdenlive:clipname"/>
  <property name="kdenlive:clip_type">0</property>
  <property name="kdenlive:folderid">-1</property>
  <property name="kdenlive:id">9</property>
  <property name="kdenlive:file_size">156406009</property>
  <property name="kdenlive:file_hash">7f91ba74889d494d7efc8794a681e8ae</property>
  <property name="kdenlive:audio_max1">1</property>
  <property name="xml">was here</property>
  <property name="meta.media.frame_rate_num">30</property>
  <property name="meta.media.frame_rate_den">1</property>
  <property name="meta.media.colorspace">709</property>
  <property name="meta.media.color_trc">1</property>
  <property name="meta.media.has_b_frames">0</property>
  <property name="meta.media.width">1920</property>
  <property name="meta.media.height">1080</property>
  <property name="meta.media.color_range">mpeg</property>
  <property name="meta.media.top_field_first">0</property>
  <property name="meta.media.progressive">1</property>
  <property name="set.test_audio">1</property>
  <property name="set.test_image">0</property>
 </producer>
 <playlist id="playlist6">
  <entry producer="producer88" in="00:00:08.267" out="00:00:53.133">
   <property name="kdenlive:id">9</property>
  </entry>
  <entry producer="producer88" in="00:00:57.767" out="00:01:51.600">
   <property name="kdenlive:id">9</property>
  </entry>
 </playlist>
 <playlist id="playlist7"/>
 <tractor id="tractor3" in="00:00:00.000" out="00:01:38.733">
  <property name="kdenlive:trackheight">67</property>
  <property name="kdenlive:timeline_active">1</property>
  <property name="kdenlive:collapsed">0</property>
  <property name="kdenlive:track_name">Desktop</property>
  <property name="kdenlive:thumbs_format"/>
  <property name="kdenlive:audio_rec"/>
  <track hide="audio" producer="playlist6"/>
  <track hide="audio" producer="playlist7"/>
 </tractor>
 <producer id="producer95" in="00:00:00.000" out="00:08:19.267">
  <property name="length">14979</property>
  <property name="eof">pause</property>
  <property name="resource">/media/jaker/Pterosaur/Videos/Class/CAD/clips/04.0 examples facecam.mkv</property>
  <property name="audio_index">1</property>
  <property name="video_index">0</property>
  <property name="mute_on_pause">0</property>
  <property name="mlt_service">avformat-novalidate</property>
  <property name="meta.media.nb_streams">2</property>
  <property name="meta.media.0.stream.type">video</property>
  <property name="meta.media.0.stream.frame_rate">30</property>
  <property name="meta.media.0.stream.sample_aspect_ratio">0</property>
  <property name="meta.media.0.codec.width">800</property>
  <property name="meta.media.0.codec.height">600</property>
  <property name="meta.media.0.codec.rotate">0</property>
  <property name="meta.media.0.codec.pix_fmt">yuv420p</property>
  <property name="meta.media.0.codec.sample_aspect_ratio">1</property>
  <property name="meta.media.0.codec.colorspace">709</property>
  <property name="meta.media.0.codec.color_trc">1</property>
  <property name="meta.media.0.codec.name">h264</property>
  <property name="meta.media.0.codec.long_name">H.264 / AVC / MPEG-4 AVC / MPEG-4 part 10</property>
  <property name="meta.media.0.codec.bit_rate">0</property>
  <property name="meta.attr.0.stream.DURATION.markup">00:08:19.300000000</property>
  <property name="meta.media.1.stream.type">audio</property>
  <property name="meta.media.1.codec.sample_fmt">fltp</property>
  <property name="meta.media.1.codec.sample_rate">48000</property>
  <property name="meta.media.1.codec.channels">2</property>
  <property name="meta.media.1.codec.name">aac</property>
  <property name="meta.media.1.codec.long_name">AAC (Advanced Audio Coding)</property>
  <property name="meta.media.1.codec.bit_rate">0</property>
  <property name="meta.attr.1.stream.title.markup">Source Record</property>
  <property name="meta.attr.1.stream.DURATION.markup">00:08:19.285000000</property>
  <property name="meta.attr.ENCODER.markup">Lavf58.76.100</property>
  <property name="seekable">1</property>
  <property name="meta.media.sample_aspect_num">1</property>
  <property name="meta.media.sample_aspect_den">1</property>
  <property name="aspect_ratio">1</property>
  <property name="format">3</property>
  <property name="kdenlive:clipname"/>
  <property name="kdenlive:clip_type">0</property>
  <property name="kdenlive:folderid">-1</property>
  <property name="kdenlive:id">10</property>
  <property name="kdenlive:file_size">156453412</property>
  <property name="kdenlive:file_hash">ea3e928635eee5f7eccd0f6ee2fb6f3a</property>
  <property name="kdenlive:audio_max1">1</property>
  <property name="xml">was here</property>
  <property name="meta.media.frame_rate_num">30</property>
  <property name="meta.media.frame_rate_den">1</property>
  <property name="meta.media.colorspace">709</property>
  <property name="meta.media.color_trc">1</property>
  <property name="meta.media.has_b_frames">0</property>
  <property name="meta.media.width">800</property>
  <property name="meta.media.height">600</property>
  <property name="meta.media.color_range">mpeg</property>
  <property name="meta.media.top_field_first">0</property>
  <property name="meta.media.progressive">1</property>
  <property name="set.test_audio">1</property>
  <property name="set.test_image">0</property>
 </producer>
 <playlist id="playlist8">
  <entry producer="producer95" in="00:00:08.267" out="00:00:53.133">
   <property name="kdenlive:id">10</property>
   <filter id="filter123">
    <property name="version">0.1</property>
    <property name="mlt_service">frei0r.scale0tilt</property>
    <property name="kdenlive_id">Facecam crop</property>
    <property name="Clip left">00:00:08.267=0.296875</property>
    <property name="Clip right">00:00:08.267=0.224219</property>
    <property name="Clip top">00:00:08.267=0.0944444</property>
    <property name="Clip bottom">00:00:08.267=0</property>
    <property name="Scale X">00:00:08.267=0.27</property>
    <property name="Scale Y">00:00:08.267=0.27</property>
    <property name="Tilt X">00:00:08.267=0.790104</property>
    <property name="Tilt Y">00:00:08.267=0.730556</property>
    <property name="kdenlive:collapsed">0</property>
   </filter>
  </entry>
  <entry producer="producer95" in="00:00:57.767" out="00:01:51.600">
   <property name="kdenlive:id">10</property>
   <filter id="filter124">
    <property name="version">0.1</property>
    <property name="mlt_service">frei0r.scale0tilt</property>
    <property name="kdenlive_id">Facecam crop</property>
    <property name="Clip left">00:00:57.767=0.296875</property>
    <property name="Clip right">00:00:57.767=0.224219</property>
    <property name="Clip top">00:00:57.767=0.0944444</property>
    <property name="Clip bottom">00:00:57.767=0</property>
    <property name="Scale X">00:00:57.767=0.27</property>
    <property name="Scale Y">00:00:57.767=0.27</property>
    <property name="Tilt X">00:00:57.767=0.790104</property>
    <property name="Tilt Y">00:00:57.767=0.730556</property>
    <property name="kdenlive:collapsed">0</property>
   </filter>
  </entry>
 </playlist>
 <playlist id="playlist9"/>
 <tractor id="tractor4" in="00:00:00.000" out="00:01:38.733">
  <property name="kdenlive:trackheight">67</property>
  <property name="kdenlive:timeline_active">1</property>
  <property name="kdenlive:collapsed">0</property>
  <property name="kdenlive:track_name">Facecam</property>
  <property name="kdenlive:thumbs_format"/>
  <property name="kdenlive:audio_rec"/>
  <track hide="audio" producer="playlist8"/>
  <track hide="audio" producer="playlist9"/>
 </tractor>
 <playlist id="playlist10"/>
 <playlist id="playlist11"/>
 <tractor id="tractor5" in="00:00:00.000">
  <property name="kdenlive:trackheight">67</property>
  <property name="kdenlive:timeline_active">1</property>
  <property name="kdenlive:collapsed">0</property>
  <property name="kdenlive:track_name">Titles</property>
  <property name="kdenlive:thumbs_format"/>
  <property name="kdenlive:audio_rec"/>
  <track hide="audio" producer="playlist10"/>
  <track hide="audio" producer="playlist11"/>
 </tractor>
 <playlist id="playlist12"/>
 <playlist id="playlist13"/>
 <tractor id="tractor6" in="00:00:00.000">
  <property name="kdenlive:trackheight">67</property>
  <property name="kdenlive:timeline_active">1</property>
  <property name="kdenlive:collapsed">0</property>
  <property name="kdenlive:track_name">Images</property>
  <property name="kdenlive:thumbs_format"/>
  <property name="kdenlive:audio_rec"/>
  <track hide="audio" producer="playlist12"/>
  <track hide="audio" producer="playlist13"/>
 </tractor>
 <tractor id="tractor7" in="00:00:00.000" out="00:41:55.033">
  <track producer="black_track"/>
  <track producer="tractor0"/>
  <track producer="tractor1"/>
  <track producer="tractor2"/>
  <track producer="tractor3"/>
  <track producer="tractor4"/>
  <track producer="tractor5"/>
  <track producer="tractor6"/>
  <transition id="transition0">
   <property name="a_track">0</property>
   <property name="b_track">1</property>
   <property name="mlt_service">mix</property>
   <property name="kdenlive_id">mix</property>
   <property name="internal_added">237</property>
   <property name="always_active">1</property>
   <property name="accepts_blanks">1</property>
   <property name="sum">1</property>
  </transition>
  <transition id="transition1">
   <property name="a_track">0</property>
   <property name="b_track">2</property>
   <property name="mlt_service">mix</property>
   <property name="kdenlive_id">mix</property>
   <property name="internal_added">237</property>
   <property name="always_active">1</property>
   <property name="accepts_blanks">1</property>
   <property name="sum">1</property>
  </transition>
  <transition id="transition2">
   <property name="a_track">0</property>
   <property name="b_track">3</property>
   <property name="mlt_service">mix</property>
   <property name="kdenlive_id">mix</property>
   <property name="internal_added">237</property>
   <property name="always_active">1</property>
   <property name="accepts_blanks">1</property>
   <property name="sum">1</property>
  </transition>
  <transition id="transition3">
   <property name="a_track">0</property>
   <property name="b_track">4</property>
   <property name="version">0.1</property>
   <property name="mlt_service">frei0r.cairoblend</property>
   <property name="always_active">1</property>
   <property name="internal_added">237</property>
  </transition>
  <transition id="transition4">
   <property name="a_track">0</property>
   <property name="b_track">5</property>
   <property name="version">0.1</property>
   <property name="mlt_service">frei0r.cairoblend</property>
   <property name="always_active">1</property>
   <property name="internal_added">237</property>
  </transition>
  <transition id="transition5">
   <property name="a_track">0</property>
   <property name="b_track">6</property>
   <property name="version">0.1</property>
   <property name="mlt_service">frei0r.cairoblend</property>
   <property name="always_active">1</property>
   <property name="internal_added">237</property>
  </transition>
  <transition id="transition6">
   <property name="a_track">0</property>
   <property name="b_track">7</property>
   <property name="version">0.1</property>
   <property name="mlt_service">frei0r.cairoblend</property>
   <property name="always_active">1</property>
   <property name="internal_added">237</property>
  </transition>
  <filter id="filter306">
   <property name="window">75</property>
   <property name="max_gain">20dB</property>
   <property name="mlt_service">volume</property>
   <property name="internal_added">237</property>
   <property name="disable">1</property>
  </filter>
  <filter id="filter307">
   <property name="channel">-1</property>
   <property name="mlt_service">panner</property>
   <property name="internal_added">237</property>
   <property name="start">0.5</property>
   <property name="disable">1</property>
  </filter>
  <filter id="filter12">
   <property name="mlt_service">avfilter.subtitles</property>
   <property name="internal_added">237</property>
   <property name="av.filename">/var/tmp/1673512599751.srt</property>
   <property name="av.force_style">Alignment=2,</property>
   <property name="disable">0</property>
   <property name="kdenlive:locked">0</property>
  </filter>
 </tractor>
</mlt>
